<?xml version="1.0" encoding="utf-8"?>
<!-- Generator: Adobe Illustrator 16.0.0, SVG Export Plug-In . SVG Version: 6.00 Build 0)  -->
<!DOCTYPE svg PUBLIC "-//W3C//DTD SVG 1.1//EN" "http://www.w3.org/Graphics/SVG/1.1/DTD/svg11.dtd">
<svg version="1.1" id="Layer_2" xmlns="http://www.w3.org/2000/svg" xmlns:xlink="http://www.w3.org/1999/xlink" x="0px" y="0px"
	 viewBox="0 0 1000 1000" style="enable-background:new 0 0 1000 1000;" xml:space="preserve">
<style type="text/css">
<![CDATA[
	.st0{display:none;fill:#FFFFFF;stroke:#000000;stroke-width:4;stroke-miterlimit:10;}
	.st1{fill:#FFFFFF;stroke:#000000;stroke-miterlimit:10;}
	.st2{display:none;fill:none;stroke:#000000;stroke-width:9;stroke-miterlimit:10;}
	.st3{fill:none;stroke:#000000;stroke-width:4;stroke-miterlimit:10;}
	.st4{font-family:'MyriadPro-Regular';}
	.st5{fill:#FFFFFF;stroke:#000000;stroke-width:5;stroke-miterlimit:10;}
	.st6{fill:#FFFFFF;stroke:#000000;stroke-width:4;stroke-miterlimit:10;}
	.st7{font-size:72;}
	.st8{display:none;}
	.st9{fill:#FFFFFF;stroke:#000000;stroke-width:3;stroke-miterlimit:10;}
]]>
</style>
<circle style="fill:#ddd;" class="st1" cx="500" cy="455.711" r="302.542"/>
<g id="Layer_1">
	<path class="st6" d="M444.525,594.475c0,6.627-5.373,12-12,12H331.102c-6.627,0-12-5.373-12-12V348.983c0-6.627,5.373-12,12-12
		h101.424c6.627,0,12,5.373,12,12V594.475z"/>
	<path class="st6" d="M695.373,594.475c0,6.627-5.373,12-12,12H581.949c-6.627,0-12-5.373-12-12V348.983c0-6.627,5.373-12,12-12
		h101.424c6.627,0,12,5.373,12,12V594.475z"/>
	<path class="st0" d="M569.949,515.729c0,6.627-5.373,12-12,12H456.525c-6.627,0-12-5.373-12-12V270.237c0-6.627,5.373-12,12-12
		h101.424c6.627,0,12,5.373,12,12V515.729z"/>
	<path class="st5" d="M617.542,569.135c0,6.629-5.372,12-12,12H405.813c-6.627,0-12-5.371-12-12V467.711c0-6.627,5.373-12,12-12
		h199.729c6.628,0,12,5.373,12,12V569.135z"/>
	<path class="st9" d="M598.763,550.406c0,6.629-5.372,12-12,12H422.627c-6.627,0-12-5.371-12-12v-66.677c0-6.627,5.373-12,12-12
		h164.136c6.628,0,12,5.373,12,12V550.406z"/>
	<path class="st2" d="M348.051,427.712c0,31.853,20.468,57.628,45.763,57.628"/>
	<path class="st3" d="M547.916,583.135c0,22.484,19.71,40.678,44.067,40.678"/>
	<path class="st3" d="M461.982,581.135c0,22.484-19.71,40.678-44.067,40.678"/>
</g>
<text transform="matrix(1 0 0 1 461.9829 703.8975)" class="st8 st4 st7">3X</text>
</svg>
