<?xml version="1.0" encoding="utf-8"?>
<!-- Generator: Adobe Illustrator 16.0.0, SVG Export Plug-In . SVG Version: 6.00 Build 0)  -->
<!DOCTYPE svg PUBLIC "-//W3C//DTD SVG 1.1//EN" "http://www.w3.org/Graphics/SVG/1.1/DTD/svg11.dtd">
<svg version="1.1" xmlns="http://www.w3.org/2000/svg" xmlns:xlink="http://www.w3.org/1999/xlink" x="0px" y="0px" width="1000px"
	 height="1000px" viewBox="0 0 1000 1000" enable-background="new 0 0 1000 1000" xml:space="preserve">
<g id="Layer_1" display="none">
	<g display="inline">
		<g id="Layer_3">
			<path fill="#DDDDDD" stroke="#000000" stroke-miterlimit="10" d="M500,153.169c167.092,0,302.543,135.452,302.543,302.542
				c0,29.068-4.101,57.182-11.754,83.789c-4.146,14.412-9.335,28.387-15.479,41.829C727.601,685.718,622.271,758.252,500,758.253
				c-129.085,0-239.288-80.846-282.741-194.661c-3.007-7.877-5.693-15.912-8.047-24.089c-7.652-26.608-11.754-54.724-11.754-83.792
				C197.458,288.621,332.911,153.169,500,153.169z"/>
		</g>
		<g display="none">
			
				<line display="inline" fill="none" stroke="#000000" stroke-width="3" stroke-miterlimit="10" x1="770.5" y1="578.5" x2="223.421" y2="578.5"/>
		</g>
		<g display="none">
			
				<line display="inline" fill="none" stroke="#000000" stroke-width="3" stroke-miterlimit="10" x1="802.51" y1="459.527" x2="197.49" y2="459.527"/>
		</g>
		<g>
			<path d="M455.942,417.769l-14.328,37.872h-4.824l-11.95-31.032l-11.952,31.032h-4.824l-14.256-37.872h4.896l11.881,32.184
				l12.168-32.184h4.393l12.096,32.184l12.024-32.184H455.942z"/>
		</g>
		<g>
			<path d="M391.214,417.839l-14.328,37.872h-4.824l-11.952-31.032l-11.952,31.032h-4.823l-14.257-37.872h4.896l11.88,32.184
				l12.168-32.184h4.392l12.098,32.184l12.022-32.184H391.214z"/>
		</g>
		<g>
			<path d="M326.214,417.839l-14.328,37.872h-4.824l-11.952-31.032l-11.952,31.032h-4.824l-14.256-37.872h4.896l11.88,32.184
				l12.168-32.184h4.392l12.098,32.184l12.022-32.184H326.214z"/>
		</g>
		<g>
			<path d="M456.432,454.919c-0.745-0.769-1.116-1.703-1.116-2.81c0-1.104,0.371-2.025,1.116-2.771
				c0.744-0.744,1.644-1.116,2.7-1.116c1.055,0,1.968,0.372,2.734,1.116c0.769,0.745,1.152,1.668,1.152,2.771
				c0,1.105-0.385,2.041-1.152,2.81c-0.769,0.769-1.681,1.15-2.734,1.15C458.075,456.071,457.177,455.688,456.432,454.919z"/>
		</g>
		<g>
			<path d="M520.392,435.406c0.646-1.485,1.451-2.759,2.412-3.814c0.959-1.057,2.207-2.255,3.743-3.602
				c2.063-1.821,3.588-3.42,4.57-4.788c0.983-1.366,1.478-3.034,1.478-5.002c0-2.641-1.032-4.765-3.097-6.372
				c-2.063-1.608-4.896-2.412-8.495-2.412c-5.952,0-10.537,1.942-13.752,5.832l-3.816-2.88c4.08-4.991,10.056-7.488,17.928-7.488
				c5.041,0,9.063,1.128,12.063,3.384c3,2.257,4.5,5.305,4.5,9.146c0,1.969-0.324,3.706-0.974,5.22
				c-0.646,1.512-1.438,2.797-2.376,3.852c-0.936,1.056-2.172,2.28-3.708,3.672c-2.063,1.872-3.601,3.541-4.606,5.004
				c-1.008,1.465-1.514,3.276-1.514,5.438h-5.326C519.422,438.622,519.744,436.896,520.392,435.406z M519.422,454.953
				c-0.722-0.742-1.08-1.618-1.08-2.628c0-1.056,0.358-1.932,1.08-2.628c0.721-0.693,1.605-1.044,2.663-1.044
				c1.104,0,2.017,0.351,2.735,1.044c0.721,0.697,1.08,1.573,1.08,2.628c0,1.01-0.373,1.886-1.116,2.628
				c-0.745,0.745-1.646,1.116-2.699,1.116C521.027,456.071,520.14,455.698,519.422,454.953z"/>
		</g>
		<g>
			<path d="M561.892,435.406c0.646-1.485,1.451-2.759,2.412-3.814c0.959-1.057,2.207-2.255,3.743-3.602
				c2.063-1.821,3.588-3.42,4.57-4.788c0.983-1.366,1.478-3.034,1.478-5.002c0-2.641-1.032-4.765-3.097-6.372
				c-2.063-1.608-4.896-2.412-8.495-2.412c-5.952,0-10.537,1.942-13.752,5.832l-3.816-2.88c4.08-4.991,10.056-7.488,17.928-7.488
				c5.041,0,9.063,1.128,12.063,3.384c3,2.257,4.5,5.305,4.5,9.146c0,1.969-0.324,3.706-0.974,5.22
				c-0.646,1.512-1.438,2.797-2.376,3.852c-0.936,1.056-2.172,2.28-3.708,3.672c-2.063,1.872-3.601,3.541-4.606,5.004
				c-1.008,1.465-1.514,3.276-1.514,5.438h-5.326C560.922,438.622,561.244,436.896,561.892,435.406z M560.922,454.953
				c-0.722-0.742-1.08-1.618-1.08-2.628c0-1.056,0.358-1.932,1.08-2.628c0.721-0.693,1.605-1.044,2.663-1.044
				c1.104,0,2.017,0.351,2.735,1.044c0.721,0.697,1.08,1.573,1.08,2.628c0,1.01-0.373,1.886-1.116,2.628
				c-0.745,0.745-1.646,1.116-2.699,1.116C562.527,456.071,561.64,455.698,560.922,454.953z"/>
		</g>
		<g>
			<path d="M482.392,435.406c0.648-1.485,1.451-2.759,2.412-3.814c0.959-1.057,2.207-2.255,3.744-3.602
				c2.063-1.821,3.588-3.42,4.57-4.788c0.983-1.366,1.478-3.034,1.478-5.002c0-2.641-1.033-4.765-3.097-6.372
				c-2.064-1.608-4.896-2.412-8.495-2.412c-5.952,0-10.537,1.942-13.753,5.832l-3.815-2.88c4.079-4.991,10.055-7.488,17.928-7.488
				c5.04,0,9.062,1.128,12.062,3.384c3,2.257,4.5,5.305,4.5,9.146c0,1.969-0.324,3.706-0.974,5.22
				c-0.646,1.512-1.438,2.797-2.376,3.852c-0.936,1.056-2.172,2.28-3.708,3.672c-2.063,1.872-3.6,3.541-4.606,5.004
				c-1.009,1.465-1.514,3.276-1.514,5.438h-5.327C481.422,438.622,481.744,436.896,482.392,435.406z M481.422,454.953
				c-0.722-0.742-1.08-1.618-1.08-2.628c0-1.056,0.358-1.932,1.08-2.628c0.72-0.693,1.606-1.044,2.662-1.044
				c1.104,0,2.018,0.351,2.736,1.044c0.721,0.697,1.08,1.573,1.08,2.628c0,1.01-0.372,1.886-1.116,2.628
				c-0.745,0.745-1.645,1.116-2.7,1.116C483.029,456.07,482.14,455.698,481.422,454.953z"/>
		</g>
		<g>
			<path d="M592.431,454.919c-0.744-0.769-1.115-1.703-1.115-2.81c0-1.104,0.371-2.025,1.115-2.771
				c0.744-0.744,1.645-1.116,2.7-1.116c1.055,0,1.968,0.372,2.734,1.116c0.769,0.745,1.151,1.668,1.151,2.771
				c0,1.105-0.385,2.041-1.151,2.81c-0.769,0.769-1.681,1.15-2.734,1.15C594.076,456.071,593.177,455.688,592.431,454.919z"/>
		</g>
		<g>
			<path d="M613.279,453.621c-2.951-1.631-5.268-3.924-6.947-6.876c-1.681-2.95-2.52-6.273-2.52-9.972
				c0-3.696,0.839-7.008,2.52-9.936c1.682-2.929,3.996-5.208,6.947-6.84c2.953-1.631,6.301-2.448,10.045-2.448
				c3.266,0,6.182,0.637,8.748,1.908c2.566,1.271,4.596,3.132,6.084,5.578l-3.814,2.594c-1.248-1.872-2.832-3.276-4.752-4.214
				c-1.922-0.936-4.01-1.402-6.266-1.402c-2.734,0-5.197,0.611-7.381,1.836c-2.184,1.224-3.887,2.964-5.111,5.22
				c-1.225,2.257-1.836,4.824-1.836,7.704c0,2.928,0.611,5.508,1.836,7.74c1.227,2.23,2.93,3.96,5.111,5.184
				c2.186,1.226,4.646,1.836,7.381,1.836c2.256,0,4.344-0.456,6.266-1.368c1.92-0.909,3.504-2.304,4.752-4.176l3.814,2.592
				c-1.488,2.448-3.526,4.311-6.12,5.58c-2.593,1.272-5.497,1.908-8.712,1.908C619.58,456.071,616.232,455.256,613.279,453.621z"/>
		</g>
		<g>
			<path d="M656.279,453.621c-2.951-1.631-5.268-3.924-6.947-6.876c-1.681-2.95-2.52-6.273-2.52-9.972
				c0-3.696,0.839-7.008,2.52-9.936c1.682-2.929,3.996-5.208,6.947-6.84c2.953-1.631,6.301-2.448,10.045-2.448
				c3.266,0,6.182,0.637,8.748,1.908c2.566,1.271,4.596,3.132,6.084,5.578l-3.814,2.594c-1.248-1.872-2.832-3.276-4.752-4.214
				c-1.922-0.936-4.01-1.402-6.266-1.402c-2.734,0-5.197,0.611-7.381,1.836c-2.184,1.224-3.887,2.964-5.111,5.22
				c-1.225,2.257-1.836,4.824-1.836,7.704c0,2.928,0.611,5.508,1.836,7.74c1.227,2.23,2.93,3.96,5.111,5.184
				c2.186,1.226,4.646,1.836,7.381,1.836c2.256,0,4.344-0.456,6.266-1.368c1.92-0.909,3.504-2.304,4.752-4.176l3.814,2.592
				c-1.488,2.448-3.526,4.311-6.12,5.58c-2.593,1.272-5.497,1.908-8.712,1.908C662.58,456.071,659.232,455.256,656.279,453.621z"/>
		</g>
		<g>
			<path d="M698.279,453.621c-2.951-1.631-5.268-3.924-6.947-6.876c-1.681-2.95-2.52-6.273-2.52-9.972
				c0-3.696,0.839-7.008,2.52-9.936c1.682-2.929,3.996-5.208,6.947-6.84c2.953-1.631,6.301-2.448,10.045-2.448
				c3.266,0,6.182,0.637,8.748,1.908c2.566,1.271,4.596,3.132,6.084,5.578l-3.814,2.594c-1.248-1.872-2.832-3.276-4.752-4.214
				c-1.922-0.936-4.01-1.402-6.266-1.402c-2.734,0-5.197,0.611-7.381,1.836c-2.184,1.224-3.887,2.964-5.111,5.22
				c-1.225,2.257-1.836,4.824-1.836,7.704c0,2.928,0.611,5.508,1.836,7.74c1.227,2.23,2.93,3.96,5.111,5.184
				c2.186,1.226,4.646,1.836,7.381,1.836c2.256,0,4.344-0.456,6.266-1.368c1.92-0.909,3.504-2.304,4.752-4.176l3.814,2.592
				c-1.488,2.448-3.526,4.311-6.12,5.58c-2.593,1.272-5.497,1.908-8.712,1.908C704.58,456.071,701.232,455.256,698.279,453.621z"/>
		</g>
	</g>
	<g display="inline">
		<path d="M250.5,396.779h4.752v67.393H250.5V396.779z"/>
	</g>
	<div  class="typewriter">
		
			<text  transform="matrix(1 0 0 1 264.0769 578.5002)" startOffset="0" font-size="72" font-family="&apos;Montserrat-Regular&apos;">
			www.???.com</text>
	</div>
</g>
<g id="Layer_2">
	
		<line display="none" fill="none" stroke="#FF8080" stroke-width="4" stroke-miterlimit="10" x1="369.481" y1="541.851" x2="559.519" y2="543.192"/>
	
		<line display="none" fill="none" stroke="#FF8080" stroke-width="4" stroke-miterlimit="10" x1="403.5" y1="452.5" x2="403.5" y2="514.5"/>
	
		<line display="none" fill="none" stroke="#FF8080" stroke-width="4" stroke-miterlimit="10" x1="534.5" y1="514.021" x2="534.5" y2="453.5"/>
	<path display="none" fill="none" stroke="#FF8080" stroke-width="4" stroke-miterlimit="10" d="M424.18,495.167
		c0-12.897,13.865-23.333,31-23.333"/>
	<path display="none" fill="none" stroke="#FF8080" stroke-width="4" stroke-miterlimit="10" d="M486.18,495.167
		c0-12.897-13.865-23.333-31-23.333"/>
	
		<line display="none" fill="none" stroke="#FF8080" stroke-width="4" stroke-miterlimit="10" x1="424.18" y1="495.167" x2="424.18" y2="529.834"/>
	
		<line display="none" fill="none" stroke="#FF8080" stroke-width="4" stroke-miterlimit="10" x1="486.18" y1="495.167" x2="486.18" y2="529.834"/>
	
		<line display="none" fill="none" stroke="#FF8080" stroke-width="4" stroke-miterlimit="10" x1="254.5" y1="430" x2="369.5" y2="430"/>
	
		<line display="none" fill="none" stroke="#FF8080" stroke-width="4" stroke-miterlimit="10" x1="139.5" y1="430" x2="254.5" y2="430"/>
	<path display="none" fill="none" stroke="#FF8080" stroke-width="4" stroke-miterlimit="10" d="M462.096,443.602
		c0,0-5.157-33.081-30.551-32.075"/>
	
		<line display="none" fill="none" stroke="#FF8080" stroke-width="4" stroke-miterlimit="10" x1="404.811" y1="446.845" x2="404.811" y2="473.5"/>
	
		<line display="none" fill="none" stroke="#FF8080" stroke-width="4" stroke-miterlimit="10" x1="462.096" y1="443.602" x2="462.096" y2="473.5"/>
	
		<line display="none" fill="none" stroke="#FF8080" stroke-width="4" stroke-miterlimit="10" x1="469.5" y1="450.778" x2="469.5" y2="495"/>
	
		<image display="none" overflow="visible" width="114" height="15" xlink:href="43B902AC.jpg"  transform="matrix(0.9999 0 0 0.9999 197.5066 537.0002)">
	</image>
	<path display="none" fill="none" stroke="#FF8080" stroke-miterlimit="10" d="M233.25,532.499
		c-17.5,11.749-34.743,4.001-34.743,4.001v-5.75"/>
	<path display="none" fill="none" stroke="#FF8080" stroke-miterlimit="10" d="M299.507,505.75v5.75c0,0,17.243,7.748,34.743-4.001"
		/>
	<path display="none" fill="none" stroke="#FF8080" stroke-miterlimit="10" d="M198.507,531.25c0,0,18.493,5.875,34.743-3.5"/>
	<line display="none" fill="none" stroke="#8383FC" stroke-miterlimit="10" x1="232.475" y1="519.24" x2="232.763" y2="525.473"/>
	<line display="none" fill="none" stroke="#8383FC" stroke-miterlimit="10" x1="232.416" y1="517.973" x2="232.475" y2="519.24"/>
</g>
<g id="paw1">
	
		<ellipse fill-rule="evenodd" clip-rule="evenodd" fill="none" stroke="#231F20" stroke-width="9" stroke-miterlimit="10" cx="320.487" cy="434.004" rx="4.056" ry="4.75"/>
	<circle fill-rule="evenodd" clip-rule="evenodd" fill="#231F20" cx="594.03" cy="520.914" r="103.495"/>
	<path fill-rule="evenodd" clip-rule="evenodd" fill="none" stroke="#231F20" stroke-width="9" stroke-miterlimit="10" d="
		M595.029,379.754c0,0-89.996-135.165-199.49-3.502c0,0-16.498,62.337-31.498,59.502s-43.498-4.494-47.998,18.834
		s15,83.334,85.496,59.331c70.496-24.003,172.49,85.694,88.495,87.843"/>
	
		<ellipse transform="matrix(0.9708 -0.2401 0.2401 0.9708 -87.6548 137.9277)" fill-rule="evenodd" clip-rule="evenodd" fill="none" stroke="#231F20" stroke-width="9" stroke-miterlimit="10" cx="522.314" cy="428.754" rx="38.012" ry="56.474"/>
	
		<line fill="#FFFFFF" stroke="#FFFFFF" stroke-width="10" stroke-miterlimit="10" x1="533.369" y1="520.914" x2="654.691" y2="520.914"/>
	
		<line fill="#FFFFFF" stroke="#FFFFFF" stroke-width="10" stroke-miterlimit="10" x1="594.85" y1="581.575" x2="594.382" y2="460.254"/>
</g>
<g id="paw4">
</g>
<g id="paw3">
</g>
<g id="paw2">
</g>
</svg>
