<?xml version="1.0" encoding="utf-8"?>
<!-- Generator: Adobe Illustrator 16.0.0, SVG Export Plug-In . SVG Version: 6.00 Build 0)  -->
<!DOCTYPE svg PUBLIC "-//W3C//DTD SVG 1.1//EN" "http://www.w3.org/Graphics/SVG/1.1/DTD/svg11.dtd">
<svg version="1.1" id="Layer_1" xmlns="http://www.w3.org/2000/svg" xmlns:xlink="http://www.w3.org/1999/xlink" x="0px" y="0px"
	 width="1000px" height="1000px" viewBox="0 0 1000 1000" enable-background="new 0 0 1000 1000" xml:space="preserve">
<g id="Layer_1_1_" display="none">
	<g display="inline">
		<g id="Layer_3">
			<path fill="#DDDDDD" stroke="#000000" stroke-miterlimit="10" d="M500,153.169c167.093,0,302.543,135.452,302.543,302.542
				c0,29.067-4.101,57.182-11.754,83.789c-4.146,14.411-9.335,28.387-15.479,41.828C727.601,685.718,622.271,758.252,500,758.253
				c-129.085,0-239.288-80.847-282.741-194.661c-3.007-7.877-5.692-15.912-8.047-24.089c-7.651-26.608-11.754-54.725-11.754-83.792
				C197.458,288.621,332.911,153.169,500,153.169z"/>
		</g>
		<g display="none">
			
				<line display="inline" fill="none" stroke="#000000" stroke-width="3" stroke-miterlimit="10" x1="770.5" y1="578.5" x2="223.421" y2="578.5"/>
		</g>
		<g display="none">
			
				<line display="inline" fill="none" stroke="#000000" stroke-width="3" stroke-miterlimit="10" x1="802.51" y1="459.527" x2="197.49" y2="459.527"/>
		</g>
		<g>
			<path d="M455.942,417.769l-14.328,37.872h-4.824l-11.949-31.032l-11.952,31.032h-4.824l-14.256-37.872h4.896l11.882,32.184
				l12.168-32.184h4.393l12.096,32.184l12.024-32.184H455.942z"/>
		</g>
		<g>
			<path d="M391.215,417.839l-14.328,37.872h-4.824l-11.952-31.032l-11.952,31.032h-4.822l-14.258-37.872h4.896l11.88,32.184
				l12.168-32.184h4.392l12.099,32.184l12.021-32.184H391.215z"/>
		</g>
		<g>
			<path d="M326.215,417.839l-14.328,37.872h-4.824l-11.952-31.032l-11.952,31.032h-4.824l-14.256-37.872h4.896l11.88,32.184
				l12.168-32.184h4.392l12.099,32.184l12.021-32.184H326.215z"/>
		</g>
		<g>
			<path d="M456.432,454.919c-0.745-0.77-1.116-1.703-1.116-2.811c0-1.104,0.371-2.024,1.116-2.771
				c0.744-0.744,1.644-1.116,2.7-1.116c1.055,0,1.968,0.372,2.733,1.116c0.77,0.744,1.152,1.668,1.152,2.771
				c0,1.105-0.385,2.041-1.152,2.811c-0.769,0.769-1.681,1.149-2.733,1.149C458.075,456.071,457.177,455.688,456.432,454.919z"/>
		</g>
		<g>
			<path d="M520.392,435.406c0.646-1.484,1.451-2.759,2.412-3.813c0.959-1.058,2.207-2.255,3.743-3.603
				c2.063-1.82,3.588-3.42,4.569-4.788c0.983-1.365,1.479-3.033,1.479-5.001c0-2.642-1.032-4.766-3.098-6.372
				c-2.063-1.608-4.896-2.412-8.494-2.412c-5.952,0-10.537,1.941-13.752,5.832l-3.816-2.88c4.08-4.991,10.056-7.488,17.928-7.488
				c5.041,0,9.063,1.128,12.063,3.384c3,2.257,4.5,5.305,4.5,9.146c0,1.969-0.324,3.705-0.975,5.22
				c-0.646,1.512-1.438,2.797-2.376,3.852c-0.936,1.056-2.172,2.28-3.708,3.672c-2.063,1.872-3.601,3.541-4.605,5.004
				c-1.008,1.465-1.515,3.276-1.515,5.438h-5.325C519.423,438.621,519.744,436.896,520.392,435.406z M519.423,454.952
				c-0.723-0.741-1.08-1.617-1.08-2.628c0-1.056,0.357-1.932,1.08-2.628c0.721-0.692,1.604-1.044,2.663-1.044
				c1.104,0,2.017,0.352,2.734,1.044c0.721,0.697,1.08,1.573,1.08,2.628c0,1.011-0.373,1.887-1.116,2.628
				c-0.745,0.745-1.646,1.116-2.698,1.116C521.027,456.071,520.14,455.698,519.423,454.952z"/>
		</g>
		<g>
			<path d="M561.892,435.406c0.646-1.484,1.451-2.759,2.412-3.813c0.959-1.058,2.207-2.255,3.743-3.603
				c2.063-1.82,3.588-3.42,4.569-4.788c0.983-1.365,1.479-3.033,1.479-5.001c0-2.642-1.032-4.766-3.098-6.372
				c-2.063-1.608-4.896-2.412-8.494-2.412c-5.952,0-10.537,1.941-13.752,5.832l-3.816-2.88c4.08-4.991,10.056-7.488,17.928-7.488
				c5.041,0,9.063,1.128,12.063,3.384c3,2.257,4.5,5.305,4.5,9.146c0,1.969-0.324,3.705-0.975,5.22
				c-0.646,1.512-1.438,2.797-2.376,3.852c-0.936,1.056-2.172,2.28-3.708,3.672c-2.063,1.872-3.601,3.541-4.605,5.004
				c-1.008,1.465-1.515,3.276-1.515,5.438h-5.325C560.923,438.621,561.244,436.896,561.892,435.406z M560.923,454.952
				c-0.723-0.741-1.08-1.617-1.08-2.628c0-1.056,0.357-1.932,1.08-2.628c0.721-0.692,1.604-1.044,2.663-1.044
				c1.104,0,2.017,0.352,2.734,1.044c0.721,0.697,1.08,1.573,1.08,2.628c0,1.011-0.373,1.887-1.116,2.628
				c-0.745,0.745-1.646,1.116-2.698,1.116C562.527,456.071,561.64,455.698,560.923,454.952z"/>
		</g>
		<g>
			<path d="M482.392,435.406c0.648-1.484,1.451-2.759,2.412-3.813c0.959-1.058,2.207-2.255,3.744-3.603
				c2.063-1.82,3.588-3.42,4.569-4.788c0.983-1.365,1.479-3.033,1.479-5.001c0-2.642-1.033-4.766-3.097-6.372
				c-2.064-1.608-4.896-2.412-8.495-2.412c-5.952,0-10.537,1.941-13.753,5.832l-3.815-2.88c4.079-4.991,10.055-7.488,17.928-7.488
				c5.04,0,9.063,1.128,12.063,3.384c3,2.257,4.5,5.305,4.5,9.146c0,1.969-0.324,3.705-0.975,5.22
				c-0.646,1.512-1.438,2.797-2.376,3.852c-0.936,1.056-2.172,2.28-3.708,3.672c-2.063,1.872-3.6,3.541-4.605,5.004
				c-1.009,1.465-1.515,3.276-1.515,5.438h-5.326C481.423,438.621,481.744,436.896,482.392,435.406z M481.423,454.952
				c-0.723-0.741-1.08-1.617-1.08-2.628c0-1.056,0.357-1.932,1.08-2.628c0.72-0.692,1.605-1.044,2.661-1.044
				c1.104,0,2.019,0.352,2.736,1.044c0.721,0.697,1.08,1.573,1.08,2.628c0,1.011-0.372,1.887-1.116,2.628
				c-0.745,0.745-1.645,1.116-2.7,1.116C483.029,456.07,482.14,455.698,481.423,454.952z"/>
		</g>
		<g>
			<path d="M592.431,454.919c-0.744-0.77-1.115-1.703-1.115-2.811c0-1.104,0.371-2.024,1.115-2.771
				c0.744-0.744,1.645-1.116,2.7-1.116c1.055,0,1.968,0.372,2.733,1.116c0.77,0.744,1.151,1.668,1.151,2.771
				c0,1.105-0.385,2.041-1.151,2.811c-0.769,0.769-1.681,1.149-2.733,1.149C594.076,456.071,593.177,455.688,592.431,454.919z"/>
		</g>
		<g>
			<path d="M613.279,453.62c-2.951-1.631-5.268-3.924-6.947-6.876c-1.681-2.949-2.52-6.272-2.52-9.972
				c0-3.696,0.839-7.008,2.52-9.936c1.683-2.93,3.996-5.208,6.947-6.84c2.953-1.631,6.301-2.448,10.045-2.448
				c3.267,0,6.183,0.637,8.748,1.908c2.566,1.271,4.596,3.132,6.084,5.577l-3.813,2.595c-1.248-1.872-2.832-3.276-4.752-4.215
				c-1.923-0.936-4.011-1.401-6.267-1.401c-2.733,0-5.197,0.61-7.381,1.836c-2.184,1.224-3.887,2.964-5.111,5.22
				c-1.225,2.257-1.836,4.824-1.836,7.704c0,2.928,0.611,5.508,1.836,7.74c1.228,2.229,2.931,3.96,5.111,5.184
				c2.186,1.227,4.646,1.836,7.381,1.836c2.256,0,4.344-0.456,6.267-1.368c1.92-0.908,3.504-2.304,4.752-4.176l3.813,2.592
				c-1.488,2.448-3.525,4.312-6.12,5.58c-2.593,1.272-5.497,1.908-8.712,1.908C619.58,456.071,616.232,455.256,613.279,453.62z"/>
		</g>
		<g>
			<path d="M656.279,453.62c-2.951-1.631-5.268-3.924-6.947-6.876c-1.681-2.949-2.52-6.272-2.52-9.972
				c0-3.696,0.839-7.008,2.52-9.936c1.683-2.93,3.996-5.208,6.947-6.84c2.953-1.631,6.301-2.448,10.045-2.448
				c3.267,0,6.183,0.637,8.748,1.908c2.566,1.271,4.596,3.132,6.084,5.577l-3.813,2.595c-1.248-1.872-2.832-3.276-4.752-4.215
				c-1.923-0.936-4.011-1.401-6.267-1.401c-2.733,0-5.197,0.61-7.381,1.836c-2.184,1.224-3.887,2.964-5.111,5.22
				c-1.225,2.257-1.836,4.824-1.836,7.704c0,2.928,0.611,5.508,1.836,7.74c1.228,2.229,2.931,3.96,5.111,5.184
				c2.186,1.227,4.646,1.836,7.381,1.836c2.256,0,4.344-0.456,6.267-1.368c1.92-0.908,3.504-2.304,4.752-4.176l3.813,2.592
				c-1.488,2.448-3.525,4.312-6.12,5.58c-2.593,1.272-5.497,1.908-8.712,1.908C662.58,456.071,659.232,455.256,656.279,453.62z"/>
		</g>
		<g>
			<path d="M698.279,453.62c-2.951-1.631-5.268-3.924-6.947-6.876c-1.681-2.949-2.52-6.272-2.52-9.972
				c0-3.696,0.839-7.008,2.52-9.936c1.683-2.93,3.996-5.208,6.947-6.84c2.953-1.631,6.301-2.448,10.045-2.448
				c3.267,0,6.183,0.637,8.748,1.908c2.566,1.271,4.596,3.132,6.084,5.577l-3.813,2.595c-1.248-1.872-2.832-3.276-4.752-4.215
				c-1.923-0.936-4.011-1.401-6.267-1.401c-2.733,0-5.197,0.61-7.381,1.836c-2.184,1.224-3.887,2.964-5.111,5.22
				c-1.225,2.257-1.836,4.824-1.836,7.704c0,2.928,0.611,5.508,1.836,7.74c1.228,2.229,2.931,3.96,5.111,5.184
				c2.186,1.227,4.646,1.836,7.381,1.836c2.256,0,4.344-0.456,6.267-1.368c1.92-0.908,3.504-2.304,4.752-4.176l3.813,2.592
				c-1.488,2.448-3.525,4.312-6.12,5.58c-2.593,1.272-5.497,1.908-8.712,1.908C704.58,456.071,701.232,455.256,698.279,453.62z"/>
		</g>
	</g>
	<g display="inline">
		<path d="M250.5,396.779h4.752v67.394H250.5V396.779z"/>
	</g>
	<div  class="typewriter">
		
			<text  transform="matrix(1 0 0 1 264.0769 578.5002)" startOffset="0" font-size="72" font-family="&apos;Montserrat-Regular&apos;">
			www.???.com</text>
	</div>
</g>
<g id="Layer_2">
	
		<line display="none" fill="none" stroke="#FF8080" stroke-width="4" stroke-miterlimit="10" x1="369.481" y1="541.851" x2="559.519" y2="543.192"/>
	
		<line display="none" fill="none" stroke="#FF8080" stroke-width="4" stroke-miterlimit="10" x1="403.5" y1="452.5" x2="403.5" y2="514.5"/>
	
		<line display="none" fill="none" stroke="#FF8080" stroke-width="4" stroke-miterlimit="10" x1="534.5" y1="514.021" x2="534.5" y2="453.5"/>
	<path display="none" fill="none" stroke="#FF8080" stroke-width="4" stroke-miterlimit="10" d="M424.18,495.166
		c0-12.896,13.865-23.332,31-23.332"/>
	<path display="none" fill="none" stroke="#FF8080" stroke-width="4" stroke-miterlimit="10" d="M486.18,495.166
		c0-12.896-13.865-23.332-31-23.332"/>
	
		<line display="none" fill="none" stroke="#FF8080" stroke-width="4" stroke-miterlimit="10" x1="424.18" y1="495.166" x2="424.18" y2="529.834"/>
	
		<line display="none" fill="none" stroke="#FF8080" stroke-width="4" stroke-miterlimit="10" x1="486.18" y1="495.166" x2="486.18" y2="529.834"/>
	
		<line display="none" fill="none" stroke="#FF8080" stroke-width="4" stroke-miterlimit="10" x1="254.5" y1="430" x2="369.5" y2="430"/>
	
		<line display="none" fill="none" stroke="#FF8080" stroke-width="4" stroke-miterlimit="10" x1="139.5" y1="430" x2="254.5" y2="430"/>
	<path display="none" fill="none" stroke="#FF8080" stroke-width="4" stroke-miterlimit="10" d="M462.096,443.602
		c0,0-5.157-33.081-30.551-32.075"/>
	
		<line display="none" fill="none" stroke="#FF8080" stroke-width="4" stroke-miterlimit="10" x1="404.811" y1="446.845" x2="404.811" y2="473.5"/>
	
		<line display="none" fill="none" stroke="#FF8080" stroke-width="4" stroke-miterlimit="10" x1="462.096" y1="443.602" x2="462.096" y2="473.5"/>
	
		<line display="none" fill="none" stroke="#FF8080" stroke-width="4" stroke-miterlimit="10" x1="469.5" y1="450.778" x2="469.5" y2="495"/>
	
		<image display="none" overflow="visible" enable-background="new    " width="114" height="16" xlink:href="43B902AC.jpg"  transform="matrix(0.9999 0 0 0.9374 197.5066 537.0002)">
	</image>
	<path display="none" fill="none" stroke="#FF8080" stroke-miterlimit="10" d="M233.25,532.498
		c-17.5,11.75-34.743,4.002-34.743,4.002v-5.75"/>
	<path display="none" fill="none" stroke="#FF8080" stroke-miterlimit="10" d="M299.508,505.75v5.75c0,0,17.242,7.747,34.742-4.002"
		/>
	<path display="none" fill="none" stroke="#FF8080" stroke-miterlimit="10" d="M198.507,531.25c0,0,18.493,5.875,34.743-3.5"/>
	<line display="none" fill="none" stroke="#8383FC" stroke-miterlimit="10" x1="232.475" y1="519.24" x2="232.763" y2="525.473"/>
	<line display="none" fill="none" stroke="#8383FC" stroke-miterlimit="10" x1="232.416" y1="517.973" x2="232.475" y2="519.24"/>
</g>
<g id="paw1">
	<ellipse fill="none" stroke="#231F20" stroke-width="9" stroke-miterlimit="10" cx="320.487" cy="434.004" rx="4.056" ry="4.75"/>
	<circle fill="#7F9E3D" cx="594.03" cy="520.914" r="103.495"/>
	<path fill="none" stroke="#231F20" stroke-width="9" stroke-miterlimit="10" d="M595.029,379.754c0,0-89.996-135.165-199.49-3.502
		c0,0-16.498,62.337-31.498,59.502c-15-2.836-43.497-4.494-47.997,18.834c-4.5,23.327,15,83.334,85.495,59.33
		c70.496-24.003,172.49,85.694,88.495,87.844"/>
	
		<ellipse transform="matrix(-0.2401 -0.9708 0.9708 -0.2401 231.5453 1038.7657)" fill="none" stroke="#231F20" stroke-width="9" stroke-miterlimit="10" cx="522.352" cy="428.755" rx="56.477" ry="38.014"/>
	
		<line fill="none" stroke="#FFFFFF" stroke-width="10" stroke-miterlimit="10" x1="533.369" y1="520.913" x2="654.691" y2="520.913"/>
	
		<line fill="none" stroke="#FFFFFF" stroke-width="10" stroke-miterlimit="10" x1="594.85" y1="581.574" x2="594.383" y2="460.254"/>
</g>
<g id="paw4">
</g>
<g id="paw3">
</g>
<g id="paw2">
</g>
</svg>
