<?xml version="1.0" encoding="utf-8"?>
<!-- Generator: Adobe Illustrator 16.0.0, SVG Export Plug-In . SVG Version: 6.00 Build 0)  -->
<!DOCTYPE svg PUBLIC "-//W3C//DTD SVG 1.1//EN" "http://www.w3.org/Graphics/SVG/1.1/DTD/svg11.dtd">
<svg version="1.1" id="Layer_1" xmlns="http://www.w3.org/2000/svg" xmlns:xlink="http://www.w3.org/1999/xlink" x="0px" y="0px"
	 width="600px" height="600px" viewBox="0 0 600 600" style="enable-background:new 0 0 600 600;" xml:space="preserve">
<style type="text/css">
<![CDATA[
	.st0{fill:none;stroke:#000000;stroke-width:3;stroke-miterlimit:10;}
	.st1{display:none;fill:none;stroke:#000000;stroke-width:3;stroke-miterlimit:10;}
]]>
</style>
<line class="st0" x1="279.5" y1="115.5" x2="162.5" y2="256.5"/>
<line class="st0" x1="279.5" y1="115.5" x2="346.5" y2="256.5"/>
<line class="st0" x1="346.5" y1="256.5" x2="162.5" y2="256.5"/>
<line class="st0" x1="279.5" y1="115.5" x2="412.5" y2="256.5"/>
<line class="st0" x1="346.5" y1="256.5" x2="412.5" y2="256.5"/>
<path class="st0" d="M242.5,256.5c0,0-175,65-80,65"/>
<path class="st0" d="M274.5,256.5c0,0-102,42,0,43.5"/>
<rect x="144.5" y="176.5" class="st1" width="14" height="9.5"/>
<path class="st1" d="M300,367.5c0,0,86.5-210,300-121"/>
<g>
	<line class="st0" x1="176.44" y1="52.209" x2="203.595" y2="94.361"/>
	<line class="st0" x1="213.554" y1="107.116" x2="224.56" y2="124.199"/>
	<line class="st0" x1="110.78" y1="78.399" x2="178.156" y2="135.834"/>
</g>
</svg>
