<?xml version="1.0" encoding="utf-8"?>
<!-- Generator: Adobe Illustrator 16.0.0, SVG Export Plug-In . SVG Version: 6.00 Build 0)  -->
<!DOCTYPE svg PUBLIC "-//W3C//DTD SVG 1.1//EN" "http://www.w3.org/Graphics/SVG/1.1/DTD/svg11.dtd">
<svg version="1.1" id="Layer_1" xmlns="http://www.w3.org/2000/svg" xmlns:xlink="http://www.w3.org/1999/xlink" x="0px" y="0px"
	 width="450px" height="496px" viewBox="0 0 450 496" style="enable-background:new 0 0 450 496;" xml:space="preserve">
<style type="text/css">
<![CDATA[
	.st0{fill:#FFFFFF;stroke:#000000;stroke-miterlimit:10;}
	.st1{fill:none;stroke:#000000;stroke-width:5;stroke-miterlimit:10;}
	.st2{display:none;fill:#FFFFFF;stroke:#000000;stroke-miterlimit:10;}
	.st3{fill:#FFFFFF;stroke:#FCFCFC;stroke-width:2;stroke-miterlimit:10;}
	.st4{fill:#FFFFFF;stroke:#000000;stroke-width:6;stroke-miterlimit:10;}
	.st5{display:inline;fill:none;stroke:#000000;stroke-width:4;stroke-miterlimit:10;}
	.st6{fill:none;stroke:#000000;stroke-width:4;stroke-miterlimit:10;}
	.st7{display:none;fill:none;stroke:#000000;stroke-width:4;stroke-miterlimit:10;}
	.st8{display:none;fill:none;stroke:#000000;stroke-miterlimit:10;}
	.st9{fill:#FFFFFF;stroke:#000000;stroke-width:5;stroke-miterlimit:10;}
	.st10{display:inline;fill:#FFFFFF;}
	.st11{display:inline;fill:none;stroke:#000000;stroke-width:3;stroke-miterlimit:10;}
	.st12{stroke:#000000;stroke-width:4;stroke-miterlimit:10;}
	.st13{display:inline;}
	.st14{display:inline;fill:#FFFFFF;stroke:#DDDDDD;stroke-miterlimit:10;}
	.st15{fill:#FFFFFF;stroke:#000000;stroke-width:4;stroke-miterlimit:10;}
	.st16{font-family:'Montserrat-Regular';}
	.st17{fill:#FFFFFF;stroke:#DDDDDD;stroke-miterlimit:10;}
	.st18{fill:none;stroke:#000000;stroke-width:2;stroke-miterlimit:10;}
	.st19{font-size:72;}
	.st20{fill:#FF0000;stroke:#000000;stroke-miterlimit:10;}
	.st21{display:none;}
]]>
#eye {
  -webkit-animation: squeeze 1s infinite;
          animation: squeeze 1s infinite;
}
@keyframes squeeze {
  90% {
    -webkit-transform: none;
            transform: none;
    -webkit-animation-timing-function: ease-in;
            animation-timing-function: ease-in;
  }
  93% {
    translate(80 160) scale(1 0.0) translate(-80 20)"
  }
  100% {
    -webkit-animation-timing-function: ease-out;
            animation-timing-function: ease-out;
  }
}
</style>
<g id="Layer_1_2_">
	<g id="Layer_1_1_" class="st21">
		<g class="st13">
			<g id="Layer_3">
				<path id="vecmap" class="st20" d="M500,153.169c167.094,0,302.543,135.452,302.543,302.542c0,29.066-4.101,57.182-11.754,83.789
					c-4.146,14.41-9.335,28.387-15.479,41.827C727.601,685.718,622.271,758.252,500,758.253
					c-129.085,0-239.288-80.848-282.741-194.661c-3.007-7.877-5.691-15.912-8.047-24.089c-7.65-26.608-11.754-54.726-11.754-83.792
					C197.458,288.621,332.911,153.169,500,153.169z"/>
			</g>
			<g class="st21">
				<line class="st11" x1="770.5" y1="578.5" x2="223.421" y2="578.5"/>
			</g>
			<g class="st21">
				<line class="st11" x1="802.51" y1="459.527" x2="197.49" y2="459.527"/>
			</g>
			<g>
				<path d="M455.942,417.769l-14.328,37.872h-4.824l-11.948-31.032l-11.952,31.032h-4.824l-14.256-37.872h4.896l11.883,32.184
					l12.168-32.184h4.393l12.096,32.184l12.024-32.184H455.942z"/>
			</g>
			<g>
				<path d="M391.216,417.839l-14.328,37.872h-4.824l-11.952-31.032l-11.952,31.032h-4.821l-14.259-37.872h4.896l11.88,32.184
					l12.168-32.184h4.393l12.099,32.184l12.021-32.184H391.216z"/>
			</g>
			<g>
				<path d="M326.216,417.839l-14.328,37.872h-4.824l-11.952-31.032l-11.952,31.032h-4.824l-14.256-37.872h4.896l11.88,32.184
					l12.168-32.184h4.392l12.1,32.184l12.021-32.184H326.216z"/>
			</g>
			<g>
				<path d="M456.432,454.919c-0.745-0.771-1.116-1.703-1.116-2.812c0-1.104,0.371-2.023,1.116-2.771
					c0.744-0.744,1.644-1.116,2.7-1.116c1.055,0,1.968,0.372,2.732,1.116c0.771,0.743,1.152,1.668,1.152,2.771
					c0,1.105-0.385,2.041-1.152,2.812c-0.769,0.769-1.681,1.148-2.732,1.148C458.075,456.071,457.177,455.688,456.432,454.919z"/>
			</g>
			<g>
				<path d="M520.392,435.406c0.646-1.483,1.451-2.759,2.412-3.813c0.959-1.059,2.207-2.255,3.743-3.604
					c2.063-1.819,3.588-3.42,4.568-4.788c0.983-1.364,1.479-3.032,1.479-5c0-2.643-1.032-4.767-3.099-6.372
					c-2.063-1.608-4.896-2.412-8.493-2.412c-5.952,0-10.537,1.94-13.753,5.832l-3.815-2.88c4.08-4.991,10.056-7.488,17.928-7.488
					c5.041,0,9.063,1.128,12.063,3.384c3,2.257,4.5,5.305,4.5,9.146c0,1.969-0.324,3.704-0.976,5.22
					c-0.646,1.512-1.438,2.797-2.376,3.852c-0.936,1.056-2.172,2.28-3.708,3.672c-2.063,1.872-3.601,3.541-4.604,5.004
					c-1.008,1.465-1.516,3.276-1.516,5.438h-5.324C519.424,438.62,519.744,436.896,520.392,435.406z M519.424,454.951
					c-0.724-0.74-1.08-1.616-1.08-2.628c0-1.056,0.356-1.932,1.08-2.628c0.721-0.691,1.604-1.044,2.663-1.044
					c1.104,0,2.017,0.353,2.733,1.044c0.721,0.697,1.08,1.573,1.08,2.628c0,1.012-0.373,1.888-1.116,2.628
					c-0.745,0.745-1.646,1.116-2.697,1.116C521.027,456.071,520.14,455.698,519.424,454.951z"/>
			</g>
			<g>
				<path d="M561.892,435.406c0.646-1.483,1.451-2.759,2.412-3.813c0.959-1.059,2.207-2.255,3.743-3.604
					c2.063-1.819,3.588-3.42,4.568-4.788c0.983-1.364,1.479-3.032,1.479-5c0-2.643-1.032-4.767-3.099-6.372
					c-2.063-1.608-4.896-2.412-8.493-2.412c-5.952,0-10.537,1.94-13.753,5.832l-3.815-2.88c4.08-4.991,10.056-7.488,17.928-7.488
					c5.041,0,9.063,1.128,12.063,3.384c3,2.257,4.5,5.305,4.5,9.146c0,1.969-0.324,3.704-0.976,5.22
					c-0.646,1.512-1.438,2.797-2.376,3.852c-0.936,1.056-2.172,2.28-3.708,3.672c-2.063,1.872-3.601,3.541-4.604,5.004
					c-1.008,1.465-1.516,3.276-1.516,5.438h-5.324C560.924,438.62,561.244,436.896,561.892,435.406z M560.924,454.951
					c-0.724-0.74-1.08-1.616-1.08-2.628c0-1.056,0.356-1.932,1.08-2.628c0.721-0.691,1.604-1.044,2.663-1.044
					c1.104,0,2.017,0.353,2.733,1.044c0.721,0.697,1.08,1.573,1.08,2.628c0,1.012-0.373,1.888-1.116,2.628
					c-0.745,0.745-1.646,1.116-2.697,1.116C562.527,456.071,561.64,455.698,560.924,454.951z"/>
			</g>
			<g class="st21">
				<path id="vecmap_1_" class="st13" d="M482.392,435.406c0.648-1.483,1.451-2.759,2.412-3.813
					c0.959-1.059,2.207-2.255,3.744-3.604c2.063-1.819,3.588-3.42,4.568-4.788c0.983-1.364,1.479-3.032,1.479-5
					c0-2.643-1.033-4.767-3.097-6.372c-2.064-1.608-4.896-2.412-8.495-2.412c-5.952,0-10.537,1.94-13.753,5.832l-3.815-2.88
					c4.079-4.991,10.055-7.488,17.928-7.488c5.04,0,9.063,1.128,12.063,3.384c3,2.257,4.5,5.305,4.5,9.146
					c0,1.969-0.324,3.704-0.976,5.22c-0.646,1.512-1.438,2.797-2.376,3.852c-0.936,1.056-2.172,2.28-3.708,3.672
					c-2.063,1.872-3.6,3.541-4.604,5.004c-1.009,1.465-1.516,3.276-1.516,5.438h-5.325
					C481.424,438.62,481.744,436.896,482.392,435.406z M481.424,454.951c-0.724-0.74-1.08-1.616-1.08-2.628
					c0-1.056,0.356-1.932,1.08-2.628c0.72-0.691,1.604-1.044,2.66-1.044c1.104,0,2.02,0.353,2.736,1.044
					c0.721,0.697,1.08,1.573,1.08,2.628c0,1.012-0.372,1.888-1.116,2.628c-0.745,0.745-1.645,1.116-2.7,1.116
					C483.029,456.07,482.14,455.698,481.424,454.951z"/>
			</g>
			<g class="st21">
				<path class="st13" d="M592.431,454.919c-0.744-0.771-1.115-1.703-1.115-2.812c0-1.104,0.371-2.023,1.115-2.771
					c0.744-0.744,1.645-1.116,2.7-1.116c1.055,0,1.968,0.372,2.732,1.116c0.771,0.743,1.151,1.668,1.151,2.771
					c0,1.105-0.385,2.041-1.151,2.812c-0.769,0.769-1.681,1.148-2.732,1.148C594.076,456.071,593.177,455.688,592.431,454.919z"/>
			</g>
			<g class="st21">
				<path class="st13" d="M613.279,453.619c-2.951-1.631-5.268-3.924-6.947-6.876c-1.681-2.948-2.52-6.271-2.52-9.972
					c0-3.696,0.839-7.008,2.52-9.936c1.684-2.931,3.996-5.208,6.947-6.84c2.953-1.632,6.301-2.448,10.045-2.448
					c3.268,0,6.184,0.637,8.748,1.908c2.566,1.271,4.596,3.132,6.084,5.576l-3.813,2.596c-1.248-1.872-2.832-3.276-4.752-4.216
					c-1.924-0.936-4.012-1.4-6.268-1.4c-2.732,0-5.197,0.609-7.381,1.836c-2.184,1.224-3.887,2.964-5.111,5.22
					c-1.225,2.257-1.836,4.824-1.836,7.704c0,2.928,0.611,5.508,1.836,7.74c1.229,2.229,2.932,3.96,5.111,5.184
					c2.186,1.228,4.646,1.836,7.381,1.836c2.256,0,4.344-0.456,6.268-1.368c1.92-0.907,3.504-2.304,4.752-4.176l3.813,2.592
					c-1.488,2.448-3.524,4.313-6.12,5.58c-2.593,1.272-5.497,1.908-8.712,1.908C619.58,456.071,616.232,455.256,613.279,453.619z"/>
			</g>
			<g class="st21">
				<path class="st13" d="M656.279,453.619c-2.951-1.631-5.268-3.924-6.947-6.876c-1.681-2.948-2.52-6.271-2.52-9.972
					c0-3.696,0.839-7.008,2.52-9.936c1.684-2.931,3.996-5.208,6.947-6.84c2.953-1.632,6.301-2.448,10.045-2.448
					c3.268,0,6.184,0.637,8.748,1.908c2.566,1.271,4.596,3.132,6.084,5.576l-3.813,2.596c-1.248-1.872-2.832-3.276-4.752-4.216
					c-1.924-0.936-4.012-1.4-6.268-1.4c-2.732,0-5.197,0.609-7.381,1.836c-2.184,1.224-3.887,2.964-5.111,5.22
					c-1.225,2.257-1.836,4.824-1.836,7.704c0,2.928,0.611,5.508,1.836,7.74c1.229,2.229,2.932,3.96,5.111,5.184
					c2.186,1.228,4.646,1.836,7.381,1.836c2.256,0,4.344-0.456,6.268-1.368c1.92-0.907,3.504-2.304,4.752-4.176l3.813,2.592
					c-1.488,2.448-3.524,4.313-6.12,5.58c-2.593,1.272-5.497,1.908-8.712,1.908C662.58,456.071,659.232,455.256,656.279,453.619z"/>
			</g>
			<g class="st21">
				<path class="st13" d="M698.279,453.619c-2.951-1.631-5.268-3.924-6.947-6.876c-1.681-2.948-2.52-6.271-2.52-9.972
					c0-3.696,0.839-7.008,2.52-9.936c1.684-2.931,3.996-5.208,6.947-6.84c2.953-1.632,6.301-2.448,10.045-2.448
					c3.268,0,6.184,0.637,8.748,1.908c2.566,1.271,4.596,3.132,6.084,5.576l-3.813,2.596c-1.248-1.872-2.832-3.276-4.752-4.216
					c-1.924-0.936-4.012-1.4-6.268-1.4c-2.732,0-5.197,0.609-7.381,1.836c-2.184,1.224-3.887,2.964-5.111,5.22
					c-1.225,2.257-1.836,4.824-1.836,7.704c0,2.928,0.611,5.508,1.836,7.74c1.229,2.229,2.932,3.96,5.111,5.184
					c2.186,1.228,4.646,1.836,7.381,1.836c2.256,0,4.344-0.456,6.268-1.368c1.92-0.907,3.504-2.304,4.752-4.176l3.813,2.592
					c-1.488,2.448-3.524,4.313-6.12,5.58c-2.593,1.272-5.497,1.908-8.712,1.908C704.58,456.071,701.232,455.256,698.279,453.619z"/>
			</g>
		</g>
		<g class="st13">
			<path d="M250.5,396.779h4.752v67.395H250.5V396.779z"/>
		</g>
		<div  class="typewriter">
			
				<text  transform="matrix(1 0 0 1 264.0769 578.5002)" font-family="&apos;Montserrat-Regular&apos;" font-size="72" startOffset="0">
				www.???.com</text>
		</div>
	</g>
	<g id="Layer_2" class="st21">
		<g class="st13">
			<path class="st17" d="M475.769,419.01c1.624-0.233,3.299-0.395,5.076-0.395c1.643,0,3.192,0.142,4.695,0.345
				c0.701-0.101,1.413-0.166,2.143-0.216c-9.864-11.001-21.809-19.28-35.887-24.769c-14.363-5.595-33.193-11.265-56.483-17.012
				c-19.661-4.837-35.315-9.302-46.957-13.384c-11.643-4.083-21.322-9.98-29.032-17.693c-7.717-7.713-11.566-17.922-11.566-30.623
				c0-16.937,7.025-30.771,21.094-41.515c14.064-10.731,35-16.104,62.839-16.104c14.509,0,29.327,2.197,44.458,6.578
				c15.118,4.387,29.334,10.965,42.645,19.734l11.341-26.769c-12.7-8.769-27.75-15.649-45.142-20.643
				c-17.391-4.989-35.162-7.485-53.302-7.485c-26.017,0-47.8,3.937-65.338,11.796c-17.537,7.867-30.545,18.374-39.015,31.529
				c-8.467,13.157-12.703,27.752-12.703,43.782c0,19.664,5.062,35.236,15.201,46.729c10.13,11.498,22.303,20.039,36.517,25.636
				c14.214,5.598,33.271,11.42,57.165,17.466c19.963,4.843,35.544,9.303,46.729,13.384c6.707,2.44,12.577,5.724,17.993,9.464
				c5.076-6.116,12.785-10.231,23.153-10.231C472.939,418.615,474.344,418.824,475.769,419.01z"/>
		</g>
		<text transform="matrix(1 0 0 1 316.4998 471.5002)" class="st10 st16 st19">D</text>
		<g class="st13">
			<path class="st17" d="M404.438,389.315h129.296c33.573,0,63.215,6.734,88.925,20.189c25.702,13.461,45.664,32.211,59.893,56.258
				c14.208,24.041,21.313,51.492,21.313,82.341c0,30.846-7.104,58.295-21.313,82.342c-14.229,24.045-34.188,42.799-59.893,56.256
				c-25.71,13.463-55.352,20.191-88.925,20.191H404.438V389.315z M531.927,677.862c27.817,0,52.169-5.521,73.041-16.564
				c20.872-11.039,37.043-26.314,48.538-45.818c11.495-19.506,17.241-41.969,17.241-67.373c0-25.41-5.746-47.865-17.241-67.377
				c-11.495-19.506-27.666-34.771-48.538-45.816c-20.872-11.04-45.224-16.561-73.041-16.561h-93.914v259.512L531.927,677.862
				L531.927,677.862z"/>
		</g>
		<path class="st14" d="M398.927,387.645"/>
	</g>
	<path class="st4" d="M545.916,490.956"/>
	<path class="st0" d="M349.834,377.352c0,0-30-32.995-58.668-9.831"/>
	<path class="st15" d="M351.084,416.018c0,0-28.918-26.577-34.25-17.289c-5.334,9.288-51.334,39.293-68.001-4.709
		c0,0-16-55.998,36.667-78l1.333,12.223c0,0-14.036,36.954,11.982,33.031c0,0,24.685-19.923,63.351-2.59"/>
</g>
<g id="Layer_2_1_">
	<g id="Layer_4">
		<path class="st3" d="M292.582,274.982c0,0-1.145-47.209,67.918-48.787c0,0,8.884-7.862,31.941,5.222
			c0,0-42.275,18.771-44.607,19.094c-2.334,0.323-4.837,19.263-8.039,19.78C336.592,270.807,292.582,274.982,292.582,274.982z"/>
	</g>
	<path class="st3" d="M359.339,354.807c0,0-27.763-6.979-29.721-5.535c-1.958,1.444-35.998-25.101-37.035-74.29l49.462-4.69
		c0,0,18.677,48.723,44.964,46.04L359.339,354.807z"/>
	<path class="st4" d="M355.063,418.203c-1.455-6.93-2.22-14.112-2.22-21.475c0-57.438,46.563-104,104-104
		c57.437,0,104,46.563,104,104c0,19.188-5.197,37.163-14.26,52.593"/>
	<path class="st4" d="M352.844,417.363"/>
	<path class="st4" d="M367.72,450.361"/>
	<path class="st4" d="M500.916,490.956c-13.382,6.271-28.317,9.772-44.071,9.772c-14.468,0-28.246-2.954-40.764-8.292"/>
	<path class="st2" d="M416.5,400.209c0,0-26-78.709-89-33.709c0,0-40,67-77,19c0,0-18-68,54-78c0,0,41-26-25-42
		c0,0,115-0.682,44,68.66"/>
	<path class="st8" d="M284.5,355.5c0,0,45-110.682,158-29.34"/>
	<ellipse class="st9" cx="441.173" cy="367.521" rx="15.672" ry="24.5"/>
	
		<ellipse id="eye"  class="st9" cx="381.985" cy="366.861" rx="22.853" ry="9.5"/>
	<path class="st9" d="M447.5,334.021c0,0,28,2,24,33.5"/>
	<path class="st7" d="M391.668,288.5c0,0-53.168,53-91.168,0"/>
	<path class="st7" d="M311.5,224.5c0,0,52,38.418-11,52.709"/>
	<g class="st21">
		<g class="st13">
			<path class="st6" d="M583.5,250.855c-43-42.646-79,0-79,0"/>
			<path class="st6" d="M560.844,288.5c0,0,40.655,41,73.655,0"/>
			<path class="st6" d="M629.5,223.5c0,0-41,41.709-46,26.354"/>
			<path class="st6" d="M639.5,230.5c0,0,1.922,44.661-5,58"/>
			<path class="st6" d="M564.834,297.612c0,0-4,23.693-13.334,26.958"/>
			<path class="st6" d="M649.094,390.722l-2.192,1.794l21.041-3.146c0,0-17.946,23.081-22.77,23.497"/>
			<path class="st6" d="M527.3,261.335c0,0-35.718,7.331-40.332,16.396"/>
		</g>
		<g class="st13">
			<path class="st6" d="M583.5,250.855c-43-42.646-79,0-79,0"/>
			<path class="st6" d="M560.844,288.5c0,0,40.655,41,73.655,0"/>
			<path class="st6" d="M629.5,223.5c0,0-41,41.709-46,26.354"/>
			<path class="st6" d="M639.5,230.5c0,0,1.922,44.661-5,58"/>
			<path class="st6" d="M564.834,297.612c0,0-4,23.693-13.334,26.958"/>
			<path class="st6" d="M649.094,390.722l-2.192,1.794l21.041-3.146c0,0-17.946,23.081-22.77,23.497"/>
			<path class="st6" d="M527.3,261.335c0,0-35.718,7.331-40.332,16.396"/>
		</g>
	</g>
	<path class="st9" d="M509.5,434.019c0,0,38-50,80,0c0,0,22.49,39.333,50.245,17.333c0,0,13.089-20.667-10.245-36.667
		c0,0,83.334,38.667,25.334,83.333c0,0-53.334,22.667-90-24c0,0-12-17.334,0-22.001"/>
	<path class="st1" d="M564.834,477.352c0,0-41.334,48-78,4"/>
	<path class="st9" d="M345.9,414.781c-7.835,3.191-16.107,9.199-24.54,19.238c0,0-22.49,39.333-50.245,17.333
		c0,0-13.088-20.667,10.245-36.667c0,0-83.333,38.667-25.333,83.333c0,0,53.334,22.667,90-24c0,0,12-17.334,0-22.001"/>
	<path class="st9" d="M401.36,434.019c0,0-24.271-31.938-55.46-19.238"/>
	<path class="st1" d="M413.693,491.368c3.46-2.615,6.918-5.917,10.334-10.017"/>
	<path class="st1" d="M346.027,477.352c0,0,33.988,39.472,67.666,14.017"/>
	<g>
		<path class="st9" d="M343.747,409.016c-1.112,14.593-7.818,25.979-14.978,25.435c-7.159-0.546-12.061-12.818-10.946-27.411
			c1.113-14.595,7.819-25.98,14.979-25.436c0.649,0.05,1.282,0.196,1.893,0.433C340.802,384.399,344.76,395.749,343.747,409.016z"/>
		
			<ellipse transform="matrix(0.0761 -0.9971 0.9971 0.0761 -101.3748 705.1542)" class="st15" cx="329.828" cy="407.281" rx="9.18" ry="5"/>
		<path class="st6" d="M332.759,434.755c0,0,48.622-6.32,47.902,9.672"/>
		<path class="st1" d="M336.905,383.021c0,0,28.833,21.349,38.095,3.564"/>
	</g>
	<path class="st6" d="M539.5,392.021"/>
	<path class="st6" d="M618.5,422.907c-10.666-37.409-42.225-38.667-62.075-35.349"/>
	<path class="st6" d="M611.322,499.53"/>
	<path class="st6" d="M617.5,420.291c0,0,32-24.089,0-51.979c0,0,40.568,31.728,42.257,66.987"/>
	<path class="st6" d="M583.5,493.844c0,0-9.666,8.05-28.332-4.887"/>
	<path class="st6" d="M620.898,394.022c-16.183-35.375-47.568-31.861-66.693-25.591"/>
	<g>
		<path class="st6" d="M538.5,327.021c0,0,36-42,78,0"/>
		<path class="st6" d="M609.693,291.145c-0.115,11.551-5.193,21.21-5.193,21.209"/>
		<path class="st6" d="M609.693,291.145"/>
		<path class="st6" d="M602.375,269.988c0.446,0.522,0.869,1.05,1.27,1.583"/>
		<path class="st6" d="M630.5,368.409c32.882-65.489-0.773-92.396-23.963-102.65"/>
	</g>
	<path class="st7" d="M627.5,348.793c0,0-8.141,12.835-35.069,13.271"/>
	<path class="st7" d="M568.334,343.754c0,0,16.796-13.934,31.166,5.134"/>
	<path class="st6" d="M601.912,371.027"/>
	<g class="st21">
		<path class="st5" d="M387.207,300.5c0,0-36-42-78,0"/>
		<path class="st5" d="M295.207,341.888c-47-93.612,41.948-108.388,41.948-108.388c-35.052,16-15.948,52.333-15.948,52.333"/>
	</g>
	<path class="st6" d="M329.192,351.636c-18.738-13.683-36.532-36.522-37.692-74.115"/>
	<path class="st6" d="M329.192,351.636"/>
	<path class="st6" d="M373.72,371.027c0,0-1.432-0.224-3.915-0.808"/>
	<path class="st6" d="M392.518,238.397c-9.514-0.55-20.943,0.065-24.187,5.624c0,0-44.146,5.418-15.488,48.709"/>
	<path class="st6" d="M394.385,229.487c0.627,0.324,1.247,0.666,1.855,1.024"/>
	<path class="st6" d="M291.166,277.521c0,0-6.761-47.5,64.786-53.5c0,0,22.028-3.014,38.433,5.466"/>
	<path class="st6" d="M352.714,291.73c0,0,15.507,30.681,44.646,21.485"/>
	<path class="st6" d="M596.5,280.061"/>
	<path class="st6" d="M597.964,277.236c0,0,8.94,7.502,12.245,14.041"/>
</g>
<g id="Layer_3_1_">
	<g>
		
			<ellipse transform="matrix(0.1891 -0.982 0.982 0.1891 119.9705 597.6917)" class="st6" cx="421.882" cy="226.205" rx="3.307" ry="17.336"/>
		<line class="st6" x1="404.638" y1="223.007" x2="398.303" y2="256.048"/>
		<line class="st6" x1="438.678" y1="229.804" x2="432.344" y2="262.845"/>
		<line class="st6" x1="396.059" y1="256.614" x2="433.828" y2="264.155"/>
		<path class="st12" d="M406.518,225.257c0,0,7.552,6.398,29.036,6.805l-5.359,28.452l-30.047-4.461L406.518,225.257z"/>
		<path class="st6" d="M402.128,229.79c0,0-6.662-2.157-7.987,3.645"/>
		<polygon class="st18" points="397.53,233.32 387.354,235.03 397.37,241.869 		"/>
		<path class="st6" d="M393.108,238.864c0,0,0.188,6.998,6.101,6.313"/>
	</g>
	<path class="st12" d="M447.47,267.242"/>
	<g>
		<polyline class="st18" points="575.672,270.397 566.168,280.483 558.168,299.5 581.168,293.483 606.844,266.236 		"/>
		<line class="st18" x1="591.844" y1="253.236" x2="582.81" y2="262.822"/>
		<polyline class="st18" points="566.403,281.826 573.592,280.061 571.434,284.092 578.621,282.076 578.621,286.768 582.22,286.768 
			582.22,290.112 		"/>
		<line class="st18" x1="585.521" y1="262.197" x2="584.866" y2="262.865"/>
		<polyline class="st3" points="575.206,272.715 568,280.061 576,277.977 574.312,281.75 579.807,280.061 579.807,285.086 
			583.75,285.086 583.75,288.75 605.223,265.483 592.605,254.974 585.521,262.197 		"/>
		<line class="st18" x1="576.029" y1="271.875" x2="575.206" y2="272.715"/>
		<polygon class="st18" points="607.561,264.42 592.933,252.151 602.885,242.358 617.513,254.628 		"/>
		<path class="st18" d="M572.628,266.385c0,0,0.139,0.859,0.551,2.11c1.416,4.3,6.063,13.224,19.428,7.765
			c0,0-13.327-12.335-6.932-16.771"/>
	</g>
	<path class="st18" d="M572.628,267.64c0,0-5.023-18.283,14.925-10.917"/>
	<line class="st18" x1="560.844" y1="295.167" x2="563.337" y2="298.148"/>
	<path class="st18" d="M592.933,253.389"/>
</g>
</svg>
