<?xml version="1.0" encoding="utf-8"?>
<!-- Generator: Adobe Illustrator 16.0.0, SVG Export Plug-In . SVG Version: 6.00 Build 0)  -->
<!DOCTYPE svg PUBLIC "-//W3C//DTD SVG 1.1//EN" "http://www.w3.org/Graphics/SVG/1.1/DTD/svg11.dtd">
<svg version="1.1" xmlns="http://www.w3.org/2000/svg" xmlns:xlink="http://www.w3.org/1999/xlink" x="0px" y="0px" width="450px"
	 height="496px" viewBox="262.5 220.5 450 496" style="enable-background:new 262.5 220.5 450 496;" xml:space="preserve">
<style type="text/css">
<![CDATA[
	.st0{fill:#FFFFFF;stroke:#000000;stroke-miterlimit:10;}
	.st1{display:inline;fill:none;stroke:#000000;stroke-width:5;stroke-miterlimit:10;}
	.st2{fill:none;stroke:#000000;stroke-width:5;stroke-miterlimit:10;}
	.st3{display:none;fill:#FFFFFF;stroke:#000000;stroke-miterlimit:10;}
	.st4{fill:#FFFFFF;stroke:#000000;stroke-width:6;stroke-miterlimit:10;}
	.st5{display:inline;fill:none;stroke:#000000;stroke-width:4;stroke-miterlimit:10;}
	.st6{display:inline;fill:#FFFFFF;stroke:#000000;stroke-width:5;stroke-miterlimit:10;}
	.st7{fill:none;stroke:#000000;stroke-width:4;stroke-miterlimit:10;}
	.st8{display:none;fill:none;stroke:#000000;stroke-width:4;stroke-miterlimit:10;}
	.st9{display:none;fill:none;stroke:#000000;stroke-miterlimit:10;}
	.st10{fill:#FFFFFF;stroke:#000000;stroke-width:5;stroke-miterlimit:10;}
	.st11{display:inline;fill:none;stroke:#000000;stroke-width:3;stroke-miterlimit:10;}
	.st12{display:inline;fill:#FFFFFF;stroke:#000000;stroke-width:4;stroke-miterlimit:10;}
	.st13{display:inline;}
	.st14{display:inline;fill:#FFFFFF;stroke:#DDDDDD;stroke-miterlimit:10;}
	.st15{fill:#FFFFFF;stroke:#000000;stroke-width:4;stroke-miterlimit:10;}
	.st16{font-family:'Montserrat-Regular';}
	.st17{fill:#FFFFFF;stroke:#DDDDDD;stroke-miterlimit:10;}
	.st18{font-size:72;}
	.st19{fill:#FFFFFF;enable-background:new    ;}
	.st20{fill:#FF0000;stroke:#000000;stroke-miterlimit:10;}
	.st21{display:none;}
]]>
</style>
<g id="Layer_1">
	<g id="Layer_1_1_" class="st21">
		<g class="st13">
			<g id="Layer_3">
				<path id="vecmap" class="st20" d="M500,153.169c167.093,0,302.543,135.452,302.543,302.542c0,29.067-4.101,57.182-11.754,83.789
					c-4.146,14.411-9.335,28.387-15.479,41.828C727.601,685.718,622.271,758.252,500,758.253
					c-129.085,0-239.288-80.847-282.741-194.661c-3.007-7.877-5.692-15.912-8.047-24.089c-7.651-26.608-11.754-54.725-11.754-83.792
					C197.458,288.621,332.911,153.169,500,153.169z"/>
			</g>
			<g class="st21">
				<line class="st11" x1="770.5" y1="578.5" x2="223.421" y2="578.5"/>
			</g>
			<g class="st21">
				<line class="st11" x1="802.51" y1="459.527" x2="197.49" y2="459.527"/>
			</g>
			<g>
				<path d="M455.942,417.769l-14.328,37.872h-4.824l-11.949-31.032l-11.952,31.032h-4.824l-14.256-37.872h4.896l11.882,32.184
					l12.168-32.184h4.393l12.096,32.184l12.024-32.184H455.942z"/>
			</g>
			<g>
				<path d="M391.215,417.839l-14.328,37.872h-4.824l-11.952-31.032l-11.952,31.032h-4.822l-14.258-37.872h4.896l11.88,32.184
					l12.168-32.184h4.392l12.099,32.184l12.021-32.184H391.215z"/>
			</g>
			<g>
				<path d="M326.215,417.839l-14.328,37.872h-4.824l-11.952-31.032l-11.952,31.032h-4.824l-14.256-37.872h4.896l11.88,32.184
					l12.168-32.184h4.392l12.099,32.184l12.021-32.184H326.215z"/>
			</g>
			<g>
				<path d="M456.432,454.919c-0.745-0.77-1.116-1.703-1.116-2.811c0-1.104,0.371-2.024,1.116-2.771
					c0.744-0.744,1.644-1.116,2.7-1.116c1.055,0,1.968,0.372,2.733,1.116c0.77,0.744,1.152,1.668,1.152,2.771
					c0,1.105-0.385,2.041-1.152,2.811c-0.769,0.769-1.681,1.149-2.733,1.149C458.075,456.071,457.177,455.688,456.432,454.919z"/>
			</g>
			<g>
				<path d="M520.392,435.406c0.646-1.484,1.451-2.759,2.412-3.813c0.959-1.058,2.207-2.255,3.743-3.603
					c2.063-1.82,3.588-3.42,4.569-4.788c0.983-1.365,1.479-3.033,1.479-5.001c0-2.642-1.032-4.766-3.098-6.372
					c-2.063-1.608-4.896-2.412-8.494-2.412c-5.952,0-10.537,1.941-13.752,5.832l-3.816-2.88c4.08-4.991,10.056-7.488,17.928-7.488
					c5.041,0,9.063,1.128,12.063,3.384c3,2.257,4.5,5.305,4.5,9.146c0,1.969-0.324,3.705-0.975,5.22
					c-0.646,1.512-1.438,2.797-2.376,3.852c-0.936,1.056-2.172,2.28-3.708,3.672c-2.063,1.872-3.601,3.541-4.605,5.004
					c-1.008,1.465-1.515,3.276-1.515,5.438h-5.325C519.423,438.621,519.744,436.896,520.392,435.406z M519.423,454.952
					c-0.723-0.741-1.08-1.617-1.08-2.628c0-1.056,0.357-1.932,1.08-2.628c0.721-0.692,1.604-1.044,2.663-1.044
					c1.104,0,2.017,0.352,2.734,1.044c0.721,0.697,1.08,1.573,1.08,2.628c0,1.011-0.373,1.887-1.116,2.628
					c-0.745,0.745-1.646,1.116-2.698,1.116C521.027,456.071,520.14,455.698,519.423,454.952z"/>
			</g>
			<g>
				<path d="M561.892,435.406c0.646-1.484,1.451-2.759,2.412-3.813c0.959-1.058,2.207-2.255,3.743-3.603
					c2.063-1.82,3.588-3.42,4.569-4.788c0.983-1.365,1.479-3.033,1.479-5.001c0-2.642-1.032-4.766-3.098-6.372
					c-2.063-1.608-4.896-2.412-8.494-2.412c-5.952,0-10.537,1.941-13.752,5.832l-3.816-2.88c4.08-4.991,10.056-7.488,17.928-7.488
					c5.041,0,9.063,1.128,12.063,3.384c3,2.257,4.5,5.305,4.5,9.146c0,1.969-0.324,3.705-0.975,5.22
					c-0.646,1.512-1.438,2.797-2.376,3.852c-0.936,1.056-2.172,2.28-3.708,3.672c-2.063,1.872-3.601,3.541-4.605,5.004
					c-1.008,1.465-1.515,3.276-1.515,5.438h-5.325C560.923,438.621,561.244,436.896,561.892,435.406z M560.923,454.952
					c-0.723-0.741-1.08-1.617-1.08-2.628c0-1.056,0.357-1.932,1.08-2.628c0.721-0.692,1.604-1.044,2.663-1.044
					c1.104,0,2.017,0.352,2.734,1.044c0.721,0.697,1.08,1.573,1.08,2.628c0,1.011-0.373,1.887-1.116,2.628
					c-0.745,0.745-1.646,1.116-2.698,1.116C562.527,456.071,561.64,455.698,560.923,454.952z"/>
			</g>
			<g class="st21">
				<path id="vecmap_1_" class="st13" d="M482.392,435.406c0.648-1.484,1.451-2.759,2.412-3.813
					c0.959-1.058,2.207-2.255,3.744-3.603c2.063-1.82,3.588-3.42,4.569-4.788c0.983-1.365,1.479-3.033,1.479-5.001
					c0-2.642-1.033-4.766-3.097-6.372c-2.064-1.608-4.896-2.412-8.495-2.412c-5.952,0-10.537,1.941-13.753,5.832l-3.815-2.88
					c4.079-4.991,10.055-7.488,17.928-7.488c5.04,0,9.063,1.128,12.063,3.384c3,2.257,4.5,5.305,4.5,9.146
					c0,1.969-0.324,3.705-0.975,5.22c-0.646,1.512-1.438,2.797-2.376,3.852c-0.936,1.056-2.172,2.28-3.708,3.672
					c-2.063,1.872-3.6,3.541-4.605,5.004c-1.009,1.465-1.515,3.276-1.515,5.438h-5.326
					C481.423,438.621,481.744,436.896,482.392,435.406z M481.423,454.952c-0.723-0.741-1.08-1.617-1.08-2.628
					c0-1.056,0.357-1.932,1.08-2.628c0.72-0.692,1.605-1.044,2.661-1.044c1.104,0,2.019,0.352,2.736,1.044
					c0.721,0.697,1.08,1.573,1.08,2.628c0,1.011-0.372,1.887-1.116,2.628c-0.745,0.745-1.645,1.116-2.7,1.116
					C483.029,456.07,482.14,455.698,481.423,454.952z"/>
			</g>
			<g class="st21">
				<path class="st13" d="M592.431,454.919c-0.744-0.77-1.115-1.703-1.115-2.811c0-1.104,0.371-2.024,1.115-2.771
					c0.744-0.744,1.645-1.116,2.7-1.116c1.055,0,1.968,0.372,2.733,1.116c0.77,0.744,1.151,1.668,1.151,2.771
					c0,1.105-0.385,2.041-1.151,2.811c-0.769,0.769-1.681,1.149-2.733,1.149C594.076,456.071,593.177,455.688,592.431,454.919z"/>
			</g>
			<g class="st21">
				<path class="st13" d="M613.279,453.62c-2.951-1.631-5.268-3.924-6.947-6.876c-1.681-2.949-2.52-6.272-2.52-9.972
					c0-3.696,0.839-7.008,2.52-9.936c1.683-2.93,3.996-5.208,6.947-6.84c2.953-1.631,6.301-2.448,10.045-2.448
					c3.267,0,6.183,0.637,8.748,1.908c2.566,1.271,4.596,3.132,6.084,5.577l-3.813,2.595c-1.248-1.872-2.832-3.276-4.752-4.215
					c-1.923-0.936-4.011-1.401-6.267-1.401c-2.733,0-5.197,0.61-7.381,1.836c-2.184,1.224-3.887,2.964-5.111,5.22
					c-1.225,2.257-1.836,4.824-1.836,7.704c0,2.928,0.611,5.508,1.836,7.74c1.228,2.229,2.931,3.96,5.111,5.184
					c2.186,1.227,4.646,1.836,7.381,1.836c2.256,0,4.344-0.456,6.267-1.368c1.92-0.908,3.504-2.304,4.752-4.176l3.813,2.592
					c-1.488,2.448-3.525,4.312-6.12,5.58c-2.593,1.272-5.497,1.908-8.712,1.908C619.58,456.071,616.232,455.256,613.279,453.62z"/>
			</g>
			<g class="st21">
				<path class="st13" d="M656.279,453.62c-2.951-1.631-5.268-3.924-6.947-6.876c-1.681-2.949-2.52-6.272-2.52-9.972
					c0-3.696,0.839-7.008,2.52-9.936c1.683-2.93,3.996-5.208,6.947-6.84c2.953-1.631,6.301-2.448,10.045-2.448
					c3.267,0,6.183,0.637,8.748,1.908c2.566,1.271,4.596,3.132,6.084,5.577l-3.813,2.595c-1.248-1.872-2.832-3.276-4.752-4.215
					c-1.923-0.936-4.011-1.401-6.267-1.401c-2.733,0-5.197,0.61-7.381,1.836c-2.184,1.224-3.887,2.964-5.111,5.22
					c-1.225,2.257-1.836,4.824-1.836,7.704c0,2.928,0.611,5.508,1.836,7.74c1.228,2.229,2.931,3.96,5.111,5.184
					c2.186,1.227,4.646,1.836,7.381,1.836c2.256,0,4.344-0.456,6.267-1.368c1.92-0.908,3.504-2.304,4.752-4.176l3.813,2.592
					c-1.488,2.448-3.525,4.312-6.12,5.58c-2.593,1.272-5.497,1.908-8.712,1.908C662.58,456.071,659.232,455.256,656.279,453.62z"/>
			</g>
			<g class="st21">
				<path class="st13" d="M698.279,453.62c-2.951-1.631-5.268-3.924-6.947-6.876c-1.681-2.949-2.52-6.272-2.52-9.972
					c0-3.696,0.839-7.008,2.52-9.936c1.683-2.93,3.996-5.208,6.947-6.84c2.953-1.631,6.301-2.448,10.045-2.448
					c3.267,0,6.183,0.637,8.748,1.908c2.566,1.271,4.596,3.132,6.084,5.577l-3.813,2.595c-1.248-1.872-2.832-3.276-4.752-4.215
					c-1.923-0.936-4.011-1.401-6.267-1.401c-2.733,0-5.197,0.61-7.381,1.836c-2.184,1.224-3.887,2.964-5.111,5.22
					c-1.225,2.257-1.836,4.824-1.836,7.704c0,2.928,0.611,5.508,1.836,7.74c1.228,2.229,2.931,3.96,5.111,5.184
					c2.186,1.227,4.646,1.836,7.381,1.836c2.256,0,4.344-0.456,6.267-1.368c1.92-0.908,3.504-2.304,4.752-4.176l3.813,2.592
					c-1.488,2.448-3.525,4.312-6.12,5.58c-2.593,1.272-5.497,1.908-8.712,1.908C704.58,456.071,701.232,455.256,698.279,453.62z"/>
			</g>
		</g>
		<g class="st13">
			<path d="M250.5,396.779h4.752v67.394H250.5V396.779z"/>
		</g>
		<div  class="typewriter">
			
				<text  transform="matrix(1 0 0 1 264.0769 578.5002)" font-family="&apos;Montserrat-Regular&apos;" font-size="72" startOffset="0">
				www.???.com</text>
		</div>
	</g>
	<g id="Layer_2" class="st21">
		<g class="st13">
			<path class="st17" d="M475.769,419.01c1.624-0.233,3.299-0.395,5.076-0.395c1.643,0,3.193,0.142,4.695,0.345
				c0.702-0.1,1.414-0.166,2.143-0.216c-9.864-11.001-21.809-19.28-35.887-24.768c-14.363-5.595-33.193-11.265-56.483-17.012
				c-19.661-4.837-35.315-9.302-46.957-13.384c-11.643-4.083-21.322-9.98-29.032-17.693c-7.717-7.713-11.567-17.922-11.567-30.623
				c0-16.937,7.026-30.772,21.094-41.515c14.065-10.731,35-16.104,62.839-16.104c14.509,0,29.327,2.197,44.458,6.578
				c15.118,4.387,29.334,10.965,42.644,19.734l11.341-26.768c-12.7-8.769-27.75-15.65-45.141-20.643
				c-17.391-4.989-35.162-7.485-53.302-7.485c-26.017,0-47.8,3.936-65.338,11.796c-17.537,7.867-30.545,18.374-39.014,31.529
				c-8.467,13.157-12.704,27.752-12.704,43.782c0,19.664,5.062,35.237,15.202,46.729c10.129,11.498,22.302,20.039,36.516,25.635
				c14.214,5.598,33.271,11.42,57.165,17.466c19.963,4.843,35.544,9.303,46.729,13.384c6.707,2.441,12.577,5.724,17.993,9.464
				c5.076-6.116,12.785-10.232,23.153-10.232C472.939,418.615,474.343,418.824,475.769,419.01z"/>
		</g>
		<text transform="matrix(1 0 0 1 316.4998 471.5002)" class="st19 st16 st18">D</text>
		<g class="st13">
			<path class="st17" d="M404.438,389.315h129.296c33.573,0,63.215,6.734,88.925,20.189c25.702,13.461,45.664,32.211,59.892,56.258
				c14.208,24.041,21.313,51.492,21.313,82.341c0,30.846-7.105,58.295-21.313,82.342c-14.228,24.045-34.188,42.799-59.892,56.256
				c-25.71,13.463-55.352,20.191-88.925,20.191H404.438V389.315z M531.927,677.862c27.818,0,52.169-5.521,73.041-16.565
				c20.872-11.039,37.043-26.314,48.538-45.818c11.495-19.506,17.242-41.969,17.242-67.373c0-25.41-5.747-47.865-17.242-67.377
				c-11.495-19.506-27.666-34.771-48.538-45.816c-20.872-11.04-45.223-16.561-73.041-16.561h-93.914v259.512L531.927,677.862
				L531.927,677.862z"/>
		</g>
		<path class="st14" d="M398.927,387.645"/>
	</g>
	<path class="st4" d="M545.916,471.437"/>
	<path class="st0" d="M349.833,357.831c0,0-30-32.995-58.667-9.831"/>
	<path class="st15" d="M351.083,396.498c0,0-28.917-26.577-34.25-17.289s-51.333,39.293-68-4.709c0,0-16-55.998,36.667-78
		l1.333,12.222c0,0-14.036,36.955,11.982,33.032c0,0,24.684-19.923,63.351-2.59"/>
</g>
<g id="Layer_2_1_">
	<path class="st4" d="M355.063,398.683c-1.455-6.929-2.22-14.112-2.22-21.474c0-57.438,46.563-104,104-104s104,46.563,104,104
		c0,19.188-5.197,37.163-14.26,52.593"/>
	<path class="st4" d="M352.844,397.842"/>
	<path class="st4" d="M367.72,430.84"/>
	<path class="st4" d="M500.916,471.437c-13.382,6.27-28.318,9.772-44.072,9.772c-14.468,0-28.246-2.954-40.763-8.292"/>
	<path class="st3" d="M416.5,400.209c0,0-26-78.709-89-33.709c0,0-40,67-77,19c0,0-18-68,54-78c0,0,41-26-25-42
		c0,0,115-0.681,44,68.66"/>
	<path class="st9" d="M284.5,355.5c0,0,45-110.681,158-29.34"/>
	<ellipse class="st10" cx="441.172" cy="348" rx="15.672" ry="24.5"/>
	
		<ellipse transform="matrix(0.9963 0.0855 -0.0855 0.9963 31.0975 -31.3889)" class="st10" cx="382" cy="347.355" rx="9.5" ry="22.854"/>
	<path class="st10" d="M447.5,314.5c0,0,28,2,24,33.5"/>
	<path class="st8" d="M391.667,288.5c0,0-53.167,53-91.167,0"/>
	<path class="st8" d="M311.5,224.5c0,0,52,38.418-11,52.709"/>
	<path class="st7" d="M346.083,220.5c0,0,69.417,67,11.417,74"/>
	<path class="st7" d="M583.5,250.855c-43-42.646-79,0-79,0"/>
	<path class="st7" d="M560.844,288.5c0,0,40.656,41,73.656,0"/>
	<path class="st7" d="M629.5,223.5c0,0-41,41.709-46,26.354"/>
	<path class="st7" d="M639.5,230.5c0,0,1.921,44.661-5,58"/>
	<path class="st7" d="M564.833,297.612c0,0-4,23.693-13.333,26.958"/>
	<path class="st7" d="M504.5,251.271c0,0-11.861,20.939-9,25.938"/>
	<path class="st7" d="M628.5,223.5v1.667l7.622-12c0,0,4.534,16,2.623,18.667"/>
	<path class="st10" d="M509.5,414.499c0,0,38-50,80,0c0,0,22.49,39.333,50.245,17.333c0,0,13.088-20.667-10.245-36.667
		c0,0,83.333,38.667,25.333,83.333c0,0-53.334,22.667-90-24c0,0-12-17.334,0-22.001"/>
	<path class="st2" d="M564.833,457.831c0,0-41.333,48-78,4"/>
	<path class="st10" d="M345.9,395.261c-7.835,3.191-16.107,9.199-24.54,19.238c0,0-22.49,39.333-50.245,17.333
		c0,0-13.088-20.667,10.245-36.667c0,0-83.333,38.667-25.333,83.333c0,0,53.334,22.667,90-24c0,0,12-17.334,0-22.001"/>
	<path class="st10" d="M401.36,414.499c0,0-24.272-31.938-55.46-19.238"/>
	<path class="st2" d="M413.693,471.848c3.46-2.616,6.918-5.917,10.334-10.017"/>
	<path class="st2" d="M346.027,457.831c0,0,33.988,39.471,67.666,14.017"/>
	<g class="st21">
		<path class="st6" d="M343.747,389.495c-1.113,14.593-7.819,25.98-14.978,25.435c-7.159-0.546-12.06-12.819-10.946-27.412
			c1.113-14.594,7.819-25.98,14.978-25.435c0.65,0.05,1.282,0.196,1.893,0.432C340.801,364.879,344.76,376.228,343.747,389.495z"/>
		
			<ellipse transform="matrix(0.9971 0.0761 -0.0761 0.9971 30.4533 -23.9683)" class="st12" cx="329.84" cy="387.753" rx="5" ry="9.18"/>
		<path class="st5" d="M332.758,415.234c0,0,48.622-6.32,47.903,9.672"/>
		<path class="st1" d="M336.905,363.5c0,0,28.833,21.348,38.095,3.564"/>
	</g>
	<path class="st7" d="M539.5,372.5"/>
	<path class="st7" d="M618.5,403.387c-10.667-37.41-42.225-38.667-62.076-35.349"/>
	<path class="st7" d="M611.322,480.01"/>
	<path class="st7" d="M617.5,400.77c0,0,32-24.089,0-51.978c0,0,40.568,31.727,42.256,66.987"/>
	<path class="st7" d="M583.5,474.323c0,0-9.666,8.05-28.333-4.886"/>
</g>
</svg>
