<?xml version="1.0" encoding="utf-8"?>
<!-- Generator: Adobe Illustrator 16.0.0, SVG Export Plug-In . SVG Version: 6.00 Build 0)  -->
<!DOCTYPE svg PUBLIC "-//W3C//DTD SVG 1.1//EN" "http://www.w3.org/Graphics/SVG/1.1/DTD/svg11.dtd">
<svg version="1.1" id="Layer_1" xmlns="http://www.w3.org/2000/svg" xmlns:xlink="http://www.w3.org/1999/xlink" x="0px" y="0px"
	 width="450px" height="496px" viewBox="0 0 450 496" enable-background="new 0 0 450 496" xml:space="preserve">
<g id="Layer_1_2_">
	<g id="Layer_1_1_" display="none">
		<g display="inline">
			<g id="Layer_3">
				<path id="vecmap" fill="#FF0000" stroke="#000000" stroke-miterlimit="10" d="M199.542,18
					c115.73,0,209.543,93.815,209.543,209.542c0,20.131-2.84,39.604-8.142,58.032c-2.871,9.981-6.465,19.661-10.72,28.97
					c-33.043,72.302-105.996,122.539-190.682,122.54c-89.405,0-165.732-55.995-195.828-134.823
					c-2.083-5.456-3.942-11.021-5.574-16.684C-7.158,267.148-10,247.674-10,227.542C-10,111.815,83.815,18,199.542,18z"/>
			</g>
			<g display="none">
				
					<line display="inline" fill="none" stroke="#000000" stroke-width="3" stroke-miterlimit="10" x1="386.891" y1="312.586" x2="7.982" y2="312.586"/>
			</g>
			<g display="none">
				
					<line display="inline" fill="none" stroke="#000000" stroke-width="3" stroke-miterlimit="10" x1="409.062" y1="230.185" x2="-9.978" y2="230.185"/>
			</g>
			<g>
				<path d="M169.027,201.263l-9.923,26.23h-3.341l-8.275-21.493l-8.278,21.493h-3.341l-9.874-26.23h3.391l8.23,22.291l8.428-22.291
					h3.042l8.377,22.291l8.328-22.291H169.027z"/>
			</g>
			<g>
				<path d="M124.198,201.312l-9.924,26.23h-3.341l-8.278-21.493l-8.278,21.493h-3.339l-9.875-26.23h3.391l8.228,22.291
					l8.428-22.291h3.042l8.38,22.291l8.326-22.291H124.198z"/>
			</g>
			<g>
				<path d="M79.178,201.312l-9.923,26.23h-3.341l-8.279-21.493l-8.278,21.493h-3.341l-9.874-26.23h3.392l8.228,22.291l8.427-22.291
					h3.042l8.38,22.291l8.326-22.291H79.178z"/>
			</g>
			<g>
				<path d="M169.367,226.994c-0.516-0.534-0.773-1.18-0.773-1.947c0-0.765,0.257-1.402,0.773-1.919
					c0.515-0.516,1.138-0.773,1.87-0.773c0.731,0,1.362,0.257,1.892,0.773c0.534,0.515,0.798,1.155,0.798,1.919
					c0,0.766-0.266,1.414-0.798,1.947c-0.532,0.532-1.164,0.795-1.892,0.795C170.504,227.791,169.883,227.526,169.367,226.994z"/>
			</g>
			<g>
				<path d="M213.666,213.478c0.447-1.027,1.005-1.911,1.671-2.641c0.664-0.733,1.528-1.562,2.592-2.496
					c1.43-1.26,2.485-2.369,3.165-3.316c0.681-0.944,1.024-2.1,1.024-3.463c0-1.831-0.715-3.302-2.146-4.413
					c-1.43-1.114-3.391-1.671-5.883-1.671c-4.123,0-7.299,1.344-9.525,4.039l-2.643-1.994c2.826-3.458,6.965-5.187,12.416-5.187
					c3.492,0,6.278,0.781,8.355,2.343c2.078,1.563,3.117,3.674,3.117,6.335c0,1.364-0.225,2.566-0.676,3.616
					c-0.447,1.046-0.996,1.937-1.646,2.667c-0.648,0.731-1.505,1.579-2.568,2.543c-1.429,1.296-2.494,2.453-3.189,3.466
					c-0.698,1.014-1.05,2.269-1.05,3.767h-3.688C212.995,215.705,213.217,214.51,213.666,213.478z M212.995,227.016
					c-0.501-0.513-0.748-1.119-0.748-1.82c0-0.731,0.247-1.338,0.748-1.82c0.499-0.479,1.11-0.723,1.845-0.723
					c0.765,0,1.396,0.244,1.894,0.723c0.498,0.483,0.748,1.089,0.748,1.82c0,0.701-0.259,1.307-0.773,1.82
					c-0.517,0.516-1.14,0.773-1.868,0.773C214.105,227.791,213.491,227.532,212.995,227.016z"/>
			</g>
			<g>
				<path d="M242.409,213.478c0.447-1.027,1.005-1.911,1.671-2.641c0.664-0.733,1.528-1.562,2.593-2.496
					c1.429-1.26,2.484-2.369,3.164-3.316c0.681-0.944,1.024-2.1,1.024-3.463c0-1.831-0.715-3.302-2.146-4.413
					c-1.428-1.114-3.391-1.671-5.882-1.671c-4.123,0-7.298,1.344-9.525,4.039l-2.643-1.994c2.825-3.458,6.965-5.187,12.416-5.187
					c3.492,0,6.277,0.781,8.355,2.343c2.078,1.563,3.117,3.674,3.117,6.335c0,1.364-0.225,2.566-0.676,3.616
					c-0.447,1.046-0.995,1.937-1.646,2.667c-0.647,0.731-1.505,1.579-2.568,2.543c-1.428,1.296-2.493,2.453-3.188,3.466
					c-0.698,1.014-1.051,2.269-1.051,3.767h-3.688C241.738,215.705,241.96,214.51,242.409,213.478z M241.738,227.016
					c-0.501-0.513-0.748-1.119-0.748-1.82c0-0.731,0.247-1.338,0.748-1.82c0.499-0.479,1.11-0.723,1.844-0.723
					c0.766,0,1.397,0.244,1.895,0.723c0.498,0.483,0.748,1.089,0.748,1.82c0,0.701-0.259,1.307-0.773,1.82
					c-0.517,0.516-1.14,0.773-1.869,0.773C242.848,227.791,242.234,227.532,241.738,227.016z"/>
			</g>
			<g display="none">
				<path id="vecmap_1_" display="inline" d="M187.347,213.478c0.448-1.027,1.005-1.911,1.67-2.641
					c0.665-0.733,1.529-1.562,2.593-2.496c1.429-1.26,2.485-2.369,3.164-3.316c0.681-0.944,1.025-2.1,1.025-3.463
					c0-1.831-0.715-3.302-2.145-4.413c-1.43-1.114-3.392-1.671-5.884-1.671c-4.122,0-7.298,1.344-9.525,4.039l-2.643-1.994
					c2.825-3.458,6.964-5.187,12.417-5.187c3.491,0,6.277,0.781,8.355,2.343c2.078,1.563,3.116,3.674,3.116,6.335
					c0,1.364-0.224,2.566-0.675,3.616c-0.447,1.046-0.996,1.937-1.646,2.667c-0.647,0.731-1.503,1.579-2.568,2.543
					c-1.429,1.296-2.493,2.453-3.189,3.466c-0.699,1.014-1.049,2.269-1.049,3.767h-3.688
					C186.676,215.705,186.898,214.51,187.347,213.478z M186.676,227.016c-0.501-0.513-0.748-1.119-0.748-1.82
					c0-0.731,0.247-1.338,0.748-1.82c0.499-0.479,1.111-0.723,1.843-0.723c0.765,0,1.398,0.244,1.895,0.723
					c0.5,0.483,0.748,1.089,0.748,1.82c0,0.701-0.258,1.307-0.773,1.82c-0.515,0.516-1.139,0.773-1.869,0.773
					C187.788,227.79,187.173,227.532,186.676,227.016z"/>
			</g>
			<g display="none">
				<path display="inline" d="M263.56,226.994c-0.516-0.534-0.772-1.18-0.772-1.947c0-0.765,0.257-1.402,0.772-1.919
					c0.516-0.516,1.139-0.773,1.871-0.773c0.73,0,1.362,0.257,1.892,0.773c0.534,0.515,0.798,1.155,0.798,1.919
					c0,0.766-0.267,1.414-0.798,1.947c-0.532,0.532-1.164,0.795-1.892,0.795C264.699,227.791,264.077,227.526,263.56,226.994z"/>
			</g>
			<g display="none">
				<path display="inline" d="M278,226.094c-2.044-1.129-3.648-2.718-4.812-4.762c-1.164-2.042-1.745-4.344-1.745-6.907
					c0-2.56,0.581-4.853,1.745-6.881c1.166-2.029,2.768-3.607,4.812-4.737c2.046-1.13,4.363-1.695,6.957-1.695
					c2.264,0,4.283,0.441,6.059,1.321c1.777,0.88,3.184,2.169,4.215,3.862l-2.642,1.798c-0.864-1.297-1.961-2.27-3.291-2.92
					c-1.332-0.648-2.778-0.97-4.341-0.97c-1.893,0-3.6,0.422-5.112,1.271c-1.512,0.848-2.691,2.053-3.539,3.616
					c-0.849,1.563-1.272,3.341-1.272,5.335c0,2.028,0.424,3.815,1.272,5.361c0.85,1.543,2.029,2.743,3.539,3.59
					c1.514,0.85,3.219,1.271,5.112,1.271c1.563,0,3.009-0.316,4.341-0.948c1.33-0.628,2.427-1.595,3.291-2.892l2.642,1.795
					c-1.031,1.696-2.441,2.987-4.239,3.865c-1.796,0.881-3.808,1.322-6.034,1.322C282.363,227.791,280.046,227.227,278,226.094z"/>
			</g>
			<g display="none">
				<path display="inline" d="M307.782,226.094c-2.045-1.129-3.648-2.718-4.812-4.762c-1.164-2.042-1.746-4.344-1.746-6.907
					c0-2.56,0.582-4.853,1.746-6.881c1.165-2.029,2.767-3.607,4.812-4.737s4.363-1.695,6.957-1.695c2.264,0,4.282,0.441,6.06,1.321
					c1.777,0.88,3.182,2.169,4.213,3.862l-2.641,1.798c-0.864-1.297-1.961-2.27-3.291-2.92c-1.333-0.648-2.778-0.97-4.341-0.97
					c-1.893,0-3.6,0.422-5.112,1.271c-1.512,0.848-2.691,2.053-3.54,3.616c-0.848,1.563-1.271,3.341-1.271,5.335
					c0,2.028,0.424,3.815,1.271,5.361c0.851,1.543,2.03,2.743,3.54,3.59c1.514,0.85,3.219,1.271,5.112,1.271
					c1.563,0,3.008-0.316,4.341-0.948c1.33-0.628,2.427-1.595,3.291-2.892l2.641,1.795c-1.031,1.696-2.441,2.987-4.238,3.865
					c-1.796,0.881-3.808,1.322-6.034,1.322C312.145,227.791,309.827,227.227,307.782,226.094z"/>
			</g>
			<g display="none">
				<path display="inline" d="M336.871,226.094c-2.044-1.129-3.648-2.718-4.812-4.762c-1.164-2.042-1.745-4.344-1.745-6.907
					c0-2.56,0.581-4.853,1.745-6.881c1.166-2.029,2.768-3.607,4.812-4.737c2.046-1.13,4.364-1.695,6.957-1.695
					c2.264,0,4.283,0.441,6.06,1.321c1.777,0.88,3.184,2.169,4.213,3.862l-2.64,1.798c-0.864-1.297-1.962-2.27-3.291-2.92
					c-1.333-0.648-2.779-0.97-4.342-0.97c-1.892,0-3.6,0.422-5.111,1.271c-1.513,0.848-2.692,2.053-3.541,3.616
					c-0.848,1.563-1.271,3.341-1.271,5.335c0,2.028,0.423,3.815,1.271,5.361c0.852,1.543,2.031,2.743,3.541,3.59
					c1.514,0.85,3.218,1.271,5.111,1.271c1.563,0,3.009-0.316,4.342-0.948c1.329-0.628,2.427-1.595,3.291-2.892l2.64,1.795
					c-1.029,1.696-2.44,2.987-4.238,3.865c-1.796,0.881-3.807,1.322-6.034,1.322C341.235,227.791,338.917,227.227,336.871,226.094z"
					/>
			</g>
		</g>
		<g display="inline">
			<path d="M26.737,186.725h3.291v46.678h-3.291V186.725z"/>
		</g>
		<div  class="typewriter">
			
				<text  transform="matrix(1 0 0 1 264.0769 578.5002)" font-family="&apos;Montserrat-Regular&apos;" font-size="72" startOffset="0">
				www.???.com</text>
		</div>
	</g>
	<g id="Layer_2" display="none">
		<g display="inline">
			<path fill="#FFFFFF" stroke="#DDDDDD" stroke-miterlimit="10" d="M182.76,202.123c1.125-0.162,2.284-0.273,3.515-0.273
				c1.138,0,2.212,0.098,3.253,0.239c0.485-0.069,0.978-0.115,1.483-0.149c-6.833-7.619-15.105-13.354-24.855-17.155
				c-9.948-3.875-22.99-7.802-39.121-11.782c-13.617-3.35-24.459-6.442-32.523-9.27c-8.063-2.827-14.768-6.912-20.107-12.254
				c-5.345-5.342-8.011-12.413-8.011-21.209c0-11.73,4.866-21.313,14.61-28.753c9.741-7.433,24.241-11.154,43.522-11.154
				c10.049,0,20.312,1.521,30.792,4.556c10.471,3.039,20.316,7.595,29.536,13.668l7.855-18.54
				c-8.796-6.074-19.22-10.839-31.266-14.297c-12.045-3.456-24.353-5.185-36.917-5.185c-18.02,0-33.106,2.727-45.253,8.17
				c-12.146,5.449-21.156,12.726-27.022,21.837c-5.864,9.113-8.798,19.221-8.798,30.324c0,13.62,3.506,24.405,10.528,32.365
				c7.016,7.963,15.447,13.879,25.292,17.755c9.844,3.877,23.043,7.91,39.592,12.097c13.827,3.354,24.618,6.443,32.365,9.27
				c4.645,1.69,8.711,3.964,12.462,6.555c3.516-4.236,8.854-7.086,16.036-7.086C180.8,201.849,181.773,201.994,182.76,202.123z"/>
		</g>
		
			<text transform="matrix(1 0 0 1 72.449 238.4768)" display="inline" fill="#FFFFFF" font-family="'Montserrat-Regular'" font-size="49.8676">D</text>
		<g display="inline">
			<path fill="#FFFFFF" stroke="#DDDDDD" stroke-miterlimit="10" d="M133.356,181.555h89.551c23.253,0,43.782,4.665,61.589,13.984
				c17.802,9.323,31.628,22.309,41.482,38.964c9.84,16.651,14.762,35.664,14.762,57.03c0,21.363-4.922,40.375-14.762,57.03
				c-9.854,16.653-23.679,29.643-41.482,38.963c-17.807,9.324-38.336,13.984-61.589,13.984h-89.551V181.555z M221.655,381.405
				c19.267,0,36.133-3.823,50.589-11.472c14.456-7.646,25.656-18.227,33.617-31.734c7.962-13.511,11.942-29.068,11.942-46.663
				c0-17.6-3.98-33.152-11.942-46.666c-7.961-13.51-19.161-24.083-33.617-31.733c-14.456-7.646-31.322-11.47-50.589-11.47H156.61
				v179.739L221.655,381.405L221.655,381.405z"/>
		</g>
		<path display="inline" fill="#FFFFFF" stroke="#DDDDDD" stroke-miterlimit="10" d="M129.539,180.399"/>
	</g>
	<path fill="#FFFFFF" stroke="#000000" stroke-width="6" stroke-miterlimit="10" d="M231.344,251.953"/>
	<path fill="#FFFFFF" stroke="#000000" stroke-miterlimit="10" d="M95.536,173.27c0,0-20.778-22.853-40.634-6.809"/>
	<path fill="#FFFFFF" stroke="#000000" stroke-width="4" stroke-miterlimit="10" d="M96.402,200.05c0,0-20.029-18.407-23.722-11.974
		c-3.694,6.433-35.555,27.214-47.098-3.262c0,0-11.082-38.785,25.396-54.023l0.923,8.466c0,0-9.722,25.594,8.299,22.877
		c0,0,17.097-13.798,43.877-1.793"/>
</g>
<g id="Layer_2_1_">
	<g id="Layer_4">
		<path fill="#FFFFFF" stroke="#FCFCFC" stroke-width="2" stroke-miterlimit="10" d="M55.883,102.368c0,0-0.792-32.697,47.041-33.79
			c0,0,6.153-5.445,22.123,3.616c0,0-29.28,13.001-30.895,13.225c-1.617,0.224-3.35,13.341-5.568,13.7
			C86.365,99.477,55.883,102.368,55.883,102.368z"/>
	</g>
	<path fill="#FFFFFF" stroke="#FCFCFC" stroke-width="2" stroke-miterlimit="10" d="M102.119,157.656c0,0-19.228-4.833-20.584-3.834
		c-1.356,1-24.932-17.385-25.651-51.454l34.258-3.249c0,0,12.936,33.746,31.143,31.888L102.119,157.656z"/>
	<path fill="#FFFFFF" stroke="#000000" stroke-width="6" stroke-miterlimit="10" d="M99.158,201.564
		c-1.008-4.799-1.537-9.774-1.537-14.873c0-39.781,32.249-72.031,72.031-72.031c39.781,0,72.031,32.25,72.031,72.031
		c0,13.29-3.6,25.739-9.876,36.426"/>
	<path fill="#FFFFFF" stroke="#000000" stroke-width="6" stroke-miterlimit="10" d="M97.621,200.982"/>
	<path fill="#FFFFFF" stroke="#000000" stroke-width="6" stroke-miterlimit="10" d="M107.925,223.837"/>
	<path fill="#FFFFFF" stroke="#000000" stroke-width="6" stroke-miterlimit="10" d="M200.176,251.953
		c-9.268,4.343-19.613,6.769-30.523,6.769c-10.021,0-19.563-2.046-28.233-5.743"/>
	<path display="none" fill="#FFFFFF" stroke="#000000" stroke-miterlimit="10" d="M141.709,189.101c0,0-18.008-54.514-61.642-23.347
		c0,0-27.704,46.404-53.331,13.16c0,0-12.467-47.097,37.4-54.023c0,0,28.397-18.007-17.315-29.089c0,0,79.65-0.472,30.475,47.555"/>
	<path display="none" fill="none" stroke="#000000" stroke-miterlimit="10" d="M50.286,158.136c0,0,31.167-76.659,109.431-20.321"/>
	<path id="eye_1_" fill="#FFFFFF" stroke="#000000" stroke-width="5" stroke-miterlimit="10" d="M119.158,166.656
		c3.62,0.021,5.949,0.515,5.202,1.102c-0.747,0.588-4.288,1.047-7.909,1.026c-3.62-0.021-5.949-0.515-5.202-1.102
		C111.996,167.094,115.538,166.635,119.158,166.656z"/>
	<g id="eyegroup">
		
			<ellipse id="eye" fill="#FFFFFF" stroke="#000000" stroke-width="5" stroke-miterlimit="10" cx="158.798" cy="166.461" rx="10.854" ry="16.969"/>
			<animateTransform
		 	attributeName="transform"
			type="translate"
			from="0 0"
			to="50 0"
			begin="0s"
			duration="3s"
			repeatCount="indefinite"
		/>
	</g>
	<path fill="#FFFFFF" stroke="#000000" stroke-width="5" stroke-miterlimit="10" d="M163.18,143.259c0,0,19.393,1.385,16.622,23.202
		"/>
	<path display="none" fill="none" stroke="#000000" stroke-width="4" stroke-miterlimit="10" d="M124.51,111.731
		c0,0-36.824,36.708-63.143,0"/>
	<path display="none" fill="none" stroke="#000000" stroke-width="4" stroke-miterlimit="10" d="M68.986,67.405
		c0,0,36.015,26.608-7.619,36.506"/>
	<g display="none">
		<g display="inline">
			<path fill="none" stroke="#000000" stroke-width="4" stroke-miterlimit="10" d="M257.375,85.657
				c-29.782-29.536-54.716,0-54.716,0"/>
			<path fill="none" stroke="#000000" stroke-width="4" stroke-miterlimit="10" d="M241.683,111.731c0,0,28.158,28.397,51.015,0"/>
			<path fill="none" stroke="#000000" stroke-width="4" stroke-miterlimit="10" d="M289.234,66.712c0,0-28.396,28.888-31.859,18.253
				"/>
			<path fill="none" stroke="#000000" stroke-width="4" stroke-miterlimit="10" d="M296.16,71.56c0,0,1.332,30.933-3.462,40.171"/>
			<path fill="none" stroke="#000000" stroke-width="4" stroke-miterlimit="10" d="M244.447,118.042c0,0-2.771,16.41-9.236,18.671"
				/>
			<path fill="none" stroke="#000000" stroke-width="4" stroke-miterlimit="10" d="M302.805,182.531l-1.518,1.242l14.572-2.178
				c0,0-12.43,15.986-15.771,16.274"/>
			<path fill="none" stroke="#000000" stroke-width="4" stroke-miterlimit="10" d="M218.45,92.916c0,0-24.738,5.078-27.935,11.356"
				/>
		</g>
		<g display="inline">
			<path fill="none" stroke="#000000" stroke-width="4" stroke-miterlimit="10" d="M257.375,85.657
				c-29.782-29.536-54.716,0-54.716,0"/>
			<path fill="none" stroke="#000000" stroke-width="4" stroke-miterlimit="10" d="M241.683,111.731c0,0,28.158,28.397,51.015,0"/>
			<path fill="none" stroke="#000000" stroke-width="4" stroke-miterlimit="10" d="M289.234,66.712c0,0-28.396,28.888-31.859,18.253
				"/>
			<path fill="none" stroke="#000000" stroke-width="4" stroke-miterlimit="10" d="M296.16,71.56c0,0,1.332,30.933-3.462,40.171"/>
			<path fill="none" stroke="#000000" stroke-width="4" stroke-miterlimit="10" d="M244.447,118.042c0,0-2.771,16.41-9.236,18.671"
				/>
			<path fill="none" stroke="#000000" stroke-width="4" stroke-miterlimit="10" d="M302.805,182.531l-1.518,1.242l14.572-2.178
				c0,0-12.43,15.986-15.771,16.274"/>
			<path fill="none" stroke="#000000" stroke-width="4" stroke-miterlimit="10" d="M218.45,92.916c0,0-24.738,5.078-27.935,11.356"
				/>
		</g>
	</g>
	<path fill="#FFFFFF" stroke="#000000" stroke-width="5" stroke-miterlimit="10" d="M206.122,212.518c0,0,26.318-34.63,55.408,0
		c0,0,15.576,27.242,34.8,12.005c0,0,9.065-14.314-7.096-25.396c0,0,57.718,26.781,17.547,57.717c0,0-36.939,15.699-62.334-16.623
		c0,0-8.313-12.005,0-15.238"/>
	<path fill="none" stroke="#000000" stroke-width="5" stroke-miterlimit="10" d="M244.447,242.531c0,0-28.629,33.245-54.024,2.77"/>
	<path fill="#FFFFFF" stroke="#000000" stroke-width="5" stroke-miterlimit="10" d="M92.812,199.194
		c-5.426,2.21-11.156,6.371-16.997,13.324c0,0-15.577,27.242-34.8,12.005c0,0-9.065-14.314,7.095-25.396
		c0,0-57.717,26.781-17.545,57.717c0,0,36.939,15.699,62.334-16.623c0,0,8.311-12.005,0-15.238"/>
	<path fill="#FFFFFF" stroke="#000000" stroke-width="5" stroke-miterlimit="10" d="M131.223,212.518c0,0-16.81-22.12-38.412-13.324
		"/>
	<path fill="none" stroke="#000000" stroke-width="5" stroke-miterlimit="10" d="M139.765,252.239
		c2.396-1.811,4.792-4.098,7.158-6.938"/>
	<path fill="none" stroke="#000000" stroke-width="5" stroke-miterlimit="10" d="M92.9,242.531c0,0,23.541,27.337,46.866,9.708"/>
	<g>
		<path fill="#FFFFFF" stroke="#000000" stroke-width="5" stroke-miterlimit="10" d="M91.32,195.201
			c-0.77,10.107-5.415,17.994-10.373,17.616c-4.959-0.378-8.354-8.878-7.582-18.984c0.771-10.109,5.416-17.995,10.375-17.617
			c0.45,0.034,0.888,0.136,1.311,0.3C89.28,178.151,92.022,186.012,91.32,195.201z"/>
		
			<ellipse transform="matrix(0.0761 -0.9971 0.9971 0.0761 -117.972 260.6792)" fill="#FFFFFF" stroke="#000000" stroke-width="4" stroke-miterlimit="10" cx="81.68" cy="193.999" rx="6.359" ry="3.463"/>
		<path fill="none" stroke="#000000" stroke-width="4" stroke-miterlimit="10" d="M83.71,213.028c0,0,33.676-4.377,33.178,6.699"/>
		<path fill="none" stroke="#000000" stroke-width="5" stroke-miterlimit="10" d="M86.581,177.197c0,0,19.97,14.786,26.385,2.469"/>
	</g>
	<path fill="none" stroke="#000000" stroke-width="4" stroke-miterlimit="10" d="M226.9,183.43"/>
	<path fill="none" stroke="#000000" stroke-width="4" stroke-miterlimit="10" d="M281.615,204.822
		c-7.387-25.91-29.244-26.781-42.993-24.482"/>
	<path fill="none" stroke="#000000" stroke-width="4" stroke-miterlimit="10" d="M276.644,257.891"/>
	<path fill="none" stroke="#000000" stroke-width="4" stroke-miterlimit="10" d="M280.924,203.01c0,0,22.163-16.684,0-36
		c0,0,28.098,21.975,29.267,46.396"/>
	<path fill="none" stroke="#000000" stroke-width="4" stroke-miterlimit="10" d="M257.375,253.953c0,0-6.695,5.575-19.623-3.385"/>
	<path fill="none" stroke="#000000" stroke-width="4" stroke-miterlimit="10" d="M283.277,184.816
		c-11.209-24.501-32.946-22.067-46.192-17.724"/>
	<g>
		<path fill="none" stroke="#000000" stroke-width="4" stroke-miterlimit="10" d="M226.207,138.41c0,0,24.935-29.089,54.023,0"/>
		<path fill="none" stroke="#000000" stroke-width="4" stroke-miterlimit="10" d="M275.515,113.563
			c-0.079,8-3.596,14.69-3.596,14.689"/>
		<path fill="none" stroke="#000000" stroke-width="4" stroke-miterlimit="10" d="M275.515,113.563"/>
		<path fill="none" stroke="#000000" stroke-width="4" stroke-miterlimit="10" d="M270.447,98.909
			c0.31,0.362,0.602,0.727,0.88,1.096"/>
		<path fill="none" stroke="#000000" stroke-width="4" stroke-miterlimit="10" d="M289.927,167.076
			c22.773-45.358-0.537-63.993-16.598-71.096"/>
	</g>
	<path display="none" fill="none" stroke="#000000" stroke-width="4" stroke-miterlimit="10" d="M287.849,153.49
		c0,0-5.639,8.89-24.289,9.191"/>
	<path display="none" fill="none" stroke="#000000" stroke-width="4" stroke-miterlimit="10" d="M246.87,150
		c0,0,11.633-9.65,21.586,3.556"/>
	<path fill="none" stroke="#000000" stroke-width="4" stroke-miterlimit="10" d="M270.127,168.889"/>
	<g display="none">
		<path display="inline" fill="none" stroke="#000000" stroke-width="4" stroke-miterlimit="10" d="M121.421,120.042
			c0,0-24.934-29.089-54.023,0"/>
		<path display="inline" fill="none" stroke="#000000" stroke-width="4" stroke-miterlimit="10" d="M57.701,148.707
			C25.149,83.871,86.755,73.638,86.755,73.638c-24.277,11.082-11.045,36.246-11.045,36.246"/>
	</g>
	<path fill="none" stroke="#000000" stroke-width="4" stroke-miterlimit="10" d="M81.24,155.459
		c-12.979-9.477-25.303-25.296-26.106-51.333"/>
	<path fill="none" stroke="#000000" stroke-width="4" stroke-miterlimit="10" d="M81.24,155.459"/>
	<path fill="none" stroke="#000000" stroke-width="4" stroke-miterlimit="10" d="M112.08,168.889c0,0-0.992-0.155-2.712-0.56"/>
	<path fill="none" stroke="#000000" stroke-width="4" stroke-miterlimit="10" d="M125.1,77.029
		c-6.589-0.38-14.506,0.045-16.751,3.896c0,0-30.576,3.752-10.728,33.736"/>
	<path fill="none" stroke="#000000" stroke-width="4" stroke-miterlimit="10" d="M126.393,70.858
		c0.434,0.225,0.864,0.462,1.285,0.71"/>
	<path fill="none" stroke="#000000" stroke-width="4" stroke-miterlimit="10" d="M54.902,104.127c0,0-4.682-32.899,44.872-37.055
		c0,0,15.257-2.087,26.619,3.786"/>
	<path fill="none" stroke="#000000" stroke-width="4" stroke-miterlimit="10" d="M97.531,113.968c0,0,10.74,21.25,30.922,14.881"/>
	<path fill="none" stroke="#000000" stroke-width="4" stroke-miterlimit="10" d="M266.378,105.886"/>
	<path fill="none" stroke="#000000" stroke-width="4" stroke-miterlimit="10" d="M267.392,103.929c0,0,6.192,5.196,8.48,9.725"/>
</g>
<g id="Layer_3_1_">
	<g>
		
			<ellipse transform="matrix(0.1892 -0.9819 0.9819 0.1892 50.5763 198.4205)" fill="none" stroke="#000000" stroke-width="4" stroke-miterlimit="10" cx="145.437" cy="68.585" rx="2.291" ry="12.008"/>
		<line fill="none" stroke="#000000" stroke-width="4" stroke-miterlimit="10" x1="133.494" y1="66.37" x2="129.107" y2="89.255"/>
		<line fill="none" stroke="#000000" stroke-width="4" stroke-miterlimit="10" x1="157.071" y1="71.078" x2="152.683" y2="93.962"/>
		<line fill="none" stroke="#000000" stroke-width="4" stroke-miterlimit="10" x1="127.552" y1="89.646" x2="153.711" y2="94.869"/>
		<path stroke="#000000" stroke-width="4" stroke-miterlimit="10" d="M134.796,67.928c0,0,5.23,4.432,20.111,4.713l-3.712,19.706
			l-20.811-3.089L134.796,67.928z"/>
		<path fill="none" stroke="#000000" stroke-width="4" stroke-miterlimit="10" d="M131.755,71.068c0,0-4.614-1.494-5.532,2.524"/>
		<polygon fill="none" stroke="#000000" stroke-width="2" stroke-miterlimit="10" points="128.571,73.512 121.523,74.697 
			128.46,79.434 		"/>
		<path fill="none" stroke="#000000" stroke-width="4" stroke-miterlimit="10" d="M125.508,77.353c0,0,0.131,4.847,4.226,4.373"/>
	</g>
	<path stroke="#000000" stroke-width="4" stroke-miterlimit="10" d="M163.16,97.008"/>
	<g>
		<polyline fill="none" stroke="#000000" stroke-width="2" stroke-miterlimit="10" points="251.953,99.193 245.371,106.178 
			239.829,119.349 255.76,115.182 273.544,96.311 		"/>
		<line fill="none" stroke="#000000" stroke-width="2" stroke-miterlimit="10" x1="263.154" y1="87.307" x2="256.897" y2="93.946"/>
		<polyline fill="none" stroke="#000000" stroke-width="2" stroke-miterlimit="10" points="245.533,107.109 250.511,105.886 
			249.018,108.678 253.995,107.281 253.995,110.531 256.488,110.531 256.488,112.847 		"/>
		<line fill="none" stroke="#000000" stroke-width="2" stroke-miterlimit="10" x1="258.774" y1="93.513" x2="258.321" y2="93.975"/>
		<polyline fill="#FFFFFF" stroke="#FCFCFC" stroke-width="2" stroke-miterlimit="10" points="251.63,100.798 246.639,105.886 
			252.18,104.443 251.011,107.056 254.817,105.886 254.817,109.366 257.548,109.366 257.548,111.904 272.421,95.789 263.681,88.51 
			258.774,93.513 		"/>
		<line fill="none" stroke="#000000" stroke-width="2" stroke-miterlimit="10" x1="252.2" y1="100.217" x2="251.63" y2="100.798"/>
		<polygon fill="none" stroke="#000000" stroke-width="2" stroke-miterlimit="10" points="274.04,95.053 263.908,86.555 
			270.802,79.773 280.932,88.271 		"/>
		<path fill="none" stroke="#000000" stroke-width="2" stroke-miterlimit="10" d="M249.844,96.414c0,0,0.097,0.595,0.382,1.461
			c0.98,2.979,4.2,9.159,13.457,5.378c0,0-9.231-8.543-4.802-11.615"/>
	</g>
	<path fill="none" stroke="#000000" stroke-width="2" stroke-miterlimit="10" d="M249.844,97.283c0,0-3.479-12.663,10.338-7.561"/>
	
		<line fill="none" stroke="#000000" stroke-width="2" stroke-miterlimit="10" x1="241.683" y1="116.349" x2="243.409" y2="118.413"/>
	<path fill="none" stroke="#000000" stroke-width="2" stroke-miterlimit="10" d="M263.908,87.413"/>
</g>
</svg>
