<?xml version="1.0" encoding="utf-8"?>
<!-- Generator: Adobe Illustrator 16.0.0, SVG Export Plug-In . SVG Version: 6.00 Build 0)  -->
<!DOCTYPE svg PUBLIC "-//W3C//DTD SVG 1.1//EN" "http://www.w3.org/Graphics/SVG/1.1/DTD/svg11.dtd">
<svg version="1.1" id="Layer_2" xmlns="http://www.w3.org/2000/svg" xmlns:xlink="http://www.w3.org/1999/xlink" x="0px" y="0px"
	 width="200px" height="200px" viewBox="0 0 1000 1000" style="enable-background:new 0 0 1000 1000;" xml:space="preserve">
<style type="text/css">
<![CDATA[
	.st0{display:none;fill:#FFFFFF;stroke:#FCB1B1;stroke-width:5;stroke-miterlimit:10;}
	.st1{fill:#FFFFFF;stroke:#ECB2F9;stroke-width:9;stroke-miterlimit:10;}
	.st2{font-family:'MyriadPro-Regular';}
	.st3{fill:#FFFFFF;stroke:#ECB2F9;stroke-width:9;stroke-miterlimit:10;enable-background:new    ;}
	.st4{fill:none;stroke:#FCB1B1;stroke-width:5;stroke-miterlimit:10;}
	.st5{display:none;enable-background:new    ;}
	.st6{display:none;fill:none;stroke:#FCB1B1;stroke-width:5;stroke-miterlimit:10;}
	.st7{display:inline;}
	.st8{display:inline;fill:#FFFFFF;stroke:#FCB1B1;stroke-width:5;stroke-miterlimit:10;}
	.st9{font-size:72;}
	.st10{fill:#FFFFFF;stroke:#FCB1B1;stroke-width:5;stroke-miterlimit:10;}
	.st11{display:none;}
	.st12{fill:none;stroke:#ECB2F9;stroke-width:9;stroke-miterlimit:10;}
]]>
</style>
<circle class="st3" cx="500" cy="455.711" r="302.542"/>
<g id="Layer_1" class="st11">
	<path class="st10" d="M444.525,594.475c0,6.627-5.373,12-12,12H331.102c-6.627,0-12-5.373-12-12V348.983c0-6.627,5.373-12,12-12
		h101.424c6.627,0,12,5.373,12,12L444.525,594.475L444.525,594.475z"/>
	<path class="st10" d="M656.459,594.475c0,6.627-5.372,12-12,12H543.034c-6.627,0-12-5.373-12-12V348.983c0-6.627,5.373-12,12-12
		h101.425c6.628,0,12,5.373,12,12V594.475z"/>
	<path class="st10" d="M569.949,515.729c0,6.627-5.373,12-12,12H456.525c-6.627,0-12-5.373-12-12V270.237c0-6.627,5.373-12,12-12
		h101.424c6.627,0,12,5.373,12,12V515.729z"/>
	<path class="st4" d="M348.052,427.712c0,31.853,20.468,57.628,45.763,57.628"/>
	<rect x="307.237" y="298.814" class="st8" width="376.271" height="316.95"/>
	<polygon class="st8" points="341.136,358.136 361.475,346.271 361.475,373.391 341.136,383.56 	"/>
	<g class="st7">
		<line class="st4" x1="307.237" y1="295" x2="542.423" y2="156.121"/>
	</g>
	<g class="st7">
		<line class="st4" x1="683.51" y1="295" x2="724.872" y2="253.319"/>
	</g>
	<g class="st7">
		<line class="st4" x1="683.51" y1="615.764" x2="802.007" y2="437.539"/>
	</g>
	<g class="st7">
		<polyline class="st10" points="307.237,615.764 542.423,437.539 542.423,303 		"/>
	</g>
	<g class="st7">
		<line class="st4" x1="547" y1="437.539" x2="683.51" y2="437.539"/>
	</g>
</g>
<text transform="matrix(1 0 0 1 461.9832 703.8977)" class="st5 st2 st9">3X</text>
<line class="st6" x1="197.458" y1="455.711" x2="802.543" y2="455.711"/>
<ellipse class="st1" cx="498.5" cy="378.5" rx="53" ry="9"/>
<path class="st6" d="M461.5,367.5c0,0,6,126-12,136c0,0-98,106,65,99c0,0,158.441,23.015,53-98v-137"/>
<path class="st12" d="M445.5,384.5V504c0,0-136,161.5-2,164.5h109.959c134-3-2-164.5-2-164.5V384.5"/>
<ellipse class="st0" cx="379.5" cy="275.5" rx="53" ry="9"/>
<line class="st0" x1="326.5" y1="280.5" x2="326.5" y2="431.5"/>
<line class="st0" x1="432.5" y1="280.5" x2="432.5" y2="431.5"/>
<path class="st0" d="M326.5,430.5c0,0,49,80,106,0"/>
<circle class="st1" cx="533.861" cy="228.513" r="25.636"/>
<circle class="st1" cx="455.5" cy="280.329" r="25.636"/>
<circle class="st1" cx="535.587" cy="328.6" r="25.636"/>
<line class="st12" x1="403.851" y1="565.32" x2="592.585" y2="564.361"/>
<path class="st1" d="M427.833,567.496c0,0,15.333-26.667,38.667,0"/>
<circle class="st1" cx="530.898" cy="565.32" r="16.907"/>
<circle class="st1" cx="484" cy="491.986" r="16.907"/>
<line class="st12" x1="437.166" y1="328.6" x2="447.167" y2="335.502"/>
<line class="st12" x1="464.166" y1="349.6" x2="474.167" y2="356.502"/>
<line class="st12" x1="464.166" y1="337.502" x2="474.167" y2="330.6"/>
<line class="st12" x1="439.166" y1="356.502" x2="449.167" y2="349.6"/>
<line class="st6" x1="475.259" y1="343.28" x2="469.074" y2="332.821"/>
<line class="st12" x1="565.166" y1="248.6" x2="575.167" y2="255.502"/>
<line class="st12" x1="592.166" y1="269.6" x2="602.167" y2="276.502"/>
<line class="st12" x1="592.166" y1="257.502" x2="602.167" y2="250.6"/>
<line class="st12" x1="567.166" y1="276.502" x2="577.167" y2="269.6"/>
</svg>
