<?xml version="1.0" encoding="utf-8"?>
<!-- Generator: Adobe Illustrator 16.0.0, SVG Export Plug-In . SVG Version: 6.00 Build 0)  -->
<!DOCTYPE svg PUBLIC "-//W3C//DTD SVG 1.1//EN" "http://www.w3.org/Graphics/SVG/1.1/DTD/svg11.dtd">
<svg version="1.1" id="Layer_2" xmlns="http://www.w3.org/2000/svg" xmlns:xlink="http://www.w3.org/1999/xlink" x="0px" y="0px"
	 width="1000px" height="1000px" viewBox="0 0 1000 1000" style="enable-background:new 0 0 1000 1000;" xml:space="preserve">
<style type="text/css">
<![CDATA[
	.st0{fill:#FFFFFF;stroke:#010101;stroke-width:7;stroke-miterlimit:10;}
	.st1{fill:none;stroke:#010101;stroke-width:9;stroke-miterlimit:10;}
	.st2{fill:#FFFFFF;stroke:#010101;stroke-width:6;stroke-miterlimit:10;}
	.st3{font-family:'MyriadPro-Regular';}
	.st4{display:none;enable-background:new    ;}
	.st5{fill:#FFFFFF;stroke:#010101;stroke-width:5;stroke-miterlimit:10;}
	.st6{font-size:72;}
	.st7{stroke:#010101;stroke-width:7;stroke-miterlimit:10;}
	.st8{fill:none;stroke:#010101;stroke-width:6;stroke-miterlimit:10;}
]]>
</style>
<text transform="matrix(1 0 0 1 461.9832 703.8977)" class="st4 st3 st6">3X</text>
<line class="st5" x1="318.047" y1="314.726" x2="681.952" y2="314.726"/>
<polyline class="st5" points="306.5,396.644 499.421,464.705 697.696,404.615 "/>
<line class="st5" x1="306.5" y1="356.453" x2="306.5" y2="545.473"/>
<line class="st5" x1="697.696" y1="353.334" x2="697.696" y2="542.352"/>
<path class="st0" d="M539.698,498.44c0,3.813-3.091,6.903-6.903,6.903h-65.59c-3.813,0-6.903-3.091-6.903-6.903v-60.411
	c0-3.813,3.091-6.903,6.903-6.903h65.59c3.813,0,6.903,3.091,6.903,6.903V498.44z"/>
<path class="st0" d="M467.205,431.125"/>
<path class="st0" d="M412.309,871.357"/>
<path class="st1" d="M467.205,431.125c0-30.313,14.668-54.841,32.795-54.841"/>
<path class="st1" d="M532.216,431.125c0-30.313-14.668-54.841-32.795-54.841"/>
<circle class="st7" cx="500" cy="458.511" r="11.668"/>
<polygon class="st7" points="500,458.511 488.332,489.625 511.668,489.625 "/>
<path class="st8" d="M561.259,449.73c-2.86,2.088-6.873,1.461-8.961-1.4l-15.335-21.016c-2.088-2.861-1.461-6.873,1.399-8.96
	l28.061-20.477c2.86-2.087,6.873-1.461,8.96,1.4l15.336,21.015c2.088,2.861,1.461,6.873-1.4,8.961L561.259,449.73z"/>
<rect x="556.66" y="414.426" transform="matrix(0.5894 0.8078 -0.8078 0.5894 573.8081 -281.4755)" class="st8" width="14.323" height="18.704"/>
<path class="st2" d="M616.259,409.73c-2.86,2.088-6.873,1.461-8.961-1.4l-15.335-21.016c-2.088-2.861-1.461-6.873,1.399-8.96
	l28.061-20.477c2.86-2.087,6.873-1.461,8.96,1.4l15.336,21.015c2.088,2.861,1.461,6.873-1.4,8.961L616.259,409.73z"/>
<rect x="611.66" y="374.426" transform="matrix(0.5894 0.8078 -0.8078 0.5894 564.0762 -342.3269)" class="st8" width="14.323" height="18.704"/>
<path class="st2" d="M586.591,419.818c-4.009,3.188-9.843,2.523-13.031-1.485l0,0c-3.188-4.008-2.522-9.843,1.486-13.031
	l22.267-17.71c4.009-3.188,9.843-2.523,13.031,1.485l0,0c3.188,4.009,2.523,9.843-1.485,13.031L586.591,419.818z"/>
<path class="st2" d="M677.421,363.013c-1.957,2.951-5.938,3.756-8.89,1.799l-21.677-14.384c-2.952-1.958-3.757-5.938-1.799-8.889
	l19.205-28.945c1.958-2.951,5.938-3.756,8.889-1.798l21.679,14.383c2.951,1.958,3.756,5.938,1.798,8.89L677.421,363.013z"/>
<rect x="663.652" y="328.434" transform="matrix(0.8332 0.5529 -0.5529 0.8332 298.6378 -314.5754)" class="st8" width="14.322" height="18.703"/>
<path class="st2" d="M641.591,379.818c-4.009,3.188-9.843,2.523-13.031-1.485l0,0c-3.188-4.008-2.522-9.843,1.486-13.031
	l22.267-17.71c4.009-3.188,9.843-2.523,13.031,1.485l0,0c3.188,4.009,2.523,9.843-1.485,13.031L641.591,379.818z"/>
<path class="st8" d="M437.039,441.865c2.86,2.088,6.873,1.461,8.961-1.4l15.335-21.016c2.088-2.861,1.461-6.873-1.399-8.96
	l-28.061-20.477c-2.86-2.087-6.873-1.461-8.96,1.4l-15.336,21.015c-2.088,2.861-1.461,6.873,1.4,8.961L437.039,441.865z"/>
<rect x="427.315" y="406.561" transform="matrix(-0.5894 0.8078 -0.8078 -0.5894 1026.5546 310.0991)" class="st8" width="14.323" height="18.704"/>
<path class="st2" d="M382.039,401.865c2.86,2.088,6.873,1.461,8.961-1.4l15.335-21.016c2.088-2.861,1.461-6.873-1.399-8.96
	l-28.061-20.477c-2.86-2.087-6.873-1.461-8.96,1.4l-15.336,21.015c-2.088,2.861-1.461,6.873,1.4,8.961L382.039,401.865z"/>
<rect x="372.315" y="366.561" transform="matrix(-0.5894 0.8078 -0.8078 -0.5894 906.8226 290.9506)" class="st8" width="14.323" height="18.704"/>
<path class="st2" d="M411.707,411.953c4.009,3.188,9.843,2.523,13.031-1.485l0,0c3.188-4.008,2.522-9.843-1.486-13.031
	l-22.267-17.71c-4.009-3.188-9.843-2.523-13.031,1.485l0,0c-3.188,4.009-2.523,9.843,1.485,13.031L411.707,411.953z"/>
<path class="st2" d="M320.877,355.148c1.957,2.951,5.938,3.756,8.89,1.799l21.677-14.384c2.952-1.958,3.757-5.938,1.799-8.889
	l-19.205-28.945c-1.958-2.951-5.938-3.756-8.889-1.798l-21.679,14.383c-2.951,1.958-3.756,5.938-1.798,8.89L320.877,355.148z"/>
<rect x="320.323" y="320.569" transform="matrix(-0.8332 0.5529 -0.5529 -0.8332 782.7751 423.7493)" class="st8" width="14.322" height="18.703"/>
<path class="st2" d="M356.707,371.953c4.009,3.188,9.843,2.523,13.031-1.485l0,0c3.188-4.008,2.522-9.843-1.486-13.031
	l-22.267-17.71c-4.009-3.188-9.843-2.523-13.031,1.485l0,0c-3.188,4.009-2.523,9.843,1.485,13.031L356.707,371.953z"/>
<path class="st8" d="M566.737,465.938c-2.86-2.088-6.873-1.461-8.961,1.4l-15.335,21.016c-2.088,2.861-1.461,6.873,1.399,8.96
	l28.061,20.477c2.86,2.087,6.873,1.461,8.96-1.4l15.336-21.016c2.088-2.861,1.461-6.873-1.4-8.961L566.737,465.938z"/>
<rect x="562.138" y="482.538" transform="matrix(0.5894 -0.8078 0.8078 0.5894 -163.6249 661.8303)" class="st8" width="14.323" height="18.704"/>
<path class="st2" d="M621.737,505.938c-2.86-2.088-6.873-1.461-8.961,1.4l-15.335,21.016c-2.088,2.861-1.461,6.873,1.399,8.961
	l28.061,20.477c2.86,2.087,6.873,1.461,8.96-1.4l15.336-21.016c2.088-2.861,1.461-6.873-1.4-8.961L621.737,505.938z"/>
<rect x="617.138" y="522.538" transform="matrix(0.5894 -0.8078 0.8078 0.5894 -173.3528 722.6976)" class="st8" width="14.323" height="18.704"/>
<path class="st2" d="M592.069,495.85c-4.009-3.188-9.843-2.523-13.031,1.485l0,0c-3.188,4.009-2.522,9.843,1.486,13.03
	l22.267,17.711c4.009,3.188,9.843,2.523,13.031-1.484l0,0c3.188-4.01,2.523-9.844-1.485-13.031L592.069,495.85z"/>
<path class="st2" d="M682.899,552.655c-1.957-2.951-5.938-3.756-8.89-1.799l-21.677,14.385c-2.952,1.958-3.757,5.938-1.799,8.889
	l19.205,28.945c1.958,2.951,5.938,3.756,8.889,1.798l21.679-14.384c2.951-1.957,3.756-5.938,1.798-8.889L682.899,552.655z"/>
<rect x="669.131" y="568.531" transform="matrix(0.8332 -0.5529 0.5529 0.8332 -206.7407 470.3071)" class="st8" width="14.322" height="18.704"/>
<path class="st2" d="M647.069,535.85c-4.009-3.188-9.843-2.523-13.031,1.485l0,0c-3.188,4.009-2.522,9.843,1.486,13.03
	l22.267,17.711c4.009,3.188,9.843,2.523,13.031-1.484l0,0c3.188-4.01,2.523-9.844-1.485-13.031L647.069,535.85z"/>
<path class="st8" d="M434.911,469.467c2.86-2.088,6.873-1.461,8.961,1.4l15.335,21.016c2.088,2.861,1.461,6.873-1.399,8.961
	l-28.061,20.477c-2.86,2.087-6.873,1.461-8.96-1.4l-15.336-21.016c-2.088-2.861-1.461-6.873,1.4-8.961L434.911,469.467z"/>
<rect x="425.187" y="486.068" transform="matrix(-0.5894 -0.8078 0.8078 -0.5894 286.9923 1136.6971)" class="st8" width="14.323" height="18.704"/>
<path class="st2" d="M379.911,509.467c2.86-2.088,6.873-1.461,8.961,1.4l15.335,21.016c2.088,2.861,1.461,6.873-1.399,8.961
	l-28.061,20.477c-2.86,2.087-6.873,1.461-8.96-1.4l-15.336-21.016c-2.088-2.861-1.461-6.873,1.4-8.961L379.911,509.467z"/>
<rect x="370.187" y="526.067" transform="matrix(-0.5894 -0.8078 0.8078 -0.5894 167.2482 1155.8412)" class="st8" width="14.323" height="18.704"/>
<path class="st2" d="M409.579,499.379c4.009-3.188,9.843-2.523,13.031,1.485l0,0c3.188,4.009,2.522,9.843-1.486,13.03
	l-22.267,17.711c-4.009,3.188-9.843,2.523-13.031-1.484l0,0c-3.188-4.01-2.523-9.844,1.485-13.031L409.579,499.379z"/>
<path class="st2" d="M318.749,556.184c1.957-2.951,5.938-3.756,8.89-1.799l21.677,14.385c2.952,1.958,3.757,5.938,1.799,8.889
	l-19.205,28.945c-1.958,2.951-5.938,3.756-8.889,1.798l-21.679-14.384c-2.951-1.957-3.756-5.938-1.798-8.889L318.749,556.184z"/>
<rect x="318.195" y="572.06" transform="matrix(-0.8332 -0.5529 0.5529 -0.8332 274.9792 1245.7601)" class="st8" width="14.322" height="18.704"/>
<path class="st2" d="M354.579,539.379c4.009-3.188,9.843-2.523,13.031,1.485l0,0c3.188,4.009,2.522,9.843-1.486,13.03
	l-22.267,17.711c-4.009,3.188-9.843,2.523-13.031-1.484l0,0c-3.188-4.01-2.523-9.844,1.485-13.031L354.579,539.379z"/>
<line class="st5" x1="318.047" y1="592.726" x2="681.952" y2="592.726"/>
</svg>
