<?xml version="1.0" encoding="utf-8"?>
<!-- Generator: Adobe Illustrator 16.0.0, SVG Export Plug-In . SVG Version: 6.00 Build 0)  -->
<!DOCTYPE svg PUBLIC "-//W3C//DTD SVG 1.1//EN" "http://www.w3.org/Graphics/SVG/1.1/DTD/svg11.dtd">
<svg version="1.1" id="Layer_2" xmlns="http://www.w3.org/2000/svg" xmlns:xlink="http://www.w3.org/1999/xlink" x="0px" y="0px"
	 width="1000px" height="1000px" viewBox="0 0 1000 1000" style="enable-background:new 0 0 1000 1000;" xml:space="preserve">
<style type="text/css">
<![CDATA[
	.st0{fill:#FFFFFF;stroke:#000000;stroke-width:2;stroke-miterlimit:10;}
	.st1{fill:none;stroke:#010101;stroke-width:5;stroke-miterlimit:10;}
	.st2{font-family:'MyriadPro-Regular';}
	.st3{display:none;enable-background:new    ;}
	.st4{fill:#FFFFFF;stroke:#010101;stroke-width:5;stroke-miterlimit:10;}
	.st5{fill:#FFFFFF;stroke:#000000;stroke-width:4;stroke-miterlimit:10;}
	.st6{font-size:72;}
	.st7{fill:#DDDDDD;stroke:#000000;stroke-width:2;stroke-miterlimit:10;}
	.st8{stroke:#000000;stroke-width:2;stroke-miterlimit:10;}
]]>
</style>
<text transform="matrix(1 0 0 1 461.9832 703.8977)" class="st3 st2 st6">3X</text>
<path class="st4" d="M718.746,322.206c124,0,224.53,85.733,224.53,191.481c0,105.757-100.53,191.479-224.53,191.479
	c-124.005,0-224.53-85.722-224.53-191.479C494.216,407.94,594.741,322.206,718.746,322.206z"/>
<line class="st1" x1="718.746" y1="322.206" x2="12" y2="322.206"/>
<line class="st1" x1="718.746" y1="705.513" x2="12" y2="705.513"/>
<path class="st7" d="M543.688,485.15c0,0,34.688-188.897,253.882-100.815C1016.762,472.417,543.688,485.15,543.688,485.15z"/>
<path class="st5" d="M888.525,567.78c0,56.263-70.984,101.874-158.557,101.874c-87.568,0-158.559-45.611-158.559-101.874
	c0-56.264,70.991-101.874,158.559-101.874C817.541,465.904,888.525,511.516,888.525,567.78z"/>
<path class="st7" d="M641.381,554.461l-18.792-104.977c0,0,81.339-165.173,232.692-30.291l10.078,56.328
	c0,0-112.173-2.837-216.056,72.988C646.654,550.445,644.012,552.426,641.381,554.461z"/>
<path class="st7" d="M824.969,577.895l-189.266-25.142c0,0,101.48-70.85,223.981-78.938l138.688,9.456
	C998.372,483.271,855.611,482.204,824.969,577.895z"/>
<path class="st7" d="M623.238,448.714c0,0-65.634-4.907-77.086,26.138c-11.456,31.048,20.753,89.742,20.753,89.742l72.745-12.954
	L623.238,448.714z"/>
<polygon class="st8" points="740.052,421.248 730.228,460.332 776.135,448.431 "/>
<path class="st0" d="M575.667,448.346c0,0-24.888,36.081,0,50.937l29.863-25.468C605.53,473.815,583.131,480.183,575.667,448.346z"
	/>
</svg>
