<?xml version="1.0" encoding="utf-8"?>
<!-- Generator: Adobe Illustrator 16.0.0, SVG Export Plug-In . SVG Version: 6.00 Build 0)  -->
<!DOCTYPE svg PUBLIC "-//W3C//DTD SVG 1.1//EN" "http://www.w3.org/Graphics/SVG/1.1/DTD/svg11.dtd">
<svg version="1.1" id="Layer_2" xmlns="http://www.w3.org/2000/svg" xmlns:xlink="http://www.w3.org/1999/xlink" x="0px" y="0px"
	 width="1000px" height="1000px" viewBox="0 0 1000 1000" style="enable-background:new 0 0 1000 1000;" xml:space="preserve">
<style type="text/css">
<![CDATA[
	.st0{fill:#FFFFFF;stroke:#010101;stroke-width:7;stroke-miterlimit:10;}
	.st1{display:none;fill:none;stroke:#010101;stroke-width:5;stroke-miterlimit:10;}
	.st2{fill:#FFFFFF;stroke:#010101;stroke-width:6;stroke-miterlimit:10;}
	.st3{font-family:'MyriadPro-Regular';}
	.st4{display:none;enable-background:new    ;}
	.st5{fill:#AFAFB2;stroke:#010101;stroke-width:7;stroke-miterlimit:10;}
	.st6{fill:#FFFFFF;stroke:#010101;stroke-width:4;stroke-miterlimit:10;}
	.st7{font-size:72;}
	.st8{display:none;fill:#FFFFFF;stroke:#010101;stroke-width:5;stroke-miterlimit:10;}
	.st9{stroke:#010101;stroke-width:7;stroke-miterlimit:10;}
	.st10{fill:none;stroke:#010101;stroke-width:6;stroke-miterlimit:10;}
]]>
</style>
<text transform="matrix(1 0 0 1 461.9832 703.8977)" class="st4 st3 st7">3X</text>
<g>
	<line class="st10" x1="510.104" y1="485.481" x2="732.956" y2="385.079"/>
	<line class="st10" x1="489.009" y1="476.652" x2="262.052" y2="385.908"/>
</g>
<line class="st6" x1="281.916" y1="619.621" x2="717.757" y2="619.621"/>
<line class="st6" x1="281.916" y1="286.667" x2="717.757" y2="286.667"/>
<polyline class="st8" points="306.5,396.644 499.421,464.705 697.696,404.615 "/>
<line class="st1" x1="268.086" y1="415.307" x2="513.811" y2="494.14"/>
<line class="st1" x1="737.812" y1="415.307" x2="492.087" y2="494.14"/>
<line class="st6" x1="736.378" y1="300.414" x2="736.378" y2="610.524"/>
<line class="st6" x1="268.086" y1="300.414" x2="268.086" y2="610.524"/>
<path class="st10" d="M573.205,448.359c-3.426,2.5-8.231,1.75-10.732-1.677l-18.366-25.17c-2.5-3.426-1.749-8.231,1.677-10.731
	l33.607-24.524c3.426-2.5,8.231-1.75,10.73,1.677l18.368,25.169c2.5,3.426,1.749,8.231-1.678,10.732L573.205,448.359z"/>
<rect x="567.697" y="406.075" transform="matrix(0.5895 0.8078 -0.8078 0.5895 573.6666 -294.2043)" class="st10" width="17.154" height="22.402"/>
<path class="st2" d="M639.077,400.451c-3.426,2.5-8.231,1.75-10.731-1.677l-18.367-25.17c-2.5-3.426-1.749-8.231,1.677-10.731
	l33.607-24.524c3.426-2.5,8.231-1.75,10.73,1.677l18.368,25.169c2.5,3.426,1.75,8.231-1.678,10.732L639.077,400.451z"/>
<rect x="633.57" y="358.169" transform="matrix(0.5894 0.8078 -0.8078 0.5894 562.0448 -367.088)" class="st10" width="17.153" height="22.401"/>
<path class="st2" d="M603.545,412.534c-4.801,3.819-11.788,3.022-15.607-1.779l0,0c-3.817-4.801-3.021-11.789,1.78-15.606
	l26.668-21.211c4.802-3.819,11.789-3.022,15.607,1.778l0,0c3.819,4.801,3.022,11.789-1.779,15.607L603.545,412.534z"/>
<path class="st2" d="M712.33,344.5c-2.344,3.535-7.112,4.499-10.646,2.154l-25.962-17.228c-3.536-2.345-4.5-7.112-2.155-10.646
	l23.002-34.667c2.345-3.534,7.112-4.499,10.646-2.153l25.964,17.227c3.535,2.345,4.499,7.112,2.153,10.647L712.33,344.5z"/>
<rect x="695.84" y="303.085" transform="matrix(0.8332 0.5529 -0.5529 0.8332 291.2411 -337.0699)" class="st10" width="17.153" height="22.401"/>
<path class="st2" d="M669.417,364.627c-4.801,3.818-11.788,3.022-15.607-1.779l0,0c-3.817-4.801-3.021-11.788,1.78-15.606
	l26.668-21.211c4.802-3.819,11.789-3.022,15.607,1.778l0,0c3.819,4.801,3.022,11.789-1.778,15.607L669.417,364.627z"/>
<path class="st10" d="M429.023,443.334c3.426,2.501,8.231,1.75,10.732-1.676l18.367-25.17c2.5-3.426,1.75-8.232-1.676-10.732
	l-33.607-24.524c-3.426-2.5-8.232-1.75-10.731,1.677l-18.368,25.169c-2.5,3.426-1.75,8.232,1.677,10.732L429.023,443.334z"/>
<rect x="417.377" y="401.052" transform="matrix(-0.5894 0.8078 -0.8078 -0.5894 1010.0498 311.1534)" class="st10" width="17.154" height="22.401"/>
<path class="st2" d="M363.151,395.427c3.426,2.5,8.232,1.75,10.732-1.677l18.366-25.17c2.501-3.426,1.75-8.232-1.676-10.732
	l-33.607-24.524c-3.426-2.5-8.232-1.75-10.731,1.677l-18.367,25.169c-2.501,3.427-1.75,8.232,1.677,10.732L363.151,395.427z"/>
<rect x="351.505" y="353.144" transform="matrix(-0.5895 0.8078 -0.8078 -0.5895 866.6513 288.2328)" class="st10" width="17.154" height="22.401"/>
<path class="st2" d="M398.683,407.51c4.801,3.819,11.789,3.022,15.607-1.779l0,0c3.817-4.801,3.021-11.789-1.78-15.607
	l-26.668-21.211c-4.801-3.819-11.789-3.022-15.607,1.779l0,0c-3.819,4.801-3.022,11.789,1.779,15.607L398.683,407.51z"/>
<path class="st2" d="M289.898,339.476c2.344,3.535,7.112,4.499,10.647,2.154l25.962-17.228c3.536-2.345,4.5-7.112,2.154-10.646
	L305.66,279.09c-2.345-3.534-7.112-4.499-10.646-2.153l-25.964,17.227c-3.535,2.345-4.499,7.112-2.153,10.647L289.898,339.476z"/>
<rect x="289.235" y="298.061" transform="matrix(-0.8332 0.5529 -0.5529 -0.8332 716.9568 402.2803)" class="st10" width="17.153" height="22.401"/>
<path class="st2" d="M332.811,359.603c4.801,3.819,11.789,3.022,15.607-1.779l0,0c3.818-4.801,3.021-11.789-1.78-15.606
	l-26.668-21.211c-4.801-3.819-11.789-3.022-15.607,1.778l0,0c-3.819,4.801-3.022,11.789,1.779,15.607L332.811,359.603z"/>
<path class="st10" d="M579.766,467.771c-3.426-2.501-8.231-1.75-10.732,1.677l-18.366,25.17c-2.5,3.427-1.75,8.232,1.676,10.732
	l33.608,24.524c3.426,2.499,8.231,1.75,10.73-1.677l18.368-25.17c2.5-3.427,1.749-8.232-1.678-10.733L579.766,467.771z"/>
<rect x="574.259" y="487.652" transform="matrix(0.5895 -0.8078 0.8078 0.5895 -163.6927 675.6211)" class="st10" width="17.154" height="22.402"/>
<path class="st2" d="M645.638,515.678c-3.426-2.501-8.231-1.75-10.732,1.677l-18.366,25.17c-2.5,3.427-1.749,8.231,1.677,10.732
	l33.607,24.524c3.426,2.499,8.231,1.75,10.73-1.678l18.368-25.17c2.5-3.427,1.749-8.231-1.678-10.732L645.638,515.678z"/>
<rect x="640.131" y="535.56" transform="matrix(0.5894 -0.8078 0.8078 0.5894 -175.3359 748.5528)" class="st10" width="17.154" height="22.401"/>
<path class="st2" d="M610.106,503.596c-4.802-3.819-11.788-3.022-15.607,1.778l0,0c-3.817,4.802-3.021,11.789,1.78,15.606
	l26.668,21.212c4.802,3.818,11.789,3.022,15.607-1.778l0,0c3.818-4.802,3.022-11.789-1.779-15.606L610.106,503.596z"/>
<path class="st2" d="M718.891,571.629c-2.344-3.534-7.112-4.498-10.647-2.154l-25.961,17.229c-3.536,2.345-4.5,7.111-2.154,10.646
	l23.001,34.667c2.345,3.535,7.112,4.498,10.646,2.153l25.965-17.228c3.534-2.344,4.498-7.11,2.152-10.646L718.891,571.629z"/>
<rect x="702.401" y="590.644" transform="matrix(0.8332 -0.5529 0.5529 0.8332 -214.2042 493.4721)" class="st10" width="17.153" height="22.401"/>
<path class="st2" d="M675.978,551.502c-4.801-3.818-11.788-3.021-15.607,1.779l0,0c-3.817,4.802-3.021,11.789,1.78,15.606
	l26.668,21.212c4.802,3.818,11.789,3.022,15.607-1.778l0,0c3.819-4.802,3.022-11.789-1.778-15.606L675.978,551.502z"/>
<path class="st10" d="M422.882,469.997c3.426-2.5,8.231-1.75,10.732,1.677l18.367,25.17c2.5,3.426,1.75,8.232-1.676,10.732
	l-33.607,24.524c-3.426,2.5-8.232,1.75-10.731-1.677l-18.368-25.17c-2.5-3.427-1.75-8.232,1.677-10.732L422.882,469.997z"/>
<rect x="411.236" y="489.88" transform="matrix(-0.5894 -0.8078 0.8078 -0.5894 262.4713 1135.5618)" class="st10" width="17.154" height="22.4"/>
<path class="st2" d="M357.009,517.905c3.426-2.501,8.232-1.75,10.732,1.678l18.366,25.17c2.501,3.427,1.75,8.231-1.676,10.731
	l-33.607,24.524c-3.426,2.5-8.232,1.75-10.731-1.677l-18.367-25.17c-2.501-3.427-1.75-8.231,1.677-10.732L357.009,517.905z"/>
<rect x="345.363" y="537.786" transform="matrix(-0.5894 -0.8078 0.8078 -0.5894 119.086 1158.4973)" class="st10" width="17.154" height="22.401"/>
<path class="st2" d="M392.542,505.823c4.801-3.818,11.789-3.022,15.607,1.779l0,0c3.817,4.801,3.021,11.788-1.78,15.605
	l-26.668,21.212c-4.801,3.819-11.789,3.022-15.607-1.777l0,0c-3.819-4.803-3.022-11.79,1.779-15.607L392.542,505.823z"/>
<path class="st2" d="M283.757,573.856c2.344-3.534,7.112-4.498,10.647-2.154l25.962,17.229c3.536,2.346,4.5,7.111,2.154,10.646
	l-23.001,34.668c-2.345,3.534-7.112,4.498-10.646,2.152l-25.964-17.227c-3.535-2.344-4.499-7.111-2.153-10.646L283.757,573.856z"/>
<rect x="282.094" y="594.87" transform="matrix(-0.8332 -0.5529 0.5529 -0.8332 197.754 1271.7871)" class="st10" width="17.153" height="22.401"/>
<path class="st2" d="M326.67,553.73c4.801-3.819,11.789-3.022,15.607,1.778l0,0c3.818,4.802,3.021,11.789-1.78,15.606
	l-26.668,21.212c-4.801,3.819-11.789,3.022-15.607-1.777l0,0c-3.819-4.803-3.022-11.79,1.779-15.607L326.67,553.73z"/>
<g>
	<path class="st2" d="M464.683,453.51c4.801,3.819,11.789,3.022,15.607-1.779l0,0c3.817-4.801,3.021-11.789-1.78-15.607
		l-26.668-21.211c-4.801-3.819-11.789-3.022-15.607,1.779l0,0c-3.819,4.801-3.022,11.789,1.779,15.607L464.683,453.51z"/>
</g>
<path class="st2" d="M473.792,477.147c5.079-3.44,6.407-10.347,2.966-15.426l0,0c-3.441-5.077-10.347-6.405-15.425-2.965
	l-28.212,19.111c-5.079,3.44-6.406,10.347-2.966,15.426l0,0c3.44,5.079,10.347,6.407,15.426,2.966L473.792,477.147z"/>
<path class="st2" d="M526.338,447.254c-4.498,4.171-4.763,11.2-0.591,15.697l0,0c4.172,4.497,11.199,4.762,15.697,0.589
	l24.984-23.171c4.498-4.172,4.762-11.199,0.591-15.697l0,0c-4.171-4.499-11.199-4.763-15.697-0.591L526.338,447.254z"/>
<path class="st2" d="M531.353,464.601c-5.951-1.487-11.981,2.131-13.468,8.083l0,0c-1.487,5.951,2.131,11.981,8.083,13.468
	l33.059,8.263c5.951,1.488,11.98-2.131,13.468-8.083l0,0c1.489-5.951-2.131-11.982-8.081-13.47L531.353,464.601z"/>
<g>
	<path class="st5" d="M547.383,506.698c0,4.566-3.702,8.268-8.268,8.268h-78.556c-4.566,0-8.268-3.701-8.268-8.268v-72.353
		c0-4.566,3.702-8.268,8.268-8.268h78.556c4.565,0,8.268,3.702,8.268,8.268V506.698z"/>
	<path class="st0" d="M460.559,426.076"/>
	<path class="st0" d="M412.309,871.357"/>
	<path class="st10" d="M460.559,426.076c0-36.305,17.567-65.682,39.277-65.682"/>
	<path class="st10" d="M538.421,426.076c0-36.305-17.567-65.682-39.277-65.682"/>
	<circle class="st9" cx="499.837" cy="458.876" r="13.974"/>
	<polygon class="st9" points="499.837,458.876 485.863,496.14 513.811,496.14 	"/>
</g>
</svg>
