<?xml version="1.0" encoding="utf-8"?>
<!-- Generator: Adobe Illustrator 16.0.0, SVG Export Plug-In . SVG Version: 6.00 Build 0)  -->
<!DOCTYPE svg PUBLIC "-//W3C//DTD SVG 1.1//EN" "http://www.w3.org/Graphics/SVG/1.1/DTD/svg11.dtd">
<svg version="1.1" id="Layer_1" xmlns="http://www.w3.org/2000/svg" xmlns:xlink="http://www.w3.org/1999/xlink" x="0px" y="0px"
	 width="50px" height="50px" viewBox="0 0 50 50" style="enable-background:new 0 0 50 50;" xml:space="preserve">
<style type="text/css">
<![CDATA[
	.st0{fill:none;stroke:#010101;stroke-miterlimit:10;}
]]>
</style>
<polyline class="st0" points="17.863,9.204 17.468,9.866 1.882,35.933 "/>
<path class="st0" d="M47.473,11.147L33.443,38.949c0,0-1.68,2.139-4.565,0.938"/>
<line class="st0" x1="3.297" y1="38.227" x2="29.675" y2="40.224"/>
<line class="st0" x1="45.935" y1="9.866" x2="19.551" y2="7.964"/>
<path class="st0" d="M20.734,8.049c0,0-2.652-0.736-2.991,1.817"/>
<path class="st0" d="M47.29,12.943c0,0,0.812-2.63-1.73-3.042"/>
<path class="st0" d="M3.948,38.276c0,0-3.134-0.56-1.582-3.155"/>
<polyline class="st0" points="18.966,11.133 18.57,11.795 2.984,37.861 "/>
<path class="st0" d="M48.575,13.076L34.546,40.879c0,0-1.68,2.138-4.565,0.938"/>
<line class="st0" x1="4.399" y1="40.155" x2="30.776" y2="42.152"/>
<line class="st0" x1="47.037" y1="11.795" x2="20.653" y2="9.893"/>
<path class="st0" d="M21.837,9.978c0,0-2.652-0.735-2.991,1.817"/>
<path class="st0" d="M48.393,14.872c0,0,0.811-2.63-1.731-3.042"/>
<path class="st0" d="M5.05,40.205c0,0-3.133-0.559-1.582-3.155"/>
<ellipse class="st0" cx="19.437" cy="34.899" rx="2.676" ry="2.135"/>
</svg>
