<?xml version="1.0" encoding="utf-8"?>
<!-- Generator: Adobe Illustrator 16.0.0, SVG Export Plug-In . SVG Version: 6.00 Build 0)  -->
<!DOCTYPE svg PUBLIC "-//W3C//DTD SVG 1.1//EN" "http://www.w3.org/Graphics/SVG/1.1/DTD/svg11.dtd">
<svg version="1.1" id="Layer_2" xmlns="http://www.w3.org/2000/svg" xmlns:xlink="http://www.w3.org/1999/xlink" x="0px" y="0px"
	 width="1000px" height="1000px" viewBox="0 0 1000 1000" style="enable-background:new 0 0 1000 1000;" xml:space="preserve">
<style type="text/css">
<![CDATA[
	.st0{fill:#FFFFFF;stroke:#010101;stroke-width:7;stroke-miterlimit:10;}
	.st1{display:none;fill:none;stroke:#010101;stroke-width:5;stroke-miterlimit:10;}
	.st2{fill:#FFFFFF;stroke:#010101;stroke-width:6;stroke-miterlimit:10;}
	.st3{font-family:'MyriadPro-Regular';}
	.st4{display:none;enable-background:new    ;}
	.st5{fill:#AFAFB2;stroke:#010101;stroke-width:7;stroke-miterlimit:10;}
	.st6{fill:#FFFFFF;stroke:#010101;stroke-width:4;stroke-miterlimit:10;}
	.st7{font-size:72;}
	.st8{display:none;fill:#FFFFFF;stroke:#010101;stroke-width:5;stroke-miterlimit:10;}
	.st9{stroke:#010101;stroke-width:7;stroke-miterlimit:10;}
	.st10{fill:none;stroke:#010101;stroke-width:6;stroke-miterlimit:10;}
]]>
</style>
<text transform="matrix(1 0 0 1 461.9832 703.8977)" class="st4 st3 st7">3X</text>
<g>
	<line class="st10" x1="510.104" y1="619.124" x2="732.956" y2="518.722"/>
	<line class="st10" x1="489.009" y1="610.295" x2="262.052" y2="519.552"/>
</g>
<line class="st6" x1="281.916" y1="753.265" x2="717.757" y2="753.265"/>
<line class="st6" x1="281.916" y1="420.311" x2="717.757" y2="420.311"/>
<polyline class="st8" points="306.5,396.644 499.421,464.705 697.696,404.615 "/>
<line class="st1" x1="268.086" y1="415.307" x2="513.811" y2="494.14"/>
<line class="st1" x1="737.812" y1="415.307" x2="492.087" y2="494.14"/>
<line class="st6" x1="736.378" y1="434.058" x2="736.378" y2="744.167"/>
<line class="st6" x1="268.086" y1="434.058" x2="268.086" y2="744.167"/>
<path class="st10" d="M573.205,582.002c-3.426,2.501-8.231,1.749-10.732-1.677l-18.366-25.17c-2.5-3.426-1.749-8.231,1.677-10.731
	L579.39,519.9c3.426-2.5,8.231-1.75,10.73,1.678l18.368,25.169c2.5,3.427,1.749,8.231-1.678,10.731L573.205,582.002z"/>
<rect x="567.697" y="539.718" transform="matrix(0.5895 0.8078 -0.8078 0.5895 681.6108 -239.339)" class="st10" width="17.153" height="22.402"/>
<path class="st2" d="M639.077,534.095c-3.426,2.5-8.231,1.75-10.731-1.677l-18.367-25.17c-2.5-3.426-1.749-8.231,1.677-10.731
	l33.607-24.524c3.426-2.5,8.231-1.75,10.73,1.677l18.368,25.169c2.5,3.427,1.75,8.231-1.678,10.732L639.077,534.095z"/>
<rect x="633.569" y="491.813" transform="matrix(0.5894 0.8078 -0.8078 0.5894 670.0201 -312.2152)" class="st10" width="17.154" height="22.401"/>
<path class="st2" d="M603.545,546.177c-4.801,3.819-11.788,3.023-15.607-1.778l0,0c-3.817-4.801-3.021-11.788,1.78-15.606
	l26.668-21.212c4.802-3.818,11.789-3.021,15.607,1.779l0,0c3.819,4.801,3.022,11.788-1.779,15.606L603.545,546.177z"/>
<path class="st2" d="M712.33,478.143c-2.344,3.535-7.112,4.499-10.646,2.154l-25.962-17.228c-3.536-2.345-4.5-7.112-2.155-10.646
	l23.002-34.667c2.345-3.534,7.112-4.499,10.646-2.153l25.964,17.227c3.535,2.345,4.499,7.112,2.153,10.647L712.33,478.143z"/>
<rect x="695.84" y="436.729" transform="matrix(0.8332 0.5529 -0.5529 0.8332 365.1343 -314.7834)" class="st10" width="17.153" height="22.401"/>
<path class="st2" d="M669.417,498.271c-4.801,3.818-11.788,3.022-15.607-1.779l0,0c-3.817-4.801-3.021-11.788,1.78-15.606
	l26.668-21.211c4.802-3.819,11.789-3.022,15.607,1.778l0,0c3.819,4.801,3.022,11.789-1.778,15.607L669.417,498.271z"/>
<path class="st10" d="M429.023,576.978c3.426,2.501,8.231,1.75,10.732-1.676l18.367-25.17c2.5-3.427,1.75-8.232-1.676-10.732
	l-33.607-24.524c-3.426-2.5-8.232-1.749-10.731,1.677l-18.368,25.17c-2.5,3.426-1.75,8.232,1.677,10.732L429.023,576.978z"/>
<rect x="417.377" y="534.695" transform="matrix(-0.5894 0.8078 -0.8078 -0.5894 1118.009 523.5591)" class="st10" width="17.154" height="22.401"/>
<path class="st2" d="M363.151,529.072c3.426,2.5,8.232,1.749,10.732-1.678l18.366-25.169c2.501-3.427,1.75-8.232-1.676-10.732
	l-33.607-24.524c-3.426-2.5-8.232-1.75-10.731,1.677l-18.367,25.169c-2.501,3.427-1.75,8.232,1.677,10.732L363.151,529.072z"/>
<rect x="351.505" y="486.788" transform="matrix(-0.5895 0.8078 -0.8078 -0.5895 974.6091 500.6526)" class="st10" width="17.154" height="22.401"/>
<path class="st2" d="M398.683,541.154c4.801,3.818,11.789,3.022,15.607-1.779l0,0c3.817-4.801,3.021-11.788-1.78-15.606
	l-26.668-21.211c-4.801-3.819-11.789-3.022-15.607,1.778l0,0c-3.819,4.801-3.022,11.789,1.779,15.607L398.683,541.154z"/>
<path class="st2" d="M289.898,473.119c2.344,3.535,7.112,4.499,10.647,2.154l25.962-17.228c3.536-2.345,4.5-7.112,2.154-10.646
	l-23.001-34.667c-2.345-3.534-7.112-4.499-10.646-2.153l-25.964,17.227c-3.535,2.345-4.499,7.112-2.153,10.647L289.898,473.119z"/>
<rect x="289.235" y="431.705" transform="matrix(-0.8332 0.5529 -0.5529 -0.8332 790.8517 647.2798)" class="st10" width="17.153" height="22.401"/>
<path class="st2" d="M332.811,493.246c4.801,3.819,11.789,3.022,15.607-1.779l0,0c3.818-4.801,3.021-11.789-1.78-15.606
	L319.97,454.65c-4.801-3.819-11.789-3.022-15.607,1.778l0,0c-3.819,4.801-3.022,11.789,1.779,15.607L332.811,493.246z"/>
<path class="st10" d="M579.766,601.414c-3.426-2.501-8.231-1.75-10.732,1.677l-18.366,25.17c-2.5,3.427-1.75,8.232,1.676,10.732
	l33.608,24.524c3.426,2.499,8.231,1.75,10.73-1.677l18.368-25.17c2.5-3.427,1.749-8.232-1.678-10.732L579.766,601.414z"/>
<rect x="574.259" y="621.296" transform="matrix(0.5895 -0.8078 0.8078 0.5895 -271.6525 730.4742)" class="st10" width="17.153" height="22.402"/>
<path class="st2" d="M645.638,649.322c-3.426-2.501-8.231-1.75-10.732,1.677l-18.366,25.17c-2.5,3.427-1.749,8.231,1.677,10.732
	l33.607,24.524c3.426,2.499,8.231,1.75,10.73-1.678l18.368-25.17c2.5-3.427,1.749-8.231-1.678-10.732L645.638,649.322z"/>
<rect x="640.131" y="669.203" transform="matrix(0.5894 -0.8078 0.8078 0.5894 -283.2987 803.4269)" class="st10" width="17.154" height="22.401"/>
<path class="st2" d="M610.106,637.24c-4.802-3.819-11.788-3.022-15.607,1.778l0,0c-3.817,4.802-3.021,11.789,1.78,15.606
	l26.668,21.212c4.802,3.818,11.789,3.022,15.607-1.778l0,0c3.818-4.802,3.022-11.789-1.779-15.606L610.106,637.24z"/>
<path class="st2" d="M718.891,705.273c-2.344-3.534-7.112-4.498-10.647-2.154l-25.961,17.229c-3.536,2.345-4.5,7.111-2.154,10.646
	l23.001,34.667c2.345,3.535,7.112,4.498,10.646,2.153l25.965-17.228c3.534-2.344,4.498-7.11,2.152-10.646L718.891,705.273z"/>
<rect x="702.401" y="724.287" transform="matrix(0.8332 -0.5529 0.5529 0.8332 -288.0973 515.7586)" class="st10" width="17.153" height="22.401"/>
<path class="st2" d="M675.978,685.146c-4.801-3.818-11.788-3.021-15.607,1.779l0,0c-3.817,4.802-3.021,11.789,1.78,15.606
	l26.668,21.212c4.802,3.818,11.789,3.022,15.607-1.778l0,0c3.819-4.802,3.022-11.789-1.778-15.606L675.978,685.146z"/>
<path class="st10" d="M422.882,603.641c3.426-2.501,8.231-1.749,10.732,1.677l18.367,25.17c2.5,3.427,1.75,8.232-1.676,10.732
	l-33.607,24.524c-3.426,2.5-8.232,1.75-10.731-1.677l-18.368-25.17c-2.5-3.427-1.75-8.232,1.677-10.732L422.882,603.641z"/>
<rect x="411.236" y="623.523" transform="matrix(-0.5894 -0.8078 0.8078 -0.5894 154.5103 1347.9773)" class="st10" width="17.154" height="22.4"/>
<path class="st2" d="M357.009,651.548c3.426-2.501,8.232-1.75,10.732,1.678l18.366,25.17c2.501,3.427,1.75,8.231-1.676,10.731
	l-33.607,24.524c-3.426,2.5-8.232,1.75-10.731-1.677l-18.367-25.17c-2.501-3.427-1.75-8.231,1.677-10.732L357.009,651.548z"/>
<rect x="345.363" y="671.43" transform="matrix(-0.5894 -0.8078 0.8078 -0.5894 11.1268 1370.9153)" class="st10" width="17.154" height="22.401"/>
<path class="st2" d="M392.542,639.466c4.801-3.818,11.789-3.022,15.607,1.779l0,0c3.817,4.801,3.021,11.788-1.78,15.605
	l-26.668,21.212c-4.801,3.819-11.789,3.022-15.607-1.777l0,0c-3.819-4.803-3.022-11.79,1.779-15.607L392.542,639.466z"/>
<path class="st2" d="M283.757,707.499c2.344-3.534,7.112-4.498,10.647-2.154l25.962,17.229c3.536,2.346,4.5,7.111,2.154,10.646
	l-23.001,34.668c-2.345,3.534-7.112,4.498-10.646,2.152l-25.964-17.227c-3.535-2.344-4.499-7.111-2.153-10.646L283.757,707.499z"/>
<rect x="282.094" y="728.514" transform="matrix(-0.8332 -0.5529 0.5529 -0.8332 123.8591 1516.7866)" class="st10" width="17.153" height="22.401"/>
<path class="st2" d="M326.67,687.373c4.801-3.819,11.789-3.022,15.607,1.778l0,0c3.818,4.802,3.021,11.789-1.78,15.606
	l-26.668,21.212c-4.801,3.819-11.789,3.022-15.607-1.777l0,0c-3.819-4.803-3.022-11.79,1.779-15.607L326.67,687.373z"/>
<g>
	<path class="st2" d="M464.683,587.154c4.801,3.818,11.789,3.022,15.607-1.779l0,0c3.817-4.801,3.021-11.788-1.78-15.606
		l-26.668-21.212c-4.801-3.818-11.789-3.021-15.607,1.779l0,0c-3.819,4.801-3.022,11.789,1.779,15.607L464.683,587.154z"/>
</g>
<path class="st2" d="M473.792,610.79c5.079-3.44,6.407-10.347,2.966-15.426l0,0c-3.441-5.077-10.347-6.405-15.425-2.965
	l-28.212,19.111c-5.079,3.44-6.406,10.347-2.966,15.426l0,0c3.44,5.079,10.347,6.407,15.426,2.966L473.792,610.79z"/>
<path class="st2" d="M526.338,580.898c-4.498,4.172-4.763,11.199-0.591,15.697l0,0c4.172,4.496,11.199,4.762,15.697,0.59
	l24.984-23.172c4.498-4.172,4.762-11.198,0.591-15.697l0,0c-4.171-4.498-11.199-4.762-15.697-0.591L526.338,580.898z"/>
<path class="st2" d="M531.353,598.244c-5.951-1.487-11.981,2.132-13.468,8.083l0,0c-1.487,5.951,2.131,11.98,8.083,13.469
	l33.059,8.263c5.951,1.487,11.98-2.131,13.468-8.083l0,0c1.489-5.951-2.131-11.981-8.081-13.469L531.353,598.244z"/>
<g>
	<path class="st5" d="M547.383,640.341c0,4.566-3.702,8.268-8.268,8.268h-78.556c-4.566,0-8.268-3.701-8.268-8.268v-72.354
		c0-4.566,3.702-8.268,8.268-8.268h78.556c4.565,0,8.268,3.701,8.268,8.268V640.341z"/>
	<path class="st0" d="M460.559,559.72"/>
	<path class="st0" d="M412.309,1005"/>
	<path class="st10" d="M460.559,559.72c0-36.305,17.567-65.682,39.277-65.682"/>
	<path class="st10" d="M538.421,559.72c0-36.305-17.567-65.682-39.277-65.682"/>
	<circle class="st9" cx="499.837" cy="592.519" r="13.974"/>
	<polygon class="st9" points="499.837,592.519 485.863,629.784 513.811,629.784 	"/>
</g>
</svg>
