<?xml version="1.0" encoding="utf-8"?>
<!-- Generator: Adobe Illustrator 16.0.0, SVG Export Plug-In . SVG Version: 6.00 Build 0)  -->
<!DOCTYPE svg PUBLIC "-//W3C//DTD SVG 1.1//EN" "http://www.w3.org/Graphics/SVG/1.1/DTD/svg11.dtd">
<svg version="1.1" xmlns="http://www.w3.org/2000/svg" xmlns:xlink="http://www.w3.org/1999/xlink" x="0px" y="0px" width="1000px"
	 height="1000px" viewBox="0 0 1000 1000" enable-background="new 0 0 1000 1000" xml:space="preserve">
<g id="Layer_1" display="none">
	<g display="inline">
		<g id="Layer_3">
			<path fill="#DDDDDD" stroke="#000000" stroke-miterlimit="10" d="M500,153.169c167.092,0,302.543,135.452,302.543,302.542
				c0,29.068-4.101,57.182-11.754,83.789c-4.146,14.412-9.335,28.387-15.479,41.829C727.601,685.718,622.271,758.252,500,758.253
				c-129.085,0-239.288-80.846-282.741-194.661c-3.007-7.877-5.693-15.912-8.047-24.089c-7.652-26.608-11.754-54.724-11.754-83.792
				C197.458,288.621,332.911,153.169,500,153.169z"/>
		</g>
		<g display="none">
			
				<line display="inline" fill="none" stroke="#000000" stroke-width="3" stroke-miterlimit="10" x1="770.5" y1="578.5" x2="223.421" y2="578.5"/>
		</g>
		<g display="none">
			
				<line display="inline" fill="none" stroke="#000000" stroke-width="3" stroke-miterlimit="10" x1="802.51" y1="459.527" x2="197.49" y2="459.527"/>
		</g>
		<g>
			<path d="M455.942,417.769l-14.328,37.872h-4.824l-11.95-31.032l-11.952,31.032h-4.824l-14.256-37.872h4.896l11.881,32.184
				l12.168-32.184h4.393l12.096,32.184l12.024-32.184H455.942z"/>
		</g>
		<g>
			<path d="M391.214,417.839l-14.328,37.872h-4.824l-11.952-31.032l-11.952,31.032h-4.823l-14.257-37.872h4.896l11.88,32.184
				l12.168-32.184h4.392l12.098,32.184l12.022-32.184H391.214z"/>
		</g>
		<g>
			<path d="M326.214,417.839l-14.328,37.872h-4.824l-11.952-31.032l-11.952,31.032h-4.824l-14.256-37.872h4.896l11.88,32.184
				l12.168-32.184h4.392l12.098,32.184l12.022-32.184H326.214z"/>
		</g>
		<g>
			<path d="M456.432,454.919c-0.745-0.769-1.116-1.703-1.116-2.81c0-1.104,0.371-2.025,1.116-2.771
				c0.744-0.744,1.644-1.116,2.7-1.116c1.055,0,1.968,0.372,2.734,1.116c0.769,0.745,1.152,1.668,1.152,2.771
				c0,1.105-0.385,2.041-1.152,2.81c-0.769,0.769-1.681,1.15-2.734,1.15C458.075,456.071,457.177,455.688,456.432,454.919z"/>
		</g>
		<g>
			<path d="M520.392,435.406c0.646-1.485,1.451-2.759,2.412-3.814c0.959-1.057,2.207-2.255,3.743-3.602
				c2.063-1.821,3.588-3.42,4.57-4.788c0.983-1.366,1.478-3.034,1.478-5.002c0-2.641-1.032-4.765-3.097-6.372
				c-2.063-1.608-4.896-2.412-8.495-2.412c-5.952,0-10.537,1.942-13.752,5.832l-3.816-2.88c4.08-4.991,10.056-7.488,17.928-7.488
				c5.041,0,9.063,1.128,12.063,3.384c3,2.257,4.5,5.305,4.5,9.146c0,1.969-0.324,3.706-0.974,5.22
				c-0.646,1.512-1.438,2.797-2.376,3.852c-0.936,1.056-2.172,2.28-3.708,3.672c-2.063,1.872-3.601,3.541-4.606,5.004
				c-1.008,1.465-1.514,3.276-1.514,5.438h-5.326C519.422,438.622,519.744,436.896,520.392,435.406z M519.422,454.953
				c-0.722-0.742-1.08-1.618-1.08-2.628c0-1.056,0.358-1.932,1.08-2.628c0.721-0.693,1.605-1.044,2.663-1.044
				c1.104,0,2.017,0.351,2.735,1.044c0.721,0.697,1.08,1.573,1.08,2.628c0,1.01-0.373,1.886-1.116,2.628
				c-0.745,0.745-1.646,1.116-2.699,1.116C521.027,456.071,520.14,455.698,519.422,454.953z"/>
		</g>
		<g>
			<path d="M561.892,435.406c0.646-1.485,1.451-2.759,2.412-3.814c0.959-1.057,2.207-2.255,3.743-3.602
				c2.063-1.821,3.588-3.42,4.57-4.788c0.983-1.366,1.478-3.034,1.478-5.002c0-2.641-1.032-4.765-3.097-6.372
				c-2.063-1.608-4.896-2.412-8.495-2.412c-5.952,0-10.537,1.942-13.752,5.832l-3.816-2.88c4.08-4.991,10.056-7.488,17.928-7.488
				c5.041,0,9.063,1.128,12.063,3.384c3,2.257,4.5,5.305,4.5,9.146c0,1.969-0.324,3.706-0.974,5.22
				c-0.646,1.512-1.438,2.797-2.376,3.852c-0.936,1.056-2.172,2.28-3.708,3.672c-2.063,1.872-3.601,3.541-4.606,5.004
				c-1.008,1.465-1.514,3.276-1.514,5.438h-5.326C560.922,438.622,561.244,436.896,561.892,435.406z M560.922,454.953
				c-0.722-0.742-1.08-1.618-1.08-2.628c0-1.056,0.358-1.932,1.08-2.628c0.721-0.693,1.605-1.044,2.663-1.044
				c1.104,0,2.017,0.351,2.735,1.044c0.721,0.697,1.08,1.573,1.08,2.628c0,1.01-0.373,1.886-1.116,2.628
				c-0.745,0.745-1.646,1.116-2.699,1.116C562.527,456.071,561.64,455.698,560.922,454.953z"/>
		</g>
		<g>
			<path d="M482.392,435.406c0.648-1.485,1.451-2.759,2.412-3.814c0.959-1.057,2.207-2.255,3.744-3.602
				c2.063-1.821,3.588-3.42,4.57-4.788c0.983-1.366,1.478-3.034,1.478-5.002c0-2.641-1.033-4.765-3.097-6.372
				c-2.064-1.608-4.896-2.412-8.495-2.412c-5.952,0-10.537,1.942-13.753,5.832l-3.815-2.88c4.079-4.991,10.055-7.488,17.928-7.488
				c5.04,0,9.062,1.128,12.062,3.384c3,2.257,4.5,5.305,4.5,9.146c0,1.969-0.324,3.706-0.974,5.22
				c-0.646,1.512-1.438,2.797-2.376,3.852c-0.936,1.056-2.172,2.28-3.708,3.672c-2.063,1.872-3.6,3.541-4.606,5.004
				c-1.009,1.465-1.514,3.276-1.514,5.438h-5.327C481.422,438.622,481.744,436.896,482.392,435.406z M481.422,454.953
				c-0.722-0.742-1.08-1.618-1.08-2.628c0-1.056,0.358-1.932,1.08-2.628c0.72-0.693,1.606-1.044,2.662-1.044
				c1.104,0,2.018,0.351,2.736,1.044c0.721,0.697,1.08,1.573,1.08,2.628c0,1.01-0.372,1.886-1.116,2.628
				c-0.745,0.745-1.645,1.116-2.7,1.116C483.029,456.07,482.14,455.698,481.422,454.953z"/>
		</g>
		<g>
			<path d="M592.431,454.919c-0.744-0.769-1.115-1.703-1.115-2.81c0-1.104,0.371-2.025,1.115-2.771
				c0.744-0.744,1.645-1.116,2.7-1.116c1.055,0,1.968,0.372,2.734,1.116c0.769,0.745,1.151,1.668,1.151,2.771
				c0,1.105-0.385,2.041-1.151,2.81c-0.769,0.769-1.681,1.15-2.734,1.15C594.076,456.071,593.177,455.688,592.431,454.919z"/>
		</g>
		<g>
			<path d="M613.279,453.621c-2.951-1.631-5.268-3.924-6.947-6.876c-1.681-2.95-2.52-6.273-2.52-9.972
				c0-3.696,0.839-7.008,2.52-9.936c1.682-2.929,3.996-5.208,6.947-6.84c2.953-1.631,6.301-2.448,10.045-2.448
				c3.266,0,6.182,0.637,8.748,1.908c2.566,1.271,4.596,3.132,6.084,5.578l-3.814,2.594c-1.248-1.872-2.832-3.276-4.752-4.214
				c-1.922-0.936-4.01-1.402-6.266-1.402c-2.734,0-5.197,0.611-7.381,1.836c-2.184,1.224-3.887,2.964-5.111,5.22
				c-1.225,2.257-1.836,4.824-1.836,7.704c0,2.928,0.611,5.508,1.836,7.74c1.227,2.23,2.93,3.96,5.111,5.184
				c2.186,1.226,4.646,1.836,7.381,1.836c2.256,0,4.344-0.456,6.266-1.368c1.92-0.909,3.504-2.304,4.752-4.176l3.814,2.592
				c-1.488,2.448-3.526,4.311-6.12,5.58c-2.593,1.272-5.497,1.908-8.712,1.908C619.58,456.071,616.232,455.256,613.279,453.621z"/>
		</g>
		<g>
			<path d="M656.279,453.621c-2.951-1.631-5.268-3.924-6.947-6.876c-1.681-2.95-2.52-6.273-2.52-9.972
				c0-3.696,0.839-7.008,2.52-9.936c1.682-2.929,3.996-5.208,6.947-6.84c2.953-1.631,6.301-2.448,10.045-2.448
				c3.266,0,6.182,0.637,8.748,1.908c2.566,1.271,4.596,3.132,6.084,5.578l-3.814,2.594c-1.248-1.872-2.832-3.276-4.752-4.214
				c-1.922-0.936-4.01-1.402-6.266-1.402c-2.734,0-5.197,0.611-7.381,1.836c-2.184,1.224-3.887,2.964-5.111,5.22
				c-1.225,2.257-1.836,4.824-1.836,7.704c0,2.928,0.611,5.508,1.836,7.74c1.227,2.23,2.93,3.96,5.111,5.184
				c2.186,1.226,4.646,1.836,7.381,1.836c2.256,0,4.344-0.456,6.266-1.368c1.92-0.909,3.504-2.304,4.752-4.176l3.814,2.592
				c-1.488,2.448-3.526,4.311-6.12,5.58c-2.593,1.272-5.497,1.908-8.712,1.908C662.58,456.071,659.232,455.256,656.279,453.621z"/>
		</g>
		<g>
			<path d="M698.279,453.621c-2.951-1.631-5.268-3.924-6.947-6.876c-1.681-2.95-2.52-6.273-2.52-9.972
				c0-3.696,0.839-7.008,2.52-9.936c1.682-2.929,3.996-5.208,6.947-6.84c2.953-1.631,6.301-2.448,10.045-2.448
				c3.266,0,6.182,0.637,8.748,1.908c2.566,1.271,4.596,3.132,6.084,5.578l-3.814,2.594c-1.248-1.872-2.832-3.276-4.752-4.214
				c-1.922-0.936-4.01-1.402-6.266-1.402c-2.734,0-5.197,0.611-7.381,1.836c-2.184,1.224-3.887,2.964-5.111,5.22
				c-1.225,2.257-1.836,4.824-1.836,7.704c0,2.928,0.611,5.508,1.836,7.74c1.227,2.23,2.93,3.96,5.111,5.184
				c2.186,1.226,4.646,1.836,7.381,1.836c2.256,0,4.344-0.456,6.266-1.368c1.92-0.909,3.504-2.304,4.752-4.176l3.814,2.592
				c-1.488,2.448-3.526,4.311-6.12,5.58c-2.593,1.272-5.497,1.908-8.712,1.908C704.58,456.071,701.232,455.256,698.279,453.621z"/>
		</g>
	</g>
	<g display="inline">
		<path d="M250.5,396.779h4.752v67.393H250.5V396.779z"/>
	</g>
	<div  class="typewriter">
		
			<text  transform="matrix(1 0 0 1 264.0769 578.5002)" startOffset="0" font-size="72" font-family="&apos;Montserrat-Regular&apos;">
			www.???.com</text>
	</div>
</g>
<g id="Layer_2">
	
		<line display="none" fill="none" stroke="#FF8080" stroke-width="4" stroke-miterlimit="10" x1="369.481" y1="541.851" x2="559.519" y2="543.192"/>
	
		<line display="none" fill="none" stroke="#FF8080" stroke-width="4" stroke-miterlimit="10" x1="403.5" y1="452.5" x2="403.5" y2="514.5"/>
	
		<line display="none" fill="none" stroke="#FF8080" stroke-width="4" stroke-miterlimit="10" x1="534.5" y1="514.021" x2="534.5" y2="453.5"/>
	<path display="none" fill="none" stroke="#FF8080" stroke-width="4" stroke-miterlimit="10" d="M424.18,495.167
		c0-12.897,13.865-23.333,31-23.333"/>
	<path display="none" fill="none" stroke="#FF8080" stroke-width="4" stroke-miterlimit="10" d="M486.18,495.167
		c0-12.897-13.865-23.333-31-23.333"/>
	
		<line display="none" fill="none" stroke="#FF8080" stroke-width="4" stroke-miterlimit="10" x1="424.18" y1="495.167" x2="424.18" y2="529.834"/>
	
		<line display="none" fill="none" stroke="#FF8080" stroke-width="4" stroke-miterlimit="10" x1="486.18" y1="495.167" x2="486.18" y2="529.834"/>
	
		<line display="none" fill="none" stroke="#FF8080" stroke-width="4" stroke-miterlimit="10" x1="254.5" y1="430" x2="369.5" y2="430"/>
	
		<line display="none" fill="none" stroke="#FF8080" stroke-width="4" stroke-miterlimit="10" x1="139.5" y1="430" x2="254.5" y2="430"/>
	<path display="none" fill="none" stroke="#FF8080" stroke-width="4" stroke-miterlimit="10" d="M462.096,443.602
		c0,0-5.157-33.081-30.551-32.075"/>
	
		<line display="none" fill="none" stroke="#FF8080" stroke-width="4" stroke-miterlimit="10" x1="404.811" y1="446.845" x2="404.811" y2="473.5"/>
	
		<line display="none" fill="none" stroke="#FF8080" stroke-width="4" stroke-miterlimit="10" x1="462.096" y1="443.602" x2="462.096" y2="473.5"/>
	
		<line display="none" fill="none" stroke="#FF8080" stroke-width="4" stroke-miterlimit="10" x1="469.5" y1="450.778" x2="469.5" y2="495"/>
	
		<image display="none" overflow="visible" width="114" height="15" xlink:href="CF6793D.jpg"  transform="matrix(0.9999 0 0 0.9999 197.5066 537.0002)">
	</image>
	<path display="none" fill="none" stroke="#FF8080" stroke-miterlimit="10" d="M233.25,532.499
		c-17.5,11.749-34.743,4.001-34.743,4.001v-5.75"/>
	<path display="none" fill="none" stroke="#FF8080" stroke-miterlimit="10" d="M299.507,505.75v5.75c0,0,17.243,7.748,34.743-4.001"
		/>
	<path display="none" fill="none" stroke="#FF8080" stroke-miterlimit="10" d="M198.507,531.25c0,0,18.493,5.875,34.743-3.5"/>
	<line display="none" fill="none" stroke="#8383FC" stroke-miterlimit="10" x1="232.475" y1="519.24" x2="232.763" y2="525.473"/>
	<line display="none" fill="none" stroke="#8383FC" stroke-miterlimit="10" x1="232.416" y1="517.973" x2="232.475" y2="519.24"/>
</g>
<g id="paw1">
	<circle fill-rule="evenodd" clip-rule="evenodd" fill="#8383FC" cx="625.03" cy="491.914" r="103.495"/>
	
		<line fill="#FFFFFF" stroke="#FFFFFF" stroke-width="10" stroke-miterlimit="10" x1="564.369" y1="491.914" x2="685.691" y2="491.914"/>
	
		<line fill="#FFFFFF" stroke="#FFFFFF" stroke-width="10" stroke-miterlimit="10" x1="625.85" y1="552.575" x2="625.382" y2="431.254"/>
</g>
<g id="Layer_7">
	<path fill-rule="evenodd" clip-rule="evenodd" fill="none" stroke="#231F20" stroke-width="5" stroke-miterlimit="10" d="
		M484.081,279.575l-187.987,86c0,0-22,18,0,46s182.931,170,182.931,170"/>
	<path fill-rule="evenodd" clip-rule="evenodd" fill="none" stroke="#231F20" stroke-width="5" stroke-miterlimit="10" d="
		M484.137,279.575c0,0,14.957-16,46.957,17s150.813,157,150.813,157"/>
	<path fill-rule="evenodd" clip-rule="evenodd" fill="#231F20" d="M386.034,356.857c0,0,1.748-20.539,21.278-12.734
		c0,0,9.747-34.052,34.965-17.995c0,0,14.427-19.744,28.403,2.7l-75.927,36.896C394.755,365.723,383.769,364.401,386.034,356.857z"
		/>
	
		<path display="none" fill-rule="evenodd" clip-rule="evenodd" fill="none" stroke="#231F20" stroke-width="2" stroke-miterlimit="10" d="
		M227,193c0,0,1-20,19-13.5c0,0,5.5-25,29-16.5c0,0,4.5-20,21-8.5"/>
	
		<line display="none" fill="none" stroke="#231F20" stroke-width="2" stroke-miterlimit="10" x1="237" y1="199.5" x2="301.5" y2="163.5"/>
	<path fill="none" stroke="#231F20" stroke-width="4" stroke-miterlimit="10" d="M319.251,389.367
		C378.5,359.5,438.5,330.5,498.243,301.465"/>
	<path fill="none" stroke="#231F20" stroke-width="4" stroke-miterlimit="10" d="M319.569,387.681
		C373.5,436.5,426.5,485.5,480.808,534.877"/>
	
		<line fill="none" stroke="#231F20" stroke-width="4" stroke-miterlimit="10" x1="498.243" y1="301.465" x2="640.094" y2="437.575"/>
	<g id="paw4_1_">
		<path fill="#231F20" d="M373.583,407.204c0.036-0.425,0.073-0.852,0.109-1.278c0.021-0.236,0.029-0.546,0.1-0.722
			c0.033-0.241,0.066-0.482,0.1-0.722c0.012,0.001,0.023,0.002,0.037,0.003c0.006-0.069,0.012-0.138,0.018-0.208
			c0.012,0,0.024,0.002,0.037,0.003c0.005-0.057,0.01-0.115,0.015-0.171c0.012,0,0.025,0.002,0.037,0.003
			c0.004-0.047,0.008-0.093,0.012-0.139c0.012,0.001,0.025,0.002,0.037,0.003c0.004-0.046,0.008-0.092,0.012-0.139
			c0.012,0.001,0.025,0.002,0.036,0.003c0.004-0.045,0.008-0.092,0.012-0.138c0.203-0.415,0.373-0.91,0.565-1.344
			c0.11-0.42,0.222-0.84,0.332-1.259c0.158-0.972,0.316-1.945,0.473-2.917c0.012,0.001,0.025,0.002,0.038,0.003
			c0.009-0.104,0.018-0.208,0.026-0.312c0.122-0.303,0.151-0.724,0.274-1.02c0.023-0.126,0.046-0.251,0.07-0.377
			c0.012,0.001,0.024,0.002,0.037,0.003c0.021-0.091,0.041-0.182,0.061-0.273c0.013,0.001,0.025,0.002,0.038,0.003
			c0.004-0.046,0.008-0.092,0.012-0.138c0.012,0.001,0.025,0.002,0.038,0.003c0.002-0.034,0.006-0.069,0.009-0.104
			c0.011,0.001,0.024,0.002,0.036,0.003c0.003-0.035,0.006-0.069,0.009-0.104c0.012,0.001,0.025,0.002,0.037,0.003
			c0.003-0.034,0.006-0.069,0.009-0.103c0.012,0.001,0.024,0.002,0.037,0.003c0.019-0.069,0.036-0.137,0.054-0.206
			c0.013,0.001,0.026,0.002,0.038,0.003c0.017-0.045,0.032-0.09,0.049-0.135c0.012,0,0.024,0.001,0.037,0.003
			c0.003-0.034,0.006-0.07,0.009-0.104c0.013,0.001,0.025,0.002,0.037,0.003c0.017-0.045,0.033-0.09,0.05-0.135
			c0.012,0.001,0.025,0.002,0.037,0.003c0.002-0.023,0.004-0.046,0.006-0.07c0.026-0.009,0.052-0.018,0.077-0.027
			c0.031-0.067,0.062-0.134,0.093-0.201c0.025-0.01,0.051-0.02,0.077-0.028c0.002-0.024,0.004-0.046,0.006-0.069
			c0.039-0.02,0.078-0.041,0.117-0.06c0.002-0.023,0.004-0.046,0.006-0.07c0.026-0.008,0.052-0.018,0.077-0.028
			c0.002-0.023,0.004-0.046,0.006-0.069c0.053-0.03,0.105-0.061,0.158-0.091c0.002-0.023,0.004-0.047,0.006-0.069
			c0.133-0.093,0.266-0.187,0.398-0.279c0.002-0.023,0.004-0.046,0.006-0.069c0.026-0.01,0.051-0.02,0.078-0.029
			c0.041-0.043,0.081-0.085,0.122-0.128c0.025,0.002,0.05,0.004,0.075,0.006c0.108-0.096,0.216-0.19,0.324-0.285
			c0.038-0.009,0.077-0.017,0.114-0.025c0.028-0.033,0.056-0.066,0.083-0.097c0.024,0.002,0.049,0.004,0.074,0.006
			c0.015-0.022,0.029-0.045,0.044-0.067c0.038-0.008,0.075-0.017,0.114-0.025c0-0.011,0.001-0.022,0.002-0.034
			c0.025,0.002,0.05,0.004,0.075,0.007c0.014-0.022,0.029-0.045,0.042-0.067c0.025,0.002,0.05,0.004,0.075,0.006
			c0.014-0.021,0.028-0.044,0.043-0.065c0.076-0.017,0.152-0.034,0.229-0.051c0.001-0.012,0.002-0.023,0.003-0.034
			c0.024,0.002,0.049,0.004,0.073,0.006c0.001-0.011,0.002-0.023,0.003-0.035c0.077-0.016,0.154-0.034,0.229-0.049
			c0.001-0.012,0.002-0.024,0.002-0.035c0.038,0.003,0.075,0.007,0.111,0.01c0.001-0.011,0.002-0.023,0.003-0.035
			c0.026,0.002,0.05,0.004,0.075,0.007c0.001-0.011,0.002-0.022,0.003-0.034c0.037,0.003,0.074,0.006,0.111,0.009
			c0.001-0.011,0.002-0.023,0.003-0.035c0.024,0.002,0.049,0.004,0.074,0.006c0.001-0.011,0.002-0.023,0.003-0.034
			c0.05,0.004,0.099,0.008,0.149,0.013c0.001-0.012,0.002-0.024,0.003-0.035c0.037,0.003,0.074,0.006,0.111,0.01
			c0.001-0.012,0.002-0.023,0.003-0.034c0.037,0.003,0.074,0.006,0.112,0.009c0.001-0.012,0.001-0.023,0.003-0.035
			c0.049,0.004,0.098,0.008,0.148,0.013c0.001-0.011,0.002-0.022,0.003-0.034c0.05,0.004,0.099,0.008,0.148,0.013
			c0.001-0.012,0.002-0.023,0.003-0.035c0.062,0.005,0.124,0.011,0.186,0.016c0.001-0.011,0.002-0.023,0.003-0.034
			c0.062,0.005,0.124,0.011,0.187,0.016c0.001-0.012,0.001-0.023,0.002-0.035c0.063,0.005,0.124,0.01,0.186,0.016
			c0.001-0.011,0.002-0.023,0.003-0.034c0.075,0.006,0.149,0.013,0.223,0.02c0.001-0.012,0.002-0.023,0.003-0.035
			c0.087,0.007,0.173,0.015,0.259,0.022c0.001-0.011,0.001-0.023,0.003-0.035c0.099,0.009,0.198,0.017,0.297,0.025
			c0.001-0.011,0.002-0.022,0.003-0.034c0.111,0.01,0.223,0.019,0.334,0.029c0.001-0.011,0.002-0.022,0.003-0.035
			c0.137,0.012,0.272,0.023,0.409,0.035c0.001-0.012,0.002-0.023,0.003-0.035c0.959,0.024,1.917,0.047,2.876,0.072
			c0.334-0.059,0.766-0.019,1.093-0.081c0.061,0.005,0.124,0.011,0.186,0.016c0.001-0.012,0.002-0.024,0.003-0.035
			c0.062,0.005,0.124,0.01,0.186,0.016c0.001-0.011,0.002-0.023,0.003-0.035c0.05,0.004,0.099,0.008,0.149,0.013
			c0.001-0.012,0.002-0.023,0.002-0.034c0.062,0.005,0.124,0.01,0.186,0.016c0.532-0.094,1.064-0.188,1.596-0.282
			c0.062,0.006,0.125,0.011,0.187,0.016c0.249-0.049,0.572-0.057,0.832-0.103c0.225,0.007,0.448,0.015,0.671,0.023
			c0.2-0.034,0.53,0.011,0.784,0.032c0.616,0.053,1.163,0.137,1.621,0.311c0.207,0.053,0.415,0.105,0.623,0.159
			c0.385,0.16,0.771,0.32,1.157,0.481c-0.001,0.011-0.002,0.023-0.003,0.034c0.025,0.002,0.049,0.004,0.074,0.006
			c-0.001,0.012-0.002,0.024-0.003,0.035c0.038,0.003,0.074,0.006,0.112,0.009c-0.001,0.011-0.002,0.023-0.003,0.035
			c0.071,0.029,0.144,0.059,0.217,0.087c-0.001,0.012-0.002,0.024-0.003,0.035c0.025,0.002,0.05,0.004,0.074,0.006
			c-0.001,0.011-0.001,0.022-0.002,0.034c0.024,0.002,0.05,0.004,0.074,0.006c-0.001,0.012-0.002,0.024-0.003,0.035
			c0.026,0.002,0.05,0.004,0.075,0.006c-0.001,0.011-0.001,0.023-0.003,0.035c0.025,0.002,0.049,0.004,0.075,0.006
			c-0.001,0.011-0.002,0.023-0.003,0.034c0.024,0.002,0.05,0.004,0.073,0.006c-0.001,0.011-0.002,0.023-0.003,0.035
			c0.025,0.002,0.05,0.004,0.074,0.006c-0.001,0.011-0.002,0.023-0.003,0.035c0.025,0.002,0.05,0.004,0.075,0.006
			c-0.001,0.011-0.002,0.023-0.003,0.034c0.024,0.002,0.049,0.004,0.074,0.006c0.01,0.024,0.021,0.049,0.031,0.073
			c0.072,0.03,0.145,0.059,0.217,0.088c-0.001,0.012-0.002,0.023-0.003,0.035c0.036,0.014,0.072,0.029,0.107,0.043
			c0.011,0.024,0.022,0.048,0.032,0.072c0.049,0.016,0.098,0.032,0.146,0.048c0.011,0.024,0.021,0.048,0.031,0.073
			c0.026,0.002,0.05,0.004,0.074,0.006c0.022,0.036,0.044,0.073,0.066,0.109c0.025,0.002,0.05,0.004,0.074,0.006
			c0.01,0.024,0.021,0.049,0.031,0.072c0.025,0.002,0.05,0.004,0.075,0.006c0.022,0.038,0.043,0.074,0.065,0.111
			c0.025,0.002,0.049,0.004,0.074,0.006c0.033,0.05,0.066,0.098,0.099,0.147c0.024,0.002,0.05,0.004,0.075,0.006
			c0.055,0.075,0.112,0.148,0.168,0.223c0.025,0.002,0.05,0.004,0.075,0.007c0.101,0.124,0.203,0.249,0.304,0.374
			c0.069,0.064,0.139,0.128,0.208,0.192c-0.002,0.023-0.004,0.046-0.006,0.069c0.058,0.051,0.116,0.103,0.174,0.154
			c-0.002,0.022-0.004,0.046-0.006,0.069c0.047,0.039,0.093,0.078,0.141,0.116c0.008,0.036,0.019,0.072,0.027,0.107
			c0.024,0.013,0.048,0.027,0.071,0.041c-0.002,0.022-0.003,0.046-0.005,0.069c0.024,0.014,0.047,0.027,0.071,0.041
			c0.01,0.035,0.019,0.071,0.028,0.106c0.013,0.001,0.025,0.002,0.038,0.003c-0.002,0.023-0.004,0.046-0.006,0.07
			c0.024,0.013,0.047,0.026,0.071,0.04c0.009,0.036,0.019,0.071,0.028,0.107c0.012,0.001,0.024,0.002,0.037,0.003
			c0.008,0.047,0.017,0.094,0.025,0.142c0.024,0.013,0.048,0.026,0.071,0.041c-0.002,0.022-0.004,0.045-0.006,0.069
			c0.013,0.001,0.025,0.002,0.037,0.003c-0.002,0.023-0.004,0.046-0.006,0.069c0.013,0.001,0.026,0.002,0.038,0.003
			c-0.002,0.023-0.004,0.047-0.006,0.07c0.012,0.001,0.024,0.002,0.037,0.003c-0.002,0.023-0.004,0.046-0.006,0.069
			c0.012,0.001,0.024,0.002,0.037,0.003c0.019,0.071,0.038,0.142,0.056,0.213c0.013,0.001,0.025,0.002,0.038,0.003
			c0.007,0.059,0.015,0.118,0.022,0.176c0.012,0.001,0.025,0.002,0.037,0.003c-0.002,0.023-0.004,0.047-0.006,0.069
			c0.013,0,0.024,0.001,0.038,0.003c-0.003,0.035-0.006,0.07-0.009,0.104c0.012,0.001,0.025,0.002,0.038,0.003
			c-0.002,0.023-0.004,0.046-0.006,0.07c0.011,0.001,0.024,0.002,0.037,0.003c0.015,0.105,0.032,0.211,0.047,0.317
			c0.012,0.001,0.025,0.002,0.038,0.003c0.012,0.14,0.026,0.28,0.039,0.42c0.011,0.001,0.025,0.002,0.038,0.003
			c-0.006,0.069-0.012,0.138-0.018,0.207c0.052,0.241,0.029,0.52,0.002,0.835c-0.028,0.322-0.055,0.646-0.083,0.967
			c-0.012-0.001-0.024-0.002-0.036-0.003c-0.006,0.069-0.012,0.138-0.018,0.207c-0.013-0.001-0.026-0.002-0.037-0.003
			c-0.005,0.058-0.01,0.115-0.015,0.173c-0.012-0.001-0.026-0.002-0.038-0.003c-0.004,0.046-0.008,0.092-0.012,0.138
			c-0.013-0.001-0.024-0.002-0.037-0.003c-0.004,0.046-0.008,0.092-0.012,0.138c-0.013-0.001-0.025-0.002-0.037-0.003
			c-0.003,0.035-0.006,0.069-0.009,0.104c-0.013-0.001-0.026-0.002-0.038-0.003c-0.003,0.035-0.006,0.069-0.009,0.104
			c-0.012-0.001-0.024-0.002-0.037-0.003c-0.003,0.034-0.006,0.07-0.009,0.104c-0.013-0.001-0.025-0.002-0.037-0.003
			c-0.003,0.035-0.006,0.07-0.009,0.104c-0.012,0-0.025-0.002-0.037-0.003c-0.003,0.035-0.006,0.069-0.009,0.104
			c-0.012-0.001-0.025-0.002-0.037-0.003c-0.019,0.068-0.037,0.136-0.055,0.204c-0.012-0.001-0.025-0.002-0.037-0.003
			c-0.002,0.023-0.004,0.047-0.006,0.069c-0.012-0.001-0.025-0.002-0.037-0.003c-0.003,0.034-0.006,0.069-0.009,0.103
			c-0.012-0.001-0.024-0.002-0.037-0.003c-0.002,0.023-0.004,0.046-0.006,0.07c-0.012-0.001-0.025-0.002-0.037-0.003
			c-0.003,0.034-0.006,0.069-0.009,0.104c-0.013-0.001-0.026-0.002-0.038-0.003c-0.002,0.023-0.003,0.046-0.006,0.069
			c-0.013-0.001-0.024-0.002-0.037-0.003c-0.003,0.034-0.006,0.069-0.009,0.104c-0.013-0.001-0.025-0.002-0.037-0.003
			c-0.031,0.067-0.062,0.133-0.092,0.201c-0.013-0.001-0.024-0.002-0.037-0.003c-0.002,0.023-0.004,0.046-0.006,0.069
			c-0.013-0.001-0.025-0.002-0.038-0.003c-0.002,0.023-0.004,0.046-0.006,0.069c-0.012-0.001-0.025-0.002-0.037-0.003
			c-0.002,0.023-0.004,0.046-0.006,0.069c-0.013-0.001-0.025-0.002-0.037-0.003c-0.002,0.023-0.004,0.046-0.006,0.069
			c-0.013-0.001-0.026-0.002-0.037-0.003c-0.002,0.023-0.004,0.046-0.006,0.069c-0.012-0.001-0.025-0.002-0.037-0.003
			c-0.002,0.022-0.004,0.046-0.006,0.069c-0.013-0.001-0.025-0.002-0.038-0.003c-0.002,0.023-0.003,0.046-0.006,0.069
			c-0.013-0.001-0.024-0.002-0.037-0.003c-0.002,0.023-0.004,0.046-0.006,0.069c-0.026,0.009-0.051,0.019-0.077,0.028
			c-0.016,0.045-0.033,0.089-0.049,0.135c-0.025,0.008-0.051,0.019-0.077,0.028c-0.001,0.022-0.004,0.047-0.006,0.07
			c-0.012-0.001-0.025-0.002-0.037-0.003c-0.016,0.034-0.03,0.067-0.046,0.1c-0.025,0.01-0.051,0.02-0.076,0.028
			c-0.002,0.023-0.004,0.046-0.006,0.069c-0.04,0.02-0.079,0.04-0.117,0.061c-0.002,0.022-0.004,0.046-0.006,0.068
			c-0.04,0.02-0.079,0.04-0.118,0.06c-0.002,0.022-0.004,0.046-0.006,0.068c-0.052,0.031-0.105,0.062-0.157,0.091
			c-0.002,0.023-0.004,0.046-0.006,0.069c-0.119,0.083-0.239,0.165-0.358,0.247c-0.135,0.117-0.27,0.232-0.404,0.349
			c-0.024-0.002-0.049-0.004-0.075-0.006c-0.054,0.054-0.109,0.107-0.163,0.16c-0.024-0.002-0.05-0.004-0.075-0.006
			c-0.027,0.033-0.055,0.065-0.084,0.098c-0.023-0.002-0.049-0.004-0.073-0.006c-0.027,0.033-0.056,0.064-0.083,0.097
			c-0.024-0.002-0.05-0.004-0.075-0.006c-0.014,0.021-0.029,0.043-0.043,0.065c-0.024-0.002-0.049-0.004-0.074-0.006
			c-0.029,0.032-0.056,0.065-0.083,0.098c-0.025-0.002-0.05-0.004-0.075-0.007c-0.013,0.022-0.028,0.044-0.042,0.066
			c-0.05,0.008-0.102,0.015-0.152,0.022c-0.001,0.011-0.002,0.023-0.003,0.035c-0.038,0.008-0.077,0.017-0.114,0.025
			c-0.015,0.021-0.029,0.044-0.043,0.066c-0.05,0.007-0.102,0.014-0.152,0.021c-0.015,0.023-0.028,0.044-0.043,0.066
			c-0.076,0.017-0.152,0.034-0.229,0.049c-0.015,0.023-0.029,0.044-0.043,0.067c-0.025-0.002-0.05-0.004-0.074-0.006
			c-0.001,0.011-0.002,0.022-0.003,0.034c-0.024-0.002-0.049-0.004-0.074-0.006c-0.001,0.012-0.002,0.024-0.003,0.035
			c-0.025-0.002-0.049-0.004-0.074-0.007c-0.001,0.012-0.002,0.023-0.003,0.035c-0.025-0.002-0.05-0.004-0.074-0.007
			c-0.001,0.011-0.002,0.023-0.003,0.035c-0.051,0.007-0.102,0.015-0.152,0.021c-0.014,0.022-0.028,0.044-0.042,0.066
			c-0.025-0.002-0.05-0.004-0.075-0.006c0,0.01-0.001,0.022-0.002,0.034c-0.024-0.002-0.05-0.004-0.074-0.006
			c-0.001,0.011-0.002,0.023-0.003,0.034c-0.025-0.002-0.05-0.004-0.074-0.006c-0.001,0.012-0.002,0.024-0.003,0.035
			c-0.024-0.002-0.049-0.004-0.074-0.006c-0.001,0.011-0.002,0.023-0.003,0.035c-0.025-0.002-0.05-0.004-0.074-0.006
			c-0.001,0.012-0.002,0.023-0.003,0.034c-0.025-0.002-0.05-0.004-0.075-0.007c-0.001,0.013-0.002,0.024-0.003,0.035
			c-0.024-0.002-0.049-0.004-0.074-0.006c-0.001,0.011-0.002,0.023-0.003,0.034c-0.077,0.017-0.153,0.034-0.229,0.05
			c-0.015,0.023-0.028,0.045-0.043,0.066c-0.025-0.002-0.049-0.004-0.074-0.006c-0.001,0.012-0.002,0.023-0.003,0.035
			c-0.026-0.002-0.05-0.004-0.075-0.006c-0.001,0.011-0.002,0.023-0.003,0.035c-0.025-0.002-0.05-0.004-0.074-0.007
			c-0.001,0.011-0.002,0.023-0.003,0.034c-0.025-0.002-0.049-0.004-0.074-0.006c-0.001,0.011-0.002,0.022-0.003,0.034
			c-0.025-0.002-0.049-0.004-0.074-0.006c-0.015,0.022-0.029,0.044-0.042,0.066c-0.077,0.017-0.153,0.033-0.229,0.05
			c-0.015,0.022-0.029,0.044-0.043,0.066c-0.051,0.008-0.101,0.015-0.152,0.021c-0.014,0.022-0.029,0.044-0.042,0.066
			c-0.051,0.007-0.102,0.015-0.152,0.022c-0.014,0.022-0.029,0.044-0.043,0.066c-0.051,0.006-0.102,0.015-0.151,0.022
			c-0.001,0.011-0.002,0.022-0.003,0.034c-0.039,0.008-0.077,0.017-0.115,0.025c-0.015,0.022-0.028,0.044-0.043,0.067
			c-0.025-0.002-0.049-0.004-0.074-0.006c-0.001,0.011-0.002,0.022-0.003,0.033c-0.038,0.009-0.076,0.019-0.114,0.026
			c-0.015,0.022-0.028,0.044-0.043,0.066c-0.024-0.002-0.05-0.004-0.075-0.006c-0.026,0.031-0.055,0.064-0.082,0.097
			c-0.026-0.002-0.05-0.004-0.075-0.006c-0.014,0.022-0.028,0.043-0.043,0.066c-0.024-0.002-0.05-0.004-0.074-0.006
			c-0.028,0.032-0.056,0.065-0.083,0.097c-0.025-0.002-0.049-0.004-0.074-0.006c-0.055,0.053-0.109,0.107-0.164,0.16
			c-0.024-0.002-0.049-0.004-0.075-0.007c-0.067,0.064-0.135,0.128-0.203,0.192c-0.025-0.002-0.049-0.004-0.075-0.006
			c-0.121,0.105-0.243,0.211-0.364,0.316c-0.133,0.093-0.265,0.187-0.397,0.279c-0.002,0.023-0.004,0.046-0.006,0.07
			c-0.093,0.062-0.185,0.123-0.278,0.185c-0.015,0.033-0.03,0.067-0.046,0.101c-0.04,0.02-0.079,0.04-0.118,0.06
			c-0.002,0.023-0.004,0.046-0.006,0.07c-0.038,0.02-0.077,0.04-0.117,0.06c-0.015,0.033-0.03,0.067-0.045,0.1
			c-0.026,0.009-0.052,0.02-0.078,0.028c-0.002,0.022-0.004,0.046-0.006,0.069c-0.025,0.01-0.051,0.02-0.076,0.029
			c-0.002,0.022-0.004,0.046-0.006,0.069c-0.04,0.021-0.079,0.04-0.118,0.06c-0.017,0.044-0.033,0.09-0.049,0.135
			c-0.026,0.01-0.051,0.019-0.077,0.028c-0.002,0.023-0.004,0.046-0.006,0.069c-0.026,0.009-0.051,0.018-0.078,0.028
			c-0.002,0.023-0.004,0.046-0.006,0.07c-0.025,0.009-0.052,0.018-0.077,0.027c-0.016,0.046-0.033,0.09-0.05,0.135
			c-0.025,0.01-0.051,0.019-0.076,0.028c-0.002,0.024-0.004,0.047-0.006,0.07c-0.012-0.001-0.024-0.002-0.037-0.003
			c-0.002,0.024-0.004,0.047-0.006,0.069c-0.026,0.009-0.052,0.019-0.077,0.028c-0.017,0.045-0.033,0.089-0.049,0.135
			c-0.025,0.009-0.052,0.019-0.077,0.027c-0.002,0.024-0.004,0.047-0.006,0.07c-0.012,0-0.025-0.002-0.037-0.003
			c-0.002,0.022-0.004,0.046-0.006,0.068c-0.012-0.001-0.025-0.002-0.038-0.003c-0.001,0.023-0.004,0.047-0.006,0.07
			c-0.012-0.001-0.024-0.002-0.037-0.003c-0.002,0.022-0.004,0.046-0.006,0.069c-0.026,0.009-0.051,0.019-0.076,0.028
			c-0.002,0.023-0.004,0.046-0.006,0.069c-0.013-0.001-0.025-0.002-0.038-0.003c-0.002,0.024-0.004,0.046-0.006,0.069
			c-0.012-0.001-0.025-0.002-0.038-0.003c-0.001,0.023-0.003,0.046-0.006,0.07c-0.011-0.001-0.023-0.002-0.036-0.003
			c-0.002,0.023-0.004,0.046-0.006,0.07c-0.025,0.01-0.051,0.019-0.078,0.028c-0.002,0.023-0.004,0.046-0.006,0.069
			c-0.012-0.001-0.025-0.002-0.037-0.003c-0.002,0.023-0.004,0.046-0.006,0.069c-0.013-0.001-0.025-0.002-0.037-0.003
			c-0.002,0.023-0.004,0.046-0.006,0.07c-0.013-0.001-0.025-0.002-0.038-0.003c-0.001,0.022-0.004,0.045-0.006,0.069
			c-0.012-0.001-0.024-0.002-0.037-0.003c-0.002,0.023-0.004,0.046-0.006,0.069c-0.013-0.001-0.025-0.002-0.038-0.003
			c-0.002,0.023-0.004,0.046-0.006,0.069c-0.013-0.001-0.024-0.002-0.037-0.003c-0.002,0.022-0.004,0.046-0.006,0.069
			c-0.011-0.001-0.024-0.002-0.037-0.003c-0.016,0.044-0.033,0.089-0.049,0.135c-0.026,0.009-0.051,0.019-0.077,0.029
			c-0.016,0.045-0.033,0.089-0.049,0.134c-0.012-0.001-0.024-0.002-0.037-0.003c-0.002,0.023-0.004,0.045-0.006,0.069
			c-0.013-0.001-0.024-0.002-0.037-0.003c-0.002,0.022-0.004,0.046-0.006,0.069c-0.013-0.001-0.025-0.002-0.037-0.003
			c-0.002,0.022-0.003,0.045-0.006,0.069c-0.012-0.001-0.026-0.002-0.038-0.003c-0.002,0.023-0.004,0.047-0.006,0.07
			c-0.025,0.009-0.051,0.019-0.077,0.027c-0.002,0.024-0.004,0.047-0.006,0.07c-0.012-0.001-0.026-0.002-0.038-0.003
			c-0.002,0.023-0.004,0.046-0.006,0.07c-0.025,0.009-0.052,0.019-0.077,0.028c-0.031,0.067-0.061,0.134-0.092,0.202
			c-0.025,0.008-0.052,0.018-0.077,0.027c-0.017,0.045-0.033,0.089-0.049,0.134c-0.012-0.001-0.024-0.002-0.037-0.003
			c-0.016,0.034-0.03,0.068-0.046,0.102c-0.026,0.009-0.052,0.019-0.077,0.027c-0.016,0.045-0.032,0.09-0.049,0.135
			c-0.012-0.001-0.025-0.002-0.037-0.003c-0.015,0.034-0.031,0.067-0.045,0.102c-0.026,0.009-0.052,0.019-0.078,0.027
			c-0.002,0.023-0.004,0.047-0.006,0.07c-0.026,0.009-0.052,0.019-0.077,0.027c-0.016,0.034-0.03,0.068-0.046,0.102
			c-0.052,0.029-0.105,0.061-0.157,0.091c-0.002,0.023-0.004,0.046-0.006,0.068c-0.16,0.115-0.319,0.229-0.479,0.343
			c-0.108,0.095-0.217,0.191-0.324,0.285c-0.024-0.002-0.049-0.004-0.074-0.006c-0.042,0.043-0.083,0.086-0.123,0.128
			c-0.025-0.002-0.05-0.004-0.075-0.006c-0.027,0.033-0.055,0.065-0.083,0.097c-0.025-0.002-0.05-0.004-0.074-0.006
			c-0.028,0.033-0.056,0.066-0.083,0.098c-0.025-0.002-0.05-0.004-0.074-0.007c-0.014,0.022-0.029,0.044-0.043,0.067
			c-0.037,0.007-0.076,0.016-0.113,0.025c-0.001,0.012-0.002,0.023-0.003,0.034c-0.025-0.002-0.05-0.004-0.075-0.006
			c-0.015,0.022-0.028,0.044-0.043,0.067c-0.05,0.007-0.101,0.014-0.151,0.021c-0.015,0.022-0.029,0.044-0.044,0.066
			c-0.051,0.008-0.101,0.015-0.152,0.022c-0.014,0.022-0.028,0.044-0.042,0.066c-0.026-0.002-0.05-0.004-0.075-0.006
			c-0.001,0.011-0.002,0.023-0.003,0.035c-0.024-0.002-0.05-0.004-0.074-0.006c-0.001,0.012-0.002,0.023-0.003,0.035
			c-0.025-0.002-0.05-0.004-0.074-0.006c-0.001,0.011-0.002,0.023-0.003,0.034c-0.024-0.002-0.049-0.004-0.074-0.006
			c-0.001,0.012-0.002,0.023-0.003,0.034c-0.025-0.002-0.05-0.004-0.074-0.006c-0.001,0.011-0.002,0.023-0.003,0.034
			c-0.025-0.002-0.05-0.004-0.074-0.006c-0.001,0.012-0.002,0.023-0.003,0.035c-0.076,0.017-0.153,0.033-0.229,0.05
			c-0.001,0.011-0.001,0.022-0.002,0.034c-0.038-0.003-0.075-0.006-0.112-0.01c-0.001,0.012-0.002,0.023-0.003,0.034
			c-0.05,0.007-0.101,0.015-0.151,0.022c0,0.011-0.002,0.023-0.003,0.035c-0.063,0.006-0.126,0.012-0.189,0.019
			c-0.001,0.011-0.002,0.022-0.003,0.033c-0.113,0.014-0.227,0.028-0.34,0.042c-0.908,0.247-2.503,0.397-3.591-0.028
			c-0.063-0.005-0.125-0.011-0.186-0.016c0.001-0.011,0.002-0.022,0.003-0.034c-0.037-0.003-0.074-0.006-0.111-0.009
			c0.001-0.012,0.002-0.023,0.003-0.035c-0.085-0.019-0.17-0.039-0.257-0.057c0.001-0.011,0.001-0.022,0.002-0.034
			c-0.037-0.003-0.074-0.007-0.11-0.01c0.001-0.011,0.002-0.022,0.003-0.035c-0.025-0.002-0.049-0.004-0.075-0.006
			c0.001-0.011,0.002-0.023,0.003-0.034c-0.037-0.003-0.074-0.006-0.111-0.009c0.001-0.011,0.002-0.024,0.003-0.035
			c-0.025-0.002-0.049-0.004-0.074-0.006c0.001-0.012,0.002-0.023,0.003-0.034c-0.038-0.003-0.074-0.006-0.111-0.01
			c0.001-0.011,0.002-0.023,0.003-0.035c-0.072-0.029-0.145-0.059-0.217-0.088c0.001-0.012,0.002-0.022,0.003-0.034
			c-0.025-0.002-0.049-0.004-0.075-0.006c0.001-0.013,0.002-0.024,0.003-0.035c-0.072-0.029-0.144-0.059-0.217-0.088
			c-0.009-0.024-0.02-0.048-0.031-0.072c-0.048-0.015-0.097-0.032-0.146-0.046c-0.011-0.025-0.021-0.049-0.031-0.073
			c-0.049-0.016-0.098-0.031-0.146-0.047c0.001-0.011,0.002-0.023,0.003-0.034c-0.037-0.015-0.073-0.03-0.109-0.044
			c-0.011-0.024-0.021-0.048-0.032-0.072c-0.024-0.002-0.049-0.004-0.074-0.006c-0.022-0.037-0.043-0.073-0.065-0.11
			c-0.024-0.002-0.05-0.004-0.074-0.007c-0.022-0.036-0.044-0.072-0.066-0.109c-0.025-0.002-0.05-0.004-0.074-0.006
			c-0.033-0.049-0.066-0.099-0.1-0.147c-0.024-0.002-0.05-0.004-0.075-0.007c-0.09-0.112-0.181-0.224-0.27-0.336
			c-0.025-0.002-0.05-0.004-0.074-0.006c-0.01-0.024-0.021-0.047-0.031-0.072c-0.07-0.064-0.14-0.128-0.209-0.191
			c0.002-0.023,0.004-0.046,0.006-0.069c-0.092-0.09-0.185-0.179-0.276-0.268c0.002-0.023,0.004-0.047,0.006-0.069
			c-0.058-0.051-0.116-0.103-0.174-0.155c0.001-0.023,0.004-0.045,0.006-0.069c-0.036-0.026-0.071-0.053-0.105-0.079
			c-0.01-0.036-0.02-0.071-0.029-0.107c-0.023-0.013-0.048-0.027-0.071-0.041c0.002-0.022,0.004-0.045,0.006-0.069
			c-0.024-0.014-0.047-0.027-0.072-0.042c0.001-0.022,0.004-0.045,0.006-0.069c-0.034-0.025-0.069-0.052-0.105-0.078
			c0.002-0.023,0.004-0.046,0.006-0.069c-0.023-0.013-0.048-0.027-0.071-0.04c-0.008-0.047-0.017-0.095-0.025-0.142
			c-0.024-0.013-0.047-0.027-0.071-0.041c-0.009-0.035-0.019-0.071-0.028-0.106c-0.013-0.001-0.025-0.002-0.037-0.003
			c-0.019-0.071-0.038-0.143-0.057-0.213c-0.024-0.014-0.047-0.028-0.071-0.041c-0.164-0.421-0.328-0.84-0.492-1.26
			c-0.09-0.402-0.181-0.804-0.271-1.206c-0.006-0.222-0.013-0.441-0.019-0.663C373.61,407.206,373.596,407.205,373.583,407.204z"/>
		<path fill="#231F20" d="M363.212,390.141c0.029-0.397,0.05-0.84,0.172-1.134c0.006-0.069,0.012-0.138,0.018-0.208
			c0.209-0.481,0.456-0.902,0.781-1.255c0.105-0.072,0.211-0.144,0.317-0.216c0.068-0.065,0.136-0.128,0.204-0.192
			c0.024,0.002,0.049,0.004,0.074,0.006c0.028-0.032,0.055-0.065,0.083-0.098c0.024,0.002,0.05,0.004,0.074,0.006
			c0.014-0.021,0.029-0.044,0.043-0.066c0.024,0.002,0.05,0.004,0.074,0.006c0.014-0.022,0.029-0.043,0.043-0.066
			c0.024,0.002,0.049,0.004,0.074,0.006c0-0.011,0.002-0.023,0.003-0.034c0.025,0.002,0.05,0.004,0.074,0.006
			c0.001-0.012,0.002-0.023,0.003-0.035c0.024,0.002,0.049,0.004,0.074,0.006c0-0.011,0.001-0.023,0.002-0.034
			c0.025,0.002,0.05,0.004,0.074,0.006c0.001-0.011,0.002-0.023,0.003-0.035c0.024,0.002,0.05,0.004,0.073,0.006
			c0.001-0.011,0.002-0.023,0.003-0.034c0.051-0.007,0.102-0.014,0.152-0.022c0.001-0.011,0.002-0.022,0.003-0.034
			c0.037,0.003,0.074,0.006,0.11,0.009c0.001-0.011,0.002-0.023,0.003-0.034c0.024,0.002,0.05,0.004,0.074,0.006
			c0.001-0.011,0.002-0.023,0.003-0.034c0.037,0.003,0.074,0.006,0.111,0.009c0.001-0.012,0.002-0.023,0.003-0.035
			c0.1-0.002,0.2-0.006,0.3-0.009c0.347-0.075,1.143-0.122,1.57,0.03c0.111,0.009,0.223,0.019,0.334,0.028
			c-0.001,0.012-0.002,0.023-0.003,0.035c0.074,0.006,0.149,0.013,0.223,0.019c0,0.011-0.001,0.023-0.002,0.034
			c0.062,0.005,0.124,0.011,0.186,0.016c-0.001,0.011-0.002,0.023-0.003,0.035c0.05,0.004,0.099,0.008,0.149,0.013
			c-0.001,0.011-0.002,0.023-0.003,0.034c0.049,0.004,0.099,0.009,0.148,0.013c-0.001,0.011-0.002,0.022-0.002,0.035
			c0.037,0.003,0.074,0.006,0.112,0.01c-0.001,0.011-0.002,0.022-0.003,0.034c0.037,0.003,0.073,0.006,0.111,0.01
			c-0.001,0.011-0.002,0.023-0.003,0.035c0.037,0.003,0.074,0.006,0.111,0.01c-0.001,0.011-0.002,0.022-0.003,0.033
			c0.038,0.003,0.074,0.007,0.111,0.01c-0.001,0.012-0.002,0.023-0.003,0.034c0.025,0.002,0.05,0.004,0.074,0.006
			c-0.001,0.012-0.002,0.024-0.003,0.035c0.074,0.017,0.146,0.036,0.22,0.053c-0.001,0.011-0.002,0.023-0.003,0.034
			c0.049,0.015,0.097,0.032,0.146,0.048c-0.001,0.011-0.002,0.022-0.003,0.033c0.038,0.003,0.074,0.006,0.111,0.01
			c-0.001,0.012-0.002,0.023-0.003,0.034c0.025,0.002,0.05,0.004,0.074,0.006c0,0.012-0.002,0.023-0.003,0.035
			c0.026,0.002,0.05,0.004,0.075,0.006c-0.001,0.012-0.002,0.023-0.003,0.035c0.072,0.029,0.145,0.059,0.217,0.088
			c-0.001,0.011-0.002,0.023-0.003,0.035c0.037,0.003,0.075,0.006,0.111,0.009c-0.001,0.011-0.002,0.022-0.003,0.034
			c0.072,0.029,0.144,0.059,0.217,0.088c-0.001,0.012-0.001,0.023-0.003,0.035c0.049,0.016,0.097,0.031,0.145,0.046
			c0.011,0.025,0.022,0.049,0.032,0.073c0.072,0.028,0.145,0.058,0.217,0.087c0.011,0.025,0.022,0.049,0.031,0.073
			c0.049,0.015,0.098,0.032,0.146,0.047c-0.001,0.011-0.002,0.023-0.003,0.034c0.036,0.015,0.071,0.029,0.108,0.044
			c0.01,0.024,0.021,0.048,0.031,0.072c0.024,0.002,0.05,0.004,0.074,0.006c0.033,0.049,0.067,0.097,0.099,0.147
			c0.025,0.002,0.05,0.004,0.075,0.006c0.033,0.049,0.066,0.098,0.1,0.147c0.025,0.002,0.049,0.004,0.073,0.006
			c0.125,0.15,0.25,0.3,0.374,0.45c0.172,0.177,0.345,0.354,0.517,0.532c-0.002,0.023-0.004,0.046-0.006,0.069
			c0.059,0.051,0.116,0.103,0.174,0.154c-0.002,0.023-0.003,0.046-0.006,0.07c0.047,0.038,0.093,0.077,0.141,0.115
			c-0.002,0.023-0.004,0.046-0.006,0.07c0.035,0.026,0.07,0.053,0.105,0.079c-0.002,0.023-0.004,0.045-0.006,0.069
			c0.024,0.013,0.048,0.027,0.071,0.041c0.01,0.036,0.019,0.071,0.029,0.107c0.012,0.001,0.024,0.002,0.037,0.003
			c-0.002,0.023-0.004,0.047-0.006,0.07c0.024,0.013,0.047,0.027,0.072,0.042c-0.002,0.022-0.004,0.045-0.006,0.068
			c0.023,0.014,0.047,0.028,0.069,0.042c0.01,0.036,0.021,0.071,0.029,0.107c0.011,0.001,0.024,0.002,0.037,0.003
			c-0.002,0.023-0.004,0.046-0.006,0.069c0.012,0.001,0.024,0.002,0.036,0.003c-0.002,0.023-0.004,0.046-0.006,0.069
			c0.013,0.001,0.026,0.002,0.038,0.003c-0.002,0.022-0.004,0.046-0.006,0.068c0.012,0.001,0.024,0.002,0.037,0.003
			c-0.002,0.024-0.004,0.047-0.006,0.07c0.023,0.013,0.047,0.026,0.07,0.041c-0.002,0.023-0.004,0.046-0.006,0.069
			c0.013,0.001,0.026,0.002,0.038,0.003c0.008,0.047,0.017,0.094,0.025,0.141c0.013,0.001,0.025,0.002,0.037,0.003
			c0.007,0.059,0.016,0.117,0.023,0.175c0.323,0.72,0.545,1.992,0.127,2.899c-0.035,0.112-0.069,0.226-0.104,0.339
			c-0.013,0-0.025-0.002-0.037-0.003c-0.016,0.045-0.032,0.09-0.049,0.135c-0.012-0.001-0.025-0.002-0.037-0.003
			c-0.046,0.101-0.092,0.202-0.138,0.302c-0.012-0.001-0.024-0.002-0.037-0.003c-0.016,0.033-0.031,0.067-0.046,0.1
			c-0.026,0.01-0.052,0.02-0.078,0.029c-0.002,0.022-0.004,0.046-0.006,0.069c-0.025,0.009-0.051,0.018-0.078,0.028
			c-0.002,0.023-0.004,0.046-0.006,0.069c-0.065,0.042-0.131,0.082-0.197,0.123c-0.002,0.023-0.004,0.046-0.006,0.07
			c-0.066,0.041-0.132,0.081-0.198,0.122c-0.014,0.021-0.029,0.044-0.043,0.065c-0.025-0.002-0.05-0.004-0.074-0.007
			c-0.042,0.043-0.082,0.086-0.123,0.129c-0.025-0.002-0.05-0.004-0.074-0.006c-0.029,0.033-0.056,0.065-0.083,0.098
			c-0.025-0.002-0.05-0.004-0.074-0.006c-0.014,0.022-0.029,0.045-0.043,0.066c-0.05,0.007-0.101,0.015-0.152,0.021
			c-0.014,0.022-0.028,0.044-0.043,0.066c-0.051,0.006-0.101,0.014-0.151,0.021c-0.001,0.011-0.002,0.023-0.003,0.034
			c-0.05,0.008-0.102,0.015-0.152,0.022c-0.001,0.012-0.002,0.023-0.003,0.034c-0.037-0.003-0.074-0.006-0.111-0.009
			c-0.001,0.012-0.002,0.024-0.003,0.035c-0.025-0.002-0.049-0.004-0.074-0.006c-0.001,0.011-0.002,0.023-0.003,0.034
			c-0.088,0.004-0.176,0.009-0.263,0.013c-0.001,0.011-0.002,0.023-0.003,0.034c-0.049-0.004-0.099-0.008-0.149-0.012
			c-0.001,0.011-0.002,0.022-0.003,0.033c-0.049-0.004-0.099-0.008-0.149-0.013c-0.001,0.012-0.002,0.024-0.003,0.036
			c-0.073-0.006-0.148-0.013-0.223-0.019c-0.355,0.063-0.857-0.003-1.306-0.042c-0.385-0.033-0.716-0.111-0.992-0.224
			c-0.05-0.004-0.099-0.008-0.149-0.013c0.001-0.011,0.002-0.023,0.003-0.035c-0.086-0.019-0.172-0.038-0.258-0.057
			c0.001-0.011,0.002-0.023,0.003-0.034c-0.038-0.003-0.075-0.007-0.111-0.01c0.001-0.011,0.002-0.023,0.003-0.035
			c-0.037-0.003-0.075-0.006-0.112-0.009c0.001-0.011,0.002-0.022,0.003-0.034c-0.025-0.002-0.05-0.004-0.074-0.006
			c0.001-0.012,0.002-0.023,0.003-0.035c-0.037-0.003-0.074-0.006-0.11-0.009c0-0.011,0.001-0.022,0.002-0.034
			c-0.025-0.002-0.05-0.004-0.075-0.006c0.001-0.012,0.002-0.023,0.003-0.034c-0.037-0.003-0.074-0.007-0.112-0.01
			c0.001-0.012,0.002-0.024,0.003-0.035c-0.048-0.015-0.096-0.031-0.145-0.047c0.001-0.011,0.002-0.023,0.003-0.034
			c-0.038-0.003-0.075-0.006-0.112-0.009c0.001-0.012,0.002-0.023,0.003-0.035c-0.072-0.029-0.145-0.059-0.217-0.088
			c0.001-0.011,0.002-0.023,0.003-0.034c-0.048-0.016-0.097-0.031-0.146-0.047c-0.01-0.023-0.022-0.048-0.032-0.072
			c-0.072-0.03-0.145-0.059-0.217-0.089c-0.01-0.023-0.021-0.048-0.032-0.072c-0.049-0.016-0.097-0.033-0.146-0.048
			c-0.01-0.024-0.021-0.048-0.031-0.072c-0.025-0.002-0.05-0.004-0.075-0.007c-0.01-0.023-0.021-0.048-0.031-0.072
			c-0.024-0.002-0.05-0.004-0.075-0.006c-0.009-0.024-0.02-0.049-0.03-0.072c-0.025-0.002-0.049-0.004-0.074-0.006
			c-0.01-0.025-0.021-0.048-0.031-0.073c-0.024-0.002-0.05-0.004-0.075-0.006c-0.022-0.037-0.044-0.073-0.065-0.11
			c-0.025-0.002-0.049-0.004-0.075-0.006c-0.021-0.036-0.043-0.074-0.064-0.11c-0.026-0.002-0.05-0.004-0.075-0.006
			c-0.033-0.049-0.066-0.098-0.1-0.147c-0.024-0.002-0.049-0.004-0.073-0.006c-0.068-0.088-0.136-0.175-0.203-0.261
			c-0.025-0.002-0.05-0.004-0.074-0.006c-0.045-0.062-0.089-0.124-0.134-0.185c-0.115-0.114-0.23-0.229-0.345-0.343
			c0.001-0.022,0.004-0.046,0.006-0.069c-0.082-0.077-0.162-0.153-0.242-0.229c0.002-0.023,0.004-0.046,0.006-0.069
			c-0.047-0.039-0.093-0.078-0.141-0.116c0.002-0.024,0.004-0.046,0.006-0.07c-0.036-0.026-0.07-0.053-0.105-0.079
			c0.002-0.023,0.004-0.046,0.006-0.069c-0.036-0.026-0.07-0.052-0.105-0.079c0.002-0.022,0.004-0.046,0.006-0.069
			c-0.024-0.013-0.047-0.027-0.071-0.042c-0.009-0.035-0.019-0.07-0.028-0.106c-0.013-0.001-0.026-0.002-0.037-0.003
			c0.002-0.023,0.003-0.046,0.006-0.069c-0.024-0.013-0.048-0.028-0.072-0.041c0.002-0.023,0.004-0.046,0.006-0.07
			c-0.024-0.013-0.047-0.026-0.071-0.041c-0.019-0.071-0.038-0.142-0.056-0.213c-0.023-0.013-0.047-0.027-0.071-0.04
			c-0.02-0.072-0.039-0.143-0.057-0.215c-0.013-0.001-0.025-0.002-0.037-0.003c0.002-0.022,0.003-0.046,0.005-0.068
			c-0.012-0.001-0.024-0.002-0.037-0.003c-0.019-0.072-0.038-0.143-0.056-0.214c-0.013-0.001-0.025-0.002-0.038-0.003
			c0.003-0.034,0.006-0.069,0.009-0.104c-0.012-0.001-0.025-0.002-0.037-0.003c0.002-0.023,0.004-0.046,0.006-0.069
			c-0.012-0.001-0.025-0.002-0.037-0.003c0.003-0.034,0.006-0.069,0.009-0.104c-0.013-0.001-0.025-0.002-0.038-0.003
			c0.002-0.022,0.004-0.045,0.006-0.069c-0.012-0.001-0.024-0.002-0.037-0.003c0.003-0.035,0.006-0.07,0.009-0.104
			c-0.012-0.001-0.024-0.002-0.037-0.003c0.003-0.034,0.006-0.069,0.009-0.103c-0.013-0.001-0.025-0.002-0.037-0.003
			c0.003-0.035,0.006-0.069,0.009-0.104c-0.012-0.001-0.025-0.002-0.037-0.003c0.004-0.046,0.008-0.091,0.012-0.138
			c-0.012-0.001-0.025-0.002-0.037-0.003c0.004-0.046,0.008-0.092,0.012-0.138c-0.013-0.001-0.026-0.002-0.038-0.003
			c0.005-0.058,0.01-0.114,0.015-0.172c-0.013-0.001-0.025-0.002-0.037-0.003c0.008-0.092,0.016-0.185,0.023-0.276
			C363.238,390.143,363.225,390.141,363.212,390.141z"/>
		<path id="upaw3" fill="#231F20" d="M363.821,404.074c0.002-0.023,0.004-0.046,0.006-0.068c-0.127-0.127-0.253-0.254-0.379-0.382
			c0.002-0.022,0.004-0.046,0.006-0.069c-0.058-0.051-0.117-0.102-0.175-0.153c0.002-0.023,0.004-0.046,0.006-0.07
			c-0.034-0.025-0.069-0.052-0.104-0.079c0.002-0.022,0.004-0.046,0.006-0.069c-0.024-0.014-0.048-0.027-0.071-0.042
			c0.002-0.022,0.004-0.045,0.006-0.069c-0.035-0.026-0.071-0.052-0.106-0.079c0.002-0.023,0.004-0.046,0.006-0.069
			c-0.023-0.013-0.047-0.028-0.071-0.042c0.002-0.023,0.004-0.046,0.006-0.069c-0.023-0.013-0.048-0.027-0.07-0.041
			c-0.009-0.047-0.017-0.094-0.026-0.141c-0.023-0.013-0.048-0.027-0.071-0.041c-0.02-0.071-0.038-0.142-0.057-0.214
			c-0.024-0.013-0.047-0.027-0.071-0.04c-0.009-0.047-0.018-0.094-0.025-0.142c-0.013-0.001-0.025-0.002-0.038-0.003
			c-0.019-0.071-0.038-0.142-0.056-0.213c-0.013-0.001-0.025-0.002-0.038-0.003c0.003-0.034,0.006-0.069,0.009-0.104
			c-0.011-0.001-0.024-0.002-0.037-0.003c-0.008-0.046-0.016-0.094-0.024-0.141c-0.013-0.001-0.025-0.002-0.038-0.003
			c-0.075-0.296-0.149-0.593-0.224-0.888c0.005-0.058,0.01-0.116,0.015-0.173c-0.081-0.347-0.024-0.948,0.109-1.278
			c0.025-0.148,0.05-0.298,0.076-0.446c0.012,0.001,0.025,0.002,0.037,0.003c0.034-0.101,0.067-0.202,0.1-0.303
			c0.013,0.001,0.025,0.002,0.038,0.003c0.03-0.068,0.062-0.134,0.092-0.202c0.012,0.001,0.025,0.002,0.037,0.003
			c0.002-0.023,0.004-0.046,0.006-0.069c0.012,0.001,0.024,0.002,0.038,0.003c0.002-0.023,0.004-0.046,0.006-0.07
			c0.012,0.001,0.024,0.002,0.036,0.003c0.017-0.045,0.034-0.089,0.049-0.135c0.026-0.009,0.052-0.02,0.077-0.028
			c0.002-0.023,0.004-0.047,0.006-0.07c0.013,0.001,0.025,0.002,0.037,0.003c0.016-0.034,0.031-0.067,0.047-0.101
			c0.025-0.01,0.051-0.019,0.077-0.028c0.002-0.024,0.004-0.046,0.006-0.07c0.052-0.03,0.105-0.061,0.158-0.091
			c0.002-0.023,0.004-0.046,0.006-0.069c0.066-0.041,0.132-0.082,0.198-0.122c0.014-0.022,0.028-0.044,0.042-0.067
			c0.025,0.002,0.05,0.005,0.075,0.007c0.041-0.043,0.082-0.086,0.123-0.129c0.024,0.002,0.049,0.004,0.074,0.006
			c0.028-0.032,0.056-0.064,0.083-0.097c0.893-0.452,2.449-0.62,3.68-0.139c0.062,0.006,0.124,0.011,0.186,0.016
			c-0.001,0.011-0.002,0.023-0.003,0.035c0.036,0.003,0.074,0.007,0.111,0.01c-0.001,0.011-0.002,0.023-0.003,0.034
			c0.121,0.034,0.243,0.068,0.366,0.101c-0.001,0.011-0.002,0.023-0.003,0.035c0.037,0.003,0.073,0.006,0.111,0.009
			c0,0.011-0.001,0.023-0.002,0.034c0.037,0.003,0.074,0.006,0.111,0.009c-0.001,0.013-0.002,0.024-0.003,0.035
			c0.037,0.003,0.074,0.006,0.111,0.01c-0.001,0.012-0.002,0.023-0.003,0.034c0.025,0.002,0.05,0.004,0.075,0.006
			c-0.001,0.012-0.002,0.023-0.003,0.035c0.037,0.003,0.075,0.006,0.112,0.01c-0.001,0.011-0.002,0.023-0.003,0.034
			c0.025,0.002,0.05,0.004,0.074,0.006c0,0.012-0.001,0.024-0.002,0.035c0.037,0.003,0.074,0.006,0.112,0.009
			c-0.001,0.011-0.002,0.023-0.003,0.035c0.072,0.029,0.144,0.059,0.217,0.088c-0.001,0.012-0.002,0.022-0.003,0.034
			c0.024,0.002,0.05,0.004,0.074,0.006c-0.001,0.011-0.002,0.023-0.003,0.035c0.024,0.002,0.05,0.004,0.074,0.006
			c-0.001,0.011-0.002,0.022-0.003,0.034c0.025,0.002,0.049,0.004,0.074,0.006c-0.001,0.011-0.002,0.024-0.003,0.035
			c0.025,0.002,0.05,0.004,0.075,0.006c-0.001,0.012-0.002,0.023-0.003,0.035c0.025,0.002,0.05,0.004,0.074,0.006
			c-0.001,0.012-0.002,0.023-0.003,0.035c0.024,0.002,0.049,0.004,0.074,0.006c-0.001,0.012-0.001,0.023-0.002,0.035
			c0.025,0.002,0.049,0.004,0.074,0.006c-0.001,0.011-0.002,0.023-0.003,0.034c0.025,0.002,0.05,0.004,0.074,0.006
			c0,0.012-0.001,0.022-0.002,0.034c0.025,0.002,0.05,0.004,0.075,0.006c0.009,0.025,0.02,0.048,0.03,0.073
			c0.048,0.016,0.097,0.031,0.146,0.047c0.011,0.024,0.022,0.048,0.032,0.072c0.025,0.002,0.05,0.004,0.074,0.006
			c-0.001,0.011-0.002,0.024-0.003,0.035c0.037,0.015,0.073,0.029,0.109,0.044c0.01,0.024,0.021,0.048,0.03,0.072
			c0.026,0.002,0.051,0.004,0.075,0.006c0.033,0.05,0.066,0.099,0.099,0.148c0.025,0.002,0.05,0.004,0.074,0.006
			c0.045,0.062,0.089,0.124,0.134,0.186c0.025,0.002,0.049,0.004,0.074,0.006c0.135,0.163,0.271,0.325,0.408,0.487
			c0.149,0.151,0.298,0.303,0.448,0.456c-0.002,0.023-0.004,0.046-0.006,0.069c0.08,0.076,0.162,0.153,0.242,0.23
			c-0.002,0.022-0.004,0.046-0.006,0.069c0.047,0.039,0.093,0.078,0.14,0.117c-0.002,0.022-0.004,0.046-0.006,0.07
			c0.036,0.026,0.071,0.052,0.105,0.078c-0.002,0.023-0.004,0.047-0.006,0.069c0.035,0.027,0.07,0.052,0.105,0.079
			c-0.002,0.022-0.003,0.046-0.006,0.068c0.023,0.014,0.048,0.028,0.071,0.042c0.009,0.035,0.019,0.072,0.028,0.106
			c0.012,0.001,0.024,0.002,0.036,0.003c-0.002,0.023-0.004,0.046-0.006,0.069c0.025,0.014,0.048,0.028,0.072,0.042
			c0.009,0.035,0.018,0.071,0.028,0.106c0.013,0.001,0.025,0.002,0.037,0.003c0.02,0.071,0.037,0.143,0.057,0.214
			c0.024,0.014,0.048,0.027,0.071,0.041c0.008,0.047,0.017,0.094,0.025,0.142c0.013,0.001,0.024,0.002,0.037,0.003
			c0.009,0.047,0.017,0.094,0.025,0.142c0.013,0.001,0.026,0.002,0.038,0.003c-0.003,0.034-0.006,0.069-0.009,0.103
			c0.012,0.001,0.024,0.002,0.037,0.003c0.009,0.047,0.018,0.094,0.025,0.141c0.012,0.001,0.026,0.002,0.038,0.003
			c0.062,0.296,0.124,0.591,0.186,0.887c-0.004,0.196-0.008,0.393-0.013,0.59c0.013,0.001,0.025,0.002,0.037,0.003
			c-0.043,0.368-0.087,0.735-0.131,1.102c-0.012-0.001-0.025-0.002-0.038-0.003c-0.004,0.046-0.008,0.092-0.012,0.138
			c-0.011-0.001-0.024-0.002-0.036-0.003c-0.003,0.035-0.006,0.069-0.009,0.104c-0.012-0.001-0.025-0.002-0.037-0.003
			c-0.003,0.034-0.006,0.069-0.009,0.104c-0.013-0.001-0.025-0.002-0.038-0.003c-0.031,0.067-0.061,0.134-0.092,0.202
			c-0.012-0.001-0.024-0.002-0.037-0.003c-0.002,0.023-0.004,0.046-0.006,0.069c-0.012-0.001-0.025-0.002-0.037-0.003
			c-0.002,0.023-0.004,0.046-0.006,0.069c-0.011-0.001-0.025-0.002-0.038-0.003c-0.002,0.024-0.004,0.047-0.006,0.069
			c-0.011-0.001-0.023-0.002-0.036-0.003c-0.002,0.023-0.004,0.046-0.006,0.069c-0.013-0.001-0.025-0.002-0.037-0.003
			c-0.002,0.023-0.003,0.046-0.006,0.069c-0.012-0.001-0.025-0.002-0.038-0.003c-0.002,0.023-0.004,0.046-0.006,0.069
			c-0.025,0.009-0.052,0.02-0.077,0.028c-0.002,0.023-0.004,0.046-0.006,0.069c-0.012-0.001-0.025-0.002-0.038-0.003
			c-0.015,0.034-0.03,0.067-0.046,0.101c-0.025,0.009-0.051,0.019-0.076,0.028c-0.002,0.023-0.004,0.046-0.006,0.07
			c-0.052,0.03-0.104,0.061-0.158,0.091c-0.427,0.463-1.023,0.699-1.72,0.862c-0.049-0.004-0.099-0.008-0.149-0.013
			c-0.001,0.011-0.002,0.023-0.002,0.034c-0.063-0.006-0.125-0.011-0.187-0.016c0,0.012-0.001,0.023-0.003,0.035
			c-0.073-0.006-0.148-0.013-0.222-0.019c-0.001,0.011-0.002,0.022-0.003,0.034c-0.112-0.01-0.223-0.019-0.334-0.029
			c-0.001,0.011-0.002,0.023-0.003,0.035c-0.177,0.03-0.842-0.075-0.963-0.118c-0.111-0.009-0.223-0.019-0.335-0.028
			c0.001-0.011,0.002-0.023,0.003-0.034c-0.074-0.006-0.149-0.013-0.222-0.019c0.001-0.011,0.001-0.023,0.002-0.035
			c-0.062-0.006-0.124-0.011-0.186-0.016c0.001-0.011,0.002-0.023,0.003-0.034c-0.049-0.004-0.099-0.009-0.148-0.013
			c0.001-0.012,0.002-0.023,0.003-0.035c-0.05-0.004-0.099-0.008-0.149-0.012c0.001-0.011,0.002-0.023,0.003-0.035
			c-0.049-0.004-0.1-0.009-0.149-0.013c0.001-0.011,0.002-0.023,0.003-0.035c-0.037-0.003-0.074-0.006-0.111-0.009
			c0.001-0.011,0.002-0.023,0.003-0.034c-0.037-0.003-0.074-0.006-0.111-0.01c0.001-0.012,0.002-0.022,0.003-0.034
			c-0.037-0.003-0.074-0.006-0.111-0.01c0.001-0.012,0.002-0.023,0.003-0.034c-0.074-0.018-0.146-0.036-0.221-0.053
			c0.001-0.011,0.002-0.024,0.003-0.035c-0.024-0.002-0.049-0.004-0.074-0.006c0.001-0.011,0.002-0.022,0.002-0.034
			c-0.037-0.003-0.074-0.006-0.111-0.01c0.001-0.011,0.002-0.023,0.003-0.034c-0.073-0.029-0.145-0.06-0.218-0.088
			c0.001-0.012,0.002-0.023,0.003-0.035c-0.025-0.002-0.05-0.004-0.074-0.006c0.001-0.011,0.002-0.023,0.003-0.034
			c-0.025-0.002-0.05-0.004-0.075-0.007c0.001-0.011,0.002-0.022,0.003-0.034c-0.061-0.017-0.121-0.034-0.182-0.05
			c-0.01-0.024-0.022-0.048-0.032-0.073c-0.024-0.002-0.05-0.004-0.074-0.006c0-0.011,0.001-0.023,0.002-0.034
			c-0.025-0.002-0.049-0.004-0.074-0.007c0-0.012,0.002-0.023,0.003-0.034c-0.025-0.002-0.049-0.004-0.074-0.006
			c0.001-0.012,0.001-0.024,0.003-0.035c-0.025-0.002-0.05-0.004-0.074-0.006c0.001-0.011,0.002-0.023,0.003-0.035
			c-0.036-0.014-0.073-0.029-0.109-0.043c-0.009-0.024-0.021-0.048-0.03-0.073c-0.048-0.015-0.097-0.031-0.146-0.047
			c0.001-0.012,0.002-0.023,0.003-0.034c-0.036-0.015-0.072-0.029-0.108-0.044c-0.01-0.024-0.021-0.048-0.031-0.072
			c-0.025-0.002-0.049-0.004-0.074-0.006c-0.022-0.036-0.044-0.073-0.066-0.11c-0.024-0.002-0.049-0.004-0.074-0.006
			c-0.022-0.037-0.043-0.073-0.066-0.11c-0.024-0.002-0.049-0.004-0.074-0.006c-0.021-0.036-0.044-0.073-0.065-0.11
			c-0.025-0.002-0.049-0.004-0.075-0.006c-0.044-0.062-0.089-0.124-0.134-0.185c-0.024-0.002-0.05-0.004-0.074-0.007
			c0.001-0.011,0.002-0.023,0.003-0.034c-0.046-0.038-0.093-0.078-0.14-0.116C364.059,404.302,363.994,404.137,363.821,404.074z"/>
		<path id="upaw2" fill="#231F20" d="M371.522,383.994c0.035-0.402,0.069-0.806,0.103-1.208c0.1-0.304,0.202-0.609,0.302-0.914
			c0.012,0.001,0.025,0.002,0.037,0.003c0.002-0.023,0.004-0.046,0.006-0.07c0.012,0.001,0.024,0.002,0.037,0.003
			c0.003-0.035,0.006-0.069,0.009-0.104c0.012,0.001,0.025,0.002,0.037,0.003c0.031-0.067,0.062-0.134,0.092-0.201
			c0.012,0.001,0.024,0.002,0.037,0.003c0.002-0.023,0.004-0.045,0.006-0.069c0.012,0.001,0.024,0.002,0.036,0.003
			c0.017-0.045,0.034-0.09,0.049-0.135c0.025-0.009,0.052-0.019,0.077-0.028c0.001-0.023,0.004-0.046,0.006-0.069
			c0.027-0.009,0.052-0.018,0.078-0.028c0.001-0.023,0.004-0.046,0.006-0.069c0.039-0.02,0.078-0.04,0.118-0.059
			c0.002-0.023,0.004-0.047,0.006-0.069c0.079-0.052,0.158-0.103,0.238-0.154c0.107-0.096,0.216-0.191,0.323-0.286
			c0.025,0.002,0.049,0.004,0.075,0.006c0.027-0.032,0.055-0.065,0.083-0.098c0.025,0.002,0.05,0.004,0.074,0.006
			c0.014-0.021,0.029-0.044,0.043-0.065c0.025,0.002,0.049,0.004,0.075,0.006c0.014-0.023,0.029-0.044,0.042-0.067
			c0.05-0.007,0.102-0.014,0.152-0.021c0.001-0.011,0.002-0.023,0.003-0.035c0.025,0.002,0.05,0.004,0.075,0.006
			c0.001-0.011,0.002-0.022,0.003-0.034c0.075-0.016,0.151-0.033,0.229-0.05c0.001-0.012,0.002-0.023,0.003-0.035
			c0.074-0.004,0.15-0.009,0.226-0.015c0.383-0.103,0.745-0.145,1.282-0.099c0.148,0.013,0.296,0.025,0.445,0.038
			c-0.001,0.011-0.001,0.022-0.003,0.035c0.087,0.008,0.174,0.015,0.26,0.022c-0.001,0.012-0.002,0.023-0.003,0.034
			c0.074,0.007,0.149,0.013,0.223,0.02c-0.001,0.011-0.002,0.023-0.003,0.035c0.099,0.019,0.197,0.04,0.295,0.059
			c-0.001,0.012-0.002,0.023-0.003,0.035c0.037,0.003,0.073,0.006,0.111,0.01c-0.001,0.012-0.002,0.023-0.003,0.034
			c0.037,0.003,0.074,0.006,0.11,0.009c-0.001,0.012-0.002,0.024-0.003,0.035c0.038,0.003,0.075,0.006,0.112,0.009
			c-0.001,0.011-0.002,0.023-0.003,0.035c0.038,0.003,0.074,0.006,0.112,0.009c1.229,0.621,2.288,1.463,2.966,2.515
			c0.047,0.038,0.093,0.077,0.14,0.116c-0.002,0.022-0.004,0.046-0.006,0.07c0.036,0.025,0.071,0.052,0.105,0.078
			c-0.002,0.024-0.004,0.047-0.006,0.07c0.036,0.025,0.071,0.052,0.106,0.079c-0.002,0.022-0.004,0.045-0.006,0.068
			c0.024,0.014,0.047,0.028,0.072,0.041c0.009,0.036,0.019,0.072,0.028,0.107c0.012,0.001,0.025,0.002,0.037,0.003
			c-0.002,0.023-0.004,0.045-0.006,0.07c0.025,0.013,0.048,0.026,0.072,0.04c0.008,0.047,0.017,0.094,0.025,0.142
			c0.023,0.014,0.048,0.027,0.071,0.041c0.008,0.048,0.017,0.094,0.025,0.141c0.023,0.013,0.047,0.027,0.071,0.041
			c-0.002,0.023-0.004,0.045-0.006,0.069c0.013,0.001,0.025,0.002,0.037,0.003c-0.002,0.023-0.004,0.045-0.006,0.069
			c0.013,0.001,0.025,0.002,0.038,0.003c-0.002,0.023-0.004,0.046-0.006,0.069c0.012,0.001,0.024,0.002,0.036,0.003
			c-0.002,0.023-0.004,0.046-0.006,0.069c0.013,0.001,0.025,0.002,0.038,0.003c-0.002,0.023-0.004,0.047-0.006,0.07
			c0.012,0.001,0.024,0.002,0.037,0.003c-0.001,0.022-0.004,0.046-0.006,0.069c0.012,0.001,0.024,0.002,0.037,0.003
			c0.019,0.072,0.038,0.143,0.057,0.214c0.012,0.001,0.024,0.002,0.037,0.003c-0.003,0.035-0.006,0.069-0.009,0.104
			c0.012,0.001,0.025,0.002,0.037,0.003c0.008,0.047,0.017,0.094,0.025,0.141c0.012,0.001,0.024,0.002,0.037,0.003
			c0.016,0.106,0.032,0.211,0.048,0.317c0.285,0.876,0.286,2.24-0.157,3.153c-0.034,0.102-0.067,0.203-0.101,0.305
			c-0.012-0.001-0.025-0.002-0.038-0.003c-0.002,0.023-0.004,0.046-0.006,0.069c-0.012-0.001-0.025-0.002-0.037-0.003
			c-0.002,0.023-0.004,0.047-0.006,0.07c-0.013-0.001-0.025-0.002-0.038-0.003c-0.002,0.023-0.004,0.046-0.006,0.069
			c-0.013-0.001-0.025-0.002-0.037-0.003c-0.002,0.024-0.004,0.047-0.006,0.07c-0.012-0.001-0.024-0.002-0.037-0.003
			c-0.002,0.023-0.004,0.046-0.006,0.069c-0.012-0.001-0.025-0.002-0.037-0.003c-0.002,0.022-0.004,0.047-0.006,0.069
			c-0.025,0.01-0.051,0.02-0.076,0.028c-0.002,0.023-0.004,0.046-0.006,0.07c-0.027,0.009-0.052,0.019-0.078,0.027
			c-0.002,0.023-0.004,0.046-0.006,0.069c-0.053,0.03-0.105,0.062-0.158,0.092c-0.002,0.023-0.004,0.046-0.006,0.069
			c-0.093,0.062-0.185,0.125-0.278,0.185c-0.041,0.043-0.082,0.086-0.123,0.129c-0.025-0.002-0.049-0.004-0.074-0.006
			c-0.041,0.043-0.082,0.085-0.123,0.129c-0.024-0.002-0.049-0.004-0.074-0.007c-0.015,0.022-0.03,0.045-0.043,0.066
			c-0.025-0.002-0.05-0.004-0.074-0.006c-0.015,0.022-0.029,0.044-0.043,0.066c-0.077,0.018-0.153,0.034-0.229,0.05
			c-0.001,0.012-0.002,0.024-0.003,0.035c-0.025-0.002-0.05-0.004-0.075-0.006c-0.001,0.011-0.002,0.023-0.002,0.034
			c-0.076,0.017-0.152,0.034-0.229,0.05c-0.001,0.011-0.002,0.023-0.003,0.035c-0.037-0.003-0.074-0.006-0.111-0.009
			c-0.001,0.011-0.002,0.022-0.003,0.034c-0.024-0.002-0.049-0.004-0.074-0.007c-0.001,0.012-0.002,0.023-0.003,0.035
			c-0.138,0.011-0.276,0.023-0.414,0.035c-0.001,0.011-0.002,0.023-0.003,0.034c-0.062-0.005-0.124-0.011-0.186-0.016
			c-0.001,0.012-0.002,0.023-0.003,0.035c-0.074-0.006-0.149-0.013-0.223-0.019c-0.127,0.022-0.837,0.009-1.007-0.051
			c0.001-0.012,0.002-0.024,0.003-0.035c-0.086-0.007-0.172-0.015-0.26-0.022c0.001-0.012,0.002-0.022,0.003-0.035
			c-0.063-0.005-0.123-0.01-0.186-0.016c0.001-0.011,0.002-0.023,0.003-0.034c-0.05-0.004-0.1-0.008-0.149-0.013
			c0.001-0.011,0.002-0.023,0.003-0.035c-0.038-0.003-0.074-0.007-0.111-0.01c0.001-0.011,0.002-0.023,0.003-0.034
			c-0.05-0.004-0.1-0.008-0.149-0.013c0.001-0.011,0.002-0.023,0.003-0.034c-0.037-0.003-0.075-0.007-0.111-0.01
			c0.001-0.011,0.002-0.023,0.003-0.035c-0.024-0.002-0.049-0.004-0.074-0.006c0.001-0.011,0.002-0.023,0.003-0.034
			c-0.097-0.049-0.203-0.042-0.291-0.094c0.001-0.011,0.002-0.023,0.003-0.034c-0.049-0.016-0.098-0.032-0.146-0.048
			c0.001-0.011,0.002-0.022,0.003-0.034c-0.037-0.003-0.074-0.007-0.111-0.01c0.001-0.011,0.002-0.023,0.003-0.034
			c-0.024-0.002-0.05-0.004-0.074-0.006c0.001-0.012,0.001-0.023,0.002-0.035c-0.024-0.002-0.049-0.004-0.074-0.006
			c-0.01-0.024-0.021-0.049-0.031-0.073c-0.025-0.002-0.05-0.004-0.074-0.006c0.001-0.011,0.002-0.023,0.002-0.034
			c-0.024-0.002-0.05-0.004-0.075-0.006c0.001-0.011,0.002-0.023,0.003-0.035c-0.025-0.002-0.049-0.004-0.074-0.007
			c0.001-0.011,0.002-0.022,0.002-0.034c-0.024-0.002-0.049-0.004-0.074-0.006c-0.01-0.024-0.021-0.048-0.031-0.072
			c-0.049-0.016-0.097-0.032-0.146-0.048c-0.01-0.024-0.022-0.048-0.032-0.072c-0.048-0.015-0.098-0.032-0.146-0.047
			c-0.01-0.023-0.021-0.048-0.032-0.072c-0.024-0.002-0.05-0.004-0.074-0.007c-0.022-0.037-0.044-0.073-0.065-0.11
			c-0.026-0.002-0.05-0.004-0.075-0.006c-0.01-0.025-0.021-0.049-0.031-0.073c-0.024-0.002-0.05-0.004-0.074-0.006
			c-0.01-0.023-0.021-0.048-0.032-0.072c-0.036-0.015-0.071-0.03-0.108-0.044c-0.022-0.037-0.044-0.073-0.065-0.11
			c-0.025-0.002-0.05-0.004-0.075-0.006c-0.021-0.036-0.043-0.073-0.065-0.109c-0.036-0.014-0.072-0.029-0.108-0.044
			c-0.067-0.086-0.135-0.173-0.203-0.26c-0.025-0.002-0.05-0.004-0.074-0.006c-0.056-0.075-0.112-0.149-0.169-0.224
			c-0.114-0.114-0.229-0.229-0.344-0.343c0.002-0.022,0.004-0.045,0.006-0.069c-0.081-0.077-0.162-0.153-0.243-0.229
			c0.002-0.023,0.004-0.046,0.006-0.069c-0.035-0.026-0.07-0.053-0.105-0.079c-0.008-0.035-0.019-0.072-0.028-0.106
			c-0.024-0.014-0.048-0.028-0.071-0.041c0.002-0.023,0.004-0.046,0.006-0.069c-0.024-0.013-0.048-0.027-0.071-0.041
			c0.002-0.023,0.004-0.046,0.006-0.069c-0.035-0.026-0.071-0.052-0.106-0.079c-0.008-0.047-0.017-0.094-0.025-0.142
			c-0.024-0.013-0.048-0.027-0.071-0.041c0.001-0.022,0.004-0.046,0.006-0.069c-0.012-0.001-0.025-0.002-0.037-0.003
			c0.002-0.023,0.004-0.046,0.006-0.069c-0.012-0.001-0.025-0.002-0.037-0.003c0.002-0.023,0.004-0.046,0.006-0.069
			c-0.012-0.001-0.024-0.002-0.037-0.003c0.002-0.023,0.004-0.046,0.006-0.069c-0.25-0.451-0.4-1.009-0.583-1.512
			c-0.005-0.081-0.011-0.163-0.016-0.244c-0.013-0.001-0.025-0.002-0.038-0.003c0.003-0.034,0.006-0.069,0.009-0.104
			c-0.013-0.001-0.024-0.002-0.037-0.003c0.004-0.046,0.008-0.091,0.012-0.138c-0.012-0.001-0.024-0.002-0.037-0.003
			c0.004-0.047,0.008-0.092,0.012-0.138c-0.012-0.001-0.024-0.002-0.037-0.003c0.008-0.092,0.016-0.185,0.024-0.277
			C371.547,383.997,371.534,383.995,371.522,383.994z"/>
		<path id="upaw" fill="#231F20" d="M382.692,384.252c0.195-1.62,0.9-2.58,2.063-3.129c0.051-0.007,0.102-0.015,0.152-0.021
			c0.001-0.011,0.002-0.023,0.003-0.035c0.05-0.007,0.101-0.014,0.151-0.021c0.001-0.011,0.002-0.023,0.003-0.034
			c0.037,0.003,0.074,0.006,0.112,0.01c0.001-0.012,0.001-0.023,0.002-0.034c0.024,0.002,0.05,0.004,0.074,0.006
			c0.001-0.011,0.002-0.023,0.003-0.035c0.037,0.003,0.074,0.006,0.111,0.009c0.001-0.011,0.002-0.022,0.003-0.034
			c0.037,0.003,0.074,0.006,0.111,0.009c0.001-0.012,0.002-0.023,0.003-0.034c0.037,0.003,0.074,0.006,0.111,0.01
			c0.001-0.012,0.002-0.024,0.003-0.035c0.063,0.005,0.125,0.011,0.187,0.016c0-0.011,0.002-0.023,0.003-0.035
			c0.062,0.005,0.124,0.01,0.186,0.016c0.001-0.011,0.002-0.022,0.003-0.034c0.087,0.008,0.173,0.015,0.26,0.022
			c0.12-0.02,0.58-0.03,0.747,0.029c-0.001,0.011-0.002,0.022-0.003,0.034c0.111,0.01,0.223,0.019,0.334,0.028
			c0.327,0.109,0.655,0.219,0.983,0.327c-0.001,0.012-0.002,0.023-0.003,0.035c0.026,0.002,0.05,0.004,0.075,0.006
			c-0.001,0.012-0.002,0.023-0.002,0.034c0.037,0.003,0.074,0.006,0.111,0.01c-0.001,0.012-0.002,0.023-0.003,0.035
			c0.024,0.002,0.05,0.004,0.074,0.006c-0.001,0.011-0.002,0.023-0.003,0.035c0.038,0.003,0.075,0.006,0.112,0.009
			c-0.001,0.011-0.002,0.022-0.003,0.034c0.072,0.029,0.146,0.059,0.218,0.088c-0.001,0.011-0.002,0.023-0.003,0.035
			c0.024,0.002,0.05,0.004,0.073,0.006c0,0.012-0.002,0.023-0.003,0.034c0.073,0.03,0.146,0.059,0.218,0.088
			c0.01,0.024,0.021,0.048,0.031,0.072c0.073,0.03,0.146,0.059,0.218,0.088c0.01,0.024,0.021,0.048,0.031,0.073
			c0.024,0.002,0.05,0.004,0.074,0.006c0.01,0.023,0.021,0.048,0.031,0.072c0.025,0.002,0.05,0.004,0.074,0.006
			c0.01,0.024,0.021,0.048,0.031,0.073c0.025,0.002,0.05,0.004,0.074,0.006c0.011,0.023,0.021,0.049,0.032,0.073
			c0.025,0.002,0.05,0.004,0.074,0.006c0.011,0.024,0.021,0.048,0.031,0.072c0.025,0.002,0.05,0.004,0.074,0.006
			c0.022,0.037,0.043,0.073,0.065,0.11c0.025,0.002,0.049,0.004,0.074,0.006c0.034,0.05,0.067,0.099,0.1,0.148
			c0.025,0.002,0.049,0.004,0.074,0.006c0.045,0.062,0.089,0.124,0.135,0.185c0.024,0.002,0.049,0.004,0.074,0.006
			c0.101,0.125,0.203,0.25,0.304,0.375c0.104,0.102,0.208,0.204,0.312,0.304c-0.002,0.023-0.004,0.047-0.006,0.07
			c0.07,0.063,0.139,0.128,0.208,0.191c0.01,0.036,0.019,0.072,0.029,0.107c0.035,0.026,0.07,0.053,0.105,0.08
			c-0.002,0.023-0.004,0.045-0.006,0.069c0.024,0.013,0.048,0.027,0.072,0.04c-0.002,0.023-0.004,0.047-0.006,0.07
			c0.034,0.026,0.069,0.052,0.104,0.079c-0.001,0.022-0.003,0.046-0.006,0.069c0.024,0.014,0.048,0.028,0.072,0.041
			c0.009,0.036,0.018,0.071,0.028,0.107c0.012,0.001,0.025,0.002,0.037,0.003c-0.002,0.022-0.004,0.046-0.006,0.068
			c0.025,0.014,0.048,0.028,0.071,0.042c0.009,0.047,0.018,0.094,0.025,0.141c0.024,0.013,0.048,0.027,0.071,0.041
			c0.009,0.048,0.017,0.094,0.025,0.141c0.024,0.013,0.048,0.027,0.071,0.041c0.019,0.072,0.038,0.143,0.057,0.214
			c0.012,0.001,0.025,0.002,0.037,0.003c-0.002,0.023-0.004,0.046-0.006,0.07c0.013,0.001,0.025,0.002,0.038,0.003
			c-0.002,0.022-0.004,0.045-0.006,0.068c0.013,0.001,0.024,0.002,0.037,0.003c0.019,0.072,0.038,0.142,0.056,0.214
			c0.012,0.001,0.025,0.002,0.038,0.003c0.007,0.058,0.015,0.116,0.022,0.175c0.012,0.001,0.025,0.002,0.038,0.003
			c-0.002,0.023-0.004,0.047-0.006,0.07c0.012,0,0.025,0.002,0.037,0.003c-0.003,0.034-0.006,0.069-0.009,0.103
			c0.012,0.001,0.025,0.002,0.038,0.003c-0.002,0.023-0.004,0.047-0.006,0.07c0.013,0.001,0.024,0.002,0.037,0.003
			c-0.003,0.035-0.006,0.07-0.009,0.104c0.013,0.001,0.025,0.002,0.037,0.003c-0.003,0.035-0.006,0.069-0.009,0.104
			c0.013,0.001,0.025,0.002,0.038,0.003c-0.003,0.034-0.006,0.07-0.009,0.104c0.012,0.001,0.024,0.002,0.037,0.003
			c-0.003,0.035-0.006,0.069-0.009,0.104c0.152,0.472,0.211,1.018,0.159,1.648c-0.018,0.207-0.036,0.415-0.053,0.622
			c-0.013-0.001-0.026-0.002-0.038-0.003c-0.007,0.08-0.014,0.161-0.021,0.242c-0.013-0.001-0.025-0.002-0.037-0.003
			c-0.005,0.058-0.01,0.115-0.015,0.173c-0.012-0.001-0.025-0.002-0.038-0.003c-0.004,0.046-0.008,0.091-0.012,0.137
			c-0.012-0.001-0.024-0.002-0.037-0.003c-0.004,0.046-0.008,0.093-0.012,0.139c-0.013-0.001-0.024-0.002-0.037-0.003
			c-0.034,0.101-0.067,0.203-0.101,0.304c-0.012-0.001-0.024-0.002-0.037-0.003c-0.031,0.067-0.062,0.135-0.092,0.201
			c-0.012,0-0.024-0.002-0.037-0.003c-0.002,0.023-0.004,0.047-0.006,0.07c-0.013-0.001-0.024-0.002-0.037-0.003
			c-0.031,0.067-0.061,0.133-0.092,0.201c-0.026,0.009-0.051,0.02-0.077,0.028c-0.002,0.023-0.004,0.046-0.006,0.069
			c-0.012-0.001-0.025-0.002-0.038-0.003c-0.015,0.033-0.031,0.067-0.045,0.101c-0.026,0.009-0.052,0.018-0.078,0.027
			c-0.002,0.023-0.004,0.046-0.006,0.07c-0.079,0.051-0.159,0.102-0.238,0.153c-0.121,0.105-0.243,0.211-0.363,0.317
			c-0.025-0.002-0.05-0.004-0.075-0.006c-0.028,0.033-0.055,0.064-0.083,0.098c-0.026-0.002-0.05-0.004-0.075-0.006
			c-0.014,0.021-0.029,0.044-0.043,0.065c-0.05,0.007-0.101,0.015-0.151,0.021c-0.014,0.023-0.028,0.044-0.043,0.067
			c-0.05,0.007-0.101,0.015-0.152,0.021c-0.001,0.011-0.002,0.024-0.003,0.034c-0.05,0.008-0.101,0.015-0.151,0.022
			c-0.001,0.011-0.001,0.023-0.003,0.035c-0.038-0.003-0.074-0.006-0.111-0.009c-0.001,0.011-0.002,0.022-0.003,0.034
			c-0.025-0.002-0.049-0.004-0.075-0.006c-0.001,0.011-0.002,0.022-0.003,0.034c-0.036-0.003-0.073-0.006-0.111-0.009
			c-0.001,0.012-0.002,0.022-0.003,0.034c-0.037-0.003-0.074-0.006-0.112-0.009c-0.001,0.011-0.001,0.023-0.002,0.035
			c-0.05-0.004-0.099-0.008-0.148-0.012c-0.001,0.011-0.002,0.022-0.003,0.034c-0.05-0.005-0.099-0.009-0.148-0.013
			c-0.001,0.011-0.002,0.023-0.003,0.035c-0.062-0.005-0.124-0.011-0.186-0.016c-0.154,0.028-0.752,0.066-0.972-0.013
			c0.001-0.012,0.002-0.023,0.003-0.035c-0.111-0.009-0.223-0.019-0.334-0.028c0.001-0.011,0.002-0.023,0.003-0.034
			c-0.062-0.005-0.125-0.01-0.187-0.016c0.001-0.011,0.002-0.023,0.003-0.034c-0.062-0.005-0.124-0.01-0.186-0.016
			c0.001-0.012,0.002-0.023,0.003-0.034c-0.05-0.004-0.1-0.009-0.148-0.013c0.001-0.011,0.002-0.023,0.003-0.035
			c-0.037-0.003-0.075-0.006-0.111-0.01c0.001-0.011,0.002-0.022,0.003-0.034c-0.05-0.004-0.1-0.008-0.149-0.013
			c0.001-0.012,0.002-0.023,0.003-0.035c-0.025-0.002-0.05-0.004-0.074-0.006c0.001-0.011,0.002-0.023,0.003-0.034
			c-0.074-0.018-0.147-0.037-0.221-0.054c0.001-0.011,0.002-0.022,0.003-0.034c-0.025-0.002-0.05-0.004-0.074-0.006
			c0.001-0.011,0.002-0.023,0.003-0.034c-0.038-0.003-0.074-0.006-0.112-0.009c0.001-0.012,0.002-0.023,0.003-0.035
			c-0.071-0.029-0.145-0.06-0.216-0.089c0-0.011,0.002-0.023,0.002-0.034c-0.024-0.002-0.049-0.004-0.074-0.006
			c0.001-0.012,0.002-0.023,0.003-0.035c-0.025-0.002-0.049-0.004-0.074-0.007c0.001-0.011,0.002-0.022,0.003-0.034
			c-0.025-0.002-0.05-0.004-0.074-0.006c0.001-0.011,0.002-0.023,0.003-0.035c-0.025-0.002-0.049-0.004-0.074-0.006
			c0.001-0.012,0.002-0.023,0.003-0.034c-0.024-0.002-0.049-0.004-0.074-0.007c0.001-0.012,0.002-0.023,0.003-0.035
			c-0.025-0.002-0.049-0.004-0.074-0.006c0.001-0.011,0.002-0.023,0.003-0.034c-0.024-0.002-0.049-0.004-0.074-0.006
			c0.001-0.012,0.002-0.024,0.003-0.035c-0.037-0.014-0.072-0.028-0.108-0.043c-0.01-0.024-0.021-0.048-0.032-0.072
			c-0.048-0.016-0.097-0.032-0.145-0.047c-0.011-0.024-0.02-0.049-0.031-0.073c-0.025-0.002-0.05-0.004-0.075-0.006
			c-0.021-0.037-0.044-0.074-0.064-0.11c-0.025-0.002-0.05-0.004-0.074-0.006c-0.011-0.024-0.021-0.048-0.031-0.073
			c-0.025-0.002-0.05-0.004-0.075-0.006c-0.022-0.037-0.043-0.073-0.065-0.11c-0.025-0.002-0.049-0.004-0.074-0.006
			c-0.033-0.049-0.066-0.098-0.1-0.147c-0.025-0.002-0.049-0.004-0.074-0.006c-0.056-0.074-0.112-0.148-0.167-0.223
			c-0.025-0.002-0.049-0.004-0.075-0.006c-0.147-0.175-0.295-0.35-0.442-0.524c-0.139-0.14-0.275-0.279-0.413-0.419
			c0.002-0.022,0.004-0.046,0.006-0.068c-0.07-0.064-0.14-0.128-0.209-0.192c0.002-0.023,0.004-0.046,0.006-0.069
			c-0.035-0.026-0.07-0.053-0.105-0.079c0.002-0.024,0.004-0.047,0.006-0.07c-0.036-0.025-0.071-0.053-0.105-0.079
			c0.001-0.023,0.004-0.046,0.006-0.069c-0.024-0.014-0.048-0.028-0.071-0.042c-0.009-0.047-0.018-0.095-0.025-0.142
			c-0.024-0.013-0.048-0.026-0.071-0.041c-0.019-0.071-0.038-0.142-0.057-0.214c-0.023-0.013-0.047-0.026-0.07-0.041
			c0.002-0.023,0.004-0.046,0.006-0.069c-0.012,0-0.025-0.002-0.038-0.003c0.002-0.023,0.004-0.046,0.006-0.07
			c-0.012-0.001-0.025-0.002-0.037-0.003c0.001-0.023,0.003-0.046,0.006-0.069c-0.012,0-0.024-0.002-0.037-0.003
			c0.002-0.023,0.004-0.046,0.006-0.069c-0.013-0.001-0.025-0.002-0.038-0.003c0.002-0.023,0.004-0.045,0.006-0.069
			c-0.011-0.001-0.024-0.002-0.038-0.003c-0.018-0.071-0.037-0.143-0.056-0.213c-0.012,0-0.025-0.002-0.037-0.003
			c-0.007-0.059-0.015-0.118-0.022-0.176c-0.013-0.001-0.025-0.002-0.037-0.003c0.002-0.023,0.003-0.046,0.006-0.069
			c-0.013-0.001-0.025-0.002-0.038-0.003c0.003-0.035,0.006-0.069,0.009-0.104c-0.012-0.001-0.024-0.002-0.037-0.003
			c0.002-0.023,0.004-0.046,0.006-0.069c-0.012-0.001-0.024-0.002-0.037-0.003c0.002-0.033,0.006-0.069,0.009-0.104
			c-0.012-0.001-0.025-0.002-0.038-0.003c0.002-0.022,0.004-0.046,0.006-0.069c-0.012-0.001-0.024-0.002-0.037-0.003
			c0.003-0.035,0.006-0.07,0.009-0.104c-0.012-0.001-0.025-0.002-0.037-0.003c0.003-0.034,0.006-0.069,0.009-0.104
			c-0.012-0.001-0.026-0.002-0.038-0.003c0.003-0.034,0.006-0.069,0.009-0.103c-0.012-0.001-0.024-0.002-0.037-0.003
			c0.003-0.034,0.006-0.069,0.009-0.104c-0.013-0.001-0.025-0.002-0.037-0.003c-0.014-0.141-0.026-0.28-0.039-0.42
			c-0.013-0.001-0.025-0.002-0.038-0.003c-0.008-0.198-0.016-0.396-0.023-0.593C382.7,384.51,382.752,384.328,382.692,384.252z"/>
	</g>
	<path fill-rule="evenodd" clip-rule="evenodd" fill="none" stroke="#231F20" stroke-width="3" stroke-miterlimit="10" d="
		M403.761,437.575c0,0,9.738-28.075,29.738-16.075s34-2.689,38-13.845s-2.725-18.706,8.638-21.431s31.433,5.965,37.397-4.38
		S529.5,354.5,537.5,356.5"/>
	<path fill-rule="evenodd" clip-rule="evenodd" fill="none" stroke="#231F20" stroke-width="3" stroke-miterlimit="10" d="
		M431.374,467.461c0,0,9.738-28.075,29.738-16.075s34-2.689,38-13.845c4-11.155-2.725-18.706,8.637-21.431
		c11.363-2.725,31.434,5.965,37.398-4.38s11.965-27.345,19.965-25.345"/>
	<path fill-rule="evenodd" clip-rule="evenodd" fill="none" stroke="#231F20" stroke-width="3" stroke-miterlimit="10" d="
		M463.236,492.078c0,0,9.738-28.074,29.738-16.074c20,12,34-2.689,38-13.845s-2.725-18.706,8.637-21.431
		c11.363-2.725,31.434,5.965,37.398-4.38s11.965-27.345,19.965-25.345"/>
	<path fill-rule="evenodd" clip-rule="evenodd" fill="none" stroke="#231F20" stroke-width="3" stroke-miterlimit="10" d="
		M441.489,369.549c0,0,3.167-9.13,9.672-5.228c6.504,3.903,11.058-0.875,12.358-4.502s-0.886-6.083,2.809-6.97
		s10.223,1.94,12.163-1.424c1.94-3.365,3.891-8.894,6.493-8.243"/>
</g>
<g id="Layer_8">
	<path fill="none" d="M414.5,371.5c3.761-0.212,11.917-6.29,16-8c4.832-2.023,10.529-3.823,15-6.003
		c9.559-4.662,24.165-5.235,30-15.997"/>
	<path fill="none" d="M463.5,390.5c-3.546-17.674,29.815-7.144,30.144-18.829c6.305-5.629,10.925-10.415,20.856-10.171"/>
</g>
<g id="paw4">
</g>
<g id="paw3">
</g>
<g id="paw2">
</g>
</svg>
