<?xml version="1.0" encoding="utf-8"?>
<!-- Generator: Adobe Illustrator 16.0.0, SVG Export Plug-In . SVG Version: 6.00 Build 0)  -->
<!DOCTYPE svg PUBLIC "-//W3C//DTD SVG 1.1//EN" "http://www.w3.org/Graphics/SVG/1.1/DTD/svg11.dtd">
<svg version="1.1" xmlns="http://www.w3.org/2000/svg" xmlns:xlink="http://www.w3.org/1999/xlink" x="0px" y="0px" width="1000px"
	 height="1000px" viewBox="0 0 1000 1000" enable-background="new 0 0 1000 1000" xml:space="preserve">
<g id="Layer_1">
	<g display="none">
		<path display="inline" d="M250.5,396.779h4.752v67.393H250.5V396.779z"/>
	</g>
	
		<rect x="172.5" y="357.734" fill="#FFFFFF" stroke="#000000" stroke-width="3" stroke-miterlimit="10" width="593.782" height="456.012"/>
	<div  class="typewriter">
		
			<text  transform="matrix(1 0 0 1 264.0769 578.5002)" startOffset="0" font-size="72" font-family="&apos;Montserrat-Regular&apos;">
			www.???.com</text>
	</div>
	
		<ellipse display="none" fill="#231F20" stroke="#000000" stroke-miterlimit="10" cx="565.363" cy="298.5" rx="65.438" ry="58.798"/>
	<path display="none" fill="#FFFFFF" stroke="#000000" stroke-miterlimit="10" d="M516.391,340.792c0,0,30.432,36.218,21.797-3.646
		C538.188,337.146,535.117,333.476,516.391,340.792z"/>
	<path fill="#FFFFFF" stroke="#000000" stroke-width="2" stroke-miterlimit="10" d="M622.364,594.948
		c0,62.785-67.555,113.683-150.896,113.683c-83.337,0-150.897-50.897-150.897-113.683c0-62.786,67.561-113.685,150.897-113.685
		C554.809,481.262,622.364,532.161,622.364,594.948z"/>
	<ellipse display="none" fill="#FFFFFF" stroke="#000000" stroke-miterlimit="10" cx="609.5" cy="290" rx="11.484" ry="27.5"/>
	<path fill="#231F20" stroke="#000000" stroke-width="3" stroke-miterlimit="10" d="M294.189,500.74
		c0,0,33.013-210.795,241.613-112.502C744.405,486.53,294.189,500.74,294.189,500.74z"/>
	<path fill="#231F20" stroke="#000000" stroke-width="3" stroke-miterlimit="10" d="M387.16,580.085l-17.881-117.146
		c0,0,77.405-184.32,221.446-33.802l9.592,62.858c0,0-106.752-3.167-205.616,81.45C392.179,575.601,389.666,577.814,387.16,580.085z
		"/>
	<path fill="#231F20" stroke="#000000" stroke-width="2" stroke-miterlimit="10" d="M561.877,606.237l-180.12-28.057
		c0,0,96.578-79.065,213.159-88.09l131.987,10.553C726.903,500.643,591.041,499.453,561.877,606.237z"/>
	<path fill="#231F20" stroke="#000000" stroke-width="3" stroke-miterlimit="10" d="M369.896,462.081
		c0,0-62.462-5.478-73.363,29.167c-10.9,34.645,19.751,100.146,19.751,100.146l69.23-14.458L369.896,462.081z"/>
	<polygon fill="#DDDDDD" stroke="#000000" stroke-width="2" stroke-miterlimit="10" points="481.066,431.429 471.717,475.044 
		515.406,461.765 	"/>
	<polygon display="none" fill="#FFFFFF" stroke="#000000" stroke-width="2" stroke-miterlimit="10" points="500.77,339.715 
		486.31,357.542 506.114,371.696 515.371,365.079 511.948,344.592 	"/>
	<path display="none" fill="#FFFFFF" stroke="#000000" stroke-miterlimit="10" d="M497.156,376.5c0,0-7.844,5,0,19s41.92,0,41.92,0
		l12.924-26l10.926,26l11.891-1l-11.891-41c0,0-8.773-14-23.85,0S512,374.5,512,374.5L497.156,376.5z"/>
	<path fill="#FFFFFF" stroke="#000000" stroke-width="2" stroke-miterlimit="10" d="M381.757,626.92
		c0,0-166.257,185.58-54.257,243.58s167.813,51,187.906,41s108.992-70.813,50.094-152c0,0,2,39-18,53s-66.408,78.217-143-17.151
		c0,0-21.442-0.849-35.221-15.849"/>
	<path display="none" fill="#FFFFFF" stroke="#000000" stroke-miterlimit="10" d="M497.156,359.5l-6.855,35
		c0,0,30.199-9.479,30.949-26.24"/>
	<path fill="#FFFFFF" stroke="#000000" stroke-width="2" stroke-miterlimit="10" d="M410.896,803.022
		c0,0,141.268-83.521,121.436-148.521"/>
	<path fill="#FFFFFF" stroke="#000000" stroke-width="2" stroke-miterlimit="10" d="M324.622,461.669c0,0-23.684,40.263,0,56.842
		l28.421-28.421C353.043,490.09,331.727,497.196,324.622,461.669z"/>
	
		<ellipse fill="#FFFFFF" stroke="#000000" stroke-width="2" stroke-miterlimit="10" cx="453.92" cy="668.647" rx="26.142" ry="28.17"/>
	
		<ellipse fill="#FFFFFF" stroke="#000000" stroke-width="2" stroke-miterlimit="10" cx="638.5" cy="696.788" rx="52.268" ry="69.868"/>
	
		<ellipse fill="#FFFFFF" stroke="#000000" stroke-width="2" stroke-miterlimit="10" cx="532.331" cy="739.139" rx="52.269" ry="69.869"/>
	<path display="none" fill="#FFFFFF" stroke="#000000" stroke-miterlimit="10" d="M542.776,384.5c0,0-11.276,12-33.276,0
		c0,0-5.297,4.553-13.931-7.724l1.587-17.276"/>
	<polygon fill="#FFFFFF" stroke="#000000" stroke-width="3" stroke-miterlimit="10" points="172.5,357.734 413.656,223.635 
		878.96,223.635 766.282,357.734 	"/>
	<polygon fill="#FFFFFF" stroke="#000000" stroke-width="3" stroke-miterlimit="10" points="766.282,813.745 766.282,357.734 
		878.96,223.635 878.96,610.975 	"/>
	
		<ellipse fill="#FFFFFF" stroke="#000000" stroke-width="2" stroke-miterlimit="10" cx="542.131" cy="742.215" rx="34.438" ry="53.134"/>
	
		<ellipse fill="#FFFFFF" stroke="#000000" stroke-width="2" stroke-miterlimit="10" cx="652.123" cy="699.184" rx="29.759" ry="53.134"/>
</g>
<g id="Layer_2">
</g>
</svg>
