<?xml version="1.0" encoding="utf-8"?>
<!-- Generator: Adobe Illustrator 16.0.0, SVG Export Plug-In . SVG Version: 6.00 Build 0)  -->
<!DOCTYPE svg PUBLIC "-//W3C//DTD SVG 1.1//EN" "http://www.w3.org/Graphics/SVG/1.1/DTD/svg11.dtd">
<svg version="1.1" id="Layer_1" xmlns="http://www.w3.org/2000/svg" xmlns:xlink="http://www.w3.org/1999/xlink" x="0px" y="0px"
	 viewBox="0 0 666 531" style="enable-background:new 0 0 666 531;" xml:space="preserve">
<style type="text/css">
<![CDATA[
	.st0{fill:none;stroke:#000000;stroke-width:5;stroke-miterlimit:10;}
]]>
</style>
<circle class="st0" cx="342" cy="243" r="63"/>
<g>
	<path class="st0" d="M37.5,369.5c-11,0-20,9-20,20v32c0,11,9,20,20,20h32c11,0,20,9,20,20v32c0,11,9,20,20,20h176c11,0,20-9,20-20
		v-32c0-11-9-20-20-20h-104c-11,0-20-9-20-20v-32c0-11-9-20-20-20H37.5z"/>
</g>
<path class="st0" d="M-171,216"/>
<circle class="st0" cx="36" cy="342" r="18"/>
<polyline class="st0" points="35.5,369 35.5,351 45,342 "/>
<line class="st0" x1="27" y1="342" x2="35.5" y2="351"/>
<circle class="st0" cx="90" cy="342" r="18"/>
<polyline class="st0" points="89.5,369 89.5,351 99,342 "/>
<line class="st0" x1="81" y1="342" x2="89.5" y2="351"/>
<circle class="st0" cx="234" cy="414" r="18"/>
<polyline class="st0" points="233.5,441 233.5,423 243,414 "/>
<line class="st0" x1="225" y1="414" x2="233.5" y2="423"/>
<g>
	<path class="st0" d="M63,405c0,0,13.5-4.5,9-9"/>
</g>
<g>
	<path class="st0" d="M63,405c0,0,13.5-4.5,9-9l9,9"/>
</g>
<g>
	<path class="st0" d="M81,405c0,0,13.5-4.5,9-9"/>
</g>
<g>
	<path class="st0" d="M81,405c0,0,13.5-4.5,9-9l9,9"/>
</g>
<rect x="17.5" y="9.5" class="st0" width="72" height="144"/>
<rect x="125.5" y="9.5" class="st0" width="72" height="144"/>
<line class="st0" x1="26.5" y1="27" x2="26.5" y2="45"/>
<line class="st0" x1="53.5" y1="27" x2="53.5" y2="45"/>
<line class="st0" x1="80.5" y1="27" x2="80.5" y2="45"/>
<line class="st0" x1="26.5" y1="63" x2="26.5" y2="81"/>
<line class="st0" x1="53.5" y1="63" x2="53.5" y2="81"/>
<line class="st0" x1="80.5" y1="63" x2="80.5" y2="81"/>
<line class="st0" x1="26.5" y1="99" x2="26.5" y2="117"/>
<line class="st0" x1="53.5" y1="99" x2="53.5" y2="117"/>
<line class="st0" x1="80.5" y1="99" x2="80.5" y2="117"/>
<line class="st0" x1="134.5" y1="27" x2="134.5" y2="45"/>
<line class="st0" x1="161.5" y1="27" x2="161.5" y2="45"/>
<line class="st0" x1="188.5" y1="27" x2="188.5" y2="45"/>
<line class="st0" x1="134.5" y1="63" x2="134.5" y2="81"/>
<line class="st0" x1="161.5" y1="63" x2="161.5" y2="81"/>
<line class="st0" x1="188.5" y1="63" x2="188.5" y2="81"/>
<line class="st0" x1="134.5" y1="99" x2="134.5" y2="117"/>
<line class="st0" x1="161.5" y1="99" x2="161.5" y2="117"/>
<line class="st0" x1="188.5" y1="99" x2="188.5" y2="117"/>
<line class="st0" x1="594" y1="9" x2="549" y2="81"/>
<line class="st0" x1="594" y1="9" x2="639" y2="81"/>
</svg>
