<?xml version="1.0" encoding="utf-8"?>
<!-- Generator: Adobe Illustrator 16.0.0, SVG Export Plug-In . SVG Version: 6.00 Build 0)  -->
<!DOCTYPE svg PUBLIC "-//W3C//DTD SVG 1.1//EN" "http://www.w3.org/Graphics/SVG/1.1/DTD/svg11.dtd">
<svg version="1.1" id="Layer_1" xmlns="http://www.w3.org/2000/svg" xmlns:xlink="http://www.w3.org/1999/xlink" x="0px" y="0px"
	 viewBox="0 0 1000 1000" style="enable-background:new 0 0 1000 1000;" xml:space="preserve">
<style type="text/css">
<![CDATA[
	.st0{fill:none;stroke:#000000;stroke-width:8;stroke-miterlimit:10;}
	.st1{display:none;fill:none;stroke:#000000;stroke-width:8;stroke-miterlimit:10;}
]]>
</style>
<path class="st0" d="M288,637c0,6.627-5.373,12-12,12H12c-6.627,0-12-5.373-12-12V227c0-6.627,5.373-12,12-12h264
	c6.627,0,12,5.373,12,12V637z"/>
<path class="st0" d="M648,638c0,6.627-5.373,12-12,12H372c-6.627,0-12-5.373-12-12V228c0-6.627,5.373-12,12-12h264
	c6.627,0,12,5.373,12,12V638z"/>
<path class="st0" d="M999,638c0,6.627-5.373,12-12,12H723c-6.627,0-12-5.373-12-12V228c0-6.627,5.373-12,12-12h264
	c6.627,0,12,5.373,12,12V638z"/>
<path class="st1" d="M288,360c0,0,36,63,72,0"/>
<g>
	<path class="st0" d="M18,198l116.809-50.061C139.864,145.772,148.5,144,154,144h206"/>
</g>
<g>
	<path class="st0" d="M360,198l116.809-50.061C481.864,145.772,490.5,144,496,144h206"/>
</g>
<g>
	<path class="st0" d="M720,198l116.809-50.061C841.864,145.772,850.5,144,856,144h206"/>
</g>
</svg>
