<?xml version="1.0" encoding="utf-8"?>
<!-- Generator: Adobe Illustrator 16.0.0, SVG Export Plug-In . SVG Version: 6.00 Build 0)  -->
<!DOCTYPE svg PUBLIC "-//W3C//DTD SVG 1.1//EN" "http://www.w3.org/Graphics/SVG/1.1/DTD/svg11.dtd">
<svg version="1.1" id="Layer_1" xmlns="http://www.w3.org/2000/svg" xmlns:xlink="http://www.w3.org/1999/xlink" x="0px" y="0px"
	 viewBox="0 0 1000 1000" style="enable-background:new 0 0 1000 1000;" xml:space="preserve">
<style type="text/css">
<![CDATA[
	.st0{fill:none;stroke:#000000;stroke-width:5;stroke-miterlimit:10;}
	.st1{fill:none;stroke:#000000;stroke-width:2;stroke-miterlimit:10;}
]]>
</style>
<polygon class="st0" points="143.5,860.5 863.5,860.5 863.5,788 863.5,140.5 143.5,140.5 143.5,788 "/>
<g>
	<line class="st1" x1="846" y1="790" x2="153" y2="790"/>
	<line class="st1" x1="846" y1="718" x2="153" y2="718"/>
	<line class="st1" x1="846" y1="646" x2="153" y2="646"/>
	<line class="st1" x1="846" y1="574" x2="153" y2="574"/>
	<line class="st1" x1="846" y1="502" x2="153" y2="502"/>
	<line class="st1" x1="846" y1="430" x2="153" y2="430"/>
	<line class="st1" x1="846" y1="358" x2="153" y2="358"/>
	<line class="st1" x1="846" y1="286" x2="153" y2="286"/>
	<line class="st1" x1="846" y1="214" x2="153" y2="214"/>
</g>
<g>
	<line class="st1" x1="214" y1="851" x2="214" y2="149"/>
	<line class="st1" x1="286" y1="851" x2="286" y2="149"/>
	<line class="st1" x1="358" y1="851" x2="358" y2="149"/>
	<line class="st1" x1="430" y1="851" x2="430" y2="149"/>
	<line class="st1" x1="502" y1="851" x2="502" y2="149"/>
	<line class="st1" x1="574" y1="851" x2="574" y2="149"/>
	<line class="st1" x1="646" y1="851" x2="646" y2="149"/>
	<line class="st1" x1="718" y1="851" x2="718" y2="149"/>
	<line class="st1" x1="790" y1="851" x2="790" y2="149"/>
</g>
</svg>
