<?xml version="1.0" encoding="utf-8"?>
<!-- Generator: Adobe Illustrator 16.0.0, SVG Export Plug-In . SVG Version: 6.00 Build 0)  -->
<!DOCTYPE svg PUBLIC "-//W3C//DTD SVG 1.1//EN" "http://www.w3.org/Graphics/SVG/1.1/DTD/svg11.dtd">
<svg version="1.1" xmlns="http://www.w3.org/2000/svg" xmlns:xlink="http://www.w3.org/1999/xlink" x="0px" y="0px" width="1000px"
	 height="1000px" viewBox="0 0 1000 1000" enable-background="new 0 0 1000 1000" xml:space="preserve">
<g id="Layer_1" display="none">
	<g display="inline">
		<g id="Layer_3">
			<path fill="#DDDDDD" stroke="#000000" stroke-miterlimit="10" d="M500,153.169c167.092,0,302.543,135.452,302.543,302.542
				c0,29.068-4.101,57.182-11.754,83.789c-4.146,14.412-9.335,28.387-15.479,41.829C727.601,685.718,622.271,758.252,500,758.253
				c-129.085,0-239.288-80.846-282.741-194.661c-3.007-7.877-5.693-15.912-8.047-24.089c-7.652-26.608-11.754-54.724-11.754-83.792
				C197.458,288.621,332.911,153.169,500,153.169z"/>
		</g>
		<g display="none">
			
				<line display="inline" fill="none" stroke="#000000" stroke-width="3" stroke-miterlimit="10" x1="770.5" y1="578.5" x2="223.421" y2="578.5"/>
		</g>
		<g display="none">
			
				<line display="inline" fill="none" stroke="#000000" stroke-width="3" stroke-miterlimit="10" x1="802.51" y1="459.527" x2="197.49" y2="459.527"/>
		</g>
		<g>
			<path d="M455.942,417.769l-14.328,37.872h-4.824l-11.95-31.032l-11.952,31.032h-4.824l-14.256-37.872h4.896l11.881,32.184
				l12.168-32.184h4.393l12.096,32.184l12.024-32.184H455.942z"/>
		</g>
		<g>
			<path d="M391.214,417.839l-14.328,37.872h-4.824l-11.952-31.032l-11.952,31.032h-4.823l-14.257-37.872h4.896l11.88,32.184
				l12.168-32.184h4.392l12.098,32.184l12.022-32.184H391.214z"/>
		</g>
		<g>
			<path d="M326.214,417.839l-14.328,37.872h-4.824l-11.952-31.032l-11.952,31.032h-4.824l-14.256-37.872h4.896l11.88,32.184
				l12.168-32.184h4.392l12.098,32.184l12.022-32.184H326.214z"/>
		</g>
		<g>
			<path d="M456.432,454.919c-0.745-0.769-1.116-1.703-1.116-2.81c0-1.104,0.371-2.025,1.116-2.771
				c0.744-0.744,1.644-1.116,2.7-1.116c1.055,0,1.968,0.372,2.734,1.116c0.769,0.745,1.152,1.668,1.152,2.771
				c0,1.105-0.385,2.041-1.152,2.81c-0.769,0.769-1.681,1.15-2.734,1.15C458.075,456.071,457.177,455.688,456.432,454.919z"/>
		</g>
		<g>
			<path d="M520.392,435.406c0.646-1.485,1.451-2.759,2.412-3.814c0.959-1.057,2.207-2.255,3.743-3.602
				c2.063-1.821,3.588-3.42,4.57-4.788c0.983-1.366,1.478-3.034,1.478-5.002c0-2.641-1.032-4.765-3.097-6.372
				c-2.063-1.608-4.896-2.412-8.495-2.412c-5.952,0-10.537,1.942-13.752,5.832l-3.816-2.88c4.08-4.991,10.056-7.488,17.928-7.488
				c5.041,0,9.063,1.128,12.063,3.384c3,2.257,4.5,5.305,4.5,9.146c0,1.969-0.324,3.706-0.974,5.22
				c-0.646,1.512-1.438,2.797-2.376,3.852c-0.936,1.056-2.172,2.28-3.708,3.672c-2.063,1.872-3.601,3.541-4.606,5.004
				c-1.008,1.465-1.514,3.276-1.514,5.438h-5.326C519.422,438.622,519.744,436.896,520.392,435.406z M519.422,454.953
				c-0.722-0.742-1.08-1.618-1.08-2.628c0-1.056,0.358-1.932,1.08-2.628c0.721-0.693,1.605-1.044,2.663-1.044
				c1.104,0,2.017,0.351,2.735,1.044c0.721,0.697,1.08,1.573,1.08,2.628c0,1.01-0.373,1.886-1.116,2.628
				c-0.745,0.745-1.646,1.116-2.699,1.116C521.027,456.071,520.14,455.698,519.422,454.953z"/>
		</g>
		<g>
			<path d="M561.892,435.406c0.646-1.485,1.451-2.759,2.412-3.814c0.959-1.057,2.207-2.255,3.743-3.602
				c2.063-1.821,3.588-3.42,4.57-4.788c0.983-1.366,1.478-3.034,1.478-5.002c0-2.641-1.032-4.765-3.097-6.372
				c-2.063-1.608-4.896-2.412-8.495-2.412c-5.952,0-10.537,1.942-13.752,5.832l-3.816-2.88c4.08-4.991,10.056-7.488,17.928-7.488
				c5.041,0,9.063,1.128,12.063,3.384c3,2.257,4.5,5.305,4.5,9.146c0,1.969-0.324,3.706-0.974,5.22
				c-0.646,1.512-1.438,2.797-2.376,3.852c-0.936,1.056-2.172,2.28-3.708,3.672c-2.063,1.872-3.601,3.541-4.606,5.004
				c-1.008,1.465-1.514,3.276-1.514,5.438h-5.326C560.922,438.622,561.244,436.896,561.892,435.406z M560.922,454.953
				c-0.722-0.742-1.08-1.618-1.08-2.628c0-1.056,0.358-1.932,1.08-2.628c0.721-0.693,1.605-1.044,2.663-1.044
				c1.104,0,2.017,0.351,2.735,1.044c0.721,0.697,1.08,1.573,1.08,2.628c0,1.01-0.373,1.886-1.116,2.628
				c-0.745,0.745-1.646,1.116-2.699,1.116C562.527,456.071,561.64,455.698,560.922,454.953z"/>
		</g>
		<g>
			<path d="M482.392,435.406c0.648-1.485,1.451-2.759,2.412-3.814c0.959-1.057,2.207-2.255,3.744-3.602
				c2.063-1.821,3.588-3.42,4.57-4.788c0.983-1.366,1.478-3.034,1.478-5.002c0-2.641-1.033-4.765-3.097-6.372
				c-2.064-1.608-4.896-2.412-8.495-2.412c-5.952,0-10.537,1.942-13.753,5.832l-3.815-2.88c4.079-4.991,10.055-7.488,17.928-7.488
				c5.04,0,9.062,1.128,12.062,3.384c3,2.257,4.5,5.305,4.5,9.146c0,1.969-0.324,3.706-0.974,5.22
				c-0.646,1.512-1.438,2.797-2.376,3.852c-0.936,1.056-2.172,2.28-3.708,3.672c-2.063,1.872-3.6,3.541-4.606,5.004
				c-1.009,1.465-1.514,3.276-1.514,5.438h-5.327C481.422,438.622,481.744,436.896,482.392,435.406z M481.422,454.953
				c-0.722-0.742-1.08-1.618-1.08-2.628c0-1.056,0.358-1.932,1.08-2.628c0.72-0.693,1.606-1.044,2.662-1.044
				c1.104,0,2.018,0.351,2.736,1.044c0.721,0.697,1.08,1.573,1.08,2.628c0,1.01-0.372,1.886-1.116,2.628
				c-0.745,0.745-1.645,1.116-2.7,1.116C483.029,456.07,482.14,455.698,481.422,454.953z"/>
		</g>
		<g>
			<path d="M592.431,454.919c-0.744-0.769-1.115-1.703-1.115-2.81c0-1.104,0.371-2.025,1.115-2.771
				c0.744-0.744,1.645-1.116,2.7-1.116c1.055,0,1.968,0.372,2.734,1.116c0.769,0.745,1.151,1.668,1.151,2.771
				c0,1.105-0.385,2.041-1.151,2.81c-0.769,0.769-1.681,1.15-2.734,1.15C594.076,456.071,593.177,455.688,592.431,454.919z"/>
		</g>
		<g>
			<path d="M613.279,453.621c-2.951-1.631-5.268-3.924-6.947-6.876c-1.681-2.95-2.52-6.273-2.52-9.972
				c0-3.696,0.839-7.008,2.52-9.936c1.682-2.929,3.996-5.208,6.947-6.84c2.953-1.631,6.301-2.448,10.045-2.448
				c3.266,0,6.182,0.637,8.748,1.908c2.566,1.271,4.596,3.132,6.084,5.578l-3.814,2.594c-1.248-1.872-2.832-3.276-4.752-4.214
				c-1.922-0.936-4.01-1.402-6.266-1.402c-2.734,0-5.197,0.611-7.381,1.836c-2.184,1.224-3.887,2.964-5.111,5.22
				c-1.225,2.257-1.836,4.824-1.836,7.704c0,2.928,0.611,5.508,1.836,7.74c1.227,2.23,2.93,3.96,5.111,5.184
				c2.186,1.226,4.646,1.836,7.381,1.836c2.256,0,4.344-0.456,6.266-1.368c1.92-0.909,3.504-2.304,4.752-4.176l3.814,2.592
				c-1.488,2.448-3.526,4.311-6.12,5.58c-2.593,1.272-5.497,1.908-8.712,1.908C619.58,456.071,616.232,455.256,613.279,453.621z"/>
		</g>
		<g>
			<path d="M656.279,453.621c-2.951-1.631-5.268-3.924-6.947-6.876c-1.681-2.95-2.52-6.273-2.52-9.972
				c0-3.696,0.839-7.008,2.52-9.936c1.682-2.929,3.996-5.208,6.947-6.84c2.953-1.631,6.301-2.448,10.045-2.448
				c3.266,0,6.182,0.637,8.748,1.908c2.566,1.271,4.596,3.132,6.084,5.578l-3.814,2.594c-1.248-1.872-2.832-3.276-4.752-4.214
				c-1.922-0.936-4.01-1.402-6.266-1.402c-2.734,0-5.197,0.611-7.381,1.836c-2.184,1.224-3.887,2.964-5.111,5.22
				c-1.225,2.257-1.836,4.824-1.836,7.704c0,2.928,0.611,5.508,1.836,7.74c1.227,2.23,2.93,3.96,5.111,5.184
				c2.186,1.226,4.646,1.836,7.381,1.836c2.256,0,4.344-0.456,6.266-1.368c1.92-0.909,3.504-2.304,4.752-4.176l3.814,2.592
				c-1.488,2.448-3.526,4.311-6.12,5.58c-2.593,1.272-5.497,1.908-8.712,1.908C662.58,456.071,659.232,455.256,656.279,453.621z"/>
		</g>
		<g>
			<path d="M698.279,453.621c-2.951-1.631-5.268-3.924-6.947-6.876c-1.681-2.95-2.52-6.273-2.52-9.972
				c0-3.696,0.839-7.008,2.52-9.936c1.682-2.929,3.996-5.208,6.947-6.84c2.953-1.631,6.301-2.448,10.045-2.448
				c3.266,0,6.182,0.637,8.748,1.908c2.566,1.271,4.596,3.132,6.084,5.578l-3.814,2.594c-1.248-1.872-2.832-3.276-4.752-4.214
				c-1.922-0.936-4.01-1.402-6.266-1.402c-2.734,0-5.197,0.611-7.381,1.836c-2.184,1.224-3.887,2.964-5.111,5.22
				c-1.225,2.257-1.836,4.824-1.836,7.704c0,2.928,0.611,5.508,1.836,7.74c1.227,2.23,2.93,3.96,5.111,5.184
				c2.186,1.226,4.646,1.836,7.381,1.836c2.256,0,4.344-0.456,6.266-1.368c1.92-0.909,3.504-2.304,4.752-4.176l3.814,2.592
				c-1.488,2.448-3.526,4.311-6.12,5.58c-2.593,1.272-5.497,1.908-8.712,1.908C704.58,456.071,701.232,455.256,698.279,453.621z"/>
		</g>
	</g>
	<g display="inline">
		<path d="M250.5,396.779h4.752v67.393H250.5V396.779z"/>
	</g>
	<div  class="typewriter">
		
			<text  transform="matrix(1 0 0 1 264.0769 578.5002)" startOffset="0" font-size="72" font-family="&apos;Montserrat-Regular&apos;">
			www.???.com</text>
	</div>
</g>
<g id="Layer_2">
	
		<line fill="none" stroke="#FF8080" stroke-width="8" stroke-miterlimit="10" x1="573.945" y1="215.433" x2="383.944" y2="455.433"/>
	
		<line fill="none" stroke="#8383FC" stroke-width="8" stroke-miterlimit="10" x1="587.945" y1="215.433" x2="777.945" y2="455.433"/>
	
		<line fill="none" stroke="#89E599" stroke-width="8" stroke-miterlimit="10" x1="777.945" y1="189.433" x2="967.945" y2="429.433"/>
	
		<line display="none" fill="none" stroke="#FF8080" stroke-width="4" stroke-miterlimit="10" x1="369.481" y1="541.851" x2="559.519" y2="543.192"/>
	
		<line display="none" fill="none" stroke="#FF8080" stroke-width="4" stroke-miterlimit="10" x1="403.5" y1="452.5" x2="403.5" y2="514.5"/>
	
		<line display="none" fill="none" stroke="#FF8080" stroke-width="4" stroke-miterlimit="10" x1="534.5" y1="514.021" x2="534.5" y2="453.5"/>
	<path display="none" fill="none" stroke="#FF8080" stroke-width="4" stroke-miterlimit="10" d="M424.18,495.167
		c0-12.897,13.865-23.333,31-23.333"/>
	<path display="none" fill="none" stroke="#FF8080" stroke-width="4" stroke-miterlimit="10" d="M486.18,495.167
		c0-12.897-13.865-23.333-31-23.333"/>
	
		<line display="none" fill="none" stroke="#FF8080" stroke-width="4" stroke-miterlimit="10" x1="424.18" y1="495.167" x2="424.18" y2="529.834"/>
	
		<line display="none" fill="none" stroke="#FF8080" stroke-width="4" stroke-miterlimit="10" x1="486.18" y1="495.167" x2="486.18" y2="529.834"/>
	<circle fill="#FF8080" cx="207.944" cy="257.433" r="26"/>
	<circle fill="#FF8080" cx="207.944" cy="426.433" r="26"/>
	<circle fill="#FF8080" cx="373.835" cy="355.433" r="26"/>
	<circle fill="#FF8080" cx="276.739" cy="273.433" r="26"/>
	<circle fill="#FF8080" cx="332.739" cy="307.433" r="26"/>
	
		<line fill="none" stroke="#FF8080" stroke-width="4" stroke-miterlimit="10" x1="207.944" y1="257.433" x2="207.944" y2="595.434"/>
	
		<line display="none" fill="none" stroke="#FF8080" stroke-width="4" stroke-miterlimit="10" x1="254.5" y1="430" x2="369.5" y2="430"/>
	
		<line display="none" fill="none" stroke="#FF8080" stroke-width="4" stroke-miterlimit="10" x1="139.5" y1="430" x2="254.5" y2="430"/>
	<path fill="#7F9E3D" d="M315.241,454.461c35-1.5-62-43.332-99.5,33.584"/>
	<path fill="#7F9E3D" d="M314.9,457.788c28.677-20.123-22.794,72.125-99.376,33.949"/>
	<path fill="#7F9E3D" d="M100.646,454.461c-35-1.5,62-43.332,99.5,33.584"/>
	<path fill="#7F9E3D" d="M100.988,457.788c-28.678-20.123,22.793,72.126,99.375,33.95"/>
	<path fill="#7F9E3D" d="M117.944,363.431"/>
	
		<line fill="none" stroke="#FF8080" stroke-width="4" stroke-miterlimit="10" x1="207.944" y1="426.433" x2="373.835" y2="355.433"/>
	
		<line fill="none" stroke="#FF8080" stroke-width="4" stroke-miterlimit="10" x1="207.944" y1="426.433" x2="332.739" y2="307.433"/>
	
		<line fill="none" stroke="#FF8080" stroke-width="4" stroke-miterlimit="10" x1="207.944" y1="426.433" x2="276.739" y2="273.433"/>
	<circle fill="#FF8080" cx="42.053" cy="351.933" r="26"/>
	<circle fill="#FF8080" cx="139.149" cy="269.933" r="26"/>
	<circle fill="#FF8080" cx="83.149" cy="303.933" r="26"/>
	<line fill="none" stroke="#FF8080" stroke-width="4" stroke-miterlimit="10" x1="207.944" y1="422.933" x2="42.053" y2="351.933"/>
	<line fill="none" stroke="#FF8080" stroke-width="4" stroke-miterlimit="10" x1="207.944" y1="422.933" x2="83.149" y2="303.933"/>
	
		<line fill="none" stroke="#FF8080" stroke-width="4" stroke-miterlimit="10" x1="207.944" y1="422.933" x2="139.149" y2="269.933"/>
	<path display="none" fill="none" stroke="#FF8080" stroke-width="4" stroke-miterlimit="10" d="M462.096,443.602
		c0,0-5.157-33.081-30.551-32.075"/>
	
		<line display="none" fill="none" stroke="#FF8080" stroke-width="4" stroke-miterlimit="10" x1="404.811" y1="446.845" x2="404.811" y2="473.5"/>
	
		<line display="none" fill="none" stroke="#FF8080" stroke-width="4" stroke-miterlimit="10" x1="462.096" y1="443.602" x2="462.096" y2="473.5"/>
	<text transform="matrix(1 0 0 1 332.739 566.4338)" font-family="'Ubuntu-Regular'" font-size="120">Dog </text>
	<text transform="matrix(1 0 0 1 446.8298 674.9104)" font-family="'Ubuntu-Regular'" font-size="120">Hub</text>
	
		<line fill="none" stroke="#FF8080" stroke-width="8" stroke-miterlimit="10" x1="725.125" y1="441.768" x2="725.125" y2="566.434"/>
	
		<line display="none" fill="none" stroke="#FF8080" stroke-width="4" stroke-miterlimit="10" x1="469.5" y1="450.778" x2="469.5" y2="495"/>
	<path fill="none" stroke="#FF8080" stroke-width="8" stroke-miterlimit="10" d="M508.567,504.102v-27.016
		c0,0,2.71-48.319,65.378-47.652"/>
	<path fill="none" stroke="#FF8080" stroke-width="8" stroke-miterlimit="10" d="M573.945,429.576
		c62.666-0.667,65.375,47.652,65.375,47.652v27.016"/>
	<line fill="none" stroke="#FF8080" stroke-width="7" stroke-miterlimit="10" x1="639.32" y1="504.244" x2="639.32" y2="566.434"/>
	
		<line fill="none" stroke="#FF8080" stroke-width="8" stroke-miterlimit="10" x1="793.945" y1="452.433" x2="949.945" y2="434.433"/>
	<g>
		<path fill-rule="evenodd" clip-rule="evenodd" fill="none" d="M666.945,580.434c0,0,35.199,22,68-16"/>
	</g>
	<path fill-rule="evenodd" clip-rule="evenodd" fill="none" d="M666.945,580.434c0,0,35.199,22,68-16"/>
	
		<image display="none" overflow="visible" width="114" height="15" xlink:href="4A099B16.jpg"  transform="matrix(0.9999 0 0 0.9999 197.5066 537.0002)">
	</image>
	<path display="none" fill="none" stroke="#FF8080" stroke-miterlimit="10" d="M233.25,532.499
		c-17.5,11.749-34.743,4.001-34.743,4.001v-5.75"/>
	<path display="none" fill="none" stroke="#FF8080" stroke-miterlimit="10" d="M299.507,505.75v5.75c0,0,17.243,7.748,34.743-4.001"
		/>
	<path display="none" fill="none" stroke="#FF8080" stroke-miterlimit="10" d="M198.507,531.25c0,0,18.493,5.875,34.743-3.5"/>
	<line display="none" fill="none" stroke="#8383FC" stroke-miterlimit="10" x1="232.475" y1="519.24" x2="232.763" y2="525.473"/>
	<line display="none" fill="none" stroke="#8383FC" stroke-miterlimit="10" x1="232.416" y1="517.973" x2="232.475" y2="519.24"/>
	<path fill-rule="evenodd" clip-rule="evenodd" fill="#8383FC" d="M149.551,588.942c0.416,0,0.833,0,1.249,0
		c0,0.414,0,0.832,0,1.248c1.552,1.029,1.42,2.232,2.498,3.748c0.416,0.207,0.833,0.416,1.249,0.625
		c0.833,1.039,1.666,2.082,2.498,3.121c1.249,1.041,2.498,2.082,3.747,3.123c0.416,0.623,0.833,1.248,1.249,1.873
		c0.417,0,0.833,0,1.249,0c0.417,0.625,0.833,1.25,1.249,1.875c0.417,0,0.833,0,1.249,0c0.208,0.414,0.417,0.832,0.625,1.248
		c0.416,0,0.833,0,1.249,0c0.208,0.416,0.416,0.834,0.624,1.248c0.833,0.209,1.666,0.418,2.498,0.625
		c0.209,0.418,0.417,0.834,0.625,1.25c0.833,0.207,1.666,0.416,2.498,0.625c0,0.207,0,0.416,0,0.625
		c0.833,0.207,1.666,0.414,2.498,0.623c0,0.209,0,0.416,0,0.625c0.625,0,1.249,0,1.874,0c0,0.209,0,0.416,0,0.623
		c0.416,0,0.833,0,1.249,0c0,0.211,0,0.418,0,0.625c1.041,0.209,2.082,0.418,3.122,0.625c0,0.209,0,0.418,0,0.625
		c2.082,0.416,4.164,0.832,6.246,1.25c7.711,2.578,20.096,4.574,29.353,1.873c1.249,0,2.498,0,3.747,0c0-0.209,0-0.416,0-0.625
		c0.833,0,1.666,0,2.498,0c0-0.209,0-0.416,0-0.625c0.833,0,1.666,0,2.498,0c0-0.209,0-0.416,0-0.623c0.833,0,1.666,0,2.499,0
		c0-0.211,0-0.418,0-0.625c0.624,0,1.248,0,1.873,0c0-0.209,0-0.418,0-0.625c0.625,0,1.249,0,1.874,0c0-0.207,0-0.416,0-0.625
		c1.04-0.207,2.081-0.416,3.122-0.625c0-0.207,0-0.414,0-0.625c0.416,0,0.833,0,1.249,0c0-0.207,0-0.414,0-0.623
		c0.625,0,1.249,0,1.874,0c0-0.209,0-0.416,0-0.625c0.832-0.209,1.665-0.416,2.498-0.623c0-0.209,0-0.418,0-0.625
		c0.832-0.209,1.666-0.418,2.498-0.625c0.208-0.416,0.416-0.832,0.625-1.25c0.832-0.207,1.665-0.416,2.498-0.625
		c0-0.207,0-0.414,0-0.623c0.624-0.209,1.249-0.416,1.873-0.625c0.208-0.416,0.416-0.834,0.625-1.248c0.416,0,0.832,0,1.249,0
		c0.208-0.418,0.416-0.834,0.624-1.25c0.416,0,0.833,0,1.249,0c1.041-1.25,2.082-2.498,3.123-3.746c0.416,0,0.833,0,1.249,0
		c0-0.209,0-0.418,0-0.625c0.624-0.418,1.249-0.832,1.873-1.25c0-0.416,0-0.832,0-1.25c0.417-0.207,0.833-0.414,1.25-0.623
		c1.536-1.639,3.82-4.377,4.371-6.869c0.416,0,0.833,0,1.249,0c0.208,0.623,0.416,1.248,0.625,1.873c0.208,0,0.416,0,0.624,0
		c0.208,0.623,0.416,1.248,0.625,1.873c0.624,0.416,1.249,0.832,1.873,1.25c0,0.416,0,0.832,0,1.248
		c0.417,0.209,0.833,0.416,1.249,0.625c0,0.209,0,0.416,0,0.623c1.457,1.25,2.915,2.5,4.372,3.748
		c0.416,0.625,0.833,1.248,1.249,1.873c0.416,0,0.833,0,1.249,0c0.416,0.625,0.833,1.25,1.249,1.875c0.416,0,0.833,0,1.249,0
		c0.416,0.625,0.833,1.25,1.249,1.873c0.417,0,0.833,0,1.249,0c0,0.209,0,0.416,0,0.625c0.416,0,0.833,0,1.249,0
		c0.208,0.416,0.417,0.832,0.625,1.248c1.249,0.418,2.498,0.834,3.747,1.25c0.208,0.416,0.416,0.832,0.625,1.25
		c0.624,0,1.248,0,1.873,0c0,0.207,0,0.414,0,0.623c0.416,0,0.833,0,1.249,0c0,0.209,0,0.416,0,0.625
		c0.833,0.209,1.666,0.416,2.498,0.623c0,0.211,0,0.418,0,0.625c1.249,0.209,2.498,0.418,3.747,0.625
		c9.891,4.258,26.243,6.971,38.722,3.123c1.04,0,2.081,0,3.122,0c0-0.209,0-0.416,0-0.625c1.457-0.209,2.915-0.416,4.372-0.623
		c0-0.211,0-0.418,0-0.625c0.624,0,1.249,0,1.873,0c0-0.209,0-0.418,0-0.625c0.625,0,1.249,0,1.874,0c0-0.207,0-0.416,0-0.625
		c0.625,0,1.249,0,1.873,0c0-0.207,0-0.416,0-0.625c0.416,0,0.834,0,1.25,0c0-0.207,0-0.414,0-0.625c0.624,0,1.249,0,1.873,0
		c0-0.207,0-0.414,0-0.623c1.512-0.736,3.358-1.518,4.996-1.873c0,5.828,0,11.658,0,17.486c-4.163,1.457-8.327,2.914-12.49,4.371
		c-1.041,0-2.082,0-3.123,0c0,0.209,0,0.416,0,0.625c-0.832,0-1.665,0-2.498,0c0,0.209,0,0.416,0,0.625c-1.249,0-2.498,0-3.747,0
		c0,0.209,0,0.416,0,0.623c-1.457,0-2.915,0-4.372,0c0,0.209,0,0.416,0,0.625c-3.955,0-7.911,0-11.865,0
		c-10.021-0.004-18.404-2.154-25.606-4.996c-1.873-0.416-3.747-0.832-5.62-1.248c0-0.209,0-0.416,0-0.625
		c-0.833-0.209-1.666-0.416-2.499-0.625c0-0.209,0-0.416,0-0.625c-0.624,0-1.249,0-1.873,0c0-0.207,0-0.416,0-0.623
		c-1.249-0.416-2.498-0.834-3.747-1.25c0-0.209,0-0.416,0-0.625c-0.833-0.207-1.666-0.416-2.498-0.623
		c-0.209-0.416-0.417-0.834-0.625-1.25c-0.832-0.209-1.666-0.416-2.498-0.625c-0.208-0.416-0.416-0.832-0.625-1.248
		c-0.416,0-0.832,0-1.249,0c-0.208-0.416-0.416-0.834-0.624-1.25c-0.416,0-0.833,0-1.249,0c-0.208-0.414-0.417-0.832-0.625-1.248
		c-0.416,0-0.832,0-1.249,0c-0.208-0.416-0.416-0.834-0.624-1.25c-0.625-0.209-1.249-0.416-1.874-0.623c0-0.211,0-0.418,0-0.625
		c-0.927-0.734-1.11-0.867-2.498-1.25c-0.624,0.832-1.249,1.666-1.873,2.498c-0.417,0-0.833,0-1.249,0
		c-0.417,0.625-0.833,1.25-1.249,1.873c-0.417,0-0.833,0-1.25,0c-0.208,0.418-0.416,0.834-0.624,1.25
		c-0.625,0.209-1.249,0.416-1.874,0.625c0,0.207,0,0.416,0,0.625c-0.416,0-0.832,0-1.249,0c0,0.207,0,0.414,0,0.623
		c-0.416,0-0.832,0-1.249,0c-0.208,0.416-0.416,0.834-0.624,1.25c-1.249,0.416-2.498,0.832-3.747,1.248
		c-14.753,7.867-40.234,14.982-61.829,8.119c-1.041,0-2.082,0-3.122,0c0-0.209,0-0.416,0-0.625c-0.625,0-1.25,0-1.874,0
		c0-0.207,0-0.416,0-0.623c-2.082-0.416-4.164-0.834-6.245-1.25c0-0.209,0-0.416,0-0.625c-0.416,0-0.833,0-1.249,0
		c0-0.207,0-0.416,0-0.623c-0.625,0-1.249,0-1.874,0c0-0.209,0-0.416,0-0.625c-0.416,0-0.833,0-1.249,0c0-0.209,0-0.416,0-0.625
		c-0.624,0-1.249,0-1.874,0c0-0.209,0-0.416,0-0.625c-1.248-0.416-2.498-0.832-3.747-1.248c0-0.209,0-0.416,0-0.625
		c-0.416,0-0.832,0-1.249,0c0-0.209,0-0.416,0-0.625c-1.249-0.416-2.498-0.832-3.747-1.248c-0.208-0.416-0.416-0.834-0.624-1.25
		c-0.833-0.209-1.666-0.416-2.498-0.623c-0.209-0.418-0.417-0.834-0.625-1.25c-0.416,0-0.833,0-1.249,0
		c-0.208-0.416-0.416-0.832-0.624-1.25c-0.417,0-0.833,0-1.25,0c-0.208-0.414-0.416-0.832-0.624-1.248
		c-0.625-0.209-1.249-0.416-1.874-0.625c0-0.209,0-0.416,0-0.623c-1.091-0.898-1.507-1.43-3.122-1.875
		c-1.214,2.006-3.062,2.439-4.996,3.748c-0.209,0.416-0.417,0.834-0.625,1.248c-0.416,0-0.833,0-1.249,0
		c-0.208,0.416-0.416,0.834-0.624,1.25c-0.417,0-0.833,0-1.249,0c-0.209,0.416-0.417,0.832-0.625,1.248
		c-0.832,0.209-1.666,0.416-2.498,0.625c-0.208,0.416-0.417,0.834-0.625,1.25c-0.832,0.207-1.665,0.416-2.498,0.623
		c0,0.209,0,0.416,0,0.625c-1.249,0.416-2.498,0.834-3.747,1.25c0,0.207,0,0.416,0,0.623c-0.624,0-1.249,0-1.873,0
		c0,0.209,0,0.416,0,0.625c-0.833,0.209-1.666,0.416-2.498,0.625c0,0.209,0,0.416,0,0.625c-1.249,0.207-2.499,0.416-3.748,0.623
		c0,0.209,0,0.416,0,0.625c-0.624,0-1.249,0-1.873,0c0,0.209,0,0.416,0,0.625c-0.625,0-1.249,0-1.874,0c0,0.209,0,0.416,0,0.625
		c-0.624,0-1.249,0-1.873,0c0,0.207,0,0.416,0,0.623c-1.666,0.209-3.331,0.416-4.996,0.625c0,0.209,0,0.416,0,0.625
		c-1.041,0-2.082,0-3.123,0c0,0.209,0,0.416,0,0.625c-1.041,0-2.082,0-3.123,0c0,0.209,0,0.416,0,0.623c-1.665,0-3.33,0-4.996,0
		c-2.181,0.615-14.486,1.469-17.486,0.625c0-0.209,0-0.416,0-0.625c-1.666,0-3.331,0-4.997,0c0-0.207,0-0.414,0-0.623
		c-1.04,0-2.081,0-3.122,0c0-0.209,0-0.416,0-0.625c-1.041,0-2.082,0-3.123,0c0-0.209,0-0.416,0-0.625c-0.832,0-1.665,0-2.498,0
		c-4.163-1.457-8.327-2.914-12.49-4.371c0-5.828,0-11.658,0-17.486c1.655,0.371,3.468,1.129,4.996,1.873c0,0.209,0,0.416,0,0.623
		c0.624,0,1.249,0,1.873,0c0,0.211,0,0.418,0,0.625c0.417,0,0.833,0,1.25,0c0,0.209,0,0.418,0,0.625c0.624,0,1.249,0,1.873,0
		c0,0.209,0,0.418,0,0.625c0.625,0,1.249,0,1.874,0c0,0.207,0,0.416,0,0.625c0.624,0,1.249,0,1.873,0c0,0.207,0,0.414,0,0.625
		c0.625,0,1.249,0,1.874,0c0,0.207,0,0.414,0,0.623c0.832,0,1.665,0,2.498,0c0,0.209,0,0.416,0,0.625c1.041,0,2.082,0,3.122,0
		c0,0.209,0,0.416,0,0.625c1.041,0,2.082,0,3.123,0c0,0.209,0,0.416,0,0.623c1.665,0,3.331,0,4.996,0c0,0.211,0,0.418,0,0.625
		c3.842,1.072,13.674-0.5,16.238-1.248c1.249,0,2.498,0,3.747,0c0-0.209,0-0.416,0-0.625c1.665-0.209,3.331-0.416,4.996-0.625
		c0-0.209,0-0.416,0-0.623c0.625,0,1.249,0,1.874,0c0-0.211,0-0.418,0-0.625c0.624,0,1.249,0,1.873,0c0-0.209,0-0.418,0-0.625
		c0.625,0,1.249,0,1.874,0c0-0.207,0-0.416,0-0.625c1.249-0.207,2.498-0.416,3.747-0.625c0-0.207,0-0.414,0-0.625
		c0.832-0.207,1.665-0.414,2.498-0.623c0-0.209,0-0.416,0-0.625c0.416,0,0.833,0,1.249,0c0-0.209,0-0.416,0-0.623
		c0.625,0,1.249,0,1.874,0c0.208-0.418,0.416-0.834,0.624-1.25c0.416,0,0.833,0,1.249,0c0-0.209,0-0.416,0-0.625
		c1.249-0.416,2.498-0.832,3.747-1.25c0.208-0.414,0.416-0.832,0.625-1.248c0.416,0,0.833,0,1.249,0
		c0.416-0.623,0.833-1.248,1.249-1.873c0.416,0,0.833,0,1.249,0c0.416-0.625,0.833-1.25,1.249-1.875c0.416,0,0.833,0,1.249,0
		c1.041-1.248,2.082-2.496,3.123-3.746C144.51,595.856,148.591,592.75,149.551,588.942z"/>
	<path fill-rule="evenodd" clip-rule="evenodd" fill="#8383FC" d="M149.551,654.25c0.416,0,0.833,0,1.249,0c0,0.414,0,0.832,0,1.248
		c1.552,1.029,1.42,2.232,2.498,3.748c0.416,0.207,0.833,0.416,1.249,0.625c0.833,1.039,1.666,2.082,2.498,3.121
		c1.249,1.041,2.498,2.082,3.747,3.123c0.416,0.623,0.833,1.248,1.249,1.873c0.417,0,0.833,0,1.249,0
		c0.417,0.625,0.833,1.25,1.249,1.875c0.417,0,0.833,0,1.249,0c0.208,0.414,0.417,0.832,0.625,1.248c0.416,0,0.833,0,1.249,0
		c0.208,0.416,0.416,0.834,0.624,1.248c0.833,0.209,1.666,0.418,2.498,0.625c0.209,0.418,0.417,0.834,0.625,1.25
		c0.833,0.207,1.666,0.416,2.498,0.625c0,0.207,0,0.416,0,0.625c0.833,0.207,1.666,0.414,2.498,0.623c0,0.209,0,0.416,0,0.625
		c0.625,0,1.249,0,1.874,0c0,0.209,0,0.416,0,0.623c0.416,0,0.833,0,1.249,0c0,0.211,0,0.418,0,0.625
		c1.041,0.209,2.082,0.418,3.122,0.625c0,0.209,0,0.418,0,0.625c2.082,0.416,4.164,0.832,6.246,1.25
		c7.711,2.578,20.096,4.574,29.353,1.873c1.249,0,2.498,0,3.747,0c0-0.209,0-0.416,0-0.625c0.833,0,1.666,0,2.498,0
		c0-0.209,0-0.416,0-0.625c0.833,0,1.666,0,2.498,0c0-0.209,0-0.416,0-0.623c0.833,0,1.666,0,2.499,0c0-0.211,0-0.418,0-0.625
		c0.624,0,1.248,0,1.873,0c0-0.209,0-0.418,0-0.625c0.625,0,1.249,0,1.874,0c0-0.207,0-0.416,0-0.625
		c1.04-0.207,2.081-0.416,3.122-0.625c0-0.207,0-0.414,0-0.625c0.416,0,0.833,0,1.249,0c0-0.207,0-0.414,0-0.623
		c0.625,0,1.249,0,1.874,0c0-0.209,0-0.416,0-0.625c0.832-0.209,1.665-0.416,2.498-0.623c0-0.209,0-0.418,0-0.625
		c0.832-0.209,1.666-0.418,2.498-0.625c0.208-0.416,0.416-0.832,0.625-1.25c0.832-0.207,1.665-0.416,2.498-0.625
		c0-0.207,0-0.414,0-0.623c0.624-0.209,1.249-0.416,1.873-0.625c0.208-0.416,0.416-0.834,0.625-1.248c0.416,0,0.832,0,1.249,0
		c0.208-0.418,0.416-0.834,0.624-1.25c0.416,0,0.833,0,1.249,0c1.041-1.25,2.082-2.498,3.123-3.746c0.416,0,0.833,0,1.249,0
		c0-0.209,0-0.418,0-0.625c0.624-0.418,1.249-0.832,1.873-1.25c0-0.416,0-0.832,0-1.25c0.417-0.207,0.833-0.414,1.25-0.623
		c1.536-1.639,3.82-4.377,4.371-6.869c0.416,0,0.833,0,1.249,0c0.208,0.623,0.416,1.248,0.625,1.873c0.208,0,0.416,0,0.624,0
		c0.208,0.623,0.416,1.248,0.625,1.873c0.624,0.416,1.249,0.832,1.873,1.25c0,0.416,0,0.832,0,1.248
		c0.417,0.209,0.833,0.416,1.249,0.625c0,0.209,0,0.416,0,0.623c1.457,1.25,2.915,2.5,4.372,3.748
		c0.416,0.625,0.833,1.248,1.249,1.873c0.416,0,0.833,0,1.249,0c0.416,0.625,0.833,1.25,1.249,1.875c0.416,0,0.833,0,1.249,0
		c0.416,0.625,0.833,1.25,1.249,1.873c0.417,0,0.833,0,1.249,0c0,0.209,0,0.416,0,0.625c0.416,0,0.833,0,1.249,0
		c0.208,0.416,0.417,0.832,0.625,1.248c1.249,0.418,2.498,0.834,3.747,1.25c0.208,0.416,0.416,0.832,0.625,1.25
		c0.624,0,1.248,0,1.873,0c0,0.207,0,0.414,0,0.623c0.416,0,0.833,0,1.249,0c0,0.209,0,0.416,0,0.625
		c0.833,0.209,1.666,0.416,2.498,0.623c0,0.211,0,0.418,0,0.625c1.249,0.209,2.498,0.418,3.747,0.625
		c9.891,4.258,26.243,6.971,38.722,3.123c1.04,0,2.081,0,3.122,0c0-0.209,0-0.416,0-0.625c1.457-0.209,2.915-0.416,4.372-0.623
		c0-0.211,0-0.418,0-0.625c0.624,0,1.249,0,1.873,0c0-0.209,0-0.418,0-0.625c0.625,0,1.249,0,1.874,0c0-0.207,0-0.416,0-0.625
		c0.625,0,1.249,0,1.873,0c0-0.207,0-0.416,0-0.625c0.416,0,0.834,0,1.25,0c0-0.207,0-0.414,0-0.625c0.624,0,1.249,0,1.873,0
		c0-0.207,0-0.414,0-0.623c1.512-0.736,3.358-1.518,4.996-1.873c0,5.828,0,11.658,0,17.486c-4.163,1.457-8.327,2.914-12.49,4.371
		c-1.041,0-2.082,0-3.123,0c0,0.209,0,0.416,0,0.625c-0.832,0-1.665,0-2.498,0c0,0.209,0,0.416,0,0.625c-1.249,0-2.498,0-3.747,0
		c0,0.209,0,0.416,0,0.623c-1.457,0-2.915,0-4.372,0c0,0.209,0,0.416,0,0.625c-3.955,0-7.911,0-11.865,0
		c-10.021-0.004-18.404-2.154-25.606-4.996c-1.873-0.416-3.747-0.832-5.62-1.248c0-0.209,0-0.416,0-0.625
		c-0.833-0.209-1.666-0.416-2.499-0.625c0-0.209,0-0.416,0-0.625c-0.624,0-1.249,0-1.873,0c0-0.207,0-0.416,0-0.623
		c-1.249-0.416-2.498-0.834-3.747-1.25c0-0.209,0-0.416,0-0.625c-0.833-0.207-1.666-0.416-2.498-0.623
		c-0.209-0.416-0.417-0.834-0.625-1.25c-0.832-0.209-1.666-0.416-2.498-0.625c-0.208-0.416-0.416-0.832-0.625-1.248
		c-0.416,0-0.832,0-1.249,0c-0.208-0.416-0.416-0.834-0.624-1.25c-0.416,0-0.833,0-1.249,0c-0.208-0.414-0.417-0.832-0.625-1.248
		c-0.416,0-0.832,0-1.249,0c-0.208-0.416-0.416-0.834-0.624-1.25c-0.625-0.209-1.249-0.416-1.874-0.623c0-0.211,0-0.418,0-0.625
		c-0.927-0.734-1.11-0.867-2.498-1.25c-0.624,0.832-1.249,1.666-1.873,2.498c-0.417,0-0.833,0-1.249,0
		c-0.417,0.625-0.833,1.25-1.249,1.873c-0.417,0-0.833,0-1.25,0c-0.208,0.418-0.416,0.834-0.624,1.25
		c-0.625,0.209-1.249,0.416-1.874,0.625c0,0.207,0,0.416,0,0.625c-0.416,0-0.832,0-1.249,0c0,0.207,0,0.414,0,0.623
		c-0.416,0-0.832,0-1.249,0c-0.208,0.416-0.416,0.834-0.624,1.25c-1.249,0.416-2.498,0.832-3.747,1.248
		c-14.753,7.867-40.234,14.982-61.829,8.119c-1.041,0-2.082,0-3.122,0c0-0.209,0-0.416,0-0.625c-0.625,0-1.25,0-1.874,0
		c0-0.207,0-0.416,0-0.623c-2.082-0.416-4.164-0.834-6.245-1.25c0-0.209,0-0.416,0-0.625c-0.416,0-0.833,0-1.249,0
		c0-0.207,0-0.416,0-0.623c-0.625,0-1.249,0-1.874,0c0-0.209,0-0.416,0-0.625c-0.416,0-0.833,0-1.249,0c0-0.209,0-0.416,0-0.625
		c-0.624,0-1.249,0-1.874,0c0-0.209,0-0.416,0-0.625c-1.248-0.416-2.498-0.832-3.747-1.248c0-0.209,0-0.416,0-0.625
		c-0.416,0-0.832,0-1.249,0c0-0.209,0-0.416,0-0.625c-1.249-0.416-2.498-0.832-3.747-1.248c-0.208-0.416-0.416-0.834-0.624-1.25
		c-0.833-0.209-1.666-0.416-2.498-0.623c-0.209-0.418-0.417-0.834-0.625-1.25c-0.416,0-0.833,0-1.249,0
		c-0.208-0.416-0.416-0.832-0.624-1.25c-0.417,0-0.833,0-1.25,0c-0.208-0.414-0.416-0.832-0.624-1.248
		c-0.625-0.209-1.249-0.416-1.874-0.625c0-0.209,0-0.416,0-0.623c-1.091-0.898-1.507-1.43-3.122-1.875
		c-1.214,2.006-3.062,2.439-4.996,3.748c-0.209,0.416-0.417,0.834-0.625,1.248c-0.416,0-0.833,0-1.249,0
		c-0.208,0.416-0.416,0.834-0.624,1.25c-0.417,0-0.833,0-1.249,0c-0.209,0.416-0.417,0.832-0.625,1.248
		c-0.832,0.209-1.666,0.416-2.498,0.625c-0.208,0.416-0.417,0.834-0.625,1.25c-0.832,0.207-1.665,0.416-2.498,0.623
		c0,0.209,0,0.416,0,0.625c-1.249,0.416-2.498,0.834-3.747,1.25c0,0.207,0,0.416,0,0.623c-0.624,0-1.249,0-1.873,0
		c0,0.209,0,0.416,0,0.625c-0.833,0.209-1.666,0.416-2.498,0.625c0,0.209,0,0.416,0,0.625c-1.249,0.207-2.499,0.416-3.748,0.623
		c0,0.209,0,0.416,0,0.625c-0.624,0-1.249,0-1.873,0c0,0.209,0,0.416,0,0.625c-0.625,0-1.249,0-1.874,0c0,0.209,0,0.416,0,0.625
		c-0.624,0-1.249,0-1.873,0c0,0.207,0,0.416,0,0.623c-1.666,0.209-3.331,0.416-4.996,0.625c0,0.209,0,0.416,0,0.625
		c-1.041,0-2.082,0-3.123,0c0,0.209,0,0.416,0,0.625c-1.041,0-2.082,0-3.123,0c0,0.209,0,0.416,0,0.623c-1.665,0-3.33,0-4.996,0
		c-2.181,0.615-14.486,1.469-17.486,0.625c0-0.209,0-0.416,0-0.625c-1.666,0-3.331,0-4.997,0c0-0.207,0-0.414,0-0.623
		c-1.04,0-2.081,0-3.122,0c0-0.209,0-0.416,0-0.625c-1.041,0-2.082,0-3.123,0c0-0.209,0-0.416,0-0.625c-0.832,0-1.665,0-2.498,0
		c-4.163-1.457-8.327-2.914-12.49-4.371c0-5.828,0-11.658,0-17.486c1.655,0.371,3.468,1.129,4.996,1.873c0,0.209,0,0.416,0,0.623
		c0.624,0,1.249,0,1.873,0c0,0.211,0,0.418,0,0.625c0.417,0,0.833,0,1.25,0c0,0.209,0,0.418,0,0.625c0.624,0,1.249,0,1.873,0
		c0,0.209,0,0.418,0,0.625c0.625,0,1.249,0,1.874,0c0,0.207,0,0.416,0,0.625c0.624,0,1.249,0,1.873,0c0,0.207,0,0.414,0,0.625
		c0.625,0,1.249,0,1.874,0c0,0.207,0,0.414,0,0.623c0.832,0,1.665,0,2.498,0c0,0.209,0,0.416,0,0.625c1.041,0,2.082,0,3.122,0
		c0,0.209,0,0.416,0,0.625c1.041,0,2.082,0,3.123,0c0,0.209,0,0.416,0,0.623c1.665,0,3.331,0,4.996,0c0,0.211,0,0.418,0,0.625
		c3.842,1.072,13.674-0.5,16.238-1.248c1.249,0,2.498,0,3.747,0c0-0.209,0-0.416,0-0.625c1.665-0.209,3.331-0.416,4.996-0.625
		c0-0.209,0-0.416,0-0.623c0.625,0,1.249,0,1.874,0c0-0.211,0-0.418,0-0.625c0.624,0,1.249,0,1.873,0c0-0.209,0-0.418,0-0.625
		c0.625,0,1.249,0,1.874,0c0-0.207,0-0.416,0-0.625c1.249-0.207,2.498-0.416,3.747-0.625c0-0.207,0-0.414,0-0.625
		c0.832-0.207,1.665-0.414,2.498-0.623c0-0.209,0-0.416,0-0.625c0.416,0,0.833,0,1.249,0c0-0.209,0-0.416,0-0.623
		c0.625,0,1.249,0,1.874,0c0.208-0.418,0.416-0.834,0.624-1.25c0.416,0,0.833,0,1.249,0c0-0.209,0-0.416,0-0.625
		c1.249-0.416,2.498-0.832,3.747-1.25c0.208-0.414,0.416-0.832,0.625-1.248c0.416,0,0.833,0,1.249,0
		c0.416-0.623,0.833-1.248,1.249-1.873c0.416,0,0.833,0,1.249,0c0.416-0.625,0.833-1.25,1.249-1.875c0.416,0,0.833,0,1.249,0
		c1.041-1.248,2.082-2.496,3.123-3.746C144.51,661.164,148.591,658.059,149.551,654.25z"/>
	<path fill-rule="evenodd" clip-rule="evenodd" fill="#8383FC" d="M149.551,621.942c0.416,0,0.833,0,1.249,0
		c0,0.414,0,0.832,0,1.248c1.552,1.029,1.42,2.232,2.498,3.748c0.416,0.207,0.833,0.416,1.249,0.625
		c0.833,1.039,1.666,2.082,2.498,3.121c1.249,1.041,2.498,2.082,3.747,3.123c0.416,0.623,0.833,1.248,1.249,1.873
		c0.417,0,0.833,0,1.249,0c0.417,0.625,0.833,1.25,1.249,1.875c0.417,0,0.833,0,1.249,0c0.208,0.414,0.417,0.832,0.625,1.248
		c0.416,0,0.833,0,1.249,0c0.208,0.416,0.416,0.834,0.624,1.248c0.833,0.209,1.666,0.418,2.498,0.625
		c0.209,0.418,0.417,0.834,0.625,1.25c0.833,0.207,1.666,0.416,2.498,0.625c0,0.207,0,0.416,0,0.625
		c0.833,0.207,1.666,0.414,2.498,0.623c0,0.209,0,0.416,0,0.625c0.625,0,1.249,0,1.874,0c0,0.209,0,0.416,0,0.623
		c0.416,0,0.833,0,1.249,0c0,0.211,0,0.418,0,0.625c1.041,0.209,2.082,0.418,3.122,0.625c0,0.209,0,0.418,0,0.625
		c2.082,0.416,4.164,0.832,6.246,1.25c7.711,2.578,20.096,4.574,29.353,1.873c1.249,0,2.498,0,3.747,0c0-0.209,0-0.416,0-0.625
		c0.833,0,1.666,0,2.498,0c0-0.209,0-0.416,0-0.625c0.833,0,1.666,0,2.498,0c0-0.209,0-0.416,0-0.623c0.833,0,1.666,0,2.499,0
		c0-0.211,0-0.418,0-0.625c0.624,0,1.248,0,1.873,0c0-0.209,0-0.418,0-0.625c0.625,0,1.249,0,1.874,0c0-0.207,0-0.416,0-0.625
		c1.04-0.207,2.081-0.416,3.122-0.625c0-0.207,0-0.414,0-0.625c0.416,0,0.833,0,1.249,0c0-0.207,0-0.414,0-0.623
		c0.625,0,1.249,0,1.874,0c0-0.209,0-0.416,0-0.625c0.832-0.209,1.665-0.416,2.498-0.623c0-0.209,0-0.418,0-0.625
		c0.832-0.209,1.666-0.418,2.498-0.625c0.208-0.416,0.416-0.832,0.625-1.25c0.832-0.207,1.665-0.416,2.498-0.625
		c0-0.207,0-0.414,0-0.623c0.624-0.209,1.249-0.416,1.873-0.625c0.208-0.416,0.416-0.834,0.625-1.248c0.416,0,0.832,0,1.249,0
		c0.208-0.418,0.416-0.834,0.624-1.25c0.416,0,0.833,0,1.249,0c1.041-1.25,2.082-2.498,3.123-3.746c0.416,0,0.833,0,1.249,0
		c0-0.209,0-0.418,0-0.625c0.624-0.418,1.249-0.832,1.873-1.25c0-0.416,0-0.832,0-1.25c0.417-0.207,0.833-0.414,1.25-0.623
		c1.536-1.639,3.82-4.377,4.371-6.869c0.416,0,0.833,0,1.249,0c0.208,0.623,0.416,1.248,0.625,1.873c0.208,0,0.416,0,0.624,0
		c0.208,0.623,0.416,1.248,0.625,1.873c0.624,0.416,1.249,0.832,1.873,1.25c0,0.416,0,0.832,0,1.248
		c0.417,0.209,0.833,0.416,1.249,0.625c0,0.209,0,0.416,0,0.623c1.457,1.25,2.915,2.5,4.372,3.748
		c0.416,0.625,0.833,1.248,1.249,1.873c0.416,0,0.833,0,1.249,0c0.416,0.625,0.833,1.25,1.249,1.875c0.416,0,0.833,0,1.249,0
		c0.416,0.625,0.833,1.25,1.249,1.873c0.417,0,0.833,0,1.249,0c0,0.209,0,0.416,0,0.625c0.416,0,0.833,0,1.249,0
		c0.208,0.416,0.417,0.832,0.625,1.248c1.249,0.418,2.498,0.834,3.747,1.25c0.208,0.416,0.416,0.832,0.625,1.25
		c0.624,0,1.248,0,1.873,0c0,0.207,0,0.414,0,0.623c0.416,0,0.833,0,1.249,0c0,0.209,0,0.416,0,0.625
		c0.833,0.209,1.666,0.416,2.498,0.623c0,0.211,0,0.418,0,0.625c1.249,0.209,2.498,0.418,3.747,0.625
		c9.891,4.258,26.243,6.971,38.722,3.123c1.04,0,2.081,0,3.122,0c0-0.209,0-0.416,0-0.625c1.457-0.209,2.915-0.416,4.372-0.623
		c0-0.211,0-0.418,0-0.625c0.624,0,1.249,0,1.873,0c0-0.209,0-0.418,0-0.625c0.625,0,1.249,0,1.874,0c0-0.207,0-0.416,0-0.625
		c0.625,0,1.249,0,1.873,0c0-0.207,0-0.416,0-0.625c0.416,0,0.834,0,1.25,0c0-0.207,0-0.414,0-0.625c0.624,0,1.249,0,1.873,0
		c0-0.207,0-0.414,0-0.623c1.512-0.736,3.358-1.518,4.996-1.873c0,5.828,0,11.658,0,17.486c-4.163,1.457-8.327,2.914-12.49,4.371
		c-1.041,0-2.082,0-3.123,0c0,0.209,0,0.416,0,0.625c-0.832,0-1.665,0-2.498,0c0,0.209,0,0.416,0,0.625c-1.249,0-2.498,0-3.747,0
		c0,0.209,0,0.416,0,0.623c-1.457,0-2.915,0-4.372,0c0,0.209,0,0.416,0,0.625c-3.955,0-7.911,0-11.865,0
		c-10.021-0.004-18.404-2.154-25.606-4.996c-1.873-0.416-3.747-0.832-5.62-1.248c0-0.209,0-0.416,0-0.625
		c-0.833-0.209-1.666-0.416-2.499-0.625c0-0.209,0-0.416,0-0.625c-0.624,0-1.249,0-1.873,0c0-0.207,0-0.416,0-0.623
		c-1.249-0.416-2.498-0.834-3.747-1.25c0-0.209,0-0.416,0-0.625c-0.833-0.207-1.666-0.416-2.498-0.623
		c-0.209-0.416-0.417-0.834-0.625-1.25c-0.832-0.209-1.666-0.416-2.498-0.625c-0.208-0.416-0.416-0.832-0.625-1.248
		c-0.416,0-0.832,0-1.249,0c-0.208-0.416-0.416-0.834-0.624-1.25c-0.416,0-0.833,0-1.249,0c-0.208-0.414-0.417-0.832-0.625-1.248
		c-0.416,0-0.832,0-1.249,0c-0.208-0.416-0.416-0.834-0.624-1.25c-0.625-0.209-1.249-0.416-1.874-0.623c0-0.211,0-0.418,0-0.625
		c-0.927-0.734-1.11-0.867-2.498-1.25c-0.624,0.832-1.249,1.666-1.873,2.498c-0.417,0-0.833,0-1.249,0
		c-0.417,0.625-0.833,1.25-1.249,1.873c-0.417,0-0.833,0-1.25,0c-0.208,0.418-0.416,0.834-0.624,1.25
		c-0.625,0.209-1.249,0.416-1.874,0.625c0,0.207,0,0.416,0,0.625c-0.416,0-0.832,0-1.249,0c0,0.207,0,0.414,0,0.623
		c-0.416,0-0.832,0-1.249,0c-0.208,0.416-0.416,0.834-0.624,1.25c-1.249,0.416-2.498,0.832-3.747,1.248
		c-14.753,7.867-40.234,14.982-61.829,8.119c-1.041,0-2.082,0-3.122,0c0-0.209,0-0.416,0-0.625c-0.625,0-1.25,0-1.874,0
		c0-0.207,0-0.416,0-0.623c-2.082-0.416-4.164-0.834-6.245-1.25c0-0.209,0-0.416,0-0.625c-0.416,0-0.833,0-1.249,0
		c0-0.207,0-0.416,0-0.623c-0.625,0-1.249,0-1.874,0c0-0.209,0-0.416,0-0.625c-0.416,0-0.833,0-1.249,0c0-0.209,0-0.416,0-0.625
		c-0.624,0-1.249,0-1.874,0c0-0.209,0-0.416,0-0.625c-1.248-0.416-2.498-0.832-3.747-1.248c0-0.209,0-0.416,0-0.625
		c-0.416,0-0.832,0-1.249,0c0-0.209,0-0.416,0-0.625c-1.249-0.416-2.498-0.832-3.747-1.248c-0.208-0.416-0.416-0.834-0.624-1.25
		c-0.833-0.209-1.666-0.416-2.498-0.623c-0.209-0.418-0.417-0.834-0.625-1.25c-0.416,0-0.833,0-1.249,0
		c-0.208-0.416-0.416-0.832-0.624-1.25c-0.417,0-0.833,0-1.25,0c-0.208-0.414-0.416-0.832-0.624-1.248
		c-0.625-0.209-1.249-0.416-1.874-0.625c0-0.209,0-0.416,0-0.623c-1.091-0.898-1.507-1.43-3.122-1.875
		c-1.214,2.006-3.062,2.439-4.996,3.748c-0.209,0.416-0.417,0.834-0.625,1.248c-0.416,0-0.833,0-1.249,0
		c-0.208,0.416-0.416,0.834-0.624,1.25c-0.417,0-0.833,0-1.249,0c-0.209,0.416-0.417,0.832-0.625,1.248
		c-0.832,0.209-1.666,0.416-2.498,0.625c-0.208,0.416-0.417,0.834-0.625,1.25c-0.832,0.207-1.665,0.416-2.498,0.623
		c0,0.209,0,0.416,0,0.625c-1.249,0.416-2.498,0.834-3.747,1.25c0,0.207,0,0.416,0,0.623c-0.624,0-1.249,0-1.873,0
		c0,0.209,0,0.416,0,0.625c-0.833,0.209-1.666,0.416-2.498,0.625c0,0.209,0,0.416,0,0.625c-1.249,0.207-2.499,0.416-3.748,0.623
		c0,0.209,0,0.416,0,0.625c-0.624,0-1.249,0-1.873,0c0,0.209,0,0.416,0,0.625c-0.625,0-1.249,0-1.874,0c0,0.209,0,0.416,0,0.625
		c-0.624,0-1.249,0-1.873,0c0,0.207,0,0.416,0,0.623c-1.666,0.209-3.331,0.416-4.996,0.625c0,0.209,0,0.416,0,0.625
		c-1.041,0-2.082,0-3.123,0c0,0.209,0,0.416,0,0.625c-1.041,0-2.082,0-3.123,0c0,0.209,0,0.416,0,0.623c-1.665,0-3.33,0-4.996,0
		c-2.181,0.615-14.486,1.469-17.486,0.625c0-0.209,0-0.416,0-0.625c-1.666,0-3.331,0-4.997,0c0-0.207,0-0.414,0-0.623
		c-1.04,0-2.081,0-3.122,0c0-0.209,0-0.416,0-0.625c-1.041,0-2.082,0-3.123,0c0-0.209,0-0.416,0-0.625c-0.832,0-1.665,0-2.498,0
		c-4.163-1.457-8.327-2.914-12.49-4.371c0-5.828,0-11.658,0-17.486c1.655,0.371,3.468,1.129,4.996,1.873c0,0.209,0,0.416,0,0.623
		c0.624,0,1.249,0,1.873,0c0,0.211,0,0.418,0,0.625c0.417,0,0.833,0,1.25,0c0,0.209,0,0.418,0,0.625c0.624,0,1.249,0,1.873,0
		c0,0.209,0,0.418,0,0.625c0.625,0,1.249,0,1.874,0c0,0.207,0,0.416,0,0.625c0.624,0,1.249,0,1.873,0c0,0.207,0,0.414,0,0.625
		c0.625,0,1.249,0,1.874,0c0,0.207,0,0.414,0,0.623c0.832,0,1.665,0,2.498,0c0,0.209,0,0.416,0,0.625c1.041,0,2.082,0,3.122,0
		c0,0.209,0,0.416,0,0.625c1.041,0,2.082,0,3.123,0c0,0.209,0,0.416,0,0.623c1.665,0,3.331,0,4.996,0c0,0.211,0,0.418,0,0.625
		c3.842,1.072,13.674-0.5,16.238-1.248c1.249,0,2.498,0,3.747,0c0-0.209,0-0.416,0-0.625c1.665-0.209,3.331-0.416,4.996-0.625
		c0-0.209,0-0.416,0-0.623c0.625,0,1.249,0,1.874,0c0-0.211,0-0.418,0-0.625c0.624,0,1.249,0,1.873,0c0-0.209,0-0.418,0-0.625
		c0.625,0,1.249,0,1.874,0c0-0.207,0-0.416,0-0.625c1.249-0.207,2.498-0.416,3.747-0.625c0-0.207,0-0.414,0-0.625
		c0.832-0.207,1.665-0.414,2.498-0.623c0-0.209,0-0.416,0-0.625c0.416,0,0.833,0,1.249,0c0-0.209,0-0.416,0-0.623
		c0.625,0,1.249,0,1.874,0c0.208-0.418,0.416-0.834,0.624-1.25c0.416,0,0.833,0,1.249,0c0-0.209,0-0.416,0-0.625
		c1.249-0.416,2.498-0.832,3.747-1.25c0.208-0.414,0.416-0.832,0.625-1.248c0.416,0,0.833,0,1.249,0
		c0.416-0.623,0.833-1.248,1.249-1.873c0.416,0,0.833,0,1.249,0c0.416-0.625,0.833-1.25,1.249-1.875c0.416,0,0.833,0,1.249,0
		c1.041-1.248,2.082-2.496,3.123-3.746C144.51,628.856,148.591,625.75,149.551,621.942z"/>
</g>
</svg>
