<?xml version="1.0" encoding="utf-8"?>
<!-- Generator: Adobe Illustrator 16.0.0, SVG Export Plug-In . SVG Version: 6.00 Build 0)  -->
<!DOCTYPE svg PUBLIC "-//W3C//DTD SVG 1.1//EN" "http://www.w3.org/Graphics/SVG/1.1/DTD/svg11.dtd">
<svg version="1.1" xmlns="http://www.w3.org/2000/svg" xmlns:xlink="http://www.w3.org/1999/xlink" x="0px" y="0px" width="1000px"
	 height="1000px" viewBox="0 0 1000 1000" style="enable-background:new 0 0 1000 1000;" xml:space="preserve">
<style type="text/css">
<![CDATA[
	.st0{display:inline;fill:#DDDDDD;stroke:#000000;stroke-width:3;stroke-miterlimit:10;}
	.st1{fill:#DDDDDD;stroke:#000000;stroke-miterlimit:10;}
	.st2{display:none;}
]]>
.roll1{
 -webkit-animation: roll 1.2s .5s ease-out both;
}
</style>
<g id="Layer_1">
	<g id="Layer_3">
		<path class="st1 roll1" d="M500,153.169c167.09,0,302.543,135.452,302.543,302.542c0,29.07-4.101,57.182-11.754,83.789
			c-4.146,14.414-9.335,28.387-15.479,41.831C727.601,685.718,622.271,758.252,500,758.253
			c-129.085,0-239.288-80.844-282.741-194.661c-3.007-7.877-5.695-15.912-8.047-24.089c-7.654-26.608-11.754-54.722-11.754-83.792
			C197.458,288.621,332.911,153.169,500,153.169z"/>
	</g>
	<g class="st2">
		<line class="st0" x1="770.5" y1="578.5" x2="223.421" y2="578.5"/>
	</g>
	<g class="st2">
		<line class="st0" x1="802.51" y1="459.527" x2="197.49" y2="459.527"/>
	</g>
	<g>
		<path class = "roll1" d="M456.212,417.839l-14.328,37.872h-4.824l-11.952-31.032l-11.952,31.032h-4.824l-14.256-37.872h4.896l11.88,32.184
			l12.168-32.184h4.392l12.096,32.184l12.024-32.184H456.212z" transform="translate(-0.27 -0.07)"/>
	</g>
	<g>
		<path class = "roll1" d="M391.212,417.839l-14.328,37.872h-4.824l-11.952-31.032l-11.952,31.032h-4.824l-14.256-37.872h4.896l11.88,32.184
			l12.168-32.184h4.392l12.096,32.184l12.024-32.184H391.212z"/>
	</g>
	<g>
		<path class = "roll1" d="M326.212,417.839l-14.328,37.872h-4.824l-11.952-31.032l-11.952,31.032h-4.824l-14.256-37.872h4.896l11.88,32.184
			l12.168-32.184h4.392l12.096,32.184l12.024-32.184H326.212z"/>
	</g>
	<g>
		<path d="M456.432,454.919c-0.745-0.767-1.116-1.703-1.116-2.808c0-1.104,0.371-2.027,1.116-2.772
			c0.744-0.744,1.644-1.116,2.7-1.116c1.055,0,1.968,0.372,2.736,1.116c0.767,0.745,1.152,1.668,1.152,2.772
			c0,1.105-0.385,2.041-1.152,2.808c-0.769,0.769-1.681,1.152-2.736,1.152C458.075,456.071,457.176,455.688,456.432,454.919z"/>
	</g>
	<g>
		<path d="M520.392,435.407c0.647-1.487,1.451-2.759,2.412-3.816c0.959-1.055,2.207-2.255,3.743-3.6
			c2.063-1.823,3.588-3.42,4.572-4.788c0.983-1.368,1.476-3.036,1.476-5.004c0-2.639-1.032-4.763-3.096-6.372
			c-2.064-1.608-4.896-2.412-8.496-2.412c-5.952,0-10.537,1.944-13.752,5.832l-3.816-2.88c4.08-4.991,10.056-7.488,17.928-7.488
			c5.041,0,9.061,1.128,12.061,3.384c3,2.257,4.5,5.305,4.5,9.144c0,1.969-0.324,3.708-0.972,5.22s-1.44,2.797-2.376,3.852
			c-0.936,1.056-2.172,2.28-3.708,3.672c-2.064,1.872-3.601,3.541-4.608,5.004c-1.008,1.465-1.512,3.276-1.512,5.436h-5.328
			C519.42,438.624,519.744,436.896,520.392,435.407z M519.42,454.955c-0.72-0.744-1.08-1.62-1.08-2.628
			c0-1.056,0.36-1.932,1.08-2.628c0.721-0.695,1.607-1.044,2.664-1.044c1.104,0,2.016,0.349,2.736,1.044
			c0.72,0.697,1.08,1.573,1.08,2.628c0,1.008-0.373,1.884-1.116,2.628c-0.745,0.745-1.646,1.116-2.7,1.116
			C521.027,456.071,520.14,455.7,519.42,454.955z"/>
	</g>
	<g>
		<path class="roll1" d="M561.892,435.407c0.647-1.487,1.451-2.759,2.412-3.816c0.959-1.055,2.207-2.255,3.743-3.6
			c2.063-1.823,3.588-3.42,4.572-4.788c0.983-1.368,1.476-3.036,1.476-5.004c0-2.639-1.032-4.763-3.096-6.372
			c-2.064-1.608-4.896-2.412-8.496-2.412c-5.952,0-10.537,1.944-13.752,5.832l-3.816-2.88c4.08-4.991,10.056-7.488,17.928-7.488
			c5.041,0,9.061,1.128,12.061,3.384c3,2.257,4.5,5.305,4.5,9.144c0,1.969-0.324,3.708-0.972,5.22s-1.44,2.797-2.376,3.852
			c-0.936,1.056-2.172,2.28-3.708,3.672c-2.064,1.872-3.601,3.541-4.608,5.004c-1.008,1.465-1.512,3.276-1.512,5.436h-5.328
			C560.92,438.624,561.244,436.896,561.892,435.407z M560.92,454.955c-0.72-0.744-1.08-1.62-1.08-2.628
			c0-1.056,0.36-1.932,1.08-2.628c0.721-0.695,1.607-1.044,2.664-1.044c1.104,0,2.016,0.349,2.736,1.044
			c0.72,0.697,1.08,1.573,1.08,2.628c0,1.008-0.373,1.884-1.116,2.628c-0.745,0.745-1.646,1.116-2.7,1.116
			C562.527,456.071,561.64,455.7,560.92,454.955z"/>
	</g>
	<g>
		<path d="M482.392,435.407c0.648-1.487,1.451-2.759,2.412-3.816c0.959-1.055,2.207-2.255,3.744-3.6
			c2.063-1.823,3.588-3.42,4.572-4.788c0.983-1.368,1.476-3.036,1.476-5.004c0-2.639-1.033-4.763-3.096-6.372
			c-2.064-1.608-4.896-2.412-8.496-2.412c-5.952,0-10.537,1.944-13.752,5.832l-3.816-2.88c4.079-4.991,10.055-7.488,17.928-7.488
			c5.04,0,9.06,1.128,12.06,3.384c3,2.257,4.5,5.305,4.5,9.144c0,1.969-0.324,3.708-0.972,5.22s-1.44,2.797-2.376,3.852
			c-0.936,1.056-2.172,2.28-3.708,3.672c-2.064,1.872-3.6,3.541-4.608,5.004c-1.008,1.465-1.512,3.276-1.512,5.436h-5.328
			C481.42,438.624,481.744,436.896,482.392,435.407z M481.42,454.955c-0.72-0.744-1.08-1.62-1.08-2.628
			c0-1.056,0.36-1.932,1.08-2.628c0.72-0.695,1.608-1.044,2.664-1.044c1.104,0,2.016,0.349,2.736,1.044
			c0.72,0.697,1.08,1.573,1.08,2.628c0,1.008-0.372,1.884-1.116,2.628c-0.745,0.745-1.645,1.116-2.7,1.116
			C483.028,456.071,482.14,455.7,481.42,454.955z"/>
	</g>
	<g>
		<path d="M592.431,454.919c-0.744-0.767-1.115-1.703-1.115-2.808c0-1.104,0.371-2.027,1.115-2.772
			c0.744-0.744,1.645-1.116,2.7-1.116s1.968,0.372,2.736,1.116c0.767,0.745,1.151,1.668,1.151,2.772
			c0,1.105-0.385,2.041-1.151,2.808c-0.769,0.769-1.681,1.152-2.736,1.152S593.176,455.688,592.431,454.919z"/>
	</g>
	<g>
		<path d="M613.279,453.623c-2.951-1.631-5.268-3.924-6.947-6.876c-1.681-2.952-2.52-6.275-2.52-9.972
			c0-3.696,0.839-7.008,2.52-9.936c1.68-2.927,3.996-5.208,6.947-6.84c2.953-1.631,6.301-2.448,10.045-2.448
			c3.264,0,6.18,0.637,8.748,1.908c2.566,1.272,4.596,3.132,6.084,5.58l-3.816,2.592c-1.248-1.872-2.832-3.276-4.752-4.212
			s-4.008-1.404-6.264-1.404c-2.736,0-5.197,0.612-7.381,1.836c-2.184,1.224-3.887,2.964-5.111,5.22
			c-1.225,2.257-1.836,4.824-1.836,7.704c0,2.928,0.611,5.508,1.836,7.74c1.225,2.232,2.928,3.96,5.111,5.184
			c2.184,1.224,4.645,1.836,7.381,1.836c2.256,0,4.344-0.456,6.264-1.368c1.92-0.911,3.504-2.304,4.752-4.176l3.816,2.592
			c-1.488,2.448-3.528,4.309-6.12,5.58c-2.593,1.272-5.497,1.908-8.712,1.908C619.58,456.071,616.232,455.256,613.279,453.623z"/>
	</g>
	<g>
		<path d="M656.279,453.623c-2.951-1.631-5.268-3.924-6.947-6.876c-1.681-2.952-2.52-6.275-2.52-9.972
			c0-3.696,0.839-7.008,2.52-9.936c1.68-2.927,3.996-5.208,6.947-6.84c2.953-1.631,6.301-2.448,10.045-2.448
			c3.264,0,6.18,0.637,8.748,1.908c2.566,1.272,4.596,3.132,6.084,5.58l-3.816,2.592c-1.248-1.872-2.832-3.276-4.752-4.212
			s-4.008-1.404-6.264-1.404c-2.736,0-5.197,0.612-7.381,1.836c-2.184,1.224-3.887,2.964-5.111,5.22
			c-1.225,2.257-1.836,4.824-1.836,7.704c0,2.928,0.611,5.508,1.836,7.74c1.225,2.232,2.928,3.96,5.111,5.184
			c2.184,1.224,4.645,1.836,7.381,1.836c2.256,0,4.344-0.456,6.264-1.368c1.92-0.911,3.504-2.304,4.752-4.176l3.816,2.592
			c-1.488,2.448-3.528,4.309-6.12,5.58c-2.593,1.272-5.497,1.908-8.712,1.908C662.58,456.071,659.232,455.256,656.279,453.623z"/>
	</g>
	<g>
		<path d="M698.279,453.623c-2.951-1.631-5.268-3.924-6.947-6.876c-1.681-2.952-2.52-6.275-2.52-9.972
			c0-3.696,0.839-7.008,2.52-9.936c1.68-2.927,3.996-5.208,6.947-6.84c2.953-1.631,6.301-2.448,10.045-2.448
			c3.264,0,6.18,0.637,8.748,1.908c2.566,1.272,4.596,3.132,6.084,5.58l-3.816,2.592c-1.248-1.872-2.832-3.276-4.752-4.212
			s-4.008-1.404-6.264-1.404c-2.736,0-5.197,0.612-7.381,1.836c-2.184,1.224-3.887,2.964-5.111,5.22
			c-1.225,2.257-1.836,4.824-1.836,7.704c0,2.928,0.611,5.508,1.836,7.74c1.225,2.232,2.928,3.96,5.111,5.184
			c2.184,1.224,4.645,1.836,7.381,1.836c2.256,0,4.344-0.456,6.264-1.368c1.92-0.911,3.504-2.304,4.752-4.176l3.816,2.592
			c-1.488,2.448-3.528,4.309-6.12,5.58c-2.593,1.272-5.497,1.908-8.712,1.908C704.58,456.071,701.232,455.256,698.279,453.623z"/>
	</g>
</g>
<g id="Layer_4">
</g>
<g id="Layer_3_1_">
</g>
<g id="Layer_2">
</g>
</svg>
