<?xml version="1.0" encoding="utf-8"?>
<!-- Generator: Adobe Illustrator 16.0.0, SVG Export Plug-In . SVG Version: 6.00 Build 0)  -->
<!DOCTYPE svg PUBLIC "-//W3C//DTD SVG 1.1//EN" "http://www.w3.org/Graphics/SVG/1.1/DTD/svg11.dtd">
<svg version="1.1" id="Layer_1" xmlns="http://www.w3.org/2000/svg" xmlns:xlink="http://www.w3.org/1999/xlink" x="0px" y="0px"
	 viewBox="0 0 1000 1000" enable-background="new 0 0 1000 1000" xml:space="preserve">

<style>
	 #vecmap{
		 stroke-dasharray:2200;
		 stroke-dashoffset:0;
		
		 -webkit-animation:dash 2s linear forwards;
		 }
		 @-webkit-keyframes dash{

		 from{
		 stroke-dashoffset:2200;
		 }
		 to{
		 stroke-dashoffset:0;
		 }
		 }
		 @-webkit-keyframes hideshow {
  0% { opacity: 0;-webkit-transform:translateY(100px)}
  5% { opacity: 1;-webkit-transform:translateY(0px) }
 
  100% { opacity: 1; }
} 
		 @-webkit-keyframes hideshow2 {
  0% { opacity: 0; -webkit-transform:translateY(100px) }
  10% { opacity: 0; -webkit-transform:translateY(100px) }

  20% { opacity: 1;-webkit-transform:translateY(0px) }
 
 
  100% { opacity: 1; }
} 
		 @-webkit-keyframes hideshow3 {
  0% { opacity: 0;-webkit-transform:translateY(100px) }
    10% { opacity: 0;-webkit-transform:translateY(100px) }

  20% { opacity: 0;-webkit-transform:translateY(100px) }

  30% { opacity: 1;-webkit-transform:translateY(0px) }
 
 
  100% { opacity: 1; }
} 
 @-webkit-keyframes hideshow4 {
  0% { opacity: 0; }
  10% { opacity: 0; }
   20% { opacity: 0; }
  30% {opacity:0;}
  40% {opacity:1; }
 
  100% { opacity: 1; }
} 
 @-webkit-keyframes hideshow5 {
  0% { opacity: 0; }
  10% { opacity: 0; }
   20% { opacity: 0; }
  30% {opacity:0;}
  40% {opacity:0;}
  50% {opacity:1; }
 
  100% { opacity: 1; }
} 
 @-webkit-keyframes hideshow6 {
  0% { opacity: 0; }
  10% { opacity: 0; }
   20% { opacity: 0; }
  30% {opacity:0;}
  40% {opacity:0;}
  50% {opacity:0;}
  60% {opacity:1; }
 
 
  100% { opacity: 1; }
} 
 @-webkit-keyframes hideshow7 {
  0% { opacity: 0; }
  10% { opacity: 0; }
   20% { opacity: 0; }
  30% {opacity:0;}
  40% {opacity:0;}
  50% {opacity:0;}
  60% {opacity:0;}
  70% {opacity:1; }
 
  100% { opacity: 1; }
} 
 @-webkit-keyframes hideshow8 {
  0% { opacity: 0; }
  10% { opacity: 0; }
   20% { opacity: 0; }
  30% {opacity:0;}
  40% {opacity:0;}
  50% {opacity:0;}
  60% {opacity:0;}
  70% {opacity:0;-webkit-transform:translateY(100px)}
  80% {opacity:1;-webkit-transform:translateY(0px)}


  100% { opacity: 1;-webkit-transform:translateY(0px) }
} 
 @-webkit-keyframes hideshow9 {
  0% { opacity: 0; }
  10% { opacity: 0; }
   20% { opacity: 0; }
  30% {opacity:0;}
  40% {opacity:0;}
  50% {opacity:0;}
  60% {opacity:0;}
  70% {opacity:0;}
  80% {opacity:0;-webkit-transform:translateY(100px)}
  90% {opacity:1; -webkit-transform:translateY(0px)}

 
  100% { opacity: 1; }
} 
@-webkit-keyframes hideshow10 {
  0% { opacity: 0; }
  10% { opacity: 0; }
   20% { opacity: 0; }
  30% {opacity:0;}
  40% {opacity:0;}
  50% {opacity:0;}
  60% {opacity:0;}
  70% {opacity:0;}
  80% {opacity:0;}
  90% {opacity:0; -webkit-transform:translateY(100px)}

 
  100% { opacity: 1; -webkit-transform:translateY(0px)}
} 
@-webkit-keyframes hideandshowblink{
0%{opacity:0; -webkit-transform:translateX(0px)}
 10% { opacity: 1; }
   20% { opacity: 1; }
  30% {opacity:1;}
  40% {opacity:0;}
50%{opacity:1;-webkit-transform:translateX(450px)}
 60% {opacity:0;-webkit-transform:translateX(450px)}
  70% {opacity:1;-webkit-transform:translateX(450px)}
  80% {opacity:0;-webkit-transform:translateX(450px)}
  90% {opacity:1;-webkit-transform:translateX(450px)}
100%{opacity:0; -webkit-transform:translateX(450px)}
}
.blink {
		animation: hideandshowblink 5s  infinite;

}

		 .w{
		
		animation: hideshow 5s ease infinite;
		
		 }
		 .w2{
		 animation: hideshow2 5s  infinite;
		 }
		  .w3{
		 animation: hideshow3 5s ease infinite;
		 }
		  .w4{
		 animation: hideshow4 5s ease infinite;
		 }
		  .w5{
		 animation: hideshow5 5s ease infinite;
		 }
		   .w6{
		 animation: hideshow6 5s ease infinite;
		 }
		   .w7{
		 animation: hideshow7 5s ease infinite;
		 }
		   .w8{
		 animation: hideshow8 5s ease infinite;
		 }
		   .w9{
		 animation: hideshow9 5s ease infinite;
		 }
		  .w10{
		 animation: hideshow10 5s ease infinite;
		 }
		
		 .typewriter text {
  overflow: hidden; /* Ensures the content is not revealed until the animation */
  border-right: .15em solid orange; /* The typwriter cursor */
  white-space: nowrap; /* Keeps the content on a single line */
  margin: 0 auto; /* Gives that scrolling effect as the typing happens */
  letter-spacing: .15em; /* Adjust as needed */
  animation: 
    typing 3.5s steps(40, end),
    blink-caret .75s step-end infinite;
}

</style>
<g >
	<g id="Layer_3">
		<path fill="#DDDDDD" stroke="#000000" stroke-miterlimit="10" d="M500,153.169c167.091,0,302.543,135.452,302.543,302.542
			c0,29.069-4.101,57.182-11.754,83.789c-4.146,14.413-9.335,28.387-15.479,41.83C727.601,685.718,622.271,758.252,500,758.253
			c-129.085,0-239.288-80.845-282.741-194.661c-3.007-7.877-5.694-15.912-8.047-24.089c-7.653-26.608-11.754-54.723-11.754-83.792
			C197.458,288.621,332.911,153.169,500,153.169z"/>
	</g>
	<g display="none">
		
			<line display="inline" fill="none" stroke="#000000" stroke-width="3" stroke-miterlimit="10" x1="770.5" y1="578.5" x2="223.421" y2="578.5"/>
	</g>
	<g display="none">
		
			<line display="inline" fill="none" stroke="#000000" stroke-width="3" stroke-miterlimit="10" x1="802.51" y1="459.527" x2="197.49" y2="459.527"/>
	</g>
	<g class = "w">
		<path class = "w3" d="M455.942,417.769l-14.328,37.872h-4.824l-11.951-31.032l-11.952,31.032h-4.824l-14.256-37.872h4.896l11.88,32.184
			l12.168-32.184h4.393l12.096,32.184l12.024-32.184H455.942z"/>
	</g>
	<g>
		<path class ="w2"  d="M391.213,417.839l-14.328,37.872h-4.824l-11.952-31.032l-11.952,31.032h-4.824l-14.256-37.872h4.896l11.88,32.184
			l12.168-32.184h4.392l12.097,32.184l12.023-32.184H391.213z"/>
	</g>
	<g>
		<path class = "w" d="M326.213,417.839l-14.328,37.872h-4.824l-11.952-31.032l-11.952,31.032h-4.824l-14.256-37.872h4.896l11.88,32.184
			l12.168-32.184h4.392l12.097,32.184l12.023-32.184H326.213z"/>
	</g>
	<g>
		<path class = "w4" d="M456.432,454.919c-0.745-0.768-1.116-1.703-1.116-2.809c0-1.104,0.371-2.026,1.116-2.771
			c0.744-0.744,1.644-1.116,2.7-1.116c1.055,0,1.968,0.372,2.735,1.116c0.768,0.745,1.152,1.668,1.152,2.771
			c0,1.105-0.385,2.041-1.152,2.809c-0.769,0.769-1.681,1.151-2.735,1.151C458.075,456.071,457.177,455.688,456.432,454.919z"/>
	</g>
	<g>
		<path class = "w6" d="M520.392,435.406c0.646-1.486,1.451-2.759,2.412-3.815c0.959-1.056,2.207-2.255,3.743-3.601
			c2.063-1.822,3.588-3.42,4.571-4.788c0.983-1.367,1.477-3.035,1.477-5.003c0-2.64-1.032-4.764-3.096-6.372
			c-2.064-1.608-4.896-2.412-8.496-2.412c-5.952,0-10.537,1.943-13.752,5.832l-3.816-2.88c4.08-4.991,10.056-7.488,17.928-7.488
			c5.041,0,9.062,1.128,12.062,3.384c3,2.257,4.5,5.305,4.5,9.145c0,1.969-0.324,3.707-0.973,5.22
			c-0.647,1.512-1.439,2.797-2.376,3.852c-0.936,1.056-2.172,2.28-3.708,3.672c-2.063,1.872-3.601,3.541-4.607,5.004
			c-1.008,1.465-1.513,3.276-1.513,5.437h-5.327C519.421,438.623,519.744,436.896,520.392,435.406z M519.421,454.954
			c-0.721-0.743-1.08-1.619-1.08-2.628c0-1.056,0.359-1.932,1.08-2.628c0.721-0.694,1.606-1.044,2.663-1.044
			c1.104,0,2.017,0.35,2.736,1.044c0.72,0.697,1.08,1.573,1.08,2.628c0,1.009-0.373,1.885-1.116,2.628
			c-0.745,0.745-1.646,1.116-2.7,1.116C521.027,456.071,520.14,455.699,519.421,454.954z"/>
	</g>
	<g>
		<path class = "w7" d="M561.892,435.406c0.646-1.486,1.451-2.759,2.412-3.815c0.959-1.056,2.207-2.255,3.743-3.601
			c2.063-1.822,3.588-3.42,4.571-4.788c0.983-1.367,1.477-3.035,1.477-5.003c0-2.64-1.032-4.764-3.096-6.372
			c-2.064-1.608-4.896-2.412-8.496-2.412c-5.952,0-10.537,1.943-13.752,5.832l-3.816-2.88c4.08-4.991,10.056-7.488,17.928-7.488
			c5.041,0,9.062,1.128,12.062,3.384c3,2.257,4.5,5.305,4.5,9.145c0,1.969-0.324,3.707-0.973,5.22
			c-0.647,1.512-1.439,2.797-2.376,3.852c-0.936,1.056-2.172,2.28-3.708,3.672c-2.063,1.872-3.601,3.541-4.607,5.004
			c-1.008,1.465-1.513,3.276-1.513,5.437h-5.327C560.921,438.623,561.244,436.896,561.892,435.406z M560.921,454.954
			c-0.721-0.743-1.08-1.619-1.08-2.628c0-1.056,0.359-1.932,1.08-2.628c0.721-0.694,1.606-1.044,2.663-1.044
			c1.104,0,2.017,0.35,2.736,1.044c0.72,0.697,1.08,1.573,1.08,2.628c0,1.009-0.373,1.885-1.116,2.628
			c-0.745,0.745-1.646,1.116-2.7,1.116C562.527,456.071,561.64,455.699,560.921,454.954z"/>
	</g>
	<g>
		<path class = "w5" d="M482.392,435.406c0.648-1.486,1.451-2.759,2.412-3.815c0.959-1.056,2.207-2.255,3.744-3.601
			c2.063-1.822,3.588-3.42,4.571-4.788c0.983-1.367,1.477-3.035,1.477-5.003c0-2.64-1.033-4.764-3.097-6.372
			s-4.896-2.412-8.495-2.412c-5.952,0-10.537,1.943-13.753,5.832l-3.815-2.88c4.079-4.991,10.055-7.488,17.928-7.488
			c5.04,0,9.061,1.128,12.061,3.384c3,2.257,4.5,5.305,4.5,9.145c0,1.969-0.324,3.707-0.973,5.22
			c-0.647,1.512-1.439,2.797-2.376,3.852c-0.936,1.056-2.172,2.28-3.708,3.672c-2.063,1.872-3.6,3.541-4.607,5.004
			c-1.009,1.465-1.513,3.276-1.513,5.437h-5.328C481.421,438.623,481.744,436.896,482.392,435.406z M481.421,454.954
			c-0.721-0.743-1.08-1.619-1.08-2.628c0-1.056,0.359-1.932,1.08-2.628c0.72-0.694,1.607-1.044,2.663-1.044
			c1.104,0,2.017,0.35,2.736,1.044c0.721,0.697,1.08,1.573,1.08,2.628c0,1.009-0.372,1.885-1.116,2.628
			c-0.745,0.745-1.645,1.116-2.7,1.116S482.14,455.699,481.421,454.954z"/>
	</g>
	<g>
		<path class = "w7" d="M592.431,454.919c-0.744-0.768-1.115-1.703-1.115-2.809c0-1.104,0.371-2.026,1.115-2.771
			c0.744-0.744,1.645-1.116,2.7-1.116c1.055,0,1.968,0.372,2.735,1.116c0.768,0.745,1.151,1.668,1.151,2.771
			c0,1.105-0.385,2.041-1.151,2.809c-0.769,0.769-1.681,1.151-2.735,1.151C594.076,456.071,593.177,455.688,592.431,454.919z"/>
	</g>
	<g>
		<path class = "w8" d="M613.279,453.622c-2.951-1.631-5.268-3.924-6.947-6.876c-1.681-2.951-2.52-6.274-2.52-9.972
			c0-3.696,0.839-7.008,2.52-9.936s3.996-5.208,6.947-6.84c2.953-1.631,6.301-2.448,10.045-2.448c3.265,0,6.181,0.637,8.748,1.908
			c2.566,1.271,4.596,3.132,6.084,5.579l-3.815,2.593c-1.248-1.872-2.832-3.276-4.752-4.213c-1.921-0.936-4.009-1.403-6.265-1.403
			c-2.735,0-5.197,0.612-7.381,1.836s-3.887,2.964-5.111,5.22c-1.225,2.257-1.836,4.824-1.836,7.704c0,2.928,0.611,5.508,1.836,7.74
			c1.226,2.231,2.929,3.96,5.111,5.184c2.185,1.225,4.646,1.836,7.381,1.836c2.256,0,4.344-0.456,6.265-1.368
			c1.92-0.91,3.504-2.304,4.752-4.176l3.815,2.592c-1.488,2.448-3.527,4.31-6.12,5.58c-2.593,1.272-5.497,1.908-8.712,1.908
			C619.58,456.071,616.232,455.256,613.279,453.622z"/>
	</g>
	<g>
		<path class = "w9" d="M656.279,453.622c-2.951-1.631-5.268-3.924-6.947-6.876c-1.681-2.951-2.52-6.274-2.52-9.972
			c0-3.696,0.839-7.008,2.52-9.936s3.996-5.208,6.947-6.84c2.953-1.631,6.301-2.448,10.045-2.448c3.265,0,6.181,0.637,8.748,1.908
			c2.566,1.271,4.596,3.132,6.084,5.579l-3.815,2.593c-1.248-1.872-2.832-3.276-4.752-4.213c-1.921-0.936-4.009-1.403-6.265-1.403
			c-2.735,0-5.197,0.612-7.381,1.836s-3.887,2.964-5.111,5.22c-1.225,2.257-1.836,4.824-1.836,7.704c0,2.928,0.611,5.508,1.836,7.74
			c1.226,2.231,2.929,3.96,5.111,5.184c2.185,1.225,4.646,1.836,7.381,1.836c2.256,0,4.344-0.456,6.265-1.368
			c1.92-0.91,3.504-2.304,4.752-4.176l3.815,2.592c-1.488,2.448-3.527,4.31-6.12,5.58c-2.593,1.272-5.497,1.908-8.712,1.908
			C662.58,456.071,659.232,455.256,656.279,453.622z"/>
	</g>
	<g>
		<path class = "w10" d="M698.279,453.622c-2.951-1.631-5.268-3.924-6.947-6.876c-1.681-2.951-2.52-6.274-2.52-9.972
			c0-3.696,0.839-7.008,2.52-9.936s3.996-5.208,6.947-6.84c2.953-1.631,6.301-2.448,10.045-2.448c3.265,0,6.181,0.637,8.748,1.908
			c2.566,1.271,4.596,3.132,6.084,5.579l-3.815,2.593c-1.248-1.872-2.832-3.276-4.752-4.213c-1.921-0.936-4.009-1.403-6.265-1.403
			c-2.735,0-5.197,0.612-7.381,1.836s-3.887,2.964-5.111,5.22c-1.225,2.257-1.836,4.824-1.836,7.704c0,2.928,0.611,5.508,1.836,7.74
			c1.226,2.231,2.929,3.96,5.111,5.184c2.185,1.225,4.646,1.836,7.381,1.836c2.256,0,4.344-0.456,6.265-1.368
			c1.92-0.91,3.504-2.304,4.752-4.176l3.815,2.592c-1.488,2.448-3.527,4.31-6.12,5.58c-2.593,1.272-5.497,1.908-8.712,1.908
			C704.58,456.071,701.232,455.256,698.279,453.622z"/>
	</g>
</g>




<g>
	<path class = "blink" d="M250.5,396.779h4.752v67.392H250.5V396.779z"/>
</g>

<div class = "typewriter">
<text transform="matrix(1 0 0 1 264.0769 578.5002)" font-family="'Montserrat-Regular'" font-size="72">www.???.com</text>
</div>

</svg>
