<?xml version="1.0" encoding="utf-8"?>
<!-- Generator: Adobe Illustrator 16.0.0, SVG Export Plug-In . SVG Version: 6.00 Build 0)  -->
<!DOCTYPE svg PUBLIC "-//W3C//DTD SVG 1.1//EN" "http://www.w3.org/Graphics/SVG/1.1/DTD/svg11.dtd">
<svg version="1.1" id="Layer_1" xmlns="http://www.w3.org/2000/svg" xmlns:xlink="http://www.w3.org/1999/xlink" x="0px" y="0px"
	 width="252.667px" height="233.333px" viewBox="189.167 179.833 252.667 233.333"
	 enable-background="new 189.167 179.833 252.667 233.333" xml:space="preserve">
<g id="Layer_2_1_">
</g>
<path display="none" fill="#FFFFFF" stroke="#000000" stroke-miterlimit="10" d="M241.359,284.843c0,0,24.069-39.32,57.084,0
	C298.444,284.843,270.506,263.259,241.359,284.843z"/>
<circle opacity="0.3" stroke="#000000" stroke-miterlimit="10" cx="314.002" cy="296.599" r="108.668"/>
<rect x="273.234" y="255.028" display="none" fill="#FFFFFF" stroke="#000000" stroke-width="3" stroke-miterlimit="10" width="23.706" height="96.687"/>
<rect x="327.111" y="258.09" display="none" fill="#FFFFFF" stroke="#000000" stroke-width="3" stroke-miterlimit="10" width="23.706" height="96.688"/>
<path display="none" fill="#FFFFFF" stroke="#000000" stroke-width="3" stroke-miterlimit="10" d="M205.333,402.918
	c0,0,91.638-149.705,217.337,0C422.67,402.918,316.305,320.74,205.333,402.918z"/>
<path fill="#FFFFFF" stroke="#000000" stroke-miterlimit="10" d="M357.181,255.972"/>
<g display="none">
	<path display="inline" fill="#FFFFFF" stroke="#000000" stroke-width="3" stroke-miterlimit="10" d="M205.333,204.563
		c0,0,91.638,149.703,217.337,0C422.67,204.563,316.305,286.74,205.333,204.563z"/>
</g>
<g display="none">
	
		<rect x="222.5" y="224.5" display="inline" fill="#FFFFFF" stroke="#000000" stroke-width="4" stroke-miterlimit="10" width="54.666" height="54.666"/>
	
		<rect x="348.5" y="224.5" display="inline" fill="#FFFFFF" stroke="#000000" stroke-width="4" stroke-miterlimit="10" width="54.666" height="54.666"/>
</g>
<circle fill="#FFFFFF" stroke="#000000" stroke-width="2" stroke-miterlimit="10" cx="304.5" cy="293.832" r="23.334"/>
<path fill="#FFFFFF" stroke="#000000" stroke-width="3" stroke-miterlimit="10" d="M320.167,275.535c0,0,24.654-32.342,42.151,8.484
	c0,0,4.241,11.133,0,12.194c0,0-26.51,15.376-24.389,18.558c0,0-3.182,8.483-8.484,0"/>
<path display="none" fill="none" stroke="#000000" stroke-miterlimit="10" d="M280.5,319.496c0,0-9.666,0.335-14-5.333
	c0,0-9,1-12.333-4"/>
<path stroke="#000000" stroke-miterlimit="10" d="M244.935,303.091"/>
<path fill="#FFFFFF" stroke="#000000" stroke-miterlimit="10" d="M277.181,285.091"/>
<g display="none">
	<path display="inline" fill="#FFFFFF" stroke="#000000" stroke-miterlimit="10" d="M268.166,303.833c0,0-2.553,6.702-7.035,4.181
		c-0.099-0.056-0.198-0.116-0.298-0.181c-4.667-3-4-9.469,0-8.234c0,0,6-5.099,7.333,2.901"/>
	<path display="inline" fill="#FFFFFF" stroke="#000000" stroke-miterlimit="10" d="M265.5,297.998l6.667,5.292
		c0,0,5.333,2.04,5,5.292"/>
	<path display="inline" fill="#FFFFFF" stroke="#000000" stroke-miterlimit="10" d="M261.131,308.014l7.035,4.819
		c0,0,20.937,16.031,24,11.334"/>
	<path display="inline" fill="#FFFFFF" stroke="#000000" stroke-miterlimit="10" d="M276.181,306.091c0,0,7.418,1.893,9.656,5.868
		c0.907,1.611,0.963,3.564-0.671,5.872"/>
	<path display="inline" fill="#FFFFFF" stroke="#000000" stroke-miterlimit="10" d="M285.669,311.976c0,0,12.723,3.835,12.994-1.247
		"/>
</g>
<g>
	<path fill="#FFFFFF" stroke="#000000" stroke-miterlimit="10" d="M268.166,282.833c0,0-2.553,6.702-7.035,4.181
		c-0.099-0.056-0.198-0.116-0.298-0.181c-4.667-3-4-9.469,0-8.234c0,0,6-5.099,7.333,2.901"/>
	<path fill="#FFFFFF" stroke="#000000" stroke-miterlimit="10" d="M265.5,276.998l6.667,5.292c0,0,5.333,2.04,5,5.292"/>
	<path fill="#FFFFFF" stroke="#000000" stroke-miterlimit="10" d="M261.131,287.014l7.035,4.819c0,0,20.937,16.031,24,11.334"/>
	<path fill="#FFFFFF" stroke="#000000" stroke-miterlimit="10" d="M276.181,285.091c0,0,7.418,1.893,9.656,5.868
		c0.907,1.611,0.963,3.564-0.671,5.872"/>
	<path fill="#FFFFFF" stroke="#000000" stroke-miterlimit="10" d="M285.669,290.976c0,0,12.723,3.835,12.994-1.247"/>
</g>
<line fill="none" stroke="#000000" stroke-miterlimit="10" x1="307.5" y1="287.014" x2="315.5" y2="283.833"/>
<line fill="none" stroke="#000000" stroke-miterlimit="10" x1="307.195" y1="287.386" x2="315.804" y2="287.461"/>
<circle fill="none" stroke="#000000" stroke-miterlimit="10" cx="311.195" cy="286.091" r="7.638"/>
<circle fill="none" stroke="#000000" stroke-miterlimit="10" cx="291.557" cy="282.289" r="7.638"/>
<line fill="none" stroke="#000000" stroke-miterlimit="10" x1="295.691" y1="285.199" x2="287.11" y2="284.495"/>
<line fill="none" stroke="#000000" stroke-miterlimit="10" x1="296.129" y1="285.001" x2="288.449" y2="281.11"/>
</svg>
