<?xml version="1.0" encoding="utf-8"?>
<!-- Generator: Adobe Illustrator 16.0.0, SVG Export Plug-In . SVG Version: 6.00 Build 0)  -->
<!DOCTYPE svg PUBLIC "-//W3C//DTD SVG 1.1//EN" "http://www.w3.org/Graphics/SVG/1.1/DTD/svg11.dtd">
<svg version="1.1" id="Layer_2" xmlns="http://www.w3.org/2000/svg" xmlns:xlink="http://www.w3.org/1999/xlink" x="0px" y="0px"
	 viewBox="0 0 1000 1000" enable-background="new 0 0 1000 1000" xml:space="preserve">
<g id="Layer_x5F_1" display="none">
	<path fill="#FFFFFF" stroke="#000000" stroke-width="4" stroke-miterlimit="10" d="M444.525,594.475c0,6.627-5.373,12-12,12
		H331.102c-6.627,0-12-5.373-12-12V348.983c0-6.627,5.373-12,12-12h101.424c6.627,0,12,5.373,12,12L444.525,594.475L444.525,594.475
		z"/>
	<path fill="#FFFFFF" stroke="#000000" stroke-width="4" stroke-miterlimit="10" d="M656.459,594.475c0,6.627-5.373,12-12,12
		H543.034c-6.627,0-12-5.373-12-12V348.983c0-6.627,5.373-12,12-12h101.425c6.627,0,12,5.373,12,12V594.475z"/>
	<path fill="#FFFFFF" stroke="#000000" stroke-width="4" stroke-miterlimit="10" d="M569.949,515.729c0,6.627-5.373,12-12,12
		H456.525c-6.627,0-12-5.373-12-12V270.237c0-6.627,5.373-12,12-12h101.424c6.627,0,12,5.373,12,12V515.729z"/>
	<path display="inline" fill="#FFFFFF" stroke="#000000" stroke-width="5" stroke-miterlimit="10" d="M723.729,521.118
		c0,13.259-10.744,24-24,24H300.271c-13.255,0-24-10.741-24-24V318.272c0-13.254,10.745-24,24-24h399.457c13.256,0,24,10.746,24,24
		L723.729,521.118L723.729,521.118z"/>
	<path display="inline" fill="#FFFFFF" stroke="#000000" stroke-width="3" stroke-miterlimit="10" d="M686.171,483.661
		c0,13.259-10.744,24-24,24H333.898c-13.255,0-24-10.741-24-24V350.308c0-13.254,10.745-24,24-24h328.272c13.256,0,24,10.746,24,24
		V483.661z"/>
	<path id="vecmap" fill="none" stroke="#000000" stroke-width="9" stroke-miterlimit="10" d="M348.052,427.712
		c0,31.853,20.468,57.628,45.763,57.628"/>
	<path id="vecmap_1_" display="inline" fill="none" stroke="#000000" stroke-width="4" stroke-miterlimit="10" d="M584.477,549.118
		c0,44.97,39.42,81.355,88.135,81.355"/>
	<path id="vecmap_2_" display="inline" fill="none" stroke="#000000" stroke-width="4" stroke-miterlimit="10" d="M412.609,545.118
		c0,44.97-39.42,81.355-88.135,81.355"/>
	<g display="inline">
		
			<line id="vecmap_3_" fill="none" stroke="#000000" stroke-width="3" stroke-miterlimit="10" x1="317.407" y1="356.645" x2="678.425" y2="356.645"/>
	</g>
	<g display="inline">
		
			<line id="vecmap_4_" fill="none" stroke="#000000" stroke-width="3" stroke-miterlimit="10" x1="368.543" y1="365.119" x2="368.543" y2="497.322"/>
	</g>
	<g display="inline">
		
			<line id="vecmap_5_" fill="none" stroke="#000000" stroke-width="3" stroke-miterlimit="10" x1="637.713" y1="365.119" x2="637.713" y2="497.322"/>
	</g>
	<g display="inline">
		
			<rect id="vecmaprec" x="317.407" y="385.323" fill="#FFFFFF" stroke="#000000" stroke-width="3" stroke-miterlimit="10" width="355.205" height="80"/>
	</g>
	<g display="inline">
		
			<line fill="none" stroke="#000000" stroke-width="3" stroke-miterlimit="10" x1="317.407" y1="465.323" x2="672.611" y2="465.323"/>
	</g>
</g>
<text transform="matrix(1 0 0 1 461.9832 703.8977)" display="none" enable-background="new    " font-family="'MyriadPro-Regular'" font-size="72">3X</text>
<path display="none" fill="#E4E4EF" stroke="#000000" stroke-width="2" stroke-miterlimit="10" d="M383.59,609.331
	c0,0,41.716-44.212,15.288,15.766"/>
<g id="Layer_2_1_">
</g>
<path display="none" fill="#FFFFFF" stroke="#000000" stroke-miterlimit="10" d="M402.192,453.01c0,0,24.069-39.32,57.084,0
	C459.277,453.01,431.339,431.426,402.192,453.01z"/>
<path opacity="0.3" stroke="#000000" stroke-miterlimit="10" d="M474.835,573.436c-45.192,0-83.94-27.586-100.325-66.838"/>
<path opacity="0.3" stroke="#000000" stroke-miterlimit="10" d="M575.276,506.317c-16.316,39.4-55.143,67.119-100.441,67.119"/>
<path opacity="0.3" stroke="#000000" stroke-miterlimit="10" d="M374.51,506.598c-5.375-12.875-8.344-27.006-8.344-41.831
	c0-60.016,48.652-108.668,108.669-108.668c60.016,0,108.668,48.652,108.668,108.668c0,14.716-2.926,28.75-8.227,41.55"/>
<circle opacity="0.3" stroke="#000000" stroke-miterlimit="10" cx="474.835" cy="464.767" r="108.669"/>
<rect x="434.067" y="423.196" display="none" fill="#FFFFFF" stroke="#000000" stroke-width="3" stroke-miterlimit="10" width="23.706" height="96.688"/>
<rect x="487.944" y="426.258" display="none" fill="#FFFFFF" stroke="#000000" stroke-width="3" stroke-miterlimit="10" width="23.706" height="96.688"/>
<path display="none" fill="#FFFFFF" stroke="#000000" stroke-width="3" stroke-miterlimit="10" d="M366.166,571.086
	c0,0,91.638-149.705,217.337,0C583.503,571.086,477.138,488.908,366.166,571.086z"/>
<path fill="#FFFFFF" stroke="#000000" stroke-miterlimit="10" d="M518.014,443.14"/>
<g display="none">
	<path display="inline" fill="#FFFFFF" stroke="#000000" stroke-width="3" stroke-miterlimit="10" d="M366.166,372.73
		c0,0,91.638,149.704,217.337,0C583.503,372.73,477.138,454.907,366.166,372.73z"/>
</g>
<g display="none">
	
		<rect x="383.333" y="392.668" display="inline" fill="#FFFFFF" stroke="#000000" stroke-width="4" stroke-miterlimit="10" width="54.666" height="54.666"/>
	
		<rect x="509.333" y="392.668" display="inline" fill="#FFFFFF" stroke="#000000" stroke-width="4" stroke-miterlimit="10" width="54.666" height="54.666"/>
</g>
<path display="none" fill="none" stroke="#000000" stroke-miterlimit="10" d="M441.333,487.664c0,0-9.666,0.335-14-5.333
	c0,0-9,1-12.333-4"/>
<path stroke="#000000" stroke-miterlimit="10" d="M405.768,490.259"/>
<path fill="#FFFFFF" stroke="#000000" stroke-miterlimit="10" d="M438.014,472.259"/>
<g display="none">
	<path display="inline" fill="#FFFFFF" stroke="#000000" stroke-miterlimit="10" d="M428.999,472.001c0,0-2.553,6.702-7.035,4.181
		c-0.099-0.056-0.198-0.116-0.298-0.181c-4.667-3-4-9.469,0-8.234c0,0,6-5.099,7.333,2.901"/>
	<path display="inline" fill="#FFFFFF" stroke="#000000" stroke-miterlimit="10" d="M426.333,466.165l6.667,5.292
		c0,0,5.333,2.04,5,5.292"/>
	<path display="inline" fill="#FFFFFF" stroke="#000000" stroke-miterlimit="10" d="M421.964,476.181l7.035,4.819
		c0,0,20.937,16.031,24,11.334"/>
	<path display="inline" fill="#FFFFFF" stroke="#000000" stroke-miterlimit="10" d="M437.014,474.259c0,0,7.418,1.893,9.656,5.868
		c0.907,1.611,0.963,3.564-0.671,5.872"/>
	<path display="inline" fill="#FFFFFF" stroke="#000000" stroke-miterlimit="10" d="M446.502,480.143c0,0,12.723,3.835,12.994-1.247
		"/>
</g>
<line fill="none" stroke="#000000" stroke-width="2" stroke-miterlimit="10" x1="583.503" y1="505.709" x2="368.383" y2="505.709"/>
<rect x="392.127" y="389.891" transform="matrix(-0.9582 0.2862 -0.2862 -0.9582 929.8191 688.7537)" fill="#FFFFFF" stroke="#000000" stroke-width="3" stroke-miterlimit="10" width="44.887" height="44.887"/>
<rect x="364.199" y="440.222" transform="matrix(-0.9763 -0.2162 0.2162 -0.9763 664.106 997.9845)" fill="#FFFFFF" stroke="#000000" stroke-width="3" stroke-miterlimit="10" width="44.887" height="44.888"/>
<rect x="445.891" y="409.725" transform="matrix(-0.9988 -0.0481 0.0481 -0.9988 915.347 886.3557)" fill="#FFFFFF" stroke="#000000" stroke-width="3" stroke-miterlimit="10" width="44.886" height="44.888"/>
<rect x="457.195" y="351.724" transform="matrix(-0.8786 0.4776 -0.4776 -0.8786 1079.7417 473.8187)" fill="#FFFFFF" stroke="#000000" stroke-width="3" stroke-miterlimit="10" width="44.887" height="44.888"/>
<rect x="504.891" y="417.725" transform="matrix(-0.9922 0.1245 -0.1245 -0.9922 1105.3658 811.2593)" fill="#FFFFFF" stroke="#000000" stroke-width="3" stroke-miterlimit="10" width="44.886" height="44.888"/>
<rect x="526.891" y="470.725" transform="matrix(-0.9465 -0.3228 0.3228 -0.9465 910.079 1137.2544)" fill="#FFFFFF" stroke="#000000" stroke-width="3" stroke-miterlimit="10" width="44.886" height="44.889"/>
<g>
	<circle fill="#FFFFFF" stroke="#000000" stroke-width="2" stroke-miterlimit="10" cx="465.333" cy="481" r="23.334"/>
	<path fill="#FFFFFF" stroke="#000000" stroke-width="3" stroke-miterlimit="10" d="M481,462.703c0,0,24.654-32.342,42.151,8.484
		c0,0,4.241,11.133,0,12.194c0,0-26.51,15.376-24.389,18.558c0,0-3.182,8.482-8.484,0"/>
	<g>
		<path fill="#FFFFFF" stroke="#000000" stroke-miterlimit="10" d="M428.999,470.001c0,0-2.553,6.702-7.035,4.181
			c-0.099-0.056-0.198-0.116-0.298-0.181c-4.667-3-4-9.469,0-8.234c0,0,6-5.099,7.333,2.901"/>
		<path fill="#FFFFFF" stroke="#000000" stroke-miterlimit="10" d="M426.333,464.165l6.667,5.292c0,0,5.333,2.04,5,5.292"/>
		<path fill="#FFFFFF" stroke="#000000" stroke-miterlimit="10" d="M421.964,474.181l7.035,4.819c0,0,20.937,16.031,24,11.334"/>
		<path fill="#FFFFFF" stroke="#000000" stroke-miterlimit="10" d="M437.014,472.259c0,0,7.418,1.893,9.656,5.868
			c0.907,1.611,0.963,3.564-0.671,5.872"/>
		<path fill="#FFFFFF" stroke="#000000" stroke-miterlimit="10" d="M446.502,478.143c0,0,12.723,3.835,12.994-1.247"/>
	</g>
	<line fill="none" stroke="#000000" stroke-miterlimit="10" x1="468.333" y1="474.181" x2="476.333" y2="471.001"/>
	<line fill="none" stroke="#000000" stroke-miterlimit="10" x1="468.028" y1="474.553" x2="476.637" y2="474.629"/>
	<circle fill="none" stroke="#000000" stroke-miterlimit="10" cx="472.028" cy="473.259" r="7.638"/>
	<circle fill="none" stroke="#000000" stroke-miterlimit="10" cx="452.39" cy="469.457" r="7.638"/>
	<line fill="none" stroke="#000000" stroke-miterlimit="10" x1="456.524" y1="472.367" x2="447.943" y2="471.663"/>
	<line fill="none" stroke="#000000" stroke-miterlimit="10" x1="456.962" y1="472.169" x2="449.282" y2="468.277"/>
</g>
</svg>
