<?xml version="1.0" encoding="utf-8"?>
<!-- Generator: Adobe Illustrator 16.0.0, SVG Export Plug-In . SVG Version: 6.00 Build 0)  -->
<!DOCTYPE svg PUBLIC "-//W3C//DTD SVG 1.1//EN" "http://www.w3.org/Graphics/SVG/1.1/DTD/svg11.dtd">
<svg version="1.1" id="Layer_1" xmlns="http://www.w3.org/2000/svg" xmlns:xlink="http://www.w3.org/1999/xlink" x="0px" y="0px"
	 width="600px" height="600px" viewBox="0 0 600 600" enable-background="new 0 0 600 600" xml:space="preserve">
<g id="Layer_2_1_">
</g>
<line fill="none" stroke="#000000" stroke-width="3" stroke-miterlimit="10" x1="308.432" y1="53.351" x2="308.385" y2="103.493"/>
<line fill="none" stroke="#000000" stroke-width="3" stroke-miterlimit="10" x1="309.834" y1="119.611" x2="309.815" y2="139.932"/>
<line fill="none" stroke="#000000" stroke-width="3" stroke-miterlimit="10" x1="384.5" y1="156.5" x2="409.293" y2="105.493"/>
<line fill="none" stroke="#000000" stroke-width="3" stroke-miterlimit="10" x1="465.173" y1="108.117" x2="438.371" y2="150.497"/>
<line fill="none" stroke="#000000" stroke-width="3" stroke-miterlimit="10" x1="430.994" y1="164.901" x2="420.135" y2="182.076"/>
<line fill="none" stroke="#000000" stroke-width="3" stroke-miterlimit="10" x1="478.385" y1="148.781" x2="465.173" y2="164.219"/>
<line fill="none" stroke="#000000" stroke-width="3" stroke-miterlimit="10" x1="448.78" y1="230.548" x2="482.555" y2="193.489"/>
<line fill="none" stroke="#000000" stroke-width="3" stroke-miterlimit="10" x1="492.332" y1="180.592" x2="506.018" y2="165.572"/>
<circle fill="#FFFFFF" stroke="#000000" stroke-width="3" stroke-miterlimit="10" cx="312.9" cy="294.3" r="114"/>
<circle opacity="0.3" stroke="#000000" stroke-miterlimit="10" cx="269.901" cy="256.918" r="28.542"/>
<rect x="259.194" y="245.999" fill="#FFFFFF" stroke="#000000" stroke-miterlimit="10" width="6.226" height="25.396"/>
<rect x="273.344" y="246.803" fill="#FFFFFF" stroke="#000000" stroke-miterlimit="10" width="6.226" height="25.395"/>
<path fill="#FFFFFF" stroke="#000000" stroke-miterlimit="10" d="M241.359,284.843c0,0,24.069-39.32,57.084,0
	C298.444,284.843,270.506,263.259,241.359,284.843z"/>
<line fill="#FFFFFF" stroke="#000000" stroke-miterlimit="10" x1="305.701" y1="293.166" x2="306.342" y2="292.541"/>
<line fill="#FFFFFF" stroke="#000000" stroke-miterlimit="10" x1="306.021" y1="293.528" x2="306.682" y2="292.853"/>
<path fill="#FFFFFF" stroke="#000000" stroke-miterlimit="10" d="M306.342,294.04"/>
<path fill="#FFFFFF" stroke="#000000" stroke-miterlimit="10" d="M307.25,292.965l-1.081,1.076L307.25,292.965z"/>
<path fill="#FFFFFF" stroke="#000000" stroke-miterlimit="10" d="M306.401,294.394l1.245-1.204L306.401,294.394z"/>
<line fill="#FFFFFF" stroke="#000000" stroke-miterlimit="10" x1="306.682" y1="294.789" x2="308.196" y2="293.528"/>
<path fill="#8383FC" stroke="#000000" stroke-miterlimit="10" d="M306.021,292.457l-0.164,1.045L306.021,292.457z"/>
<path fill="#8383FC" stroke="#000000" stroke-miterlimit="10" d="M306.543,292.617l-0.521,1.182L306.543,292.617z"/>
<path fill="#8383FC" stroke="#000000" stroke-miterlimit="10" d="M307.02,292.842l-0.679,1.464L307.02,292.842z"/>
<line fill="#8383FC" stroke="#000000" stroke-miterlimit="10" x1="307.439" y1="293.071" x2="306.543" y2="294.597"/>
<g>
	<path fill="#FFFFFF" stroke="#000000" stroke-miterlimit="10" d="M241.359,232.744c0,0,24.069,39.32,57.084,0
		C298.444,232.744,270.506,254.328,241.359,232.744z"/>
</g>
<circle opacity="0.3" stroke="#000000" stroke-miterlimit="10" cx="355.958" cy="259.501" r="28.542"/>
<rect x="345.25" y="248.582" fill="#FFFFFF" stroke="#000000" stroke-miterlimit="10" width="6.227" height="25.396"/>
<rect x="359.401" y="249.386" fill="#FFFFFF" stroke="#000000" stroke-miterlimit="10" width="6.226" height="25.395"/>
<path fill="#FFFFFF" stroke="#000000" stroke-miterlimit="10" d="M327.416,287.426c0,0,24.068-39.32,57.084,0
	C384.5,287.426,356.562,265.842,327.416,287.426z"/>
<g>
	<path fill="#FFFFFF" stroke="#000000" stroke-miterlimit="10" d="M327.416,235.327c0,0,24.068,39.32,57.084,0
		C384.5,235.327,356.562,256.911,327.416,235.327z"/>
</g>
<circle opacity="0.3" stroke="#000000" stroke-miterlimit="10" cx="309.834" cy="332.149" r="28.542"/>
<rect x="299.126" y="321.23" fill="#FFFFFF" stroke="#000000" stroke-miterlimit="10" width="6.226" height="25.395"/>
<rect x="313.277" y="322.034" fill="#FFFFFF" stroke="#000000" stroke-miterlimit="10" width="6.226" height="25.395"/>
<path fill="#FFFFFF" stroke="#000000" stroke-miterlimit="10" d="M281.292,360.073c0,0,24.069-39.32,57.084,0
	C338.376,360.073,310.438,338.49,281.292,360.073z"/>
<g>
	<path fill="#FFFFFF" stroke="#000000" stroke-miterlimit="10" d="M281.292,307.974c0,0,24.069,39.32,57.084,0
		C338.376,307.974,310.438,329.559,281.292,307.974z"/>
</g>
</svg>
