<?xml version="1.0" encoding="utf-8"?>
<!-- Generator: Adobe Illustrator 16.0.0, SVG Export Plug-In . SVG Version: 6.00 Build 0)  -->
<!DOCTYPE svg PUBLIC "-//W3C//DTD SVG 1.1//EN" "http://www.w3.org/Graphics/SVG/1.1/DTD/svg11.dtd">
<svg version="1.1" id="Layer_1" xmlns="http://www.w3.org/2000/svg" xmlns:xlink="http://www.w3.org/1999/xlink" x="0px" y="0px"
	 viewBox="189.167 179.833 252.667 233.333"
	 enable-background="new 189.167 179.833 252.667 233.333" xml:space="preserve">
<g id="Layer_2_1_">
</g>
<path display="none" fill="#FFFFFF" stroke="#000000" stroke-miterlimit="10" d="M241.359,284.843c0,0,24.069-39.32,57.084,0
	C298.444,284.843,270.506,263.259,241.359,284.843z"/>
<circle opacity="0.3" stroke="#000000" stroke-miterlimit="10" cx="314.002" cy="296.599" r="108.668"/>
<rect x="273.234" y="255.028" fill="#FFFFFF" stroke="#000000" stroke-width="3" stroke-miterlimit="10" width="23.706" height="96.687"/>
<rect x="327.111" y="258.09" fill="#FFFFFF" stroke="#000000" stroke-width="3" stroke-miterlimit="10" width="23.706" height="96.688"/>
<path fill="#FFFFFF" stroke="#000000" stroke-width="3" stroke-miterlimit="10" d="M205.333,402.918c0,0,91.638-149.705,217.337,0
	C422.67,402.918,316.305,320.74,205.333,402.918z"/>
<line fill="#FFFFFF" stroke="#000000" stroke-miterlimit="10" x1="354.744" y1="252.642" x2="357.181" y2="250.263"/>
<line fill="#FFFFFF" stroke="#000000" stroke-miterlimit="10" x1="355.963" y1="254.02" x2="358.48" y2="251.453"/>
<path fill="#FFFFFF" stroke="#000000" stroke-miterlimit="10" d="M357.181,255.972"/>
<path fill="#FFFFFF" stroke="#000000" stroke-miterlimit="10" d="M360.64,251.877l-4.116,4.096L360.64,251.877z"/>
<path fill="#FFFFFF" stroke="#000000" stroke-miterlimit="10" d="M357.41,257.319l4.737-4.583L357.41,257.319z"/>
<line fill="#FFFFFF" stroke="#000000" stroke-miterlimit="10" x1="358.48" y1="258.824" x2="364.241" y2="254.02"/>
<path fill="#8383FC" stroke="#000000" stroke-miterlimit="10" d="M355.963,249.946l-0.626,3.979L355.963,249.946z"/>
<path fill="#8383FC" stroke="#000000" stroke-miterlimit="10" d="M357.947,250.555l-1.984,4.497L357.947,250.555z"/>
<path fill="#8383FC" stroke="#000000" stroke-miterlimit="10" d="M359.765,251.411l-2.584,5.572L359.765,251.411z"/>
<line fill="#8383FC" stroke="#000000" stroke-miterlimit="10" x1="361.36" y1="252.28" x2="357.947" y2="258.09"/>
<g>
	<path fill="#FFFFFF" stroke="#000000" stroke-width="3" stroke-miterlimit="10" d="M205.333,204.563c0,0,91.638,149.703,217.337,0
		C422.67,204.563,316.305,286.74,205.333,204.563z"/>
</g>
</svg>
