<?xml version="1.0" encoding="utf-8"?>
<!-- Generator: Adobe Illustrator 16.0.0, SVG Export Plug-In . SVG Version: 6.00 Build 0)  -->
<!DOCTYPE svg PUBLIC "-//W3C//DTD SVG 1.1//EN" "http://www.w3.org/Graphics/SVG/1.1/DTD/svg11.dtd">
<svg version="1.1" xmlns="http://www.w3.org/2000/svg" xmlns:xlink="http://www.w3.org/1999/xlink" x="0px" y="0px" width="1000px"
	 height="184.313px" viewBox="0 390.095 1000 184.313" enable-background="new 0 390.095 1000 184.313" xml:space="preserve">
<g id="Layer_1">
	<path fill="#FFFFFF" stroke="#000000" stroke-miterlimit="10" d="M106.694,469.153"/>
	<polyline fill="#DDDDDD" stroke="#000000" stroke-miterlimit="10" points="187.919,572.317 227.384,541.615 107.469,468.901 
		187.919,572.317 	"/>
	<polyline fill="#FFFFFF" stroke="#000000" stroke-miterlimit="10" points="187.919,572.317 148.455,603.018 107.469,468.901 
		187.919,572.317 	"/>
	<polyline fill="#DDDDDD" stroke="#000000" stroke-miterlimit="10" points="235.093,492.493 243.125,443.144 105.772,471.448 
		235.093,492.493 	"/>
	<polyline fill="#FFFFFF" stroke="#000000" stroke-miterlimit="10" points="235.093,492.493 227.061,541.846 105.772,471.448 
		235.093,492.493 	"/>
	<polyline fill="#DDDDDD" stroke="#000000" stroke-miterlimit="10" points="98.09,599.889 147.982,603.172 106.693,469.151 
		98.09,599.889 	"/>
	<polyline fill="#FFFFFF" stroke="#000000" stroke-miterlimit="10" points="98.09,599.889 48.199,596.606 106.693,469.151 
		98.09,599.889 	"/>
	<polyline fill="#DDDDDD" stroke="#000000" stroke-miterlimit="10" points="216.03,400.476 188.811,358.534 106.121,471.802 
		216.03,400.476 	"/>
	<polyline fill="#FFFFFF" stroke="#000000" stroke-miterlimit="10" points="216.03,400.476 243.248,442.419 106.121,471.802 
		216.03,400.476 	"/>
	<polyline fill="#FFFFFF" points="140.555,344.967 92.365,331.637 105.628,471.249 140.555,344.967 	"/>
	<polyline fill="#FFFFFF" points="140.555,344.967 188.746,358.295 105.628,471.249 140.555,344.967 	"/>
	<polyline fill="#DDDDDD" stroke="#000000" stroke-miterlimit="10" points="12.294,560.408 46.698,596.69 107.37,470.255 
		12.294,560.408 	"/>
	<polyline fill="#FFFFFF" stroke="#000000" stroke-miterlimit="10" points="12.294,560.408 -22.11,524.125 107.37,470.255 
		12.294,560.408 	"/>
	<polyline fill="#DDDDDD" stroke="#000000" stroke-miterlimit="10" points="-23.894,473.263 -22.305,523.239 107.063,469.103 
		-23.894,473.263 	"/>
	<polyline fill="#FFFFFF" stroke="#000000" stroke-miterlimit="10" points="-23.894,473.263 -25.482,423.29 107.063,469.103 
		-23.894,473.263 	"/>
	<polyline fill="#DDDDDD" stroke="#000000" stroke-miterlimit="10" points="6.701,384.095 -25.518,422.329 106.895,468.524 
		6.701,384.095 	"/>
	<polyline fill="#FFFFFF" stroke="#000000" stroke-miterlimit="10" points="6.701,384.095 38.921,345.86 106.895,468.524 
		6.701,384.095 	"/>
	<polygon fill="#DDDDDD" stroke="#000000" stroke-miterlimit="10" points="92.365,331.637 38.921,345.86 105.108,469.669 	"/>
	<path display="none" fill="#FFFFFF" stroke="#000000" stroke-miterlimit="10" d="M523.864,449.244v-10.93
		c-5.583-1.99-9.103-2.545-10.878-6.831c-1.781-4.295,0.33-7.215,2.861-12.528l-7.723-7.725c-5.271,2.505-8.225,4.647-12.533,2.862
		c-4.297-1.78-4.854-5.325-6.83-10.881h-10.931c-1.967,5.528-2.528,9.101-6.83,10.881h-0.005c-4.295,1.785-7.206-0.333-12.528-2.862
		l-7.716,7.725c2.515,5.3,4.642,8.229,2.861,12.528c-1.79,4.302-5.357,4.864-10.885,6.831v10.925
		c5.511,1.967,9.103,2.533,10.881,6.831c1.794,4.33-0.384,7.322-2.862,12.528l7.721,7.723c5.283-2.503,8.229-4.643,12.528-2.862
		h0.005c4.297,1.781,4.859,5.336,6.83,10.883h10.926c1.967-5.528,2.528-9.094,6.858-10.893h0.004
		c4.268-1.771,7.164,0.34,12.501,2.871l7.718-7.723c-2.502-5.281-4.642-8.226-2.866-12.528
		C514.757,451.78,518.345,451.206,523.864,449.244z M483.296,457.305c-7.464,0-13.521-6.057-13.521-13.525
		c0-7.469,6.057-13.526,13.521-13.526s13.521,6.057,13.521,13.526C496.817,451.248,490.76,457.305,483.296,457.305z
		 M557.273,477.375v-5.141c-2.624-0.937-4.278-1.197-5.117-3.211c-0.844-2.023,0.153-3.394,1.342-5.901l-3.635-3.635
		c-2.48,1.184-3.869,2.186-5.896,1.352c-2.023-0.839-2.289-2.508-3.216-5.122h-5.137c-0.927,2.601-1.192,4.283-3.216,5.122
		c-2.027,0.839-3.393-0.158-5.896-1.352l-3.635,3.635c1.184,2.499,2.186,3.878,1.342,5.901c-0.839,2.022-2.517,2.284-5.117,3.211
		v5.141c2.596,0.923,4.278,1.193,5.117,3.211c0.849,2.037-0.177,3.444-1.342,5.896l3.635,3.64c2.489-1.184,3.879-2.186,5.896-1.347
		c2.023,0.829,2.289,2.507,3.216,5.117h5.137c0.927-2.601,1.192-4.278,3.226-5.127h0.004c2.014-0.834,3.37,0.163,5.883,1.356
		l3.635-3.64c-1.179-2.479-2.186-3.869-1.342-5.891C552.995,478.573,554.677,478.298,557.273,477.375z M538.182,481.164
		c-3.515,0-6.362-2.848-6.362-6.362c0-3.514,2.848-6.362,6.362-6.362s6.362,2.848,6.362,6.362
		C544.545,478.317,541.697,481.164,538.182,481.164z M519.092,495.823v-3.859c-1.967-0.699-3.211-0.895-3.841-2.409
		c-0.634-1.515,0.112-2.541,1.012-4.423l-2.731-2.722c-1.859,0.886-2.895,1.641-4.418,1.007c-1.524-0.629-1.716-1.878-2.42-3.841
		h-3.85c-0.694,1.953-0.895,3.212-2.414,3.841c-1.513,0.634-2.543-0.112-4.418-1.007l-2.732,2.722
		c0.893,1.874,1.644,2.908,1.015,4.423c-0.632,1.52-1.891,1.715-3.843,2.409v3.859c1.947,0.69,3.211,0.895,3.843,2.41
		c0.634,1.524-0.136,2.586-1.015,4.423l2.732,2.722c1.861-0.886,2.9-1.641,4.418-1.007c1.52,0.63,1.715,1.884,2.414,3.841h3.85
		c0.699-1.953,0.9-3.211,2.424-3.841h0.005c1.506-0.624,2.521,0.121,4.409,1.017l2.731-2.727c-0.891-1.869-1.646-2.904-1.012-4.424
		C515.881,496.718,517.143,496.512,519.092,495.823z M504.773,498.666c-2.636,0-4.772-2.135-4.772-4.773
		c0-2.638,2.137-4.772,4.772-4.772c2.639,0,4.773,2.135,4.773,4.772C509.547,496.531,507.412,498.666,504.773,498.666z"/>
</g>
<g id="Layer_3_1_">
</g>
<g id="Layer_2">
	<polyline fill="#DDDDDD" stroke="#000000" stroke-miterlimit="10" points="32,500.408 -22,574.408 32,574.408 	"/>
	<line x1="147.5" y1="471.589" x2="93.5" y2="471.589"/>
	<polyline fill="#DDDDDD" stroke="#000000" stroke-miterlimit="10" points="31,500.408 85,574.408 31,574.408 	"/>
	<circle fill="#DDDDDD" stroke="#000000" stroke-miterlimit="10" cx="103.496" cy="465.941" r="33"/>
</g>
<g id="Layer_7" display="none">
	<rect x="0" y="199.5" display="inline" fill="#DDDDDD" stroke="#000000" stroke-miterlimit="10" width="1000" height="106.404"/>
	<rect x="0" y="452.5" display="inline" fill="#DDDDDD" stroke="#000000" stroke-miterlimit="10" width="1000" height="106.404"/>
</g>
<g id="Layer_4" display="none">
	<polygon points="321.043,381.555 334.972,447.091 287.006,437.862 	"/>
	<polygon display="inline" points="414.5,508.211 414.5,575.211 369.5,556.211 	"/>
	<polygon fill="#FFFFFF" points="316.414,379.649 284.937,438.794 254.139,400.88 	"/>
	<rect x="197.477" y="352.5" display="inline" fill="#FFFFFF" width="131.023" height="100"/>
	<rect x="328.5" y="352.5" display="inline" fill="#FFFFFF" width="131.023" height="100"/>
</g>
<g id="Layer_5" display="none">
	<polygon stroke="#000000" stroke-miterlimit="10" points="328.5,352.5 310.5,452.5 197.477,402.5 	"/>
	<g id="Layer_6" display="inline">
		<path d="M619.5,332.5"/>
	</g>
</g>
</svg>
