<?xml version="1.0" encoding="utf-8"?>
<!-- Generator: Adobe Illustrator 16.0.0, SVG Export Plug-In . SVG Version: 6.00 Build 0)  -->
<!DOCTYPE svg PUBLIC "-//W3C//DTD SVG 1.1//EN" "http://www.w3.org/Graphics/SVG/1.1/DTD/svg11.dtd">
<svg version="1.1" id="Layer_2" xmlns="http://www.w3.org/2000/svg" xmlns:xlink="http://www.w3.org/1999/xlink" x="0px" y="0px"
	 viewBox="0 0 1000 1000" enable-background="new 0 0 1000 1000" xml:space="preserve">
<circle stroke="#000000" stroke-miterlimit="10" enable-background="new    " cx="500" cy="456.711" r="302.542"/>
<g id="Layer_x5F_1" display="none">
	<path display="inline" fill="#FFFFFF" stroke="#000000" stroke-width="4" stroke-miterlimit="10" d="M444.525,594.475
		c0,6.627-5.373,12-12,12H331.102c-6.627,0-12-5.373-12-12V348.983c0-6.627,5.373-12,12-12h101.424c6.627,0,12,5.373,12,12
		L444.525,594.475L444.525,594.475z"/>
	<path display="inline" fill="#FFFFFF" stroke="#000000" stroke-width="4" stroke-miterlimit="10" d="M656.459,594.475
		c0,6.627-5.372,12-12,12H543.034c-6.627,0-12-5.373-12-12V348.983c0-6.627,5.373-12,12-12h101.425c6.628,0,12,5.373,12,12V594.475z
		"/>
	<path display="inline" fill="#FFFFFF" stroke="#000000" stroke-width="4" stroke-miterlimit="10" d="M569.949,515.729
		c0,6.627-5.373,12-12,12H456.525c-6.627,0-12-5.373-12-12V270.237c0-6.627,5.373-12,12-12h101.424c6.627,0,12,5.373,12,12V515.729z
		"/>
	<path display="inline" fill="#FFFFFF" stroke="#000000" stroke-width="5" stroke-miterlimit="10" d="M723.729,521.117
		c0,13.26-10.744,24-24,24H300.271c-13.255,0-24-10.74-24-24V318.272c0-13.254,10.745-24,24-24h399.457c13.256,0,24,10.746,24,24
		L723.729,521.117L723.729,521.117z"/>
	<path display="inline" fill="#FFFFFF" stroke="#000000" stroke-width="3" stroke-miterlimit="10" d="M686.172,483.66
		c0,13.26-10.744,24-24,24H333.898c-13.255,0-24-10.74-24-24V350.308c0-13.254,10.745-24,24-24h328.272c13.256,0,24,10.746,24,24
		L686.172,483.66L686.172,483.66z"/>
	<path id="vecmap" display="inline" fill="none" stroke="#000000" stroke-width="9" stroke-miterlimit="10" d="M348.052,427.712
		c0,31.853,20.468,57.628,45.763,57.628"/>
	<path id="vecmap_1_" display="inline" fill="none" stroke="#000000" stroke-width="4" stroke-miterlimit="10" d="M584.477,549.117
		c0,44.971,39.42,81.355,88.135,81.355"/>
	<path id="vecmap_2_" display="inline" fill="none" stroke="#000000" stroke-width="4" stroke-miterlimit="10" d="M412.609,545.117
		c0,44.971-39.42,81.355-88.135,81.355"/>
	<g display="inline">
		
			<line id="vecmap_3_" fill="none" stroke="#000000" stroke-width="3" stroke-miterlimit="10" x1="317.407" y1="356.645" x2="678.426" y2="356.645"/>
	</g>
	<g display="inline">
		
			<line id="vecmap_4_" fill="none" stroke="#000000" stroke-width="3" stroke-miterlimit="10" x1="368.543" y1="365.119" x2="368.543" y2="497.322"/>
	</g>
	<g display="inline">
		
			<line id="vecmap_5_" fill="none" stroke="#000000" stroke-width="3" stroke-miterlimit="10" x1="637.714" y1="365.119" x2="637.714" y2="497.322"/>
	</g>
	<g display="inline">
		
			<rect id="vecmaprec" x="317.407" y="385.323" fill="#FFFFFF" stroke="#000000" stroke-width="3" stroke-miterlimit="10" width="355.205" height="80"/>
	</g>
	<g display="inline">
		
			<line fill="none" stroke="#000000" stroke-width="3" stroke-miterlimit="10" x1="317.407" y1="465.323" x2="672.611" y2="465.323"/>
	</g>
</g>
<text transform="matrix(1 0 0 1 461.9832 703.8977)" display="none" enable-background="new    " font-family="'MyriadPro-Regular'" font-size="72">3X</text>
<rect x="386.5" y="340.973" fill="#FFFFFF" stroke="#000000" stroke-width="6" stroke-miterlimit="10" width="66" height="269.186"/>
<rect x="536.5" y="349.498" fill="#FFFFFF" stroke="#000000" stroke-width="6" stroke-miterlimit="10" width="66" height="269.186"/>
<path fill="#F0C420" stroke="#000000" stroke-width="6" stroke-miterlimit="10" d="M197.458,752.711c0,0,255.129-416.789,605.086,0
	C802.544,752.711,506.416,523.922,197.458,752.711z"/>
<g>
	<path fill="#FFFFFF" stroke="#000000" stroke-width="4" stroke-miterlimit="10" d="M601.047,586.348
		c0.363-1.334-2.883-3.382-7.25-4.574c-4.368-1.189-8.206-1.074-8.569,0.261c-0.054,0.195-0.029,0.405,0.065,0.627
		c0.546,1.289,3.455,2.931,7.186,3.946C596.845,587.799,600.682,587.684,601.047,586.348z"/>
	<path fill="#FFFFFF" stroke="#000000" stroke-width="4" stroke-miterlimit="10" d="M603.625,594.441
		c-4.092,1.429-2.468-8.462-2.468-8.462l-15.948-2.709c0,0-0.896,9.983-4.501,7.578"/>
	<g>
		<path fill="#FFFFFF" stroke="#000000" stroke-width="4" stroke-miterlimit="10" d="M359.9,638.086
			c-0.424-1.537-4.844-1.655-9.871-0.267c-5.027,1.39-8.758,3.763-8.333,5.297c0.063,0.227,0.21,0.42,0.434,0.584
			c1.299,0.955,5.146,0.867,9.438-0.317C356.594,641.992,360.325,639.62,359.9,638.086z"/>
		<path fill="#FFFFFF" stroke="#000000" stroke-width="5" stroke-miterlimit="10" d="M342.404,644.352c0,0,4.984,10.415,0,10.152"/>
		<path fill="#FFFFFF" stroke="#000000" stroke-width="4" stroke-miterlimit="10" d="M359.793,637.655c0,0,4.212,10.75,7.422,6.928"
			/>
	</g>
</g>
<line fill="none" stroke="#000000" stroke-miterlimit="10" x1="613.431" y1="334.331" x2="620.219" y2="327.707"/>
<line fill="none" stroke="#000000" stroke-miterlimit="10" x1="616.825" y1="338.167" x2="623.834" y2="331.019"/>
<path fill="#FFFFFF" stroke="#000000" stroke-miterlimit="10" d="M620.219,343.602"/>
<path fill="#FFFFFF" stroke="#000000" stroke-miterlimit="10" d="M629.847,332.2l-11.46,11.401L629.847,332.2z"/>
<path fill="#FFFFFF" stroke="#000000" stroke-miterlimit="10" d="M620.853,347.352l13.188-12.759L620.853,347.352z"/>
<line fill="none" stroke="#000000" stroke-miterlimit="10" x1="623.834" y1="351.542" x2="639.871" y2="338.167"/>
<path fill="#8383FC" stroke="#000000" stroke-miterlimit="10" d="M616.825,326.823l-1.741,11.077L616.825,326.823z"/>
<path fill="#8383FC" stroke="#000000" stroke-miterlimit="10" d="M622.35,328.521l-5.525,12.521L622.35,328.521z"/>
<path fill="#8383FC" stroke="#000000" stroke-miterlimit="10" d="M627.412,330.902l-7.192,15.514L627.412,330.902z"/>
<line fill="none" stroke="#000000" stroke-miterlimit="10" x1="631.851" y1="333.322" x2="622.35" y2="349.498"/>
<g>
	<path fill="#F0C420" stroke="#000000" stroke-width="6" stroke-miterlimit="10" d="M197.458,200.473c0,0,255.129,416.789,605.086,0
		C802.544,200.473,506.416,429.262,197.458,200.473z"/>
	<g>
		<path fill="#F0C420" stroke="#000000" stroke-width="4" stroke-miterlimit="10" d="M387.283,322.913
			c-0.317,1.346-4.147,1.59-8.555,0.546c-4.405-1.045-7.719-2.984-7.399-4.331c0.046-0.197,0.168-0.37,0.358-0.52
			c1.096-0.871,4.438-0.918,8.198-0.025C384.291,319.629,387.604,321.567,387.283,322.913z"/>
		<path fill="#F0C420" stroke="#000000" stroke-width="5" stroke-miterlimit="10" d="M371.904,318.035c0,0,3.991-9.194-0.325-8.809"
			/>
		<path fill="#F0C420" stroke="#000000" stroke-width="4" stroke-miterlimit="10" d="M387.204,323.291c0,0,3.309-9.461,6.217-6.249"
			/>
	</g>
	<g>
		<path fill="#F0C420" stroke="#000000" stroke-width="4" stroke-miterlimit="10" d="M664.547,306.323
			c1.361,0.829,0.266,5.112-2.449,9.566c-2.712,4.455-6.016,7.393-7.376,6.564c-0.199-0.121-0.347-0.317-0.443-0.576
			c-0.563-1.513,0.576-5.188,2.893-8.99C659.883,308.433,663.185,305.493,664.547,306.323z"/>
		<path fill="#F0C420" stroke="#000000" stroke-width="5" stroke-miterlimit="10" d="M653.727,321.433c0,0-8.651-7.646-9.765-2.78"
			/>
		<path fill="#F0C420" stroke="#000000" stroke-width="4" stroke-miterlimit="10" d="M664.93,306.544c0,0-9.186-6.994-4.629-9.035"
			/>
	</g>
</g>
<path display="none" fill="#E4E4EF" stroke="#000000" stroke-width="2" stroke-miterlimit="10" d="M383.591,609.33
	c0,0,41.716-44.212,15.288,15.767"/>
</svg>
