<?xml version="1.0" encoding="utf-8"?>
<!-- Generator: Adobe Illustrator 16.0.0, SVG Export Plug-In . SVG Version: 6.00 Build 0)  -->
<!DOCTYPE svg PUBLIC "-//W3C//DTD SVG 1.1//EN" "http://www.w3.org/Graphics/SVG/1.1/DTD/svg11.dtd">
<svg version="1.1" id="Layer_1" xmlns="http://www.w3.org/2000/svg" xmlns:xlink="http://www.w3.org/1999/xlink" x="0px" y="0px"
	  viewBox="0 0 1000 378" style="enable-background:new 0 0 1000 378;" xml:space="preserve">
<style type="text/css">
<![CDATA[
	.st0{fill:none;stroke:#000000;stroke-width:4;stroke-miterlimit:10;}
	.st1{stroke:#000000;stroke-width:4;stroke-miterlimit:10;}
]]>
</style>
<g>
	<path class="st0" d="M178,361c0,5.5-4.5,10-10,10H80c-5.5,0-10-4.5-10-10V21c0-5.5,4.5-10,10-10h88c5.5,0,10,4.5,10,10V361z"/>
</g>
<line class="st0" x1="189" y1="9" x2="189" y2="369"/>
<g>
	<path class="st0" d="M189,369h350c5.5,0,10-4.5,10-10V19c0-5.5-4.5-10-10-10H189"/>
</g>
<line class="st0" x1="198" y1="45" x2="531" y2="45"/>
<polyline class="st0" points="207,36 198,27 207,18 "/>
<rect x="306" y="18" class="st0" width="18" height="18"/>
<line class="st0" x1="333" y1="27" x2="414" y2="27"/>
<polyline class="st0" points="216,81 216,153 324,153 "/>
<polyline class="st0" points="216,171 216,243 324,243 "/>
<polyline class="st0" points="216,261 216,333 324,333 "/>
<polyline class="st0" points="396,81 396,153 504,153 "/>
<polyline class="st0" points="396,171 396,243 504,243 "/>
<polyline class="st0" points="396,261 396,333 504,333 "/>
<line class="st0" x1="333" y1="243" x2="342" y2="234"/>
<line class="st0" x1="81" y1="45" x2="171" y2="45"/>
<circle class="st0" cx="126" cy="27" r="9"/>
<line class="st0" x1="81" y1="324" x2="171" y2="324"/>
<line class="st0" x1="180" y1="18" x2="189" y2="18"/>
<polygon class="st0" points="90,108.5 81,122 94.5,122 99,122 "/>
<polygon class="st0" points="90,157.5 81,171 94.5,171 99,171 "/>
<polygon class="st0" points="90,202.5 81,216 94.5,216 99,216 "/>
<line class="st0" x1="108" y1="126" x2="144" y2="126"/>
<line class="st0" x1="108" y1="171" x2="144" y2="171"/>
<line class="st0" x1="108" y1="216" x2="144" y2="216"/>
<line class="st0" x1="180" y1="360" x2="189" y2="360"/>
<g>
	<path d="M245.283,62.559V72h-1.219v-9.441H245.283z"/>
	<path d="M247.411,72v-9.441h1.331l3.025,4.776c0.7,1.106,1.247,2.101,1.695,3.068l0.028-0.014c-0.112-1.261-0.14-2.409-0.14-3.88
		v-3.95h1.148V72h-1.232l-2.998-4.791c-0.659-1.051-1.289-2.129-1.765-3.152l-0.042,0.014c0.07,1.19,0.098,2.325,0.098,3.894V72
		H247.411z"/>
	<path d="M263.22,71.691c-0.448,0.224-1.345,0.448-2.493,0.448c-2.662,0-4.665-1.681-4.665-4.777c0-2.956,2.003-4.958,4.931-4.958
		c1.176,0,1.919,0.252,2.241,0.42l-0.294,0.994c-0.462-0.224-1.121-0.392-1.905-0.392c-2.213,0-3.684,1.415-3.684,3.894
		c0,2.312,1.331,3.796,3.628,3.796c0.742,0,1.499-0.154,1.989-0.393L263.22,71.691z"/>
	<path d="M272.517,67.181c0,3.25-1.975,4.973-4.384,4.973c-2.493,0-4.244-1.933-4.244-4.791c0-2.998,1.863-4.958,4.384-4.958
		C270.85,62.404,272.517,64.379,272.517,67.181z M265.191,67.335c0,2.017,1.092,3.824,3.011,3.824c1.933,0,3.026-1.779,3.026-3.922
		c0-1.877-0.98-3.838-3.012-3.838C266.199,63.399,265.191,65.262,265.191,67.335z"/>
	<path d="M282.051,67.853c-0.07-1.316-0.154-2.899-0.14-4.076h-0.042c-0.322,1.107-0.714,2.283-1.191,3.586l-1.667,4.581h-0.925
		l-1.527-4.496c-0.448-1.331-0.826-2.55-1.092-3.67h-0.028c-0.028,1.177-0.098,2.76-0.182,4.174L275.005,72h-1.163l0.658-9.441
		h1.555l1.611,4.566c0.392,1.163,0.714,2.199,0.952,3.18h0.042c0.238-0.953,0.575-1.989,0.995-3.18l1.681-4.566h1.555L283.479,72
		h-1.191L282.051,67.853z"/>
	<path d="M286.569,62.559V72h-1.219v-9.441H286.569z"/>
	<path d="M288.696,72v-9.441h1.331l3.025,4.776c0.7,1.106,1.247,2.101,1.695,3.068l0.028-0.014c-0.112-1.261-0.14-2.409-0.14-3.88
		v-3.95h1.148V72h-1.232l-2.998-4.791c-0.659-1.051-1.289-2.129-1.765-3.152l-0.042,0.014c0.07,1.19,0.098,2.325,0.098,3.894V72
		H288.696z"/>
	<path d="M305.094,71.579c-0.546,0.196-1.625,0.519-2.899,0.519c-1.429,0-2.605-0.364-3.53-1.247
		c-0.813-0.785-1.316-2.045-1.316-3.516c0.014-2.815,1.947-4.875,5.113-4.875c1.092,0,1.947,0.238,2.353,0.434l-0.294,0.995
		c-0.504-0.224-1.135-0.406-2.087-0.406c-2.297,0-3.796,1.429-3.796,3.796c0,2.396,1.443,3.81,3.642,3.81
		c0.798,0,1.345-0.112,1.625-0.252v-2.815h-1.919v-0.98h3.11V71.579z"/>
</g>
<line class="st0" x1="493" y1="221" x2="502" y2="221"/>
<g>
	<path d="M432.133,67.181c0,3.25-1.975,4.973-4.384,4.973c-2.493,0-4.244-1.933-4.244-4.791c0-2.998,1.863-4.958,4.384-4.958
		C430.466,62.404,432.133,64.379,432.133,67.181z M424.807,67.335c0,2.017,1.092,3.824,3.011,3.824c1.933,0,3.026-1.779,3.026-3.922
		c0-1.877-0.98-3.838-3.012-3.838C425.815,63.399,424.807,65.262,424.807,67.335z"/>
	<path d="M434.929,62.559v5.589c0,2.115,0.938,3.012,2.199,3.012c1.401,0,2.297-0.925,2.297-3.012v-5.589h1.232v5.505
		c0,2.899-1.527,4.09-3.572,4.09c-1.933,0-3.39-1.107-3.39-4.034v-5.561H434.929z"/>
	<path d="M444.561,63.595h-2.872v-1.037h6.99v1.037h-2.885V72h-1.233V63.595z"/>
	<path d="M456.534,71.579c-0.546,0.196-1.625,0.519-2.899,0.519c-1.429,0-2.605-0.364-3.53-1.247
		c-0.813-0.785-1.316-2.045-1.316-3.516c0.014-2.815,1.947-4.875,5.113-4.875c1.092,0,1.947,0.238,2.353,0.434l-0.294,0.995
		c-0.504-0.224-1.135-0.406-2.087-0.406c-2.297,0-3.796,1.429-3.796,3.796c0,2.396,1.443,3.81,3.642,3.81
		c0.798,0,1.345-0.112,1.625-0.252v-2.815h-1.919v-0.98h3.11V71.579z"/>
	<path d="M466.46,67.181c0,3.25-1.975,4.973-4.384,4.973c-2.493,0-4.244-1.933-4.244-4.791c0-2.998,1.863-4.958,4.384-4.958
		C464.793,62.404,466.46,64.379,466.46,67.181z M459.135,67.335c0,2.017,1.092,3.824,3.012,3.824c1.933,0,3.025-1.779,3.025-3.922
		c0-1.877-0.98-3.838-3.012-3.838C460.143,63.399,459.135,65.262,459.135,67.335z"/>
	<path d="M469.257,62.559V72h-1.219v-9.441H469.257z"/>
	<path d="M471.384,72v-9.441h1.331l3.025,4.776c0.7,1.106,1.247,2.101,1.695,3.068l0.028-0.014c-0.112-1.261-0.14-2.409-0.14-3.88
		v-3.95h1.148V72h-1.232l-2.998-4.791c-0.659-1.051-1.289-2.129-1.765-3.152l-0.042,0.014c0.07,1.19,0.098,2.325,0.098,3.894V72
		H471.384z"/>
	<path d="M487.782,71.579c-0.546,0.196-1.625,0.519-2.899,0.519c-1.429,0-2.605-0.364-3.53-1.247
		c-0.812-0.785-1.316-2.045-1.316-3.516c0.014-2.815,1.947-4.875,5.113-4.875c1.092,0,1.947,0.238,2.353,0.434l-0.294,0.995
		c-0.504-0.224-1.135-0.406-2.087-0.406c-2.297,0-3.796,1.429-3.796,3.796c0,2.396,1.443,3.81,3.642,3.81
		c0.798,0,1.345-0.112,1.625-0.252v-2.815h-1.919v-0.98h3.11V71.579z"/>
</g>
<path class="st0" d="M936,358c0,6.627-5.373,12-12,12H723c-6.627,0-12-5.373-12-12V22c0-6.627,5.373-12,12-12h201
	c6.627,0,12,5.373,12,12V358z"/>
<line class="st0" x1="729" y1="63" x2="909" y2="63"/>
<circle class="st0" cx="819" cy="36" r="18"/>
<line class="st0" x1="730" y1="333" x2="910" y2="333"/>
<polyline class="st0" points="775,99 775,171 883,171 "/>
<polyline class="st0" points="775,225 775,297 883,297 "/>
<g>
	<path d="M793.219,72.154v9.441H792v-9.441H793.219z"/>
	<path d="M795.346,81.595v-9.441h1.332l3.025,4.776c0.699,1.106,1.246,2.101,1.694,3.068l0.028-0.014
		c-0.112-1.261-0.141-2.409-0.141-3.88v-3.95h1.148v9.441h-1.232l-2.997-4.791c-0.659-1.051-1.289-2.129-1.765-3.152l-0.043,0.014
		c0.07,1.19,0.099,2.325,0.099,3.894v4.034H795.346z"/>
	<path d="M811.155,81.287c-0.448,0.224-1.345,0.448-2.493,0.448c-2.662,0-4.664-1.681-4.664-4.777c0-2.956,2.002-4.958,4.93-4.958
		c1.177,0,1.92,0.252,2.242,0.42l-0.295,0.994c-0.462-0.224-1.121-0.392-1.904-0.392c-2.214,0-3.685,1.415-3.685,3.894
		c0,2.312,1.331,3.796,3.628,3.796c0.742,0,1.499-0.154,1.989-0.393L811.155,81.287z"/>
	<path d="M820.452,76.776c0,3.25-1.976,4.973-4.384,4.973c-2.494,0-4.244-1.933-4.244-4.791c0-2.998,1.862-4.958,4.384-4.958
		C818.785,72,820.452,73.975,820.452,76.776z M813.127,76.93c0,2.017,1.092,3.824,3.011,3.824c1.933,0,3.026-1.779,3.026-3.922
		c0-1.877-0.98-3.838-3.012-3.838C814.135,72.994,813.127,74.857,813.127,76.93z"/>
	<path d="M829.986,77.448c-0.07-1.316-0.154-2.899-0.141-4.076h-0.041c-0.322,1.107-0.715,2.283-1.191,3.586l-1.666,4.581h-0.926
		l-1.526-4.496c-0.448-1.331-0.826-2.55-1.093-3.67h-0.027c-0.028,1.177-0.099,2.76-0.183,4.174l-0.252,4.048h-1.163l0.658-9.441
		h1.556l1.61,4.566c0.393,1.163,0.715,2.199,0.953,3.18h0.041c0.238-0.953,0.575-1.989,0.995-3.18l1.681-4.566h1.555l0.589,9.441
		h-1.19L829.986,77.448z"/>
	<path d="M834.504,72.154v9.441h-1.219v-9.441H834.504z"/>
	<path d="M836.631,81.595v-9.441h1.332l3.025,4.776c0.699,1.106,1.246,2.101,1.694,3.068l0.028-0.014
		c-0.112-1.261-0.141-2.409-0.141-3.88v-3.95h1.148v9.441h-1.232l-2.997-4.791c-0.659-1.051-1.289-2.129-1.765-3.152l-0.043,0.014
		c0.07,1.19,0.099,2.325,0.099,3.894v4.034H836.631z"/>
	<path d="M853.029,81.174c-0.547,0.196-1.625,0.519-2.899,0.519c-1.429,0-2.605-0.364-3.53-1.247
		c-0.813-0.785-1.316-2.045-1.316-3.516c0.014-2.815,1.947-4.875,5.113-4.875c1.092,0,1.946,0.238,2.353,0.434l-0.294,0.995
		c-0.504-0.224-1.135-0.406-2.088-0.406c-2.297,0-3.795,1.429-3.795,3.796c0,2.396,1.442,3.81,3.642,3.81
		c0.798,0,1.345-0.112,1.625-0.252v-2.815h-1.919v-0.98h3.109V81.174z"/>
</g>
<g>
	<path d="M800.352,220.027c0,3.25-1.976,4.973-4.385,4.973c-2.493,0-4.244-1.933-4.244-4.791c0-2.998,1.863-4.958,4.385-4.958
		C798.684,215.25,800.352,217.225,800.352,220.027z M793.025,220.181c0,2.017,1.092,3.824,3.012,3.824
		c1.933,0,3.025-1.779,3.025-3.922c0-1.877-0.98-3.838-3.012-3.838C794.033,216.245,793.025,218.107,793.025,220.181z"/>
	<path d="M803.147,215.404v5.589c0,2.115,0.938,3.012,2.199,3.012c1.401,0,2.298-0.925,2.298-3.012v-5.589h1.232v5.505
		c0,2.899-1.527,4.09-3.572,4.09c-1.934,0-3.39-1.107-3.39-4.034v-5.561H803.147z"/>
	<path d="M812.779,216.441h-2.871v-1.037h6.989v1.037h-2.886v8.404h-1.232V216.441z"/>
	<path d="M824.752,224.425c-0.546,0.196-1.625,0.519-2.898,0.519c-1.43,0-2.605-0.364-3.531-1.247
		c-0.813-0.785-1.316-2.045-1.316-3.516c0.014-2.815,1.947-4.875,5.113-4.875c1.092,0,1.947,0.238,2.354,0.434l-0.295,0.995
		c-0.504-0.224-1.135-0.406-2.087-0.406c-2.297,0-3.796,1.429-3.796,3.796c0,2.396,1.443,3.81,3.643,3.81
		c0.798,0,1.344-0.112,1.625-0.252v-2.815h-1.92v-0.98h3.109V224.425z"/>
	<path d="M834.679,220.027c0,3.25-1.976,4.973-4.384,4.973c-2.494,0-4.244-1.933-4.244-4.791c0-2.998,1.862-4.958,4.384-4.958
		C833.012,215.25,834.679,217.225,834.679,220.027z M827.354,220.181c0,2.017,1.092,3.824,3.012,3.824
		c1.932,0,3.025-1.779,3.025-3.922c0-1.877-0.98-3.838-3.012-3.838C828.361,216.245,827.354,218.107,827.354,220.181z"/>
	<path d="M837.475,215.404v9.441h-1.219v-9.441H837.475z"/>
	<path d="M839.603,224.845v-9.441h1.331l3.025,4.776c0.7,1.106,1.246,2.101,1.695,3.068l0.027-0.014
		c-0.111-1.261-0.14-2.409-0.14-3.88v-3.95h1.148v9.441h-1.232l-2.997-4.791c-0.659-1.051-1.289-2.129-1.766-3.152l-0.042,0.014
		c0.069,1.19,0.099,2.325,0.099,3.894v4.034H839.603z"/>
	<path d="M856,224.425c-0.547,0.196-1.625,0.519-2.899,0.519c-1.429,0-2.605-0.364-3.53-1.247c-0.813-0.785-1.316-2.045-1.316-3.516
		c0.014-2.815,1.947-4.875,5.113-4.875c1.092,0,1.946,0.238,2.353,0.434l-0.294,0.995c-0.504-0.224-1.135-0.406-2.088-0.406
		c-2.297,0-3.795,1.429-3.795,3.796c0,2.396,1.442,3.81,3.642,3.81c0.798,0,1.345-0.112,1.624-0.252v-2.815h-1.918v-0.98H856
		V224.425z"/>
</g>
<line class="st1" x1="891" y1="28" x2="918" y2="28"/>
<line class="st1" x1="891" y1="36" x2="918" y2="36"/>
<line class="st1" x1="891" y1="45" x2="918" y2="45"/>
<polyline class="st0" points="747,144 738,135 747,126 "/>
<polyline class="st0" points="747,270 738,261 747,252 "/>
<polyline class="st0" points="900,144 909,135 900,126 "/>
<polyline class="st0" points="900,270 909,261 900,252 "/>
</svg>
