<?xml version="1.0" encoding="utf-8"?>
<!-- Generator: Adobe Illustrator 16.0.0, SVG Export Plug-In . SVG Version: 6.00 Build 0)  -->
<!DOCTYPE svg PUBLIC "-//W3C//DTD SVG 1.1//EN" "http://www.w3.org/Graphics/SVG/1.1/DTD/svg11.dtd">
<svg version="1.1" id="Layer_1" xmlns="http://www.w3.org/2000/svg" xmlns:xlink="http://www.w3.org/1999/xlink" x="0px" y="0px"
	 width="1000px" height="1000px" viewBox="0 0 1000 1000" style="enable-background:new 0 0 1000 1000;" xml:space="preserve">
<style type="text/css">
<![CDATA[
	.st0{fill:none;stroke:#000000;stroke-width:4;stroke-miterlimit:10;}
	.st1{stroke:#000000;stroke-width:4;stroke-miterlimit:10;}
	.st2{opacity:0.2;fill:none;stroke:#000000;stroke-width:4;stroke-miterlimit:10;}
]]>
</style>
<g>
	<path class="st0" d="M178,496c0,5.5-4.5,10-10,10H80c-5.5,0-10-4.5-10-10V156c0-5.5,4.5-10,10-10h88c5.5,0,10,4.5,10,10V496z"/>
</g>
<line class="st0" x1="189" y1="144" x2="189" y2="504"/>
<g>
	<path class="st0" d="M189,504h350c5.5,0,10-4.5,10-10V154c0-5.5-4.5-10-10-10H189"/>
</g>
<line class="st0" x1="198" y1="180" x2="531" y2="180"/>
<polyline class="st0" points="207,171 198,162 207,153 "/>
<rect x="306" y="153" class="st0" width="18" height="18"/>
<line class="st0" x1="333" y1="162" x2="414" y2="162"/>
<polyline class="st0" points="216,216 216,288 324,288 "/>
<polyline class="st0" points="216,306 216,378 324,378 "/>
<polyline class="st0" points="216,396 216,468 324,468 "/>
<polyline class="st0" points="396,216 396,288 504,288 "/>
<polyline class="st0" points="396,306 396,378 504,378 "/>
<polyline class="st0" points="396,396 396,468 504,468 "/>
<line class="st0" x1="81" y1="180" x2="171" y2="180"/>
<circle class="st0" cx="126" cy="162" r="9"/>
<line class="st0" x1="81" y1="459" x2="171" y2="459"/>
<line class="st0" x1="180" y1="153" x2="189" y2="153"/>
<polygon class="st0" points="90,243.5 81,257 94.5,257 99,257 "/>
<polygon class="st0" points="90,292.5 81,306 94.5,306 99,306 "/>
<polygon class="st0" points="90,337.5 81,351 94.5,351 99,351 "/>
<line class="st0" x1="108" y1="261" x2="144" y2="261"/>
<line class="st0" x1="108" y1="306" x2="144" y2="306"/>
<line class="st0" x1="108" y1="351" x2="144" y2="351"/>
<line class="st0" x1="180" y1="495" x2="189" y2="495"/>
<g>
	<path d="M245.283,197.559V207h-1.219v-9.441H245.283z"/>
	<path d="M247.411,207v-9.441h1.331l3.025,4.776c0.7,1.106,1.247,2.101,1.695,3.068l0.028-0.014c-0.112-1.261-0.14-2.409-0.14-3.88
		v-3.95h1.148V207h-1.232l-2.998-4.791c-0.659-1.051-1.289-2.129-1.765-3.152l-0.042,0.014c0.07,1.19,0.098,2.325,0.098,3.894V207
		H247.411z"/>
	<path d="M263.22,206.692c-0.448,0.224-1.345,0.448-2.493,0.448c-2.662,0-4.665-1.681-4.665-4.777c0-2.956,2.003-4.958,4.931-4.958
		c1.176,0,1.919,0.252,2.241,0.42l-0.294,0.994c-0.462-0.224-1.121-0.392-1.905-0.392c-2.213,0-3.684,1.415-3.684,3.894
		c0,2.312,1.331,3.796,3.628,3.796c0.742,0,1.499-0.154,1.989-0.393L263.22,206.692z"/>
	<path d="M272.517,202.182c0,3.25-1.975,4.973-4.384,4.973c-2.493,0-4.244-1.933-4.244-4.791c0-2.998,1.863-4.958,4.384-4.958
		C270.85,197.405,272.517,199.38,272.517,202.182z M265.191,202.335c0,2.017,1.092,3.824,3.011,3.824
		c1.933,0,3.026-1.779,3.026-3.922c0-1.877-0.98-3.838-3.012-3.838C266.199,198.399,265.191,200.262,265.191,202.335z"/>
	<path d="M282.051,202.854c-0.07-1.316-0.154-2.899-0.14-4.076h-0.042c-0.322,1.107-0.714,2.283-1.191,3.586l-1.667,4.581h-0.925
		l-1.527-4.496c-0.448-1.331-0.826-2.55-1.092-3.67h-0.028c-0.028,1.177-0.098,2.76-0.182,4.174L275.005,207h-1.163l0.658-9.441
		h1.555l1.611,4.566c0.392,1.163,0.714,2.199,0.952,3.18h0.042c0.238-0.953,0.575-1.989,0.995-3.18l1.681-4.566h1.555l0.588,9.441
		h-1.191L282.051,202.854z"/>
	<path d="M286.569,197.559V207h-1.219v-9.441H286.569z"/>
	<path d="M288.696,207v-9.441h1.331l3.025,4.776c0.7,1.106,1.247,2.101,1.695,3.068l0.028-0.014c-0.112-1.261-0.14-2.409-0.14-3.88
		v-3.95h1.148V207h-1.232l-2.998-4.791c-0.659-1.051-1.289-2.129-1.765-3.152l-0.042,0.014c0.07,1.19,0.098,2.325,0.098,3.894V207
		H288.696z"/>
	<path d="M305.094,206.58c-0.546,0.196-1.625,0.519-2.899,0.519c-1.429,0-2.605-0.364-3.53-1.247
		c-0.813-0.785-1.316-2.045-1.316-3.516c0.014-2.815,1.947-4.875,5.113-4.875c1.092,0,1.947,0.238,2.353,0.434l-0.294,0.995
		c-0.504-0.224-1.135-0.406-2.087-0.406c-2.297,0-3.796,1.429-3.796,3.796c0,2.396,1.443,3.81,3.642,3.81
		c0.798,0,1.345-0.112,1.625-0.252v-2.815h-1.919v-0.98h3.11V206.58z"/>
</g>
<line class="st0" x1="493" y1="356" x2="502" y2="356"/>
<g>
	<path d="M432.133,202.182c0,3.25-1.975,4.973-4.384,4.973c-2.493,0-4.244-1.933-4.244-4.791c0-2.998,1.863-4.958,4.384-4.958
		C430.466,197.405,432.133,199.38,432.133,202.182z M424.807,202.335c0,2.017,1.092,3.824,3.011,3.824
		c1.933,0,3.026-1.779,3.026-3.922c0-1.877-0.98-3.838-3.012-3.838C425.815,198.399,424.807,200.262,424.807,202.335z"/>
	<path d="M434.929,197.559v5.589c0,2.115,0.938,3.012,2.199,3.012c1.401,0,2.297-0.925,2.297-3.012v-5.589h1.232v5.505
		c0,2.899-1.527,4.09-3.572,4.09c-1.933,0-3.39-1.107-3.39-4.034v-5.561H434.929z"/>
	<path d="M444.561,198.596h-2.872v-1.037h6.99v1.037h-2.885V207h-1.233V198.596z"/>
	<path d="M456.534,206.58c-0.546,0.196-1.625,0.519-2.899,0.519c-1.429,0-2.605-0.364-3.53-1.247
		c-0.813-0.785-1.316-2.045-1.316-3.516c0.014-2.815,1.947-4.875,5.113-4.875c1.092,0,1.947,0.238,2.353,0.434l-0.294,0.995
		c-0.504-0.224-1.135-0.406-2.087-0.406c-2.297,0-3.796,1.429-3.796,3.796c0,2.396,1.443,3.81,3.642,3.81
		c0.798,0,1.345-0.112,1.625-0.252v-2.815h-1.919v-0.98h3.11V206.58z"/>
	<path d="M466.46,202.182c0,3.25-1.975,4.973-4.384,4.973c-2.493,0-4.244-1.933-4.244-4.791c0-2.998,1.863-4.958,4.384-4.958
		C464.793,197.405,466.46,199.38,466.46,202.182z M459.135,202.335c0,2.017,1.092,3.824,3.012,3.824
		c1.933,0,3.025-1.779,3.025-3.922c0-1.877-0.98-3.838-3.012-3.838C460.143,198.399,459.135,200.262,459.135,202.335z"/>
	<path d="M469.257,197.559V207h-1.219v-9.441H469.257z"/>
	<path d="M471.384,207v-9.441h1.331l3.025,4.776c0.7,1.106,1.247,2.101,1.695,3.068l0.028-0.014c-0.112-1.261-0.14-2.409-0.14-3.88
		v-3.95h1.148V207h-1.232l-2.998-4.791c-0.659-1.051-1.289-2.129-1.765-3.152l-0.042,0.014c0.07,1.19,0.098,2.325,0.098,3.894V207
		H471.384z"/>
	<path d="M487.782,206.58c-0.546,0.196-1.625,0.519-2.899,0.519c-1.429,0-2.605-0.364-3.53-1.247
		c-0.812-0.785-1.316-2.045-1.316-3.516c0.014-2.815,1.947-4.875,5.113-4.875c1.092,0,1.947,0.238,2.353,0.434l-0.294,0.995
		c-0.504-0.224-1.135-0.406-2.087-0.406c-2.297,0-3.796,1.429-3.796,3.796c0,2.396,1.443,3.81,3.642,3.81
		c0.798,0,1.345-0.112,1.625-0.252v-2.815h-1.919v-0.98h3.11V206.58z"/>
</g>
<path class="st0" d="M936,493c0,6.627-5.373,12-12,12H723c-6.627,0-12-5.373-12-12V157c0-6.627,5.373-12,12-12h201
	c6.627,0,12,5.373,12,12V493z"/>
<line class="st0" x1="729" y1="198" x2="909" y2="198"/>
<circle class="st0" cx="819" cy="171" r="18"/>
<line class="st0" x1="730" y1="468" x2="910" y2="468"/>
<polyline class="st0" points="775,234 775,306 883,306 "/>
<polyline class="st0" points="775,360 775,432 883,432 "/>
<g>
	<path d="M793.219,207.154v9.441H792v-9.441H793.219z"/>
	<path d="M795.346,216.595v-9.441h1.332l3.025,4.776c0.699,1.106,1.246,2.101,1.694,3.068l0.028-0.014
		c-0.112-1.261-0.141-2.409-0.141-3.88v-3.95h1.148v9.441h-1.232l-2.997-4.791c-0.659-1.051-1.289-2.129-1.765-3.152l-0.043,0.014
		c0.07,1.19,0.099,2.325,0.099,3.894v4.034H795.346z"/>
	<path d="M811.155,216.287c-0.448,0.224-1.345,0.448-2.493,0.448c-2.662,0-4.664-1.681-4.664-4.777c0-2.956,2.002-4.958,4.93-4.958
		c1.177,0,1.92,0.252,2.242,0.42l-0.295,0.994c-0.462-0.224-1.121-0.392-1.904-0.392c-2.214,0-3.685,1.415-3.685,3.894
		c0,2.312,1.331,3.796,3.628,3.796c0.742,0,1.499-0.154,1.989-0.393L811.155,216.287z"/>
	<path d="M820.452,211.777c0,3.25-1.976,4.973-4.384,4.973c-2.494,0-4.244-1.933-4.244-4.791c0-2.998,1.862-4.958,4.384-4.958
		C818.785,207,820.452,208.975,820.452,211.777z M813.127,211.931c0,2.017,1.092,3.824,3.011,3.824c1.933,0,3.026-1.779,3.026-3.922
		c0-1.877-0.98-3.838-3.012-3.838C814.135,207.995,813.127,209.857,813.127,211.931z"/>
	<path d="M829.986,212.449c-0.07-1.316-0.154-2.899-0.141-4.076h-0.041c-0.322,1.107-0.715,2.283-1.191,3.586l-1.666,4.581h-0.926
		l-1.526-4.496c-0.448-1.331-0.826-2.55-1.093-3.67h-0.027c-0.028,1.177-0.099,2.76-0.183,4.174l-0.252,4.048h-1.163l0.658-9.441
		h1.556l1.61,4.566c0.393,1.163,0.715,2.199,0.953,3.18h0.041c0.238-0.953,0.575-1.989,0.995-3.18l1.681-4.566h1.555l0.589,9.441
		h-1.19L829.986,212.449z"/>
	<path d="M834.504,207.154v9.441h-1.219v-9.441H834.504z"/>
	<path d="M836.631,216.595v-9.441h1.332l3.025,4.776c0.699,1.106,1.246,2.101,1.694,3.068l0.028-0.014
		c-0.112-1.261-0.141-2.409-0.141-3.88v-3.95h1.148v9.441h-1.232l-2.997-4.791c-0.659-1.051-1.289-2.129-1.765-3.152l-0.043,0.014
		c0.07,1.19,0.099,2.325,0.099,3.894v4.034H836.631z"/>
	<path d="M853.029,216.175c-0.547,0.196-1.625,0.519-2.899,0.519c-1.429,0-2.605-0.364-3.53-1.247
		c-0.813-0.785-1.316-2.045-1.316-3.516c0.014-2.815,1.947-4.875,5.113-4.875c1.092,0,1.946,0.238,2.353,0.434l-0.294,0.995
		c-0.504-0.224-1.135-0.406-2.088-0.406c-2.297,0-3.795,1.429-3.795,3.796c0,2.396,1.442,3.81,3.642,3.81
		c0.798,0,1.345-0.112,1.625-0.252v-2.815h-1.919v-0.98h3.109V216.175z"/>
</g>
<g>
	<path d="M800.352,355.027c0,3.25-1.976,4.973-4.385,4.973c-2.493,0-4.244-1.933-4.244-4.791c0-2.998,1.863-4.958,4.385-4.958
		C798.684,350.25,800.352,352.226,800.352,355.027z M793.025,355.181c0,2.017,1.092,3.824,3.012,3.824
		c1.933,0,3.025-1.779,3.025-3.922c0-1.877-0.98-3.838-3.012-3.838C794.033,351.245,793.025,353.108,793.025,355.181z"/>
	<path d="M803.147,350.405v5.589c0,2.115,0.938,3.012,2.199,3.012c1.401,0,2.298-0.925,2.298-3.012v-5.589h1.232v5.505
		c0,2.899-1.527,4.09-3.572,4.09c-1.934,0-3.39-1.107-3.39-4.034v-5.561H803.147z"/>
	<path d="M812.779,351.441h-2.871v-1.037h6.989v1.037h-2.886v8.404h-1.232V351.441z"/>
	<path d="M824.752,359.425c-0.546,0.196-1.625,0.519-2.898,0.519c-1.43,0-2.605-0.364-3.531-1.247
		c-0.813-0.785-1.316-2.045-1.316-3.516c0.014-2.815,1.947-4.875,5.113-4.875c1.092,0,1.947,0.238,2.354,0.434l-0.295,0.995
		c-0.504-0.224-1.135-0.406-2.087-0.406c-2.297,0-3.796,1.429-3.796,3.796c0,2.396,1.443,3.81,3.643,3.81
		c0.798,0,1.344-0.112,1.625-0.252v-2.815h-1.92v-0.98h3.109V359.425z"/>
	<path d="M834.679,355.027c0,3.25-1.976,4.973-4.384,4.973c-2.494,0-4.244-1.933-4.244-4.791c0-2.998,1.862-4.958,4.384-4.958
		C833.012,350.25,834.679,352.226,834.679,355.027z M827.354,355.181c0,2.017,1.092,3.824,3.012,3.824
		c1.932,0,3.025-1.779,3.025-3.922c0-1.877-0.98-3.838-3.012-3.838C828.361,351.245,827.354,353.108,827.354,355.181z"/>
	<path d="M837.475,350.405v9.441h-1.219v-9.441H837.475z"/>
	<path d="M839.603,359.846v-9.441h1.331l3.025,4.776c0.7,1.106,1.246,2.101,1.695,3.068l0.027-0.014
		c-0.111-1.261-0.14-2.409-0.14-3.88v-3.95h1.148v9.441h-1.232l-2.997-4.791c-0.659-1.051-1.289-2.129-1.766-3.152l-0.042,0.014
		c0.069,1.19,0.099,2.325,0.099,3.894v4.034H839.603z"/>
	<path d="M856,359.425c-0.547,0.196-1.625,0.519-2.899,0.519c-1.429,0-2.605-0.364-3.53-1.247c-0.813-0.785-1.316-2.045-1.316-3.516
		c0.014-2.815,1.947-4.875,5.113-4.875c1.092,0,1.946,0.238,2.353,0.434l-0.294,0.995c-0.504-0.224-1.135-0.406-2.088-0.406
		c-2.297,0-3.795,1.429-3.795,3.796c0,2.396,1.442,3.81,3.642,3.81c0.798,0,1.345-0.112,1.624-0.252v-2.815h-1.918v-0.98H856
		V359.425z"/>
</g>
<line class="st1" x1="891" y1="163" x2="918" y2="163"/>
<line class="st1" x1="891" y1="171" x2="918" y2="171"/>
<line class="st1" x1="891" y1="180" x2="918" y2="180"/>
<polyline class="st2" points="225,225 225,279 306,279 "/>
<polyline class="st2" points="225,315 225,369 306,369 "/>
<polyline class="st2" points="225,405 225,459 306,459 "/>
<polyline class="st2" points="405,225 405,279 486,279 "/>
<polyline class="st2" points="405,315 405,369 486,369 "/>
<polyline class="st2" points="405,405 405,459 486,459 "/>
</svg>
