<?xml version="1.0" encoding="utf-8"?>
<!-- Generator: Adobe Illustrator 16.0.0, SVG Export Plug-In . SVG Version: 6.00 Build 0)  -->
<!DOCTYPE svg PUBLIC "-//W3C//DTD SVG 1.1//EN" "http://www.w3.org/Graphics/SVG/1.1/DTD/svg11.dtd">
<svg version="1.1" id="Layer_2" xmlns="http://www.w3.org/2000/svg" xmlns:xlink="http://www.w3.org/1999/xlink" x="0px" y="0px"
	 width="1000px" height="879.5px" viewBox="0 120.5 1000 879.5" style="enable-background:new 0 120.5 1000 879.5;"
	 xml:space="preserve">
<style type="text/css">
<![CDATA[
	.st0{display:none;fill:none;stroke:#010101;stroke-width:5;stroke-miterlimit:10;}
	.st1{fill:none;stroke:#FFFFFF;stroke-width:10;stroke-miterlimit:10;}
	.st2{font-family:'MyriadPro-Regular';}
	.st3{display:inline;fill:#FF8080;}
	.st4{display:none;enable-background:new    ;}
	.st5{display:inline;fill:none;stroke:#010101;stroke-width:3;stroke-miterlimit:10;}
	.st6{fill:none;stroke:#010101;stroke-width:3;stroke-miterlimit:10;}
	.st7{display:inline;fill:none;stroke:#FFFFFF;stroke-width:10;stroke-miterlimit:10;}
	.st8{font-size:72;}
	.st9{fill:none;stroke:#231F20;stroke-width:9;stroke-miterlimit:10;}
	.st10{display:none;}
	.st11{display:none;fill:#FFFFFF;stroke:#010101;stroke-width:5;stroke-miterlimit:10;}
]]>
</style>
<text transform="matrix(1 0 0 1 461.9832 703.8977)" class="st4 st2 st8">3X</text>
<polyline class="st11" points="306.5,396.644 499.421,464.705 697.696,404.615 "/>
<line class="st0" x1="268.086" y1="415.307" x2="513.811" y2="494.14"/>
<line class="st0" x1="737.812" y1="415.307" x2="492.087" y2="494.14"/>
<polyline class="st6" points="1000,395.5 952.5,530 0,530 0,466.5 106.5,324.5 984.5,324.5 "/>
<line class="st6" x1="0" y1="562.5" x2="952.5" y2="562.5"/>
<line class="st6" x1="952.5" y1="562.5" x2="952.5" y2="530"/>
<g id="paw1" class="st10">
	<ellipse class="st9" cx="336.487" cy="115.914" rx="4.056" ry="4.75"/>
	<circle class="st3" cx="610.03" cy="202.823" r="103.495"/>
	<path class="st9" d="M611.029,61.664c0,0-89.996-135.165-199.49-3.502c0,0-16.498,62.337-31.498,59.502
		c-15-2.836-43.496-4.494-47.996,18.834c-4.5,23.326,15,83.334,85.494,59.33c70.496-24.004,172.49,85.693,88.495,87.844"/>
	
		<ellipse transform="matrix(-0.9708 0.2401 -0.2401 -0.9708 1087.5438 88.7748)" class="st9" cx="538.365" cy="110.632" rx="38.016" ry="56.479"/>
	<line class="st7" x1="549.369" y1="202.822" x2="670.691" y2="202.822"/>
	<line class="st1" x1="610.85" y1="263.483" x2="610.384" y2="142.164"/>
</g>
<path class="st6" d="M714.5,507.5"/>
<g class="st10">
	<polyline class="st5" points="143.5,234.5 142.063,236.903 85.5,331.5 	"/>
	<path class="st5" d="M250.957,241.55l-50.914,100.9c0,0-6.097,7.761-16.57,3.405"/>
	<line class="st5" x1="90.637" y1="339.826" x2="186.363" y2="347.074"/>
	<line class="st5" x1="245.375" y1="236.903" x2="149.624" y2="229.998"/>
	<path class="st5" d="M153.919,230.308c0,0-9.626-2.669-10.856,6.595"/>
	<path class="st5" d="M250.293,248.07c0,0,2.943-9.546-6.282-11.041"/>
	<path class="st5" d="M92.999,340.005c0,0-11.373-2.027-5.74-11.448"/>
	<polyline class="st5" points="147.5,241.5 146.063,243.903 89.5,338.5 	"/>
	<path class="st5" d="M254.957,248.55l-50.914,100.9c0,0-6.097,7.761-16.57,3.405"/>
	<line class="st5" x1="94.637" y1="346.826" x2="190.363" y2="354.074"/>
	<line class="st5" x1="249.375" y1="243.903" x2="153.624" y2="236.998"/>
	<path class="st5" d="M157.919,237.308c0,0-9.626-2.669-10.856,6.595"/>
	<path class="st5" d="M254.293,255.07c0,0,2.943-9.546-6.282-11.041"/>
	<path class="st5" d="M96.999,347.005c0,0-11.373-2.027-5.74-11.448"/>
	<ellipse class="st5" cx="149.209" cy="327.75" rx="9.71" ry="7.75"/>
</g>
</svg>
