<?xml version="1.0" encoding="utf-8"?>
<!-- Generator: Adobe Illustrator 16.0.0, SVG Export Plug-In . SVG Version: 6.00 Build 0)  -->
<!DOCTYPE svg PUBLIC "-//W3C//DTD SVG 1.1//EN" "http://www.w3.org/Graphics/SVG/1.1/DTD/svg11.dtd">
<svg version="1.1" id="Layer_2" xmlns="http://www.w3.org/2000/svg" xmlns:xlink="http://www.w3.org/1999/xlink" x="0px" y="0px"
	 width="1000px" height="1000px" viewBox="0 0 1000 1000" style="enable-background:new 0 0 1000 1000;" xml:space="preserve">
<style type="text/css">
<![CDATA[
	.st0{display:none;fill:#FFFFFF;stroke:#000000;stroke-width:4;stroke-miterlimit:10;}
	.st1{display:none;fill:none;stroke:#010101;stroke-width:5;stroke-miterlimit:10;}
	.st2{display:none;fill:none;stroke:#000000;stroke-width:9;stroke-miterlimit:10;}
	.st3{fill:none;stroke:#000000;stroke-width:4;stroke-miterlimit:10;}
	.st4{fill:none;stroke:#FFFFFF;stroke-width:10;stroke-miterlimit:10;}
	.st5{font-family:'MyriadPro-Regular';}
	.st6{fill:#FFFFFF;stroke:#000000;stroke-width:5;stroke-miterlimit:10;}
	.st7{display:none;enable-background:new    ;}
	.st8{display:none;fill:none;stroke:#FFFFFF;stroke-width:10;stroke-miterlimit:10;}
	.st9{fill:none;stroke:#000000;stroke-width:3;stroke-miterlimit:10;}
	.st10{fill:#FF8080;}
	.st11{display:inline;fill:none;stroke:#010101;stroke-width:3;stroke-miterlimit:10;}
	.st12{fill:none;stroke:#010101;stroke-width:3;stroke-miterlimit:10;}
	.st13{font-size:72;}
	.st14{display:none;fill:none;stroke:#231F20;stroke-width:9;stroke-miterlimit:10;}
	.st15{display:none;}
	.st16{display:none;fill:#FFFFFF;stroke:#010101;stroke-width:5;stroke-miterlimit:10;}
	.st17{fill:#FFFFFF;stroke:#000000;stroke-width:3;stroke-miterlimit:10;}
]]>
</style>
<text transform="matrix(1 0 0 1 461.9832 703.8977)" class="st7 st5 st13">3X</text>
<polyline class="st16" points="306.5,396.644 499.421,464.705 697.696,404.615 "/>
<line class="st1" x1="268.086" y1="415.307" x2="513.811" y2="494.14"/>
<line class="st1" x1="737.812" y1="415.307" x2="492.087" y2="494.14"/>
<polyline class="st12" points="1000,270.5 952.5,405 0,405 0,341.5 106.5,199.5 984.5,199.5 "/>
<line class="st12" x1="0" y1="437.5" x2="952.5" y2="437.5"/>
<line class="st12" x1="952.5" y1="437.5" x2="952.5" y2="405"/>
<g id="Layer_x5F_1">
	<path class="st0" d="M467.602,256.444c0,5.479-4.443,9.925-9.923,9.925H373.81c-5.48,0-9.924-4.445-9.924-9.925V53.439
		c0-5.48,4.442-9.923,9.924-9.923h83.87c5.479,0,9.923,4.442,9.923,9.923L467.602,256.444L467.602,256.444z"/>
	<path class="st0" d="M642.856,256.444c0,5.479-4.442,9.925-9.923,9.925h-83.871c-5.481,0-9.924-4.445-9.924-9.925V53.439
		c0-5.48,4.441-9.923,9.924-9.923h83.871c5.479,0,9.923,4.442,9.923,9.923V256.444L642.856,256.444z"/>
	<path class="st0" d="M571.319,191.328c0,5.479-4.442,9.923-9.924,9.923h-83.87c-5.48,0-9.923-4.444-9.923-9.923V-11.678
		c0-5.48,4.442-9.924,9.923-9.924h83.87c5.479,0,9.924,4.443,9.924,9.924V191.328z"/>
	<path class="st6" d="M698.485,195.785c0,10.963-8.886,19.846-19.847,19.846H348.313c-10.96,0-19.846-8.883-19.846-19.846V28.044
		c0-10.96,8.885-19.846,19.846-19.846h330.323c10.963,0,19.847,8.886,19.847,19.846v167.741H698.485z"/>
	<path class="st17" d="M667.427,164.808c0,10.964-8.887,19.846-19.848,19.846H376.12c-10.96,0-19.846-8.882-19.846-19.846V54.535
		c0-10.959,8.886-19.848,19.846-19.848h271.46c10.961,0,19.848,8.888,19.848,19.848V164.808z"/>
	<path id="vecmap" class="st2" d="M387.824,118.543c0,26.34,16.926,47.655,37.844,47.655"/>
	<path id="vecmap_1_" class="st3" d="M583.332,218.937c0,37.188,32.6,67.276,72.883,67.276"/>
	<path id="vecmap_2_" class="st3" d="M441.209,215.631c0,37.186-32.598,67.274-72.881,67.274"/>
	<g>
		<line id="vecmap_3_" class="st9" x1="362.484" y1="59.774" x2="661.021" y2="59.774"/>
	</g>
	<g>
		<line id="vecmap_4_" class="st9" x1="404.769" y1="66.784" x2="404.769" y2="176.105"/>
	</g>
	<g>
		<line id="vecmap_5_" class="st9" x1="627.354" y1="66.784" x2="627.354" y2="176.105"/>
	</g>
	<g>
		<rect id="vecmaprec" x="362.484" y="83.49" class="st17" width="293.73" height="66.154"/>
	</g>
	<g>
		<line class="st9" x1="362.484" y1="149.644" x2="656.214" y2="149.644"/>
	</g>
</g>
<g id="paw1">
	<ellipse class="st14" cx="336.487" cy="115.914" rx="4.056" ry="4.75"/>
	<circle class="st10" cx="610.03" cy="202.823" r="103.495"/>
	<path class="st14" d="M611.029,61.664c0,0-89.996-135.165-199.49-3.502c0,0-16.498,62.337-31.498,59.502
		c-15-2.836-43.496-4.494-47.996,18.834c-4.5,23.326,15,83.334,85.494,59.33c70.496-24.004,172.49,85.693,88.495,87.844"/>
	
		<ellipse transform="matrix(-0.9708 0.2401 -0.2401 -0.9708 1087.5438 88.7748)" class="st14" cx="538.365" cy="110.632" rx="38.016" ry="56.479"/>
	<line class="st4" x1="549.369" y1="202.822" x2="670.691" y2="202.822"/>
	<line class="st8" x1="610.85" y1="263.483" x2="610.384" y2="142.164"/>
</g>
<path class="st12" d="M714.5,382.5"/>
<g class="st15">
	<polyline class="st11" points="143.5,234.5 142.063,236.903 85.5,331.5 	"/>
	<path class="st11" d="M250.957,241.55l-50.914,100.9c0,0-6.097,7.761-16.57,3.405"/>
	<line class="st11" x1="90.637" y1="339.826" x2="186.363" y2="347.074"/>
	<line class="st11" x1="245.375" y1="236.903" x2="149.624" y2="229.998"/>
	<path class="st11" d="M153.919,230.308c0,0-9.626-2.669-10.856,6.595"/>
	<path class="st11" d="M250.293,248.07c0,0,2.943-9.546-6.282-11.041"/>
	<path class="st11" d="M92.999,340.005c0,0-11.373-2.027-5.74-11.448"/>
	<polyline class="st11" points="147.5,241.5 146.063,243.903 89.5,338.5 	"/>
	<path class="st11" d="M254.957,248.55l-50.914,100.9c0,0-6.097,7.761-16.57,3.405"/>
	<line class="st11" x1="94.637" y1="346.826" x2="190.363" y2="354.074"/>
	<line class="st11" x1="249.375" y1="243.903" x2="153.624" y2="236.998"/>
	<path class="st11" d="M157.919,237.308c0,0-9.626-2.669-10.856,6.595"/>
	<path class="st11" d="M254.293,255.07c0,0,2.943-9.546-6.282-11.041"/>
	<path class="st11" d="M96.999,347.005c0,0-11.373-2.027-5.74-11.448"/>
	<ellipse class="st11" cx="149.209" cy="327.75" rx="9.71" ry="7.75"/>
</g>
</svg>
