<?xml version="1.0" encoding="utf-8"?>
<!-- Generator: Adobe Illustrator 16.0.0, SVG Export Plug-In . SVG Version: 6.00 Build 0)  -->
<!DOCTYPE svg PUBLIC "-//W3C//DTD SVG 1.1//EN" "http://www.w3.org/Graphics/SVG/1.1/DTD/svg11.dtd">
<svg version="1.1" id="Layer_2" xmlns="http://www.w3.org/2000/svg" xmlns:xlink="http://www.w3.org/1999/xlink" x="0px" y="0px"
	 width="1000px" height="810px" viewBox="0 0 1000 810" enable-background="new 0 0 1000 810" xml:space="preserve">
<text transform="matrix(1 0 0 1 461.9832 703.8977)" display="none" enable-background="new    " font-family="'MyriadPro-Regular'" font-size="72">3X</text>
<polyline display="none" fill="#FFFFFF" stroke="#010101" stroke-width="5" stroke-miterlimit="10" points="306.5,396.644 
	499.422,464.704 697.696,404.615 "/>
<line display="none" fill="none" stroke="#010101" stroke-width="5" stroke-miterlimit="10" x1="268.086" y1="415.307" x2="513.811" y2="494.14"/>
<line display="none" fill="none" stroke="#010101" stroke-width="5" stroke-miterlimit="10" x1="737.812" y1="415.307" x2="492.088" y2="494.14"/>
<polyline fill="none" stroke="#010101" stroke-width="3" stroke-miterlimit="10" points="1000,395.5 952.5,530 0,530 0,466.5 
	106.5,324.5 984.5,324.5 "/>
<line fill="none" stroke="#010101" stroke-width="3" stroke-miterlimit="10" x1="0" y1="562.5" x2="952.5" y2="562.5"/>
<line fill="none" stroke="#010101" stroke-width="3" stroke-miterlimit="10" x1="952.5" y1="562.5" x2="952.5" y2="530"/>
<g id="paw1" display="none">
	
		<ellipse display="inline" fill="none" stroke="#231F20" stroke-width="9" stroke-miterlimit="10" cx="336.487" cy="115.914" rx="4.056" ry="4.75"/>
	<circle display="inline" fill="#FF8080" cx="610.03" cy="202.823" r="103.495"/>
	<path display="inline" fill="none" stroke="#231F20" stroke-width="9" stroke-miterlimit="10" d="M611.029,61.664
		c0,0-89.996-135.165-199.49-3.502c0,0-16.498,62.337-31.498,59.502c-15-2.836-43.495-4.494-47.995,18.834
		c-4.5,23.325,15,83.334,85.493,59.33c70.496-24.005,172.49,85.692,88.495,87.844"/>
	
		<ellipse transform="matrix(0.2401 0.9708 -0.9708 0.2401 516.4872 -438.5184)" display="inline" fill="none" stroke="#231F20" stroke-width="9" stroke-miterlimit="10" cx="538.337" cy="110.635" rx="56.482" ry="38.018"/>
	
		<line display="inline" fill="none" stroke="#FFFFFF" stroke-width="10" stroke-miterlimit="10" x1="549.369" y1="202.822" x2="670.691" y2="202.822"/>
	
		<line display="inline" fill="none" stroke="#FFFFFF" stroke-width="10" stroke-miterlimit="10" x1="610.85" y1="263.483" x2="610.385" y2="142.164"/>
</g>
<path fill="none" stroke="#010101" stroke-width="3" stroke-miterlimit="10" d="M714.5,507.5"/>
<g display="none">
	<polyline display="inline" fill="none" stroke="#010101" stroke-width="3" stroke-miterlimit="10" points="143.5,234.5 
		142.063,236.903 85.5,331.5 	"/>
	<path display="inline" fill="none" stroke="#010101" stroke-width="3" stroke-miterlimit="10" d="M250.957,241.55l-50.914,100.9
		c0,0-6.097,7.761-16.569,3.404"/>
	
		<line display="inline" fill="none" stroke="#010101" stroke-width="3" stroke-miterlimit="10" x1="90.637" y1="339.826" x2="186.363" y2="347.073"/>
	
		<line display="inline" fill="none" stroke="#010101" stroke-width="3" stroke-miterlimit="10" x1="245.375" y1="236.903" x2="149.624" y2="229.998"/>
	<path display="inline" fill="none" stroke="#010101" stroke-width="3" stroke-miterlimit="10" d="M153.919,230.308
		c0,0-9.626-2.669-10.855,6.595"/>
	<path display="inline" fill="none" stroke="#010101" stroke-width="3" stroke-miterlimit="10" d="M250.293,248.07
		c0,0,2.943-9.546-6.281-11.041"/>
	<path display="inline" fill="none" stroke="#010101" stroke-width="3" stroke-miterlimit="10" d="M92.999,340.005
		c0,0-11.373-2.027-5.74-11.448"/>
	<polyline display="inline" fill="none" stroke="#010101" stroke-width="3" stroke-miterlimit="10" points="147.5,241.5 
		146.063,243.903 89.5,338.5 	"/>
	<path display="inline" fill="none" stroke="#010101" stroke-width="3" stroke-miterlimit="10" d="M254.957,248.55l-50.914,100.9
		c0,0-6.097,7.761-16.569,3.404"/>
	
		<line display="inline" fill="none" stroke="#010101" stroke-width="3" stroke-miterlimit="10" x1="94.637" y1="346.826" x2="190.363" y2="354.073"/>
	
		<line display="inline" fill="none" stroke="#010101" stroke-width="3" stroke-miterlimit="10" x1="249.375" y1="243.903" x2="153.624" y2="236.998"/>
	<path display="inline" fill="none" stroke="#010101" stroke-width="3" stroke-miterlimit="10" d="M157.919,237.308
		c0,0-9.626-2.669-10.855,6.595"/>
	<path display="inline" fill="none" stroke="#010101" stroke-width="3" stroke-miterlimit="10" d="M254.293,255.07
		c0,0,2.943-9.546-6.281-11.041"/>
	<path display="inline" fill="none" stroke="#010101" stroke-width="3" stroke-miterlimit="10" d="M96.999,347.005
		c0,0-11.373-2.027-5.74-11.448"/>
	
		<ellipse display="inline" fill="none" stroke="#010101" stroke-width="3" stroke-miterlimit="10" cx="149.209" cy="327.75" rx="9.71" ry="7.75"/>
</g>
<polyline fill="#FFFFFF" stroke="#000000" stroke-width="4" stroke-miterlimit="10" points="345.5,366.5 391.5,366.5 406.5,361.5 
	436.5,361.5 "/>
<polyline fill="#FFFFFF" stroke="#000000" stroke-width="4" stroke-miterlimit="10" points="714.5,475.5 760.5,475.5 775.5,470.5 
	805.5,470.5 "/>
<line fill="#FFFFFF" stroke="#000000" stroke-width="4" stroke-miterlimit="10" x1="429.5" y1="384.5" x2="455.5" y2="384.5"/>
<ellipse stroke="#000000" stroke-width="3" stroke-miterlimit="10" cx="813.5" cy="364" rx="25" ry="9"/>
<polyline fill="#FFFFFF" stroke="#000000" stroke-width="4" stroke-miterlimit="10" points="56.5,473 102.5,473 117.5,468 
	147.5,468 "/>
<line fill="none" stroke="#010101" stroke-width="3" stroke-miterlimit="10" x1="952.5" y1="562.5" x2="1011.5" y2="394.5"/>
<ellipse stroke="#000000" stroke-width="3" stroke-miterlimit="10" cx="824.5" cy="498.5" rx="25" ry="9"/>
<path fill="#FFFFFF" stroke="#000000" stroke-width="3" stroke-miterlimit="10" d="M788.5,501.5c0,0-1-17,25-18"/>
</svg>
