<?xml version="1.0" encoding="utf-8"?>
<!-- Generator: Adobe Illustrator 16.0.0, SVG Export Plug-In . SVG Version: 6.00 Build 0)  -->
<!DOCTYPE svg PUBLIC "-//W3C//DTD SVG 1.1//EN" "http://www.w3.org/Graphics/SVG/1.1/DTD/svg11.dtd">
<svg version="1.1" id="Layer_2" xmlns="http://www.w3.org/2000/svg" xmlns:xlink="http://www.w3.org/1999/xlink" x="0px" y="0px"
	 viewBox="0 0 1000 1000" enable-background="new 0 0 1000 1000" xml:space="preserve">
<circle opacity="0.3" fill="#8383FC" stroke="#000000" stroke-miterlimit="10" enable-background="new    " cx="500" cy="456.711" r="302.542"/>
<circle display="none" opacity="0.3" stroke="#000000" stroke-miterlimit="10" enable-background="new    " cx="500" cy="456.711" r="302.542"/>
<g id="Layer_x5F_1" display="none">
	<path display="inline" fill="#FFFFFF" stroke="#000000" stroke-width="4" stroke-miterlimit="10" d="M444.525,594.475
		c0,6.627-5.373,12-12,12H331.102c-6.627,0-12-5.373-12-12V348.983c0-6.627,5.373-12,12-12h101.424c6.627,0,12,5.373,12,12
		L444.525,594.475L444.525,594.475z"/>
	<path display="inline" fill="#FFFFFF" stroke="#000000" stroke-width="4" stroke-miterlimit="10" d="M656.459,594.475
		c0,6.627-5.372,12-12,12H543.034c-6.627,0-12-5.373-12-12V348.983c0-6.627,5.373-12,12-12h101.425c6.628,0,12,5.373,12,12V594.475z
		"/>
	<path display="inline" fill="#FFFFFF" stroke="#000000" stroke-width="4" stroke-miterlimit="10" d="M569.949,515.729
		c0,6.627-5.373,12-12,12H456.525c-6.627,0-12-5.373-12-12V270.237c0-6.627,5.373-12,12-12h101.424c6.627,0,12,5.373,12,12V515.729z
		"/>
	<path display="inline" fill="#FFFFFF" stroke="#000000" stroke-width="5" stroke-miterlimit="10" d="M723.729,521.117
		c0,13.26-10.744,24-24,24H300.271c-13.255,0-24-10.74-24-24V318.272c0-13.254,10.745-24,24-24h399.457c13.256,0,24,10.746,24,24
		L723.729,521.117L723.729,521.117z"/>
	<path display="inline" fill="#FFFFFF" stroke="#000000" stroke-width="3" stroke-miterlimit="10" d="M686.172,483.66
		c0,13.26-10.744,24-24,24H333.898c-13.255,0-24-10.74-24-24V350.308c0-13.254,10.745-24,24-24h328.272c13.256,0,24,10.746,24,24
		L686.172,483.66L686.172,483.66z"/>
	<path id="vecmap" display="inline" fill="none" stroke="#000000" stroke-width="9" stroke-miterlimit="10" d="M348.052,427.712
		c0,31.853,20.468,57.628,45.763,57.628"/>
	<path id="vecmap_1_" display="inline" fill="none" stroke="#000000" stroke-width="4" stroke-miterlimit="10" d="M584.477,549.117
		c0,44.971,39.42,81.355,88.135,81.355"/>
	<path id="vecmap_2_" display="inline" fill="none" stroke="#000000" stroke-width="4" stroke-miterlimit="10" d="M412.609,545.117
		c0,44.971-39.42,81.355-88.135,81.355"/>
	<g display="inline">
		
			<line id="vecmap_3_" fill="none" stroke="#000000" stroke-width="3" stroke-miterlimit="10" x1="317.407" y1="356.645" x2="678.426" y2="356.645"/>
	</g>
	<g display="inline">
		
			<line id="vecmap_4_" fill="none" stroke="#000000" stroke-width="3" stroke-miterlimit="10" x1="368.543" y1="365.119" x2="368.543" y2="497.322"/>
	</g>
	<g display="inline">
		
			<line id="vecmap_5_" fill="none" stroke="#000000" stroke-width="3" stroke-miterlimit="10" x1="637.714" y1="365.119" x2="637.714" y2="497.322"/>
	</g>
	<g display="inline">
		
			<rect id="vecmaprec" x="317.407" y="385.323" fill="#FFFFFF" stroke="#000000" stroke-width="3" stroke-miterlimit="10" width="355.205" height="80"/>
	</g>
	<g display="inline">
		
			<line fill="none" stroke="#000000" stroke-width="3" stroke-miterlimit="10" x1="317.407" y1="465.323" x2="672.611" y2="465.323"/>
	</g>
</g>
<text transform="matrix(1 0 0 1 461.9832 703.8977)" display="none" enable-background="new    " font-family="'MyriadPro-Regular'" font-size="72">3X</text>
<path fill="#FFFFFF" stroke="#000000" stroke-miterlimit="10" d="M620.219,343.602"/>
<path display="none" fill="#E4E4EF" stroke="#000000" stroke-width="2" stroke-miterlimit="10" d="M383.591,609.33
	c0,0,41.716-44.212,15.288,15.767"/>
<path fill="none" stroke="#000000" stroke-width="6" stroke-miterlimit="10" d="M640.5,607.907c0,4.268-3.46,7.728-7.728,7.728
	H403.524c-4.268,0-7.728-3.46-7.728-7.728V464.439c0-4.268,3.459-7.728,7.728-7.728h229.248c4.268,0,7.728,3.46,7.728,7.728V607.907
	z"/>
<path fill="#F2DF8F" stroke="#000000" stroke-width="6" stroke-miterlimit="10" d="M234.996,602.778
	c0,0,265.73-151.195,549.617-43.236c0,0-49.033,170.797-256.073,198.378C528.54,757.919,342.493,785.055,234.996,602.778z"/>
</svg>
