<?xml version="1.0" encoding="utf-8"?>
<!-- Generator: Adobe Illustrator 16.0.0, SVG Export Plug-In . SVG Version: 6.00 Build 0)  -->
<!DOCTYPE svg PUBLIC "-//W3C//DTD SVG 1.1//EN" "http://www.w3.org/Graphics/SVG/1.1/DTD/svg11.dtd">
<svg version="1.1" id="Layer_2" xmlns="http://www.w3.org/2000/svg" xmlns:xlink="http://www.w3.org/1999/xlink" x="0px" y="0px"
	 viewBox="0 0 1000 1000" enable-background="new 0 0 1000 1000" xml:space="preserve">
<circle opacity="0.3" fill="#8383FC" stroke="#000000" stroke-miterlimit="10" enable-background="new    " cx="500" cy="453.711" r="302.542"/>
<circle display="none" opacity="0.3" stroke="#000000" stroke-miterlimit="10" enable-background="new    " cx="500" cy="456.711" r="302.542"/>
<g id="Layer_x5F_1" display="none">
	<path display="inline" fill="#FFFFFF" stroke="#000000" stroke-width="4" stroke-miterlimit="10" d="M444.525,594.475
		c0,6.627-5.373,12-12,12H331.102c-6.627,0-12-5.373-12-12V348.983c0-6.627,5.373-12,12-12h101.424c6.627,0,12,5.373,12,12
		L444.525,594.475L444.525,594.475z"/>
	<path display="inline" fill="#FFFFFF" stroke="#000000" stroke-width="4" stroke-miterlimit="10" d="M656.459,594.475
		c0,6.627-5.371,12-12,12H543.034c-6.627,0-12-5.373-12-12V348.983c0-6.627,5.373-12,12-12h101.425c6.629,0,12,5.373,12,12V594.475z
		"/>
	<path display="inline" fill="#FFFFFF" stroke="#000000" stroke-width="4" stroke-miterlimit="10" d="M569.949,515.729
		c0,6.627-5.373,12-12,12H456.525c-6.627,0-12-5.373-12-12V270.237c0-6.627,5.373-12,12-12h101.424c6.627,0,12,5.373,12,12V515.729z
		"/>
	<path display="inline" fill="#FFFFFF" stroke="#000000" stroke-width="5" stroke-miterlimit="10" d="M723.729,521.116
		c0,13.261-10.744,24-24,24H300.271c-13.255,0-24-10.739-24-24V318.272c0-13.254,10.745-24,24-24h399.457c13.256,0,24,10.746,24,24
		L723.729,521.116L723.729,521.116z"/>
	<path display="inline" fill="#FFFFFF" stroke="#000000" stroke-width="3" stroke-miterlimit="10" d="M686.173,483.659
		c0,13.261-10.744,24-24,24H333.898c-13.255,0-24-10.739-24-24V350.308c0-13.254,10.745-24,24-24h328.272c13.256,0,24,10.746,24,24
		L686.173,483.659L686.173,483.659z"/>
	<path id="vecmap" display="inline" fill="none" stroke="#000000" stroke-width="9" stroke-miterlimit="10" d="M348.052,427.712
		c0,31.853,20.468,57.628,45.763,57.628"/>
	<path id="vecmap_1_" display="inline" fill="none" stroke="#000000" stroke-width="4" stroke-miterlimit="10" d="M584.477,549.116
		c0,44.972,39.42,81.355,88.135,81.355"/>
	<path id="vecmap_2_" display="inline" fill="none" stroke="#000000" stroke-width="4" stroke-miterlimit="10" d="M412.609,545.116
		c0,44.972-39.42,81.355-88.135,81.355"/>
	<g display="inline">
		
			<line id="vecmap_3_" fill="none" stroke="#000000" stroke-width="3" stroke-miterlimit="10" x1="317.407" y1="356.645" x2="678.427" y2="356.645"/>
	</g>
	<g display="inline">
		
			<line id="vecmap_4_" fill="none" stroke="#000000" stroke-width="3" stroke-miterlimit="10" x1="368.543" y1="365.119" x2="368.543" y2="497.322"/>
	</g>
	<g display="inline">
		
			<line id="vecmap_5_" fill="none" stroke="#000000" stroke-width="3" stroke-miterlimit="10" x1="637.715" y1="365.119" x2="637.715" y2="497.322"/>
	</g>
	<g display="inline">
		
			<rect id="vecmaprec" x="317.407" y="385.323" fill="#FFFFFF" stroke="#000000" stroke-width="3" stroke-miterlimit="10" width="355.205" height="80"/>
	</g>
	<g display="inline">
		
			<line fill="none" stroke="#000000" stroke-width="3" stroke-miterlimit="10" x1="317.407" y1="465.323" x2="672.611" y2="465.323"/>
	</g>
</g>
<text transform="matrix(1 0 0 1 461.9832 703.8977)" display="none" enable-background="new    " font-family="'MyriadPro-Regular'" font-size="72">3X</text>
<g id="Layer_3">
	<path fill="#6B5412" stroke="#000000" stroke-miterlimit="10" d="M439.556,324.882c0,0-69.687,278.282,110.295,203.616
		c0,0-115.82-218.619-65.919-227.309L439.556,324.882z"/>
</g>
<path fill="#FFFFFF" stroke="#000000" stroke-miterlimit="10" d="M620.219,343.602"/>
<path display="none" fill="#E4E4EF" stroke="#000000" stroke-width="2" stroke-miterlimit="10" d="M383.592,609.329
	c0,0,41.716-44.212,15.288,15.768"/>
<path fill="none" stroke="#000000" stroke-width="6" stroke-miterlimit="10" d="M640.5,607.906c0,4.269-3.46,7.729-7.728,7.729
	H403.524c-4.268,0-7.728-3.46-7.728-7.729V464.439c0-4.268,3.459-7.728,7.728-7.728h229.248c4.268,0,7.728,3.46,7.728,7.728V607.906
	z"/>
<path fill="#F2DF8F" stroke="#000000" stroke-width="6" stroke-miterlimit="10" d="M234.996,602.778
	c0,0,265.73-151.195,549.617-43.236c0,0-49.033,170.798-256.072,198.379C528.54,757.919,342.493,785.055,234.996,602.778z"/>
<path display="none" fill="#7F9E3D" stroke="#000000" stroke-width="3" stroke-miterlimit="10" d="M464.223,276.828
	c0,0-78.911-29.713-127.529,42.813"/>
<g id="Leaf_2_2_">
	<path fill="#7F9E3D" stroke="#000000" stroke-width="3" stroke-miterlimit="10" d="M493.054,309.982
		c0,0-24.784-97.333-128.77-95.369"/>
	<path fill="#7F9E3D" stroke="#000000" stroke-width="3" stroke-miterlimit="10" d="M364.304,214.585
		c28.398,100.053,128.731,95.423,128.731,95.423"/>
	<path fill="none" stroke="#000000" stroke-width="3" stroke-miterlimit="10" d="M493.054,309.982
		c0,0-124.697-100.399-128.57-94.372"/>
	<polyline fill="#CACAEF" stroke="#000000" stroke-miterlimit="10" points="372.172,234.062 387.089,242.64 375.76,242.963 	"/>
	<polyline fill="#CACAEF" stroke="#000000" stroke-miterlimit="10" points="384.164,257.054 398.826,256.636 393.257,260.139 
		402.354,263.427 393.659,268.821 	"/>
	<polyline fill="#CACAEF" stroke="#000000" stroke-miterlimit="10" points="398.745,276.139 422.47,276.117 405.557,281.815 	"/>
	<polyline fill="#CACAEF" stroke="#000000" stroke-miterlimit="10" points="416.214,289.24 424.119,286.937 421.103,292.733 	"/>
	<polyline fill="#CACAEF" stroke="#000000" stroke-miterlimit="10" points="428.934,296.83 451.639,289.947 437.097,300.293 	"/>
	<polyline fill="#CACAEF" stroke="#000000" stroke-miterlimit="10" points="460.799,251.749 437.17,249.619 454.529,245.479 	"/>
	<polyline fill="#CACAEF" stroke="#000000" stroke-miterlimit="10" points="430.246,228.5 406.793,232.085 422.657,223.912 	"/>
	<polyline fill="#CACAEF" stroke="#000000" stroke-miterlimit="10" points="481.501,279.355 473.348,278.208 478.478,274.161 	"/>
</g>
<g id="Leaf_2_3_">
	<path fill="#7F9E3D" stroke="#000000" stroke-width="3" stroke-miterlimit="10" d="M428.905,295.342
		c0,0,86.405,51.206,158.465-23.791"/>
	<path fill="#7F9E3D" stroke="#000000" stroke-width="3" stroke-miterlimit="10" d="M587.375,271.584
		C496.492,221.016,428.9,295.309,428.9,295.309"/>
	<path fill="none" stroke="#000000" stroke-width="3" stroke-miterlimit="10" d="M428.905,295.342
		c0,0,159.149-17.354,157.617-24.354"/>
	<polyline fill="#CACAEF" stroke="#000000" stroke-miterlimit="10" points="568.031,263.397 551.422,267.897 559.196,259.65 	"/>
	<polyline fill="#CACAEF" stroke="#000000" stroke-miterlimit="10" points="543.284,255.645 533.224,266.32 534.678,259.903 
		525.924,264.02 528.25,254.055 	"/>
	<polyline fill="#CACAEF" stroke="#000000" stroke-miterlimit="10" points="519.476,252.487 502.732,269.297 510.646,253.3 	"/>
	<polyline fill="#CACAEF" stroke="#000000" stroke-miterlimit="10" points="497.864,255.598 493.909,262.822 491.937,256.593 	"/>
	<polyline fill="#CACAEF" stroke="#000000" stroke-miterlimit="10" points="483.505,259.241 472.34,280.176 475.288,262.574 	"/>
	<polyline fill="#CACAEF" stroke="#000000" stroke-miterlimit="10" points="492.91,313.64 511.108,298.418 501.777,313.631 	"/>
	<polyline fill="#CACAEF" stroke="#000000" stroke-miterlimit="10" points="530.947,308.434 544.975,289.3 539.555,306.303 	"/>
	<polyline fill="#CACAEF" stroke="#000000" stroke-miterlimit="10" points="458.745,308.797 465.317,303.835 464.557,310.324 	"/>
</g>
<g id="Leaf_2_1_">
	<path fill="#7F9E3D" stroke="#000000" stroke-width="3" stroke-miterlimit="10" d="M464.648,273.642
		c0,0-98.019-21.916-143.296,71.716"/>
	<path fill="#7F9E3D" stroke="#000000" stroke-width="3" stroke-miterlimit="10" d="M321.337,345.328
		c102.079,19.922,143.326-71.657,143.326-71.657"/>
	<path fill="none" stroke="#000000" stroke-width="3" stroke-miterlimit="10" d="M464.648,273.642c0,0-145.94,65.809-142.315,71.989
		"/>
	<polyline fill="#CACAEF" stroke="#000000" stroke-miterlimit="10" points="342.266,347.119 356.663,337.695 351.827,347.945 	"/>
	<polyline fill="#CACAEF" stroke="#000000" stroke-miterlimit="10" points="368.196,346.823 374.454,333.556 375.059,340.108 
		382.107,333.481 382.985,343.675 	"/>
	<polyline fill="#CACAEF" stroke="#000000" stroke-miterlimit="10" points="391.812,342.449 402.523,321.279 399.955,338.94 	"/>
	<polyline fill="#CACAEF" stroke="#000000" stroke-miterlimit="10" points="411.397,332.794 412.918,324.701 416.723,330.013 	"/>
	<polyline fill="#CACAEF" stroke="#000000" stroke-miterlimit="10" points="423.919,324.882 428.049,301.518 430.699,319.167 	"/>
	<polyline fill="#CACAEF" stroke="#000000" stroke-miterlimit="10" points="398.124,276.073 385.537,296.185 389.696,278.83 	"/>
	<polyline fill="#CACAEF" stroke="#000000" stroke-miterlimit="10" points="363.57,292.809 356.16,315.348 356.046,297.502 	"/>
	<polyline fill="#CACAEF" stroke="#000000" stroke-miterlimit="10" points="432.107,270.094 427.397,276.847 426.108,270.442 	"/>
</g>
<g id="Leaf_3_1_" display="none">
	<path display="inline" fill="#7F9E3D" stroke="#000000" stroke-width="3" stroke-miterlimit="10" d="M470.5,276.5c0,0-98,22-99,126
		"/>
	<path display="inline" fill="#7F9E3D" stroke="#000000" stroke-width="3" stroke-miterlimit="10" d="M371.473,402.48
		c100.821-25.536,99.053-125.959,99.053-125.959"/>
	<path display="inline" fill="none" stroke="#000000" stroke-width="3" stroke-miterlimit="10" d="M470.5,276.5
		c0,0-103.912,121.786-97.997,125.829"/>
	<polyline display="inline" fill="#CACAEF" stroke="#000000" stroke-miterlimit="10" points="391.166,395.17 400.166,380.504 
		400.166,391.837 	"/>
	<polyline display="inline" fill="#CACAEF" stroke="#000000" stroke-miterlimit="10" points="414.49,383.839 414.49,369.17 
		417.833,374.837 421.38,365.837 426.523,374.682 	"/>
	<polyline display="inline" fill="#CACAEF" stroke="#000000" stroke-miterlimit="10" points="433.984,369.807 434.638,346.091 
		439.851,363.159 	"/>
	<polyline display="inline" fill="#CACAEF" stroke="#000000" stroke-miterlimit="10" points="447.577,352.719 445.5,344.75 
		451.208,347.93 	"/>
	<polyline display="inline" fill="#CACAEF" stroke="#000000" stroke-miterlimit="10" points="455.527,340.22 449.293,317.328 
		459.22,332.158 	"/>
	<polyline display="inline" fill="#CACAEF" stroke="#000000" stroke-miterlimit="10" points="411.372,307.083 408.569,330.642 
		404.926,313.172 	"/>
	<polyline display="inline" fill="#CACAEF" stroke="#000000" stroke-miterlimit="10" points="387.261,336.962 390.177,360.507 
		382.459,344.416 	"/>
	<polyline display="inline" fill="#CACAEF" stroke="#000000" stroke-miterlimit="10" points="439.556,287.176 438.177,295.293 
		434.279,290.05 	"/>
</g>
<g id="Leaf_3_2_">
	<path fill="#7F9E3D" stroke="#000000" stroke-width="3" stroke-miterlimit="10" d="M568.382,394.574
		c0,0-2.57-100.405-104.4-121.563"/>
	<path fill="#7F9E3D" stroke="#000000" stroke-width="3" stroke-miterlimit="10" d="M464.007,272.99
		c5.491,103.86,104.35,121.607,104.35,121.607"/>
	<path fill="none" stroke="#000000" stroke-width="3" stroke-miterlimit="10" d="M568.382,394.574
		c0,0-99.313-125.563-104.427-120.544"/>
	<polyline fill="#7F9E3D" stroke="#000000" stroke-miterlimit="10" points="467.357,293.727 479.999,305.402 468.881,303.203 	"/>
	<polyline fill="#CACAEF" stroke="#000000" stroke-miterlimit="10" points="473.948,318.806 488.338,321.652 482.131,323.832 
		490.271,329.057 480.597,332.387 	"/>
	<polyline fill="#CACAEF" stroke="#000000" stroke-miterlimit="10" points="483.932,340.651 507.071,345.894 489.315,347.698 	"/>
	<polyline fill="#CACAEF" stroke="#000000" stroke-miterlimit="10" points="498.059,357.301 506.277,356.81 502.051,361.792 	"/>
	<polyline fill="#CACAEF" stroke="#000000" stroke-miterlimit="10" points="508.778,367.525 532.444,365.85 515.969,372.713 	"/>
	<polyline fill="#CACAEF" stroke="#000000" stroke-miterlimit="10" points="549.851,330.638 527.283,323.318 545.129,323.133 	"/>
	<polyline fill="#7F9E3D" stroke="#000000" stroke-miterlimit="10" points="525.218,301.189 501.554,299.481 518.837,295.031 	"/>
	<polyline fill="#CACAEF" stroke="#000000" stroke-miterlimit="10" points="563.912,362.148 556.217,359.221 562.117,356.413 	"/>
	<g id="Leaf_3">
		<path fill="#7F9E3D" stroke="#000000" stroke-width="3" stroke-miterlimit="10" d="M470.5,276.5c0,0-98,22-99,126"/>
		<path fill="#7F9E3D" stroke="#000000" stroke-width="3" stroke-miterlimit="10" d="M371.473,402.48
			c100.821-25.536,99.053-125.959,99.053-125.959"/>
		<path fill="none" stroke="#000000" stroke-width="3" stroke-miterlimit="10" d="M470.5,276.5c0,0-103.912,121.786-97.997,125.829"
			/>
		<polyline fill="#CACAEF" stroke="#000000" stroke-miterlimit="10" points="391.166,395.17 400.166,380.504 400.166,391.837 		"/>
		<polyline fill="#CACAEF" stroke="#000000" stroke-miterlimit="10" points="414.49,383.839 414.49,369.17 417.833,374.837 
			421.38,365.837 426.523,374.682 		"/>
		<polyline fill="#CACAEF" stroke="#000000" stroke-miterlimit="10" points="433.984,369.807 434.638,346.091 439.851,363.159 		"/>
		<polyline fill="#CACAEF" stroke="#000000" stroke-miterlimit="10" points="447.577,352.719 445.5,344.75 451.208,347.93 		"/>
		<polyline fill="#CACAEF" stroke="#000000" stroke-miterlimit="10" points="455.527,340.22 449.293,317.328 459.22,332.158 		"/>
		<polyline fill="#7F9E3D" stroke="#000000" stroke-miterlimit="10" points="411.372,307.083 408.569,330.642 404.926,313.172 		"/>
		<polyline fill="#CACAEF" stroke="#000000" stroke-miterlimit="10" points="387.261,336.962 390.177,360.507 382.459,344.416 		"/>
		<polyline fill="#7F9E3D" stroke="#000000" stroke-miterlimit="10" points="439.556,287.176 438.177,295.293 434.279,290.05 		"/>
	</g>
</g>
</svg>
