<?xml version="1.0" encoding="utf-8"?>
<!-- Generator: Adobe Illustrator 16.0.0, SVG Export Plug-In . SVG Version: 6.00 Build 0)  -->
<!DOCTYPE svg PUBLIC "-//W3C//DTD SVG 1.1//EN" "http://www.w3.org/Graphics/SVG/1.1/DTD/svg11.dtd">
<svg version="1.1" id="Layer_2" xmlns="http://www.w3.org/2000/svg" xmlns:xlink="http://www.w3.org/1999/xlink" x="0px" y="0px"
	  viewBox="0 0 1000 1000" style="enable-background:new 0 0 1000 1000;" xml:space="preserve">
<circle style="opacity:0.3;fill:#8383FC;stroke:#000000;stroke-miterlimit:10;enable-background:new    ;" cx="500" cy="453.711" r="302.542"/>
<circle style="display:none;opacity:0.3;stroke:#000000;stroke-miterlimit:10;enable-background:new    ;" cx="500" cy="456.711" r="302.542"/>
<g id="Layer_x5F_1" style="display:none;">
	<path style="display:inline;fill:#FFFFFF;stroke:#000000;stroke-width:4;stroke-miterlimit:10;" d="M444.525,594.475
		c0,6.627-5.373,12-12,12H331.102c-6.627,0-12-5.373-12-12V348.983c0-6.627,5.373-12,12-12h101.424c6.627,0,12,5.373,12,12
		L444.525,594.475L444.525,594.475z"/>
	<path style="display:inline;fill:#FFFFFF;stroke:#000000;stroke-width:4;stroke-miterlimit:10;" d="M656.459,594.475
		c0,6.627-5.37,12-12,12H543.034c-6.627,0-12-5.373-12-12V348.983c0-6.627,5.373-12,12-12h101.425c6.63,0,12,5.373,12,12V594.475z"
		/>
	<path style="display:inline;fill:#FFFFFF;stroke:#000000;stroke-width:4;stroke-miterlimit:10;" d="M569.949,515.729
		c0,6.627-5.373,12-12,12H456.525c-6.627,0-12-5.373-12-12V270.237c0-6.627,5.373-12,12-12h101.424c6.627,0,12,5.373,12,12V515.729z
		"/>
	<path style="display:inline;fill:#FFFFFF;stroke:#000000;stroke-width:5;stroke-miterlimit:10;" d="M723.729,521.115
		c0,13.262-10.744,24-24,24H300.271c-13.255,0-24-10.738-24-24V318.272c0-13.254,10.745-24,24-24h399.457c13.256,0,24,10.746,24,24
		L723.729,521.115L723.729,521.115z"/>
	<path style="display:inline;fill:#FFFFFF;stroke:#000000;stroke-width:3;stroke-miterlimit:10;" d="M686.174,483.658
		c0,13.262-10.744,24-24,24H333.898c-13.255,0-24-10.738-24-24V350.308c0-13.254,10.745-24,24-24h328.272c13.256,0,24,10.746,24,24
		L686.174,483.658L686.174,483.658z"/>
	<path id="vecmap" style="display:inline;fill:none;stroke:#000000;stroke-width:9;stroke-miterlimit:10;" d="M348.052,427.712
		c0,31.853,20.468,57.628,45.763,57.628"/>
	<path id="vecmap_1_" style="display:inline;fill:none;stroke:#000000;stroke-width:4;stroke-miterlimit:10;" d="M584.477,549.115
		c0,44.973,39.42,81.355,88.135,81.355"/>
	<path id="vecmap_2_" style="display:inline;fill:none;stroke:#000000;stroke-width:4;stroke-miterlimit:10;" d="M412.609,545.115
		c0,44.973-39.42,81.355-88.135,81.355"/>
	<g style="display:inline;">
		
			<line id="vecmap_3_" style="fill:none;stroke:#000000;stroke-width:3;stroke-miterlimit:10;" x1="317.407" y1="356.645" x2="678.427" y2="356.645"/>
	</g>
	<g style="display:inline;">
		
			<line id="vecmap_4_" style="fill:none;stroke:#000000;stroke-width:3;stroke-miterlimit:10;" x1="368.543" y1="365.119" x2="368.543" y2="497.322"/>
	</g>
	<g style="display:inline;">
		
			<line id="vecmap_5_" style="fill:none;stroke:#000000;stroke-width:3;stroke-miterlimit:10;" x1="637.716" y1="365.119" x2="637.716" y2="497.322"/>
	</g>
	<g style="display:inline;">
		
			<rect id="vecmaprec" x="317.407" y="385.323" style="fill:#FFFFFF;stroke:#000000;stroke-width:3;stroke-miterlimit:10;" width="355.205" height="80"/>
	</g>
	<g style="display:inline;">
		
			<line style="fill:none;stroke:#000000;stroke-width:3;stroke-miterlimit:10;" x1="317.407" y1="465.323" x2="672.611" y2="465.323"/>
	</g>
</g>
<text transform="matrix(1 0 0 1 461.9832 703.8977)" style="display:none;enable-background:new    ; font-family:'MyriadPro-Regular'; font-size:72;">3X</text>
<path style="fill:#7177A8;stroke:#000000;stroke-width:5;stroke-miterlimit:10;" d="M801.662,430.451
	c0,0,6.338,137.049-41.162,141.549l-506,32.5c0,0-50.051,30.422-57.024-147.789l5.024-3h-2c0,0,48-3.8,56.667-32.506
	c0,0,26,27.295,45.333,27.961l-2.034,0.682c0,0,48-3.799,56.667-32.505c0,0,26,27.294,45.333,27.961v-0.456
	c0,0,48-3.799,56.667-32.505c0,0,26,27.294,45.333,27.961v1.544c0,0,48-3.799,56.667-32.505c0,0,25.999,27.294,45.333,27.961
	l-4,0.544c0,0,48-3.799,56.667-32.505c0,0,25.999,27.294,45.333,27.961l-2-0.456c0,0,48-3.799,56.667-32.505
	c0,0,21.814,22.901,40.34,27.261c0.667,0.157,1.329,0.29,1.986,0.396c1.017,0.165,2.021,0.27,3.007,0.303"/>
<g id="Layer_3">
	<path style="fill:#6B592A;stroke:#000000;stroke-width:6;stroke-miterlimit:10;" d="M439.556,324.882
		c0,0-69.688,278.281,110.295,203.615c0,0-115.82-218.618-65.919-227.309L439.556,324.882z"/>
	<path style="fill:#6B5412;stroke:#000000;stroke-width:6;stroke-miterlimit:10;" d="M473.948,361.792
		c0,0-20.496,40.787-46.639,59.413"/>
	<path style="fill:none;stroke:#000000;stroke-width:6;stroke-miterlimit:10;" d="M436.743,359.686c0,0,27.77,44.858,59.771,63.627"
		/>
	<path style="fill:none;stroke:#000000;stroke-width:6;stroke-miterlimit:10;" d="M426.635,417.344c0,0,45.524,73.541,97.99,104.311
		"/>
	<path style="fill:none;stroke:#000000;stroke-width:6;stroke-miterlimit:10;" d="M495.955,408.959c0,0-9.312,77.778-40.652,123.079
		"/>
	<path style="fill:none;stroke:#000000;stroke-width:6;stroke-miterlimit:10;" d="M417.743,296.686c0,0,27.77,44.858,59.771,63.627"
		/>
</g>
<path style="fill:#FFFFFF;stroke:#000000;stroke-miterlimit:10;" d="M620.219,343.602"/>
<path style="display:none;fill:#E4E4EF;stroke:#000000;stroke-width:2;stroke-miterlimit:10;" d="M383.593,609.328
	c0,0,41.716-44.212,15.288,15.769"/>
<path style="fill:#EDE0AB;stroke:#000000;stroke-width:6;stroke-miterlimit:10;" d="M234.996,602.778
	c0,0,265.73-151.195,549.617-43.236c0,0-49.033,170.799-256.072,198.38C528.54,757.919,342.493,785.055,234.996,602.778z"/>
<path style="display:none;fill:#7F9E3D;stroke:#000000;stroke-width:3;stroke-miterlimit:10;" d="M464.223,276.828
	c0,0-78.911-29.714-127.529,42.813"/>
<g id="Leaf_2_2_">
	<path style="fill:#7F9E3D;stroke:#000000;stroke-width:3;stroke-miterlimit:10;" d="M493.054,309.982
		c0,0-24.784-97.333-128.771-95.369"/>
	<path style="fill:#7F9E3D;stroke:#000000;stroke-width:3;stroke-miterlimit:10;" d="M364.304,214.585
		c28.397,100.053,128.73,95.423,128.73,95.423"/>
	<path style="fill:none;stroke:#000000;stroke-width:3;stroke-miterlimit:10;" d="M493.054,309.982
		c0,0-124.697-100.398-128.57-94.372"/>
	<polyline style="fill:#CACAEF;stroke:#000000;stroke-miterlimit:10;" points="372.173,234.062 387.09,242.64 375.76,242.963 	"/>
	<polyline style="fill:#CACAEF;stroke:#000000;stroke-miterlimit:10;" points="384.164,257.054 398.826,256.636 393.258,260.139 
		402.354,263.427 393.659,268.821 	"/>
	<polyline style="fill:#CACAEF;stroke:#000000;stroke-miterlimit:10;" points="398.745,276.139 422.47,276.117 405.557,281.815 	"/>
	<polyline style="fill:#CACAEF;stroke:#000000;stroke-miterlimit:10;" points="416.215,289.24 424.119,286.937 421.103,292.733 	"/>
	<polyline style="fill:#CACAEF;stroke:#000000;stroke-miterlimit:10;" points="428.934,296.83 451.639,289.947 437.097,300.293 	"/>
	<polyline style="fill:#CACAEF;stroke:#000000;stroke-miterlimit:10;" points="460.8,251.749 437.171,249.619 454.529,245.479 	"/>
	<polyline style="fill:#CACAEF;stroke:#000000;stroke-miterlimit:10;" points="430.246,228.5 406.793,232.085 422.657,223.912 	"/>
	<polyline style="fill:#CACAEF;stroke:#000000;stroke-miterlimit:10;" points="481.502,279.355 473.348,278.208 478.478,274.161 	
		"/>
</g>
<g id="Leaf_2_3_">
	<path style="fill:#7F9E3D;stroke:#000000;stroke-width:3;stroke-miterlimit:10;" d="M428.905,295.342
		c0,0,86.405,51.206,158.465-23.791"/>
	<path style="fill:#7F9E3D;stroke:#000000;stroke-width:3;stroke-miterlimit:10;" d="M587.375,271.584
		C496.492,221.016,428.9,295.309,428.9,295.309"/>
	<path style="fill:none;stroke:#000000;stroke-width:3;stroke-miterlimit:10;" d="M428.905,295.342
		c0,0,159.149-17.354,157.617-24.354"/>
	<polyline style="fill:#CACAEF;stroke:#000000;stroke-miterlimit:10;" points="568.031,263.397 551.423,267.897 559.196,259.65 	"/>
	<polyline style="fill:#CACAEF;stroke:#000000;stroke-miterlimit:10;" points="543.284,255.645 533.224,266.32 534.678,259.903 
		525.925,264.02 528.25,254.055 	"/>
	<polyline style="fill:#CACAEF;stroke:#000000;stroke-miterlimit:10;" points="519.476,252.487 502.732,269.297 510.646,253.3 	"/>
	<polyline style="fill:#CACAEF;stroke:#000000;stroke-miterlimit:10;" points="497.864,255.598 493.909,262.822 491.937,256.593 	
		"/>
	<polyline style="fill:#CACAEF;stroke:#000000;stroke-miterlimit:10;" points="483.506,259.24 472.341,280.176 475.288,262.573 	"/>
	<polyline style="fill:#CACAEF;stroke:#000000;stroke-miterlimit:10;" points="492.91,313.64 511.108,298.418 501.777,313.631 	"/>
	<polyline style="fill:#CACAEF;stroke:#000000;stroke-miterlimit:10;" points="530.947,308.434 544.975,289.3 539.555,306.303 	"/>
	<polyline style="fill:#CACAEF;stroke:#000000;stroke-miterlimit:10;" points="458.745,308.797 465.317,303.835 464.557,310.323 	
		"/>
</g>
<g id="Leaf_2_1_">
	<path style="fill:#7F9E3D;stroke:#000000;stroke-width:3;stroke-miterlimit:10;" d="M464.648,273.642
		c0,0-98.019-21.916-143.296,71.716"/>
	<path style="fill:#7F9E3D;stroke:#000000;stroke-width:3;stroke-miterlimit:10;" d="M321.338,345.328
		c102.078,19.922,143.325-71.657,143.325-71.657"/>
	<path style="fill:none;stroke:#000000;stroke-width:3;stroke-miterlimit:10;" d="M464.648,273.642
		c0,0-145.939,65.81-142.314,71.989"/>
	<polyline style="fill:#CACAEF;stroke:#000000;stroke-miterlimit:10;" points="342.266,347.119 356.663,337.695 351.827,347.945 	
		"/>
	<polyline style="fill:#CACAEF;stroke:#000000;stroke-miterlimit:10;" points="368.196,346.823 374.454,333.556 375.059,340.108 
		382.107,333.481 382.985,343.675 	"/>
	<polyline style="fill:#CACAEF;stroke:#000000;stroke-miterlimit:10;" points="391.812,342.448 402.523,321.279 399.955,338.94 	"/>
	<polyline style="fill:#CACAEF;stroke:#000000;stroke-miterlimit:10;" points="411.397,332.794 412.918,324.701 416.723,330.013 	
		"/>
	<polyline style="fill:#CACAEF;stroke:#000000;stroke-miterlimit:10;" points="423.92,324.882 428.05,301.518 430.699,319.167 	"/>
	<polyline style="fill:#CACAEF;stroke:#000000;stroke-miterlimit:10;" points="398.125,276.073 385.537,296.185 389.696,278.83 	"/>
	<polyline style="fill:#CACAEF;stroke:#000000;stroke-miterlimit:10;" points="363.57,292.809 356.16,315.348 356.047,297.502 	"/>
	<polyline style="fill:#CACAEF;stroke:#000000;stroke-miterlimit:10;" points="432.107,270.094 427.397,276.847 426.108,270.442 	
		"/>
</g>
<g id="Leaf_3_1_" style="display:none;">
	<path style="display:inline;fill:#7F9E3D;stroke:#000000;stroke-width:3;stroke-miterlimit:10;" d="M470.5,276.5c0,0-98,22-99,126"
		/>
	<path style="display:inline;fill:#7F9E3D;stroke:#000000;stroke-width:3;stroke-miterlimit:10;" d="M371.473,402.48
		c100.821-25.536,99.053-125.959,99.053-125.959"/>
	<path style="display:inline;fill:none;stroke:#000000;stroke-width:3;stroke-miterlimit:10;" d="M470.5,276.5
		c0,0-103.911,121.786-97.996,125.829"/>
	<polyline style="display:inline;fill:#CACAEF;stroke:#000000;stroke-miterlimit:10;" points="391.166,395.17 400.166,380.504 
		400.166,391.837 	"/>
	<polyline style="display:inline;fill:#CACAEF;stroke:#000000;stroke-miterlimit:10;" points="414.49,383.839 414.49,369.17 
		417.834,374.837 421.381,365.837 426.523,374.682 	"/>
	<polyline style="display:inline;fill:#CACAEF;stroke:#000000;stroke-miterlimit:10;" points="433.984,369.807 434.638,346.091 
		439.851,363.159 	"/>
	<polyline style="display:inline;fill:#CACAEF;stroke:#000000;stroke-miterlimit:10;" points="447.577,352.719 445.5,344.75 
		451.209,347.93 	"/>
	<polyline style="display:inline;fill:#CACAEF;stroke:#000000;stroke-miterlimit:10;" points="455.527,340.22 449.293,317.328 
		459.22,332.157 	"/>
	<polyline style="display:inline;fill:#CACAEF;stroke:#000000;stroke-miterlimit:10;" points="411.372,307.083 408.569,330.642 
		404.927,313.172 	"/>
	<polyline style="display:inline;fill:#CACAEF;stroke:#000000;stroke-miterlimit:10;" points="387.261,336.962 390.177,360.507 
		382.459,344.416 	"/>
	<polyline style="display:inline;fill:#CACAEF;stroke:#000000;stroke-miterlimit:10;" points="439.556,287.176 438.177,295.293 
		434.279,290.05 	"/>
</g>
<g id="Leaf_3_2_">
	<path style="fill:#7F9E3D;stroke:#000000;stroke-width:3;stroke-miterlimit:10;" d="M568.383,394.573
		c0,0-2.57-100.404-104.4-121.563"/>
	<path style="fill:#7F9E3D;stroke:#000000;stroke-width:3;stroke-miterlimit:10;" d="M464.008,272.99
		c5.49,103.86,104.35,121.607,104.35,121.607"/>
	<path style="fill:none;stroke:#000000;stroke-width:3;stroke-miterlimit:10;" d="M568.383,394.573
		c0,0-99.313-125.563-104.428-120.544"/>
	<polyline style="fill:#7F9E3D;stroke:#000000;stroke-miterlimit:10;" points="467.357,293.727 480,305.402 468.882,303.203 	"/>
	<polyline style="fill:#CACAEF;stroke:#000000;stroke-miterlimit:10;" points="473.948,318.806 488.339,321.652 482.132,323.832 
		490.271,329.057 480.597,332.387 	"/>
	<polyline style="fill:#CACAEF;stroke:#000000;stroke-miterlimit:10;" points="483.932,340.651 507.071,345.894 489.315,347.698 	
		"/>
	<polyline style="fill:#CACAEF;stroke:#000000;stroke-miterlimit:10;" points="498.059,357.301 506.277,356.81 502.052,361.792 	"/>
	<polyline style="fill:#CACAEF;stroke:#000000;stroke-miterlimit:10;" points="508.778,367.525 532.444,365.85 515.969,372.713 	"/>
	<polyline style="fill:#CACAEF;stroke:#000000;stroke-miterlimit:10;" points="549.851,330.638 527.283,323.318 545.13,323.133 	"/>
	<polyline style="fill:#7F9E3D;stroke:#000000;stroke-miterlimit:10;" points="525.219,301.189 501.554,299.481 518.838,295.031 	
		"/>
	<polyline style="fill:#CACAEF;stroke:#000000;stroke-miterlimit:10;" points="563.912,362.148 556.218,359.221 562.117,356.413 	
		"/>
	<g id="Leaf_3">
		<path style="fill:#7F9E3D;stroke:#000000;stroke-width:3;stroke-miterlimit:10;" d="M470.5,276.5c0,0-98,22-99,126"/>
		<path style="fill:#7F9E3D;stroke:#000000;stroke-width:3;stroke-miterlimit:10;" d="M371.473,402.48
			c100.821-25.536,99.053-125.959,99.053-125.959"/>
		<path style="fill:none;stroke:#000000;stroke-width:3;stroke-miterlimit:10;" d="M470.5,276.5c0,0-103.911,121.786-97.996,125.829
			"/>
		<polyline style="fill:#CACAEF;stroke:#000000;stroke-miterlimit:10;" points="391.166,395.17 400.166,380.504 400.166,391.837 		
			"/>
		<polyline style="fill:#CACAEF;stroke:#000000;stroke-miterlimit:10;" points="414.49,383.839 414.49,369.17 417.834,374.837 
			421.381,365.837 426.523,374.682 		"/>
		<polyline style="fill:#CACAEF;stroke:#000000;stroke-miterlimit:10;" points="433.984,369.807 434.638,346.091 439.851,363.159 		
			"/>
		<polyline style="fill:#CACAEF;stroke:#000000;stroke-miterlimit:10;" points="447.577,352.719 445.5,344.75 451.209,347.93 		"/>
		<polyline style="fill:#CACAEF;stroke:#000000;stroke-miterlimit:10;" points="455.527,340.22 449.293,317.328 459.22,332.157 		
			"/>
		<polyline style="fill:#7F9E3D;stroke:#000000;stroke-miterlimit:10;" points="411.372,307.083 408.569,330.642 404.927,313.172 		
			"/>
		<polyline style="fill:#CACAEF;stroke:#000000;stroke-miterlimit:10;" points="387.261,336.962 390.177,360.507 382.459,344.416 		
			"/>
		<polyline style="fill:#7F9E3D;stroke:#000000;stroke-miterlimit:10;" points="439.556,287.176 438.177,295.293 434.279,290.05 		
			"/>
	</g>
</g>
<path style="display:none;fill:none;stroke:#000000;stroke-width:6;stroke-miterlimit:10;" d="M640.5,607.906
	c0,4.27-3.46,7.729-7.728,7.729H403.524c-4.268,0-7.728-3.46-7.728-7.729V464.439c0-4.268,3.459-7.728,7.728-7.728h229.248
	c4.268,0,7.728,3.46,7.728,7.728V607.906z"/>
<path style="fill:#484FAA;stroke:#FFFFFF;stroke-width:5;stroke-miterlimit:10;" d="M197.474,456.711"/>
</svg>
