<?xml version="1.0" encoding="utf-8"?>
<!-- Generator: Adobe Illustrator 16.0.0, SVG Export Plug-In . SVG Version: 6.00 Build 0)  -->
<!DOCTYPE svg PUBLIC "-//W3C//DTD SVG 1.1//EN" "http://www.w3.org/Graphics/SVG/1.1/DTD/svg11.dtd">
<svg version="1.1" xmlns="http://www.w3.org/2000/svg" xmlns:xlink="http://www.w3.org/1999/xlink" x="0px" y="0px" width="150px"
	 height="150px" viewBox="0 0 1000 1000" enable-background="new 0 0 1000 1000" xml:space="preserve">
<g id="Layer_1" display="none">
	<g display="inline">
		<g id="Layer_3">
			<path fill="#DDDDDD" stroke="#000000" stroke-miterlimit="10" d="M500,153.169c167.092,0,302.543,135.452,302.543,302.542
				c0,29.068-4.101,57.182-11.754,83.789c-4.146,14.412-9.335,28.387-15.479,41.829C727.601,685.718,622.271,758.252,500,758.253
				c-129.085,0-239.288-80.846-282.741-194.661c-3.007-7.877-5.693-15.912-8.047-24.089c-7.652-26.608-11.754-54.724-11.754-83.792
				C197.458,288.621,332.911,153.169,500,153.169z"/>
		</g>
		<g display="none">
			
				<line display="inline" fill="none" stroke="#000000" stroke-width="3" stroke-miterlimit="10" x1="770.5" y1="578.5" x2="223.421" y2="578.5"/>
		</g>
		<g display="none">
			
				<line display="inline" fill="none" stroke="#000000" stroke-width="3" stroke-miterlimit="10" x1="802.51" y1="459.527" x2="197.49" y2="459.527"/>
		</g>
		<g>
			<path d="M455.942,417.769l-14.328,37.872h-4.824l-11.95-31.032l-11.952,31.032h-4.824l-14.256-37.872h4.896l11.881,32.184
				l12.168-32.184h4.393l12.096,32.184l12.024-32.184H455.942z"/>
		</g>
		<g>
			<path d="M391.214,417.839l-14.328,37.872h-4.824l-11.952-31.032l-11.952,31.032h-4.823l-14.257-37.872h4.896l11.88,32.184
				l12.168-32.184h4.392l12.098,32.184l12.022-32.184H391.214z"/>
		</g>
		<g>
			<path d="M326.214,417.839l-14.328,37.872h-4.824l-11.952-31.032l-11.952,31.032h-4.824l-14.256-37.872h4.896l11.88,32.184
				l12.168-32.184h4.392l12.098,32.184l12.022-32.184H326.214z"/>
		</g>
		<g>
			<path d="M456.432,454.919c-0.745-0.769-1.116-1.703-1.116-2.81c0-1.104,0.371-2.025,1.116-2.771
				c0.744-0.744,1.644-1.116,2.7-1.116c1.055,0,1.968,0.372,2.734,1.116c0.769,0.745,1.152,1.668,1.152,2.771
				c0,1.105-0.385,2.041-1.152,2.81c-0.769,0.769-1.681,1.15-2.734,1.15C458.075,456.071,457.177,455.688,456.432,454.919z"/>
		</g>
		<g>
			<path d="M520.392,435.406c0.646-1.485,1.451-2.759,2.412-3.814c0.959-1.057,2.207-2.255,3.743-3.602
				c2.063-1.821,3.588-3.42,4.57-4.788c0.983-1.366,1.478-3.034,1.478-5.002c0-2.641-1.032-4.765-3.097-6.372
				c-2.063-1.608-4.896-2.412-8.495-2.412c-5.952,0-10.537,1.942-13.752,5.832l-3.816-2.88c4.08-4.991,10.056-7.488,17.928-7.488
				c5.041,0,9.063,1.128,12.063,3.384c3,2.257,4.5,5.305,4.5,9.146c0,1.969-0.324,3.706-0.974,5.22
				c-0.646,1.512-1.438,2.797-2.376,3.852c-0.936,1.056-2.172,2.28-3.708,3.672c-2.063,1.872-3.601,3.541-4.606,5.004
				c-1.008,1.465-1.514,3.276-1.514,5.438h-5.326C519.422,438.622,519.744,436.896,520.392,435.406z M519.422,454.953
				c-0.722-0.742-1.08-1.618-1.08-2.628c0-1.056,0.358-1.932,1.08-2.628c0.721-0.693,1.605-1.044,2.663-1.044
				c1.104,0,2.017,0.351,2.735,1.044c0.721,0.697,1.08,1.573,1.08,2.628c0,1.01-0.373,1.886-1.116,2.628
				c-0.745,0.745-1.646,1.116-2.699,1.116C521.027,456.071,520.14,455.698,519.422,454.953z"/>
		</g>
		<g>
			<path d="M561.892,435.406c0.646-1.485,1.451-2.759,2.412-3.814c0.959-1.057,2.207-2.255,3.743-3.602
				c2.063-1.821,3.588-3.42,4.57-4.788c0.983-1.366,1.478-3.034,1.478-5.002c0-2.641-1.032-4.765-3.097-6.372
				c-2.063-1.608-4.896-2.412-8.495-2.412c-5.952,0-10.537,1.942-13.752,5.832l-3.816-2.88c4.08-4.991,10.056-7.488,17.928-7.488
				c5.041,0,9.063,1.128,12.063,3.384c3,2.257,4.5,5.305,4.5,9.146c0,1.969-0.324,3.706-0.974,5.22
				c-0.646,1.512-1.438,2.797-2.376,3.852c-0.936,1.056-2.172,2.28-3.708,3.672c-2.063,1.872-3.601,3.541-4.606,5.004
				c-1.008,1.465-1.514,3.276-1.514,5.438h-5.326C560.922,438.622,561.244,436.896,561.892,435.406z M560.922,454.953
				c-0.722-0.742-1.08-1.618-1.08-2.628c0-1.056,0.358-1.932,1.08-2.628c0.721-0.693,1.605-1.044,2.663-1.044
				c1.104,0,2.017,0.351,2.735,1.044c0.721,0.697,1.08,1.573,1.08,2.628c0,1.01-0.373,1.886-1.116,2.628
				c-0.745,0.745-1.646,1.116-2.699,1.116C562.527,456.071,561.64,455.698,560.922,454.953z"/>
		</g>
		<g display="none">
			<path display="inline" d="M482.392,435.406c0.648-1.485,1.451-2.759,2.412-3.814c0.959-1.057,2.207-2.255,3.744-3.602
				c2.063-1.821,3.588-3.42,4.57-4.788c0.983-1.366,1.478-3.034,1.478-5.002c0-2.641-1.033-4.765-3.097-6.372
				c-2.064-1.608-4.896-2.412-8.495-2.412c-5.952,0-10.537,1.942-13.753,5.832l-3.815-2.88c4.079-4.991,10.055-7.488,17.928-7.488
				c5.04,0,9.062,1.128,12.062,3.384c3,2.257,4.5,5.305,4.5,9.146c0,1.969-0.324,3.706-0.974,5.22
				c-0.646,1.512-1.438,2.797-2.376,3.852c-0.936,1.056-2.172,2.28-3.708,3.672c-2.063,1.872-3.6,3.541-4.606,5.004
				c-1.009,1.465-1.514,3.276-1.514,5.438h-5.327C481.422,438.622,481.744,436.896,482.392,435.406z M481.422,454.953
				c-0.722-0.742-1.08-1.618-1.08-2.628c0-1.056,0.358-1.932,1.08-2.628c0.72-0.693,1.606-1.044,2.662-1.044
				c1.104,0,2.018,0.351,2.736,1.044c0.721,0.697,1.08,1.573,1.08,2.628c0,1.01-0.372,1.886-1.116,2.628
				c-0.745,0.745-1.645,1.116-2.7,1.116C483.029,456.07,482.14,455.698,481.422,454.953z"/>
		</g>
		<g display="none">
			<path display="inline" d="M592.431,454.919c-0.744-0.769-1.115-1.703-1.115-2.81c0-1.104,0.371-2.025,1.115-2.771
				c0.744-0.744,1.645-1.116,2.7-1.116c1.055,0,1.968,0.372,2.734,1.116c0.769,0.745,1.151,1.668,1.151,2.771
				c0,1.105-0.385,2.041-1.151,2.81c-0.769,0.769-1.681,1.15-2.734,1.15C594.076,456.071,593.177,455.688,592.431,454.919z"/>
		</g>
		<g display="none">
			<path display="inline" d="M613.279,453.621c-2.951-1.631-5.268-3.924-6.947-6.876c-1.681-2.95-2.52-6.273-2.52-9.972
				c0-3.696,0.839-7.008,2.52-9.936c1.682-2.929,3.996-5.208,6.947-6.84c2.953-1.631,6.301-2.448,10.045-2.448
				c3.266,0,6.182,0.637,8.748,1.908c2.566,1.271,4.596,3.132,6.084,5.578l-3.814,2.594c-1.248-1.872-2.832-3.276-4.752-4.214
				c-1.922-0.936-4.01-1.402-6.266-1.402c-2.734,0-5.197,0.611-7.381,1.836c-2.184,1.224-3.887,2.964-5.111,5.22
				c-1.225,2.257-1.836,4.824-1.836,7.704c0,2.928,0.611,5.508,1.836,7.74c1.227,2.23,2.93,3.96,5.111,5.184
				c2.186,1.226,4.646,1.836,7.381,1.836c2.256,0,4.344-0.456,6.266-1.368c1.92-0.909,3.504-2.304,4.752-4.176l3.814,2.592
				c-1.488,2.448-3.526,4.311-6.12,5.58c-2.593,1.272-5.497,1.908-8.712,1.908C619.58,456.071,616.232,455.256,613.279,453.621z"/>
		</g>
		<g display="none">
			<path display="inline" d="M656.279,453.621c-2.951-1.631-5.268-3.924-6.947-6.876c-1.681-2.95-2.52-6.273-2.52-9.972
				c0-3.696,0.839-7.008,2.52-9.936c1.682-2.929,3.996-5.208,6.947-6.84c2.953-1.631,6.301-2.448,10.045-2.448
				c3.266,0,6.182,0.637,8.748,1.908c2.566,1.271,4.596,3.132,6.084,5.578l-3.814,2.594c-1.248-1.872-2.832-3.276-4.752-4.214
				c-1.922-0.936-4.01-1.402-6.266-1.402c-2.734,0-5.197,0.611-7.381,1.836c-2.184,1.224-3.887,2.964-5.111,5.22
				c-1.225,2.257-1.836,4.824-1.836,7.704c0,2.928,0.611,5.508,1.836,7.74c1.227,2.23,2.93,3.96,5.111,5.184
				c2.186,1.226,4.646,1.836,7.381,1.836c2.256,0,4.344-0.456,6.266-1.368c1.92-0.909,3.504-2.304,4.752-4.176l3.814,2.592
				c-1.488,2.448-3.526,4.311-6.12,5.58c-2.593,1.272-5.497,1.908-8.712,1.908C662.58,456.071,659.232,455.256,656.279,453.621z"/>
		</g>
		<g display="none">
			<path display="inline" d="M698.279,453.621c-2.951-1.631-5.268-3.924-6.947-6.876c-1.681-2.95-2.52-6.273-2.52-9.972
				c0-3.696,0.839-7.008,2.52-9.936c1.682-2.929,3.996-5.208,6.947-6.84c2.953-1.631,6.301-2.448,10.045-2.448
				c3.266,0,6.182,0.637,8.748,1.908c2.566,1.271,4.596,3.132,6.084,5.578l-3.814,2.594c-1.248-1.872-2.832-3.276-4.752-4.214
				c-1.922-0.936-4.01-1.402-6.266-1.402c-2.734,0-5.197,0.611-7.381,1.836c-2.184,1.224-3.887,2.964-5.111,5.22
				c-1.225,2.257-1.836,4.824-1.836,7.704c0,2.928,0.611,5.508,1.836,7.74c1.227,2.23,2.93,3.96,5.111,5.184
				c2.186,1.226,4.646,1.836,7.381,1.836c2.256,0,4.344-0.456,6.266-1.368c1.92-0.909,3.504-2.304,4.752-4.176l3.814,2.592
				c-1.488,2.448-3.526,4.311-6.12,5.58c-2.593,1.272-5.497,1.908-8.712,1.908C704.58,456.071,701.232,455.256,698.279,453.621z"/>
		</g>
	</g>
	<g display="inline">
		<path d="M250.5,396.779h4.752v67.393H250.5V396.779z"/>
	</g>
	<div  class="typewriter">
		
			<text  transform="matrix(1 0 0 1 264.0769 578.5002)" startOffset="0" font-size="72" font-family="&apos;Montserrat-Regular&apos;">
			www.???.com</text>
	</div>
</g>
<g id="Layer_2">
	<g>
		<path fill="#DDDDDD" stroke="#DDDDDD" stroke-miterlimit="10" d="M475.769,419.01c1.624-0.233,3.299-0.395,5.076-0.395
			c1.643,0,3.194,0.142,4.695,0.345c0.703-0.099,1.415-0.166,2.143-0.216c-9.864-11.001-21.809-19.28-35.887-24.767
			c-14.363-5.595-33.193-11.265-56.483-17.012c-19.661-4.837-35.315-9.302-46.957-13.384c-11.643-4.083-21.322-9.98-29.032-17.693
			c-7.717-7.713-11.568-17.922-11.568-30.623c0-16.937,7.027-30.773,21.094-41.515c14.066-10.731,35-16.104,62.839-16.104
			c14.509,0,29.327,2.197,44.458,6.578c15.118,4.387,29.334,10.965,42.643,19.734l11.341-26.767
			c-12.7-8.769-27.75-15.651-45.14-20.643c-17.391-4.989-35.162-7.485-53.302-7.485c-26.017,0-47.8,3.935-65.338,11.796
			c-17.537,7.867-30.545,18.374-39.013,31.529c-8.467,13.157-12.704,27.752-12.704,43.782c0,19.664,5.061,35.237,15.202,46.729
			c10.128,11.498,22.301,20.039,36.515,25.634c14.214,5.598,33.271,11.42,57.165,17.466c19.963,4.843,35.544,9.303,46.73,13.384
			c6.707,2.442,12.577,5.724,17.993,9.464c5.076-6.116,12.785-10.233,23.153-10.233C472.939,418.615,474.342,418.824,475.769,419.01
			z"/>
	</g>
	<text transform="matrix(1 0 0 1 316.4998 471.5002)" display="none" font-family="'Montserrat-Regular'" font-size="72">D</text>
	<g>
		<path fill="#DDDDDD" stroke="#DDDDDD" stroke-miterlimit="10" d="M404.438,389.315h129.296c33.573,0,63.215,6.734,88.925,20.189
			c25.702,13.461,45.664,32.211,59.891,56.258c14.208,24.041,21.314,51.492,21.314,82.341c0,30.846-7.106,58.295-21.314,82.342
			c-14.227,24.045-34.188,42.799-59.891,56.256c-25.71,13.463-55.352,20.191-88.925,20.191H404.438V389.315z M531.926,677.862
			c27.819,0,52.169-5.521,73.041-16.566c20.872-11.039,37.043-26.314,48.538-45.818c11.495-19.506,17.243-41.969,17.243-67.373
			c0-25.41-5.748-47.865-17.243-67.377c-11.495-19.506-27.666-34.771-48.538-45.816c-20.872-11.04-45.222-16.561-73.041-16.561
			h-93.914v259.512H531.926z"/>
	</g>
	<path fill="#DDDDDD" stroke="#DDDDDD" stroke-miterlimit="10" d="M398.926,387.645"/>
</g>
</svg>
