<?xml version="1.0" encoding="utf-8"?>
<!-- Generator: Adobe Illustrator 16.0.0, SVG Export Plug-In . SVG Version: 6.00 Build 0)  -->
<!DOCTYPE svg PUBLIC "-//W3C//DTD SVG 1.1//EN" "http://www.w3.org/Graphics/SVG/1.1/DTD/svg11.dtd">
<svg version="1.1" xmlns="http://www.w3.org/2000/svg" xmlns:xlink="http://www.w3.org/1999/xlink" x="0px" y="0px" width="1000px"
	 height="1000px" viewBox="0 0 1000 1000" style="enable-background:new 0 0 1000 1000;" xml:space="preserve">
<style type="text/css">
<![CDATA[
	.st0{display:inline;fill:none;stroke:#000000;stroke-miterlimit:10;}
	.st1{fill:none;stroke:#FFFFFF;stroke-width:6;stroke-miterlimit:10;}
	.st2{display:none;fill:none;stroke:#000000;stroke-width:4;stroke-miterlimit:10;}
	.st3{fill:none;stroke:#FFFFFF;stroke-width:9;stroke-miterlimit:10;}
	.st4{display:none;}
]]>
</style>
<g id="Layer_1" class="st4">
	
		<image style="display:inline;overflow:visible;" width="640" height="960" xlink:href="191d9288881ae1f0de71547d503a0112.jpg"  transform="matrix(0.72 0 0 0.72 270 154)">
	</image>
</g>
<g id="Layer_2" class="st4">
	<path class="st0" d="M576,408c-82.5-124-154,0-154,0"/>
	<path class="st0" d="M576,499.6c0,0,106-35.6,0-98.6"/>
</g>
<g id="Layer_4">
	<ellipse class="st2" cx="535" cy="494" rx="35" ry="28.637"/>
	<path class="st3" d="M547.249,411.75c9.946-32.619,40.278-56.35,76.151-56.35c35.295,0,65.225,22.972,75.654,54.78"/>
	<path class="st3" d="M586.733,448.131"/>
	<path class="st3" d="M547.727,409.251c-1.553-0.166-3.13-0.251-4.727-0.251c-24.301,0-44,19.699-44,44s19.699,44,44,44
		c4.863,0,9.542-0.789,13.916-2.245"/>
	<path class="st3" d="M697.514,409.35c1.825-0.23,3.686-0.35,5.573-0.35c24.301,0,44,19.699,44,44s-19.699,44-44,44
		c-4.863,0-9.542-0.789-13.915-2.245"/>
	<path class="st3" d="M693,494"/>
	<path class="st3" d="M692.776,490.747"/>
	<path class="st3" d="M657.999,465.364"/>
	<path class="st3" d="M693,494c0,15.815-15.669,28.637-35.001,28.637C638.669,522.637,623,509.815,623,494"/>
	<path class="st3" d="M622,494c0,15.815-15.669,28.637-35.001,28.637C567.669,522.637,552,509.815,552,494"/>
	<path class="st1" d="M234.729,154.314c5.268-17.275,21.332-29.843,40.33-29.843c18.692,0,34.543,12.166,40.067,29.012"/>
	<path class="st1" d="M255.641,173.583"/>
	<path class="st1" d="M234.982,152.991c-0.822-0.088-1.658-0.133-2.503-0.133c-12.87,0-23.303,10.433-23.303,23.302
		c0,12.87,10.433,23.303,23.303,23.303c2.576,0,5.054-0.417,7.37-1.189"/>
	<path class="st1" d="M314.311,153.043c0.967-0.122,1.952-0.185,2.952-0.185c12.87,0,23.303,10.433,23.303,23.302
		c0,12.87-10.433,23.303-23.303,23.303c-2.576,0-5.054-0.417-7.37-1.189"/>
	<path class="st1" d="M311.92,197.875"/>
	<path class="st1" d="M311.802,196.152"/>
	<path class="st1" d="M293.383,182.709"/>
	<path class="st1" d="M311.92,197.875c0,8.376-8.298,15.166-18.537,15.166c-10.237,0-18.536-6.79-18.536-15.166"/>
	<path class="st1" d="M274.318,197.875c0,8.376-8.298,15.166-18.537,15.166c-10.237,0-18.536-6.79-18.536-15.166"/>
</g>
<g id="Layer_3" class="st4">
</g>
</svg>
