<?xml version="1.0" encoding="utf-8"?>
<!-- Generator: Adobe Illustrator 16.0.0, SVG Export Plug-In . SVG Version: 6.00 Build 0)  -->
<!DOCTYPE svg PUBLIC "-//W3C//DTD SVG 1.1//EN" "http://www.w3.org/Graphics/SVG/1.1/DTD/svg11.dtd">
<svg version="1.1" xmlns="http://www.w3.org/2000/svg" xmlns:xlink="http://www.w3.org/1999/xlink" x="0px" y="0px" width="315px"
	 height="207px" viewBox="10.5 60.5 315 207" style="enable-background:new 10.5 60.5 315 207;" xml:space="preserve">
<script xlink:href="https://cdnjs.cloudflare.com/ajax/libs/snap.svg/0.4.1/snap.svg.js" />

<style type="text/css">
<![CDATA[
	.st0{fill:#FFFFFF;stroke:#000000;stroke-miterlimit:10;}
	.st1{fill:none;stroke:#000000;stroke-width:5;stroke-miterlimit:10;}
	.st2{fill:#FFFFFF;stroke:#000000;stroke-width:2;stroke-miterlimit:10;}
	.st3{display:none;fill:#FFFFFF;stroke:#000000;stroke-miterlimit:10;}
	.st4{fill:#FFFFFF;stroke:#FCFCFC;stroke-width:2;stroke-miterlimit:10;}
	.st5{fill:#FFFFFF;stroke:#000000;stroke-width:6;stroke-miterlimit:10;}
	.st6{display:inline;fill:none;stroke:#000000;stroke-width:4;stroke-miterlimit:10;}
	.st7{fill:none;stroke:#000000;stroke-width:4;stroke-miterlimit:10;}
	.st8{display:none;fill:none;stroke:#000000;stroke-width:4;stroke-miterlimit:10;}
	.st9{display:none;fill:none;stroke:#000000;stroke-miterlimit:10;}
	.st10{fill:#FFFFFF;stroke:#000000;stroke-width:5;stroke-miterlimit:10;}
	.st11{display:inline;fill:#FFFFFF;}
	.st12{display:inline;fill:none;stroke:#000000;stroke-width:3;stroke-miterlimit:10;}
	.st13{stroke:#000000;stroke-width:4;stroke-miterlimit:10;}
	.st14{font-size:49.8676;}
	.st15{fill:#FFFFFF;}
	.st16{display:inline;}
	.st17{display:inline;fill:#FFFFFF;stroke:#DDDDDD;stroke-miterlimit:10;}
	.st18{fill:#FFFFFF;stroke:#000000;stroke-width:4;stroke-miterlimit:10;}
	.st19{font-family:'Montserrat-Regular';}
	.st20{fill:#FFFFFF;stroke:#DDDDDD;stroke-miterlimit:10;}
	.st21{fill:none;stroke:#000000;stroke-width:2;stroke-miterlimit:10;}
	.st22{fill:#FFFFFF;stroke:#FFFFFF;stroke-miterlimit:10;}
	.st23{fill:#FF0000;stroke:#000000;stroke-miterlimit:10;}
	.st24{display:none;}
]]>
</style>
<g id="Layer_1">
	<g id="Layer_2_2_">
	</g>
	<g id="Layer_1_2_">
		<g id="Layer_1_1_" class="st24">
			<g class="st16">
				<g id="Layer_3">
					<path id="vecmap" class="st23" d="M199.542,18c115.73,0,209.545,93.813,209.545,209.542c0,20.131-2.842,39.604-8.144,58.03
						c-2.871,9.981-6.465,19.661-10.72,28.972c-33.043,72.302-105.996,122.537-190.684,122.54
						c-89.403,0-165.73-55.995-195.828-134.823c-2.083-5.456-3.94-11.021-5.572-16.684c-5.299-18.431-8.141-37.903-8.141-58.035
						C-10,111.815,83.815,18,199.542,18z"/>
				</g>
				<g class="st24">
					<line class="st12" x1="386.891" y1="312.586" x2="7.982" y2="312.586"/>
				</g>
				<g class="st24">
					<line class="st12" x1="409.062" y1="230.185" x2="-9.978" y2="230.185"/>
				</g>
				<g>
					<path d="M169.027,201.263l-9.923,26.23h-3.341L147.488,206l-8.278,21.493h-3.341l-9.874-26.23h3.393l8.229,22.291l8.428-22.291
						h3.042l8.377,22.291l8.328-22.291H169.027z"/>
				</g>
				<g>
					<path d="M124.198,201.312l-9.924,26.23h-3.341l-8.278-21.493l-8.278,21.493h-3.339l-9.875-26.23h3.393l8.228,22.291
						l8.428-22.291h3.042l8.38,22.291l8.326-22.291H124.198z"/>
				</g>
				<g>
					<path d="M79.178,201.312l-9.925,26.23h-3.341l-8.277-21.493l-8.278,21.493h-3.341l-9.874-26.23h3.392l8.229,22.291
						l8.427-22.291h3.042l8.38,22.291l8.326-22.291H79.178z"/>
				</g>
				<g>
					<path d="M169.367,226.994c-0.516-0.534-0.771-1.182-0.771-1.947c0-0.767,0.257-1.402,0.771-1.919
						c0.515-0.518,1.138-0.773,1.87-0.773c0.731,0,1.362,0.257,1.892,0.773c0.534,0.515,0.8,1.153,0.8,1.919s-0.268,1.414-0.8,1.947
						c-0.53,0.53-1.164,0.795-1.892,0.795C170.504,227.791,169.883,227.526,169.367,226.994z"/>
				</g>
				<g>
					<path d="M213.666,213.478c0.447-1.025,1.005-1.911,1.671-2.641c0.664-0.733,1.528-1.563,2.594-2.496
						c1.43-1.26,2.483-2.369,3.165-3.316c0.681-0.942,1.022-2.1,1.022-3.463c0-1.831-0.715-3.302-2.146-4.413
						c-1.432-1.112-3.393-1.671-5.885-1.671c-4.123,0-7.299,1.344-9.523,4.039l-2.645-1.994c2.826-3.458,6.967-5.187,12.416-5.187
						c3.492,0,6.278,0.781,8.355,2.343c2.078,1.563,3.117,3.674,3.117,6.335c0,1.364-0.227,2.566-0.678,3.616
						c-0.445,1.046-0.994,1.937-1.646,2.667c-0.648,0.729-1.505,1.579-2.568,2.543c-1.429,1.296-2.494,2.453-3.188,3.466
						c-0.698,1.014-1.05,2.271-1.05,3.767h-3.688C212.995,215.705,213.217,214.51,213.666,213.478z M212.995,227.016
						c-0.501-0.513-0.748-1.119-0.748-1.82c0-0.729,0.247-1.338,0.748-1.818c0.499-0.479,1.11-0.725,1.845-0.725
						c0.767,0,1.396,0.244,1.896,0.725c0.498,0.481,0.748,1.089,0.748,1.818c0,0.701-0.259,1.309-0.773,1.82
						c-0.517,0.516-1.14,0.773-1.868,0.773C214.105,227.791,213.491,227.531,212.995,227.016z"/>
				</g>
				<g>
					<path d="M242.409,213.478c0.447-1.025,1.005-1.911,1.671-2.641c0.664-0.733,1.528-1.563,2.593-2.496
						c1.431-1.26,2.484-2.369,3.164-3.316c0.683-0.942,1.024-2.1,1.024-3.463c0-1.831-0.715-3.302-2.146-4.413
						c-1.428-1.112-3.391-1.671-5.882-1.671c-4.123,0-7.298,1.344-9.523,4.039l-2.645-1.994c2.825-3.458,6.965-5.187,12.416-5.187
						c3.492,0,6.277,0.781,8.355,2.343c2.078,1.563,3.117,3.674,3.117,6.335c0,1.364-0.227,2.566-0.678,3.616
						c-0.445,1.046-0.995,1.937-1.646,2.667c-0.647,0.729-1.505,1.579-2.568,2.543c-1.428,1.296-2.493,2.453-3.188,3.466
						c-0.698,1.014-1.053,2.271-1.053,3.767h-3.688C241.738,215.705,241.96,214.51,242.409,213.478z M241.738,227.016
						c-0.501-0.513-0.748-1.119-0.748-1.82c0-0.729,0.247-1.338,0.748-1.818c0.499-0.479,1.11-0.725,1.844-0.725
						c0.768,0,1.397,0.244,1.896,0.725c0.498,0.481,0.748,1.089,0.748,1.818c0,0.701-0.261,1.309-0.773,1.82
						c-0.517,0.516-1.14,0.773-1.869,0.773C242.848,227.791,242.234,227.531,241.738,227.016z"/>
				</g>
				<g class="st24">
					<path id="vecmap_1_" class="st16" d="M187.347,213.478c0.446-1.025,1.005-1.911,1.67-2.641
						c0.665-0.733,1.527-1.563,2.593-2.496c1.429-1.26,2.485-2.369,3.164-3.316c0.681-0.942,1.023-2.1,1.023-3.463
						c0-1.831-0.715-3.302-2.145-4.413c-1.43-1.112-3.392-1.671-5.884-1.671c-4.122,0-7.298,1.344-9.525,4.039l-2.643-1.994
						c2.824-3.458,6.964-5.187,12.417-5.187c3.489,0,6.275,0.781,8.354,2.343c2.078,1.563,3.116,3.674,3.116,6.335
						c0,1.364-0.224,2.566-0.675,3.616c-0.447,1.046-0.996,1.937-1.646,2.667c-0.646,0.729-1.503,1.579-2.566,2.543
						c-1.431,1.296-2.493,2.453-3.189,3.466c-0.699,1.014-1.049,2.271-1.049,3.767h-3.688
						C186.676,215.705,186.898,214.51,187.347,213.478z M186.676,227.016c-0.501-0.513-0.746-1.119-0.746-1.82
						c0-0.729,0.245-1.338,0.746-1.818c0.499-0.479,1.111-0.725,1.845-0.725c0.765,0,1.396,0.244,1.895,0.725
						c0.5,0.481,0.748,1.089,0.748,1.818c0,0.701-0.258,1.309-0.771,1.82c-0.517,0.516-1.141,0.773-1.869,0.773
						C187.788,227.79,187.173,227.531,186.676,227.016z"/>
				</g>
				<g class="st24">
					<path class="st16" d="M263.56,226.994c-0.518-0.534-0.772-1.182-0.772-1.947c0-0.767,0.257-1.402,0.772-1.919
						c0.515-0.518,1.139-0.773,1.871-0.773c0.729,0,1.36,0.257,1.892,0.773c0.534,0.515,0.798,1.153,0.798,1.919
						s-0.267,1.414-0.798,1.947c-0.532,0.53-1.164,0.795-1.892,0.795C264.699,227.791,264.077,227.526,263.56,226.994z"/>
				</g>
				<g class="st24">
					<path class="st16" d="M278,226.094c-2.044-1.129-3.646-2.718-4.812-4.762c-1.164-2.042-1.745-4.346-1.745-6.907
						s0.581-4.854,1.745-6.881c1.166-2.029,2.768-3.607,4.812-4.737c2.046-1.13,4.363-1.695,6.957-1.695
						c2.266,0,4.283,0.441,6.061,1.321c1.776,0.88,3.184,2.169,4.215,3.862l-2.644,1.798c-0.862-1.297-1.961-2.271-3.291-2.92
						c-1.332-0.648-2.776-0.97-4.341-0.97c-1.893,0-3.6,0.422-5.11,1.271c-1.514,0.848-2.691,2.053-3.539,3.616
						c-0.851,1.563-1.272,3.341-1.272,5.335c0,2.028,0.424,3.813,1.272,5.361c0.85,1.543,2.027,2.741,3.539,3.59
						c1.514,0.85,3.219,1.271,5.11,1.271c1.563,0,3.009-0.314,4.341-0.948c1.33-0.628,2.429-1.595,3.291-2.892l2.644,1.795
						c-1.031,1.696-2.441,2.987-4.239,3.865c-1.796,0.881-3.808,1.322-6.034,1.322C282.363,227.791,280.046,227.227,278,226.094z"/>
				</g>
				<g class="st24">
					<path class="st16" d="M307.782,226.094c-2.045-1.129-3.646-2.718-4.812-4.762c-1.164-2.042-1.746-4.346-1.746-6.907
						s0.582-4.854,1.746-6.881c1.165-2.029,2.767-3.607,4.812-4.737s4.363-1.695,6.957-1.695c2.266,0,4.282,0.441,6.062,1.321
						c1.775,0.88,3.182,2.169,4.213,3.862l-2.643,1.798c-0.862-1.297-1.961-2.271-3.291-2.92c-1.332-0.648-2.776-0.97-4.341-0.97
						c-1.893,0-3.6,0.422-5.11,1.271c-1.514,0.848-2.691,2.053-3.54,3.616c-0.85,1.563-1.271,3.341-1.271,5.335
						c0,2.028,0.424,3.813,1.271,5.361c0.851,1.543,2.028,2.741,3.54,3.59c1.514,0.85,3.219,1.271,5.11,1.271
						c1.563,0,3.009-0.314,4.341-0.948c1.33-0.628,2.429-1.595,3.291-2.892l2.643,1.795c-1.031,1.696-2.441,2.987-4.238,3.865
						c-1.796,0.881-3.808,1.322-6.034,1.322C312.145,227.791,309.827,227.227,307.782,226.094z"/>
				</g>
				<g class="st24">
					<path class="st16" d="M336.871,226.094c-2.044-1.129-3.646-2.718-4.812-4.762c-1.164-2.042-1.745-4.346-1.745-6.907
						s0.581-4.854,1.745-6.881c1.166-2.029,2.768-3.607,4.812-4.737c2.047-1.13,4.364-1.695,6.957-1.695
						c2.266,0,4.283,0.441,6.062,1.321s3.184,2.169,4.213,3.862l-2.64,1.798c-0.864-1.297-1.963-2.271-3.291-2.92
						c-1.333-0.648-2.779-0.97-4.344-0.97c-1.892,0-3.6,0.422-5.109,1.271c-1.515,0.848-2.692,2.053-3.541,3.616
						c-0.85,1.563-1.271,3.341-1.271,5.335c0,2.028,0.424,3.813,1.271,5.361c0.852,1.543,2.029,2.741,3.541,3.59
						c1.514,0.85,3.218,1.271,5.109,1.271c1.563,0,3.011-0.314,4.344-0.948c1.328-0.628,2.427-1.595,3.291-2.892l2.64,1.795
						c-1.029,1.696-2.44,2.987-4.238,3.865c-1.796,0.881-3.807,1.322-6.034,1.322C341.235,227.791,338.918,227.227,336.871,226.094z
						"/>
				</g>
			</g>
			<g class="st16">
				<path d="M26.737,186.725h3.291v46.678h-3.291V186.725z"/>
			</g>
			<div  class="typewriter">
				
					<text  transform="matrix(1 0 0 1 264.0769 578.5002)" font-family="&apos;Montserrat-Regular&apos;" font-size="72" startOffset="0">
					www.???.com</text>
			</div>
		</g>
		<g id="Layer_2" class="st24">
			<g class="st16">
				<path class="st20" d="M182.76,202.123c1.125-0.162,2.282-0.273,3.515-0.273c1.138,0,2.212,0.098,3.253,0.239
					c0.485-0.069,0.978-0.115,1.483-0.149c-6.833-7.619-15.105-13.354-24.855-17.153c-9.948-3.875-22.99-7.804-39.121-11.782
					c-13.617-3.352-24.459-6.442-32.521-9.271c-8.063-2.827-14.77-6.912-20.107-12.254c-5.345-5.342-8.011-12.413-8.011-21.209
					c0-11.729,4.866-21.313,14.608-28.753c9.741-7.433,24.241-11.154,43.522-11.154c10.049,0,20.312,1.521,30.792,4.558
					c10.471,3.039,20.314,7.595,29.536,13.668l7.854-18.54c-8.796-6.074-19.22-10.839-31.266-14.297
					c-12.045-3.456-24.354-5.187-36.917-5.187c-18.021,0-33.106,2.729-45.253,8.17c-12.146,5.449-21.156,12.728-27.022,21.837
					c-5.862,9.113-8.798,19.223-8.798,30.324c0,13.62,3.506,24.405,10.528,32.365c7.016,7.963,15.447,13.879,25.292,17.755
					c9.844,3.877,23.043,7.91,39.592,12.097c13.827,3.354,24.618,6.443,32.365,9.271c4.645,1.688,8.711,3.964,12.462,6.555
					c3.516-4.234,8.854-7.086,16.036-7.086C180.8,201.849,181.773,201.994,182.76,202.123z"/>
			</g>
			<text transform="matrix(1 0 0 1 72.45 238.4768)" class="st11 st19 st14">D</text>
			<g class="st16">
				<path class="st20" d="M133.356,181.555h89.551c23.253,0,43.782,4.665,61.589,13.984c17.804,9.321,31.629,22.309,41.482,38.964
					c9.84,16.649,14.762,35.664,14.762,57.028c0,21.363-4.922,40.375-14.762,57.03c-9.854,16.653-23.679,29.645-41.482,38.963
					c-17.807,9.324-38.336,13.984-61.589,13.984h-89.551V181.555L133.356,181.555z M221.655,381.405
					c19.267,0,36.133-3.821,50.589-11.472c14.456-7.646,25.656-18.227,33.617-31.734c7.962-13.511,11.942-29.066,11.942-46.661
					c0-17.602-3.98-33.152-11.942-46.666c-7.961-13.512-19.161-24.083-33.617-31.733c-14.456-7.646-31.322-11.47-50.589-11.47
					H156.61v179.737L221.655,381.405L221.655,381.405z"/>
			</g>
			<path class="st17" d="M129.539,180.399"/>
		</g>
		<path class="st5" d="M231.344,251.953"/>
		<path class="st0" d="M95.536,173.27c0,0-20.778-22.853-40.634-6.809"/>
		<path class="st18" d="M96.402,200.05c0,0-20.029-18.407-23.722-11.974c-3.694,6.433-35.557,27.214-47.1-3.264
			c0,0-11.082-38.785,25.396-54.021l0.923,8.466c0,0-9.722,25.594,8.299,22.877c0,0,17.097-13.798,43.877-1.793"/>
	</g>
	<g id="Layer_2_1_">
		<path class="st15" d="M226.9,138.41c0,0,13.858,27.537,15.646,27.163s25.076-6.618,40.73,16.219c0,0,22.736-51.045,14.979-58.543
			c0,0-10.726-23.627-22.741-26.938l-8.123,7.816c0,0,15.85,11.945,8.479,10.534v10.82l-2.543,4.559l8.287,6.46l-3.115,2.551
			c0,0-27.75-28.73-49-0.641H226.9z"/>
		<path class="st15" d="M242.75,181.792v16.747c0,0,14,5.733,14.625,9.473c0,0,14.281,19.544,15.953,17.392
			c0,0,12.951,5.314,17.977,2.217c0,0,9.535-3.37,8.115-16.87l8.681,0.744c0,0,1.415-17.079-6.218-21.286l-11.096-14.005
			c0,0,4.334,13.359-0.227,11.453l-7.283,15.844c0,0-15.051-26.54-35.714-23.305S242.75,181.792,242.75,181.792z"/>
		<path class="st15" d="M242.75,181.792v16.747c0,0,14,5.733,14.625,9.473c0,0,14.281,19.544,15.953,17.392
			c0,0,12.951,5.314,17.977,2.217c0,0,9.535-3.37,8.115-16.87l8.681,0.744c0,0,1.415-17.079-6.218-21.286l-11.096-14.005
			c0,0,4.334,13.359-0.227,11.453l-7.283,15.844c0,0-15.051-26.54-35.714-23.305S242.75,181.792,242.75,181.792z"/>
		<path class="st22" d="M89.204,204.822c0,0,147.996,11.108,152.479,22.227v15.482c0,0-16.021,24.112-44.103,9.708
			c0,0-42.593,15.467-53.837-3.469c0,0-20.593,20.457-52.752-6.239L89.204,204.822z"/>
		<g id="Layer_4">
			<path class="st4" d="M55.883,102.368c0,0-0.792-32.697,47.041-33.79c0,0,6.153-5.445,22.123,3.614
				c0,0-29.278,13.001-30.895,13.227c-1.617,0.224-3.35,13.341-5.568,13.7C86.365,99.477,55.883,102.368,55.883,102.368z"/>
		</g>
		<path class="st4" d="M102.119,157.656c0,0-19.228-4.833-20.584-3.834c-1.354,1-24.932-17.385-25.651-51.452l34.26-3.249
			c0,0,12.936,33.744,31.143,31.888L102.119,157.656z"/>
		<path class="st5" d="M99.158,201.564c-1.008-4.799-1.537-9.772-1.537-14.873c0-39.779,32.249-72.029,72.031-72.029
			c39.781,0,72.031,32.25,72.031,72.029c0,13.29-3.602,25.739-9.876,36.428"/>
		<path class="st5" d="M97.621,200.982"/>
		<path class="st5" d="M107.925,223.837"/>
		<path class="st5" d="M200.176,251.953c-9.268,4.343-19.611,6.769-30.521,6.769c-10.021,0-19.563-2.046-28.233-5.743"/>
		<path class="st3" d="M141.709,189.101c0,0-18.008-54.514-61.642-23.347c0,0-27.704,46.402-53.331,13.16
			c0,0-12.467-47.099,37.4-54.023c0,0,28.396-18.007-17.315-29.089c0,0,79.65-0.472,30.475,47.555"/>
		<path class="st9" d="M50.286,158.136c0,0,31.167-76.659,109.431-20.321"/>
		<ellipse id="eli" class="st10" cx="158.798" cy="166.461" rx="10.854" ry="16.969"/>
		<path class="st10" d="M163.18,143.259c0,0,19.393,1.385,16.622,23.202"/>
		<path class="st8" d="M124.51,111.731c0,0-36.824,36.708-63.145,0"/>
		<path class="st8" d="M68.986,67.405c0,0,36.015,26.608-7.619,36.508"/>
		<g class="st24">
			<g class="st16">
				<path class="st7" d="M257.375,85.656c-29.78-29.534-54.716,0-54.716,0"/>
				<path class="st7" d="M241.683,111.731c0,0,28.156,28.397,51.015,0"/>
				<path class="st7" d="M289.234,66.712c0,0-28.396,28.888-31.859,18.253"/>
				<path class="st7" d="M296.16,71.56c0,0,1.332,30.935-3.462,40.171"/>
				<path class="st7" d="M244.447,118.042c0,0-2.771,16.41-9.236,18.671"/>
				<path class="st7" d="M302.805,182.531l-1.52,1.242l14.572-2.178c0,0-12.43,15.986-15.771,16.274"/>
				<path class="st7" d="M218.45,92.916c0,0-24.738,5.078-27.935,11.354"/>
			</g>
			<g class="st16">
				<path class="st7" d="M257.375,85.656c-29.78-29.534-54.716,0-54.716,0"/>
				<path class="st7" d="M241.683,111.731c0,0,28.156,28.397,51.015,0"/>
				<path class="st7" d="M289.234,66.712c0,0-28.396,28.888-31.859,18.253"/>
				<path class="st7" d="M296.16,71.56c0,0,1.332,30.935-3.462,40.171"/>
				<path class="st7" d="M244.447,118.042c0,0-2.771,16.41-9.236,18.671"/>
				<path class="st7" d="M302.805,182.531l-1.52,1.242l14.572-2.178c0,0-12.43,15.986-15.771,16.274"/>
				<path class="st7" d="M218.45,92.916c0,0-24.738,5.078-27.935,11.354"/>
			</g>
		</g>
		<path class="st10" d="M206.122,212.518c0,0,26.318-34.63,55.408,0c0,0,15.576,27.242,34.8,12.005c0,0,9.065-14.313-7.096-25.396
			c0,0,57.718,26.781,17.547,57.717c0,0-36.939,15.699-62.334-16.623c0,0-8.313-12.005,0-15.238"/>
		<path class="st1" d="M244.447,242.531c0,0-28.629,33.245-54.024,2.771"/>
		<path class="st1" d="M244.447,242.531c0,0-28.629,33.245-54.024,2.771"/>
		<path class="st10" d="M92.812,199.194c-5.426,2.21-11.156,6.371-16.997,13.324c0,0-15.577,27.242-34.8,12.005
			c0,0-9.065-14.313,7.095-25.396c0,0-57.717,26.781-17.545,57.717c0,0,36.938,15.699,62.334-16.623c0,0,8.311-12.005,0-15.238"/>
		<path class="st10" d="M131.223,212.518c0,0-16.812-22.12-38.412-13.324"/>
		<path class="st1" d="M139.765,252.239c2.396-1.811,4.792-4.098,7.156-6.938"/>
		<path class="st1" d="M139.766,252.239c-23.325,17.631-46.866-9.708-46.866-9.708c0.475,0.511,0.949,1.005,1.422,1.484
			c24.858,25.156,47.741,6.332,47.741,6.332c18.896,19.181,58.112,2.77,58.112,2.77c21.342,13.616,43.588-13.977,43.588-13.977"/>
		<path class="st15" d="M90.138,180.195c0,0,12.601,9.847,31.148,0l16.881,39.541c0,0-23.544,2.629-21.272-3.713
			c2.272-6.343-36.406-0.818-31.734-4.728S90.138,180.195,90.138,180.195z"/>
		<g>
			<path class="st10" d="M91.32,195.201c-0.771,10.105-5.415,17.992-10.373,17.614c-4.959-0.378-8.354-8.878-7.582-18.982
				c0.771-10.109,5.416-17.995,10.375-17.617c0.45,0.034,0.888,0.136,1.311,0.3C89.28,178.151,92.022,186.012,91.32,195.201z"/>
			
				<ellipse transform="matrix(-0.0762 0.9971 -0.9971 -0.0762 281.333 127.3433)" class="st18" cx="81.674" cy="194.002" rx="6.359" ry="3.463"/>
			<path class="st7" d="M83.71,213.028c0,0,33.678-4.377,33.18,6.699"/>
			<path class="st1" d="M86.581,177.197c0,0,19.97,14.786,26.385,2.471"/>
		</g>
		<path class="st7" d="M226.9,183.43"/>
		
			<ellipse id="eli2" transform="matrix(-0.0855 0.9963 -0.9963 -0.0855 293.2798 62.8417)" class="st10" cx="117.801" cy="166.013" rx="15.827" ry="6.579"/>
		<path class="st7" d="M281.615,204.822c-7.387-25.908-29.244-26.779-42.993-24.48"/>
		<path class="st7" d="M276.644,257.891"/>
		<path class="st7" d="M280.924,203.01c0,0,22.165-16.684,0-36c0,0,28.1,21.975,29.269,46.396"/>
		<path class="st7" d="M257.375,253.953c0,0-6.693,5.573-19.623-3.387"/>
		<path class="st7" d="M283.277,184.816c-11.209-24.501-32.946-22.065-46.192-17.724"/>
		<g>
			<path class="st7" d="M226.207,138.41c0,0,24.937-29.091,54.023,0"/>
			<path class="st7" d="M275.515,113.563c-0.079,8-3.598,14.69-3.598,14.689"/>
			<path class="st7" d="M275.515,113.563"/>
			<path class="st7" d="M270.447,98.909c0.31,0.36,0.602,0.727,0.88,1.096"/>
			<path class="st7" d="M289.927,167.076c22.771-45.358-0.537-63.993-16.6-71.098"/>
		</g>
		<path class="st8" d="M287.849,153.49c0,0-5.641,8.892-24.289,9.191"/>
		<path class="st8" d="M246.87,150c0,0,11.633-9.65,21.586,3.556"/>
		<path class="st7" d="M270.127,168.889"/>
		<g class="st24">
			<path class="st6" d="M121.421,120.042c0,0-24.934-29.089-54.021,0"/>
			<path class="st6" d="M57.701,148.707C25.149,83.871,86.755,73.638,86.755,73.638C62.478,84.72,75.71,109.884,75.71,109.884"/>
		</g>
		<path class="st7" d="M81.24,155.459c-12.979-9.479-25.303-25.296-26.106-51.333"/>
		<path class="st7" d="M81.24,155.459"/>
		<path class="st7" d="M112.08,168.889c0,0-0.992-0.155-2.712-0.56"/>
		<path class="st7" d="M125.1,77.029c-6.589-0.38-14.506,0.045-16.751,3.896c0,0-30.576,3.752-10.729,33.736"/>
		<path class="st7" d="M126.393,70.858c0.434,0.227,0.862,0.462,1.285,0.71"/>
		<path class="st7" d="M54.902,104.127c0,0-4.682-32.899,44.872-37.057c0,0,15.257-2.087,26.619,3.786"/>
		<path class="st7" d="M97.531,113.968c0,0,10.74,21.25,30.922,14.881"/>
		<path class="st7" d="M266.378,105.886"/>
		<path class="st7" d="M267.392,103.929c0,0,6.19,5.196,8.479,9.725"/>
	</g>
	<g id="Layer_3_1_">
		<g>
			
				<ellipse transform="matrix(-0.1893 0.9819 -0.9819 -0.1893 240.3249 -61.233)" class="st7" cx="145.441" cy="68.596" rx="2.291" ry="12.007"/>
			<line class="st7" x1="133.494" y1="66.37" x2="129.107" y2="89.255"/>
			<line class="st7" x1="157.071" y1="71.078" x2="152.683" y2="93.962"/>
			<line class="st7" x1="127.552" y1="89.646" x2="153.711" y2="94.869"/>
			<path class="st13" d="M134.796,67.928c0,0,5.23,4.432,20.111,4.713l-3.712,19.706l-20.813-3.089L134.796,67.928z"/>
			<path class="st7" d="M131.755,71.068c0,0-4.612-1.494-5.53,2.524"/>
			<polygon class="st21" points="128.571,73.512 121.523,74.697 128.46,79.434 			"/>
			<path class="st7" d="M125.508,77.353c0,0,0.133,4.849,4.228,4.373"/>
		</g>
		<path class="st13" d="M163.16,97.008"/>
		<g>
			<polyline class="st21" points="251.953,99.193 245.371,106.178 239.829,119.349 255.76,115.182 273.544,96.311 			"/>
			<line class="st21" x1="263.154" y1="87.307" x2="256.897" y2="93.946"/>
			<polyline class="st21" points="245.533,107.109 250.511,105.886 249.018,108.678 253.995,107.281 253.995,110.531 
				256.488,110.531 256.488,112.847 			"/>
			<line class="st21" x1="258.774" y1="93.513" x2="258.321" y2="93.975"/>
			<polyline class="st4" points="251.63,100.798 246.639,105.886 252.18,104.443 251.011,107.056 254.817,105.886 254.817,109.365 
				257.548,109.365 257.548,111.904 272.421,95.789 263.681,88.51 258.774,93.513 			"/>
			<line class="st21" x1="252.2" y1="100.217" x2="251.63" y2="100.798"/>
			<polygon class="st21" points="274.04,95.053 263.908,86.555 270.802,79.773 280.932,88.271 			"/>
			<path class="st21" d="M249.844,96.414c0,0,0.097,0.595,0.382,1.461c0.979,2.979,4.198,9.159,13.457,5.378
				c0,0-9.231-8.543-4.804-11.615"/>
		</g>
		<path class="st21" d="M249.844,97.283c0,0-3.479-12.663,10.338-7.563"/>
		<line class="st21" x1="241.683" y1="116.349" x2="243.409" y2="118.413"/>
		<path class="st21" d="M263.908,87.413"/>
	</g>
	
		<ellipse transform="matrix(0.6153 -0.7883 0.7883 0.6153 -40.4514 213.155)" class="st2" cx="198.175" cy="148.024" rx="10.549" ry="16.439"/>
	
		<ellipse transform="matrix(0.8719 0.4897 -0.4897 0.8719 91.0635 -83.3549)" class="st2" cx="204.838" cy="132.361" rx="4.662" ry="2.568"/>
	
		<ellipse transform="matrix(0.6791 0.734 -0.734 0.6791 174.8108 -113.1631)" class="st2" cx="216.838" cy="143.361" rx="6.896" ry="3.799"/>
</g>
<g id="Layer_3_2_">
</g>
<script type="text/javascript"><![CDATA[

	var s = Snap("#eli");
	var s2 = Snap("#eli2");
	var animating = false;
	var matrix = s2.transform().localMatrix;
	console.log(s.attr("fill"))
	console.log(s2)
	console.log(matrix)
	console.log(matrix.toTransformString())
	var tMatrix = matrix.toTransformString()
	/*s.attr({
    fill: "#fc0",
    stroke: "#000",
    strokeWidth: 8, // CamelCase...
    "fill-opacity": 0.5, // or dash-separated names
    width: "*=2" // prefixed values
});*/

var anim1 = function() {
    
	s2.animate({transform:"t293.2798,62.8417, r94.905,0,0"}, 200,anim3)
	
}
var anim3 = function(){
s.animate({ry: 1}, 200)
s2.animate({rx: 1}, 200,anim2)
console.log("HERE")
}

var anim2 = function() {
    s.animate({ry: 15.852}, 200,function(){
	
	setTimeout(function(){
	anim1()
	},5000)

	})

	s2.animate({rx: 15.852}, 200,	function(){
		
	/*setTimeout(function(){
	anim1()
	},5000)*/
	}
	)

}

if(animating == false){
anim1()
console.log(s.attr("rx"))
}


;

]]>
	
	</script>
</svg>
