<?xml version="1.0" encoding="utf-8"?>
<!-- Generator: Adobe Illustrator 16.0.0, SVG Export Plug-In . SVG Version: 6.00 Build 0)  -->
<!DOCTYPE svg PUBLIC "-//W3C//DTD SVG 1.1//EN" "http://www.w3.org/Graphics/SVG/1.1/DTD/svg11.dtd">
<svg version="1.1" id="Layer_1" xmlns="http://www.w3.org/2000/svg" xmlns:xlink="http://www.w3.org/1999/xlink" x="0px" y="0px"
	 width="199px" height="198px" viewBox="411.5 286.5 199 198" enable-background="new 411.5 286.5 199 198" xml:space="preserve">
<g id="Layer_1_1_" display="none">
	<g display="inline">
		<g id="Layer_3">
			<path fill="#DDDDDD" stroke="#000000" stroke-miterlimit="10" d="M500,153.169c167.093,0,302.543,135.452,302.543,302.542
				c0,29.067-4.101,57.182-11.754,83.789c-4.146,14.411-9.335,28.387-15.479,41.828C727.601,685.718,622.271,758.252,500,758.253
				c-129.085,0-239.288-80.847-282.741-194.661c-3.007-7.877-5.692-15.912-8.047-24.089c-7.651-26.608-11.754-54.725-11.754-83.792
				C197.458,288.621,332.911,153.169,500,153.169z"/>
		</g>
		<g display="none">
			
				<line display="inline" fill="none" stroke="#000000" stroke-width="3" stroke-miterlimit="10" x1="770.5" y1="578.5" x2="223.421" y2="578.5"/>
		</g>
		<g display="none">
			
				<line display="inline" fill="none" stroke="#000000" stroke-width="3" stroke-miterlimit="10" x1="802.51" y1="459.527" x2="197.49" y2="459.527"/>
		</g>
		<g>
			<path d="M455.942,417.769l-14.328,37.872h-4.824l-11.949-31.032l-11.952,31.032h-4.824l-14.256-37.872h4.896l11.882,32.184
				l12.168-32.184h4.393l12.096,32.184l12.024-32.184H455.942z"/>
		</g>
		<g>
			<path d="M391.215,417.839l-14.328,37.872h-4.824l-11.952-31.032l-11.952,31.032h-4.822l-14.258-37.872h4.896l11.88,32.184
				l12.168-32.184h4.392l12.099,32.184l12.021-32.184H391.215z"/>
		</g>
		<g>
			<path d="M326.215,417.839l-14.328,37.872h-4.824l-11.952-31.032l-11.952,31.032h-4.824l-14.256-37.872h4.896l11.88,32.184
				l12.168-32.184h4.392l12.099,32.184l12.021-32.184H326.215z"/>
		</g>
		<g>
			<path d="M456.432,454.919c-0.745-0.77-1.116-1.703-1.116-2.811c0-1.104,0.371-2.024,1.116-2.771
				c0.744-0.744,1.644-1.116,2.7-1.116c1.055,0,1.968,0.372,2.733,1.116c0.77,0.744,1.152,1.668,1.152,2.771
				c0,1.105-0.385,2.041-1.152,2.811c-0.769,0.769-1.681,1.149-2.733,1.149C458.075,456.071,457.177,455.688,456.432,454.919z"/>
		</g>
		<g>
			<path d="M520.392,435.406c0.646-1.484,1.451-2.759,2.412-3.813c0.959-1.058,2.207-2.255,3.743-3.603
				c2.063-1.82,3.588-3.42,4.569-4.788c0.983-1.365,1.479-3.033,1.479-5.001c0-2.642-1.032-4.766-3.098-6.372
				c-2.063-1.608-4.896-2.412-8.494-2.412c-5.952,0-10.537,1.941-13.752,5.832l-3.816-2.88c4.08-4.991,10.056-7.488,17.928-7.488
				c5.041,0,9.063,1.128,12.063,3.384c3,2.257,4.5,5.305,4.5,9.146c0,1.969-0.324,3.705-0.975,5.22
				c-0.646,1.512-1.438,2.797-2.376,3.852c-0.936,1.056-2.172,2.28-3.708,3.672c-2.063,1.872-3.601,3.541-4.605,5.004
				c-1.008,1.465-1.515,3.276-1.515,5.438h-5.325C519.423,438.621,519.744,436.896,520.392,435.406z M519.423,454.952
				c-0.723-0.741-1.08-1.617-1.08-2.628c0-1.056,0.357-1.932,1.08-2.628c0.721-0.692,1.604-1.044,2.663-1.044
				c1.104,0,2.017,0.352,2.734,1.044c0.721,0.697,1.08,1.573,1.08,2.628c0,1.011-0.373,1.887-1.116,2.628
				c-0.745,0.745-1.646,1.116-2.698,1.116C521.027,456.071,520.14,455.698,519.423,454.952z"/>
		</g>
		<g>
			<path d="M561.892,435.406c0.646-1.484,1.451-2.759,2.412-3.813c0.959-1.058,2.207-2.255,3.743-3.603
				c2.063-1.82,3.588-3.42,4.569-4.788c0.983-1.365,1.479-3.033,1.479-5.001c0-2.642-1.032-4.766-3.098-6.372
				c-2.063-1.608-4.896-2.412-8.494-2.412c-5.952,0-10.537,1.941-13.752,5.832l-3.816-2.88c4.08-4.991,10.056-7.488,17.928-7.488
				c5.041,0,9.063,1.128,12.063,3.384c3,2.257,4.5,5.305,4.5,9.146c0,1.969-0.324,3.705-0.975,5.22
				c-0.646,1.512-1.438,2.797-2.376,3.852c-0.936,1.056-2.172,2.28-3.708,3.672c-2.063,1.872-3.601,3.541-4.605,5.004
				c-1.008,1.465-1.515,3.276-1.515,5.438h-5.325C560.923,438.621,561.244,436.896,561.892,435.406z M560.923,454.952
				c-0.723-0.741-1.08-1.617-1.08-2.628c0-1.056,0.357-1.932,1.08-2.628c0.721-0.692,1.604-1.044,2.663-1.044
				c1.104,0,2.017,0.352,2.734,1.044c0.721,0.697,1.08,1.573,1.08,2.628c0,1.011-0.373,1.887-1.116,2.628
				c-0.745,0.745-1.646,1.116-2.698,1.116C562.527,456.071,561.64,455.698,560.923,454.952z"/>
		</g>
		<g>
			<path d="M482.392,435.406c0.648-1.484,1.451-2.759,2.412-3.813c0.959-1.058,2.207-2.255,3.744-3.603
				c2.063-1.82,3.588-3.42,4.569-4.788c0.983-1.365,1.479-3.033,1.479-5.001c0-2.642-1.033-4.766-3.097-6.372
				c-2.064-1.608-4.896-2.412-8.495-2.412c-5.952,0-10.537,1.941-13.753,5.832l-3.815-2.88c4.079-4.991,10.055-7.488,17.928-7.488
				c5.04,0,9.063,1.128,12.063,3.384c3,2.257,4.5,5.305,4.5,9.146c0,1.969-0.324,3.705-0.975,5.22
				c-0.646,1.512-1.438,2.797-2.376,3.852c-0.936,1.056-2.172,2.28-3.708,3.672c-2.063,1.872-3.6,3.541-4.605,5.004
				c-1.009,1.465-1.515,3.276-1.515,5.438h-5.326C481.423,438.621,481.744,436.896,482.392,435.406z M481.423,454.952
				c-0.723-0.741-1.08-1.617-1.08-2.628c0-1.056,0.357-1.932,1.08-2.628c0.72-0.692,1.605-1.044,2.661-1.044
				c1.104,0,2.019,0.352,2.736,1.044c0.721,0.697,1.08,1.573,1.08,2.628c0,1.011-0.372,1.887-1.116,2.628
				c-0.745,0.745-1.645,1.116-2.7,1.116C483.029,456.07,482.14,455.698,481.423,454.952z"/>
		</g>
		<g>
			<path d="M592.431,454.919c-0.744-0.77-1.115-1.703-1.115-2.811c0-1.104,0.371-2.024,1.115-2.771
				c0.744-0.744,1.645-1.116,2.7-1.116c1.055,0,1.968,0.372,2.733,1.116c0.77,0.744,1.151,1.668,1.151,2.771
				c0,1.105-0.385,2.041-1.151,2.811c-0.769,0.769-1.681,1.149-2.733,1.149C594.076,456.071,593.177,455.688,592.431,454.919z"/>
		</g>
		<g>
			<path d="M613.279,453.62c-2.951-1.631-5.268-3.924-6.947-6.876c-1.681-2.949-2.52-6.272-2.52-9.972
				c0-3.696,0.839-7.008,2.52-9.936c1.683-2.93,3.996-5.208,6.947-6.84c2.953-1.631,6.301-2.448,10.045-2.448
				c3.267,0,6.183,0.637,8.748,1.908c2.566,1.271,4.596,3.132,6.084,5.577l-3.813,2.595c-1.248-1.872-2.832-3.276-4.752-4.215
				c-1.923-0.936-4.011-1.401-6.267-1.401c-2.733,0-5.197,0.61-7.381,1.836c-2.184,1.224-3.887,2.964-5.111,5.22
				c-1.225,2.257-1.836,4.824-1.836,7.704c0,2.928,0.611,5.508,1.836,7.74c1.228,2.229,2.931,3.96,5.111,5.184
				c2.186,1.227,4.646,1.836,7.381,1.836c2.256,0,4.344-0.456,6.267-1.368c1.92-0.908,3.504-2.304,4.752-4.176l3.813,2.592
				c-1.488,2.448-3.525,4.312-6.12,5.58c-2.593,1.272-5.497,1.908-8.712,1.908C619.58,456.071,616.232,455.256,613.279,453.62z"/>
		</g>
		<g>
			<path d="M656.279,453.62c-2.951-1.631-5.268-3.924-6.947-6.876c-1.681-2.949-2.52-6.272-2.52-9.972
				c0-3.696,0.839-7.008,2.52-9.936c1.683-2.93,3.996-5.208,6.947-6.84c2.953-1.631,6.301-2.448,10.045-2.448
				c3.267,0,6.183,0.637,8.748,1.908c2.566,1.271,4.596,3.132,6.084,5.577l-3.813,2.595c-1.248-1.872-2.832-3.276-4.752-4.215
				c-1.923-0.936-4.011-1.401-6.267-1.401c-2.733,0-5.197,0.61-7.381,1.836c-2.184,1.224-3.887,2.964-5.111,5.22
				c-1.225,2.257-1.836,4.824-1.836,7.704c0,2.928,0.611,5.508,1.836,7.74c1.228,2.229,2.931,3.96,5.111,5.184
				c2.186,1.227,4.646,1.836,7.381,1.836c2.256,0,4.344-0.456,6.267-1.368c1.92-0.908,3.504-2.304,4.752-4.176l3.813,2.592
				c-1.488,2.448-3.525,4.312-6.12,5.58c-2.593,1.272-5.497,1.908-8.712,1.908C662.58,456.071,659.232,455.256,656.279,453.62z"/>
		</g>
		<g>
			<path d="M698.279,453.62c-2.951-1.631-5.268-3.924-6.947-6.876c-1.681-2.949-2.52-6.272-2.52-9.972
				c0-3.696,0.839-7.008,2.52-9.936c1.683-2.93,3.996-5.208,6.947-6.84c2.953-1.631,6.301-2.448,10.045-2.448
				c3.267,0,6.183,0.637,8.748,1.908c2.566,1.271,4.596,3.132,6.084,5.577l-3.813,2.595c-1.248-1.872-2.832-3.276-4.752-4.215
				c-1.923-0.936-4.011-1.401-6.267-1.401c-2.733,0-5.197,0.61-7.381,1.836c-2.184,1.224-3.887,2.964-5.111,5.22
				c-1.225,2.257-1.836,4.824-1.836,7.704c0,2.928,0.611,5.508,1.836,7.74c1.228,2.229,2.931,3.96,5.111,5.184
				c2.186,1.227,4.646,1.836,7.381,1.836c2.256,0,4.344-0.456,6.267-1.368c1.92-0.908,3.504-2.304,4.752-4.176l3.813,2.592
				c-1.488,2.448-3.525,4.312-6.12,5.58c-2.593,1.272-5.497,1.908-8.712,1.908C704.58,456.071,701.232,455.256,698.279,453.62z"/>
		</g>
	</g>
	<g display="inline">
		<path d="M250.5,396.779h4.752v67.394H250.5V396.779z"/>
	</g>
	<div  class="typewriter">
		
			<text  transform="matrix(1 0 0 1 264.0769 578.5002)" font-family="&apos;Montserrat-Regular&apos;" font-size="72" startOffset="0">
			www.???.com</text>
	</div>
</g>
<g id="paw3">
	<path fill="#231F20" d="M424.687,356.159c0.087-0.078,0.177-0.158,0.263-0.236c-0.027-0.922-0.056-1.839-0.075-2.758
		c0.088-0.079,0.177-0.158,0.264-0.237c-0.037-0.399-0.079-0.794-0.116-1.19c0.088-0.079,0.178-0.159,0.269-0.241
		c-0.039-0.217-0.077-0.438-0.118-0.66c0.088-0.079,0.178-0.159,0.265-0.238c-0.043-0.135-0.082-0.271-0.119-0.403
		c0.085-0.077,0.175-0.157,0.267-0.239c-0.041-0.223-0.083-0.445-0.122-0.669c0.087-0.079,0.176-0.159,0.266-0.239
		c-0.044-0.132-0.081-0.266-0.122-0.401c0.087-0.078,0.178-0.159,0.267-0.239c-0.043-0.132-0.084-0.271-0.121-0.401
		c0.134-0.208,0.268-0.411,0.403-0.62c-0.043-0.131-0.086-0.269-0.127-0.4c0.18-0.335,0.36-0.665,0.54-1
		c-0.044-0.132-0.083-0.269-0.125-0.399c0.136-0.208,0.268-0.414,0.404-0.618c-0.044-0.05-0.086-0.097-0.13-0.145
		c0.182-0.334,0.359-0.664,0.542-0.996c-0.043-0.049-0.087-0.098-0.13-0.146c0.13-0.117,0.265-0.237,0.399-0.358
		c-0.039-0.043-0.085-0.095-0.126-0.141c0.133-0.204,0.268-0.412,0.404-0.614c-0.045-0.05-0.086-0.097-0.128-0.144
		c0.763-1.375,1.527-2.742,2.287-4.111c0.222-0.199,0.444-0.398,0.664-0.595c0.919-1.583,3.24-3.632,4.903-4.398
		c0.618-0.467,1.236-0.937,1.854-1.404c0.042,0.047,0.085,0.096,0.129,0.144c0.482-0.262,0.962-0.521,1.441-0.783
		c0.044,0.049,0.087,0.097,0.128,0.144c0.352-0.145,0.702-0.284,1.052-0.43c0.042,0.046,0.085,0.095,0.128,0.143
		c0.087-0.078,0.176-0.159,0.265-0.237c0.043,0.048,0.084,0.093,0.129,0.143c0.089-0.08,0.178-0.16,0.266-0.239
		c0.04,0.044,0.083,0.093,0.125,0.14c0.218-0.112,0.44-0.218,0.656-0.333c0.13,0.058,0.263,0.109,0.389,0.164
		c0.088-0.079,0.177-0.159,0.266-0.238c0.043,0.048,0.088,0.098,0.128,0.143c0.177-0.071,0.353-0.146,0.529-0.212
		c0.128,0.053,0.258,0.11,0.384,0.166c0.092-0.082,0.178-0.16,0.269-0.241c0.301,0.072,0.606,0.144,0.91,0.214
		c0.087-0.079,0.175-0.157,0.264-0.236c0.393,0.076,0.78,0.159,1.172,0.239c0.126-0.036,0.26-0.065,0.39-0.101
		c0.088,0.098,0.172,0.192,0.259,0.289c0.305-0.016,0.605-0.034,0.911-0.049c0.085,0.095,0.17,0.19,0.255,0.285
		c0.218-0.021,0.437-0.046,0.652-0.072c4.928,1.448,11.342,6.292,14.252,12.424c0.213,0.237,0.427,0.476,0.64,0.714
		c-0.043,0.039-0.089,0.08-0.132,0.119c0.125,0.14,0.254,0.283,0.384,0.428c-0.045,0.04-0.089,0.08-0.132,0.118
		c0.333,0.553,0.673,1.11,1.01,1.665c-0.041,0.036-0.09,0.08-0.132,0.118c0.128,0.143,0.252,0.281,0.382,0.426
		c-0.043,0.038-0.088,0.079-0.131,0.117c0.129,0.143,0.253,0.283,0.384,0.428c-0.047,0.041-0.09,0.08-0.133,0.118
		c0.128,0.144,0.255,0.285,0.381,0.425c-0.044,0.039-0.091,0.081-0.132,0.118c0.086,0.097,0.171,0.192,0.256,0.287
		c-0.044,0.04-0.089,0.081-0.132,0.119c0.126,0.141,0.257,0.286,0.384,0.427c-0.045,0.041-0.092,0.082-0.132,0.119
		c0.085,0.095,0.17,0.19,0.254,0.283c-0.046,0.041-0.09,0.081-0.134,0.119c0.129,0.143,0.257,0.287,0.386,0.43
		c-0.041,0.036-0.09,0.08-0.134,0.12c0.168,0.361,0.332,0.728,0.504,1.092c-0.045,0.04-0.088,0.079-0.133,0.118
		c0.084,0.093,0.172,0.191,0.255,0.285c-0.041,0.037-0.09,0.081-0.133,0.119c0.084,0.093,0.173,0.191,0.255,0.284
		c-0.043,0.039-0.087,0.08-0.13,0.118c0.085,0.095,0.17,0.19,0.253,0.283c-0.043,0.038-0.091,0.082-0.133,0.119
		c0.086,0.097,0.171,0.191,0.257,0.286c-0.045,0.041-0.088,0.079-0.133,0.119c0.087,0.097,0.172,0.191,0.255,0.284
		c-0.043,0.039-0.088,0.081-0.131,0.119c0.084,0.095,0.171,0.191,0.254,0.284c-0.042,0.039-0.087,0.079-0.132,0.119
		c0.086,0.098,0.17,0.19,0.257,0.287c-0.043,0.039-0.088,0.079-0.131,0.118c0.085,0.095,0.169,0.189,0.251,0.281
		c-0.044,0.04-0.087,0.078-0.131,0.117c0.089,0.099,0.172,0.191,0.258,0.288c-0.049,0.128-0.093,0.252-0.14,0.379
		c0.126,0.229,0.255,0.458,0.38,0.688c-0.046,0.128-0.086,0.259-0.135,0.38c0.084,0.094,0.173,0.193,0.254,0.284
		c-0.043,0.038-0.091,0.082-0.133,0.119c0.084,0.183,0.169,0.365,0.253,0.548c-0.05,0.125-0.093,0.254-0.142,0.375
		c0.089,0.1,0.173,0.193,0.258,0.288c-0.054,0.301-0.099,0.602-0.146,0.903c0.084,0.093,0.171,0.189,0.252,0.281
		c-0.05,0.391-0.101,0.778-0.151,1.169c0.086,0.095,0.17,0.189,0.257,0.286c-0.068,1.084-0.13,2.166-0.188,3.256
		c0.025,1.091,0.052,2.182,0.076,3.277c-0.092,0.082-0.177,0.159-0.269,0.241c0.035,0.567,0.067,1.14,0.099,1.708
		c-0.088,0.078-0.18,0.161-0.267,0.239c0.039,0.311,0.077,0.619,0.114,0.931c-0.086,0.076-0.178,0.158-0.267,0.239
		c0.041,0.222,0.081,0.445,0.122,0.667c-0.089,0.079-0.178,0.159-0.263,0.236c0.032,0.223,0.074,0.443,0.114,0.666
		c-0.087,0.077-0.178,0.159-0.265,0.237c0.039,0.132,0.079,0.274,0.12,0.402c-0.088,0.164-0.181,0.334-0.266,0.5
		c0.039,0.043,0.084,0.093,0.124,0.138c-0.087,0.078-0.178,0.16-0.266,0.239c0.043,0.142,0.082,0.271,0.124,0.408
		c-0.087,0.163-0.179,0.329-0.268,0.497c0.043,0.048,0.085,0.095,0.125,0.14c-0.176,0.335-0.363,0.667-0.538,1.001
		c0.041,0.135,0.081,0.271,0.121,0.401c-0.135,0.206-0.268,0.416-0.405,0.622c0.044,0.048,0.086,0.095,0.127,0.142
		c-0.132,0.206-0.266,0.413-0.402,0.616c0.043,0.048,0.088,0.098,0.13,0.145c-0.131,0.117-0.263,0.236-0.396,0.355
		c0.042,0.047,0.084,0.093,0.126,0.142c-0.132,0.206-0.266,0.414-0.402,0.616c0.042,0.046,0.088,0.098,0.129,0.144
		c-0.808,1.325-1.614,2.645-2.419,3.971c-0.708,0.719-1.416,1.441-2.126,2.163c0.043,0.048,0.086,0.097,0.128,0.143
		c-1.453,1.219-2.914,2.442-4.367,3.659c-0.042-0.047-0.085-0.095-0.126-0.142c-0.178,0.159-0.353,0.316-0.528,0.474
		c-0.042-0.047-0.086-0.097-0.126-0.142c-0.135,0.121-0.268,0.239-0.401,0.359c-0.042-0.046-0.088-0.098-0.128-0.143
		c-0.129,0.116-0.265,0.238-0.399,0.359c-0.043-0.049-0.085-0.095-0.128-0.144c-0.348,0.141-0.7,0.286-1.05,0.428
		c-0.041-0.046-0.083-0.093-0.128-0.144c-0.089,0.081-0.179,0.161-0.267,0.239c-0.042-0.046-0.084-0.094-0.126-0.142
		c-0.088,0.079-0.178,0.16-0.266,0.238c-0.04-0.044-0.086-0.097-0.128-0.144c-0.091,0.083-0.179,0.161-0.267,0.24
		c-0.04-0.045-0.083-0.093-0.126-0.142c-0.089,0.08-0.177,0.159-0.265,0.238c-0.043-0.048-0.087-0.096-0.127-0.142
		c-0.091,0.081-0.178,0.16-0.267,0.239c-0.042-0.046-0.087-0.097-0.13-0.145c-0.089,0.08-0.175,0.157-0.265,0.237
		c-0.126-0.055-0.263-0.11-0.386-0.164c-0.089,0.08-0.176,0.157-0.267,0.239c-0.042-0.047-0.086-0.097-0.128-0.144
		c-0.172,0.074-0.35,0.143-0.527,0.214c-0.126-0.058-0.258-0.111-0.384-0.166c-0.087,0.078-0.177,0.159-0.266,0.239
		c-0.305-0.072-0.604-0.143-0.911-0.216c-3.227,0.233-6.286-0.985-9.468-2.823c-0.17-0.189-0.342-0.382-0.512-0.571
		c-0.043,0.039-0.089,0.08-0.131,0.117c-0.213-0.238-0.429-0.478-0.642-0.715c-0.044,0.041-0.087,0.079-0.134,0.121
		c-0.252-0.281-0.512-0.571-0.766-0.854c-0.042,0.038-0.087,0.079-0.13,0.117c-0.382-0.426-0.768-0.856-1.151-1.283
		c-0.043,0.039-0.088,0.079-0.132,0.119c-0.768-0.506-2.89-3.239-3.189-3.823c-0.383-0.428-0.768-0.855-1.152-1.285
		c0.042-0.038,0.088-0.078,0.13-0.117c-0.253-0.283-0.51-0.569-0.766-0.854c0.047-0.042,0.089-0.081,0.134-0.121
		c-0.213-0.238-0.425-0.474-0.639-0.712c0.042-0.037,0.088-0.079,0.13-0.117c-0.171-0.191-0.343-0.383-0.511-0.571
		c0.044-0.04,0.089-0.08,0.132-0.119c-0.169-0.19-0.341-0.381-0.512-0.571c0.043-0.039,0.089-0.08,0.132-0.119
		c-0.171-0.191-0.343-0.383-0.515-0.574c0.045-0.041,0.087-0.079,0.132-0.119c-0.128-0.143-0.253-0.282-0.381-0.424
		c0.042-0.037,0.09-0.08,0.131-0.117c-0.128-0.144-0.257-0.286-0.384-0.428c0.045-0.041,0.09-0.081,0.133-0.119
		c-0.128-0.143-0.257-0.287-0.384-0.428c0.046-0.041,0.089-0.08,0.132-0.119c-0.212-0.323-0.42-0.649-0.636-0.975
		c0.042-0.038,0.09-0.081,0.132-0.119c-0.083-0.093-0.168-0.188-0.253-0.283c0.043-0.039,0.087-0.079,0.13-0.118
		c-0.126-0.142-0.253-0.282-0.382-0.426c0.043-0.039,0.089-0.08,0.132-0.119c-0.169-0.364-0.334-0.732-0.504-1.094
		c0.045-0.041,0.092-0.083,0.135-0.121c-0.087-0.097-0.172-0.191-0.255-0.284c0.042-0.038,0.088-0.079,0.129-0.117
		c-0.084-0.095-0.169-0.189-0.256-0.286c0.042-0.038,0.088-0.079,0.134-0.12c-0.17-0.274-0.336-0.552-0.508-0.827
		c0.046-0.125,0.092-0.257,0.136-0.384c-0.083-0.092-0.171-0.191-0.253-0.283c0.041-0.036,0.089-0.08,0.134-0.12
		c-0.086-0.097-0.17-0.19-0.255-0.285c0.043-0.038,0.087-0.078,0.128-0.115c-0.087-0.097-0.171-0.191-0.255-0.285
		c0.047-0.042,0.091-0.082,0.135-0.12c-0.085-0.095-0.172-0.191-0.255-0.285c0.041-0.036,0.088-0.078,0.135-0.12
		c-0.086-0.178-0.171-0.364-0.257-0.545c0.051-0.124,0.094-0.255,0.143-0.377c-0.13-0.229-0.253-0.46-0.379-0.693
		c0.043-0.039,0.087-0.078,0.129-0.116c-0.084-0.183-0.167-0.363-0.25-0.548c0.046-0.125,0.091-0.252,0.14-0.38
		c-0.086-0.097-0.171-0.192-0.254-0.285c0.041-0.212,0.09-0.427,0.138-0.64c-0.083-0.093-0.171-0.19-0.254-0.283
		c0.046-0.219,0.095-0.428,0.143-0.645c-0.085-0.095-0.17-0.19-0.253-0.283c0.046-0.212,0.095-0.427,0.141-0.642
		c-0.085-0.095-0.17-0.19-0.257-0.287c0.053-0.387,0.102-0.772,0.152-1.163c-0.085-0.095-0.17-0.19-0.255-0.285
		c0.041-0.037,0.089-0.08,0.132-0.118c-0.041-0.306-0.077-0.62-0.113-0.926C424.782,357.846,425.116,357.004,424.687,356.159z"/>
	<path fill="#231F20" d="M471.418,301.896c1.503-1.383,3.14-2.964,4.632-3.638c0.265-0.237,0.528-0.473,0.794-0.712
		c2.478-1.066,4.875-1.772,7.337-1.95c0.648,0.103,1.299,0.204,1.946,0.308c0.481-0.003,0.96-0.002,1.439-0.001
		c0.083,0.093,0.171,0.191,0.253,0.282c0.218-0.019,0.436-0.049,0.659-0.071c0.083,0.093,0.169,0.19,0.251,0.281
		c0.129-0.029,0.26-0.063,0.395-0.093c0.084,0.093,0.173,0.191,0.254,0.283c0.129-0.032,0.261-0.064,0.396-0.095
		c0.084,0.093,0.169,0.188,0.252,0.281c0.043-0.039,0.088-0.079,0.128-0.116c0.089,0.098,0.173,0.191,0.258,0.286
		c0.044-0.04,0.092-0.083,0.134-0.12c0.085,0.095,0.171,0.192,0.255,0.285c0.043-0.038,0.088-0.078,0.131-0.117
		c0.087,0.097,0.169,0.19,0.256,0.287c0.042-0.039,0.09-0.081,0.135-0.121c0.083,0.093,0.17,0.19,0.252,0.281
		c0.041-0.036,0.088-0.078,0.131-0.119c0.217,0.155,0.43,0.306,0.647,0.458c0.045-0.041,0.086-0.079,0.13-0.117
		c0.128,0.143,0.255,0.285,0.38,0.424c0.045-0.04,0.09-0.081,0.134-0.119c0.085,0.096,0.172,0.191,0.256,0.286
		c0.042-0.038,0.089-0.08,0.131-0.117c0.127,0.142,0.255,0.284,0.384,0.428c0.045-0.042,0.089-0.081,0.134-0.12
		c0.382,0.34,0.769,0.682,1.157,1.023c1.56,0.94,4.703,3.56,5.766,5.629c0.383,0.428,0.767,0.855,1.148,1.282
		c-0.045,0.041-0.09,0.081-0.132,0.119c0.253,0.282,0.513,0.573,0.767,0.855c-0.041,0.037-0.089,0.08-0.132,0.119
		c0.214,0.238,0.427,0.476,0.641,0.713c-0.045,0.039-0.088,0.079-0.131,0.117c0.171,0.192,0.341,0.381,0.514,0.573
		c-0.045,0.04-0.092,0.082-0.133,0.119c0.17,0.189,0.342,0.381,0.511,0.568c-0.046,0.041-0.089,0.079-0.135,0.121
		c0.127,0.142,0.256,0.285,0.386,0.43c-0.042,0.037-0.088,0.079-0.131,0.117c0.126,0.142,0.253,0.283,0.381,0.424
		c-0.043,0.039-0.088,0.079-0.133,0.119c0.129,0.143,0.254,0.283,0.384,0.427c-0.043,0.039-0.086,0.077-0.131,0.118
		c0.129,0.143,0.254,0.283,0.383,0.427c-0.045,0.04-0.086,0.079-0.13,0.117c0.085,0.095,0.17,0.189,0.254,0.283
		c-0.046,0.041-0.092,0.083-0.133,0.119c0.212,0.326,0.42,0.653,0.633,0.976c-0.042,0.038-0.088,0.079-0.13,0.117
		c0.13,0.229,0.253,0.463,0.379,0.693c-0.042,0.037-0.087,0.077-0.13,0.115c0.129,0.143,0.256,0.285,0.384,0.428
		c-0.046,0.042-0.09,0.08-0.132,0.119c0.083,0.093,0.17,0.19,0.252,0.281c-0.045,0.04-0.089,0.08-0.133,0.119
		c0.09,0.1,0.173,0.191,0.259,0.288c-0.045,0.041-0.089,0.081-0.134,0.121c0.168,0.362,0.333,0.728,0.5,1.091
		c-0.043,0.039-0.088,0.079-0.134,0.121c0.128,0.143,0.256,0.286,0.383,0.427c-0.04,0.037-0.085,0.077-0.128,0.115
		c0.166,0.365,0.331,0.729,0.502,1.096c-0.047,0.042-0.091,0.081-0.134,0.12c0.126,0.229,0.252,0.458,0.379,0.684
		c-0.045,0.131-0.089,0.261-0.14,0.384c0.17,0.363,0.34,0.729,0.508,1.091c-0.05,0.128-0.091,0.259-0.142,0.382
		c0.129,0.229,0.252,0.461,0.381,0.691c-0.041,0.036-0.09,0.081-0.132,0.119c0.085,0.182,0.168,0.36,0.251,0.543
		c-0.048,0.126-0.092,0.254-0.138,0.382c0.085,0.095,0.171,0.191,0.253,0.283c-0.049,0.303-0.092,0.6-0.143,0.9
		c0.087,0.097,0.17,0.19,0.255,0.285c-0.051,0.303-0.101,0.6-0.146,0.902c0.085,0.095,0.169,0.189,0.253,0.283
		c-0.063,1.003-0.125,1.999-0.188,2.997c0.024,1.27,0.043,2.538,0.063,3.803c-0.088,0.079-0.177,0.158-0.266,0.238
		c0.038,0.396,0.074,0.792,0.109,1.189c-0.087,0.079-0.175,0.157-0.265,0.238c0.042,0.308,0.074,0.618,0.118,0.928
		c-0.091,0.08-0.178,0.159-0.267,0.239c0.04,0.218,0.076,0.444,0.118,0.665c-0.089,0.081-0.175,0.158-0.267,0.239
		c0.04,0.132,0.083,0.267,0.121,0.398c-0.091,0.169-0.18,0.335-0.27,0.503c0.04,0.045,0.084,0.093,0.125,0.14
		c-0.088,0.079-0.176,0.158-0.266,0.239c0.047,0.135,0.082,0.268,0.125,0.407c-0.087,0.078-0.177,0.159-0.263,0.236
		c0.039,0.133,0.079,0.271,0.116,0.399c-0.087,0.168-0.175,0.338-0.27,0.503c0.04,0.044,0.085,0.095,0.129,0.143
		c-0.088,0.079-0.177,0.159-0.265,0.237c0.041,0.046,0.085,0.095,0.125,0.14c-0.088,0.078-0.179,0.161-0.268,0.239
		c0.045,0.051,0.089,0.099,0.131,0.146c-0.086,0.076-0.177,0.158-0.264,0.235c0.04,0.044,0.085,0.094,0.129,0.143
		c-0.092,0.082-0.18,0.16-0.269,0.24c0.042,0.13,0.084,0.267,0.119,0.4c-0.087,0.079-0.175,0.157-0.264,0.237
		c0.043,0.048,0.09,0.1,0.13,0.145c-0.135,0.204-0.269,0.409-0.402,0.617c0.044,0.05,0.085,0.096,0.126,0.141
		c-0.176,0.245-0.354,0.495-0.53,0.737c-1.326,3.828-4.966,9.369-9.721,11.292c-0.528,0.297-1.053,0.6-1.583,0.903
		c-0.042-0.048-0.084-0.094-0.128-0.143c-0.216,0.11-0.438,0.221-0.657,0.333c-0.041-0.046-0.086-0.097-0.127-0.143
		c-0.529,0.215-1.051,0.426-1.576,0.645c-0.044-0.048-0.086-0.095-0.129-0.143c-0.174,0.068-0.35,0.143-0.521,0.213
		c-0.133-0.057-0.262-0.111-0.392-0.166c-0.087,0.078-0.177,0.159-0.264,0.237c-0.129-0.056-0.255-0.11-0.388-0.169
		c-0.089,0.08-0.177,0.159-0.265,0.238c-0.387-0.076-0.778-0.155-1.168-0.234c-0.088,0.079-0.175,0.157-0.268,0.241
		c-0.391-0.079-0.778-0.162-1.171-0.238c-0.125,0.032-0.264,0.062-0.391,0.092c-0.084-0.094-0.173-0.191-0.255-0.285
		c-0.305,0.016-0.606,0.034-0.909,0.051c-0.088-0.099-0.172-0.191-0.255-0.285c-0.225,0.021-0.437,0.047-0.656,0.072
		c-0.085-0.095-0.171-0.191-0.255-0.285c-0.13,0.032-0.264,0.066-0.395,0.096c-0.211-0.149-0.43-0.303-0.64-0.456
		c-0.134,0.039-0.264,0.066-0.397,0.098c-0.213-0.155-0.426-0.303-0.64-0.45c-0.043,0.039-0.087,0.079-0.128,0.115
		c-0.218-0.15-0.432-0.301-0.648-0.452c-0.044,0.04-0.087,0.079-0.13,0.118c-0.129-0.144-0.257-0.287-0.382-0.427
		c-0.045,0.04-0.091,0.082-0.132,0.119c-0.088-0.099-0.171-0.192-0.256-0.287c-0.043,0.039-0.09,0.081-0.13,0.117
		c-0.347-0.292-0.688-0.585-1.031-0.878c-0.042,0.037-0.089,0.081-0.131,0.119c-0.171-0.19-0.339-0.377-0.512-0.571
		c-0.044,0.039-0.088,0.08-0.13,0.116c-0.17-0.189-0.34-0.379-0.513-0.573c-0.045,0.04-0.093,0.083-0.136,0.122
		c-0.254-0.283-0.513-0.57-0.766-0.853c-1.552-1.014-3.195-3.027-4.74-4.751c-1.325-1.479-2.286-2.932-2.921-4.324
		c-0.171-0.192-0.342-0.382-0.512-0.571c0.043-0.038,0.091-0.081,0.133-0.119c-0.257-0.375-0.51-0.744-0.761-1.119
		c0.041-0.037,0.087-0.079,0.131-0.117c-0.131-0.145-0.257-0.287-0.383-0.427c0.041-0.037,0.088-0.079,0.133-0.118
		c-0.128-0.143-0.257-0.287-0.385-0.429c0.043-0.039,0.086-0.078,0.131-0.118c-0.086-0.095-0.171-0.19-0.255-0.285
		c0.045-0.04,0.088-0.079,0.135-0.121c-0.128-0.142-0.253-0.282-0.381-0.424c0.041-0.037,0.085-0.077,0.128-0.115
		c-0.086-0.097-0.171-0.191-0.258-0.289c0.046-0.04,0.09-0.08,0.131-0.117c-0.125-0.14-0.255-0.285-0.383-0.428
		c0.045-0.042,0.09-0.082,0.133-0.12c-0.125-0.227-0.249-0.455-0.374-0.688c0.041-0.037,0.085-0.077,0.127-0.115
		c-0.127-0.143-0.256-0.286-0.385-0.429c0.045-0.04,0.088-0.079,0.134-0.119c-0.165-0.363-0.332-0.733-0.5-1.096
		c0.042-0.037,0.088-0.079,0.13-0.116c-0.123-0.23-0.247-0.46-0.377-0.689c0.044-0.124,0.091-0.255,0.135-0.382
		c-0.164-0.364-0.333-0.729-0.499-1.093c0.045-0.124,0.093-0.254,0.135-0.379c-0.126-0.232-0.248-0.463-0.378-0.691
		c0.046-0.125,0.091-0.256,0.142-0.378c-0.089-0.099-0.171-0.191-0.258-0.289c0.047-0.123,0.091-0.252,0.14-0.377
		c-0.084-0.095-0.171-0.191-0.258-0.288c0.049-0.122,0.098-0.256,0.142-0.379c-0.086-0.095-0.17-0.19-0.255-0.284
		c0.048-0.127,0.088-0.254,0.14-0.38c-0.084-0.093-0.171-0.191-0.256-0.287c0.047-0.214,0.095-0.427,0.142-0.641
		c-0.086-0.097-0.17-0.19-0.255-0.285c0.045-0.212,0.095-0.431,0.144-0.64c-0.088-0.098-0.172-0.191-0.258-0.288
		c0.05-0.298,0.097-0.599,0.147-0.901c-0.086-0.095-0.172-0.191-0.254-0.283c0.055-0.565,0.105-1.128,0.161-1.69
		c-0.087-0.097-0.173-0.192-0.255-0.285c0.05-0.391,0.1-0.778,0.147-1.163c-0.026-0.833-0.054-1.666-0.084-2.495
		c0.088-0.079,0.18-0.161,0.268-0.239c-0.035-0.572-0.07-1.139-0.1-1.709c0.087-0.079,0.177-0.16,0.265-0.238
		c-0.038-0.312-0.076-0.621-0.115-0.93c0.09-0.081,0.175-0.157,0.268-0.24c-0.043-0.224-0.079-0.443-0.116-0.666
		c0.086-0.078,0.176-0.158,0.264-0.237c-0.043-0.223-0.078-0.443-0.118-0.667c0.087-0.079,0.177-0.159,0.265-0.238
		c-0.042-0.134-0.081-0.266-0.123-0.407c0.091-0.162,0.18-0.329,0.27-0.494c-0.043-0.049-0.088-0.099-0.126-0.142
		c0.09-0.08,0.178-0.159,0.267-0.239c-0.048-0.135-0.083-0.271-0.127-0.405c0.089-0.081,0.177-0.158,0.267-0.24
		c-0.043-0.133-0.083-0.267-0.122-0.403c0.181-0.331,0.359-0.666,0.541-0.996c-0.042-0.134-0.083-0.268-0.125-0.402
		c0.178-0.333,0.358-0.666,0.542-1c-0.044-0.048-0.084-0.095-0.128-0.143c0.085-0.077,0.175-0.158,0.263-0.236
		c-0.043-0.048-0.085-0.095-0.128-0.143c0.182-0.334,0.363-0.667,0.546-0.997c-0.045-0.05-0.088-0.099-0.13-0.145
		c0.131-0.118,0.264-0.238,0.395-0.355c-0.042-0.046-0.087-0.096-0.129-0.143c0.09-0.081,0.178-0.16,0.268-0.24
		c-0.042-0.047-0.084-0.095-0.125-0.14c0.132-0.118,0.264-0.237,0.399-0.357c-0.046-0.05-0.088-0.097-0.131-0.146
		c0.088-0.079,0.176-0.157,0.265-0.238c-0.039-0.042-0.084-0.095-0.128-0.143c0.132-0.118,0.266-0.239,0.399-0.357
		c-0.04-0.045-0.084-0.093-0.126-0.14c0.131-0.117,0.266-0.238,0.396-0.355c-0.043-0.048-0.085-0.095-0.129-0.143
		c0.134-0.121,0.268-0.239,0.399-0.358c-0.042-0.047-0.087-0.097-0.126-0.141c0.177-0.159,0.353-0.317,0.53-0.476
		c-0.044-0.048-0.086-0.096-0.128-0.141c0.178-0.16,0.356-0.319,0.532-0.477c-0.045-0.05-0.089-0.1-0.128-0.143
		c0.22-0.197,0.44-0.395,0.661-0.593c-0.043-0.049-0.084-0.096-0.128-0.144c0.351-0.315,0.707-0.634,1.058-0.949
		C471.506,301.994,471.464,301.947,471.418,301.896z"/>
	<path fill="#231F20" d="M524.119,308.134c1.543-1.386,3.091-2.774,4.637-4.159c1.444-0.786,2.896-1.57,4.343-2.355
		c0.043,0.049,0.086,0.097,0.128,0.144c0.087-0.079,0.177-0.159,0.266-0.239c0.042,0.047,0.086,0.095,0.129,0.143
		c0.133-0.119,0.266-0.237,0.397-0.357c0.04,0.045,0.086,0.096,0.129,0.144c0.352-0.145,0.699-0.286,1.049-0.43
		c0.042,0.048,0.086,0.097,0.128,0.144c0.089-0.08,0.175-0.157,0.267-0.239c0.041,0.046,0.085,0.095,0.125,0.14
		c0.225-0.11,0.44-0.218,0.659-0.33c0.128,0.054,0.258,0.111,0.386,0.165c0.09-0.081,0.177-0.158,0.27-0.241
		c0.13,0.061,0.256,0.112,0.384,0.168c0.089-0.08,0.179-0.16,0.267-0.239c0.217,0.063,0.432,0.126,0.649,0.192
		c0.09-0.08,0.179-0.16,0.268-0.239c0.475,0.087,0.952,0.173,1.426,0.263c0.742,0.02,1.482,0.044,2.215,0.068
		c0.088,0.096,0.172,0.191,0.258,0.286c0.216-0.022,0.436-0.05,0.653-0.073c0.086,0.095,0.173,0.191,0.254,0.283
		c0.129-0.029,0.268-0.059,0.392-0.093c0.085,0.095,0.172,0.191,0.257,0.286c0.133-0.035,0.263-0.064,0.394-0.098
		c0.211,0.149,0.428,0.304,0.643,0.454c0.046-0.042,0.09-0.081,0.134-0.121c0.087,0.097,0.17,0.19,0.257,0.287
		c0.042-0.038,0.087-0.079,0.132-0.119c0.343,0.204,0.687,0.409,1.03,0.619c0.045-0.04,0.093-0.082,0.135-0.121
		c0.293,0.245,0.6,0.493,0.897,0.735c1.794,0.962,3.298,2.078,5.145,4.137c0.509,0.567,1.021,1.139,1.533,1.709
		c-0.043,0.039-0.087,0.077-0.133,0.119c0.301,0.334,0.598,0.666,0.896,0.998c-0.045,0.041-0.088,0.079-0.131,0.117
		c0.256,0.285,0.514,0.573,0.767,0.855c-0.042,0.039-0.09,0.082-0.132,0.12c0.298,0.417,0.594,0.842,0.892,1.257
		c-0.044,0.041-0.089,0.08-0.134,0.12c0.129,0.143,0.253,0.282,0.384,0.427c-0.043,0.039-0.088,0.079-0.131,0.117
		c0.129,0.144,0.256,0.284,0.382,0.426c-0.045,0.04-0.091,0.082-0.132,0.119c0.129,0.143,0.255,0.284,0.384,0.428
		c-0.043,0.039-0.089,0.079-0.135,0.12c0.13,0.145,0.256,0.285,0.384,0.428c2.413,6.645,3.415,13.518,2.253,19.84
		c0.04,0.309,0.075,0.616,0.115,0.923c-0.088,0.079-0.178,0.16-0.27,0.242c0.044,0.222,0.082,0.446,0.12,0.662
		c-0.093,0.082-0.178,0.159-0.27,0.241c0.044,0.223,0.083,0.445,0.121,0.667c-0.087,0.077-0.177,0.158-0.262,0.234
		c0.04,0.139,0.078,0.275,0.123,0.407c-0.094,0.164-0.183,0.332-0.271,0.497c0.039,0.045,0.087,0.097,0.128,0.144
		c-0.087,0.078-0.177,0.159-0.269,0.241c0.045,0.133,0.085,0.266,0.123,0.399c-0.134,0.208-0.266,0.413-0.4,0.619
		c0.04,0.135,0.082,0.272,0.121,0.404c-0.135,0.208-0.27,0.412-0.4,0.618c0.041,0.131,0.08,0.269,0.124,0.402
		c-0.088,0.079-0.177,0.158-0.266,0.238c0.042,0.046,0.085,0.097,0.127,0.142c-0.089,0.08-0.178,0.159-0.267,0.239
		c0.043,0.048,0.084,0.095,0.128,0.143c-0.088,0.079-0.178,0.159-0.266,0.237c0.042,0.047,0.088,0.097,0.126,0.14
		c-0.089,0.08-0.179,0.16-0.267,0.239c0.045,0.05,0.089,0.099,0.13,0.146c-0.088,0.078-0.178,0.159-0.267,0.239
		c0.042,0.046,0.084,0.093,0.128,0.143c-0.087,0.078-0.179,0.161-0.265,0.238c0.043,0.048,0.083,0.093,0.126,0.141
		c-0.179,0.333-0.358,0.665-0.537,0.999c0.042,0.047,0.084,0.094,0.125,0.14c-0.134,0.121-0.267,0.239-0.401,0.359
		c0.042,0.047,0.087,0.097,0.128,0.142c-0.134,0.207-0.266,0.414-0.4,0.616c0.044,0.048,0.085,0.095,0.129,0.144
		c-0.316,0.454-0.624,0.905-0.938,1.354c-2.017,4.283-6.805,9.389-11.675,11.243c-0.483,0.26-0.965,0.524-1.448,0.786
		c-0.04-0.046-0.086-0.097-0.128-0.144c-0.087,0.079-0.178,0.16-0.265,0.238c-0.042-0.046-0.087-0.096-0.126-0.141
		c-0.091,0.08-0.181,0.161-0.268,0.239c-0.043-0.048-0.085-0.095-0.128-0.143c-0.09,0.081-0.178,0.16-0.266,0.238
		c-0.044-0.048-0.085-0.095-0.128-0.143c-0.089,0.08-0.177,0.159-0.267,0.239c-0.041-0.045-0.085-0.095-0.128-0.143
		c-0.089,0.08-0.178,0.158-0.266,0.237c-0.04-0.044-0.085-0.094-0.127-0.142c-0.086,0.077-0.179,0.16-0.265,0.237
		c-0.127-0.053-0.261-0.107-0.385-0.161c-0.089,0.08-0.179,0.16-0.267,0.239c-0.133-0.062-0.261-0.115-0.388-0.169
		c-0.089,0.08-0.177,0.158-0.265,0.237c-0.305-0.071-0.61-0.14-0.912-0.214c-0.092,0.082-0.179,0.161-0.266,0.239
		c-0.565-0.095-1.13-0.186-1.69-0.286c-0.303,0.022-0.608,0.035-0.915,0.052c-0.085-0.095-0.171-0.19-0.258-0.286
		c-0.305,0.019-0.606,0.033-0.91,0.051c-0.087-0.097-0.172-0.191-0.254-0.284c-0.132,0.03-0.268,0.063-0.396,0.096
		c-0.085-0.095-0.172-0.191-0.256-0.285c-0.128,0.033-0.261,0.064-0.391,0.097c-0.345-0.205-0.69-0.415-1.032-0.619
		c-0.043,0.039-0.09,0.082-0.133,0.12c-0.086-0.097-0.169-0.19-0.258-0.288c-0.043,0.039-0.088,0.079-0.132,0.118
		c-0.338-0.204-0.687-0.408-1.031-0.616c-0.043,0.038-0.092,0.082-0.132,0.119c-0.129-0.144-0.255-0.285-0.382-0.426
		c-0.043,0.039-0.088,0.079-0.134,0.119c-0.086-0.097-0.171-0.191-0.256-0.286c-0.042,0.038-0.088,0.079-0.132,0.118
		c-0.557-0.443-1.115-0.886-1.67-1.328c-0.043,0.039-0.088,0.079-0.13,0.117c-0.214-0.238-0.427-0.476-0.641-0.714
		c-0.047,0.042-0.09,0.081-0.135,0.121c-0.255-0.284-0.513-0.573-0.767-0.855c-0.551-0.361-3.167-2.911-3.589-3.73
		c0.048-0.042,0.093-0.083,0.135-0.121c-0.298-0.333-0.592-0.66-0.896-0.999c0.045-0.04,0.088-0.079,0.135-0.12
		c-0.213-0.238-0.424-0.473-0.638-0.71c0.042-0.038,0.088-0.079,0.131-0.118c-0.171-0.191-0.342-0.381-0.514-0.572
		c0.042-0.038,0.088-0.079,0.132-0.119c-0.127-0.141-0.253-0.282-0.382-0.426c0.043-0.039,0.09-0.08,0.131-0.117
		c-0.172-0.191-0.342-0.381-0.513-0.573c0.043-0.04,0.088-0.08,0.132-0.118c-0.125-0.14-0.256-0.285-0.383-0.426
		c0.044-0.039,0.09-0.081,0.133-0.119c-0.083-0.093-0.171-0.19-0.255-0.285c0.041-0.038,0.09-0.081,0.133-0.119
		c-0.193-0.525-0.61-0.87-0.758-1.378c0.043-0.038,0.089-0.08,0.132-0.119c-0.128-0.226-0.252-0.461-0.38-0.689
		c0.043-0.039,0.087-0.078,0.131-0.117c-0.127-0.142-0.256-0.285-0.383-0.428c0.043-0.039,0.09-0.081,0.132-0.119
		c-0.084-0.093-0.17-0.189-0.256-0.284c0.043-0.039,0.089-0.079,0.131-0.117c-0.085-0.095-0.169-0.189-0.253-0.283
		c0.047-0.13,0.092-0.258,0.14-0.384c-0.086-0.097-0.171-0.191-0.255-0.284c0.043-0.039,0.088-0.079,0.131-0.118
		c-0.085-0.095-0.172-0.191-0.258-0.286c0.044-0.039,0.088-0.079,0.133-0.119c-0.084-0.095-0.17-0.189-0.255-0.284
		c0.043-0.039,0.089-0.081,0.131-0.117c-0.085-0.095-0.169-0.188-0.256-0.285c0.046-0.125,0.093-0.254,0.142-0.378
		c-0.128-0.23-0.252-0.462-0.381-0.692c0.046-0.125,0.091-0.259,0.139-0.382c-0.129-0.227-0.257-0.462-0.378-0.692
		c0.044-0.123,0.091-0.251,0.134-0.377c-0.086-0.095-0.171-0.19-0.256-0.285c0.049-0.215,0.099-0.43,0.145-0.641
		c-0.088-0.098-0.171-0.191-0.257-0.286c0.054-0.128,0.095-0.255,0.141-0.383c-0.084-0.094-0.171-0.19-0.255-0.283
		c0.048-0.122,0.093-0.256,0.137-0.38c-0.079-0.182-0.163-0.364-0.248-0.546c0.048-0.214,0.093-0.428,0.144-0.642
		c-0.085-0.095-0.171-0.189-0.257-0.286c0.046-0.212,0.094-0.424,0.143-0.638c-0.086-0.182-0.169-0.366-0.251-0.547
		c0.054-0.561,0.104-1.124,0.155-1.686c-0.083-0.093-0.172-0.191-0.254-0.283c0.055-0.479,0.107-0.955,0.154-1.43
		c-0.023-0.829-0.052-1.665-0.08-2.495c0.088-0.079,0.177-0.159,0.268-0.239c-0.034-0.571-0.068-1.141-0.102-1.711
		c0.087-0.079,0.179-0.161,0.266-0.239c-0.041-0.222-0.078-0.444-0.116-0.664c0.09-0.162,0.179-0.336,0.27-0.5
		c-0.041-0.134-0.084-0.271-0.122-0.401c0.09-0.08,0.177-0.159,0.266-0.239c-0.045-0.133-0.085-0.269-0.121-0.403
		c0.086-0.079,0.175-0.157,0.264-0.238c-0.04-0.222-0.082-0.445-0.116-0.667c0.134-0.204,0.265-0.411,0.403-0.616
		c-0.047-0.133-0.085-0.27-0.125-0.404c0.086-0.078,0.178-0.16,0.268-0.24c-0.042-0.047-0.086-0.096-0.127-0.142
		c0.087-0.079,0.174-0.157,0.264-0.237c-0.043-0.048-0.087-0.097-0.128-0.144c0.088-0.078,0.178-0.159,0.266-0.239
		c-0.041-0.046-0.084-0.094-0.128-0.143c0.089-0.079,0.178-0.159,0.266-0.237c0.651-2.568,2.05-5.182,3.137-7.702
		c0.267-0.323,0.535-0.646,0.798-0.971c-0.044-0.049-0.085-0.095-0.129-0.144c0.133-0.119,0.268-0.24,0.401-0.359
		c-0.043-0.048-0.085-0.095-0.129-0.143c0.176-0.157,0.35-0.313,0.527-0.472c-0.041-0.044-0.083-0.093-0.127-0.142
		c0.179-0.16,0.353-0.316,0.529-0.475c-0.042-0.046-0.083-0.093-0.127-0.141c0.353-0.316,0.711-0.637,1.063-0.954
		C524.202,308.226,524.158,308.179,524.119,308.134z"/>
	<path fill="#231F20" d="M450.2,402.201c1.634-1.465,3.268-2.931,4.903-4.397c0.905-0.812,2.031-1.941,2.911-2.353
		c0.972-0.785,1.942-1.571,2.913-2.351c0.042,0.046,0.082,0.091,0.127,0.141c0.266-0.239,0.53-0.475,0.798-0.715
		c0.042,0.046,0.086,0.095,0.127,0.141c0.219-0.196,0.439-0.394,0.658-0.59c0.042,0.046,0.086,0.097,0.128,0.143
		c0.179-0.161,0.356-0.32,0.532-0.477c0.042,0.047,0.084,0.095,0.128,0.143c0.179-0.161,0.354-0.318,0.531-0.477
		c0.04,0.045,0.085,0.095,0.124,0.138c0.176-0.159,0.352-0.316,0.53-0.475c2.215-0.834,4.594-2.093,6.837-3.04
		c1.891-1.183,3.784-2.363,5.671-3.542c4.009-3.082,8.023-6.163,12.027-9.244c0.042,0.046,0.085,0.095,0.131,0.145
		c0.401-0.36,0.798-0.716,1.195-1.072c1.524-0.706,3.112-2.177,4.611-2.853c0.532-0.39,1.059-0.776,1.586-1.165
		c0.042,0.047,0.086,0.096,0.126,0.142c0.396-0.268,0.795-0.539,1.187-0.809c0.045,0.05,0.086,0.097,0.129,0.145
		c0.178-0.159,0.354-0.318,0.531-0.475c0.042,0.047,0.084,0.095,0.127,0.143c0.133-0.118,0.267-0.239,0.399-0.357
		c0.04,0.044,0.085,0.095,0.125,0.14c0.132-0.118,0.265-0.237,0.399-0.357c0.043,0.048,0.086,0.096,0.128,0.143
		c0.131-0.117,0.265-0.238,0.396-0.355c0.04,0.045,0.084,0.095,0.128,0.144c0.308-0.193,0.617-0.382,0.923-0.577
		c0.045,0.051,0.09,0.101,0.128,0.144c0.22-0.109,0.438-0.222,0.66-0.331c0.044,0.048,0.084,0.092,0.126,0.14
		c0.131-0.118,0.266-0.239,0.395-0.355c0.044,0.048,0.088,0.099,0.129,0.144c0.221-0.114,0.439-0.224,0.66-0.331
		c0.04,0.045,0.083,0.093,0.125,0.14c0.092-0.082,0.18-0.161,0.269-0.241c0.127,0.06,0.257,0.114,0.383,0.168
		c0.353-0.144,0.702-0.283,1.054-0.428c0.13,0.054,0.26,0.109,0.388,0.166c0.089-0.08,0.176-0.157,0.265-0.237
		c0.215,0.064,0.431,0.12,0.647,0.184c0.09-0.08,0.176-0.159,0.266-0.239c0.128,0.057,0.26,0.117,0.389,0.166
		c0.087-0.078,0.175-0.157,0.264-0.237c0.304,0.071,0.609,0.142,0.912,0.213c0.09-0.081,0.177-0.159,0.265-0.237
		c0.825,0.122,1.651,0.24,2.469,0.355c0.09-0.08,0.18-0.161,0.266-0.238c0.135,0.057,0.263,0.109,0.393,0.168
		c0.304-0.018,0.605-0.034,0.909-0.051c0.087,0.097,0.172,0.192,0.258,0.287c0.738,0.021,1.477,0.048,2.212,0.073
		c0.174,0.104,0.348,0.204,0.515,0.307c0.223-0.022,0.44-0.049,0.653-0.07c0.086,0.095,0.17,0.19,0.254,0.283
		c0.133-0.032,0.265-0.066,0.396-0.095c0.169,0.103,0.342,0.204,0.515,0.304c0.041-0.037,0.088-0.079,0.13-0.116
		c0.086,0.097,0.171,0.191,0.256,0.286c0.13-0.031,0.266-0.063,0.394-0.097c0.087,0.096,0.172,0.191,0.257,0.286
		c0.127-0.034,0.26-0.065,0.394-0.095c0.342,0.206,0.688,0.408,1.034,0.617c0.045-0.04,0.091-0.082,0.133-0.12
		c0.084,0.093,0.169,0.188,0.255,0.283c0.04-0.038,0.087-0.08,0.132-0.119c0.34,0.207,0.69,0.414,1.028,0.617
		c0.045-0.04,0.091-0.082,0.132-0.118c0.131,0.145,0.259,0.288,0.382,0.426c0.044-0.039,0.091-0.081,0.135-0.121
		c0.09,0.1,0.171,0.191,0.259,0.288c0.043-0.039,0.085-0.077,0.13-0.117c0.127,0.142,0.255,0.283,0.385,0.427
		c0.042-0.038,0.09-0.08,0.134-0.12c0.083,0.093,0.168,0.188,0.254,0.283c0.041-0.036,0.088-0.079,0.129-0.115
		c0.171,0.192,0.34,0.379,0.512,0.571c0.047-0.042,0.092-0.082,0.134-0.121c0.129,0.143,0.257,0.286,0.384,0.428
		c0.043-0.039,0.087-0.079,0.132-0.117c0.126,0.142,0.254,0.284,0.382,0.427c0.045-0.04,0.09-0.081,0.135-0.12
		c0.172,0.191,0.339,0.377,0.512,0.57c0.041-0.036,0.088-0.078,0.129-0.115c0.171,0.189,0.34,0.377,0.51,0.568
		c0.047-0.042,0.091-0.081,0.135-0.12c0.215,0.238,0.428,0.477,0.642,0.714c0.042-0.039,0.086-0.079,0.13-0.117
		c0.214,0.238,0.428,0.478,0.642,0.715c0.045-0.04,0.09-0.081,0.134-0.119c0.213,0.238,0.426,0.476,0.637,0.711
		c0.042-0.038,0.089-0.081,0.131-0.117c0.257,0.286,0.513,0.572,0.768,0.857c0.046-0.042,0.09-0.08,0.134-0.12
		c0.301,0.334,0.598,0.666,0.893,0.995c0.042-0.037,0.089-0.079,0.133-0.12c0.343,0.382,0.685,0.763,1.024,1.142
		c0.041-0.037,0.088-0.079,0.13-0.117c0.382,0.426,0.766,0.854,1.151,1.283c0.042-0.039,0.088-0.08,0.132-0.119
		c0.471,0.524,0.938,1.045,1.408,1.569c0.044-0.04,0.087-0.078,0.132-0.118c3.503,3.461,7.003,6.919,10.506,10.381
		c1.457,0.956,2.931,2.628,4.366,3.542c0.211,0.236,0.425,0.475,0.638,0.712c0.048-0.042,0.093-0.082,0.135-0.12
		c0.214,0.237,0.428,0.476,0.641,0.714c0.043-0.039,0.088-0.079,0.135-0.121c0.172,0.191,0.34,0.379,0.514,0.573
		c0.041-0.037,0.085-0.077,0.129-0.116c0.211,0.237,0.425,0.475,0.638,0.712c2.319,1.521,4.643,3.037,6.962,4.558
		c0.214,0.239,0.429,0.478,0.643,0.716c1.101,0.691,2.337,1.796,3.471,2.541c0.814,0.815,1.624,1.632,2.431,2.445
		c0.866,0.577,1.943,1.903,2.817,2.878c2.12,2.362,3.868,4.604,4.968,6.863c0.588,0.926,1.182,1.855,1.775,2.783
		c0.875,1.954,1.755,3.911,2.629,5.869c-0.042,0.038-0.087,0.079-0.129,0.115c0.087,0.097,0.171,0.19,0.256,0.285
		c-0.047,0.042-0.093,0.083-0.135,0.12c0.128,0.143,0.255,0.284,0.385,0.43c-0.042,0.038-0.087,0.078-0.134,0.12
		c0.167,0.358,0.334,0.725,0.505,1.088c-0.047,0.042-0.092,0.082-0.135,0.121c0.085,0.095,0.171,0.19,0.256,0.284
		c-0.045,0.04-0.088,0.079-0.131,0.118c0.083,0.093,0.169,0.189,0.251,0.281c-0.044,0.04-0.09,0.082-0.132,0.119
		c0.09,0.1,0.174,0.193,0.259,0.288c-0.043,0.039-0.09,0.081-0.135,0.12c0.086,0.095,0.172,0.191,0.258,0.287
		c-0.043,0.039-0.086,0.077-0.131,0.117c0.081,0.091,0.169,0.19,0.251,0.281c-0.041,0.037-0.09,0.08-0.131,0.118
		c0.086,0.097,0.171,0.192,0.255,0.284c-0.043,0.039-0.089,0.08-0.131,0.118c0.085,0.094,0.172,0.191,0.257,0.286
		c-0.044,0.038-0.091,0.082-0.133,0.119c0.084,0.095,0.171,0.192,0.255,0.285c-0.046,0.125-0.096,0.256-0.139,0.382
		c0.165,0.363,0.336,0.729,0.503,1.093c-0.045,0.04-0.088,0.078-0.134,0.12c0.087,0.181,0.169,0.366,0.249,0.542
		c-0.044,0.127-0.087,0.259-0.135,0.383c0.127,0.231,0.255,0.459,0.377,0.691c-0.044,0.126-0.089,0.252-0.136,0.381
		c0.086,0.096,0.17,0.189,0.254,0.282c-0.044,0.214-0.096,0.431-0.139,0.641c0.085,0.095,0.172,0.191,0.255,0.285
		c-0.05,0.128-0.096,0.257-0.141,0.378c0.089,0.098,0.171,0.191,0.257,0.287c-0.048,0.217-0.095,0.43-0.143,0.644
		c0.085,0.095,0.169,0.19,0.253,0.282c-0.051,0.304-0.098,0.602-0.147,0.901c0.085,0.095,0.172,0.191,0.258,0.286
		c-0.06,0.475-0.106,0.95-0.158,1.427c0.085,0.095,0.171,0.191,0.257,0.286c-0.06,0.821-0.117,1.645-0.178,2.471
		c0.034,0.484,0.071,0.967,0.104,1.451c-0.088,0.079-0.175,0.157-0.265,0.237c0.036,0.397,0.073,0.79,0.109,1.188
		c-0.086,0.077-0.176,0.157-0.267,0.239c0.041,0.309,0.075,0.617,0.118,0.927c-0.093,0.167-0.18,0.336-0.272,0.499
		c0.044,0.136,0.083,0.269,0.123,0.407c-0.087,0.077-0.175,0.157-0.263,0.236c0.039,0.135,0.081,0.268,0.12,0.401
		c-0.089,0.167-0.177,0.334-0.269,0.5c0.044,0.048,0.085,0.095,0.129,0.143c-0.09,0.08-0.176,0.157-0.269,0.24
		c0.044,0.132,0.086,0.269,0.126,0.401c-0.092,0.163-0.182,0.333-0.272,0.502c0.042,0.047,0.084,0.093,0.128,0.143
		c-0.137,0.203-0.267,0.412-0.404,0.614c0.043,0.132,0.086,0.27,0.125,0.402c-0.088,0.079-0.178,0.159-0.267,0.239
		c0.044,0.048,0.086,0.096,0.128,0.142c-0.088,0.079-0.178,0.159-0.266,0.237c0.043,0.049,0.088,0.099,0.129,0.145
		c-0.087,0.079-0.179,0.161-0.266,0.24c0.041,0.046,0.082,0.092,0.127,0.142c-0.088,0.078-0.178,0.159-0.266,0.237
		c0.044,0.048,0.085,0.095,0.129,0.143c-0.182,0.334-0.362,0.667-0.543,0.997c0.045,0.05,0.087,0.096,0.129,0.143
		c-0.181,0.246-0.354,0.496-0.536,0.735c0.042,0.047,0.087,0.097,0.129,0.143c-0.091,0.081-0.179,0.161-0.265,0.238
		c0.042,0.048,0.083,0.093,0.128,0.143c-0.135,0.121-0.267,0.24-0.398,0.358c0.043,0.048,0.085,0.094,0.128,0.143
		c-0.088,0.08-0.176,0.158-0.269,0.241c0.038,0.043,0.085,0.095,0.126,0.141c-0.312,0.448-0.623,0.9-0.937,1.35
		c0.043,0.046,0.089,0.099,0.13,0.145c-0.447,0.566-0.887,1.141-1.334,1.708c0.042,0.047,0.086,0.097,0.129,0.145
		c-0.267,0.239-0.529,0.475-0.792,0.711c-0.654,1.083-1.719,2.051-2.929,3.136c-1.235,1.109-2.477,2.221-3.711,3.329
		c-0.044-0.049-0.086-0.095-0.126-0.14c-0.265,0.237-0.531,0.477-0.793,0.711c-0.044-0.05-0.089-0.101-0.128-0.144
		c-0.222,0.198-0.442,0.396-0.663,0.595c-0.044-0.047-0.088-0.097-0.131-0.145c-0.177,0.159-0.353,0.316-0.528,0.475
		c-0.044-0.049-0.084-0.093-0.127-0.142c-0.178,0.159-0.353,0.317-0.53,0.476c-0.045-0.051-0.087-0.097-0.127-0.142
		c-0.133,0.118-0.268,0.239-0.399,0.357c-0.041-0.046-0.089-0.099-0.129-0.145c-0.135,0.121-0.266,0.239-0.397,0.357
		c-0.039-0.045-0.085-0.094-0.126-0.14c-0.132,0.119-0.269,0.241-0.396,0.356c-0.045-0.05-0.087-0.096-0.129-0.143
		c-0.135,0.12-0.269,0.241-0.4,0.359c-0.042-0.046-0.089-0.099-0.127-0.141c-0.131,0.117-0.266,0.238-0.397,0.355
		c-0.043-0.047-0.085-0.094-0.128-0.142c-0.311,0.187-0.615,0.38-0.924,0.569c-0.041-0.047-0.086-0.097-0.128-0.144
		c-0.089,0.08-0.179,0.161-0.267,0.24c-0.038-0.043-0.085-0.095-0.127-0.142c-0.129,0.116-0.265,0.238-0.395,0.355
		c-0.042-0.047-0.084-0.093-0.129-0.144c-0.09,0.08-0.178,0.159-0.267,0.239c-0.041-0.047-0.086-0.095-0.124-0.138
		c-0.133,0.12-0.267,0.24-0.399,0.358c-0.045-0.05-0.09-0.1-0.13-0.145c-0.09,0.08-0.176,0.158-0.264,0.237
		c-0.045-0.048-0.086-0.095-0.129-0.144c-0.133,0.119-0.268,0.24-0.398,0.358c-0.045-0.048-0.086-0.095-0.128-0.141
		c-0.354,0.143-0.701,0.283-1.053,0.427c-0.042-0.046-0.084-0.093-0.127-0.141c-0.09,0.081-0.177,0.159-0.265,0.238
		c-0.043-0.048-0.087-0.097-0.129-0.144c-0.09,0.081-0.178,0.16-0.267,0.239c-0.04-0.045-0.084-0.095-0.125-0.14
		c-0.09,0.081-0.178,0.159-0.268,0.239c-0.045-0.05-0.086-0.096-0.129-0.143c-0.087,0.079-0.177,0.158-0.266,0.239
		c-0.043-0.048-0.088-0.098-0.128-0.143c-0.088,0.079-0.176,0.157-0.265,0.237c-0.041-0.047-0.085-0.094-0.128-0.142
		c-0.086,0.079-0.176,0.159-0.266,0.239c-0.043-0.048-0.087-0.097-0.129-0.143c-0.088,0.078-0.176,0.157-0.264,0.237
		c-0.044-0.047-0.086-0.094-0.129-0.142c-0.088,0.079-0.178,0.159-0.267,0.239c-0.127-0.058-0.258-0.111-0.385-0.169
		c-0.221,0.114-0.441,0.221-0.655,0.334c-0.131-0.059-0.264-0.109-0.392-0.166c-0.086,0.077-0.178,0.159-0.267,0.239
		c-0.04-0.044-0.085-0.095-0.127-0.141c-0.177,0.07-0.349,0.145-0.525,0.213c-0.129-0.057-0.258-0.107-0.386-0.164
		c-0.09,0.08-0.178,0.159-0.266,0.238c-0.219-0.063-0.432-0.126-0.65-0.186c-0.085,0.077-0.175,0.157-0.261,0.235
		c-0.222-0.064-0.435-0.128-0.652-0.191c-0.088,0.079-0.179,0.161-0.265,0.237c-0.303-0.071-0.607-0.14-0.91-0.214
		c-0.089,0.08-0.177,0.158-0.267,0.239c-0.735-0.111-1.475-0.224-2.207-0.335c-0.914-0.036-1.826-0.078-2.738-0.114
		c-0.083-0.094-0.17-0.19-0.257-0.287c-0.392,0.01-0.78,0.019-1.169,0.025c-0.085-0.095-0.17-0.19-0.257-0.287
		c-0.22,0.026-0.438,0.05-0.657,0.073c-0.084-0.093-0.171-0.189-0.254-0.282c-0.218,0.024-0.437,0.046-0.653,0.071
		c-0.083-0.093-0.169-0.189-0.256-0.286c-0.126,0.036-0.26,0.062-0.39,0.098c-0.086-0.096-0.172-0.191-0.256-0.285
		c-0.22,0.02-0.438,0.048-0.652,0.072c-0.086-0.095-0.171-0.19-0.258-0.288c-0.131,0.039-0.263,0.067-0.391,0.098
		c-0.215-0.15-0.434-0.299-0.646-0.451c-0.042,0.038-0.088,0.079-0.132,0.119c-0.172-0.105-0.347-0.206-0.515-0.31
		c-0.129,0.032-0.262,0.063-0.393,0.097c-0.216-0.153-0.432-0.305-0.643-0.457c-0.135,0.034-0.264,0.067-0.397,0.098
		c-0.341-0.208-0.685-0.411-1.027-0.62c-0.135,0.032-0.264,0.065-0.396,0.098c-0.086-0.095-0.17-0.19-0.255-0.285
		c-0.043,0.038-0.087,0.078-0.13,0.116c-0.085-0.094-0.17-0.189-0.256-0.284c-0.047,0.042-0.09,0.082-0.131,0.119
		c-0.087-0.097-0.172-0.192-0.256-0.285c-0.045,0.041-0.09,0.08-0.133,0.119c-0.086-0.095-0.172-0.191-0.255-0.285
		c-0.041,0.037-0.09,0.08-0.134,0.12c-0.213-0.151-0.43-0.302-0.642-0.455c-0.134,0.036-0.265,0.065-0.396,0.1
		c-0.087-0.096-0.172-0.19-0.259-0.288c-0.041,0.037-0.086,0.077-0.131,0.118c-0.081-0.092-0.171-0.192-0.253-0.283
		c-0.043,0.038-0.089,0.08-0.129,0.117c-0.088-0.098-0.171-0.19-0.255-0.283c-0.045,0.041-0.09,0.081-0.133,0.119
		c-0.084-0.094-0.172-0.19-0.256-0.286c-0.044,0.039-0.09,0.081-0.134,0.12c-0.087-0.096-0.173-0.191-0.255-0.284
		c-0.044,0.039-0.089,0.08-0.13,0.116c-0.085-0.095-0.172-0.192-0.257-0.287c-0.047,0.042-0.093,0.083-0.134,0.121
		c-0.083-0.092-0.172-0.189-0.252-0.281c-0.044,0.039-0.088,0.079-0.132,0.117c-0.347-0.208-0.69-0.414-1.033-0.62
		c-0.135,0.033-0.264,0.065-0.394,0.098c-0.087-0.097-0.172-0.191-0.256-0.284c-0.044,0.04-0.089,0.079-0.134,0.119
		c-0.087-0.098-0.171-0.191-0.256-0.286c-0.042,0.038-0.09,0.081-0.131,0.118c-0.085-0.095-0.171-0.192-0.255-0.285
		c-0.045,0.041-0.088,0.079-0.133,0.119c-0.086-0.095-0.171-0.189-0.253-0.283c-0.044,0.038-0.086,0.077-0.133,0.118
		c-0.088-0.098-0.172-0.191-0.258-0.287c-0.13,0.03-0.261,0.061-0.391,0.097c-0.345-0.208-0.691-0.414-1.034-0.616
		c-0.131,0.03-0.264,0.062-0.393,0.094c-0.217-0.151-0.431-0.299-0.645-0.456c-0.13,0.035-0.263,0.064-0.391,0.102
		c-0.218-0.153-0.433-0.303-0.648-0.456c-0.128,0.032-0.265,0.063-0.395,0.096c-0.211-0.152-0.429-0.302-0.645-0.449
		c-0.041,0.037-0.087,0.077-0.129,0.116c-0.173-0.103-0.346-0.209-0.516-0.309c-0.134,0.03-0.261,0.063-0.396,0.097
		c-0.087-0.096-0.171-0.188-0.254-0.282c-0.041,0.038-0.087,0.079-0.129,0.116c-0.176-0.101-0.349-0.205-0.518-0.307
		c-0.132,0.03-0.261,0.065-0.393,0.094c-0.085-0.095-0.171-0.19-0.258-0.286c-0.212,0.026-0.437,0.05-0.651,0.077
		c-0.087-0.099-0.171-0.192-0.256-0.287c-0.13,0.032-0.26,0.064-0.395,0.098c-0.085-0.095-0.171-0.192-0.255-0.285
		c-0.218,0.02-0.435,0.048-0.652,0.069c-0.085-0.095-0.17-0.19-0.254-0.283c-0.392,0.005-0.783,0.015-1.175,0.021
		c-0.083-0.093-0.17-0.19-0.257-0.286c-0.476,0.003-0.953,0.002-1.434,0.004c-0.085-0.094-0.17-0.19-0.257-0.286
		c-0.821-0.031-1.651-0.063-2.474-0.094c-0.825-0.118-1.649-0.234-2.469-0.355c-0.092,0.082-0.18,0.16-0.269,0.24
		c-0.563-0.095-1.127-0.19-1.69-0.286c-0.175,0.073-0.35,0.146-0.527,0.216c-0.218-0.064-0.434-0.128-0.648-0.191
		c-0.089,0.081-0.177,0.16-0.269,0.241c-0.213-0.061-0.427-0.124-0.646-0.188c-0.174,0.07-0.348,0.143-0.523,0.212
		c-0.129-0.056-0.259-0.109-0.392-0.167c-0.087,0.077-0.178,0.159-0.264,0.236c-0.129-0.053-0.26-0.106-0.387-0.157
		c-0.086,0.076-0.176,0.157-0.263,0.236c-0.222-0.063-0.435-0.127-0.65-0.189c-0.219,0.106-0.438,0.218-0.658,0.329
		c-0.13-0.055-0.258-0.111-0.386-0.164c-0.089,0.081-0.177,0.159-0.264,0.237c-0.13-0.057-0.256-0.111-0.389-0.167
		c-0.088,0.079-0.176,0.157-0.269,0.24c-0.125-0.056-0.258-0.113-0.383-0.167c-0.22,0.114-0.441,0.221-0.662,0.332
		c-0.128-0.053-0.258-0.111-0.383-0.164c-0.09,0.082-0.178,0.161-0.267,0.239c-0.042-0.048-0.086-0.096-0.128-0.142
		c-0.091,0.082-0.179,0.161-0.267,0.239c-0.127-0.061-0.261-0.111-0.388-0.166c-0.22,0.11-0.436,0.22-0.659,0.332
		c-0.127-0.056-0.259-0.113-0.383-0.169c-0.091,0.082-0.179,0.16-0.269,0.241c-0.041-0.046-0.087-0.096-0.129-0.144
		c-0.085,0.077-0.175,0.158-0.263,0.236c-0.041-0.047-0.085-0.095-0.127-0.143c-0.09,0.08-0.181,0.161-0.269,0.24
		c-0.042-0.046-0.085-0.095-0.126-0.141c-0.088,0.078-0.178,0.158-0.265,0.237c-0.13-0.058-0.258-0.111-0.384-0.166
		c-0.09,0.081-0.178,0.159-0.265,0.238c-0.045-0.049-0.085-0.094-0.13-0.145c-0.089,0.08-0.179,0.161-0.267,0.239
		c-0.039-0.043-0.085-0.095-0.128-0.143c-0.09,0.08-0.178,0.159-0.267,0.239c-0.039-0.043-0.083-0.091-0.126-0.14
		c-0.087,0.079-0.177,0.159-0.266,0.239c-0.128-0.056-0.258-0.111-0.386-0.167c-0.091,0.082-0.18,0.16-0.266,0.239
		c-0.042-0.047-0.087-0.097-0.127-0.142c-0.091,0.081-0.177,0.16-0.267,0.239c-0.044-0.047-0.087-0.096-0.129-0.142
		c-0.089,0.08-0.176,0.158-0.266,0.239c-0.044-0.048-0.084-0.095-0.129-0.143c-0.088,0.078-0.174,0.157-0.267,0.238
		c-0.042-0.046-0.085-0.094-0.126-0.141c-0.087,0.078-0.175,0.157-0.265,0.237c-0.042-0.048-0.085-0.097-0.129-0.144
		c-0.087,0.079-0.175,0.158-0.264,0.237c-0.042-0.046-0.085-0.095-0.129-0.143c-0.089,0.08-0.177,0.159-0.267,0.239
		c-0.04-0.045-0.084-0.095-0.126-0.142c-0.217,0.111-0.439,0.22-0.657,0.333c-0.129-0.062-0.259-0.113-0.392-0.166
		c-0.216,0.111-0.433,0.218-0.656,0.33c-0.04-0.044-0.085-0.095-0.127-0.141c-0.089,0.08-0.175,0.157-0.265,0.237
		c-0.041-0.046-0.083-0.093-0.125-0.141c-0.088,0.078-0.175,0.157-0.268,0.238c-0.042-0.049-0.086-0.097-0.126-0.142
		c-0.088,0.079-0.175,0.158-0.265,0.238c-0.042-0.046-0.088-0.098-0.128-0.143c-0.087,0.079-0.18,0.161-0.267,0.239
		c-0.128-0.056-0.262-0.111-0.386-0.168c-0.091,0.083-0.179,0.161-0.267,0.24c-0.042-0.047-0.087-0.098-0.13-0.146
		c-0.09,0.081-0.177,0.16-0.266,0.24c-0.126-0.054-0.263-0.111-0.387-0.165c-0.353,0.143-0.699,0.286-1.053,0.432
		c-0.124-0.056-0.257-0.111-0.384-0.165c-0.22,0.11-0.438,0.216-0.658,0.328c-0.041-0.046-0.082-0.091-0.126-0.142
		c-0.178,0.072-0.353,0.146-0.528,0.218c-0.127-0.06-0.257-0.111-0.386-0.171c-0.221,0.115-0.437,0.226-0.656,0.334
		c-0.043-0.048-0.087-0.097-0.127-0.141c-0.174,0.072-0.353,0.142-0.525,0.216c-0.131-0.06-0.261-0.115-0.388-0.169
		c-0.088,0.081-0.176,0.159-0.268,0.241c-0.127-0.056-0.259-0.112-0.384-0.169c-0.175,0.074-0.353,0.146-0.529,0.216
		c-0.3-0.073-0.608-0.142-0.909-0.214c-0.088,0.08-0.177,0.159-0.264,0.237c-1.003-0.131-1.997-0.271-2.995-0.402
		c-0.74-0.024-1.48-0.047-2.213-0.072c-0.084-0.095-0.171-0.191-0.254-0.285c-0.307,0.014-0.609,0.03-0.914,0.048
		c-0.086-0.097-0.17-0.19-0.257-0.286c-0.217,0.027-0.433,0.049-0.65,0.073c-0.087-0.097-0.173-0.191-0.255-0.285
		c-0.22,0.025-0.438,0.048-0.656,0.072c-0.085-0.095-0.169-0.19-0.255-0.285c-0.129,0.033-0.261,0.065-0.395,0.1
		c-0.167-0.104-0.341-0.207-0.511-0.311c-0.047,0.042-0.092,0.083-0.133,0.12c-0.086-0.098-0.171-0.192-0.256-0.287
		c-0.132,0.034-0.26,0.064-0.396,0.099c-0.21-0.153-0.427-0.304-0.638-0.454c-0.135,0.034-0.267,0.064-0.399,0.096
		c-0.213-0.151-0.428-0.301-0.644-0.45c-0.133,0.032-0.262,0.064-0.391,0.097c-0.087-0.097-0.172-0.191-0.259-0.289
		c-0.043,0.039-0.09,0.08-0.132,0.119c-0.084-0.093-0.171-0.191-0.253-0.283c-0.044,0.038-0.088,0.078-0.133,0.119
		c-0.087-0.097-0.17-0.189-0.254-0.283c-0.042,0.036-0.089,0.081-0.131,0.117c-0.086-0.097-0.171-0.191-0.256-0.286
		c-0.045,0.04-0.088,0.078-0.133,0.118c-0.084-0.094-0.171-0.191-0.254-0.284c-0.045,0.04-0.09,0.08-0.132,0.119
		c-0.089-0.099-0.171-0.19-0.257-0.287c-0.043,0.039-0.088,0.079-0.134,0.12c-0.342-0.203-0.687-0.413-1.032-0.618
		c-0.043,0.039-0.086,0.077-0.131,0.117c-0.128-0.142-0.257-0.286-0.382-0.426c-0.043,0.039-0.087,0.079-0.131,0.118
		c-0.216-0.152-0.432-0.298-0.644-0.453c-0.043,0.039-0.088,0.078-0.135,0.12c-0.256-0.199-0.512-0.398-0.771-0.597
		c-0.042,0.039-0.087,0.079-0.128,0.116c-0.475-0.346-0.946-0.695-1.419-1.042c-4.266-2.269-10.758-7.318-13.333-12.734
		c-0.213-0.237-0.428-0.477-0.64-0.714c0.043-0.039,0.085-0.077,0.13-0.117c-0.127-0.142-0.253-0.283-0.383-0.428
		c0.046-0.042,0.089-0.08,0.132-0.118c-0.254-0.369-0.502-0.744-0.762-1.116c0.043-0.038,0.089-0.08,0.132-0.118
		c-0.127-0.142-0.255-0.285-0.38-0.424c0.042-0.039,0.086-0.077,0.132-0.119c-0.088-0.099-0.17-0.189-0.258-0.289
		c0.045-0.04,0.087-0.078,0.131-0.117c-0.127-0.141-0.255-0.285-0.383-0.426c0.043-0.039,0.091-0.082,0.133-0.119
		c-0.083-0.093-0.17-0.189-0.255-0.285c0.045-0.04,0.09-0.08,0.133-0.118c-0.13-0.145-0.255-0.285-0.382-0.426
		c0.043-0.039,0.089-0.08,0.133-0.119c-0.168-0.363-0.337-0.731-0.503-1.093c0.045-0.04,0.089-0.08,0.131-0.117
		c-0.086-0.096-0.17-0.189-0.257-0.286c0.047-0.042,0.092-0.082,0.135-0.12c-0.166-0.361-0.333-0.728-0.504-1.095
		c0.049-0.122,0.096-0.254,0.144-0.377c-0.131-0.228-0.254-0.46-0.384-0.69c0.046-0.127,0.091-0.255,0.139-0.382
		c-0.125-0.229-0.254-0.459-0.378-0.687c0.042-0.037,0.09-0.081,0.131-0.117c-0.085-0.185-0.167-0.366-0.251-0.546
		c0.046-0.128,0.094-0.256,0.137-0.384c-0.083-0.093-0.171-0.189-0.252-0.281c0.044-0.213,0.094-0.429,0.143-0.644
		c-0.085-0.095-0.171-0.191-0.255-0.284c0.048-0.214,0.094-0.426,0.141-0.643c-0.085-0.094-0.17-0.189-0.254-0.283
		c0.051-0.297,0.098-0.601,0.146-0.903c-0.083-0.093-0.17-0.189-0.257-0.286c0.058-0.735,0.114-1.475,0.173-2.208
		c-0.085-0.096-0.17-0.19-0.255-0.285c0.046-0.125,0.089-0.254,0.138-0.379c-0.035-0.485-0.072-0.969-0.109-1.45
		c0.09-0.081,0.178-0.159,0.265-0.237c-0.027-0.657-0.063-1.316-0.09-1.973c0.086-0.077,0.177-0.159,0.263-0.236
		c-0.037-0.396-0.072-0.797-0.106-1.192c0.087-0.079,0.175-0.157,0.267-0.239c-0.043-0.224-0.083-0.444-0.118-0.664
		c0.087-0.168,0.179-0.333,0.268-0.501c-0.041-0.131-0.082-0.271-0.12-0.402c0.086-0.077,0.174-0.156,0.263-0.236
		c-0.043-0.138-0.081-0.27-0.123-0.406c0.088-0.079,0.176-0.158,0.268-0.239c-0.038-0.218-0.079-0.44-0.119-0.665
		c0.087-0.079,0.175-0.157,0.267-0.239c-0.042-0.13-0.083-0.269-0.125-0.398c0.138-0.207,0.27-0.413,0.402-0.618
		c-0.042-0.134-0.082-0.271-0.12-0.403c0.087-0.166,0.175-0.334,0.267-0.498c-0.043-0.049-0.085-0.095-0.128-0.144
		c0.181-0.334,0.36-0.668,0.543-1c-0.045-0.134-0.083-0.269-0.125-0.402c0.865-2.152,1.729-4.295,2.592-6.441
		c1.075-1.823,2.151-3.644,3.229-5.463c0.756-0.849,1.507-1.696,2.263-2.546C450.291,402.302,450.246,402.251,450.2,402.201z"/>
	<path fill="#231F20" d="M564.993,348.378c6.428-5.371,12.438-6.482,18.721-4.449c0.216,0.15,0.435,0.3,0.648,0.452
		c0.04-0.036,0.088-0.078,0.132-0.118c0.215,0.152,0.429,0.304,0.645,0.455c0.044-0.04,0.09-0.08,0.134-0.12
		c0.126,0.14,0.254,0.282,0.384,0.427c0.041-0.036,0.088-0.078,0.129-0.115c0.082,0.091,0.172,0.191,0.254,0.283
		c0.043-0.039,0.09-0.083,0.133-0.121c0.128,0.142,0.256,0.285,0.383,0.426c0.044-0.039,0.086-0.077,0.131-0.117
		c0.128,0.142,0.255,0.284,0.384,0.427c0.045-0.04,0.09-0.081,0.134-0.119c0.127,0.144,0.253,0.283,0.382,0.428
		c0.044-0.038,0.089-0.08,0.13-0.117c0.214,0.238,0.426,0.474,0.64,0.712c0.043-0.039,0.091-0.082,0.134-0.121
		c0.214,0.238,0.426,0.475,0.639,0.713c0.043-0.039,0.087-0.078,0.131-0.117c0.301,0.334,0.598,0.666,0.896,0.999
		c0.521,0.346,2.275,1.924,2.693,2.731c-0.045,0.04-0.09,0.081-0.135,0.121c0.382,0.426,0.768,0.855,1.149,1.281
		c0.842,1.558,1.684,3.119,2.527,4.679c-0.045,0.04-0.092,0.082-0.135,0.121c0.088,0.098,0.17,0.189,0.259,0.288
		c-0.045,0.04-0.088,0.078-0.131,0.117c0.124,0.14,0.252,0.281,0.38,0.424c-0.045,0.04-0.092,0.083-0.133,0.12
		c0.085,0.095,0.171,0.192,0.254,0.285c-0.041,0.037-0.087,0.08-0.132,0.119c0.128,0.144,0.256,0.287,0.385,0.43
		c-0.043,0.039-0.086,0.077-0.13,0.117c0.165,0.361,0.334,0.729,0.502,1.093c-0.045,0.04-0.09,0.08-0.134,0.121
		c0.083,0.092,0.17,0.189,0.252,0.281c-0.045,0.04-0.089,0.078-0.131,0.117c0.165,0.368,0.338,0.733,0.503,1.098
		c-0.046,0.123-0.091,0.254-0.136,0.378c0.164,0.366,0.333,0.731,0.5,1.094c-0.047,0.123-0.089,0.254-0.137,0.384
		c0.082,0.091,0.171,0.19,0.253,0.282c-0.044,0.123-0.089,0.253-0.135,0.375c0.086,0.097,0.174,0.193,0.258,0.287
		c-0.051,0.125-0.094,0.257-0.141,0.384c0.085,0.094,0.17,0.189,0.255,0.284c-0.046,0.125-0.094,0.255-0.138,0.379
		c0.087,0.097,0.172,0.192,0.254,0.285c-0.046,0.128-0.092,0.253-0.139,0.383c0.085,0.095,0.17,0.19,0.255,0.284
		c-0.042,0.213-0.093,0.426-0.14,0.64c0.086,0.097,0.17,0.189,0.253,0.283c-0.048,0.304-0.098,0.604-0.147,0.905
		c0.085,0.095,0.17,0.189,0.254,0.284c-0.045,0.387-0.1,0.774-0.146,1.165c0.086,0.095,0.171,0.19,0.256,0.285
		c-0.063,0.821-0.119,1.646-0.181,2.471c0.032,0.746,0.063,1.493,0.095,2.233c-0.09,0.08-0.179,0.16-0.267,0.239
		c0.037,0.484,0.07,0.968,0.104,1.45c-0.089,0.167-0.182,0.334-0.27,0.498c0.039,0.223,0.077,0.444,0.114,0.668
		c-0.087,0.079-0.175,0.157-0.265,0.237c0.042,0.133,0.082,0.269,0.127,0.404c-0.089,0.079-0.179,0.161-0.266,0.237
		c0.037,0.222,0.075,0.443,0.113,0.667c-0.085,0.077-0.177,0.159-0.263,0.235c0.042,0.137,0.079,0.272,0.121,0.405
		c-0.091,0.169-0.184,0.332-0.271,0.5c0.044,0.05,0.086,0.096,0.127,0.141c-0.087,0.078-0.178,0.159-0.264,0.236
		c0.043,0.139,0.081,0.273,0.123,0.403c-0.135,0.211-0.269,0.414-0.402,0.618c0.044,0.135,0.081,0.273,0.122,0.405
		c-0.133,0.209-0.269,0.411-0.4,0.618c0.041,0.133,0.083,0.27,0.124,0.402c-0.181,0.332-0.362,0.666-0.54,1
		c0.04,0.045,0.085,0.095,0.125,0.139c-0.088,0.079-0.178,0.16-0.268,0.24c0.044,0.048,0.089,0.098,0.129,0.143
		c-0.088,0.079-0.175,0.157-0.265,0.238c0.044,0.048,0.086,0.096,0.128,0.143c-0.182,0.334-0.357,0.667-0.543,1
		c0.044,0.048,0.088,0.096,0.129,0.143c-0.179,0.244-0.353,0.488-0.532,0.735c0.041,0.045,0.084,0.093,0.128,0.142
		c-0.088,0.079-0.18,0.161-0.268,0.239c0.042,0.046,0.087,0.097,0.128,0.142c-0.132,0.118-0.266,0.237-0.396,0.355
		c0.041,0.046,0.084,0.095,0.127,0.143c-0.089,0.08-0.178,0.159-0.266,0.239c0.043,0.049,0.085,0.095,0.126,0.142
		c-0.132,0.119-0.267,0.239-0.398,0.358c0.042,0.049,0.086,0.097,0.126,0.142c-0.133,0.119-0.264,0.237-0.398,0.357
		c0.044,0.049,0.086,0.096,0.13,0.146c-0.131,0.117-0.267,0.239-0.396,0.354c0.042,0.047,0.083,0.093,0.127,0.142
		c-0.134,0.12-0.267,0.239-0.399,0.358c-1.09,2.298-2.787,4.553-5.201,6.725c-0.795,0.713-1.592,1.427-2.387,2.142
		c-0.044-0.048-0.089-0.099-0.129-0.144c-0.309,0.276-0.619,0.556-0.927,0.831c-0.044-0.048-0.086-0.095-0.129-0.143
		c-0.223,0.199-0.441,0.396-0.663,0.595c-0.042-0.047-0.086-0.095-0.129-0.144c-0.175,0.158-0.351,0.315-0.526,0.472
		c-0.041-0.046-0.086-0.095-0.126-0.141c-0.178,0.159-0.356,0.318-0.534,0.478c-0.042-0.046-0.084-0.093-0.128-0.143
		c-0.481,0.26-0.965,0.523-1.447,0.784c-0.041-0.046-0.083-0.093-0.126-0.142c-0.353,0.145-0.702,0.284-1.055,0.428
		c-0.04-0.045-0.082-0.093-0.126-0.141c-0.088,0.078-0.178,0.159-0.267,0.239c-0.044-0.048-0.084-0.093-0.127-0.141
		c-0.352,0.141-0.697,0.283-1.05,0.428c-0.13-0.058-0.26-0.109-0.387-0.166c-0.088,0.078-0.176,0.158-0.266,0.238
		c-0.042-0.047-0.087-0.097-0.128-0.143c-0.172,0.071-0.352,0.144-0.526,0.217c-0.128-0.058-0.259-0.113-0.387-0.169
		c-0.088,0.079-0.178,0.158-0.268,0.239c-0.475-0.088-0.952-0.176-1.427-0.264c-0.828-0.029-1.652-0.063-2.478-0.09
		c-0.087-0.096-0.172-0.191-0.256-0.285c-0.218,0.022-0.436,0.046-0.654,0.074c-0.087-0.099-0.171-0.192-0.256-0.287
		c-0.13,0.032-0.263,0.064-0.394,0.094c-0.212-0.149-0.43-0.299-0.643-0.453c-0.129,0.035-0.261,0.065-0.395,0.099
		c-0.213-0.151-0.428-0.301-0.643-0.454c-0.043,0.038-0.092,0.082-0.133,0.119c-0.216-0.15-0.43-0.303-0.641-0.453
		c-0.043,0.039-0.092,0.082-0.135,0.121c-0.129-0.145-0.257-0.287-0.384-0.428c-0.042,0.038-0.088,0.079-0.13,0.117
		c-0.087-0.096-0.17-0.189-0.257-0.286c-0.043,0.039-0.086,0.077-0.133,0.119c-0.124-0.14-0.253-0.283-0.383-0.428
		c-0.046,0.041-0.089,0.08-0.131,0.118c-0.126-0.14-0.254-0.283-0.384-0.428c-0.043,0.039-0.092,0.082-0.135,0.121
		c-0.169-0.189-0.338-0.377-0.51-0.569c-0.041,0.037-0.088,0.079-0.13,0.117c-0.173-0.192-0.342-0.38-0.511-0.569
		c-0.043,0.039-0.088,0.079-0.133,0.119c-0.216-0.24-0.428-0.476-0.641-0.713c-0.675-0.436-3.044-2.398-3.591-3.468
		c0.046-0.04,0.09-0.08,0.135-0.12c-0.382-0.426-0.766-0.854-1.149-1.281c0.043-0.039,0.088-0.079,0.131-0.117
		c-0.214-0.238-0.429-0.478-0.641-0.714c0.043-0.039,0.09-0.081,0.132-0.118c-0.213-0.238-0.427-0.477-0.64-0.714
		c0.042-0.039,0.089-0.081,0.13-0.117c-0.169-0.19-0.342-0.381-0.511-0.569c0.044-0.038,0.092-0.082,0.135-0.121
		c-0.128-0.143-0.258-0.288-0.383-0.427c0.043-0.039,0.085-0.077,0.13-0.118c-0.17-0.189-0.342-0.38-0.512-0.57
		c0.045-0.04,0.09-0.081,0.133-0.12c-0.085-0.094-0.172-0.191-0.255-0.284c0.042-0.038,0.089-0.08,0.13-0.116
		c-0.214-0.325-0.423-0.655-0.634-0.978c0.042-0.039,0.085-0.078,0.13-0.117c-0.085-0.095-0.172-0.192-0.255-0.285
		c0.042-0.037,0.09-0.081,0.132-0.119c-0.128-0.143-0.255-0.285-0.386-0.43c0.043-0.039,0.089-0.079,0.131-0.117
		c-0.16-0.363-0.33-0.73-0.496-1.095c0.041-0.037,0.087-0.078,0.13-0.117c-0.084-0.095-0.169-0.19-0.255-0.285
		c0.044-0.039,0.088-0.079,0.133-0.119c-0.086-0.095-0.171-0.189-0.256-0.285c0.043-0.038,0.088-0.078,0.131-0.117
		c-0.087-0.097-0.172-0.191-0.256-0.284c0.045-0.04,0.088-0.079,0.135-0.121c-0.086-0.095-0.17-0.189-0.255-0.284
		c0.041-0.037,0.088-0.079,0.129-0.115c-0.084-0.093-0.171-0.19-0.255-0.285c0.045-0.041,0.091-0.083,0.135-0.121
		c-0.088-0.096-0.172-0.189-0.256-0.285c0.045-0.04,0.087-0.078,0.131-0.117c-0.086-0.094-0.171-0.189-0.256-0.284
		c0.045-0.041,0.091-0.082,0.135-0.121c-0.089-0.182-0.168-0.363-0.25-0.544c0.045-0.124,0.09-0.256,0.135-0.38
		c-0.127-0.231-0.249-0.461-0.38-0.689c0.047-0.129,0.098-0.255,0.14-0.38c-0.086-0.097-0.17-0.189-0.258-0.288
		c0.051-0.213,0.097-0.429,0.147-0.639c-0.087-0.097-0.171-0.192-0.255-0.285c0.043-0.129,0.094-0.255,0.137-0.382
		c-0.086-0.097-0.169-0.19-0.256-0.287c0.049-0.215,0.095-0.427,0.145-0.64c-0.087-0.097-0.172-0.191-0.255-0.285
		c0.047-0.3,0.097-0.603,0.146-0.905c-0.085-0.095-0.171-0.19-0.253-0.283c0.047-0.476,0.099-0.951,0.152-1.423
		c-0.087-0.097-0.17-0.19-0.257-0.286c0.064-1.172,0.132-2.35,0.193-3.519c-0.025-1.007-0.051-2.012-0.07-3.021
		c0.086-0.077,0.175-0.157,0.261-0.234c-0.035-0.486-0.073-0.971-0.104-1.451c0.089-0.08,0.176-0.157,0.266-0.238
		c-0.043-0.22-0.078-0.447-0.119-0.666c0.091-0.081,0.179-0.16,0.267-0.239c-0.043-0.22-0.078-0.447-0.117-0.667
		c0.089-0.078,0.178-0.159,0.264-0.235c-0.04-0.139-0.08-0.272-0.121-0.405c0.133-0.207,0.269-0.416,0.403-0.621
		c-0.045-0.131-0.087-0.268-0.122-0.403c0.18-0.333,0.359-0.663,0.538-1.001c-0.039-0.129-0.084-0.267-0.119-0.399
		c0.087-0.079,0.175-0.158,0.265-0.238c-0.042-0.047-0.088-0.099-0.13-0.146c0.089-0.08,0.177-0.159,0.267-0.239
		c-0.04-0.045-0.085-0.095-0.129-0.143c0.088-0.079,0.176-0.157,0.265-0.237c-0.04-0.044-0.081-0.091-0.125-0.14
		c0.088-0.079,0.18-0.161,0.266-0.237c-0.044-0.048-0.086-0.095-0.131-0.145c0.09-0.081,0.176-0.157,0.267-0.239
		c-0.038-0.043-0.083-0.093-0.128-0.144c0.182-0.331,0.361-0.664,0.543-0.994c-0.042-0.046-0.087-0.097-0.129-0.143
		c0.18-0.246,0.354-0.49,0.535-0.735c-0.044-0.048-0.087-0.097-0.128-0.144c0.09-0.08,0.178-0.159,0.266-0.239
		c-0.043-0.048-0.085-0.095-0.127-0.143c0.133-0.119,0.265-0.238,0.398-0.358c-0.042-0.047-0.085-0.095-0.129-0.144
		c0.088-0.078,0.176-0.157,0.268-0.238c-0.041-0.045-0.085-0.095-0.127-0.142c0.129-0.116,0.265-0.238,0.397-0.356
		c-0.042-0.046-0.085-0.095-0.127-0.141c0.086-0.077,0.178-0.159,0.262-0.236c-0.042-0.048-0.086-0.097-0.126-0.142
		c0.135-0.121,0.269-0.241,0.4-0.359c-0.042-0.049-0.087-0.099-0.128-0.144c0.13-0.115,0.265-0.237,0.399-0.357
		c-0.041-0.047-0.089-0.099-0.129-0.144c0.129-0.115,0.265-0.237,0.396-0.354c-0.043-0.048-0.083-0.093-0.127-0.142
		c0.133-0.119,0.266-0.237,0.399-0.358c-0.044-0.05-0.086-0.097-0.127-0.141c0.44-0.574,0.886-1.14,1.33-1.71
		c-0.042-0.048-0.086-0.097-0.126-0.142c0.663-0.772,1.331-1.539,1.997-2.303C564.119,349.377,564.951,348.871,564.993,348.378z"/>
</g>
</svg>
