<?xml version="1.0" encoding="utf-8"?>
<!-- Generator: Adobe Illustrator 16.0.0, SVG Export Plug-In . SVG Version: 6.00 Build 0)  -->
<!DOCTYPE svg PUBLIC "-//W3C//DTD SVG 1.1//EN" "http://www.w3.org/Graphics/SVG/1.1/DTD/svg11.dtd">
<svg version="1.1" xmlns="http://www.w3.org/2000/svg" xmlns:xlink="http://www.w3.org/1999/xlink" x="0px" y="0px" width="1000px"
	 height="1000px" viewBox="0 0 1000 1000" enable-background="new 0 0 1000 1000" xml:space="preserve">
<style>
		 @-webkit-keyframes hideshow {
  0% { opacity: 0;-webkit-transform:translateY(100px)}
  5% { opacity: 1;-webkit-transform:translateY(0px) }
 
  100% { opacity: 1; -webkit-transform:translateY(0px)}
} 
		 @-webkit-keyframes hideshow2 {
  0% { opacity: 0;-webkit-transform:translateY(100px)}
  5% { opacity: 0;-webkit-transform:translateY(100px) }
   10% { opacity: 1;-webkit-transform:translateY(0px) }
 
  100% { opacity: 1;-webkit-transform:translateY(0px) }
} 
		 @-webkit-keyframes hideshow3 {
  0% { opacity: 0;transform:translateX(0px)}
 
 
  100% { opacity: 1;transform:translateX(100px) }
} 
	 .w{
		
		-webkit-animation: hideshow 5s ease infinite;
		
		 }
		 	 .w2{
		
			-webkit-animation: hideshow2 5s ease infinite;
		
		 }
		 	 .w3{
		
			-webkit-animation: hideshow3 3s ease infinite;
		
		 }
</style>
<g id="Layer_1">
	<g id="Layer_1_1_" display="none">
		<g display="inline">
			<g id="Layer_3">
				<path fill="#DDDDDD" stroke="#000000" stroke-miterlimit="10" d="M500,153.169c167.093,0,302.543,135.452,302.543,302.542
					c0,29.067-4.101,57.182-11.754,83.789c-4.146,14.411-9.335,28.387-15.479,41.828C727.601,685.718,622.271,758.252,500,758.253
					c-129.085,0-239.288-80.847-282.741-194.661c-3.007-7.877-5.692-15.912-8.047-24.089c-7.651-26.608-11.754-54.725-11.754-83.792
					C197.458,288.621,332.911,153.169,500,153.169z"/>
			</g>
			<g display="none">
				
					<line display="inline" fill="none" stroke="#000000" stroke-width="3" stroke-miterlimit="10" x1="770.5" y1="578.5" x2="223.421" y2="578.5"/>
			</g>
			<g display="none">
				
					<line display="inline" fill="none" stroke="#000000" stroke-width="3" stroke-miterlimit="10" x1="802.51" y1="459.527" x2="197.49" y2="459.527"/>
			</g>
			<g>
				<path d="M455.942,417.769l-14.328,37.872h-4.824l-11.949-31.032l-11.952,31.032h-4.824l-14.256-37.872h4.896l11.882,32.184
					l12.168-32.184h4.393l12.096,32.184l12.024-32.184H455.942z"/>
			</g>
			<g>
				<path d="M391.215,417.839l-14.328,37.872h-4.824l-11.952-31.032l-11.952,31.032h-4.822l-14.258-37.872h4.896l11.88,32.184
					l12.168-32.184h4.392l12.099,32.184l12.021-32.184H391.215z"/>
			</g>
			<g>
				<path d="M326.215,417.839l-14.328,37.872h-4.824l-11.952-31.032l-11.952,31.032h-4.824l-14.256-37.872h4.896l11.88,32.184
					l12.168-32.184h4.392l12.099,32.184l12.021-32.184H326.215z"/>
			</g>
			<g>
				<path d="M456.432,454.919c-0.745-0.77-1.116-1.703-1.116-2.811c0-1.104,0.371-2.024,1.116-2.771
					c0.744-0.744,1.644-1.116,2.7-1.116c1.055,0,1.968,0.372,2.733,1.116c0.77,0.744,1.152,1.668,1.152,2.771
					c0,1.105-0.385,2.041-1.152,2.811c-0.769,0.769-1.681,1.149-2.733,1.149C458.075,456.071,457.177,455.688,456.432,454.919z"/>
			</g>
			<g>
				<path d="M520.392,435.406c0.646-1.484,1.451-2.759,2.412-3.813c0.959-1.058,2.207-2.255,3.743-3.603
					c2.063-1.82,3.588-3.42,4.569-4.788c0.983-1.365,1.479-3.033,1.479-5.001c0-2.642-1.032-4.766-3.098-6.372
					c-2.063-1.608-4.896-2.412-8.494-2.412c-5.952,0-10.537,1.941-13.752,5.832l-3.816-2.88c4.08-4.991,10.056-7.488,17.928-7.488
					c5.041,0,9.063,1.128,12.063,3.384c3,2.257,4.5,5.305,4.5,9.146c0,1.969-0.324,3.705-0.975,5.22
					c-0.646,1.512-1.438,2.797-2.376,3.852c-0.936,1.056-2.172,2.28-3.708,3.672c-2.063,1.872-3.601,3.541-4.605,5.004
					c-1.008,1.465-1.515,3.276-1.515,5.438h-5.325C519.423,438.621,519.744,436.896,520.392,435.406z M519.423,454.952
					c-0.723-0.741-1.08-1.617-1.08-2.628c0-1.056,0.357-1.932,1.08-2.628c0.721-0.692,1.604-1.044,2.663-1.044
					c1.104,0,2.017,0.352,2.734,1.044c0.721,0.697,1.08,1.573,1.08,2.628c0,1.011-0.373,1.887-1.116,2.628
					c-0.745,0.745-1.646,1.116-2.698,1.116C521.027,456.071,520.14,455.698,519.423,454.952z"/>
			</g>
			<g>
				<path d="M561.892,435.406c0.646-1.484,1.451-2.759,2.412-3.813c0.959-1.058,2.207-2.255,3.743-3.603
					c2.063-1.82,3.588-3.42,4.569-4.788c0.983-1.365,1.479-3.033,1.479-5.001c0-2.642-1.032-4.766-3.098-6.372
					c-2.063-1.608-4.896-2.412-8.494-2.412c-5.952,0-10.537,1.941-13.752,5.832l-3.816-2.88c4.08-4.991,10.056-7.488,17.928-7.488
					c5.041,0,9.063,1.128,12.063,3.384c3,2.257,4.5,5.305,4.5,9.146c0,1.969-0.324,3.705-0.975,5.22
					c-0.646,1.512-1.438,2.797-2.376,3.852c-0.936,1.056-2.172,2.28-3.708,3.672c-2.063,1.872-3.601,3.541-4.605,5.004
					c-1.008,1.465-1.515,3.276-1.515,5.438h-5.325C560.923,438.621,561.244,436.896,561.892,435.406z M560.923,454.952
					c-0.723-0.741-1.08-1.617-1.08-2.628c0-1.056,0.357-1.932,1.08-2.628c0.721-0.692,1.604-1.044,2.663-1.044
					c1.104,0,2.017,0.352,2.734,1.044c0.721,0.697,1.08,1.573,1.08,2.628c0,1.011-0.373,1.887-1.116,2.628
					c-0.745,0.745-1.646,1.116-2.698,1.116C562.527,456.071,561.64,455.698,560.923,454.952z"/>
			</g>
			<g>
				<path d="M482.392,435.406c0.648-1.484,1.451-2.759,2.412-3.813c0.959-1.058,2.207-2.255,3.744-3.603
					c2.063-1.82,3.588-3.42,4.569-4.788c0.983-1.365,1.479-3.033,1.479-5.001c0-2.642-1.033-4.766-3.097-6.372
					c-2.064-1.608-4.896-2.412-8.495-2.412c-5.952,0-10.537,1.941-13.753,5.832l-3.815-2.88c4.079-4.991,10.055-7.488,17.928-7.488
					c5.04,0,9.063,1.128,12.063,3.384c3,2.257,4.5,5.305,4.5,9.146c0,1.969-0.324,3.705-0.975,5.22
					c-0.646,1.512-1.438,2.797-2.376,3.852c-0.936,1.056-2.172,2.28-3.708,3.672c-2.063,1.872-3.6,3.541-4.605,5.004
					c-1.009,1.465-1.515,3.276-1.515,5.438h-5.326C481.423,438.621,481.744,436.896,482.392,435.406z M481.423,454.952
					c-0.723-0.741-1.08-1.617-1.08-2.628c0-1.056,0.357-1.932,1.08-2.628c0.72-0.692,1.605-1.044,2.661-1.044
					c1.104,0,2.019,0.352,2.736,1.044c0.721,0.697,1.08,1.573,1.08,2.628c0,1.011-0.372,1.887-1.116,2.628
					c-0.745,0.745-1.645,1.116-2.7,1.116C483.029,456.07,482.14,455.698,481.423,454.952z"/>
			</g>
			<g>
				<path d="M592.431,454.919c-0.744-0.77-1.115-1.703-1.115-2.811c0-1.104,0.371-2.024,1.115-2.771
					c0.744-0.744,1.645-1.116,2.7-1.116c1.055,0,1.968,0.372,2.733,1.116c0.77,0.744,1.151,1.668,1.151,2.771
					c0,1.105-0.385,2.041-1.151,2.811c-0.769,0.769-1.681,1.149-2.733,1.149C594.076,456.071,593.177,455.688,592.431,454.919z"/>
			</g>
			<g>
				<path d="M613.279,453.62c-2.951-1.631-5.268-3.924-6.947-6.876c-1.681-2.949-2.52-6.272-2.52-9.972
					c0-3.696,0.839-7.008,2.52-9.936c1.683-2.93,3.996-5.208,6.947-6.84c2.953-1.631,6.301-2.448,10.045-2.448
					c3.267,0,6.183,0.637,8.748,1.908c2.566,1.271,4.596,3.132,6.084,5.577l-3.813,2.595c-1.248-1.872-2.832-3.276-4.752-4.215
					c-1.923-0.936-4.011-1.401-6.267-1.401c-2.733,0-5.197,0.61-7.381,1.836c-2.184,1.224-3.887,2.964-5.111,5.22
					c-1.225,2.257-1.836,4.824-1.836,7.704c0,2.928,0.611,5.508,1.836,7.74c1.228,2.229,2.931,3.96,5.111,5.184
					c2.186,1.227,4.646,1.836,7.381,1.836c2.256,0,4.344-0.456,6.267-1.368c1.92-0.908,3.504-2.304,4.752-4.176l3.813,2.592
					c-1.488,2.448-3.525,4.312-6.12,5.58c-2.593,1.272-5.497,1.908-8.712,1.908C619.58,456.071,616.232,455.256,613.279,453.62z"/>
			</g>
			<g>
				<path d="M656.279,453.62c-2.951-1.631-5.268-3.924-6.947-6.876c-1.681-2.949-2.52-6.272-2.52-9.972
					c0-3.696,0.839-7.008,2.52-9.936c1.683-2.93,3.996-5.208,6.947-6.84c2.953-1.631,6.301-2.448,10.045-2.448
					c3.267,0,6.183,0.637,8.748,1.908c2.566,1.271,4.596,3.132,6.084,5.577l-3.813,2.595c-1.248-1.872-2.832-3.276-4.752-4.215
					c-1.923-0.936-4.011-1.401-6.267-1.401c-2.733,0-5.197,0.61-7.381,1.836c-2.184,1.224-3.887,2.964-5.111,5.22
					c-1.225,2.257-1.836,4.824-1.836,7.704c0,2.928,0.611,5.508,1.836,7.74c1.228,2.229,2.931,3.96,5.111,5.184
					c2.186,1.227,4.646,1.836,7.381,1.836c2.256,0,4.344-0.456,6.267-1.368c1.92-0.908,3.504-2.304,4.752-4.176l3.813,2.592
					c-1.488,2.448-3.525,4.312-6.12,5.58c-2.593,1.272-5.497,1.908-8.712,1.908C662.58,456.071,659.232,455.256,656.279,453.62z"/>
			</g>
			<g>
				<path d="M698.279,453.62c-2.951-1.631-5.268-3.924-6.947-6.876c-1.681-2.949-2.52-6.272-2.52-9.972
					c0-3.696,0.839-7.008,2.52-9.936c1.683-2.93,3.996-5.208,6.947-6.84c2.953-1.631,6.301-2.448,10.045-2.448
					c3.267,0,6.183,0.637,8.748,1.908c2.566,1.271,4.596,3.132,6.084,5.577l-3.813,2.595c-1.248-1.872-2.832-3.276-4.752-4.215
					c-1.923-0.936-4.011-1.401-6.267-1.401c-2.733,0-5.197,0.61-7.381,1.836c-2.184,1.224-3.887,2.964-5.111,5.22
					c-1.225,2.257-1.836,4.824-1.836,7.704c0,2.928,0.611,5.508,1.836,7.74c1.228,2.229,2.931,3.96,5.111,5.184
					c2.186,1.227,4.646,1.836,7.381,1.836c2.256,0,4.344-0.456,6.267-1.368c1.92-0.908,3.504-2.304,4.752-4.176l3.813,2.592
					c-1.488,2.448-3.525,4.312-6.12,5.58c-2.593,1.272-5.497,1.908-8.712,1.908C704.58,456.071,701.232,455.256,698.279,453.62z"/>
			</g>
		</g>
		<g display="inline">
			<path d="M250.5,396.779h4.752v67.394H250.5V396.779z"/>
		</g>
		<div  class="typewriter">
			
				<text  transform="matrix(1 0 0 1 264.0769 578.5002)" font-family="&apos;Montserrat-Regular&apos;" font-size="72" startOffset="0">
				www.???.com</text>
		</div>
	</g>
	<g id="Layer_2">
		
			<line display="none" fill="none" stroke="#FF8080" stroke-width="4" stroke-miterlimit="10" x1="369.481" y1="541.851" x2="559.519" y2="543.192"/>
		
			<line display="none" fill="none" stroke="#FF8080" stroke-width="4" stroke-miterlimit="10" x1="403.5" y1="452.5" x2="403.5" y2="514.5"/>
		
			<line display="none" fill="none" stroke="#FF8080" stroke-width="4" stroke-miterlimit="10" x1="534.5" y1="514.021" x2="534.5" y2="453.5"/>
		<path display="none" fill="none" stroke="#FF8080" stroke-width="4" stroke-miterlimit="10" d="M424.18,495.166
			c0-12.896,13.865-23.332,31-23.332"/>
		<path display="none" fill="none" stroke="#FF8080" stroke-width="4" stroke-miterlimit="10" d="M486.18,495.166
			c0-12.896-13.865-23.332-31-23.332"/>
		
			<line display="none" fill="none" stroke="#FF8080" stroke-width="4" stroke-miterlimit="10" x1="424.18" y1="495.166" x2="424.18" y2="529.834"/>
		
			<line display="none" fill="none" stroke="#FF8080" stroke-width="4" stroke-miterlimit="10" x1="486.18" y1="495.166" x2="486.18" y2="529.834"/>
		
			<line display="none" fill="none" stroke="#FF8080" stroke-width="4" stroke-miterlimit="10" x1="254.5" y1="430" x2="369.5" y2="430"/>
		
			<line display="none" fill="none" stroke="#FF8080" stroke-width="4" stroke-miterlimit="10" x1="139.5" y1="430" x2="254.5" y2="430"/>
		<path display="none" fill="none" stroke="#FF8080" stroke-width="4" stroke-miterlimit="10" d="M462.096,443.602
			c0,0-5.157-33.081-30.551-32.075"/>
		
			<line display="none" fill="none" stroke="#FF8080" stroke-width="4" stroke-miterlimit="10" x1="404.811" y1="446.845" x2="404.811" y2="473.5"/>
		
			<line display="none" fill="none" stroke="#FF8080" stroke-width="4" stroke-miterlimit="10" x1="462.096" y1="443.602" x2="462.096" y2="473.5"/>
		
			<line display="none" fill="none" stroke="#FF8080" stroke-width="4" stroke-miterlimit="10" x1="469.5" y1="450.778" x2="469.5" y2="495"/>
		
			<image display="none" overflow="visible" enable-background="new    " width="114" height="16" xlink:href="43B902AC.jpg"  transform="matrix(0.9987 0 0 0.9987 197.573 536.51)">
		</image>
		<path display="none" fill="none" stroke="#FF8080" stroke-miterlimit="10" d="M233.25,532.498
			c-17.5,11.75-34.743,4.002-34.743,4.002v-5.75"/>
		<path display="none" fill="none" stroke="#FF8080" stroke-miterlimit="10" d="M299.508,505.75v5.75c0,0,17.242,7.747,34.742-4.002
			"/>
		<path display="none" fill="none" stroke="#FF8080" stroke-miterlimit="10" d="M198.507,531.25c0,0,18.493,5.875,34.743-3.5"/>
		<line display="none" fill="none" stroke="#8383FC" stroke-miterlimit="10" x1="232.475" y1="519.24" x2="232.763" y2="525.473"/>
		<line display="none" fill="none" stroke="#8383FC" stroke-miterlimit="10" x1="232.416" y1="517.973" x2="232.475" y2="519.24"/>
	</g>
	<path id="CARD2" class="w3" fill="none" stroke="#000000" stroke-miterlimit="10" d="M577.5,556.5c0,6.627-4.904,12-10.953,12H239.789
		c-6.049,0-10.953-5.373-10.953-12v-188c0-6.627,4.904-12,10.953-12h326.757c6.049,0,10.953,5.373,10.953,12V556.5z"/>
	<rect id="CARD" class= "w3" x="228.837" y="394.5" width="348.663" height="40"/>
	<g id="paw1">
		
			<ellipse display="none" fill="none" stroke="#231F20" stroke-width="9" stroke-miterlimit="10" cx="320.487" cy="434.004" rx="4.056" ry="4.75"/>
		<circle opacity="0.9" fill="#FCAEFC" cx="594.03" cy="520.914" r="103.495"/>
		<path display="none" fill="none" stroke="#231F20" stroke-width="9" stroke-miterlimit="10" d="M595.029,379.754
			c0,0-89.996-135.165-199.49-3.502c0,0-16.498,62.337-31.498,59.502c-15-2.836-43.497-4.494-47.997,18.834
			c-4.5,23.327,15,83.334,85.495,59.33c70.496-24.003,172.49,85.694,88.495,87.844"/>
		
			<ellipse transform="matrix(-0.2401 -0.9708 0.9708 -0.2401 231.5453 1038.7657)" display="none" fill="none" stroke="#231F20" stroke-width="9" stroke-miterlimit="10" cx="522.352" cy="428.755" rx="56.477" ry="38.014"/>
		
			<line fill="none" stroke="#FFFFFF" stroke-width="10" stroke-miterlimit="10" x1="533.369" y1="520.913" x2="654.691" y2="520.913"/>
		
			<line fill="none" stroke="#FFFFFF" stroke-width="10" stroke-miterlimit="10" x1="594.85" y1="581.574" x2="594.383" y2="460.254"/>
	</g>
	<g id="logo" display="none">
		
			<line fill="none" stroke="#FF8080" stroke-width="8" stroke-miterlimit="10" x1="327.843" y1="463.466" x2="295.969" y2="507.576"/>
		
			<line fill="none" stroke="#8383FC" stroke-width="8" stroke-miterlimit="10" x1="330.191" y1="463.466" x2="362.066" y2="507.576"/>
		
			<line fill="none" stroke="#89E599" stroke-width="8" stroke-miterlimit="10" x1="362.066" y1="458.687" x2="393.939" y2="502.798"/>
		
			<line fill="none" stroke="#FF8080" stroke-width="4" stroke-miterlimit="10" x1="293.543" y1="523.46" x2="325.423" y2="523.706"/>
		
			<line fill="none" stroke="#FF8080" stroke-width="4" stroke-miterlimit="10" x1="299.249" y1="507.037" x2="299.249" y2="518.433"/>
		
			<line fill="none" stroke="#FF8080" stroke-width="4" stroke-miterlimit="10" x1="321.226" y1="518.345" x2="321.226" y2="507.221"/>
		<path fill="none" stroke="#FF8080" stroke-width="4" stroke-miterlimit="10" d="M302.719,514.879c0-2.37,2.326-4.288,5.2-4.288"/>
		<path fill="none" stroke="#FF8080" stroke-width="4" stroke-miterlimit="10" d="M313.12,514.879c0-2.37-2.327-4.288-5.201-4.288"
			/>
		
			<line fill="none" stroke="#FF8080" stroke-width="4" stroke-miterlimit="10" x1="302.719" y1="514.879" x2="302.719" y2="521.252"/>
		<line fill="none" stroke="#FF8080" stroke-width="4" stroke-miterlimit="10" x1="313.12" y1="514.879" x2="313.12" y2="521.252"/>
		<ellipse display="inline" fill="#FF8080" cx="266.444" cy="471.185" rx="4.362" ry="4.779"/>
		<ellipse display="inline" fill="#FF8080" cx="266.444" cy="502.247" rx="4.362" ry="4.779"/>
		<ellipse display="inline" fill="#FF8080" cx="294.273" cy="489.197" rx="4.362" ry="4.779"/>
		<ellipse display="inline" fill="#FF8080" cx="277.984" cy="474.126" rx="4.362" ry="4.779"/>
		<ellipse display="inline" fill="#FF8080" cx="287.379" cy="480.375" rx="4.362" ry="4.779"/>
		
			<line display="inline" fill="none" stroke="#FF8080" stroke-width="4" stroke-miterlimit="10" x1="266.444" y1="471.185" x2="266.444" y2="533.308"/>
		
			<line fill="none" stroke="#FF8080" stroke-width="4" stroke-miterlimit="10" x1="274.254" y1="502.903" x2="293.546" y2="502.903"/>
		
			<line fill="none" stroke="#FF8080" stroke-width="4" stroke-miterlimit="10" x1="254.961" y1="502.903" x2="274.254" y2="502.903"/>
		<path display="inline" fill="#7F9E3D" d="M284.443,507.399c5.872-0.276-10.401-7.965-16.691,6.172"/>
		<path display="inline" fill="#7F9E3D" d="M284.386,508.01c4.811-3.699-3.824,13.256-16.671,6.239"/>
		<path display="inline" fill="#7F9E3D" d="M248.444,507.399c-5.872-0.276,10.401-7.965,16.692,6.172"/>
		<path display="inline" fill="#7F9E3D" d="M248.501,508.01c-4.811-3.699,3.824,13.256,16.671,6.239"/>
		<path display="inline" fill="#7F9E3D" d="M251.345,490.667"/>
		
			<line display="inline" fill="none" stroke="#FF8080" stroke-width="4" stroke-miterlimit="10" x1="266.444" y1="502.246" x2="294.273" y2="489.197"/>
		
			<line display="inline" fill="none" stroke="#FF8080" stroke-width="4" stroke-miterlimit="10" x1="266.444" y1="502.246" x2="287.379" y2="480.375"/>
		
			<line display="inline" fill="none" stroke="#FF8080" stroke-width="4" stroke-miterlimit="10" x1="266.444" y1="502.246" x2="277.984" y2="474.126"/>
		<ellipse display="inline" fill="#FF8080" cx="238.614" cy="488.554" rx="4.362" ry="4.779"/>
		<ellipse display="inline" fill="#FF8080" cx="254.903" cy="473.482" rx="4.361" ry="4.779"/>
		<ellipse display="inline" fill="#FF8080" cx="245.508" cy="479.731" rx="4.362" ry="4.779"/>
		
			<line display="inline" fill="none" stroke="#FF8080" stroke-width="4" stroke-miterlimit="10" x1="266.444" y1="501.604" x2="238.614" y2="488.554"/>
		
			<line display="inline" fill="none" stroke="#FF8080" stroke-width="4" stroke-miterlimit="10" x1="266.444" y1="501.604" x2="245.508" y2="479.732"/>
		
			<line display="inline" fill="none" stroke="#FF8080" stroke-width="4" stroke-miterlimit="10" x1="266.444" y1="501.604" x2="254.903" y2="473.483"/>
		<path fill="none" stroke="#FF8080" stroke-width="4" stroke-miterlimit="10" d="M309.079,505.403c0,0-0.865-6.081-5.125-5.896"/>
		
			<line fill="none" stroke="#FF8080" stroke-width="4" stroke-miterlimit="10" x1="299.469" y1="505.998" x2="299.469" y2="510.897"/>
		
			<line fill="none" stroke="#FF8080" stroke-width="4" stroke-miterlimit="10" x1="309.079" y1="505.403" x2="309.079" y2="510.897"/>
		
			<text transform="matrix(0.9127 0 0 1 287.3782 527.9788)" enable-background="new    " font-family="'Ubuntu-Regular'" font-size="22.0556">Dog </text>
		
			<text transform="matrix(0.9127 0 0 1 306.5178 547.9163)" enable-background="new    " font-family="'Ubuntu-Regular'" font-size="22.0556">Hub</text>
		
			<line fill="none" stroke="#FF8080" stroke-width="8" stroke-miterlimit="10" x1="353.204" y1="505.065" x2="353.204" y2="527.978"/>
		
			<line fill="none" stroke="#FF8080" stroke-width="4" stroke-miterlimit="10" x1="310.321" y1="506.721" x2="310.321" y2="514.849"/>
		<path fill="none" stroke="#FF8080" stroke-width="8" stroke-miterlimit="10" d="M316.875,516.522v-4.965
			c0,0,0.455-8.881,10.968-8.759"/>
		<path fill="none" stroke="#FF8080" stroke-width="8" stroke-miterlimit="10" d="M327.843,502.824
			c10.512-0.123,10.966,8.758,10.966,8.758v4.966"/>
		
			<line fill="none" stroke="#FF8080" stroke-width="7" stroke-miterlimit="10" x1="338.809" y1="516.548" x2="338.809" y2="527.978"/>
		
			<line fill="none" stroke="#FF8080" stroke-width="8" stroke-miterlimit="10" x1="364.749" y1="507.026" x2="390.92" y2="503.717"/>
		
			<image overflow="visible" enable-background="new    " width="114" height="16" xlink:href="57FDB988.jpg"  transform="matrix(0.1675 0 0 0.1836 264.7029 522.4788)">
		</image>
		<path fill="none" stroke="#FF8080" stroke-miterlimit="10" d="M270.689,521.74c-2.937,2.16-5.829,0.736-5.829,0.736v-1.057"/>
		<path fill="none" stroke="#FF8080" stroke-miterlimit="10" d="M281.804,516.824v1.057c0,0,2.893,1.425,5.828-0.734"/>
		<path fill="none" stroke="#FF8080" stroke-miterlimit="10" d="M264.86,521.512c0,0,3.103,1.08,5.829-0.644"/>
		<line fill="none" stroke="#8383FC" stroke-miterlimit="10" x1="270.559" y1="519.304" x2="270.607" y2="520.449"/>
		<line fill="none" stroke="#8383FC" stroke-miterlimit="10" x1="270.549" y1="519.071" x2="270.559" y2="519.304"/>
		<path display="inline" fill="#8383FC" d="M256.648,532.115c0.07,0,0.14,0,0.209,0c0,0.075,0,0.153,0,0.229
			c0.261,0.188,0.238,0.41,0.419,0.688c0.07,0.038,0.14,0.077,0.209,0.115c0.14,0.19,0.279,0.383,0.419,0.573
			c0.209,0.191,0.419,0.383,0.628,0.574c0.07,0.114,0.14,0.229,0.209,0.344c0.07,0,0.14,0,0.209,0c0.07,0.115,0.14,0.23,0.209,0.346
			c0.07,0,0.14,0,0.209,0c0.035,0.075,0.07,0.152,0.105,0.229c0.07,0,0.14,0,0.209,0c0.035,0.077,0.07,0.153,0.105,0.229
			c0.14,0.038,0.279,0.076,0.419,0.115c0.035,0.076,0.07,0.153,0.105,0.229c0.14,0.038,0.279,0.076,0.419,0.115
			c0,0.037,0,0.076,0,0.114c0.14,0.038,0.279,0.076,0.419,0.115c0,0.038,0,0.076,0,0.114c0.105,0,0.209,0,0.314,0
			c0,0.038,0,0.077,0,0.114c0.07,0,0.14,0,0.209,0c0,0.039,0,0.077,0,0.115c0.175,0.038,0.35,0.076,0.524,0.115
			c0,0.038,0,0.076,0,0.114c0.349,0.076,0.698,0.153,1.048,0.229c1.293,0.474,3.371,0.841,4.924,0.345c0.209,0,0.419,0,0.628,0
			c0-0.039,0-0.076,0-0.115c0.14,0,0.28,0,0.419,0c0-0.038,0-0.076,0-0.114c0.14,0,0.28,0,0.419,0c0-0.039,0-0.077,0-0.115
			c0.14,0,0.28,0,0.419,0c0-0.038,0-0.076,0-0.114c0.105,0,0.21,0,0.315,0c0-0.039,0-0.077,0-0.115c0.104,0,0.209,0,0.314,0
			c0-0.038,0-0.076,0-0.114c0.175-0.039,0.349-0.077,0.524-0.115c0-0.038,0-0.076,0-0.115c0.07,0,0.14,0,0.209,0
			c0-0.037,0-0.076,0-0.114c0.105,0,0.209,0,0.315,0c0-0.038,0-0.076,0-0.114c0.139-0.039,0.279-0.077,0.419-0.115
			c0-0.038,0-0.077,0-0.114c0.139-0.039,0.279-0.077,0.419-0.115c0.035-0.076,0.069-0.153,0.104-0.229
			c0.14-0.039,0.279-0.077,0.419-0.115c0-0.038,0-0.076,0-0.114c0.105-0.038,0.209-0.077,0.314-0.115
			c0.035-0.076,0.069-0.153,0.104-0.229c0.07,0,0.14,0,0.209,0c0.035-0.078,0.07-0.154,0.105-0.23c0.07,0,0.14,0,0.209,0
			c0.174-0.229,0.349-0.459,0.524-0.688c0.069,0,0.14,0,0.209,0c0-0.038,0-0.077,0-0.115c0.104-0.076,0.209-0.152,0.314-0.229
			c0-0.076,0-0.153,0-0.229c0.07-0.038,0.14-0.076,0.209-0.115c0.258-0.301,0.641-0.804,0.734-1.262c0.069,0,0.139,0,0.209,0
			c0.035,0.114,0.069,0.229,0.104,0.344c0.035,0,0.07,0,0.105,0c0.035,0.115,0.07,0.229,0.104,0.344
			c0.105,0.077,0.209,0.154,0.314,0.23c0,0.077,0,0.153,0,0.229c0.07,0.038,0.14,0.076,0.209,0.114c0,0.039,0,0.077,0,0.115
			c0.245,0.229,0.489,0.459,0.733,0.688c0.07,0.115,0.14,0.229,0.21,0.345c0.069,0,0.14,0,0.209,0
			c0.069,0.114,0.14,0.229,0.209,0.345c0.069,0,0.14,0,0.209,0c0.069,0.115,0.14,0.229,0.209,0.344c0.07,0,0.14,0,0.209,0
			c0,0.038,0,0.077,0,0.115c0.069,0,0.14,0,0.209,0c0.035,0.076,0.07,0.152,0.104,0.229c0.21,0.076,0.419,0.153,0.629,0.229
			c0.035,0.076,0.07,0.152,0.105,0.229c0.104,0,0.209,0,0.314,0c0,0.038,0,0.076,0,0.115c0.07,0,0.14,0,0.209,0
			c0,0.038,0,0.076,0,0.114c0.14,0.038,0.28,0.077,0.419,0.114c0,0.039,0,0.077,0,0.115c0.209,0.038,0.419,0.076,0.628,0.115
			c1.659,0.782,4.402,1.281,6.496,0.573c0.175,0,0.35,0,0.524,0c0-0.038,0-0.076,0-0.114c0.244-0.039,0.489-0.077,0.734-0.115
			c0-0.038,0-0.076,0-0.115c0.104,0,0.209,0,0.313,0c0-0.038,0-0.076,0-0.114c0.105,0,0.209,0,0.315,0c0-0.038,0-0.076,0-0.114
			c0.104,0,0.209,0,0.314,0c0-0.039,0-0.077,0-0.115c0.07,0,0.14,0,0.209,0c0-0.038,0-0.076,0-0.115c0.105,0,0.21,0,0.314,0
			c0-0.037,0-0.076,0-0.114c0.253-0.135,0.563-0.279,0.838-0.344c0,1.07,0,2.143,0,3.213c-0.698,0.269-1.396,0.536-2.095,0.804
			c-0.175,0-0.35,0-0.524,0c0,0.038,0,0.076,0,0.115c-0.139,0-0.279,0-0.419,0c0,0.038,0,0.076,0,0.115c-0.209,0-0.419,0-0.629,0
			c0,0.038,0,0.076,0,0.114c-0.244,0-0.489,0-0.733,0c0,0.038,0,0.076,0,0.114c-0.664,0-1.327,0-1.991,0
			c-1.681,0-3.087-0.396-4.295-0.918c-0.314-0.076-0.629-0.152-0.942-0.229c0-0.038,0-0.077,0-0.115
			c-0.14-0.038-0.28-0.076-0.419-0.114c0-0.039,0-0.076,0-0.115c-0.105,0-0.209,0-0.314,0c0-0.038,0-0.076,0-0.114
			c-0.209-0.077-0.419-0.153-0.629-0.229c0-0.039,0-0.077,0-0.115c-0.139-0.038-0.279-0.076-0.419-0.114
			c-0.035-0.077-0.07-0.153-0.104-0.23c-0.14-0.038-0.28-0.076-0.419-0.114c-0.035-0.076-0.069-0.153-0.105-0.229
			c-0.069,0-0.139,0-0.209,0c-0.035-0.076-0.07-0.153-0.105-0.229c-0.069,0-0.14,0-0.209,0c-0.035-0.076-0.07-0.153-0.104-0.229
			c-0.07,0-0.14,0-0.209,0c-0.035-0.076-0.07-0.153-0.105-0.229c-0.104-0.038-0.21-0.077-0.314-0.115c0-0.038,0-0.076,0-0.114
			c-0.156-0.135-0.187-0.159-0.419-0.229c-0.105,0.152-0.209,0.306-0.314,0.459c-0.07,0-0.14,0-0.209,0
			c-0.07,0.114-0.14,0.229-0.209,0.344c-0.07,0-0.14,0-0.21,0c-0.035,0.077-0.069,0.153-0.104,0.229
			c-0.105,0.039-0.209,0.076-0.314,0.115c0,0.038,0,0.076,0,0.114c-0.07,0-0.139,0-0.209,0c0,0.039,0,0.077,0,0.115
			c-0.07,0-0.139,0-0.209,0c-0.035,0.076-0.07,0.153-0.104,0.229c-0.209,0.076-0.419,0.153-0.628,0.229
			c-2.475,1.446-6.75,2.754-10.373,1.492c-0.175,0-0.349,0-0.523,0c0-0.038,0-0.076,0-0.115c-0.105,0-0.209,0-0.315,0
			c0-0.037,0-0.076,0-0.114c-0.349-0.076-0.698-0.153-1.047-0.229c0-0.039,0-0.076,0-0.115c-0.07,0-0.14,0-0.209,0
			c0-0.037,0-0.076,0-0.114c-0.104,0-0.209,0-0.314,0c0-0.038,0-0.077,0-0.115c-0.07,0-0.14,0-0.209,0c0-0.038,0-0.076,0-0.114
			c-0.104,0-0.209,0-0.314,0c0-0.039,0-0.076,0-0.115c-0.209-0.076-0.419-0.152-0.628-0.229c0-0.038,0-0.076,0-0.114
			c-0.07,0-0.14,0-0.209,0c0-0.039,0-0.077,0-0.115c-0.209-0.076-0.419-0.153-0.628-0.229c-0.035-0.076-0.07-0.153-0.105-0.229
			c-0.14-0.038-0.279-0.076-0.419-0.115c-0.035-0.076-0.07-0.152-0.104-0.229c-0.07,0-0.14,0-0.209,0
			c-0.035-0.076-0.07-0.153-0.105-0.23c-0.07,0-0.139,0-0.209,0c-0.035-0.076-0.07-0.152-0.104-0.229
			c-0.105-0.038-0.209-0.076-0.314-0.114c0-0.038,0-0.077,0-0.115c-0.183-0.165-0.253-0.263-0.524-0.344
			c-0.204,0.368-0.513,0.448-0.838,0.688c-0.035,0.076-0.07,0.153-0.104,0.229c-0.07,0-0.14,0-0.209,0
			c-0.035,0.076-0.07,0.153-0.105,0.229c-0.07,0-0.14,0-0.21,0c-0.035,0.076-0.069,0.153-0.104,0.229
			c-0.14,0.038-0.28,0.076-0.419,0.114c-0.035,0.077-0.07,0.153-0.105,0.23c-0.139,0.038-0.279,0.076-0.419,0.114
			c0,0.038,0,0.076,0,0.115c-0.209,0.076-0.418,0.152-0.628,0.229c0,0.038,0,0.076,0,0.114c-0.104,0-0.209,0-0.314,0
			c0,0.039,0,0.076,0,0.115c-0.14,0.038-0.279,0.076-0.419,0.114c0,0.038,0,0.077,0,0.115c-0.209,0.038-0.419,0.077-0.629,0.114
			c0,0.039,0,0.076,0,0.115c-0.104,0-0.209,0-0.313,0c0,0.038,0,0.076,0,0.115c-0.105,0-0.209,0-0.315,0c0,0.038,0,0.076,0,0.114
			c-0.104,0-0.209,0-0.314,0c0,0.038,0,0.077,0,0.114c-0.279,0.039-0.559,0.077-0.838,0.115c0,0.038,0,0.076,0,0.115
			c-0.174,0-0.349,0-0.523,0c0,0.038,0,0.076,0,0.115c-0.175,0-0.35,0-0.524,0c0,0.038,0,0.076,0,0.114c-0.279,0-0.558,0-0.838,0
			c-0.365,0.113-2.43,0.27-2.933,0.114c0-0.038,0-0.076,0-0.114c-0.28,0-0.559,0-0.838,0c0-0.038,0-0.076,0-0.114
			c-0.175,0-0.349,0-0.524,0c0-0.039,0-0.077,0-0.115c-0.174,0-0.349,0-0.524,0c0-0.039,0-0.077,0-0.115c-0.14,0-0.279,0-0.419,0
			c-0.698-0.268-1.397-0.535-2.096-0.804c0-1.07,0-2.143,0-3.213c0.278,0.067,0.582,0.207,0.838,0.344c0,0.038,0,0.077,0,0.114
			c0.105,0,0.209,0,0.314,0c0,0.039,0,0.077,0,0.115c0.07,0,0.139,0,0.21,0c0,0.038,0,0.076,0,0.115c0.104,0,0.209,0,0.313,0
			c0,0.038,0,0.076,0,0.114c0.105,0,0.21,0,0.315,0c0,0.038,0,0.076,0,0.115c0.104,0,0.209,0,0.314,0c0,0.038,0,0.076,0,0.114
			c0.105,0,0.209,0,0.314,0c0,0.038,0,0.076,0,0.115c0.14,0,0.279,0,0.419,0c0,0.038,0,0.076,0,0.114c0.175,0,0.349,0,0.524,0
			c0,0.039,0,0.076,0,0.115c0.175,0,0.349,0,0.524,0c0,0.038,0,0.076,0,0.114c0.279,0,0.559,0,0.838,0c0,0.039,0,0.077,0,0.115
			c0.645,0.197,2.294-0.092,2.724-0.229c0.209,0,0.419,0,0.629,0c0-0.039,0-0.076,0-0.115c0.279-0.038,0.558-0.076,0.838-0.114
			c0-0.039,0-0.077,0-0.115c0.104,0,0.209,0,0.314,0c0-0.038,0-0.076,0-0.114c0.104,0,0.21,0,0.314,0c0-0.039,0-0.077,0-0.115
			c0.105,0,0.209,0,0.314,0c0-0.038,0-0.076,0-0.114c0.209-0.039,0.419-0.077,0.629-0.115c0-0.038,0-0.076,0-0.115
			c0.139-0.037,0.279-0.076,0.419-0.114c0-0.038,0-0.076,0-0.114c0.069,0,0.139,0,0.209,0c0-0.039,0-0.077,0-0.115
			c0.104,0,0.209,0,0.314,0c0.035-0.077,0.07-0.153,0.105-0.229c0.069,0,0.139,0,0.209,0c0-0.038,0-0.076,0-0.115
			c0.209-0.076,0.418-0.153,0.628-0.229c0.035-0.076,0.069-0.152,0.104-0.229c0.07,0,0.14,0,0.209,0
			c0.07-0.114,0.14-0.229,0.209-0.344c0.07,0,0.14,0,0.209,0c0.07-0.115,0.14-0.23,0.21-0.345c0.069,0,0.139,0,0.209,0
			c0.174-0.229,0.349-0.459,0.524-0.688C255.802,533.386,256.487,532.816,256.648,532.115z"/>
		<path display="inline" fill="#8383FC" d="M256.648,544.118c0.07,0,0.14,0,0.209,0c0,0.076,0,0.153,0,0.229
			c0.261,0.189,0.238,0.41,0.419,0.689c0.07,0.038,0.14,0.076,0.209,0.114c0.14,0.191,0.279,0.383,0.419,0.573
			c0.209,0.192,0.419,0.383,0.628,0.574c0.07,0.115,0.14,0.229,0.209,0.345c0.07,0,0.14,0,0.209,0
			c0.07,0.114,0.14,0.229,0.209,0.345c0.07,0,0.14,0,0.209,0c0.035,0.076,0.07,0.152,0.105,0.229c0.07,0,0.14,0,0.209,0
			c0.035,0.076,0.07,0.153,0.105,0.229c0.14,0.039,0.279,0.077,0.419,0.115c0.035,0.077,0.07,0.153,0.105,0.23
			c0.14,0.037,0.279,0.076,0.419,0.114c0,0.038,0,0.076,0,0.114c0.14,0.038,0.279,0.077,0.419,0.115c0,0.038,0,0.076,0,0.115
			c0.105,0,0.209,0,0.314,0c0,0.038,0,0.076,0,0.114c0.07,0,0.14,0,0.209,0c0,0.038,0,0.076,0,0.114
			c0.175,0.039,0.35,0.077,0.524,0.115c0,0.038,0,0.077,0,0.115c0.349,0.076,0.698,0.152,1.048,0.229
			c1.293,0.474,3.371,0.841,4.924,0.344c0.209,0,0.419,0,0.628,0c0-0.038,0-0.076,0-0.114c0.14,0,0.28,0,0.419,0
			c0-0.039,0-0.076,0-0.115c0.14,0,0.28,0,0.419,0c0-0.038,0-0.076,0-0.114c0.14,0,0.28,0,0.419,0c0-0.039,0-0.077,0-0.115
			c0.105,0,0.21,0,0.315,0c0-0.038,0-0.077,0-0.114c0.104,0,0.209,0,0.314,0c0-0.038,0-0.077,0-0.115
			c0.175-0.038,0.349-0.076,0.524-0.115c0-0.038,0-0.076,0-0.114c0.07,0,0.14,0,0.209,0c0-0.038,0-0.076,0-0.114
			c0.105,0,0.209,0,0.315,0c0-0.039,0-0.077,0-0.115c0.139-0.038,0.279-0.077,0.419-0.115c0-0.038,0-0.076,0-0.114
			c0.139-0.038,0.279-0.077,0.419-0.114c0.035-0.077,0.069-0.153,0.104-0.23c0.14-0.038,0.279-0.076,0.419-0.115
			c0-0.037,0-0.075,0-0.114c0.105-0.038,0.209-0.076,0.314-0.114c0.035-0.077,0.069-0.153,0.104-0.229c0.07,0,0.14,0,0.209,0
			c0.035-0.077,0.07-0.153,0.105-0.23c0.07,0,0.14,0,0.209,0c0.174-0.229,0.349-0.459,0.524-0.688c0.069,0,0.14,0,0.209,0
			c0-0.039,0-0.077,0-0.115c0.104-0.077,0.209-0.153,0.314-0.23c0-0.076,0-0.152,0-0.229c0.07-0.038,0.14-0.076,0.209-0.114
			c0.258-0.301,0.641-0.805,0.734-1.263c0.069,0,0.139,0,0.209,0c0.035,0.114,0.069,0.229,0.104,0.345c0.035,0,0.07,0,0.105,0
			c0.035,0.114,0.07,0.229,0.104,0.344c0.105,0.076,0.209,0.153,0.314,0.23c0,0.076,0,0.152,0,0.229
			c0.07,0.038,0.14,0.077,0.209,0.115c0,0.038,0,0.076,0,0.114c0.245,0.229,0.489,0.46,0.733,0.688c0.07,0.115,0.14,0.23,0.21,0.345
			c0.069,0,0.14,0,0.209,0c0.069,0.115,0.14,0.229,0.209,0.345c0.069,0,0.14,0,0.209,0c0.069,0.115,0.14,0.229,0.209,0.345
			c0.07,0,0.14,0,0.209,0c0,0.038,0,0.076,0,0.114c0.069,0,0.14,0,0.209,0c0.035,0.077,0.07,0.153,0.104,0.229
			c0.21,0.077,0.419,0.153,0.629,0.23c0.035,0.076,0.07,0.152,0.105,0.229c0.104,0,0.209,0,0.314,0c0,0.038,0,0.077,0,0.115
			c0.07,0,0.14,0,0.209,0c0,0.038,0,0.076,0,0.115c0.14,0.038,0.28,0.076,0.419,0.114c0,0.038,0,0.076,0,0.114
			c0.209,0.039,0.419,0.077,0.628,0.115c1.659,0.782,4.402,1.281,6.496,0.574c0.175,0,0.35,0,0.524,0c0-0.039,0-0.076,0-0.115
			c0.244-0.038,0.489-0.076,0.734-0.114c0-0.039,0-0.077,0-0.115c0.104,0,0.209,0,0.313,0c0-0.038,0-0.077,0-0.114
			c0.105,0,0.209,0,0.315,0c0-0.038,0-0.077,0-0.115c0.104,0,0.209,0,0.314,0c0-0.038,0-0.076,0-0.115c0.07,0,0.14,0,0.209,0
			c0-0.038,0-0.076,0-0.114c0.105,0,0.21,0,0.314,0c0-0.038,0-0.076,0-0.114c0.253-0.136,0.563-0.279,0.838-0.345
			c0,1.071,0,2.143,0,3.214c-0.698,0.268-1.396,0.536-2.095,0.803c-0.175,0-0.35,0-0.524,0c0,0.039,0,0.077,0,0.115
			c-0.139,0-0.279,0-0.419,0c0,0.038,0,0.077,0,0.115c-0.209,0-0.419,0-0.629,0c0,0.038,0,0.076,0,0.114c-0.244,0-0.489,0-0.733,0
			c0,0.038,0,0.076,0,0.115c-0.664,0-1.327,0-1.991,0c-1.681-0.001-3.087-0.396-4.295-0.919c-0.314-0.076-0.629-0.152-0.942-0.229
			c0-0.039,0-0.077,0-0.115c-0.14-0.039-0.28-0.076-0.419-0.115c0-0.038,0-0.076,0-0.114c-0.105,0-0.209,0-0.314,0
			c0-0.038,0-0.076,0-0.115c-0.209-0.076-0.419-0.153-0.629-0.229c0-0.038,0-0.076,0-0.114c-0.139-0.038-0.279-0.076-0.419-0.115
			c-0.035-0.076-0.07-0.153-0.104-0.229c-0.14-0.038-0.28-0.076-0.419-0.114c-0.035-0.077-0.069-0.153-0.105-0.23
			c-0.069,0-0.139,0-0.209,0c-0.035-0.076-0.07-0.152-0.105-0.229c-0.069,0-0.14,0-0.209,0c-0.035-0.077-0.07-0.154-0.104-0.23
			c-0.07,0-0.14,0-0.209,0c-0.035-0.076-0.07-0.153-0.105-0.229c-0.104-0.038-0.21-0.076-0.314-0.114c0-0.039,0-0.077,0-0.115
			c-0.156-0.135-0.187-0.159-0.419-0.229c-0.105,0.152-0.209,0.306-0.314,0.459c-0.07,0-0.14,0-0.209,0
			c-0.07,0.115-0.14,0.229-0.209,0.345c-0.07,0-0.14,0-0.21,0c-0.035,0.076-0.069,0.153-0.104,0.229
			c-0.105,0.038-0.209,0.076-0.314,0.114c0,0.038,0,0.077,0,0.115c-0.07,0-0.139,0-0.209,0c0,0.038,0,0.076,0,0.115
			c-0.07,0-0.139,0-0.209,0c-0.035,0.076-0.07,0.153-0.104,0.229c-0.209,0.076-0.419,0.153-0.628,0.229
			c-2.475,1.445-6.75,2.753-10.373,1.492c-0.175,0-0.349,0-0.523,0c0-0.039,0-0.077,0-0.115c-0.105,0-0.209,0-0.315,0
			c0-0.038,0-0.076,0-0.114c-0.349-0.077-0.698-0.153-1.047-0.23c0-0.038,0-0.076,0-0.114c-0.07,0-0.14,0-0.209,0
			c0-0.038,0-0.076,0-0.114c-0.104,0-0.209,0-0.314,0c0-0.039,0-0.077,0-0.115c-0.07,0-0.14,0-0.209,0c0-0.039,0-0.076,0-0.115
			c-0.104,0-0.209,0-0.314,0c0-0.038,0-0.076,0-0.114c-0.209-0.076-0.419-0.153-0.628-0.229c0-0.039,0-0.076,0-0.115
			c-0.07,0-0.14,0-0.209,0c0-0.038,0-0.076,0-0.114c-0.209-0.076-0.419-0.153-0.628-0.229c-0.035-0.076-0.07-0.153-0.105-0.229
			c-0.14-0.039-0.279-0.077-0.419-0.115c-0.035-0.077-0.07-0.153-0.104-0.229c-0.07,0-0.14,0-0.209,0
			c-0.035-0.076-0.07-0.153-0.105-0.229c-0.07,0-0.139,0-0.209,0c-0.035-0.076-0.07-0.153-0.104-0.229
			c-0.105-0.039-0.209-0.076-0.314-0.115c0-0.038,0-0.076,0-0.114c-0.183-0.165-0.253-0.263-0.524-0.345
			c-0.204,0.368-0.513,0.448-0.838,0.688c-0.035,0.076-0.07,0.153-0.104,0.23c-0.07,0-0.14,0-0.209,0
			c-0.035,0.076-0.07,0.152-0.105,0.229c-0.07,0-0.14,0-0.21,0c-0.035,0.077-0.069,0.153-0.104,0.23
			c-0.14,0.038-0.28,0.076-0.419,0.114c-0.035,0.076-0.07,0.153-0.105,0.229c-0.139,0.039-0.279,0.077-0.419,0.115
			c0,0.038,0,0.076,0,0.114c-0.209,0.076-0.418,0.153-0.628,0.229c0,0.039,0,0.077,0,0.115c-0.104,0-0.209,0-0.314,0
			c0,0.038,0,0.076,0,0.114c-0.14,0.039-0.279,0.076-0.419,0.115c0,0.038,0,0.076,0,0.115c-0.209,0.038-0.419,0.076-0.629,0.114
			c0,0.038,0,0.076,0,0.114c-0.104,0-0.209,0-0.313,0c0,0.039,0,0.077,0,0.115c-0.105,0-0.209,0-0.315,0c0,0.038,0,0.077,0,0.115
			c-0.104,0-0.209,0-0.314,0c0,0.038,0,0.076,0,0.114c-0.279,0.038-0.559,0.076-0.838,0.115c0,0.038,0,0.076,0,0.114
			c-0.174,0-0.349,0-0.523,0c0,0.038,0,0.077,0,0.115c-0.175,0-0.35,0-0.524,0c0,0.038,0,0.077,0,0.114c-0.279,0-0.558,0-0.838,0
			c-0.365,0.113-2.43,0.271-2.933,0.115c0-0.039,0-0.077,0-0.115c-0.28,0-0.559,0-0.838,0c0-0.037,0-0.076,0-0.114
			c-0.175,0-0.349,0-0.524,0c0-0.038,0-0.077,0-0.115c-0.174,0-0.349,0-0.524,0c0-0.038,0-0.076,0-0.114c-0.14,0-0.279,0-0.419,0
			c-0.698-0.268-1.397-0.536-2.096-0.804c0-1.071,0-2.143,0-3.214c0.278,0.068,0.582,0.208,0.838,0.345c0,0.038,0,0.076,0,0.114
			c0.105,0,0.209,0,0.314,0c0,0.038,0,0.076,0,0.114c0.07,0,0.139,0,0.21,0c0,0.039,0,0.077,0,0.115c0.104,0,0.209,0,0.313,0
			c0,0.038,0,0.077,0,0.115c0.105,0,0.21,0,0.315,0c0,0.037,0,0.076,0,0.114c0.104,0,0.209,0,0.314,0c0,0.038,0,0.076,0,0.115
			c0.105,0,0.209,0,0.314,0c0,0.038,0,0.076,0,0.114c0.14,0,0.279,0,0.419,0c0,0.039,0,0.076,0,0.115c0.175,0,0.349,0,0.524,0
			c0,0.038,0,0.076,0,0.114c0.175,0,0.349,0,0.524,0c0,0.039,0,0.076,0,0.115c0.279,0,0.559,0,0.838,0c0,0.038,0,0.076,0,0.115
			c0.645,0.196,2.294-0.093,2.724-0.23c0.209,0,0.419,0,0.629,0c0-0.038,0-0.076,0-0.114c0.279-0.039,0.558-0.076,0.838-0.115
			c0-0.038,0-0.076,0-0.114c0.104,0,0.209,0,0.314,0c0-0.039,0-0.077,0-0.115c0.104,0,0.21,0,0.314,0c0-0.038,0-0.077,0-0.114
			c0.105,0,0.209,0,0.314,0c0-0.038,0-0.077,0-0.115c0.209-0.038,0.419-0.076,0.629-0.115c0-0.038,0-0.076,0-0.114
			c0.139-0.038,0.279-0.076,0.419-0.114c0-0.039,0-0.077,0-0.115c0.069,0,0.139,0,0.209,0c0-0.038,0-0.077,0-0.115
			c0.104,0,0.209,0,0.314,0c0.035-0.076,0.07-0.152,0.105-0.229c0.069,0,0.139,0,0.209,0c0-0.039,0-0.077,0-0.115
			c0.209-0.077,0.418-0.153,0.628-0.23c0.035-0.075,0.069-0.152,0.104-0.229c0.07,0,0.14,0,0.209,0
			c0.07-0.115,0.14-0.229,0.209-0.345c0.07,0,0.14,0,0.209,0c0.07-0.115,0.14-0.229,0.21-0.345c0.069,0,0.139,0,0.209,0
			c0.174-0.229,0.349-0.458,0.524-0.688C255.802,545.389,256.487,544.819,256.648,544.118z"/>
		<path display="inline" fill="#8383FC" d="M256.648,538.18c0.07,0,0.14,0,0.209,0c0,0.077,0,0.153,0,0.229
			c0.261,0.189,0.238,0.411,0.419,0.689c0.07,0.038,0.14,0.076,0.209,0.115c0.14,0.19,0.279,0.382,0.419,0.573
			c0.209,0.191,0.419,0.383,0.628,0.574c0.07,0.114,0.14,0.229,0.209,0.344c0.07,0,0.14,0,0.209,0c0.07,0.115,0.14,0.23,0.209,0.345
			c0.07,0,0.14,0,0.209,0c0.035,0.076,0.07,0.152,0.105,0.229c0.07,0,0.14,0,0.209,0c0.035,0.077,0.07,0.153,0.105,0.229
			c0.14,0.038,0.279,0.077,0.419,0.114c0.035,0.077,0.07,0.154,0.105,0.23c0.14,0.038,0.279,0.076,0.419,0.115
			c0,0.037,0,0.076,0,0.114c0.14,0.038,0.279,0.076,0.419,0.114c0,0.039,0,0.077,0,0.115c0.105,0,0.209,0,0.314,0
			c0,0.039,0,0.076,0,0.114c0.07,0,0.14,0,0.209,0c0,0.039,0,0.077,0,0.115c0.175,0.038,0.35,0.076,0.524,0.115
			c0,0.038,0,0.076,0,0.114c0.349,0.076,0.698,0.152,1.048,0.229c1.293,0.474,3.371,0.841,4.924,0.345c0.209,0,0.419,0,0.628,0
			c0-0.039,0-0.077,0-0.115c0.14,0,0.28,0,0.419,0c0-0.038,0-0.076,0-0.114c0.14,0,0.28,0,0.419,0c0-0.039,0-0.077,0-0.115
			c0.14,0,0.28,0,0.419,0c0-0.038,0-0.077,0-0.114c0.105,0,0.21,0,0.315,0c0-0.039,0-0.077,0-0.115c0.104,0,0.209,0,0.314,0
			c0-0.038,0-0.076,0-0.114c0.175-0.039,0.349-0.077,0.524-0.115c0-0.038,0-0.076,0-0.115c0.07,0,0.14,0,0.209,0
			c0-0.038,0-0.075,0-0.114c0.105,0,0.209,0,0.315,0c0-0.038,0-0.076,0-0.115c0.139-0.038,0.279-0.076,0.419-0.114
			c0-0.038,0-0.077,0-0.114c0.139-0.039,0.279-0.077,0.419-0.115c0.035-0.076,0.069-0.153,0.104-0.23
			c0.14-0.037,0.279-0.076,0.419-0.114c0-0.038,0-0.076,0-0.114c0.105-0.038,0.209-0.077,0.314-0.115
			c0.035-0.077,0.069-0.153,0.104-0.229c0.07,0,0.14,0,0.209,0c0.035-0.076,0.07-0.153,0.105-0.229c0.07,0,0.14,0,0.209,0
			c0.174-0.23,0.349-0.459,0.524-0.688c0.069,0,0.14,0,0.209,0c0-0.038,0-0.077,0-0.115c0.104-0.076,0.209-0.153,0.314-0.229
			c0-0.076,0-0.152,0-0.229c0.07-0.038,0.14-0.077,0.209-0.115c0.258-0.301,0.641-0.805,0.734-1.263c0.069,0,0.139,0,0.209,0
			c0.035,0.115,0.069,0.229,0.104,0.345c0.035,0,0.07,0,0.105,0c0.035,0.115,0.07,0.229,0.104,0.345
			c0.105,0.076,0.209,0.152,0.314,0.229c0,0.076,0,0.153,0,0.229c0.07,0.038,0.14,0.076,0.209,0.114c0,0.038,0,0.077,0,0.115
			c0.245,0.229,0.489,0.459,0.733,0.688c0.07,0.115,0.14,0.229,0.21,0.344c0.069,0,0.14,0,0.209,0
			c0.069,0.115,0.14,0.23,0.209,0.346c0.069,0,0.14,0,0.209,0c0.069,0.114,0.14,0.229,0.209,0.344c0.07,0,0.14,0,0.209,0
			c0,0.038,0,0.077,0,0.115c0.069,0,0.14,0,0.209,0c0.035,0.076,0.07,0.152,0.104,0.229c0.21,0.077,0.419,0.154,0.629,0.23
			c0.035,0.076,0.07,0.152,0.105,0.229c0.104,0,0.209,0,0.314,0c0,0.038,0,0.076,0,0.114c0.07,0,0.14,0,0.209,0
			c0,0.039,0,0.077,0,0.115c0.14,0.039,0.28,0.076,0.419,0.114c0,0.039,0,0.077,0,0.115c0.209,0.038,0.419,0.076,0.628,0.115
			c1.659,0.782,4.402,1.28,6.496,0.573c0.175,0,0.35,0,0.524,0c0-0.038,0-0.076,0-0.114c0.244-0.039,0.489-0.077,0.734-0.115
			c0-0.038,0-0.077,0-0.115c0.104,0,0.209,0,0.313,0c0-0.038,0-0.076,0-0.114c0.105,0,0.209,0,0.315,0c0-0.038,0-0.076,0-0.114
			c0.104,0,0.209,0,0.314,0c0-0.039,0-0.077,0-0.115c0.07,0,0.14,0,0.209,0c0-0.038,0-0.076,0-0.115c0.105,0,0.21,0,0.314,0
			c0-0.038,0-0.075,0-0.114c0.253-0.135,0.563-0.279,0.838-0.344c0,1.07,0,2.143,0,3.213c-0.698,0.269-1.396,0.536-2.095,0.804
			c-0.175,0-0.35,0-0.524,0c0,0.038,0,0.076,0,0.114c-0.139,0-0.279,0-0.419,0c0,0.039,0,0.077,0,0.115c-0.209,0-0.419,0-0.629,0
			c0,0.039,0,0.077,0,0.114c-0.244,0-0.489,0-0.733,0c0,0.039,0,0.077,0,0.115c-0.664,0-1.327,0-1.991,0
			c-1.681,0-3.087-0.396-4.295-0.918c-0.314-0.076-0.629-0.153-0.942-0.229c0-0.038,0-0.077,0-0.115
			c-0.14-0.038-0.28-0.076-0.419-0.114c0-0.039,0-0.077,0-0.115c-0.105,0-0.209,0-0.314,0c0-0.038,0-0.076,0-0.114
			c-0.209-0.077-0.419-0.153-0.629-0.23c0-0.038,0-0.076,0-0.114c-0.139-0.038-0.279-0.076-0.419-0.114
			c-0.035-0.077-0.07-0.154-0.104-0.23c-0.14-0.038-0.28-0.076-0.419-0.114c-0.035-0.076-0.069-0.153-0.105-0.229
			c-0.069,0-0.139,0-0.209,0c-0.035-0.076-0.07-0.153-0.105-0.229c-0.069,0-0.14,0-0.209,0c-0.035-0.076-0.07-0.153-0.104-0.229
			c-0.07,0-0.14,0-0.209,0c-0.035-0.076-0.07-0.153-0.105-0.229c-0.104-0.038-0.21-0.077-0.314-0.115c0-0.038,0-0.077,0-0.114
			c-0.156-0.135-0.187-0.159-0.419-0.229c-0.105,0.152-0.209,0.306-0.314,0.459c-0.07,0-0.14,0-0.209,0
			c-0.07,0.114-0.14,0.229-0.209,0.344c-0.07,0-0.14,0-0.21,0c-0.035,0.077-0.069,0.153-0.104,0.229
			c-0.105,0.039-0.209,0.076-0.314,0.115c0,0.038,0,0.076,0,0.114c-0.07,0-0.139,0-0.209,0c0,0.039,0,0.077,0,0.115
			c-0.07,0-0.139,0-0.209,0c-0.035,0.076-0.07,0.153-0.104,0.229c-0.209,0.076-0.419,0.153-0.628,0.229
			c-2.475,1.446-6.75,2.754-10.373,1.492c-0.175,0-0.349,0-0.523,0c0-0.039,0-0.076,0-0.115c-0.105,0-0.209,0-0.315,0
			c0-0.037,0-0.076,0-0.114c-0.349-0.076-0.698-0.153-1.047-0.229c0-0.039,0-0.076,0-0.115c-0.07,0-0.14,0-0.209,0
			c0-0.038,0-0.076,0-0.114c-0.104,0-0.209,0-0.314,0c0-0.038,0-0.077,0-0.115c-0.07,0-0.14,0-0.209,0c0-0.038,0-0.076,0-0.114
			c-0.104,0-0.209,0-0.314,0c0-0.039,0-0.077,0-0.115c-0.209-0.076-0.419-0.153-0.628-0.229c0-0.038,0-0.076,0-0.115
			c-0.07,0-0.14,0-0.209,0c0-0.038,0-0.076,0-0.114c-0.209-0.076-0.419-0.153-0.628-0.229c-0.035-0.076-0.07-0.153-0.105-0.229
			c-0.14-0.038-0.279-0.076-0.419-0.115c-0.035-0.076-0.07-0.152-0.104-0.229c-0.07,0-0.14,0-0.209,0
			c-0.035-0.077-0.07-0.153-0.105-0.23c-0.07,0-0.139,0-0.209,0c-0.035-0.076-0.07-0.153-0.104-0.229
			c-0.105-0.038-0.209-0.076-0.314-0.114c0-0.038,0-0.077,0-0.115c-0.183-0.165-0.253-0.263-0.524-0.344
			c-0.204,0.368-0.513,0.448-0.838,0.688c-0.035,0.076-0.07,0.153-0.104,0.229c-0.07,0-0.14,0-0.209,0
			c-0.035,0.076-0.07,0.153-0.105,0.229c-0.07,0-0.14,0-0.21,0c-0.035,0.076-0.069,0.153-0.104,0.229
			c-0.14,0.038-0.28,0.076-0.419,0.114c-0.035,0.076-0.07,0.153-0.105,0.23c-0.139,0.038-0.279,0.076-0.419,0.114
			c0,0.038,0,0.076,0,0.114c-0.209,0.077-0.418,0.153-0.628,0.23c0,0.038,0,0.076,0,0.114c-0.104,0-0.209,0-0.314,0
			c0,0.038,0,0.076,0,0.115c-0.14,0.038-0.279,0.076-0.419,0.114c0,0.038,0,0.077,0,0.115c-0.209,0.038-0.419,0.076-0.629,0.114
			c0,0.039,0,0.076,0,0.115c-0.104,0-0.209,0-0.313,0c0,0.038,0,0.076,0,0.114c-0.105,0-0.209,0-0.315,0c0,0.039,0,0.077,0,0.115
			c-0.104,0-0.209,0-0.314,0c0,0.038,0,0.077,0,0.114c-0.279,0.039-0.559,0.076-0.838,0.115c0,0.038,0,0.076,0,0.114
			c-0.174,0-0.349,0-0.523,0c0,0.039,0,0.077,0,0.115c-0.175,0-0.35,0-0.524,0c0,0.039,0,0.077,0,0.114c-0.279,0-0.558,0-0.838,0
			c-0.365,0.114-2.43,0.271-2.933,0.115c0-0.038,0-0.076,0-0.115c-0.28,0-0.559,0-0.838,0c0-0.037,0-0.075,0-0.114
			c-0.175,0-0.349,0-0.524,0c0-0.038,0-0.076,0-0.115c-0.174,0-0.349,0-0.524,0c0-0.038,0-0.076,0-0.114c-0.14,0-0.279,0-0.419,0
			c-0.698-0.268-1.397-0.535-2.096-0.804c0-1.07,0-2.143,0-3.213c0.278,0.067,0.582,0.207,0.838,0.344c0,0.039,0,0.076,0,0.114
			c0.105,0,0.209,0,0.314,0c0,0.039,0,0.077,0,0.115c0.07,0,0.139,0,0.21,0c0,0.038,0,0.076,0,0.115c0.104,0,0.209,0,0.313,0
			c0,0.038,0,0.076,0,0.114c0.105,0,0.21,0,0.315,0c0,0.038,0,0.076,0,0.115c0.104,0,0.209,0,0.314,0c0,0.037,0,0.076,0,0.114
			c0.105,0,0.209,0,0.314,0c0,0.038,0,0.076,0,0.115c0.14,0,0.279,0,0.419,0c0,0.038,0,0.076,0,0.114c0.175,0,0.349,0,0.524,0
			c0,0.038,0,0.076,0,0.115c0.175,0,0.349,0,0.524,0c0,0.038,0,0.076,0,0.114c0.279,0,0.559,0,0.838,0c0,0.038,0,0.077,0,0.115
			c0.645,0.196,2.294-0.093,2.724-0.229c0.209,0,0.419,0,0.629,0c0-0.039,0-0.077,0-0.115c0.279-0.038,0.558-0.076,0.838-0.114
			c0-0.039,0-0.077,0-0.115c0.104,0,0.209,0,0.314,0c0-0.038,0-0.077,0-0.114c0.104,0,0.21,0,0.314,0c0-0.039,0-0.077,0-0.115
			c0.105,0,0.209,0,0.314,0c0-0.038,0-0.076,0-0.114c0.209-0.039,0.419-0.077,0.629-0.115c0-0.038,0-0.076,0-0.115
			c0.139-0.038,0.279-0.075,0.419-0.114c0-0.038,0-0.076,0-0.115c0.069,0,0.139,0,0.209,0c0-0.038,0-0.076,0-0.114
			c0.104,0,0.209,0,0.314,0c0.035-0.077,0.07-0.153,0.105-0.229c0.069,0,0.139,0,0.209,0c0-0.038,0-0.076,0-0.115
			c0.209-0.076,0.418-0.152,0.628-0.229c0.035-0.076,0.069-0.152,0.104-0.229c0.07,0,0.14,0,0.209,0
			c0.07-0.114,0.14-0.229,0.209-0.344c0.07,0,0.14,0,0.209,0c0.07-0.115,0.14-0.23,0.21-0.346c0.069,0,0.139,0,0.209,0
			c0.174-0.229,0.349-0.458,0.524-0.688C255.802,539.451,256.487,538.88,256.648,538.18z"/>
	</g>
	<g id="paw4">
	</g>
	<g id="paw3">
	</g>
	<g id="paw2">
	</g>
</g>
<g id="logodog" class= "w3">
	<g id="paw3_1_">
		<path fill="#231F20" d="M236.184,509.531c0.033-0.035,0.067-0.07,0.099-0.104c-0.039-0.373-0.078-0.744-0.114-1.115
			c0.033-0.035,0.067-0.07,0.1-0.104c-0.027-0.16-0.056-0.319-0.083-0.479c0.033-0.034,0.067-0.069,0.102-0.105
			c-0.022-0.087-0.044-0.175-0.067-0.264c0.033-0.034,0.067-0.07,0.1-0.104c-0.022-0.054-0.042-0.107-0.061-0.159
			c0.032-0.034,0.066-0.069,0.101-0.105c-0.023-0.089-0.047-0.178-0.07-0.268c0.033-0.034,0.067-0.069,0.101-0.104
			c-0.022-0.052-0.041-0.105-0.062-0.159c0.033-0.034,0.067-0.069,0.101-0.104c-0.022-0.053-0.042-0.107-0.062-0.159
			c0.048-0.088,0.096-0.175,0.145-0.264c-0.021-0.052-0.043-0.105-0.063-0.158c0.063-0.142,0.126-0.28,0.188-0.422
			c-0.021-0.052-0.042-0.105-0.063-0.157c0.048-0.089,0.096-0.176,0.145-0.263c-0.02-0.019-0.038-0.036-0.057-0.055
			c0.063-0.141,0.126-0.28,0.19-0.42c-0.019-0.019-0.038-0.037-0.057-0.056c0.049-0.051,0.1-0.104,0.151-0.156
			c-0.017-0.017-0.038-0.036-0.056-0.054c0.048-0.087,0.096-0.175,0.145-0.262c-0.02-0.019-0.038-0.036-0.056-0.054
			c0.267-0.58,0.535-1.157,0.802-1.735c0.084-0.087,0.167-0.174,0.251-0.261c0.324-0.669,1.202-1.57,1.853-1.93
			c0.236-0.208,0.472-0.417,0.708-0.625c0.018,0.018,0.037,0.036,0.056,0.054c0.188-0.121,0.375-0.241,0.561-0.361
			c0.019,0.019,0.038,0.037,0.056,0.054c0.138-0.069,0.276-0.136,0.413-0.206c0.018,0.018,0.037,0.036,0.056,0.054
			c0.033-0.034,0.067-0.069,0.1-0.104c0.019,0.018,0.037,0.035,0.057,0.054c0.034-0.035,0.067-0.071,0.101-0.105
			c0.018,0.017,0.037,0.035,0.055,0.053c0.085-0.052,0.172-0.102,0.256-0.155c0.054,0.02,0.11,0.037,0.163,0.055
			c0.033-0.035,0.067-0.07,0.1-0.104c0.019,0.018,0.039,0.037,0.056,0.054c0.07-0.034,0.139-0.07,0.208-0.102
			c0.054,0.018,0.108,0.037,0.161,0.055c0.035-0.036,0.067-0.069,0.102-0.105c0.124,0.02,0.25,0.04,0.375,0.06
			c0.033-0.035,0.066-0.069,0.1-0.104c0.161,0.02,0.32,0.041,0.482,0.062c0.05-0.018,0.104-0.035,0.155-0.053
			c0.039,0.037,0.076,0.072,0.113,0.109c0.124-0.016,0.245-0.032,0.368-0.048c0.037,0.036,0.075,0.072,0.112,0.107
			c0.087-0.015,0.176-0.032,0.262-0.049c2.04,0.438,4.786,2.205,6.15,4.602c0.094,0.09,0.188,0.18,0.281,0.27
			c-0.017,0.017-0.034,0.035-0.05,0.052c0.055,0.053,0.111,0.107,0.168,0.162c-0.017,0.018-0.034,0.035-0.05,0.052
			c0.152,0.214,0.307,0.43,0.46,0.644c-0.015,0.017-0.034,0.035-0.05,0.052c0.056,0.055,0.11,0.106,0.167,0.161
			c-0.016,0.018-0.033,0.035-0.049,0.052c0.057,0.054,0.111,0.106,0.168,0.161c-0.018,0.019-0.034,0.035-0.05,0.053
			c0.057,0.054,0.112,0.107,0.167,0.16c-0.016,0.017-0.034,0.035-0.05,0.052c0.038,0.037,0.075,0.072,0.113,0.108
			c-0.017,0.018-0.034,0.035-0.05,0.053c0.056,0.053,0.113,0.107,0.168,0.161c-0.017,0.018-0.035,0.036-0.05,0.052
			c0.037,0.036,0.074,0.072,0.111,0.107c-0.017,0.018-0.034,0.035-0.05,0.052c0.056,0.055,0.113,0.108,0.169,0.162
			c-0.016,0.017-0.034,0.036-0.051,0.054c0.08,0.141,0.157,0.284,0.237,0.427c-0.017,0.018-0.033,0.034-0.05,0.052
			c0.037,0.035,0.075,0.072,0.112,0.107c-0.016,0.017-0.034,0.035-0.05,0.053c0.037,0.035,0.075,0.072,0.112,0.107
			c-0.016,0.017-0.033,0.034-0.049,0.051c0.038,0.036,0.075,0.072,0.111,0.107c-0.016,0.017-0.035,0.035-0.05,0.052
			c0.038,0.036,0.075,0.072,0.112,0.108c-0.017,0.018-0.033,0.034-0.05,0.052c0.038,0.037,0.075,0.072,0.112,0.107
			c-0.016,0.018-0.034,0.035-0.05,0.053c0.037,0.035,0.075,0.072,0.112,0.107c-0.016,0.017-0.033,0.034-0.05,0.052
			c0.038,0.037,0.075,0.072,0.112,0.108c-0.016,0.017-0.033,0.034-0.049,0.052c0.038,0.035,0.075,0.071,0.111,0.105
			c-0.017,0.018-0.033,0.035-0.049,0.052c0.039,0.037,0.075,0.072,0.113,0.109c-0.016,0.053-0.03,0.104-0.046,0.157
			c0.059,0.089,0.118,0.178,0.175,0.268c-0.015,0.053-0.027,0.107-0.043,0.158c0.037,0.036,0.076,0.073,0.112,0.107
			c-0.016,0.017-0.035,0.036-0.05,0.052c0.039,0.072,0.08,0.144,0.119,0.215c-0.016,0.052-0.029,0.105-0.046,0.156
			c0.04,0.038,0.076,0.073,0.114,0.109c-0.013,0.123-0.022,0.247-0.032,0.37c0.037,0.035,0.075,0.071,0.11,0.105
			c-0.008,0.16-0.017,0.318-0.025,0.479c0.037,0.035,0.075,0.071,0.113,0.107c0.005,0.441,0.013,0.882,0.022,1.325
			c0.043,0.441,0.087,0.883,0.13,1.325c-0.035,0.036-0.067,0.07-0.102,0.106c0.031,0.229,0.062,0.46,0.092,0.688
			c-0.033,0.034-0.068,0.07-0.101,0.105c0.025,0.124,0.05,0.248,0.075,0.373c-0.032,0.034-0.067,0.069-0.101,0.105
			c0.023,0.088,0.045,0.178,0.069,0.266c-0.033,0.035-0.067,0.07-0.1,0.104c0.02,0.09,0.044,0.178,0.066,0.268
			c-0.033,0.033-0.067,0.069-0.1,0.104c0.02,0.053,0.041,0.108,0.061,0.159c-0.031,0.069-0.063,0.141-0.092,0.211
			c0.017,0.016,0.037,0.035,0.054,0.052c-0.033,0.034-0.067,0.07-0.101,0.104c0.022,0.057,0.042,0.108,0.063,0.162
			c-0.03,0.068-0.063,0.139-0.094,0.209c0.019,0.019,0.038,0.036,0.055,0.053c-0.062,0.142-0.127,0.282-0.188,0.423
			c0.021,0.053,0.041,0.106,0.062,0.158c-0.049,0.088-0.096,0.177-0.145,0.265c0.019,0.019,0.037,0.036,0.056,0.054
			c-0.047,0.087-0.095,0.175-0.145,0.262c0.019,0.018,0.039,0.037,0.057,0.055c-0.049,0.052-0.099,0.104-0.149,0.155
			c0.019,0.018,0.037,0.035,0.056,0.054c-0.048,0.088-0.096,0.176-0.145,0.262c0.019,0.018,0.039,0.037,0.057,0.055
			c-0.287,0.561-0.573,1.12-0.86,1.682c-0.265,0.313-0.53,0.627-0.795,0.94c0.019,0.019,0.038,0.036,0.056,0.054
			c-0.552,0.539-1.106,1.078-1.659,1.615c-0.018-0.018-0.037-0.036-0.056-0.054c-0.067,0.07-0.133,0.139-0.199,0.208
			c-0.019-0.018-0.038-0.036-0.056-0.054c-0.051,0.053-0.101,0.105-0.152,0.158c-0.018-0.018-0.039-0.037-0.056-0.055
			c-0.049,0.051-0.1,0.104-0.151,0.157c-0.019-0.018-0.037-0.035-0.056-0.054c-0.137,0.067-0.275,0.137-0.413,0.205
			c-0.018-0.018-0.037-0.035-0.056-0.054c-0.034,0.035-0.068,0.07-0.101,0.104c-0.019-0.018-0.038-0.036-0.056-0.054
			c-0.033,0.035-0.067,0.07-0.101,0.104c-0.018-0.017-0.038-0.036-0.056-0.054c-0.035,0.036-0.067,0.07-0.101,0.104
			c-0.018-0.017-0.037-0.035-0.056-0.053c-0.034,0.035-0.067,0.069-0.1,0.104c-0.019-0.018-0.038-0.036-0.056-0.053
			c-0.035,0.035-0.068,0.07-0.101,0.104c-0.018-0.018-0.038-0.036-0.057-0.055c-0.034,0.035-0.066,0.069-0.1,0.104
			c-0.053-0.019-0.11-0.036-0.162-0.055c-0.034,0.035-0.066,0.068-0.101,0.104c-0.019-0.018-0.038-0.036-0.057-0.054
			c-0.067,0.035-0.137,0.068-0.207,0.103c-0.053-0.02-0.108-0.037-0.161-0.055c-0.033,0.034-0.067,0.069-0.101,0.104
			c-0.125-0.021-0.249-0.04-0.376-0.06c-1.3,0.191-2.576-0.209-3.921-0.857c-0.075-0.071-0.15-0.144-0.225-0.216
			c-0.017,0.018-0.034,0.035-0.05,0.052c-0.093-0.09-0.188-0.181-0.282-0.271c-0.017,0.018-0.033,0.034-0.05,0.053
			c-0.111-0.106-0.225-0.216-0.336-0.322c-0.016,0.017-0.033,0.034-0.049,0.051c-0.167-0.16-0.336-0.323-0.505-0.484
			c-0.016,0.017-0.033,0.034-0.05,0.052c-0.326-0.182-1.269-1.225-1.408-1.452c-0.168-0.161-0.336-0.323-0.506-0.485
			c0.017-0.017,0.033-0.034,0.05-0.052c-0.111-0.106-0.224-0.215-0.336-0.322c0.018-0.019,0.034-0.035,0.051-0.053
			c-0.094-0.09-0.187-0.18-0.28-0.27c0.016-0.016,0.033-0.034,0.049-0.051c-0.075-0.073-0.151-0.146-0.225-0.216
			c0.017-0.018,0.034-0.035,0.05-0.053c-0.074-0.071-0.15-0.144-0.225-0.216c0.016-0.017,0.034-0.035,0.05-0.052
			c-0.076-0.072-0.151-0.145-0.226-0.217c0.017-0.018,0.033-0.035,0.05-0.053c-0.056-0.054-0.111-0.106-0.167-0.16
			c0.016-0.016,0.034-0.035,0.049-0.051c-0.056-0.055-0.113-0.108-0.168-0.162c0.017-0.018,0.034-0.035,0.05-0.052
			c-0.056-0.055-0.113-0.108-0.168-0.162c0.018-0.019,0.034-0.035,0.05-0.052c-0.096-0.125-0.19-0.251-0.288-0.376
			c0.016-0.017,0.034-0.036,0.05-0.053c-0.037-0.035-0.074-0.071-0.111-0.106c0.016-0.018,0.033-0.035,0.049-0.052
			c-0.056-0.054-0.111-0.106-0.168-0.161c0.017-0.017,0.034-0.035,0.05-0.052c-0.08-0.143-0.158-0.287-0.237-0.429
			c0.017-0.018,0.034-0.035,0.051-0.053c-0.038-0.036-0.076-0.072-0.112-0.107c0.017-0.017,0.033-0.034,0.049-0.051
			c-0.037-0.036-0.075-0.072-0.112-0.108c0.016-0.018,0.033-0.035,0.05-0.053c-0.077-0.105-0.152-0.214-0.231-0.319
			c0.015-0.053,0.03-0.107,0.044-0.16c-0.037-0.035-0.075-0.072-0.111-0.106c0.016-0.017,0.034-0.035,0.051-0.053
			c-0.038-0.037-0.075-0.072-0.112-0.108c0.016-0.017,0.033-0.034,0.048-0.05c-0.038-0.037-0.075-0.073-0.112-0.108
			c0.018-0.018,0.034-0.035,0.051-0.053c-0.038-0.035-0.076-0.072-0.112-0.107c0.016-0.016,0.033-0.034,0.051-0.053
			c-0.04-0.069-0.08-0.142-0.12-0.213c0.017-0.052,0.03-0.106,0.046-0.157c-0.06-0.089-0.117-0.179-0.175-0.27
			c0.016-0.017,0.033-0.034,0.049-0.05c-0.04-0.072-0.079-0.143-0.118-0.215c0.015-0.053,0.029-0.105,0.045-0.158
			c-0.038-0.037-0.075-0.072-0.112-0.107c0.011-0.088,0.024-0.177,0.037-0.265c-0.037-0.035-0.075-0.071-0.111-0.106
			c0.012-0.09,0.025-0.176,0.038-0.266c-0.037-0.035-0.075-0.071-0.111-0.106c0.012-0.088,0.025-0.176,0.038-0.265
			c-0.037-0.036-0.075-0.072-0.113-0.108c0.01-0.158,0.018-0.315,0.026-0.476c-0.037-0.036-0.075-0.072-0.112-0.107
			c0.015-0.017,0.034-0.035,0.05-0.053c-0.026-0.122-0.05-0.248-0.074-0.371C236.274,510.211,236.384,509.86,236.184,509.531z"/>
		<path fill="#231F20" d="M253.471,486.131c0.567-0.606,1.182-1.296,1.766-1.614c0.1-0.104,0.2-0.208,0.3-0.313
			c0.971-0.506,1.921-0.866,2.914-1.012c0.266,0.022,0.532,0.043,0.797,0.066c0.195-0.016,0.389-0.03,0.583-0.044
			c0.037,0.035,0.075,0.072,0.111,0.107c0.088-0.014,0.175-0.033,0.265-0.049c0.037,0.035,0.075,0.072,0.111,0.106
			c0.051-0.016,0.104-0.033,0.157-0.049c0.037,0.035,0.075,0.072,0.111,0.107c0.052-0.017,0.104-0.034,0.158-0.05
			c0.037,0.035,0.074,0.071,0.11,0.106c0.017-0.017,0.033-0.034,0.049-0.051c0.039,0.038,0.075,0.073,0.113,0.108
			c0.017-0.018,0.035-0.037,0.051-0.053c0.037,0.036,0.075,0.072,0.112,0.107c0.016-0.017,0.033-0.035,0.049-0.051
			c0.038,0.037,0.075,0.072,0.113,0.108c0.016-0.017,0.034-0.035,0.051-0.053c0.037,0.035,0.075,0.072,0.11,0.106
			c0.016-0.017,0.033-0.035,0.05-0.052c0.092,0.056,0.183,0.111,0.275,0.166c0.017-0.018,0.033-0.034,0.049-0.051
			c0.057,0.054,0.112,0.107,0.167,0.16c0.017-0.018,0.034-0.035,0.05-0.052c0.038,0.037,0.075,0.073,0.113,0.108
			c0.016-0.017,0.034-0.035,0.049-0.051c0.056,0.053,0.112,0.107,0.168,0.162c0.018-0.019,0.034-0.035,0.05-0.053
			c0.166,0.126,0.333,0.253,0.5,0.379c0.661,0.334,2.014,1.3,2.507,2.106c0.168,0.162,0.336,0.324,0.504,0.484
			c-0.017,0.018-0.034,0.035-0.05,0.052c0.111,0.107,0.226,0.216,0.337,0.323c-0.016,0.016-0.034,0.035-0.05,0.052
			c0.094,0.09,0.188,0.18,0.281,0.27c-0.016,0.017-0.033,0.035-0.049,0.052c0.075,0.072,0.15,0.144,0.226,0.216
			c-0.017,0.018-0.035,0.036-0.05,0.052c0.075,0.072,0.15,0.144,0.224,0.215c-0.017,0.018-0.033,0.035-0.051,0.053
			c0.056,0.054,0.112,0.108,0.169,0.163c-0.016,0.016-0.033,0.034-0.049,0.051c0.056,0.054,0.111,0.107,0.167,0.16
			c-0.016,0.017-0.033,0.035-0.05,0.052c0.056,0.054,0.111,0.107,0.168,0.162c-0.016,0.017-0.032,0.034-0.049,0.051
			c0.057,0.054,0.111,0.107,0.168,0.162c-0.017,0.018-0.033,0.034-0.049,0.051c0.037,0.036,0.075,0.072,0.111,0.107
			c-0.017,0.018-0.035,0.036-0.05,0.052c0.096,0.126,0.19,0.252,0.286,0.376c-0.016,0.017-0.033,0.035-0.049,0.051
			c0.06,0.089,0.117,0.18,0.175,0.27c-0.016,0.016-0.033,0.034-0.049,0.05c0.057,0.054,0.112,0.108,0.168,0.162
			c-0.018,0.019-0.034,0.036-0.05,0.052c0.037,0.035,0.075,0.072,0.111,0.106c-0.017,0.018-0.034,0.035-0.05,0.052
			c0.04,0.038,0.076,0.072,0.114,0.108c-0.017,0.018-0.034,0.036-0.051,0.053c0.08,0.141,0.157,0.285,0.236,0.427
			c-0.016,0.017-0.033,0.035-0.051,0.053c0.057,0.054,0.113,0.108,0.168,0.162c-0.016,0.016-0.033,0.034-0.049,0.051
			c0.078,0.143,0.157,0.286,0.237,0.429c-0.018,0.019-0.034,0.036-0.051,0.053c0.059,0.088,0.116,0.178,0.175,0.265
			c-0.015,0.055-0.028,0.108-0.045,0.16c0.081,0.142,0.16,0.285,0.239,0.427c-0.016,0.053-0.029,0.108-0.046,0.159
			c0.059,0.089,0.116,0.179,0.176,0.269c-0.016,0.016-0.034,0.035-0.05,0.052c0.04,0.071,0.079,0.141,0.118,0.212
			c-0.015,0.053-0.029,0.106-0.044,0.159c0.038,0.036,0.076,0.072,0.111,0.107c-0.01,0.124-0.019,0.246-0.03,0.369
			c0.038,0.037,0.075,0.072,0.112,0.108c-0.011,0.125-0.022,0.246-0.032,0.37c0.037,0.036,0.075,0.072,0.111,0.107
			c0.005,0.408,0.01,0.813,0.015,1.219c0.048,0.514,0.094,1.027,0.14,1.54c-0.033,0.034-0.066,0.069-0.1,0.104
			c0.028,0.159,0.054,0.319,0.081,0.479c-0.033,0.035-0.066,0.069-0.101,0.105c0.026,0.123,0.049,0.248,0.076,0.372
			c-0.034,0.035-0.067,0.07-0.101,0.105c0.023,0.087,0.045,0.177,0.068,0.266c-0.034,0.035-0.066,0.069-0.101,0.104
			c0.021,0.052,0.042,0.105,0.062,0.158c-0.032,0.071-0.063,0.142-0.094,0.212c0.018,0.017,0.037,0.035,0.055,0.053
			c-0.033,0.035-0.067,0.07-0.101,0.105c0.023,0.054,0.042,0.106,0.063,0.161c-0.033,0.035-0.067,0.07-0.1,0.104
			c0.02,0.053,0.04,0.107,0.059,0.158c-0.03,0.071-0.061,0.142-0.094,0.212c0.018,0.017,0.038,0.036,0.056,0.054
			c-0.033,0.035-0.067,0.07-0.1,0.104c0.018,0.018,0.037,0.036,0.055,0.053c-0.033,0.035-0.067,0.071-0.101,0.105
			c0.02,0.019,0.039,0.037,0.057,0.055c-0.032,0.034-0.067,0.069-0.099,0.104c0.018,0.017,0.037,0.036,0.056,0.054
			c-0.034,0.036-0.067,0.07-0.101,0.105c0.021,0.052,0.042,0.106,0.061,0.159c-0.033,0.034-0.066,0.068-0.1,0.104
			c0.019,0.019,0.039,0.038,0.057,0.056c-0.048,0.086-0.096,0.174-0.145,0.262c0.02,0.019,0.038,0.036,0.056,0.053
			c-0.064,0.105-0.128,0.212-0.192,0.315c-0.421,1.591-1.728,3.945-3.596,4.869c-0.205,0.136-0.409,0.274-0.614,0.414
			c-0.019-0.019-0.037-0.036-0.056-0.055c-0.084,0.052-0.17,0.104-0.256,0.155c-0.018-0.018-0.038-0.036-0.056-0.054
			c-0.208,0.103-0.413,0.204-0.619,0.309c-0.019-0.019-0.037-0.036-0.056-0.054c-0.068,0.033-0.137,0.068-0.205,0.102
			c-0.055-0.019-0.109-0.037-0.164-0.055c-0.033,0.034-0.067,0.069-0.1,0.104c-0.053-0.019-0.106-0.037-0.162-0.057
			c-0.034,0.035-0.067,0.07-0.1,0.104c-0.159-0.019-0.32-0.039-0.48-0.06c-0.033,0.035-0.066,0.069-0.102,0.105
			c-0.161-0.02-0.32-0.041-0.481-0.061c-0.05,0.017-0.105,0.033-0.156,0.049c-0.038-0.035-0.076-0.072-0.112-0.107
			c-0.123,0.016-0.244,0.032-0.367,0.049c-0.039-0.038-0.075-0.073-0.112-0.108c-0.09,0.016-0.175,0.032-0.264,0.049
			c-0.037-0.035-0.075-0.072-0.112-0.107c-0.051,0.018-0.105,0.035-0.157,0.051c-0.09-0.054-0.183-0.109-0.273-0.165
			c-0.053,0.021-0.105,0.035-0.158,0.052c-0.091-0.056-0.182-0.109-0.273-0.163c-0.016,0.018-0.033,0.035-0.048,0.051
			c-0.093-0.054-0.184-0.108-0.276-0.163c-0.017,0.018-0.033,0.034-0.049,0.051c-0.056-0.054-0.113-0.107-0.167-0.16
			c-0.017,0.018-0.035,0.035-0.05,0.052c-0.039-0.037-0.075-0.072-0.113-0.108c-0.016,0.017-0.034,0.035-0.049,0.052
			c-0.149-0.108-0.296-0.217-0.444-0.324c-0.015,0.016-0.034,0.035-0.05,0.052c-0.075-0.072-0.149-0.143-0.225-0.216
			c-0.017,0.017-0.033,0.034-0.049,0.051c-0.075-0.072-0.149-0.144-0.226-0.217c-0.017,0.018-0.035,0.037-0.051,0.054
			c-0.111-0.106-0.225-0.216-0.336-0.322c-0.66-0.364-1.387-1.13-2.064-1.781c-0.582-0.559-1.015-1.118-1.315-1.664
			c-0.075-0.072-0.15-0.144-0.225-0.216c0.016-0.017,0.035-0.035,0.05-0.052c-0.115-0.144-0.229-0.286-0.342-0.43
			c0.016-0.017,0.033-0.035,0.049-0.052c-0.057-0.055-0.112-0.108-0.167-0.161c0.016-0.017,0.033-0.034,0.05-0.052
			c-0.057-0.055-0.113-0.108-0.169-0.162c0.017-0.018,0.033-0.034,0.049-0.052c-0.037-0.036-0.075-0.072-0.112-0.107
			c0.017-0.018,0.033-0.035,0.051-0.053c-0.056-0.054-0.111-0.107-0.167-0.161c0.016-0.016,0.032-0.033,0.049-0.051
			c-0.038-0.036-0.076-0.072-0.114-0.108c0.017-0.018,0.034-0.035,0.049-0.052c-0.055-0.053-0.112-0.107-0.168-0.161
			c0.018-0.019,0.034-0.036,0.051-0.053c-0.058-0.088-0.115-0.177-0.173-0.268c0.016-0.016,0.033-0.034,0.049-0.051
			c-0.057-0.054-0.113-0.108-0.169-0.162c0.017-0.018,0.033-0.035,0.05-0.052c-0.078-0.142-0.156-0.287-0.235-0.429
			c0.016-0.016,0.033-0.035,0.049-0.051c-0.057-0.089-0.114-0.179-0.173-0.268c0.014-0.051,0.029-0.106,0.043-0.159
			c-0.078-0.142-0.157-0.285-0.235-0.427c0.014-0.051,0.03-0.106,0.043-0.158c-0.059-0.09-0.114-0.18-0.174-0.269
			c0.015-0.052,0.029-0.106,0.046-0.158c-0.039-0.037-0.075-0.072-0.113-0.109c0.016-0.052,0.029-0.105,0.045-0.157
			c-0.037-0.036-0.075-0.072-0.113-0.109c0.016-0.051,0.032-0.106,0.046-0.158c-0.038-0.036-0.075-0.072-0.112-0.107
			c0.015-0.053,0.028-0.105,0.045-0.158c-0.037-0.035-0.075-0.073-0.113-0.108c0.013-0.088,0.025-0.176,0.038-0.264
			c-0.038-0.037-0.075-0.072-0.112-0.108c0.012-0.087,0.025-0.177,0.039-0.263c-0.039-0.037-0.075-0.072-0.113-0.109
			c0.012-0.123,0.022-0.246,0.033-0.37c-0.038-0.036-0.076-0.072-0.111-0.106c0.005-0.231,0.008-0.46,0.014-0.69
			c-0.038-0.037-0.076-0.072-0.112-0.107c0.009-0.16,0.017-0.318,0.025-0.476c-0.036-0.336-0.072-0.673-0.11-1.008
			c0.033-0.035,0.068-0.07,0.101-0.105c-0.032-0.231-0.063-0.459-0.092-0.689c0.033-0.035,0.067-0.07,0.1-0.104
			c-0.024-0.125-0.049-0.249-0.075-0.374c0.034-0.035,0.066-0.069,0.101-0.104c-0.024-0.089-0.045-0.178-0.067-0.266
			c0.033-0.035,0.067-0.07,0.1-0.104c-0.024-0.089-0.045-0.177-0.068-0.267c0.033-0.034,0.067-0.07,0.1-0.104
			c-0.021-0.053-0.041-0.105-0.062-0.161c0.032-0.068,0.063-0.139,0.095-0.208c-0.019-0.018-0.039-0.037-0.056-0.053
			c0.034-0.035,0.067-0.07,0.101-0.105c-0.023-0.054-0.042-0.108-0.064-0.161c0.034-0.035,0.067-0.069,0.102-0.105
			c-0.022-0.052-0.042-0.105-0.062-0.16c0.063-0.139,0.125-0.28,0.189-0.419c-0.021-0.053-0.042-0.106-0.063-0.159
			c0.062-0.141,0.125-0.281,0.189-0.422c-0.019-0.018-0.037-0.036-0.056-0.054c0.032-0.034,0.066-0.069,0.099-0.104
			c-0.019-0.019-0.037-0.036-0.056-0.054c0.063-0.141,0.127-0.282,0.191-0.42c-0.02-0.019-0.039-0.037-0.057-0.055
			c0.05-0.052,0.1-0.104,0.15-0.156c-0.019-0.018-0.038-0.037-0.057-0.054c0.034-0.035,0.067-0.07,0.101-0.105
			c-0.018-0.018-0.037-0.036-0.055-0.053c0.05-0.052,0.1-0.104,0.151-0.157c-0.02-0.019-0.038-0.037-0.057-0.055
			c0.033-0.035,0.066-0.069,0.1-0.104c-0.017-0.016-0.037-0.036-0.056-0.054c0.05-0.052,0.101-0.105,0.15-0.157
			c-0.018-0.017-0.037-0.035-0.055-0.053c0.049-0.051,0.1-0.104,0.149-0.156c-0.019-0.018-0.037-0.036-0.056-0.054
			c0.05-0.053,0.101-0.105,0.15-0.157c-0.018-0.018-0.038-0.037-0.055-0.054c0.067-0.07,0.133-0.139,0.2-0.208
			c-0.019-0.018-0.038-0.037-0.056-0.053c0.067-0.07,0.134-0.141,0.201-0.209c-0.02-0.019-0.04-0.038-0.057-0.054
			c0.083-0.086,0.167-0.173,0.25-0.261c-0.019-0.018-0.037-0.036-0.056-0.054c0.132-0.138,0.267-0.278,0.399-0.417
			C253.51,486.168,253.491,486.15,253.471,486.131z"/>
		<path fill="#231F20" d="M275.011,487.06c0.583-0.608,1.168-1.217,1.752-1.825c0.562-0.362,1.125-0.724,1.688-1.085
			c0.019,0.018,0.038,0.036,0.056,0.054c0.033-0.034,0.067-0.069,0.101-0.104c0.018,0.018,0.037,0.036,0.056,0.054
			c0.05-0.052,0.1-0.104,0.15-0.156c0.018,0.017,0.037,0.036,0.056,0.054c0.138-0.069,0.275-0.137,0.412-0.206
			c0.019,0.019,0.038,0.037,0.056,0.054c0.034-0.035,0.066-0.069,0.101-0.105c0.018,0.018,0.037,0.036,0.055,0.053
			c0.087-0.051,0.172-0.102,0.257-0.154c0.054,0.018,0.108,0.037,0.162,0.055c0.034-0.035,0.066-0.069,0.101-0.105
			c0.055,0.021,0.107,0.038,0.161,0.057c0.034-0.035,0.068-0.07,0.101-0.105c0.09,0.019,0.179,0.038,0.269,0.058
			c0.034-0.035,0.068-0.07,0.101-0.105c0.195,0.021,0.392,0.041,0.586,0.063c0.301-0.014,0.602-0.027,0.899-0.04
			c0.038,0.036,0.075,0.072,0.113,0.108c0.086-0.016,0.175-0.033,0.263-0.049c0.037,0.036,0.075,0.072,0.111,0.107
			c0.051-0.016,0.106-0.032,0.156-0.05c0.037,0.036,0.075,0.073,0.113,0.108c0.053-0.019,0.104-0.034,0.156-0.052
			c0.09,0.054,0.183,0.11,0.274,0.165c0.018-0.019,0.034-0.035,0.051-0.053c0.038,0.036,0.075,0.071,0.113,0.108
			c0.016-0.016,0.033-0.034,0.05-0.052c0.144,0.073,0.29,0.145,0.436,0.22c0.017-0.018,0.034-0.036,0.051-0.053
			c0.126,0.09,0.258,0.182,0.386,0.271c0.756,0.335,1.398,0.742,2.209,1.52c0.223,0.214,0.448,0.43,0.673,0.646
			c-0.016,0.017-0.033,0.034-0.05,0.052c0.132,0.126,0.262,0.251,0.394,0.377c-0.017,0.018-0.033,0.034-0.05,0.051
			c0.112,0.107,0.226,0.216,0.337,0.323c-0.016,0.017-0.035,0.036-0.05,0.052c0.133,0.16,0.266,0.323,0.399,0.482
			c-0.017,0.018-0.034,0.035-0.05,0.053c0.056,0.054,0.111,0.107,0.168,0.162c-0.016,0.017-0.033,0.035-0.049,0.051
			c0.057,0.054,0.112,0.107,0.168,0.161c-0.017,0.018-0.035,0.036-0.05,0.052c0.057,0.054,0.112,0.107,0.168,0.162
			c-0.016,0.017-0.033,0.034-0.051,0.053c0.057,0.055,0.112,0.107,0.168,0.162c1.179,2.619,1.793,5.373,1.514,7.969
			c0.026,0.124,0.049,0.248,0.075,0.371c-0.033,0.035-0.067,0.07-0.102,0.106c0.025,0.088,0.047,0.179,0.068,0.264
			c-0.035,0.036-0.067,0.07-0.102,0.106c0.025,0.088,0.047,0.178,0.069,0.267c-0.033,0.034-0.066,0.069-0.099,0.103
			c0.021,0.055,0.041,0.109,0.062,0.161c-0.032,0.069-0.064,0.14-0.094,0.21c0.018,0.017,0.038,0.037,0.056,0.054
			c-0.033,0.035-0.067,0.07-0.101,0.105c0.022,0.053,0.042,0.105,0.062,0.158c-0.048,0.088-0.095,0.175-0.144,0.263
			c0.021,0.054,0.042,0.108,0.062,0.16c-0.049,0.089-0.097,0.175-0.144,0.263c0.021,0.052,0.041,0.107,0.062,0.16
			c-0.033,0.035-0.066,0.069-0.1,0.104c0.019,0.018,0.038,0.037,0.056,0.054c-0.034,0.035-0.067,0.07-0.101,0.105
			c0.019,0.018,0.037,0.036,0.056,0.054c-0.033,0.034-0.067,0.069-0.1,0.104c0.019,0.018,0.038,0.037,0.055,0.053
			c-0.034,0.036-0.067,0.071-0.101,0.105c0.02,0.019,0.039,0.037,0.057,0.055c-0.033,0.035-0.067,0.07-0.101,0.105
			c0.018,0.018,0.037,0.035,0.056,0.054c-0.033,0.035-0.067,0.07-0.1,0.104c0.019,0.018,0.037,0.035,0.056,0.053
			c-0.063,0.14-0.125,0.28-0.188,0.421c0.018,0.018,0.037,0.035,0.055,0.053c-0.05,0.053-0.101,0.104-0.151,0.157
			c0.019,0.018,0.038,0.037,0.056,0.054c-0.048,0.088-0.094,0.176-0.143,0.262c0.019,0.019,0.037,0.036,0.056,0.055
			c-0.114,0.193-0.226,0.386-0.339,0.577c-0.688,1.796-2.473,4.009-4.389,4.908c-0.188,0.12-0.375,0.242-0.563,0.362
			c-0.019-0.018-0.038-0.036-0.057-0.054c-0.033,0.034-0.067,0.069-0.1,0.104c-0.018-0.018-0.038-0.036-0.056-0.053
			c-0.034,0.035-0.067,0.07-0.101,0.104c-0.019-0.019-0.038-0.036-0.057-0.054c-0.034,0.035-0.067,0.069-0.1,0.104
			c-0.019-0.018-0.037-0.035-0.056-0.054c-0.034,0.035-0.067,0.069-0.101,0.105c-0.018-0.018-0.037-0.036-0.056-0.055
			c-0.034,0.035-0.067,0.07-0.1,0.104c-0.018-0.017-0.037-0.036-0.056-0.054c-0.032,0.034-0.067,0.07-0.1,0.104
			c-0.053-0.018-0.109-0.036-0.161-0.054c-0.034,0.035-0.067,0.07-0.101,0.104c-0.056-0.021-0.109-0.038-0.162-0.057
			c-0.034,0.035-0.067,0.069-0.1,0.104c-0.126-0.02-0.251-0.039-0.376-0.06c-0.034,0.036-0.067,0.07-0.101,0.104
			c-0.231-0.021-0.463-0.041-0.693-0.064c-0.122,0.019-0.245,0.033-0.369,0.049c-0.038-0.035-0.075-0.071-0.113-0.107
			c-0.124,0.017-0.245,0.031-0.367,0.048c-0.038-0.036-0.075-0.072-0.112-0.107c-0.052,0.016-0.106,0.033-0.157,0.051
			c-0.038-0.036-0.076-0.072-0.112-0.107c-0.051,0.017-0.104,0.033-0.156,0.051c-0.146-0.072-0.292-0.146-0.437-0.219
			c-0.016,0.017-0.035,0.035-0.05,0.052c-0.038-0.036-0.075-0.071-0.113-0.108c-0.016,0.017-0.033,0.034-0.05,0.052
			c-0.144-0.072-0.291-0.145-0.437-0.219c-0.016,0.018-0.034,0.036-0.05,0.053c-0.057-0.055-0.112-0.107-0.168-0.161
			c-0.016,0.017-0.033,0.034-0.05,0.052c-0.038-0.036-0.075-0.072-0.113-0.108c-0.016,0.018-0.033,0.035-0.05,0.053
			c-0.239-0.163-0.479-0.325-0.717-0.488c-0.016,0.018-0.033,0.035-0.049,0.052c-0.094-0.09-0.188-0.18-0.281-0.27
			c-0.018,0.019-0.034,0.035-0.05,0.053c-0.112-0.107-0.226-0.217-0.337-0.323c-0.234-0.13-1.371-1.083-1.567-1.402
			c0.018-0.019,0.035-0.037,0.051-0.053c-0.131-0.126-0.26-0.25-0.393-0.378c0.017-0.018,0.033-0.034,0.051-0.053
			c-0.094-0.09-0.186-0.179-0.28-0.269c0.017-0.017,0.033-0.034,0.049-0.052c-0.075-0.072-0.15-0.144-0.225-0.216
			c0.016-0.018,0.033-0.035,0.05-0.053c-0.056-0.053-0.111-0.106-0.167-0.16c0.016-0.018,0.034-0.035,0.049-0.052
			c-0.075-0.072-0.15-0.145-0.226-0.217c0.017-0.018,0.034-0.035,0.05-0.052c-0.055-0.053-0.112-0.107-0.168-0.161
			c0.017-0.017,0.034-0.035,0.05-0.052c-0.037-0.035-0.075-0.072-0.112-0.107c0.015-0.017,0.034-0.035,0.05-0.053
			c-0.094-0.206-0.273-0.334-0.349-0.535c0.016-0.017,0.034-0.035,0.05-0.052c-0.06-0.088-0.116-0.18-0.175-0.268
			c0.016-0.018,0.032-0.034,0.049-0.052c-0.056-0.054-0.112-0.107-0.168-0.162c0.016-0.017,0.034-0.035,0.05-0.052
			c-0.037-0.035-0.075-0.071-0.112-0.107c0.016-0.017,0.033-0.034,0.049-0.052c-0.037-0.035-0.075-0.071-0.111-0.106
			c0.016-0.055,0.03-0.107,0.045-0.16c-0.038-0.036-0.076-0.072-0.112-0.107c0.017-0.017,0.033-0.034,0.049-0.052
			c-0.037-0.035-0.075-0.072-0.112-0.107c0.016-0.018,0.033-0.035,0.05-0.053c-0.037-0.035-0.075-0.071-0.112-0.107
			c0.016-0.017,0.034-0.035,0.049-0.051c-0.038-0.036-0.074-0.071-0.112-0.108c0.015-0.052,0.03-0.106,0.046-0.158
			c-0.059-0.089-0.116-0.18-0.175-0.269c0.015-0.052,0.029-0.108,0.044-0.159c-0.059-0.088-0.118-0.179-0.174-0.269
			c0.014-0.051,0.029-0.105,0.042-0.157c-0.037-0.036-0.074-0.071-0.112-0.107c0.013-0.088,0.027-0.177,0.04-0.264
			c-0.039-0.037-0.075-0.072-0.113-0.108c0.018-0.054,0.03-0.106,0.045-0.16c-0.037-0.035-0.075-0.072-0.111-0.107
			c0.015-0.051,0.029-0.106,0.043-0.158c-0.038-0.071-0.077-0.143-0.117-0.214c0.014-0.088,0.025-0.176,0.039-0.265
			c-0.038-0.036-0.075-0.072-0.113-0.108c0.012-0.087,0.025-0.175,0.038-0.263c-0.04-0.071-0.079-0.144-0.118-0.214
			c0.004-0.229,0.008-0.458,0.012-0.688c-0.037-0.035-0.075-0.072-0.111-0.107c0.008-0.196,0.014-0.39,0.019-0.584
			c-0.034-0.335-0.072-0.673-0.108-1.008c0.033-0.035,0.067-0.07,0.101-0.105c-0.031-0.23-0.062-0.46-0.093-0.69
			c0.033-0.034,0.067-0.07,0.101-0.104c-0.023-0.089-0.045-0.178-0.067-0.266c0.032-0.068,0.063-0.141,0.094-0.211
			c-0.021-0.053-0.042-0.107-0.062-0.158c0.034-0.035,0.067-0.07,0.101-0.105c-0.022-0.053-0.043-0.106-0.062-0.16
			c0.033-0.035,0.066-0.069,0.1-0.104c-0.023-0.088-0.047-0.178-0.068-0.267c0.048-0.086,0.095-0.174,0.145-0.262
			c-0.022-0.053-0.042-0.107-0.063-0.161c0.033-0.034,0.067-0.07,0.101-0.105c-0.019-0.018-0.038-0.036-0.056-0.053
			c0.033-0.035,0.066-0.069,0.1-0.104c-0.019-0.019-0.038-0.037-0.057-0.054c0.033-0.035,0.067-0.07,0.101-0.105
			c-0.019-0.018-0.038-0.036-0.057-0.054c0.033-0.035,0.067-0.07,0.1-0.104c0.187-1.06,0.674-2.161,1.038-3.215
			c0.098-0.139,0.197-0.277,0.294-0.417c-0.019-0.019-0.037-0.036-0.056-0.054c0.05-0.052,0.101-0.105,0.151-0.158
			c-0.019-0.019-0.037-0.036-0.057-0.054c0.066-0.069,0.132-0.138,0.199-0.207c-0.018-0.017-0.037-0.035-0.056-0.054
			c0.067-0.07,0.133-0.139,0.2-0.208c-0.019-0.018-0.037-0.035-0.056-0.053c0.133-0.139,0.269-0.28,0.401-0.418
			C275.048,487.095,275.029,487.077,275.011,487.06z"/>
		<path fill="#231F20" d="M247.916,527.41c0.618-0.643,1.235-1.286,1.854-1.93c0.342-0.356,0.764-0.848,1.108-1.042
			c0.37-0.347,0.739-0.695,1.108-1.04c0.019,0.018,0.036,0.034,0.056,0.053c0.101-0.104,0.2-0.208,0.302-0.313
			c0.019,0.018,0.038,0.035,0.056,0.053c0.083-0.086,0.167-0.173,0.249-0.259c0.018,0.018,0.038,0.036,0.056,0.054
			c0.068-0.07,0.135-0.14,0.201-0.209c0.018,0.018,0.037,0.036,0.056,0.054c0.068-0.07,0.134-0.139,0.201-0.209
			c0.018,0.018,0.038,0.036,0.055,0.053c0.067-0.07,0.133-0.139,0.2-0.209c0.872-0.405,1.797-0.987,2.678-1.438
			c0.73-0.536,1.461-1.072,2.19-1.607c1.531-1.37,3.064-2.74,4.593-4.109c0.019,0.018,0.038,0.036,0.057,0.055
			c0.151-0.158,0.302-0.314,0.452-0.471c0.596-0.332,1.194-0.976,1.781-1.295c0.204-0.175,0.406-0.347,0.608-0.521
			c0.018,0.018,0.038,0.037,0.056,0.054c0.152-0.121,0.306-0.242,0.456-0.364c0.02,0.02,0.038,0.037,0.057,0.056
			c0.067-0.07,0.134-0.14,0.2-0.209c0.019,0.018,0.038,0.036,0.057,0.054c0.05-0.052,0.101-0.104,0.151-0.156
			c0.018,0.017,0.037,0.035,0.055,0.053c0.05-0.053,0.1-0.104,0.151-0.157c0.019,0.019,0.038,0.036,0.057,0.054
			c0.049-0.051,0.1-0.104,0.149-0.155c0.018,0.017,0.037,0.035,0.056,0.054c0.119-0.087,0.238-0.173,0.356-0.262
			c0.02,0.02,0.04,0.038,0.057,0.055c0.085-0.051,0.17-0.104,0.257-0.154c0.019,0.019,0.037,0.035,0.055,0.053
			c0.049-0.051,0.101-0.104,0.149-0.155c0.019,0.019,0.039,0.037,0.057,0.054c0.086-0.053,0.171-0.104,0.257-0.153
			c0.018,0.017,0.037,0.035,0.055,0.053c0.035-0.036,0.068-0.07,0.102-0.105c0.053,0.021,0.108,0.038,0.161,0.057
			c0.138-0.069,0.275-0.136,0.414-0.205c0.054,0.019,0.108,0.036,0.162,0.056c0.034-0.035,0.066-0.069,0.1-0.104
			c0.089,0.02,0.178,0.035,0.268,0.055c0.034-0.035,0.067-0.069,0.101-0.104c0.053,0.019,0.108,0.039,0.162,0.056
			c0.033-0.035,0.066-0.069,0.1-0.104c0.125,0.02,0.25,0.039,0.375,0.059c0.034-0.035,0.067-0.069,0.1-0.104
			c0.338,0.024,0.676,0.047,1.011,0.069c0.034-0.035,0.068-0.07,0.101-0.104c0.056,0.02,0.11,0.037,0.164,0.057
			c0.123-0.017,0.244-0.032,0.367-0.049c0.038,0.037,0.075,0.072,0.112,0.108c0.3-0.014,0.6-0.025,0.899-0.037
			c0.073,0.036,0.147,0.072,0.217,0.108c0.09-0.016,0.177-0.033,0.263-0.048c0.037,0.035,0.075,0.071,0.111,0.106
			c0.053-0.017,0.105-0.034,0.158-0.05c0.072,0.036,0.145,0.072,0.218,0.107c0.016-0.017,0.033-0.035,0.049-0.051
			c0.038,0.036,0.075,0.072,0.112,0.108c0.052-0.018,0.106-0.034,0.157-0.052c0.038,0.036,0.075,0.072,0.113,0.108
			c0.051-0.018,0.104-0.035,0.156-0.051c0.145,0.073,0.291,0.145,0.438,0.219c0.017-0.018,0.035-0.036,0.051-0.053
			c0.037,0.035,0.074,0.071,0.111,0.106c0.016-0.016,0.033-0.034,0.05-0.052c0.145,0.073,0.292,0.146,0.436,0.219
			c0.017-0.018,0.035-0.036,0.05-0.052c0.057,0.055,0.113,0.108,0.167,0.161c0.016-0.018,0.034-0.036,0.051-0.054
			c0.04,0.038,0.075,0.073,0.113,0.109c0.016-0.017,0.033-0.034,0.049-0.052c0.056,0.054,0.111,0.107,0.168,0.162
			c0.016-0.017,0.034-0.035,0.051-0.053c0.037,0.035,0.074,0.07,0.111,0.106c0.016-0.016,0.033-0.034,0.049-0.051
			c0.075,0.072,0.149,0.144,0.225,0.216c0.018-0.019,0.034-0.036,0.051-0.053c0.056,0.054,0.113,0.108,0.168,0.162
			c0.017-0.018,0.033-0.035,0.05-0.052c0.056,0.054,0.112,0.107,0.168,0.161c0.017-0.018,0.034-0.035,0.051-0.053
			c0.076,0.072,0.149,0.143,0.225,0.216c0.015-0.016,0.033-0.034,0.048-0.051c0.075,0.072,0.149,0.143,0.224,0.216
			c0.018-0.019,0.034-0.036,0.051-0.054c0.094,0.091,0.188,0.181,0.281,0.271c0.016-0.018,0.033-0.035,0.049-0.052
			c0.094,0.09,0.188,0.181,0.282,0.271c0.017-0.018,0.034-0.035,0.05-0.052c0.094,0.09,0.188,0.18,0.28,0.269
			c0.016-0.018,0.034-0.035,0.049-0.052c0.113,0.108,0.226,0.217,0.337,0.324c0.018-0.019,0.034-0.035,0.051-0.053
			c0.132,0.126,0.262,0.251,0.392,0.376c0.016-0.017,0.033-0.035,0.05-0.053c0.15,0.145,0.3,0.288,0.449,0.432
			c0.016-0.016,0.033-0.034,0.049-0.051c0.168,0.16,0.336,0.322,0.505,0.484c0.016-0.017,0.033-0.034,0.05-0.052
			c0.207,0.198,0.412,0.395,0.618,0.593c0.017-0.018,0.033-0.034,0.05-0.052c1.524,1.296,3.047,2.591,4.571,3.887
			c0.62,0.344,1.267,0.976,1.876,1.304c0.093,0.089,0.187,0.179,0.28,0.269c0.018-0.018,0.035-0.035,0.051-0.053
			c0.094,0.09,0.188,0.18,0.281,0.27c0.016-0.017,0.033-0.034,0.051-0.053c0.075,0.072,0.149,0.144,0.226,0.217
			c0.015-0.017,0.032-0.034,0.048-0.051c0.093,0.09,0.187,0.18,0.28,0.27c0.986,0.545,1.973,1.09,2.958,1.635
			c0.094,0.091,0.188,0.181,0.282,0.271c0.467,0.247,1.002,0.657,1.483,0.925c0.355,0.306,0.708,0.611,1.06,0.917
			c0.368,0.207,0.845,0.712,1.229,1.081c0.93,0.893,1.706,1.747,2.22,2.629c0.266,0.357,0.535,0.716,0.804,1.074
			c0.413,0.765,0.83,1.531,1.243,2.298c-0.017,0.017-0.033,0.034-0.049,0.051c0.038,0.036,0.075,0.071,0.112,0.107
			c-0.018,0.019-0.035,0.036-0.051,0.053c0.057,0.054,0.112,0.107,0.169,0.162c-0.017,0.018-0.033,0.035-0.051,0.053
			c0.078,0.141,0.157,0.284,0.237,0.426c-0.018,0.019-0.035,0.036-0.051,0.053c0.037,0.036,0.075,0.072,0.112,0.107
			c-0.017,0.018-0.033,0.035-0.049,0.052c0.037,0.035,0.075,0.071,0.111,0.106c-0.017,0.018-0.035,0.036-0.05,0.052
			c0.04,0.038,0.076,0.073,0.113,0.109c-0.016,0.017-0.034,0.035-0.051,0.053c0.038,0.035,0.076,0.072,0.113,0.107
			c-0.016,0.018-0.032,0.034-0.049,0.052c0.036,0.034,0.075,0.072,0.111,0.106c-0.016,0.016-0.034,0.035-0.05,0.052
			c0.038,0.037,0.076,0.072,0.112,0.107c-0.017,0.018-0.033,0.035-0.05,0.052c0.038,0.036,0.076,0.072,0.113,0.108
			c-0.016,0.017-0.034,0.036-0.05,0.052c0.037,0.036,0.075,0.072,0.112,0.107c-0.015,0.053-0.031,0.107-0.044,0.159
			c0.078,0.143,0.158,0.286,0.237,0.428c-0.017,0.018-0.033,0.034-0.051,0.053c0.041,0.07,0.08,0.143,0.118,0.212
			c-0.014,0.053-0.028,0.107-0.043,0.159c0.058,0.09,0.117,0.179,0.174,0.269c-0.014,0.053-0.029,0.104-0.044,0.158
			c0.038,0.036,0.075,0.071,0.111,0.106c-0.011,0.089-0.025,0.178-0.037,0.265c0.037,0.035,0.075,0.072,0.112,0.107
			c-0.017,0.054-0.031,0.106-0.046,0.157c0.039,0.037,0.075,0.072,0.112,0.108c-0.013,0.09-0.025,0.178-0.038,0.266
			c0.038,0.035,0.075,0.071,0.111,0.106c-0.011,0.125-0.021,0.246-0.032,0.37c0.037,0.035,0.075,0.072,0.113,0.107
			c-0.009,0.194-0.014,0.388-0.021,0.583c0.038,0.036,0.076,0.072,0.113,0.108c0.001,0.334,0.003,0.67,0.003,1.006
			c0.028,0.195,0.058,0.39,0.086,0.585c-0.033,0.034-0.066,0.069-0.1,0.104c0.026,0.159,0.053,0.317,0.08,0.478
			c-0.033,0.033-0.066,0.068-0.101,0.104c0.026,0.124,0.049,0.248,0.076,0.372c-0.032,0.07-0.063,0.142-0.095,0.211
			c0.022,0.054,0.042,0.106,0.062,0.161c-0.032,0.033-0.066,0.068-0.1,0.104c0.021,0.054,0.042,0.106,0.062,0.159
			c-0.031,0.07-0.062,0.141-0.094,0.21c0.019,0.019,0.037,0.036,0.056,0.055c-0.034,0.035-0.066,0.068-0.101,0.105
			c0.021,0.052,0.042,0.105,0.063,0.158c-0.032,0.069-0.063,0.141-0.095,0.212c0.019,0.018,0.037,0.035,0.057,0.054
			c-0.049,0.087-0.096,0.175-0.146,0.262c0.022,0.052,0.043,0.106,0.063,0.159c-0.033,0.034-0.067,0.069-0.101,0.104
			c0.019,0.019,0.038,0.036,0.056,0.054c-0.033,0.034-0.067,0.069-0.1,0.104c0.019,0.018,0.039,0.037,0.057,0.055
			c-0.033,0.034-0.067,0.07-0.101,0.104c0.018,0.018,0.037,0.035,0.056,0.054c-0.033,0.034-0.067,0.069-0.1,0.104
			c0.019,0.018,0.037,0.035,0.056,0.054c-0.063,0.141-0.126,0.281-0.189,0.42c0.02,0.02,0.038,0.037,0.056,0.055
			c-0.065,0.104-0.128,0.211-0.195,0.313c0.019,0.018,0.038,0.037,0.057,0.055c-0.034,0.035-0.068,0.07-0.1,0.104
			c0.019,0.018,0.037,0.035,0.056,0.054c-0.051,0.053-0.101,0.104-0.151,0.157c0.019,0.019,0.038,0.036,0.057,0.054
			c-0.033,0.035-0.066,0.069-0.102,0.106c0.017,0.016,0.038,0.035,0.056,0.053c-0.113,0.191-0.225,0.384-0.338,0.575
			c0.018,0.018,0.039,0.037,0.057,0.055c-0.165,0.243-0.325,0.49-0.489,0.732c0.018,0.018,0.038,0.037,0.057,0.056
			c-0.101,0.104-0.2,0.208-0.3,0.312c-0.232,0.459-0.634,0.883-1.091,1.359c-0.467,0.487-0.936,0.975-1.403,1.461
			c-0.019-0.019-0.037-0.036-0.055-0.053c-0.1,0.104-0.201,0.209-0.3,0.313c-0.02-0.02-0.039-0.038-0.056-0.055
			c-0.084,0.088-0.167,0.175-0.251,0.262c-0.019-0.019-0.039-0.037-0.057-0.055c-0.067,0.069-0.133,0.139-0.2,0.208
			c-0.019-0.018-0.037-0.035-0.056-0.053c-0.067,0.069-0.133,0.139-0.2,0.208c-0.02-0.019-0.038-0.036-0.056-0.054
			c-0.05,0.053-0.101,0.105-0.151,0.157c-0.018-0.018-0.039-0.037-0.057-0.055c-0.05,0.053-0.1,0.104-0.15,0.156
			c-0.018-0.017-0.037-0.035-0.055-0.053c-0.05,0.053-0.101,0.106-0.15,0.157c-0.02-0.02-0.038-0.037-0.056-0.055
			c-0.051,0.053-0.102,0.105-0.152,0.158c-0.018-0.018-0.039-0.037-0.056-0.054c-0.049,0.052-0.1,0.104-0.15,0.156
			c-0.019-0.019-0.038-0.036-0.057-0.054c-0.12,0.085-0.237,0.172-0.356,0.259c-0.019-0.018-0.038-0.037-0.056-0.055
			c-0.033,0.035-0.068,0.07-0.101,0.105c-0.017-0.017-0.037-0.036-0.056-0.054c-0.049,0.051-0.1,0.104-0.149,0.155
			c-0.018-0.018-0.037-0.035-0.056-0.054c-0.034,0.035-0.067,0.069-0.101,0.104c-0.018-0.018-0.037-0.035-0.054-0.052
			c-0.05,0.053-0.101,0.105-0.151,0.157c-0.02-0.019-0.039-0.038-0.057-0.055c-0.034,0.035-0.067,0.069-0.101,0.104
			c-0.019-0.019-0.037-0.036-0.056-0.055c-0.05,0.053-0.101,0.105-0.151,0.157c-0.019-0.019-0.037-0.036-0.056-0.054
			c-0.139,0.068-0.275,0.137-0.414,0.206c-0.018-0.018-0.037-0.035-0.056-0.054c-0.034,0.035-0.067,0.069-0.1,0.104
			c-0.019-0.019-0.038-0.037-0.056-0.055c-0.034,0.035-0.068,0.07-0.101,0.105c-0.018-0.018-0.037-0.036-0.055-0.053
			c-0.034,0.035-0.067,0.069-0.101,0.104c-0.02-0.019-0.038-0.036-0.056-0.054c-0.033,0.034-0.067,0.069-0.101,0.104
			c-0.019-0.018-0.039-0.037-0.057-0.054c-0.033,0.034-0.066,0.069-0.1,0.104c-0.018-0.018-0.037-0.036-0.056-0.054
			c-0.033,0.034-0.067,0.069-0.101,0.104c-0.019-0.018-0.038-0.036-0.057-0.054c-0.033,0.034-0.066,0.069-0.1,0.104
			c-0.019-0.019-0.037-0.036-0.056-0.055c-0.033,0.035-0.067,0.07-0.101,0.105c-0.053-0.02-0.108-0.037-0.161-0.057
			c-0.086,0.053-0.172,0.103-0.255,0.154c-0.055-0.02-0.11-0.036-0.164-0.055c-0.033,0.033-0.067,0.069-0.101,0.104
			c-0.018-0.017-0.037-0.035-0.056-0.053c-0.069,0.033-0.137,0.068-0.207,0.102c-0.053-0.019-0.107-0.035-0.161-0.055
			c-0.034,0.035-0.067,0.07-0.1,0.104c-0.09-0.019-0.179-0.038-0.269-0.056c-0.033,0.034-0.066,0.069-0.099,0.104
			c-0.092-0.02-0.18-0.039-0.27-0.058c-0.033,0.034-0.067,0.07-0.1,0.104c-0.125-0.02-0.25-0.039-0.375-0.06
			c-0.034,0.035-0.067,0.069-0.101,0.104c-0.302-0.022-0.604-0.045-0.905-0.068c-0.372,0.014-0.742,0.024-1.113,0.037
			c-0.037-0.036-0.075-0.072-0.113-0.108c-0.158,0.016-0.315,0.031-0.473,0.045c-0.038-0.035-0.075-0.071-0.113-0.107
			c-0.088,0.017-0.175,0.033-0.264,0.049c-0.037-0.035-0.075-0.071-0.111-0.106c-0.087,0.017-0.175,0.032-0.262,0.049
			c-0.037-0.035-0.075-0.071-0.113-0.108c-0.05,0.019-0.104,0.033-0.155,0.052c-0.038-0.036-0.076-0.072-0.112-0.107
			c-0.088,0.015-0.176,0.032-0.262,0.049c-0.037-0.036-0.074-0.072-0.113-0.109c-0.051,0.02-0.104,0.035-0.155,0.052
			c-0.092-0.054-0.185-0.108-0.275-0.163c-0.017,0.017-0.033,0.035-0.05,0.053c-0.073-0.038-0.146-0.073-0.218-0.11
			c-0.051,0.017-0.104,0.033-0.156,0.051c-0.092-0.055-0.184-0.109-0.274-0.165c-0.053,0.018-0.104,0.035-0.158,0.052
			c-0.145-0.074-0.29-0.146-0.435-0.22c-0.054,0.017-0.105,0.034-0.158,0.051c-0.038-0.035-0.075-0.071-0.112-0.107
			c-0.016,0.017-0.032,0.034-0.049,0.051c-0.037-0.036-0.074-0.071-0.112-0.107c-0.018,0.019-0.035,0.036-0.05,0.052
			c-0.038-0.036-0.076-0.072-0.112-0.107c-0.017,0.018-0.034,0.035-0.05,0.053c-0.038-0.036-0.076-0.072-0.112-0.107
			c-0.016,0.016-0.034,0.035-0.051,0.053c-0.091-0.055-0.183-0.109-0.273-0.165c-0.053,0.019-0.105,0.034-0.157,0.052
			c-0.038-0.036-0.076-0.072-0.113-0.108c-0.016,0.016-0.033,0.033-0.05,0.051c-0.036-0.034-0.075-0.072-0.111-0.106
			c-0.016,0.017-0.034,0.035-0.049,0.052c-0.038-0.037-0.075-0.072-0.111-0.107c-0.017,0.018-0.034,0.035-0.05,0.053
			c-0.038-0.036-0.076-0.073-0.113-0.108c-0.016,0.017-0.034,0.035-0.051,0.053c-0.038-0.037-0.075-0.072-0.112-0.107
			c-0.016,0.017-0.033,0.034-0.049,0.051c-0.038-0.036-0.075-0.072-0.113-0.108c-0.018,0.019-0.035,0.036-0.051,0.053
			c-0.036-0.034-0.075-0.071-0.11-0.106c-0.017,0.018-0.033,0.035-0.049,0.052c-0.147-0.074-0.292-0.146-0.438-0.22
			c-0.054,0.018-0.105,0.034-0.157,0.052c-0.038-0.037-0.075-0.072-0.112-0.107c-0.017,0.018-0.034,0.035-0.051,0.053
			c-0.039-0.037-0.075-0.072-0.113-0.108c-0.016,0.016-0.034,0.035-0.049,0.052c-0.038-0.036-0.075-0.073-0.112-0.108
			c-0.017,0.018-0.033,0.035-0.05,0.053c-0.037-0.036-0.075-0.072-0.111-0.107c-0.016,0.018-0.032,0.034-0.05,0.053
			c-0.039-0.037-0.076-0.072-0.113-0.108c-0.052,0.017-0.104,0.032-0.156,0.051c-0.146-0.073-0.292-0.146-0.438-0.219
			c-0.052,0.017-0.105,0.033-0.157,0.051c-0.092-0.055-0.183-0.108-0.274-0.165c-0.052,0.019-0.104,0.034-0.155,0.053
			c-0.093-0.056-0.185-0.109-0.276-0.165c-0.052,0.017-0.106,0.034-0.157,0.051c-0.09-0.056-0.183-0.109-0.275-0.162
			c-0.016,0.017-0.032,0.034-0.049,0.051c-0.073-0.036-0.146-0.074-0.218-0.109c-0.054,0.017-0.104,0.033-0.158,0.052
			c-0.038-0.037-0.075-0.072-0.111-0.107c-0.016,0.017-0.033,0.035-0.049,0.051c-0.074-0.036-0.147-0.072-0.219-0.108
			c-0.052,0.016-0.104,0.034-0.156,0.05c-0.037-0.036-0.075-0.071-0.113-0.108c-0.085,0.018-0.175,0.033-0.261,0.051
			c-0.039-0.037-0.076-0.072-0.113-0.107c-0.051,0.017-0.103,0.033-0.156,0.051c-0.038-0.035-0.076-0.072-0.112-0.107
			c-0.087,0.015-0.175,0.033-0.262,0.048c-0.037-0.036-0.075-0.072-0.111-0.107c-0.158,0.015-0.317,0.03-0.476,0.045
			c-0.037-0.035-0.075-0.072-0.113-0.108c-0.192,0.016-0.386,0.03-0.581,0.045c-0.037-0.036-0.075-0.071-0.113-0.108
			c-0.334,0.013-0.671,0.024-1.005,0.037c-0.338-0.022-0.676-0.045-1.011-0.069c-0.035,0.036-0.068,0.07-0.102,0.105
			c-0.231-0.021-0.462-0.043-0.693-0.064c-0.068,0.035-0.138,0.07-0.208,0.104c-0.09-0.02-0.179-0.039-0.268-0.058
			c-0.034,0.035-0.067,0.069-0.102,0.105c-0.088-0.018-0.177-0.037-0.268-0.057c-0.068,0.034-0.136,0.068-0.206,0.103
			c-0.053-0.02-0.108-0.036-0.164-0.057c-0.032,0.034-0.067,0.07-0.099,0.104c-0.054-0.018-0.108-0.035-0.162-0.053
			c-0.032,0.034-0.066,0.069-0.099,0.104c-0.092-0.019-0.18-0.038-0.27-0.057c-0.085,0.05-0.17,0.102-0.256,0.153
			c-0.054-0.019-0.108-0.037-0.161-0.055c-0.034,0.035-0.067,0.069-0.1,0.104c-0.055-0.02-0.107-0.038-0.163-0.057
			c-0.033,0.035-0.066,0.069-0.102,0.105c-0.052-0.019-0.107-0.038-0.16-0.056c-0.086,0.053-0.172,0.103-0.258,0.154
			c-0.054-0.018-0.108-0.037-0.16-0.055c-0.035,0.036-0.068,0.07-0.101,0.104c-0.019-0.018-0.038-0.036-0.056-0.054
			c-0.035,0.036-0.067,0.07-0.101,0.105c-0.054-0.021-0.109-0.037-0.162-0.056c-0.086,0.052-0.17,0.103-0.257,0.154
			c-0.053-0.019-0.108-0.038-0.161-0.057c-0.034,0.036-0.067,0.07-0.101,0.105c-0.019-0.018-0.038-0.036-0.057-0.054
			c-0.032,0.033-0.066,0.068-0.099,0.104c-0.019-0.018-0.038-0.036-0.057-0.055c-0.034,0.035-0.068,0.071-0.102,0.105
			c-0.018-0.018-0.037-0.035-0.056-0.053c-0.033,0.034-0.067,0.069-0.1,0.104c-0.054-0.021-0.107-0.038-0.161-0.056
			c-0.034,0.035-0.067,0.069-0.1,0.104c-0.02-0.02-0.037-0.036-0.057-0.056c-0.034,0.035-0.067,0.071-0.101,0.105
			c-0.017-0.017-0.037-0.036-0.056-0.055c-0.034,0.036-0.067,0.07-0.101,0.105c-0.017-0.017-0.036-0.034-0.055-0.053
			c-0.033,0.034-0.067,0.069-0.101,0.104c-0.053-0.019-0.108-0.037-0.161-0.056c-0.035,0.036-0.068,0.07-0.101,0.104
			c-0.018-0.018-0.038-0.036-0.056-0.053c-0.034,0.035-0.067,0.069-0.101,0.104c-0.019-0.018-0.038-0.036-0.056-0.054
			c-0.034,0.035-0.067,0.069-0.101,0.104c-0.019-0.018-0.037-0.035-0.056-0.054c-0.033,0.034-0.066,0.069-0.101,0.104
			c-0.018-0.018-0.037-0.035-0.056-0.053c-0.033,0.034-0.066,0.068-0.1,0.104c-0.019-0.018-0.038-0.036-0.057-0.054
			c-0.033,0.034-0.066,0.069-0.1,0.104c-0.018-0.018-0.037-0.036-0.056-0.055c-0.034,0.035-0.067,0.07-0.101,0.105
			c-0.018-0.017-0.037-0.036-0.056-0.054c-0.084,0.052-0.171,0.103-0.256,0.155c-0.054-0.021-0.108-0.038-0.163-0.056
			c-0.085,0.052-0.169,0.102-0.256,0.154c-0.018-0.018-0.038-0.036-0.056-0.054c-0.034,0.035-0.066,0.069-0.1,0.104
			c-0.019-0.018-0.037-0.035-0.056-0.054c-0.033,0.034-0.066,0.069-0.101,0.104c-0.019-0.018-0.038-0.036-0.056-0.053
			c-0.033,0.034-0.066,0.068-0.1,0.104c-0.018-0.018-0.039-0.038-0.056-0.055c-0.033,0.034-0.068,0.07-0.101,0.105
			c-0.053-0.02-0.109-0.037-0.161-0.057c-0.035,0.036-0.067,0.07-0.101,0.105c-0.019-0.018-0.039-0.037-0.057-0.055
			c-0.034,0.035-0.067,0.069-0.101,0.104c-0.053-0.019-0.109-0.037-0.161-0.055c-0.139,0.068-0.275,0.137-0.414,0.207
			c-0.052-0.02-0.108-0.037-0.161-0.056c-0.086,0.052-0.171,0.101-0.257,0.153c-0.018-0.018-0.036-0.035-0.056-0.054
			c-0.07,0.034-0.139,0.069-0.207,0.104c-0.054-0.021-0.108-0.037-0.162-0.058c-0.086,0.053-0.17,0.104-0.255,0.155
			c-0.02-0.019-0.038-0.037-0.056-0.054c-0.068,0.034-0.139,0.068-0.207,0.104c-0.055-0.021-0.109-0.038-0.162-0.057
			c-0.034,0.035-0.067,0.069-0.102,0.105c-0.054-0.019-0.108-0.038-0.161-0.057c-0.069,0.035-0.139,0.069-0.208,0.104
			c-0.124-0.021-0.251-0.039-0.375-0.06c-0.034,0.035-0.067,0.07-0.1,0.104c-0.41-0.022-0.816-0.049-1.225-0.071
			c-0.3,0.012-0.601,0.025-0.898,0.037c-0.038-0.035-0.076-0.072-0.112-0.107c-0.124,0.015-0.246,0.03-0.368,0.047
			c-0.038-0.036-0.075-0.071-0.113-0.108c-0.087,0.018-0.174,0.033-0.262,0.05c-0.038-0.036-0.075-0.072-0.112-0.107
			c-0.088,0.017-0.176,0.032-0.264,0.049c-0.037-0.036-0.075-0.071-0.112-0.107c-0.052,0.017-0.104,0.034-0.157,0.052
			c-0.071-0.037-0.145-0.073-0.216-0.11c-0.018,0.019-0.035,0.036-0.05,0.053c-0.038-0.037-0.076-0.072-0.113-0.108
			c-0.052,0.018-0.103,0.034-0.157,0.052c-0.09-0.055-0.183-0.109-0.273-0.164c-0.053,0.018-0.105,0.034-0.158,0.051
			c-0.091-0.055-0.183-0.108-0.274-0.163c-0.053,0.018-0.104,0.034-0.156,0.051c-0.038-0.036-0.075-0.072-0.113-0.108
			c-0.016,0.017-0.034,0.035-0.05,0.052c-0.037-0.035-0.076-0.072-0.111-0.106c-0.016,0.017-0.033,0.034-0.05,0.052
			c-0.038-0.036-0.075-0.071-0.111-0.106c-0.016,0.016-0.034,0.035-0.049,0.052c-0.038-0.037-0.075-0.073-0.113-0.108
			c-0.017,0.018-0.033,0.034-0.05,0.052c-0.038-0.036-0.075-0.072-0.112-0.107c-0.017,0.018-0.034,0.035-0.05,0.052
			c-0.039-0.037-0.075-0.071-0.113-0.107c-0.016,0.017-0.033,0.034-0.051,0.053c-0.145-0.072-0.291-0.147-0.437-0.22
			c-0.017,0.018-0.033,0.034-0.049,0.052c-0.057-0.054-0.113-0.108-0.168-0.161c-0.016,0.018-0.033,0.035-0.049,0.052
			c-0.092-0.055-0.184-0.107-0.275-0.164c-0.016,0.018-0.033,0.035-0.051,0.053c-0.11-0.072-0.22-0.146-0.33-0.218
			c-0.017,0.017-0.033,0.034-0.049,0.051c-0.203-0.126-0.404-0.253-0.606-0.38c-1.797-0.79-4.581-2.639-5.788-4.755
			c-0.094-0.09-0.188-0.181-0.281-0.27c0.016-0.017,0.032-0.034,0.049-0.052c-0.056-0.053-0.111-0.106-0.168-0.161
			c0.018-0.019,0.034-0.035,0.05-0.052c-0.114-0.143-0.226-0.287-0.342-0.43c0.016-0.017,0.034-0.035,0.05-0.052
			c-0.056-0.054-0.112-0.107-0.167-0.16c0.016-0.017,0.032-0.034,0.05-0.052c-0.039-0.038-0.075-0.072-0.113-0.109
			c0.017-0.018,0.033-0.034,0.049-0.052c-0.056-0.053-0.112-0.107-0.167-0.161c0.016-0.017,0.034-0.035,0.05-0.052
			c-0.037-0.035-0.075-0.071-0.112-0.107c0.017-0.018,0.034-0.035,0.05-0.052c-0.057-0.055-0.112-0.107-0.167-0.161
			c0.016-0.017,0.034-0.035,0.05-0.053c-0.079-0.142-0.159-0.286-0.237-0.427c0.017-0.018,0.034-0.035,0.049-0.052
			c-0.038-0.036-0.075-0.071-0.113-0.108c0.018-0.019,0.035-0.036,0.051-0.053c-0.078-0.142-0.157-0.285-0.237-0.428
			c0.016-0.051,0.031-0.106,0.046-0.157c-0.06-0.089-0.117-0.179-0.176-0.269c0.015-0.053,0.029-0.105,0.044-0.158
			c-0.058-0.09-0.117-0.179-0.174-0.268c0.016-0.017,0.034-0.035,0.05-0.052c-0.041-0.072-0.079-0.144-0.119-0.214
			c0.015-0.053,0.03-0.105,0.044-0.159c-0.037-0.035-0.075-0.072-0.111-0.106c0.011-0.088,0.025-0.177,0.038-0.266
			c-0.037-0.035-0.075-0.072-0.112-0.107c0.013-0.088,0.025-0.175,0.038-0.265c-0.038-0.035-0.075-0.071-0.111-0.106
			c0.011-0.122,0.021-0.246,0.032-0.37c-0.037-0.035-0.075-0.072-0.113-0.108c0.001-0.3,0.001-0.601,0.003-0.9
			c-0.037-0.035-0.075-0.071-0.112-0.107c0.015-0.052,0.028-0.105,0.044-0.157c-0.029-0.195-0.059-0.391-0.088-0.584
			c0.034-0.035,0.067-0.069,0.1-0.104c-0.031-0.265-0.065-0.531-0.096-0.796c0.032-0.034,0.067-0.07,0.099-0.104
			c-0.027-0.16-0.053-0.321-0.08-0.48c0.033-0.034,0.066-0.068,0.101-0.104c-0.024-0.09-0.046-0.178-0.068-0.266
			c0.03-0.071,0.062-0.141,0.093-0.211c-0.021-0.052-0.042-0.107-0.061-0.16c0.032-0.033,0.065-0.068,0.1-0.104
			c-0.022-0.055-0.041-0.106-0.062-0.16c0.033-0.035,0.066-0.069,0.101-0.105c-0.022-0.087-0.045-0.176-0.068-0.266
			c0.033-0.035,0.066-0.069,0.101-0.105c-0.021-0.051-0.042-0.105-0.063-0.157c0.049-0.088,0.097-0.176,0.144-0.263
			c-0.021-0.053-0.041-0.107-0.061-0.16c0.03-0.069,0.061-0.141,0.093-0.209c-0.019-0.019-0.037-0.036-0.056-0.055
			c0.063-0.141,0.125-0.281,0.189-0.422c-0.022-0.053-0.042-0.105-0.063-0.158c0.286-0.898,0.571-1.793,0.855-2.688
			c0.38-0.771,0.761-1.541,1.142-2.311c0.281-0.367,0.559-0.733,0.84-1.101C247.955,527.448,247.936,527.43,247.916,527.41z"/>
		<path fill="#231F20" d="M292.79,502.126c2.442-2.372,4.843-3.004,7.45-2.371c0.092,0.054,0.186,0.109,0.276,0.164
			c0.016-0.016,0.033-0.035,0.05-0.052c0.091,0.056,0.182,0.11,0.274,0.165c0.017-0.018,0.034-0.035,0.051-0.053
			c0.055,0.053,0.111,0.107,0.168,0.162c0.016-0.016,0.033-0.035,0.049-0.051c0.036,0.035,0.075,0.072,0.111,0.107
			c0.016-0.017,0.034-0.036,0.05-0.053c0.056,0.053,0.112,0.107,0.168,0.161c0.016-0.017,0.032-0.034,0.049-0.051
			c0.056,0.054,0.112,0.107,0.168,0.162c0.017-0.018,0.034-0.035,0.05-0.052c0.057,0.054,0.111,0.107,0.168,0.162
			c0.016-0.017,0.034-0.035,0.049-0.051c0.094,0.09,0.187,0.179,0.28,0.269c0.017-0.017,0.035-0.036,0.051-0.053
			c0.094,0.09,0.187,0.18,0.281,0.27c0.016-0.018,0.032-0.034,0.049-0.052c0.131,0.127,0.262,0.252,0.393,0.378
			c0.221,0.124,0.98,0.71,1.173,1.024c-0.017,0.018-0.034,0.035-0.051,0.053c0.168,0.161,0.337,0.323,0.504,0.484
			c0.388,0.605,0.777,1.213,1.166,1.819c-0.017,0.018-0.035,0.036-0.051,0.053c0.039,0.037,0.075,0.071,0.113,0.109
			c-0.017,0.018-0.033,0.034-0.049,0.051c0.055,0.053,0.11,0.106,0.167,0.16c-0.017,0.018-0.035,0.036-0.051,0.053
			c0.037,0.036,0.075,0.073,0.112,0.108c-0.015,0.016-0.033,0.034-0.05,0.052c0.056,0.054,0.113,0.108,0.169,0.162
			c-0.016,0.018-0.032,0.034-0.049,0.052c0.078,0.142,0.158,0.285,0.237,0.428c-0.017,0.018-0.034,0.035-0.051,0.053
			c0.037,0.035,0.075,0.071,0.11,0.106c-0.017,0.018-0.033,0.034-0.049,0.051c0.078,0.145,0.159,0.287,0.237,0.43
			c-0.016,0.052-0.029,0.105-0.043,0.157c0.077,0.144,0.157,0.286,0.236,0.428c-0.016,0.052-0.028,0.105-0.044,0.16
			c0.036,0.034,0.075,0.071,0.111,0.106c-0.014,0.051-0.028,0.105-0.043,0.156c0.038,0.036,0.076,0.072,0.113,0.107
			c-0.016,0.053-0.029,0.107-0.045,0.16c0.038,0.036,0.075,0.072,0.112,0.107c-0.015,0.053-0.03,0.106-0.044,0.158
			c0.038,0.036,0.076,0.072,0.112,0.107c-0.015,0.054-0.03,0.105-0.045,0.159c0.038,0.036,0.075,0.072,0.112,0.108
			c-0.011,0.087-0.025,0.175-0.038,0.263c0.038,0.036,0.075,0.071,0.111,0.106c-0.01,0.125-0.021,0.248-0.033,0.371
			c0.038,0.036,0.075,0.072,0.112,0.107c-0.007,0.158-0.017,0.317-0.024,0.477c0.038,0.036,0.075,0.072,0.112,0.107
			c0,0.335,0.002,0.671,0.002,1.007c0.036,0.301,0.071,0.603,0.106,0.901c-0.034,0.035-0.068,0.07-0.101,0.105
			c0.029,0.194,0.058,0.39,0.086,0.584c-0.031,0.07-0.063,0.141-0.095,0.21c0.022,0.089,0.045,0.177,0.067,0.267
			c-0.033,0.035-0.066,0.069-0.1,0.104c0.021,0.053,0.042,0.106,0.063,0.159c-0.033,0.035-0.068,0.071-0.1,0.104
			c0.022,0.089,0.043,0.178,0.066,0.267c-0.032,0.034-0.067,0.07-0.099,0.104c0.021,0.055,0.04,0.108,0.061,0.161
			c-0.031,0.07-0.064,0.14-0.095,0.21c0.02,0.02,0.038,0.037,0.056,0.054c-0.033,0.034-0.067,0.069-0.1,0.104
			c0.022,0.055,0.041,0.108,0.062,0.159c-0.048,0.09-0.096,0.177-0.144,0.263c0.022,0.054,0.041,0.108,0.062,0.161
			c-0.047,0.088-0.096,0.174-0.144,0.262c0.021,0.053,0.042,0.107,0.063,0.159c-0.063,0.141-0.126,0.281-0.188,0.422
			c0.018,0.017,0.037,0.036,0.055,0.053c-0.033,0.034-0.067,0.069-0.101,0.105c0.019,0.018,0.039,0.037,0.056,0.054
			c-0.033,0.034-0.066,0.069-0.1,0.104c0.019,0.018,0.038,0.036,0.057,0.054c-0.063,0.141-0.125,0.281-0.189,0.422
			c0.019,0.019,0.038,0.036,0.056,0.054c-0.065,0.104-0.128,0.209-0.193,0.314c0.018,0.017,0.037,0.035,0.056,0.054
			c-0.033,0.034-0.067,0.07-0.101,0.104c0.018,0.018,0.038,0.037,0.056,0.054c-0.049,0.051-0.1,0.104-0.149,0.155
			c0.018,0.018,0.037,0.036,0.056,0.055c-0.034,0.035-0.067,0.069-0.101,0.104c0.019,0.019,0.037,0.036,0.056,0.054
			c-0.05,0.052-0.101,0.104-0.151,0.157c0.019,0.018,0.038,0.036,0.056,0.053c-0.05,0.053-0.1,0.104-0.151,0.157
			c0.019,0.019,0.037,0.036,0.057,0.055c-0.049,0.052-0.101,0.105-0.149,0.156c0.018,0.018,0.037,0.035,0.056,0.054
			c-0.051,0.053-0.101,0.104-0.151,0.156c-0.372,0.965-0.991,1.93-1.904,2.883c-0.3,0.313-0.601,0.626-0.902,0.939
			c-0.019-0.018-0.039-0.037-0.057-0.054c-0.116,0.121-0.234,0.243-0.35,0.364c-0.019-0.018-0.038-0.035-0.057-0.054
			c-0.083,0.087-0.167,0.174-0.25,0.262c-0.019-0.018-0.038-0.036-0.057-0.055c-0.066,0.069-0.133,0.139-0.199,0.207
			c-0.019-0.018-0.038-0.035-0.056-0.053c-0.067,0.069-0.135,0.14-0.202,0.21c-0.018-0.018-0.037-0.035-0.056-0.055
			c-0.187,0.12-0.375,0.241-0.563,0.362c-0.019-0.019-0.037-0.036-0.056-0.054c-0.138,0.069-0.276,0.136-0.414,0.205
			c-0.018-0.017-0.037-0.035-0.056-0.054c-0.033,0.035-0.067,0.07-0.101,0.105c-0.019-0.019-0.037-0.035-0.056-0.054
			c-0.138,0.067-0.274,0.136-0.412,0.205c-0.054-0.02-0.108-0.036-0.162-0.055c-0.033,0.034-0.066,0.068-0.1,0.104
			c-0.019-0.018-0.038-0.036-0.056-0.054c-0.068,0.034-0.138,0.069-0.207,0.104c-0.054-0.019-0.108-0.038-0.162-0.057
			c-0.033,0.034-0.067,0.069-0.101,0.104c-0.195-0.021-0.391-0.042-0.586-0.063c-0.336,0.013-0.672,0.023-1.006,0.038
			c-0.038-0.036-0.075-0.072-0.112-0.107c-0.088,0.016-0.175,0.031-0.263,0.05c-0.039-0.038-0.075-0.073-0.113-0.108
			c-0.051,0.017-0.104,0.033-0.156,0.05c-0.09-0.054-0.183-0.108-0.274-0.164c-0.052,0.018-0.104,0.034-0.157,0.052
			c-0.091-0.055-0.183-0.108-0.274-0.164c-0.017,0.017-0.035,0.036-0.05,0.052c-0.092-0.054-0.183-0.109-0.273-0.163
			c-0.016,0.017-0.034,0.036-0.051,0.053c-0.057-0.055-0.113-0.108-0.168-0.162c-0.015,0.017-0.033,0.035-0.049,0.052
			c-0.038-0.036-0.075-0.071-0.112-0.108c-0.017,0.018-0.033,0.034-0.05,0.053c-0.055-0.053-0.111-0.107-0.168-0.162
			c-0.017,0.018-0.033,0.034-0.049,0.052c-0.055-0.053-0.111-0.107-0.168-0.162c-0.016,0.018-0.034,0.036-0.051,0.053
			c-0.074-0.071-0.148-0.143-0.224-0.215c-0.016,0.017-0.033,0.035-0.05,0.052c-0.075-0.072-0.149-0.144-0.224-0.216
			c-0.017,0.018-0.033,0.035-0.05,0.053c-0.094-0.091-0.187-0.18-0.281-0.27c-0.287-0.156-1.306-0.879-1.56-1.296
			c0.017-0.018,0.034-0.035,0.051-0.053c-0.167-0.161-0.336-0.323-0.504-0.484c0.016-0.017,0.033-0.034,0.049-0.052
			c-0.094-0.09-0.188-0.181-0.281-0.27c0.016-0.018,0.034-0.035,0.05-0.053c-0.094-0.09-0.188-0.18-0.281-0.27
			c0.017-0.017,0.034-0.035,0.05-0.051c-0.075-0.072-0.15-0.145-0.224-0.216c0.016-0.017,0.035-0.036,0.051-0.053
			c-0.057-0.054-0.114-0.108-0.168-0.161c0.016-0.018,0.032-0.034,0.049-0.052c-0.075-0.071-0.15-0.145-0.225-0.216
			c0.017-0.018,0.034-0.035,0.05-0.052c-0.037-0.036-0.075-0.072-0.112-0.108c0.016-0.017,0.034-0.035,0.049-0.051
			c-0.097-0.125-0.191-0.253-0.287-0.377c0.016-0.017,0.032-0.034,0.049-0.052c-0.038-0.035-0.075-0.072-0.112-0.107
			c0.015-0.016,0.034-0.035,0.05-0.052c-0.056-0.055-0.112-0.107-0.169-0.162c0.016-0.018,0.033-0.035,0.049-0.052
			c-0.076-0.142-0.156-0.285-0.235-0.429c0.016-0.016,0.033-0.034,0.05-0.051c-0.038-0.036-0.075-0.072-0.112-0.107
			c0.017-0.018,0.033-0.035,0.05-0.053c-0.038-0.035-0.075-0.071-0.112-0.107c0.017-0.017,0.033-0.034,0.049-0.051
			c-0.038-0.037-0.075-0.073-0.112-0.108c0.017-0.018,0.033-0.034,0.051-0.053c-0.038-0.035-0.075-0.071-0.112-0.107
			c0.015-0.016,0.033-0.034,0.048-0.051c-0.037-0.035-0.075-0.071-0.112-0.107c0.017-0.018,0.034-0.036,0.051-0.053
			c-0.038-0.036-0.075-0.071-0.112-0.107c0.017-0.018,0.033-0.034,0.05-0.052c-0.038-0.035-0.075-0.071-0.112-0.107
			c0.017-0.018,0.035-0.036,0.051-0.053c-0.042-0.071-0.079-0.142-0.118-0.213c0.014-0.052,0.029-0.106,0.043-0.158
			c-0.058-0.09-0.115-0.179-0.174-0.268c0.015-0.054,0.031-0.106,0.045-0.158c-0.038-0.037-0.075-0.072-0.113-0.109
			c0.014-0.088,0.026-0.176,0.04-0.263c-0.038-0.037-0.075-0.072-0.112-0.107c0.013-0.054,0.03-0.106,0.044-0.159
			c-0.038-0.037-0.075-0.072-0.113-0.108c0.013-0.089,0.025-0.176,0.04-0.264c-0.038-0.037-0.076-0.072-0.112-0.107
			c0.01-0.124,0.021-0.247,0.031-0.371c-0.037-0.036-0.075-0.072-0.111-0.107c0.005-0.194,0.012-0.388,0.02-0.581
			c-0.038-0.036-0.075-0.071-0.113-0.108c-0.01-0.476-0.018-0.955-0.029-1.431c-0.041-0.407-0.081-0.813-0.12-1.222
			c0.033-0.034,0.066-0.069,0.099-0.103c-0.029-0.195-0.059-0.392-0.085-0.585c0.034-0.035,0.066-0.069,0.1-0.104
			c-0.024-0.088-0.045-0.179-0.068-0.266c0.034-0.036,0.067-0.07,0.101-0.104c-0.024-0.088-0.045-0.179-0.067-0.267
			c0.033-0.035,0.067-0.07,0.099-0.104c-0.02-0.056-0.04-0.108-0.061-0.161c0.048-0.088,0.097-0.177,0.145-0.263
			c-0.022-0.053-0.043-0.106-0.062-0.16c0.063-0.14,0.126-0.279,0.188-0.422c-0.02-0.051-0.042-0.105-0.061-0.158
			c0.033-0.034,0.066-0.068,0.101-0.104c-0.019-0.018-0.039-0.037-0.057-0.055c0.034-0.035,0.067-0.069,0.101-0.104
			c-0.018-0.017-0.037-0.036-0.056-0.055c0.033-0.034,0.066-0.068,0.1-0.104c-0.018-0.018-0.036-0.035-0.055-0.053
			c0.033-0.035,0.068-0.07,0.1-0.104c-0.019-0.019-0.037-0.036-0.057-0.055c0.034-0.035,0.066-0.069,0.101-0.105
			c-0.017-0.016-0.037-0.035-0.057-0.054c0.063-0.14,0.126-0.279,0.19-0.419c-0.019-0.018-0.038-0.036-0.057-0.054
			c0.065-0.105,0.129-0.21,0.195-0.314c-0.019-0.019-0.038-0.037-0.057-0.055c0.034-0.035,0.067-0.069,0.101-0.104
			c-0.019-0.019-0.038-0.036-0.057-0.054c0.05-0.053,0.1-0.104,0.151-0.157c-0.018-0.018-0.037-0.036-0.056-0.055
			c0.033-0.034,0.066-0.068,0.101-0.104c-0.018-0.017-0.037-0.036-0.056-0.054c0.049-0.051,0.1-0.104,0.15-0.156
			c-0.019-0.018-0.038-0.036-0.056-0.054c0.032-0.033,0.067-0.069,0.099-0.104c-0.019-0.018-0.038-0.036-0.056-0.053
			c0.051-0.054,0.102-0.106,0.152-0.158c-0.019-0.019-0.039-0.037-0.057-0.054c0.049-0.051,0.1-0.104,0.151-0.157
			c-0.018-0.018-0.039-0.037-0.056-0.055c0.048-0.051,0.1-0.104,0.149-0.155c-0.019-0.019-0.037-0.035-0.056-0.054
			c0.05-0.052,0.1-0.104,0.151-0.157c-0.02-0.019-0.038-0.036-0.056-0.053c0.161-0.246,0.324-0.489,0.487-0.733
			c-0.019-0.019-0.038-0.037-0.056-0.054c0.246-0.333,0.493-0.664,0.739-0.993C292.467,502.557,292.788,502.326,292.79,502.126z"/>
	</g>
</g>
</svg>
