<?xml version="1.0" encoding="utf-8"?>
<!-- Generator: Adobe Illustrator 16.0.0, SVG Export Plug-In . SVG Version: 6.00 Build 0)  -->
<!DOCTYPE svg PUBLIC "-//W3C//DTD SVG 1.1//EN" "http://www.w3.org/Graphics/SVG/1.1/DTD/svg11.dtd">
<svg version="1.1" id="Layer_1" xmlns="http://www.w3.org/2000/svg" xmlns:xlink="http://www.w3.org/1999/xlink" x="0px" y="0px"
	 width="1000px" height="1000px" viewBox="0 0 1000 1000" enable-background="new 0 0 1000 1000" xml:space="preserve">
<style>
		 @-webkit-keyframes hideshow {
  0% { opacity: 0;-webkit-transform:translateY(100px)}
  5% { opacity: 1;-webkit-transform:translateY(0px) }
 
  100% { opacity: 1; -webkit-transform:translateY(0px)}
} 
		 @-webkit-keyframes hideshow2 {
  0% { opacity: 0;-webkit-transform:translateY(100px)}
  5% { opacity: 0;-webkit-transform:translateY(100px) }
   10% { opacity: 1;-webkit-transform:translateY(0px) }
 
  100% { opacity: 1;-webkit-transform:translateY(0px) }
} 
		 @-webkit-keyframes hideshow3 {
  0% { opacity: 0;transform:translateX(0px)}
 
 
  100% { opacity: 1;transform:translateX(100px) }
} 
	 .w{
		
		-webkit-animation: hideshow 5s ease infinite;
		
		 }
		 	 .w2{
		
			-webkit-animation: hideshow2 5s ease infinite;
		
		 }
		 	 .w3{
		
			-webkit-animation: hideshow3 3s ease infinite;
		
		 }
</style>

<g id="Layer_1_1_" display="none">
	<g display="inline">
		<g id="Layer_3">
			<path fill="#DDDDDD" stroke="#000000" stroke-miterlimit="10" d="M500,153.169c167.093,0,302.543,135.452,302.543,302.542
				c0,29.067-4.101,57.182-11.754,83.789c-4.146,14.411-9.335,28.387-15.479,41.828C727.601,685.718,622.271,758.252,500,758.253
				c-129.085,0-239.288-80.847-282.741-194.661c-3.007-7.877-5.692-15.912-8.047-24.089c-7.651-26.608-11.754-54.725-11.754-83.792
				C197.458,288.621,332.911,153.169,500,153.169z"/>
		</g>
		<g display="none">
			
				<line display="inline" fill="none" stroke="#000000" stroke-width="3" stroke-miterlimit="10" x1="770.5" y1="578.5" x2="223.421" y2="578.5"/>
		</g>
		<g display="none">
			
				<line display="inline" fill="none" stroke="#000000" stroke-width="3" stroke-miterlimit="10" x1="802.51" y1="459.527" x2="197.49" y2="459.527"/>
		</g>
		<g>
			<path d="M455.942,417.769l-14.328,37.872h-4.824l-11.949-31.032l-11.952,31.032h-4.824l-14.256-37.872h4.896l11.882,32.184
				l12.168-32.184h4.393l12.096,32.184l12.024-32.184H455.942z"/>
		</g>
		<g>
			<path d="M391.215,417.839l-14.328,37.872h-4.824l-11.952-31.032l-11.952,31.032h-4.822l-14.258-37.872h4.896l11.88,32.184
				l12.168-32.184h4.392l12.099,32.184l12.021-32.184H391.215z"/>
		</g>
		<g>
			<path d="M326.215,417.839l-14.328,37.872h-4.824l-11.952-31.032l-11.952,31.032h-4.824l-14.256-37.872h4.896l11.88,32.184
				l12.168-32.184h4.392l12.099,32.184l12.021-32.184H326.215z"/>
		</g>
		<g>
			<path d="M456.432,454.919c-0.745-0.77-1.116-1.703-1.116-2.811c0-1.104,0.371-2.024,1.116-2.771
				c0.744-0.744,1.644-1.116,2.7-1.116c1.055,0,1.968,0.372,2.733,1.116c0.77,0.744,1.152,1.668,1.152,2.771
				c0,1.105-0.385,2.041-1.152,2.811c-0.769,0.769-1.681,1.149-2.733,1.149C458.075,456.071,457.177,455.688,456.432,454.919z"/>
		</g>
		<g>
			<path d="M520.392,435.406c0.646-1.484,1.451-2.759,2.412-3.813c0.959-1.058,2.207-2.255,3.743-3.603
				c2.063-1.82,3.588-3.42,4.569-4.788c0.983-1.365,1.479-3.033,1.479-5.001c0-2.642-1.032-4.766-3.098-6.372
				c-2.063-1.608-4.896-2.412-8.494-2.412c-5.952,0-10.537,1.941-13.752,5.832l-3.816-2.88c4.08-4.991,10.056-7.488,17.928-7.488
				c5.041,0,9.063,1.128,12.063,3.384c3,2.257,4.5,5.305,4.5,9.146c0,1.969-0.324,3.705-0.975,5.22
				c-0.646,1.512-1.438,2.797-2.376,3.852c-0.936,1.056-2.172,2.28-3.708,3.672c-2.063,1.872-3.601,3.541-4.605,5.004
				c-1.008,1.465-1.515,3.276-1.515,5.438h-5.325C519.423,438.621,519.744,436.896,520.392,435.406z M519.423,454.952
				c-0.723-0.741-1.08-1.617-1.08-2.628c0-1.056,0.357-1.932,1.08-2.628c0.721-0.692,1.604-1.044,2.663-1.044
				c1.104,0,2.017,0.352,2.734,1.044c0.721,0.697,1.08,1.573,1.08,2.628c0,1.011-0.373,1.887-1.116,2.628
				c-0.745,0.745-1.646,1.116-2.698,1.116C521.027,456.071,520.14,455.698,519.423,454.952z"/>
		</g>
		<g>
			<path d="M561.892,435.406c0.646-1.484,1.451-2.759,2.412-3.813c0.959-1.058,2.207-2.255,3.743-3.603
				c2.063-1.82,3.588-3.42,4.569-4.788c0.983-1.365,1.479-3.033,1.479-5.001c0-2.642-1.032-4.766-3.098-6.372
				c-2.063-1.608-4.896-2.412-8.494-2.412c-5.952,0-10.537,1.941-13.752,5.832l-3.816-2.88c4.08-4.991,10.056-7.488,17.928-7.488
				c5.041,0,9.063,1.128,12.063,3.384c3,2.257,4.5,5.305,4.5,9.146c0,1.969-0.324,3.705-0.975,5.22
				c-0.646,1.512-1.438,2.797-2.376,3.852c-0.936,1.056-2.172,2.28-3.708,3.672c-2.063,1.872-3.601,3.541-4.605,5.004
				c-1.008,1.465-1.515,3.276-1.515,5.438h-5.325C560.923,438.621,561.244,436.896,561.892,435.406z M560.923,454.952
				c-0.723-0.741-1.08-1.617-1.08-2.628c0-1.056,0.357-1.932,1.08-2.628c0.721-0.692,1.604-1.044,2.663-1.044
				c1.104,0,2.017,0.352,2.734,1.044c0.721,0.697,1.08,1.573,1.08,2.628c0,1.011-0.373,1.887-1.116,2.628
				c-0.745,0.745-1.646,1.116-2.698,1.116C562.527,456.071,561.64,455.698,560.923,454.952z"/>
		</g>
		<g>
			<path d="M482.392,435.406c0.648-1.484,1.451-2.759,2.412-3.813c0.959-1.058,2.207-2.255,3.744-3.603
				c2.063-1.82,3.588-3.42,4.569-4.788c0.983-1.365,1.479-3.033,1.479-5.001c0-2.642-1.033-4.766-3.097-6.372
				c-2.064-1.608-4.896-2.412-8.495-2.412c-5.952,0-10.537,1.941-13.753,5.832l-3.815-2.88c4.079-4.991,10.055-7.488,17.928-7.488
				c5.04,0,9.063,1.128,12.063,3.384c3,2.257,4.5,5.305,4.5,9.146c0,1.969-0.324,3.705-0.975,5.22
				c-0.646,1.512-1.438,2.797-2.376,3.852c-0.936,1.056-2.172,2.28-3.708,3.672c-2.063,1.872-3.6,3.541-4.605,5.004
				c-1.009,1.465-1.515,3.276-1.515,5.438h-5.326C481.423,438.621,481.744,436.896,482.392,435.406z M481.423,454.952
				c-0.723-0.741-1.08-1.617-1.08-2.628c0-1.056,0.357-1.932,1.08-2.628c0.72-0.692,1.605-1.044,2.661-1.044
				c1.104,0,2.019,0.352,2.736,1.044c0.721,0.697,1.08,1.573,1.08,2.628c0,1.011-0.372,1.887-1.116,2.628
				c-0.745,0.745-1.645,1.116-2.7,1.116C483.029,456.07,482.14,455.698,481.423,454.952z"/>
		</g>
		<g>
			<path d="M592.431,454.919c-0.744-0.77-1.115-1.703-1.115-2.811c0-1.104,0.371-2.024,1.115-2.771
				c0.744-0.744,1.645-1.116,2.7-1.116c1.055,0,1.968,0.372,2.733,1.116c0.77,0.744,1.151,1.668,1.151,2.771
				c0,1.105-0.385,2.041-1.151,2.811c-0.769,0.769-1.681,1.149-2.733,1.149C594.076,456.071,593.177,455.688,592.431,454.919z"/>
		</g>
		<g>
			<path d="M613.279,453.62c-2.951-1.631-5.268-3.924-6.947-6.876c-1.681-2.949-2.52-6.272-2.52-9.972
				c0-3.696,0.839-7.008,2.52-9.936c1.683-2.93,3.996-5.208,6.947-6.84c2.953-1.631,6.301-2.448,10.045-2.448
				c3.267,0,6.183,0.637,8.748,1.908c2.566,1.271,4.596,3.132,6.084,5.577l-3.813,2.595c-1.248-1.872-2.832-3.276-4.752-4.215
				c-1.923-0.936-4.011-1.401-6.267-1.401c-2.733,0-5.197,0.61-7.381,1.836c-2.184,1.224-3.887,2.964-5.111,5.22
				c-1.225,2.257-1.836,4.824-1.836,7.704c0,2.928,0.611,5.508,1.836,7.74c1.228,2.229,2.931,3.96,5.111,5.184
				c2.186,1.227,4.646,1.836,7.381,1.836c2.256,0,4.344-0.456,6.267-1.368c1.92-0.908,3.504-2.304,4.752-4.176l3.813,2.592
				c-1.488,2.448-3.525,4.312-6.12,5.58c-2.593,1.272-5.497,1.908-8.712,1.908C619.58,456.071,616.232,455.256,613.279,453.62z"/>
		</g>
		<g>
			<path d="M656.279,453.62c-2.951-1.631-5.268-3.924-6.947-6.876c-1.681-2.949-2.52-6.272-2.52-9.972
				c0-3.696,0.839-7.008,2.52-9.936c1.683-2.93,3.996-5.208,6.947-6.84c2.953-1.631,6.301-2.448,10.045-2.448
				c3.267,0,6.183,0.637,8.748,1.908c2.566,1.271,4.596,3.132,6.084,5.577l-3.813,2.595c-1.248-1.872-2.832-3.276-4.752-4.215
				c-1.923-0.936-4.011-1.401-6.267-1.401c-2.733,0-5.197,0.61-7.381,1.836c-2.184,1.224-3.887,2.964-5.111,5.22
				c-1.225,2.257-1.836,4.824-1.836,7.704c0,2.928,0.611,5.508,1.836,7.74c1.228,2.229,2.931,3.96,5.111,5.184
				c2.186,1.227,4.646,1.836,7.381,1.836c2.256,0,4.344-0.456,6.267-1.368c1.92-0.908,3.504-2.304,4.752-4.176l3.813,2.592
				c-1.488,2.448-3.525,4.312-6.12,5.58c-2.593,1.272-5.497,1.908-8.712,1.908C662.58,456.071,659.232,455.256,656.279,453.62z"/>
		</g>
		<g>
			<path d="M698.279,453.62c-2.951-1.631-5.268-3.924-6.947-6.876c-1.681-2.949-2.52-6.272-2.52-9.972
				c0-3.696,0.839-7.008,2.52-9.936c1.683-2.93,3.996-5.208,6.947-6.84c2.953-1.631,6.301-2.448,10.045-2.448
				c3.267,0,6.183,0.637,8.748,1.908c2.566,1.271,4.596,3.132,6.084,5.577l-3.813,2.595c-1.248-1.872-2.832-3.276-4.752-4.215
				c-1.923-0.936-4.011-1.401-6.267-1.401c-2.733,0-5.197,0.61-7.381,1.836c-2.184,1.224-3.887,2.964-5.111,5.22
				c-1.225,2.257-1.836,4.824-1.836,7.704c0,2.928,0.611,5.508,1.836,7.74c1.228,2.229,2.931,3.96,5.111,5.184
				c2.186,1.227,4.646,1.836,7.381,1.836c2.256,0,4.344-0.456,6.267-1.368c1.92-0.908,3.504-2.304,4.752-4.176l3.813,2.592
				c-1.488,2.448-3.525,4.312-6.12,5.58c-2.593,1.272-5.497,1.908-8.712,1.908C704.58,456.071,701.232,455.256,698.279,453.62z"/>
		</g>
	</g>
	<g display="inline">
		<path d="M250.5,396.779h4.752v67.394H250.5V396.779z"/>
	</g>
	<div  class="typewriter">
		
			<text  transform="matrix(1 0 0 1 264.0769 578.5002)" font-family="&apos;Montserrat-Regular&apos;" font-size="72" startOffset="0">
			www.???.com</text>
	</div>
</g>
<g id="Layer_2">
	
		<line display="none" fill="none" stroke="#FF8080" stroke-width="4" stroke-miterlimit="10" x1="369.481" y1="541.851" x2="559.519" y2="543.192"/>
	
		<line display="none" fill="none" stroke="#FF8080" stroke-width="4" stroke-miterlimit="10" x1="403.5" y1="452.5" x2="403.5" y2="514.5"/>
	
		<line display="none" fill="none" stroke="#FF8080" stroke-width="4" stroke-miterlimit="10" x1="534.5" y1="514.021" x2="534.5" y2="453.5"/>
	<path display="none" fill="none" stroke="#FF8080" stroke-width="4" stroke-miterlimit="10" d="M424.18,495.166
		c0-12.896,13.865-23.332,31-23.332"/>
	<path display="none" fill="none" stroke="#FF8080" stroke-width="4" stroke-miterlimit="10" d="M486.18,495.166
		c0-12.896-13.865-23.332-31-23.332"/>
	
		<line display="none" fill="none" stroke="#FF8080" stroke-width="4" stroke-miterlimit="10" x1="424.18" y1="495.166" x2="424.18" y2="529.834"/>
	
		<line display="none" fill="none" stroke="#FF8080" stroke-width="4" stroke-miterlimit="10" x1="486.18" y1="495.166" x2="486.18" y2="529.834"/>
	
		<line display="none" fill="none" stroke="#FF8080" stroke-width="4" stroke-miterlimit="10" x1="254.5" y1="430" x2="369.5" y2="430"/>
	
		<line display="none" fill="none" stroke="#FF8080" stroke-width="4" stroke-miterlimit="10" x1="139.5" y1="430" x2="254.5" y2="430"/>
	<path display="none" fill="none" stroke="#FF8080" stroke-width="4" stroke-miterlimit="10" d="M462.096,443.602
		c0,0-5.157-33.081-30.551-32.075"/>
	
		<line display="none" fill="none" stroke="#FF8080" stroke-width="4" stroke-miterlimit="10" x1="404.811" y1="446.845" x2="404.811" y2="473.5"/>
	
		<line display="none" fill="none" stroke="#FF8080" stroke-width="4" stroke-miterlimit="10" x1="462.096" y1="443.602" x2="462.096" y2="473.5"/>
	
		<line display="none" fill="none" stroke="#FF8080" stroke-width="4" stroke-miterlimit="10" x1="469.5" y1="450.778" x2="469.5" y2="495"/>
	
		<image display="none" overflow="visible" enable-background="new    " width="114" height="16" xlink:href="43B902AC.jpg"  transform="matrix(0.9987 0 0 0.9987 197.573 536.51)">
	</image>
	<path display="none" fill="none" stroke="#FF8080" stroke-miterlimit="10" d="M233.25,532.498
		c-17.5,11.75-34.743,4.002-34.743,4.002v-5.75"/>
	<path display="none" fill="none" stroke="#FF8080" stroke-miterlimit="10" d="M299.508,505.75v5.75c0,0,17.242,7.747,34.742-4.002"
		/>
	<path display="none" fill="none" stroke="#FF8080" stroke-miterlimit="10" d="M198.507,531.25c0,0,18.493,5.875,34.743-3.5"/>
	<line display="none" fill="none" stroke="#8383FC" stroke-miterlimit="10" x1="232.475" y1="519.24" x2="232.763" y2="525.473"/>
	<line display="none" fill="none" stroke="#8383FC" stroke-miterlimit="10" x1="232.416" y1="517.973" x2="232.475" y2="519.24"/>
</g>
<path id="CARD2" class="w3" fill="none" stroke="#000000" stroke-miterlimit="10" d="M577.5,556.5c0,6.627-4.904,12-10.953,12H239.789
	c-6.049,0-10.953-5.373-10.953-12v-188c0-6.627,4.904-12,10.953-12h326.757c6.049,0,10.953,5.373,10.953,12V556.5z"/>
<rect id="CARD" class= "w3" x="228.837" y="394.5" width="348.663" height="40"/>
<g id="paw1">
	
		<ellipse display="none" fill="none" stroke="#231F20" stroke-width="9" stroke-miterlimit="10" cx="320.487" cy="434.004" rx="4.056" ry="4.75"/>
	<circle fill="#FCAEFC" cx="594.03" cy="520.914" r="103.495"/>
	<path display="none" fill="none" stroke="#231F20" stroke-width="9" stroke-miterlimit="10" d="M595.029,379.754
		c0,0-89.996-135.165-199.49-3.502c0,0-16.498,62.337-31.498,59.502c-15-2.836-43.497-4.494-47.997,18.834
		c-4.5,23.327,15,83.334,85.495,59.33c70.496-24.003,172.49,85.694,88.495,87.844"/>
	
		<ellipse transform="matrix(-0.2401 -0.9708 0.9708 -0.2401 231.5453 1038.7657)" display="none" fill="none" stroke="#231F20" stroke-width="9" stroke-miterlimit="10" cx="522.352" cy="428.755" rx="56.477" ry="38.014"/>
	
		<line fill="none" stroke="#FFFFFF" stroke-width="10" stroke-miterlimit="10" x1="533.369" y1="520.913" x2="654.691" y2="520.913"/>
	
		<line fill="none" stroke="#FFFFFF" stroke-width="10" stroke-miterlimit="10" x1="594.85" y1="581.574" x2="594.383" y2="460.254"/>
</g>
<g id="logo" class="w3">
	
		<line display="none" fill="none" stroke="#FF8080" stroke-width="8" stroke-miterlimit="10" x1="327.843" y1="463.466" x2="295.969" y2="507.576"/>
	
		<line display="none" fill="none" stroke="#8383FC" stroke-width="8" stroke-miterlimit="10" x1="330.191" y1="463.466" x2="362.066" y2="507.576"/>
	
		<line display="none" fill="none" stroke="#89E599" stroke-width="8" stroke-miterlimit="10" x1="362.066" y1="458.687" x2="393.939" y2="502.798"/>
	
		<line display="none" fill="none" stroke="#FF8080" stroke-width="4" stroke-miterlimit="10" x1="293.543" y1="523.46" x2="325.423" y2="523.706"/>
	
		<line display="none" fill="none" stroke="#FF8080" stroke-width="4" stroke-miterlimit="10" x1="299.249" y1="507.037" x2="299.249" y2="518.433"/>
	
		<line display="none" fill="none" stroke="#FF8080" stroke-width="4" stroke-miterlimit="10" x1="321.226" y1="518.345" x2="321.226" y2="507.221"/>
	<path display="none" fill="none" stroke="#FF8080" stroke-width="4" stroke-miterlimit="10" d="M302.719,514.879
		c0-2.37,2.326-4.288,5.2-4.288"/>
	<path display="none" fill="none" stroke="#FF8080" stroke-width="4" stroke-miterlimit="10" d="M313.12,514.879
		c0-2.37-2.327-4.288-5.201-4.288"/>
	
		<line display="none" fill="none" stroke="#FF8080" stroke-width="4" stroke-miterlimit="10" x1="302.719" y1="514.879" x2="302.719" y2="521.252"/>
	
		<line display="none" fill="none" stroke="#FF8080" stroke-width="4" stroke-miterlimit="10" x1="313.12" y1="514.879" x2="313.12" y2="521.252"/>
	<ellipse fill="#FF8080" cx="266.444" cy="471.185" rx="4.362" ry="4.779"/>
	<ellipse fill="#FF8080" cx="266.444" cy="502.247" rx="4.362" ry="4.779"/>
	<ellipse fill="#FF8080" cx="294.273" cy="489.197" rx="4.362" ry="4.779"/>
	<ellipse fill="#FF8080" cx="277.984" cy="474.126" rx="4.362" ry="4.779"/>
	<ellipse fill="#FF8080" cx="287.379" cy="480.375" rx="4.362" ry="4.779"/>
	
		<line fill="none" stroke="#FF8080" stroke-width="4" stroke-miterlimit="10" x1="266.444" y1="471.185" x2="266.444" y2="533.308"/>
	
		<line display="none" fill="none" stroke="#FF8080" stroke-width="4" stroke-miterlimit="10" x1="274.254" y1="502.903" x2="293.546" y2="502.903"/>
	
		<line display="none" fill="none" stroke="#FF8080" stroke-width="4" stroke-miterlimit="10" x1="254.961" y1="502.903" x2="274.254" y2="502.903"/>
	<path fill="#7F9E3D" d="M284.443,507.399c5.872-0.276-10.401-7.965-16.691,6.172"/>
	<path fill="#7F9E3D" d="M284.386,508.01c4.811-3.699-3.824,13.256-16.671,6.239"/>
	<path fill="#7F9E3D" d="M248.444,507.399c-5.872-0.276,10.401-7.965,16.692,6.172"/>
	<path fill="#7F9E3D" d="M248.501,508.01c-4.811-3.699,3.824,13.256,16.671,6.239"/>
	<path fill="#7F9E3D" d="M251.345,490.667"/>
	
		<line fill="none" stroke="#FF8080" stroke-width="4" stroke-miterlimit="10" x1="266.444" y1="502.246" x2="294.273" y2="489.197"/>
	
		<line fill="none" stroke="#FF8080" stroke-width="4" stroke-miterlimit="10" x1="266.444" y1="502.246" x2="287.379" y2="480.375"/>
	
		<line fill="none" stroke="#FF8080" stroke-width="4" stroke-miterlimit="10" x1="266.444" y1="502.246" x2="277.984" y2="474.126"/>
	<ellipse fill="#FF8080" cx="238.614" cy="488.554" rx="4.362" ry="4.779"/>
	<ellipse fill="#FF8080" cx="254.903" cy="473.482" rx="4.361" ry="4.779"/>
	<ellipse fill="#FF8080" cx="245.508" cy="479.731" rx="4.362" ry="4.779"/>
	
		<line fill="none" stroke="#FF8080" stroke-width="4" stroke-miterlimit="10" x1="266.444" y1="501.604" x2="238.614" y2="488.554"/>
	
		<line fill="none" stroke="#FF8080" stroke-width="4" stroke-miterlimit="10" x1="266.444" y1="501.604" x2="245.508" y2="479.732"/>
	
		<line fill="none" stroke="#FF8080" stroke-width="4" stroke-miterlimit="10" x1="266.444" y1="501.604" x2="254.903" y2="473.483"/>
	<path display="none" fill="none" stroke="#FF8080" stroke-width="4" stroke-miterlimit="10" d="M309.079,505.403
		c0,0-0.865-6.081-5.125-5.896"/>
	
		<line display="none" fill="none" stroke="#FF8080" stroke-width="4" stroke-miterlimit="10" x1="299.469" y1="505.998" x2="299.469" y2="510.897"/>
	
		<line display="none" fill="none" stroke="#FF8080" stroke-width="4" stroke-miterlimit="10" x1="309.079" y1="505.403" x2="309.079" y2="510.897"/>
	
		<text transform="matrix(0.9127 0 0 1 287.3782 527.9788)" display="none" enable-background="new    " font-family="'Ubuntu-Regular'" font-size="22.0556">Dog </text>
	
		<text transform="matrix(0.9127 0 0 1 306.5178 547.9163)" display="none" enable-background="new    " font-family="'Ubuntu-Regular'" font-size="22.0556">Hub</text>
	
		<line display="none" fill="none" stroke="#FF8080" stroke-width="8" stroke-miterlimit="10" x1="353.204" y1="505.065" x2="353.204" y2="527.978"/>
	
		<line display="none" fill="none" stroke="#FF8080" stroke-width="4" stroke-miterlimit="10" x1="310.321" y1="506.721" x2="310.321" y2="514.849"/>
	<path display="none" fill="none" stroke="#FF8080" stroke-width="8" stroke-miterlimit="10" d="M316.875,516.522v-4.965
		c0,0,0.455-8.881,10.968-8.759"/>
	<path display="none" fill="none" stroke="#FF8080" stroke-width="8" stroke-miterlimit="10" d="M327.843,502.824
		c10.512-0.123,10.966,8.758,10.966,8.758v4.966"/>
	
		<line display="none" fill="none" stroke="#FF8080" stroke-width="7" stroke-miterlimit="10" x1="338.809" y1="516.548" x2="338.809" y2="527.978"/>
	
		<line display="none" fill="none" stroke="#FF8080" stroke-width="8" stroke-miterlimit="10" x1="364.749" y1="507.026" x2="390.92" y2="503.717"/>
	
		<image display="none" overflow="visible" enable-background="new    " width="114" height="16" xlink:href="57FDB988.jpg"  transform="matrix(0.1675 0 0 0.1836 264.7029 522.4788)">
	</image>
	<path display="none" fill="none" stroke="#FF8080" stroke-miterlimit="10" d="M270.689,521.74c-2.937,2.16-5.829,0.736-5.829,0.736
		v-1.057"/>
	<path display="none" fill="none" stroke="#FF8080" stroke-miterlimit="10" d="M281.804,516.824v1.057c0,0,2.893,1.425,5.828-0.734"
		/>
	<path display="none" fill="none" stroke="#FF8080" stroke-miterlimit="10" d="M264.86,521.512c0,0,3.103,1.08,5.829-0.644"/>
	<line display="none" fill="none" stroke="#8383FC" stroke-miterlimit="10" x1="270.559" y1="519.304" x2="270.607" y2="520.449"/>
	<line display="none" fill="none" stroke="#8383FC" stroke-miterlimit="10" x1="270.549" y1="519.071" x2="270.559" y2="519.304"/>
	<path fill="#8383FC" d="M256.648,532.115c0.07,0,0.14,0,0.209,0c0,0.075,0,0.153,0,0.229c0.261,0.188,0.238,0.41,0.419,0.688
		c0.07,0.038,0.14,0.077,0.209,0.115c0.14,0.19,0.279,0.383,0.419,0.573c0.209,0.191,0.419,0.383,0.628,0.574
		c0.07,0.114,0.14,0.229,0.209,0.344c0.07,0,0.14,0,0.209,0c0.07,0.115,0.14,0.23,0.209,0.346c0.07,0,0.14,0,0.209,0
		c0.035,0.075,0.07,0.152,0.105,0.229c0.07,0,0.14,0,0.209,0c0.035,0.077,0.07,0.153,0.105,0.229
		c0.14,0.038,0.279,0.076,0.419,0.115c0.035,0.076,0.07,0.153,0.105,0.229c0.14,0.038,0.279,0.076,0.419,0.115
		c0,0.037,0,0.076,0,0.114c0.14,0.038,0.279,0.076,0.419,0.115c0,0.038,0,0.076,0,0.114c0.105,0,0.209,0,0.314,0
		c0,0.038,0,0.077,0,0.114c0.07,0,0.14,0,0.209,0c0,0.039,0,0.077,0,0.115c0.175,0.038,0.35,0.076,0.524,0.115
		c0,0.038,0,0.076,0,0.114c0.349,0.076,0.698,0.153,1.048,0.229c1.293,0.474,3.371,0.841,4.924,0.345c0.209,0,0.419,0,0.628,0
		c0-0.039,0-0.076,0-0.115c0.14,0,0.28,0,0.419,0c0-0.038,0-0.076,0-0.114c0.14,0,0.28,0,0.419,0c0-0.039,0-0.077,0-0.115
		c0.14,0,0.28,0,0.419,0c0-0.038,0-0.076,0-0.114c0.105,0,0.21,0,0.315,0c0-0.039,0-0.077,0-0.115c0.104,0,0.209,0,0.314,0
		c0-0.038,0-0.076,0-0.114c0.175-0.039,0.349-0.077,0.524-0.115c0-0.038,0-0.076,0-0.115c0.07,0,0.14,0,0.209,0
		c0-0.037,0-0.076,0-0.114c0.105,0,0.209,0,0.315,0c0-0.038,0-0.076,0-0.114c0.139-0.039,0.279-0.077,0.419-0.115
		c0-0.038,0-0.077,0-0.114c0.139-0.039,0.279-0.077,0.419-0.115c0.035-0.076,0.069-0.153,0.104-0.229
		c0.14-0.039,0.279-0.077,0.419-0.115c0-0.038,0-0.076,0-0.114c0.105-0.038,0.209-0.077,0.314-0.115
		c0.035-0.076,0.069-0.153,0.104-0.229c0.07,0,0.14,0,0.209,0c0.035-0.078,0.07-0.154,0.105-0.23c0.07,0,0.14,0,0.209,0
		c0.174-0.229,0.349-0.459,0.524-0.688c0.069,0,0.14,0,0.209,0c0-0.038,0-0.077,0-0.115c0.104-0.076,0.209-0.152,0.314-0.229
		c0-0.076,0-0.153,0-0.229c0.07-0.038,0.14-0.076,0.209-0.115c0.258-0.301,0.641-0.804,0.734-1.262c0.069,0,0.139,0,0.209,0
		c0.035,0.114,0.069,0.229,0.104,0.344c0.035,0,0.07,0,0.105,0c0.035,0.115,0.07,0.229,0.104,0.344
		c0.105,0.077,0.209,0.154,0.314,0.23c0,0.077,0,0.153,0,0.229c0.07,0.038,0.14,0.076,0.209,0.114c0,0.039,0,0.077,0,0.115
		c0.245,0.229,0.489,0.459,0.733,0.688c0.07,0.115,0.14,0.229,0.21,0.345c0.069,0,0.14,0,0.209,0
		c0.069,0.114,0.14,0.229,0.209,0.345c0.069,0,0.14,0,0.209,0c0.069,0.115,0.14,0.229,0.209,0.344c0.07,0,0.14,0,0.209,0
		c0,0.038,0,0.077,0,0.115c0.069,0,0.14,0,0.209,0c0.035,0.076,0.07,0.152,0.104,0.229c0.21,0.076,0.419,0.153,0.629,0.229
		c0.035,0.076,0.07,0.152,0.105,0.229c0.104,0,0.209,0,0.314,0c0,0.038,0,0.076,0,0.115c0.07,0,0.14,0,0.209,0
		c0,0.038,0,0.076,0,0.114c0.14,0.038,0.28,0.077,0.419,0.114c0,0.039,0,0.077,0,0.115c0.209,0.038,0.419,0.076,0.628,0.115
		c1.659,0.782,4.402,1.281,6.496,0.573c0.175,0,0.35,0,0.524,0c0-0.038,0-0.076,0-0.114c0.244-0.039,0.489-0.077,0.734-0.115
		c0-0.038,0-0.076,0-0.115c0.104,0,0.209,0,0.313,0c0-0.038,0-0.076,0-0.114c0.105,0,0.209,0,0.315,0c0-0.038,0-0.076,0-0.114
		c0.104,0,0.209,0,0.314,0c0-0.039,0-0.077,0-0.115c0.07,0,0.14,0,0.209,0c0-0.038,0-0.076,0-0.115c0.105,0,0.21,0,0.314,0
		c0-0.037,0-0.076,0-0.114c0.253-0.135,0.563-0.279,0.838-0.344c0,1.07,0,2.143,0,3.213c-0.698,0.269-1.396,0.536-2.095,0.804
		c-0.175,0-0.35,0-0.524,0c0,0.038,0,0.076,0,0.115c-0.139,0-0.279,0-0.419,0c0,0.038,0,0.076,0,0.115c-0.209,0-0.419,0-0.629,0
		c0,0.038,0,0.076,0,0.114c-0.244,0-0.489,0-0.733,0c0,0.038,0,0.076,0,0.114c-0.664,0-1.327,0-1.991,0
		c-1.681,0-3.087-0.396-4.295-0.918c-0.314-0.076-0.629-0.152-0.942-0.229c0-0.038,0-0.077,0-0.115
		c-0.14-0.038-0.28-0.076-0.419-0.114c0-0.039,0-0.076,0-0.115c-0.105,0-0.209,0-0.314,0c0-0.038,0-0.076,0-0.114
		c-0.209-0.077-0.419-0.153-0.629-0.229c0-0.039,0-0.077,0-0.115c-0.139-0.038-0.279-0.076-0.419-0.114
		c-0.035-0.077-0.07-0.153-0.104-0.23c-0.14-0.038-0.28-0.076-0.419-0.114c-0.035-0.076-0.069-0.153-0.105-0.229
		c-0.069,0-0.139,0-0.209,0c-0.035-0.076-0.07-0.153-0.105-0.229c-0.069,0-0.14,0-0.209,0c-0.035-0.076-0.07-0.153-0.104-0.229
		c-0.07,0-0.14,0-0.209,0c-0.035-0.076-0.07-0.153-0.105-0.229c-0.104-0.038-0.21-0.077-0.314-0.115c0-0.038,0-0.076,0-0.114
		c-0.156-0.135-0.187-0.159-0.419-0.229c-0.105,0.152-0.209,0.306-0.314,0.459c-0.07,0-0.14,0-0.209,0
		c-0.07,0.114-0.14,0.229-0.209,0.344c-0.07,0-0.14,0-0.21,0c-0.035,0.077-0.069,0.153-0.104,0.229
		c-0.105,0.039-0.209,0.076-0.314,0.115c0,0.038,0,0.076,0,0.114c-0.07,0-0.139,0-0.209,0c0,0.039,0,0.077,0,0.115
		c-0.07,0-0.139,0-0.209,0c-0.035,0.076-0.07,0.153-0.104,0.229c-0.209,0.076-0.419,0.153-0.628,0.229
		c-2.475,1.446-6.75,2.754-10.373,1.492c-0.175,0-0.349,0-0.523,0c0-0.038,0-0.076,0-0.115c-0.105,0-0.209,0-0.315,0
		c0-0.037,0-0.076,0-0.114c-0.349-0.076-0.698-0.153-1.047-0.229c0-0.039,0-0.076,0-0.115c-0.07,0-0.14,0-0.209,0
		c0-0.037,0-0.076,0-0.114c-0.104,0-0.209,0-0.314,0c0-0.038,0-0.077,0-0.115c-0.07,0-0.14,0-0.209,0c0-0.038,0-0.076,0-0.114
		c-0.104,0-0.209,0-0.314,0c0-0.039,0-0.076,0-0.115c-0.209-0.076-0.419-0.152-0.628-0.229c0-0.038,0-0.076,0-0.114
		c-0.07,0-0.14,0-0.209,0c0-0.039,0-0.077,0-0.115c-0.209-0.076-0.419-0.153-0.628-0.229c-0.035-0.076-0.07-0.153-0.105-0.229
		c-0.14-0.038-0.279-0.076-0.419-0.115c-0.035-0.076-0.07-0.152-0.104-0.229c-0.07,0-0.14,0-0.209,0
		c-0.035-0.076-0.07-0.153-0.105-0.23c-0.07,0-0.139,0-0.209,0c-0.035-0.076-0.07-0.152-0.104-0.229
		c-0.105-0.038-0.209-0.076-0.314-0.114c0-0.038,0-0.077,0-0.115c-0.183-0.165-0.253-0.263-0.524-0.344
		c-0.204,0.368-0.513,0.448-0.838,0.688c-0.035,0.076-0.07,0.153-0.104,0.229c-0.07,0-0.14,0-0.209,0
		c-0.035,0.076-0.07,0.153-0.105,0.229c-0.07,0-0.14,0-0.21,0c-0.035,0.076-0.069,0.153-0.104,0.229
		c-0.14,0.038-0.28,0.076-0.419,0.114c-0.035,0.077-0.07,0.153-0.105,0.23c-0.139,0.038-0.279,0.076-0.419,0.114
		c0,0.038,0,0.076,0,0.115c-0.209,0.076-0.418,0.152-0.628,0.229c0,0.038,0,0.076,0,0.114c-0.104,0-0.209,0-0.314,0
		c0,0.039,0,0.076,0,0.115c-0.14,0.038-0.279,0.076-0.419,0.114c0,0.038,0,0.077,0,0.115c-0.209,0.038-0.419,0.077-0.629,0.114
		c0,0.039,0,0.076,0,0.115c-0.104,0-0.209,0-0.313,0c0,0.038,0,0.076,0,0.115c-0.105,0-0.209,0-0.315,0c0,0.038,0,0.076,0,0.114
		c-0.104,0-0.209,0-0.314,0c0,0.038,0,0.077,0,0.114c-0.279,0.039-0.559,0.077-0.838,0.115c0,0.038,0,0.076,0,0.115
		c-0.174,0-0.349,0-0.523,0c0,0.038,0,0.076,0,0.115c-0.175,0-0.35,0-0.524,0c0,0.038,0,0.076,0,0.114c-0.279,0-0.558,0-0.838,0
		c-0.365,0.113-2.43,0.27-2.933,0.114c0-0.038,0-0.076,0-0.114c-0.28,0-0.559,0-0.838,0c0-0.038,0-0.076,0-0.114
		c-0.175,0-0.349,0-0.524,0c0-0.039,0-0.077,0-0.115c-0.174,0-0.349,0-0.524,0c0-0.039,0-0.077,0-0.115c-0.14,0-0.279,0-0.419,0
		c-0.698-0.268-1.397-0.535-2.096-0.804c0-1.07,0-2.143,0-3.213c0.278,0.067,0.582,0.207,0.838,0.344c0,0.038,0,0.077,0,0.114
		c0.105,0,0.209,0,0.314,0c0,0.039,0,0.077,0,0.115c0.07,0,0.139,0,0.21,0c0,0.038,0,0.076,0,0.115c0.104,0,0.209,0,0.313,0
		c0,0.038,0,0.076,0,0.114c0.105,0,0.21,0,0.315,0c0,0.038,0,0.076,0,0.115c0.104,0,0.209,0,0.314,0c0,0.038,0,0.076,0,0.114
		c0.105,0,0.209,0,0.314,0c0,0.038,0,0.076,0,0.115c0.14,0,0.279,0,0.419,0c0,0.038,0,0.076,0,0.114c0.175,0,0.349,0,0.524,0
		c0,0.039,0,0.076,0,0.115c0.175,0,0.349,0,0.524,0c0,0.038,0,0.076,0,0.114c0.279,0,0.559,0,0.838,0c0,0.039,0,0.077,0,0.115
		c0.645,0.197,2.294-0.092,2.724-0.229c0.209,0,0.419,0,0.629,0c0-0.039,0-0.076,0-0.115c0.279-0.038,0.558-0.076,0.838-0.114
		c0-0.039,0-0.077,0-0.115c0.104,0,0.209,0,0.314,0c0-0.038,0-0.076,0-0.114c0.104,0,0.21,0,0.314,0c0-0.039,0-0.077,0-0.115
		c0.105,0,0.209,0,0.314,0c0-0.038,0-0.076,0-0.114c0.209-0.039,0.419-0.077,0.629-0.115c0-0.038,0-0.076,0-0.115
		c0.139-0.037,0.279-0.076,0.419-0.114c0-0.038,0-0.076,0-0.114c0.069,0,0.139,0,0.209,0c0-0.039,0-0.077,0-0.115
		c0.104,0,0.209,0,0.314,0c0.035-0.077,0.07-0.153,0.105-0.229c0.069,0,0.139,0,0.209,0c0-0.038,0-0.076,0-0.115
		c0.209-0.076,0.418-0.153,0.628-0.229c0.035-0.076,0.069-0.152,0.104-0.229c0.07,0,0.14,0,0.209,0
		c0.07-0.114,0.14-0.229,0.209-0.344c0.07,0,0.14,0,0.209,0c0.07-0.115,0.14-0.23,0.21-0.345c0.069,0,0.139,0,0.209,0
		c0.174-0.229,0.349-0.459,0.524-0.688C255.802,533.386,256.487,532.816,256.648,532.115z"/>
	<path fill="#8383FC" d="M256.648,544.118c0.07,0,0.14,0,0.209,0c0,0.076,0,0.153,0,0.229c0.261,0.189,0.238,0.41,0.419,0.689
		c0.07,0.038,0.14,0.076,0.209,0.114c0.14,0.191,0.279,0.383,0.419,0.573c0.209,0.192,0.419,0.383,0.628,0.574
		c0.07,0.115,0.14,0.229,0.209,0.345c0.07,0,0.14,0,0.209,0c0.07,0.114,0.14,0.229,0.209,0.345c0.07,0,0.14,0,0.209,0
		c0.035,0.076,0.07,0.152,0.105,0.229c0.07,0,0.14,0,0.209,0c0.035,0.076,0.07,0.153,0.105,0.229
		c0.14,0.039,0.279,0.077,0.419,0.115c0.035,0.077,0.07,0.153,0.105,0.23c0.14,0.037,0.279,0.076,0.419,0.114
		c0,0.038,0,0.076,0,0.114c0.14,0.038,0.279,0.077,0.419,0.115c0,0.038,0,0.076,0,0.115c0.105,0,0.209,0,0.314,0
		c0,0.038,0,0.076,0,0.114c0.07,0,0.14,0,0.209,0c0,0.038,0,0.076,0,0.114c0.175,0.039,0.35,0.077,0.524,0.115
		c0,0.038,0,0.077,0,0.115c0.349,0.076,0.698,0.152,1.048,0.229c1.293,0.474,3.371,0.841,4.924,0.344c0.209,0,0.419,0,0.628,0
		c0-0.038,0-0.076,0-0.114c0.14,0,0.28,0,0.419,0c0-0.039,0-0.076,0-0.115c0.14,0,0.28,0,0.419,0c0-0.038,0-0.076,0-0.114
		c0.14,0,0.28,0,0.419,0c0-0.039,0-0.077,0-0.115c0.105,0,0.21,0,0.315,0c0-0.038,0-0.077,0-0.114c0.104,0,0.209,0,0.314,0
		c0-0.038,0-0.077,0-0.115c0.175-0.038,0.349-0.076,0.524-0.115c0-0.038,0-0.076,0-0.114c0.07,0,0.14,0,0.209,0
		c0-0.038,0-0.076,0-0.114c0.105,0,0.209,0,0.315,0c0-0.039,0-0.077,0-0.115c0.139-0.038,0.279-0.077,0.419-0.115
		c0-0.038,0-0.076,0-0.114c0.139-0.038,0.279-0.077,0.419-0.114c0.035-0.077,0.069-0.153,0.104-0.23
		c0.14-0.038,0.279-0.076,0.419-0.115c0-0.037,0-0.075,0-0.114c0.105-0.038,0.209-0.076,0.314-0.114
		c0.035-0.077,0.069-0.153,0.104-0.229c0.07,0,0.14,0,0.209,0c0.035-0.077,0.07-0.153,0.105-0.23c0.07,0,0.14,0,0.209,0
		c0.174-0.229,0.349-0.459,0.524-0.688c0.069,0,0.14,0,0.209,0c0-0.039,0-0.077,0-0.115c0.104-0.077,0.209-0.153,0.314-0.23
		c0-0.076,0-0.152,0-0.229c0.07-0.038,0.14-0.076,0.209-0.114c0.258-0.301,0.641-0.805,0.734-1.263c0.069,0,0.139,0,0.209,0
		c0.035,0.114,0.069,0.229,0.104,0.345c0.035,0,0.07,0,0.105,0c0.035,0.114,0.07,0.229,0.104,0.344
		c0.105,0.076,0.209,0.153,0.314,0.23c0,0.076,0,0.152,0,0.229c0.07,0.038,0.14,0.077,0.209,0.115c0,0.038,0,0.076,0,0.114
		c0.245,0.229,0.489,0.46,0.733,0.688c0.07,0.115,0.14,0.23,0.21,0.345c0.069,0,0.14,0,0.209,0c0.069,0.115,0.14,0.229,0.209,0.345
		c0.069,0,0.14,0,0.209,0c0.069,0.115,0.14,0.229,0.209,0.345c0.07,0,0.14,0,0.209,0c0,0.038,0,0.076,0,0.114
		c0.069,0,0.14,0,0.209,0c0.035,0.077,0.07,0.153,0.104,0.229c0.21,0.077,0.419,0.153,0.629,0.23
		c0.035,0.076,0.07,0.152,0.105,0.229c0.104,0,0.209,0,0.314,0c0,0.038,0,0.077,0,0.115c0.07,0,0.14,0,0.209,0
		c0,0.038,0,0.076,0,0.115c0.14,0.038,0.28,0.076,0.419,0.114c0,0.038,0,0.076,0,0.114c0.209,0.039,0.419,0.077,0.628,0.115
		c1.659,0.782,4.402,1.281,6.496,0.574c0.175,0,0.35,0,0.524,0c0-0.039,0-0.076,0-0.115c0.244-0.038,0.489-0.076,0.734-0.114
		c0-0.039,0-0.077,0-0.115c0.104,0,0.209,0,0.313,0c0-0.038,0-0.077,0-0.114c0.105,0,0.209,0,0.315,0c0-0.038,0-0.077,0-0.115
		c0.104,0,0.209,0,0.314,0c0-0.038,0-0.076,0-0.115c0.07,0,0.14,0,0.209,0c0-0.038,0-0.076,0-0.114c0.105,0,0.21,0,0.314,0
		c0-0.038,0-0.076,0-0.114c0.253-0.136,0.563-0.279,0.838-0.345c0,1.071,0,2.143,0,3.214c-0.698,0.268-1.396,0.536-2.095,0.803
		c-0.175,0-0.35,0-0.524,0c0,0.039,0,0.077,0,0.115c-0.139,0-0.279,0-0.419,0c0,0.038,0,0.077,0,0.115c-0.209,0-0.419,0-0.629,0
		c0,0.038,0,0.076,0,0.114c-0.244,0-0.489,0-0.733,0c0,0.038,0,0.076,0,0.115c-0.664,0-1.327,0-1.991,0
		c-1.681-0.001-3.087-0.396-4.295-0.919c-0.314-0.076-0.629-0.152-0.942-0.229c0-0.039,0-0.077,0-0.115
		c-0.14-0.039-0.28-0.076-0.419-0.115c0-0.038,0-0.076,0-0.114c-0.105,0-0.209,0-0.314,0c0-0.038,0-0.076,0-0.115
		c-0.209-0.076-0.419-0.153-0.629-0.229c0-0.038,0-0.076,0-0.114c-0.139-0.038-0.279-0.076-0.419-0.115
		c-0.035-0.076-0.07-0.153-0.104-0.229c-0.14-0.038-0.28-0.076-0.419-0.114c-0.035-0.077-0.069-0.153-0.105-0.23
		c-0.069,0-0.139,0-0.209,0c-0.035-0.076-0.07-0.152-0.105-0.229c-0.069,0-0.14,0-0.209,0c-0.035-0.077-0.07-0.154-0.104-0.23
		c-0.07,0-0.14,0-0.209,0c-0.035-0.076-0.07-0.153-0.105-0.229c-0.104-0.038-0.21-0.076-0.314-0.114c0-0.039,0-0.077,0-0.115
		c-0.156-0.135-0.187-0.159-0.419-0.229c-0.105,0.152-0.209,0.306-0.314,0.459c-0.07,0-0.14,0-0.209,0
		c-0.07,0.115-0.14,0.229-0.209,0.345c-0.07,0-0.14,0-0.21,0c-0.035,0.076-0.069,0.153-0.104,0.229
		c-0.105,0.038-0.209,0.076-0.314,0.114c0,0.038,0,0.077,0,0.115c-0.07,0-0.139,0-0.209,0c0,0.038,0,0.076,0,0.115
		c-0.07,0-0.139,0-0.209,0c-0.035,0.076-0.07,0.153-0.104,0.229c-0.209,0.076-0.419,0.153-0.628,0.229
		c-2.475,1.445-6.75,2.753-10.373,1.492c-0.175,0-0.349,0-0.523,0c0-0.039,0-0.077,0-0.115c-0.105,0-0.209,0-0.315,0
		c0-0.038,0-0.076,0-0.114c-0.349-0.077-0.698-0.153-1.047-0.23c0-0.038,0-0.076,0-0.114c-0.07,0-0.14,0-0.209,0
		c0-0.038,0-0.076,0-0.114c-0.104,0-0.209,0-0.314,0c0-0.039,0-0.077,0-0.115c-0.07,0-0.14,0-0.209,0c0-0.039,0-0.076,0-0.115
		c-0.104,0-0.209,0-0.314,0c0-0.038,0-0.076,0-0.114c-0.209-0.076-0.419-0.153-0.628-0.229c0-0.039,0-0.076,0-0.115
		c-0.07,0-0.14,0-0.209,0c0-0.038,0-0.076,0-0.114c-0.209-0.076-0.419-0.153-0.628-0.229c-0.035-0.076-0.07-0.153-0.105-0.229
		c-0.14-0.039-0.279-0.077-0.419-0.115c-0.035-0.077-0.07-0.153-0.104-0.229c-0.07,0-0.14,0-0.209,0
		c-0.035-0.076-0.07-0.153-0.105-0.229c-0.07,0-0.139,0-0.209,0c-0.035-0.076-0.07-0.153-0.104-0.229
		c-0.105-0.039-0.209-0.076-0.314-0.115c0-0.038,0-0.076,0-0.114c-0.183-0.165-0.253-0.263-0.524-0.345
		c-0.204,0.368-0.513,0.448-0.838,0.688c-0.035,0.076-0.07,0.153-0.104,0.23c-0.07,0-0.14,0-0.209,0
		c-0.035,0.076-0.07,0.152-0.105,0.229c-0.07,0-0.14,0-0.21,0c-0.035,0.077-0.069,0.153-0.104,0.23
		c-0.14,0.038-0.28,0.076-0.419,0.114c-0.035,0.076-0.07,0.153-0.105,0.229c-0.139,0.039-0.279,0.077-0.419,0.115
		c0,0.038,0,0.076,0,0.114c-0.209,0.076-0.418,0.153-0.628,0.229c0,0.039,0,0.077,0,0.115c-0.104,0-0.209,0-0.314,0
		c0,0.038,0,0.076,0,0.114c-0.14,0.039-0.279,0.076-0.419,0.115c0,0.038,0,0.076,0,0.115c-0.209,0.038-0.419,0.076-0.629,0.114
		c0,0.038,0,0.076,0,0.114c-0.104,0-0.209,0-0.313,0c0,0.039,0,0.077,0,0.115c-0.105,0-0.209,0-0.315,0c0,0.038,0,0.077,0,0.115
		c-0.104,0-0.209,0-0.314,0c0,0.038,0,0.076,0,0.114c-0.279,0.038-0.559,0.076-0.838,0.115c0,0.038,0,0.076,0,0.114
		c-0.174,0-0.349,0-0.523,0c0,0.038,0,0.077,0,0.115c-0.175,0-0.35,0-0.524,0c0,0.038,0,0.077,0,0.114c-0.279,0-0.558,0-0.838,0
		c-0.365,0.113-2.43,0.271-2.933,0.115c0-0.039,0-0.077,0-0.115c-0.28,0-0.559,0-0.838,0c0-0.037,0-0.076,0-0.114
		c-0.175,0-0.349,0-0.524,0c0-0.038,0-0.077,0-0.115c-0.174,0-0.349,0-0.524,0c0-0.038,0-0.076,0-0.114c-0.14,0-0.279,0-0.419,0
		c-0.698-0.268-1.397-0.536-2.096-0.804c0-1.071,0-2.143,0-3.214c0.278,0.068,0.582,0.208,0.838,0.345c0,0.038,0,0.076,0,0.114
		c0.105,0,0.209,0,0.314,0c0,0.038,0,0.076,0,0.114c0.07,0,0.139,0,0.21,0c0,0.039,0,0.077,0,0.115c0.104,0,0.209,0,0.313,0
		c0,0.038,0,0.077,0,0.115c0.105,0,0.21,0,0.315,0c0,0.037,0,0.076,0,0.114c0.104,0,0.209,0,0.314,0c0,0.038,0,0.076,0,0.115
		c0.105,0,0.209,0,0.314,0c0,0.038,0,0.076,0,0.114c0.14,0,0.279,0,0.419,0c0,0.039,0,0.076,0,0.115c0.175,0,0.349,0,0.524,0
		c0,0.038,0,0.076,0,0.114c0.175,0,0.349,0,0.524,0c0,0.039,0,0.076,0,0.115c0.279,0,0.559,0,0.838,0c0,0.038,0,0.076,0,0.115
		c0.645,0.196,2.294-0.093,2.724-0.23c0.209,0,0.419,0,0.629,0c0-0.038,0-0.076,0-0.114c0.279-0.039,0.558-0.076,0.838-0.115
		c0-0.038,0-0.076,0-0.114c0.104,0,0.209,0,0.314,0c0-0.039,0-0.077,0-0.115c0.104,0,0.21,0,0.314,0c0-0.038,0-0.077,0-0.114
		c0.105,0,0.209,0,0.314,0c0-0.038,0-0.077,0-0.115c0.209-0.038,0.419-0.076,0.629-0.115c0-0.038,0-0.076,0-0.114
		c0.139-0.038,0.279-0.076,0.419-0.114c0-0.039,0-0.077,0-0.115c0.069,0,0.139,0,0.209,0c0-0.038,0-0.077,0-0.115
		c0.104,0,0.209,0,0.314,0c0.035-0.076,0.07-0.152,0.105-0.229c0.069,0,0.139,0,0.209,0c0-0.039,0-0.077,0-0.115
		c0.209-0.077,0.418-0.153,0.628-0.23c0.035-0.075,0.069-0.152,0.104-0.229c0.07,0,0.14,0,0.209,0
		c0.07-0.115,0.14-0.229,0.209-0.345c0.07,0,0.14,0,0.209,0c0.07-0.115,0.14-0.229,0.21-0.345c0.069,0,0.139,0,0.209,0
		c0.174-0.229,0.349-0.458,0.524-0.688C255.802,545.389,256.487,544.819,256.648,544.118z"/>
	<path fill="#8383FC" d="M256.648,538.18c0.07,0,0.14,0,0.209,0c0,0.077,0,0.153,0,0.229c0.261,0.189,0.238,0.411,0.419,0.689
		c0.07,0.038,0.14,0.076,0.209,0.115c0.14,0.19,0.279,0.382,0.419,0.573c0.209,0.191,0.419,0.383,0.628,0.574
		c0.07,0.114,0.14,0.229,0.209,0.344c0.07,0,0.14,0,0.209,0c0.07,0.115,0.14,0.23,0.209,0.345c0.07,0,0.14,0,0.209,0
		c0.035,0.076,0.07,0.152,0.105,0.229c0.07,0,0.14,0,0.209,0c0.035,0.077,0.07,0.153,0.105,0.229
		c0.14,0.038,0.279,0.077,0.419,0.114c0.035,0.077,0.07,0.154,0.105,0.23c0.14,0.038,0.279,0.076,0.419,0.115
		c0,0.037,0,0.076,0,0.114c0.14,0.038,0.279,0.076,0.419,0.114c0,0.039,0,0.077,0,0.115c0.105,0,0.209,0,0.314,0
		c0,0.039,0,0.076,0,0.114c0.07,0,0.14,0,0.209,0c0,0.039,0,0.077,0,0.115c0.175,0.038,0.35,0.076,0.524,0.115
		c0,0.038,0,0.076,0,0.114c0.349,0.076,0.698,0.152,1.048,0.229c1.293,0.474,3.371,0.841,4.924,0.345c0.209,0,0.419,0,0.628,0
		c0-0.039,0-0.077,0-0.115c0.14,0,0.28,0,0.419,0c0-0.038,0-0.076,0-0.114c0.14,0,0.28,0,0.419,0c0-0.039,0-0.077,0-0.115
		c0.14,0,0.28,0,0.419,0c0-0.038,0-0.077,0-0.114c0.105,0,0.21,0,0.315,0c0-0.039,0-0.077,0-0.115c0.104,0,0.209,0,0.314,0
		c0-0.038,0-0.076,0-0.114c0.175-0.039,0.349-0.077,0.524-0.115c0-0.038,0-0.076,0-0.115c0.07,0,0.14,0,0.209,0
		c0-0.038,0-0.075,0-0.114c0.105,0,0.209,0,0.315,0c0-0.038,0-0.076,0-0.115c0.139-0.038,0.279-0.076,0.419-0.114
		c0-0.038,0-0.077,0-0.114c0.139-0.039,0.279-0.077,0.419-0.115c0.035-0.076,0.069-0.153,0.104-0.23
		c0.14-0.037,0.279-0.076,0.419-0.114c0-0.038,0-0.076,0-0.114c0.105-0.038,0.209-0.077,0.314-0.115
		c0.035-0.077,0.069-0.153,0.104-0.229c0.07,0,0.14,0,0.209,0c0.035-0.076,0.07-0.153,0.105-0.229c0.07,0,0.14,0,0.209,0
		c0.174-0.23,0.349-0.459,0.524-0.688c0.069,0,0.14,0,0.209,0c0-0.038,0-0.077,0-0.115c0.104-0.076,0.209-0.153,0.314-0.229
		c0-0.076,0-0.152,0-0.229c0.07-0.038,0.14-0.077,0.209-0.115c0.258-0.301,0.641-0.805,0.734-1.263c0.069,0,0.139,0,0.209,0
		c0.035,0.115,0.069,0.229,0.104,0.345c0.035,0,0.07,0,0.105,0c0.035,0.115,0.07,0.229,0.104,0.345
		c0.105,0.076,0.209,0.152,0.314,0.229c0,0.076,0,0.153,0,0.229c0.07,0.038,0.14,0.076,0.209,0.114c0,0.038,0,0.077,0,0.115
		c0.245,0.229,0.489,0.459,0.733,0.688c0.07,0.115,0.14,0.229,0.21,0.344c0.069,0,0.14,0,0.209,0c0.069,0.115,0.14,0.23,0.209,0.346
		c0.069,0,0.14,0,0.209,0c0.069,0.114,0.14,0.229,0.209,0.344c0.07,0,0.14,0,0.209,0c0,0.038,0,0.077,0,0.115
		c0.069,0,0.14,0,0.209,0c0.035,0.076,0.07,0.152,0.104,0.229c0.21,0.077,0.419,0.154,0.629,0.23
		c0.035,0.076,0.07,0.152,0.105,0.229c0.104,0,0.209,0,0.314,0c0,0.038,0,0.076,0,0.114c0.07,0,0.14,0,0.209,0
		c0,0.039,0,0.077,0,0.115c0.14,0.039,0.28,0.076,0.419,0.114c0,0.039,0,0.077,0,0.115c0.209,0.038,0.419,0.076,0.628,0.115
		c1.659,0.782,4.402,1.28,6.496,0.573c0.175,0,0.35,0,0.524,0c0-0.038,0-0.076,0-0.114c0.244-0.039,0.489-0.077,0.734-0.115
		c0-0.038,0-0.077,0-0.115c0.104,0,0.209,0,0.313,0c0-0.038,0-0.076,0-0.114c0.105,0,0.209,0,0.315,0c0-0.038,0-0.076,0-0.114
		c0.104,0,0.209,0,0.314,0c0-0.039,0-0.077,0-0.115c0.07,0,0.14,0,0.209,0c0-0.038,0-0.076,0-0.115c0.105,0,0.21,0,0.314,0
		c0-0.038,0-0.075,0-0.114c0.253-0.135,0.563-0.279,0.838-0.344c0,1.07,0,2.143,0,3.213c-0.698,0.269-1.396,0.536-2.095,0.804
		c-0.175,0-0.35,0-0.524,0c0,0.038,0,0.076,0,0.114c-0.139,0-0.279,0-0.419,0c0,0.039,0,0.077,0,0.115c-0.209,0-0.419,0-0.629,0
		c0,0.039,0,0.077,0,0.114c-0.244,0-0.489,0-0.733,0c0,0.039,0,0.077,0,0.115c-0.664,0-1.327,0-1.991,0
		c-1.681,0-3.087-0.396-4.295-0.918c-0.314-0.076-0.629-0.153-0.942-0.229c0-0.038,0-0.077,0-0.115
		c-0.14-0.038-0.28-0.076-0.419-0.114c0-0.039,0-0.077,0-0.115c-0.105,0-0.209,0-0.314,0c0-0.038,0-0.076,0-0.114
		c-0.209-0.077-0.419-0.153-0.629-0.23c0-0.038,0-0.076,0-0.114c-0.139-0.038-0.279-0.076-0.419-0.114
		c-0.035-0.077-0.07-0.154-0.104-0.23c-0.14-0.038-0.28-0.076-0.419-0.114c-0.035-0.076-0.069-0.153-0.105-0.229
		c-0.069,0-0.139,0-0.209,0c-0.035-0.076-0.07-0.153-0.105-0.229c-0.069,0-0.14,0-0.209,0c-0.035-0.076-0.07-0.153-0.104-0.229
		c-0.07,0-0.14,0-0.209,0c-0.035-0.076-0.07-0.153-0.105-0.229c-0.104-0.038-0.21-0.077-0.314-0.115c0-0.038,0-0.077,0-0.114
		c-0.156-0.135-0.187-0.159-0.419-0.229c-0.105,0.152-0.209,0.306-0.314,0.459c-0.07,0-0.14,0-0.209,0
		c-0.07,0.114-0.14,0.229-0.209,0.344c-0.07,0-0.14,0-0.21,0c-0.035,0.077-0.069,0.153-0.104,0.229
		c-0.105,0.039-0.209,0.076-0.314,0.115c0,0.038,0,0.076,0,0.114c-0.07,0-0.139,0-0.209,0c0,0.039,0,0.077,0,0.115
		c-0.07,0-0.139,0-0.209,0c-0.035,0.076-0.07,0.153-0.104,0.229c-0.209,0.076-0.419,0.153-0.628,0.229
		c-2.475,1.446-6.75,2.754-10.373,1.492c-0.175,0-0.349,0-0.523,0c0-0.039,0-0.076,0-0.115c-0.105,0-0.209,0-0.315,0
		c0-0.037,0-0.076,0-0.114c-0.349-0.076-0.698-0.153-1.047-0.229c0-0.039,0-0.076,0-0.115c-0.07,0-0.14,0-0.209,0
		c0-0.038,0-0.076,0-0.114c-0.104,0-0.209,0-0.314,0c0-0.038,0-0.077,0-0.115c-0.07,0-0.14,0-0.209,0c0-0.038,0-0.076,0-0.114
		c-0.104,0-0.209,0-0.314,0c0-0.039,0-0.077,0-0.115c-0.209-0.076-0.419-0.153-0.628-0.229c0-0.038,0-0.076,0-0.115
		c-0.07,0-0.14,0-0.209,0c0-0.038,0-0.076,0-0.114c-0.209-0.076-0.419-0.153-0.628-0.229c-0.035-0.076-0.07-0.153-0.105-0.229
		c-0.14-0.038-0.279-0.076-0.419-0.115c-0.035-0.076-0.07-0.152-0.104-0.229c-0.07,0-0.14,0-0.209,0
		c-0.035-0.077-0.07-0.153-0.105-0.23c-0.07,0-0.139,0-0.209,0c-0.035-0.076-0.07-0.153-0.104-0.229
		c-0.105-0.038-0.209-0.076-0.314-0.114c0-0.038,0-0.077,0-0.115c-0.183-0.165-0.253-0.263-0.524-0.344
		c-0.204,0.368-0.513,0.448-0.838,0.688c-0.035,0.076-0.07,0.153-0.104,0.229c-0.07,0-0.14,0-0.209,0
		c-0.035,0.076-0.07,0.153-0.105,0.229c-0.07,0-0.14,0-0.21,0c-0.035,0.076-0.069,0.153-0.104,0.229
		c-0.14,0.038-0.28,0.076-0.419,0.114c-0.035,0.076-0.07,0.153-0.105,0.23c-0.139,0.038-0.279,0.076-0.419,0.114
		c0,0.038,0,0.076,0,0.114c-0.209,0.077-0.418,0.153-0.628,0.23c0,0.038,0,0.076,0,0.114c-0.104,0-0.209,0-0.314,0
		c0,0.038,0,0.076,0,0.115c-0.14,0.038-0.279,0.076-0.419,0.114c0,0.038,0,0.077,0,0.115c-0.209,0.038-0.419,0.076-0.629,0.114
		c0,0.039,0,0.076,0,0.115c-0.104,0-0.209,0-0.313,0c0,0.038,0,0.076,0,0.114c-0.105,0-0.209,0-0.315,0c0,0.039,0,0.077,0,0.115
		c-0.104,0-0.209,0-0.314,0c0,0.038,0,0.077,0,0.114c-0.279,0.039-0.559,0.076-0.838,0.115c0,0.038,0,0.076,0,0.114
		c-0.174,0-0.349,0-0.523,0c0,0.039,0,0.077,0,0.115c-0.175,0-0.35,0-0.524,0c0,0.039,0,0.077,0,0.114c-0.279,0-0.558,0-0.838,0
		c-0.365,0.114-2.43,0.271-2.933,0.115c0-0.038,0-0.076,0-0.115c-0.28,0-0.559,0-0.838,0c0-0.037,0-0.075,0-0.114
		c-0.175,0-0.349,0-0.524,0c0-0.038,0-0.076,0-0.115c-0.174,0-0.349,0-0.524,0c0-0.038,0-0.076,0-0.114c-0.14,0-0.279,0-0.419,0
		c-0.698-0.268-1.397-0.535-2.096-0.804c0-1.07,0-2.143,0-3.213c0.278,0.067,0.582,0.207,0.838,0.344c0,0.039,0,0.076,0,0.114
		c0.105,0,0.209,0,0.314,0c0,0.039,0,0.077,0,0.115c0.07,0,0.139,0,0.21,0c0,0.038,0,0.076,0,0.115c0.104,0,0.209,0,0.313,0
		c0,0.038,0,0.076,0,0.114c0.105,0,0.21,0,0.315,0c0,0.038,0,0.076,0,0.115c0.104,0,0.209,0,0.314,0c0,0.037,0,0.076,0,0.114
		c0.105,0,0.209,0,0.314,0c0,0.038,0,0.076,0,0.115c0.14,0,0.279,0,0.419,0c0,0.038,0,0.076,0,0.114c0.175,0,0.349,0,0.524,0
		c0,0.038,0,0.076,0,0.115c0.175,0,0.349,0,0.524,0c0,0.038,0,0.076,0,0.114c0.279,0,0.559,0,0.838,0c0,0.038,0,0.077,0,0.115
		c0.645,0.196,2.294-0.093,2.724-0.229c0.209,0,0.419,0,0.629,0c0-0.039,0-0.077,0-0.115c0.279-0.038,0.558-0.076,0.838-0.114
		c0-0.039,0-0.077,0-0.115c0.104,0,0.209,0,0.314,0c0-0.038,0-0.077,0-0.114c0.104,0,0.21,0,0.314,0c0-0.039,0-0.077,0-0.115
		c0.105,0,0.209,0,0.314,0c0-0.038,0-0.076,0-0.114c0.209-0.039,0.419-0.077,0.629-0.115c0-0.038,0-0.076,0-0.115
		c0.139-0.038,0.279-0.075,0.419-0.114c0-0.038,0-0.076,0-0.115c0.069,0,0.139,0,0.209,0c0-0.038,0-0.076,0-0.114
		c0.104,0,0.209,0,0.314,0c0.035-0.077,0.07-0.153,0.105-0.229c0.069,0,0.139,0,0.209,0c0-0.038,0-0.076,0-0.115
		c0.209-0.076,0.418-0.152,0.628-0.229c0.035-0.076,0.069-0.152,0.104-0.229c0.07,0,0.14,0,0.209,0
		c0.07-0.114,0.14-0.229,0.209-0.344c0.07,0,0.14,0,0.209,0c0.07-0.115,0.14-0.23,0.21-0.346c0.069,0,0.139,0,0.209,0
		c0.174-0.229,0.349-0.458,0.524-0.688C255.802,539.451,256.487,538.88,256.648,538.18z"/>
</g>
<g id="paw4">
</g>
<g id="paw3">
</g>
<g id="paw2">
</g>
</svg>
