<?xml version="1.0" encoding="utf-8"?>
<!-- Generator: Adobe Illustrator 16.0.0, SVG Export Plug-In . SVG Version: 6.00 Build 0)  -->
<!DOCTYPE svg PUBLIC "-//W3C//DTD SVG 1.1//EN" "http://www.w3.org/Graphics/SVG/1.1/DTD/svg11.dtd">
<svg version="1.1" xmlns="http://www.w3.org/2000/svg" xmlns:xlink="http://www.w3.org/1999/xlink" x="0px" y="0px" width="1000px"
	 height="318.645px" viewBox="0 0 1000 318.645" style="enable-background:new 0 0 1000 318.645;" xml:space="preserve">
<style type="text/css">
<![CDATA[
	.st0{fill:none;stroke:#000000;stroke-width:9;stroke-miterlimit:10;}
	.st1{font-family:'MyriadPro-Regular';}
	.st2{display:inline;fill:#FFFFFF;stroke:#000000;stroke-width:9;stroke-miterlimit:10;}
	.st3{display:inline;fill:none;stroke:#000000;stroke-width:11;stroke-miterlimit:10;}
	.st4{font-size:120;}
	.st5{fill:#FFFFFF;stroke:#000000;stroke-width:9;stroke-miterlimit:10;}
	.st6{display:inline;}
	.st7{fill:#FFFFFF;stroke:#000000;stroke-width:13;stroke-miterlimit:10;}
	.st8{display:none;}
]]>
</style>
<g id="Layer_2" class="st8">
	<circle class="st2" cx="481.527" cy="-80.389" r="171.545"/>
	<circle class="st2" cx="479.586" cy="-78.496" r="146.293"/>
	<g id="Layer_1" class="st6">
		<line class="st5" x1="482.273" y1="-76.682" x2="517.726" y2="166.511"/>
		<line class="st5" x1="481.527" y1="-80.389" x2="656.473" y2="92.22"/>
		<line class="st5" x1="479.586" y1="-78.496" x2="332.413" y2="118.328"/>
		<line class="st0" x1="332.413" y1="118.328" x2="524.065" y2="165.417"/>
		<line class="st0" x1="522.121" y1="161.783" x2="662.813" y2="91.156"/>
	</g>
	<text transform="matrix(0.0041 1 1 -0.0041 479.5864 326.7344)" class="st6 st1 st4">&gt;</text>
	<text transform="matrix(0.0041 -1 1 0.0041 479.5864 383.7344)" class="st6 st1 st4">&gt;</text>
	<circle class="st3" cx="446.712" cy="355" r="74.576"/>
</g>
<g id="Layer_3">
	<circle class="st7" cx="158.759" cy="147.719" r="122.034"/>
	<g>
		<path d="M85.649,222.682l2.765-19.037H79.8v-9.785h10.316l1.702-11.911h-9.04v-9.891h10.529l2.659-18.505h9.465l-2.659,18.505
			h9.678l2.766-18.505h9.465l-2.765,18.505h8.508v9.891h-9.997l-1.702,11.911h8.828v9.785H117.13l-2.659,19.037h-9.572l2.659-19.037
			H97.88l-2.659,19.037H85.649z M109.26,193.859l1.702-11.911h-9.678l-1.702,11.911H109.26z"/>
	</g>
	<g>
		<path d="M395.629,123.144c-5.721-1.999-10.14-4.639-13.26-7.92l3.48-6.84c3.039,3.042,7.08,5.501,12.12,7.38
			c5.04,1.881,10.239,2.82,15.6,2.82c7.519,0,13.159-1.38,16.92-4.14c3.76-2.76,5.64-6.339,5.64-10.74c0-3.36-1.02-6.039-3.06-8.04
			c-2.04-1.999-4.541-3.54-7.5-4.62c-2.96-1.08-7.08-2.259-12.36-3.54c-6.321-1.6-11.361-3.139-15.12-4.62
			c-3.761-1.479-6.98-3.739-9.66-6.78c-2.682-3.04-4.02-7.159-4.02-12.36c0-4.239,1.119-8.1,3.36-11.58
			c2.239-3.48,5.679-6.259,10.32-8.34c4.639-2.079,10.399-3.12,17.28-3.12c4.8,0,9.499,0.66,14.1,1.98
			c4.599,1.32,8.58,3.141,11.94,5.46l-3,7.08c-3.521-2.319-7.281-4.059-11.28-5.22c-4.001-1.159-7.92-1.74-11.76-1.74
			c-7.361,0-12.9,1.421-16.62,4.26c-3.72,2.84-5.58,6.5-5.58,10.98c0,3.36,1.02,6.06,3.06,8.1s4.6,3.6,7.68,4.68
			c3.079,1.08,7.219,2.261,12.42,3.54c6.159,1.521,11.139,3.021,14.94,4.5c3.799,1.481,7.02,3.72,9.66,6.72
			c2.64,3,3.96,7.061,3.96,12.18c0,4.241-1.14,8.1-3.42,11.58c-2.28,3.48-5.781,6.24-10.5,8.28c-4.722,2.04-10.521,3.06-17.4,3.06
			C407.329,126.144,401.348,125.145,395.629,123.144z"/>
		<path d="M534.408,41.424v84h-8.76v-38.76h-52.561v38.76h-8.88v-84h8.88v37.44h52.561v-37.44H534.408z"/>
		<path d="M561.766,41.424h8.88v84h-8.88V41.424z"/>
		<path d="M668.205,41.424v84h-7.32l-54-68.16v68.16h-8.88v-84h7.32l54.12,68.16v-68.16H668.205z"/>
		<path d="M754.964,117.744v7.68h-59.4v-84h57.601v7.68h-48.721v29.88h43.44v7.56h-43.44v31.2H754.964z"/>
		<path d="M390.409,185.424h34.2c8.88,0,16.72,1.781,23.52,5.34c6.799,3.561,12.079,8.52,15.84,14.88
			c3.759,6.36,5.64,13.62,5.64,21.78s-1.88,15.42-5.64,21.78c-3.762,6.359-9.042,11.321-15.84,14.88
			c-6.8,3.561-14.64,5.34-23.52,5.34h-34.2V185.424z M424.129,261.744c7.359,0,13.8-1.459,19.32-4.38
			c5.52-2.92,9.798-6.96,12.84-12.12c3.04-5.16,4.56-11.101,4.56-17.82s-1.521-12.66-4.56-17.82c-3.042-5.16-7.32-9.198-12.84-12.12
			c-5.52-2.919-11.961-4.38-19.32-4.38h-24.84v68.64H424.129z"/>
		<path d="M548.928,261.744v7.68h-59.4v-84h57.6v7.68h-48.72v29.879h43.44v7.561h-43.44v31.2H548.928z"/>
		<path d="M575.027,267.144c-5.721-1.998-10.141-4.639-13.261-7.92l3.48-6.84c3.039,3.041,7.08,5.501,12.12,7.38
			c5.04,1.881,10.239,2.82,15.6,2.82c7.519,0,13.159-1.38,16.92-4.141c3.76-2.76,5.641-6.339,5.641-10.739
			c0-3.36-1.021-6.04-3.061-8.04c-2.04-1.999-4.541-3.54-7.5-4.62c-2.961-1.08-7.08-2.26-12.359-3.54
			c-6.321-1.6-11.361-3.139-15.12-4.62c-3.762-1.479-6.981-3.738-9.66-6.78c-2.682-3.039-4.021-7.158-4.021-12.359
			c0-4.239,1.12-8.101,3.36-11.58c2.238-3.48,5.68-6.259,10.32-8.34c4.639-2.079,10.398-3.12,17.279-3.12
			c4.801,0,9.499,0.66,14.101,1.98c4.6,1.32,8.58,3.141,11.939,5.46l-3,7.08c-3.521-2.319-7.28-4.059-11.279-5.22
			c-4.002-1.159-7.92-1.74-11.761-1.74c-7.361,0-12.899,1.421-16.62,4.26c-3.72,2.84-5.579,6.5-5.579,10.98
			c0,3.36,1.02,6.06,3.06,8.1s4.6,3.601,7.68,4.681c3.079,1.08,7.219,2.261,12.42,3.54c6.16,1.521,11.14,3.021,14.94,4.5
			c3.799,1.48,7.02,3.72,9.66,6.72c2.64,3,3.96,7.062,3.96,12.18c0,4.241-1.141,8.101-3.42,11.58c-2.28,3.48-5.781,6.24-10.5,8.28
			c-4.722,2.04-10.521,3.06-17.4,3.06C586.727,270.144,580.746,269.145,575.027,267.144z"/>
		<path d="M643.605,185.424h8.88v84h-8.88V185.424z"/>
		<path d="M739.004,227.424h8.521v32.04c-3.921,3.44-8.562,6.081-13.92,7.92c-5.361,1.841-11.001,2.76-16.921,2.76
			c-8.399,0-15.96-1.839-22.68-5.52c-6.72-3.679-12-8.779-15.84-15.3c-3.84-6.52-5.76-13.819-5.76-21.9
			c0-8.079,1.92-15.379,5.76-21.9c3.84-6.52,9.12-11.619,15.84-15.3c6.72-3.679,14.319-5.52,22.8-5.52
			c6.399,0,12.279,1.02,17.641,3.06c5.358,2.04,9.879,5.061,13.56,9.06l-5.52,5.64c-6.642-6.559-15.081-9.84-25.32-9.84
			c-6.801,0-12.941,1.5-18.42,4.5c-5.48,3-9.78,7.16-12.9,12.479c-3.12,5.321-4.68,11.262-4.68,17.82c0,6.561,1.56,12.48,4.68,17.76
			c3.12,5.28,7.399,9.44,12.84,12.48c5.439,3.041,11.56,4.56,18.36,4.56c8.64,0,15.96-2.16,21.96-6.479V227.424z"/>
		<path d="M842.803,185.424v84h-7.32l-54-68.16v68.16h-8.88v-84h7.32l54.12,68.16v-68.16H842.803z"/>
		<path d="M875.382,267.144c-5.721-1.998-10.141-4.639-13.261-7.92l3.48-6.84c3.039,3.041,7.08,5.501,12.12,7.38
			c5.04,1.881,10.239,2.82,15.6,2.82c7.519,0,13.159-1.38,16.92-4.141c3.76-2.76,5.641-6.339,5.641-10.739
			c0-3.36-1.021-6.04-3.061-8.04c-2.04-1.999-4.541-3.54-7.5-4.62c-2.961-1.08-7.08-2.26-12.359-3.54
			c-6.321-1.6-11.361-3.139-15.12-4.62c-3.762-1.479-6.981-3.738-9.66-6.78c-2.682-3.039-4.021-7.158-4.021-12.359
			c0-4.239,1.12-8.101,3.36-11.58c2.238-3.48,5.68-6.259,10.32-8.34c4.639-2.079,10.398-3.12,17.279-3.12
			c4.801,0,9.499,0.66,14.101,1.98c4.6,1.32,8.58,3.141,11.939,5.46l-3,7.08c-3.521-2.319-7.28-4.059-11.279-5.22
			c-4.002-1.159-7.92-1.74-11.761-1.74c-7.361,0-12.899,1.421-16.62,4.26c-3.72,2.84-5.579,6.5-5.579,10.98
			c0,3.36,1.02,6.06,3.06,8.1s4.6,3.601,7.68,4.681c3.079,1.08,7.219,2.261,12.42,3.54c6.16,1.521,11.14,3.021,14.94,4.5
			c3.799,1.48,7.02,3.72,9.66,6.72c2.64,3,3.96,7.062,3.96,12.18c0,4.241-1.141,8.101-3.42,11.58c-2.28,3.48-5.781,6.24-10.5,8.28
			c-4.722,2.04-10.521,3.06-17.4,3.06C887.081,270.144,881.101,269.145,875.382,267.144z"/>
	</g>
	<g>
		<path d="M936.186,306.133c11.799-20.203,20.498-41.85,26.1-64.949c5.598-23.1,8.4-48.249,8.4-75.451
			c0-27.196-2.803-52.35-8.4-75.45c-5.602-23.1-14.301-44.746-26.1-64.949h20.4c11.198,18,19.847,39.051,25.949,63.149
			c6.099,24.104,9.15,49.852,9.15,77.25c0,27.403-3,53.101-9,77.101s-14.7,45.098-26.1,63.299H936.186z"/>
	</g>
	<g>
		<path d="M287.186,298.133c11.799-20.203,20.498-41.85,26.1-64.949c5.598-23.1,8.4-48.249,8.4-75.451
			c0-27.196-2.803-52.35-8.4-75.45c-5.602-23.1-14.301-44.746-26.1-64.949h20.4c11.198,18,19.847,39.051,25.949,63.149
			c6.099,24.104,9.15,49.852,9.15,77.25c0,27.403-3,53.101-9,77.101s-14.7,45.098-26.1,63.299H287.186z"/>
	</g>
</g>
</svg>
