<?xml version="1.0" encoding="utf-8"?>
<!-- Generator: Adobe Illustrator 16.0.0, SVG Export Plug-In . SVG Version: 6.00 Build 0)  -->
<!DOCTYPE svg PUBLIC "-//W3C//DTD SVG 1.1//EN" "http://www.w3.org/Graphics/SVG/1.1/DTD/svg11.dtd">
<svg version="1.1" xmlns="http://www.w3.org/2000/svg" xmlns:xlink="http://www.w3.org/1999/xlink" x="0px" y="0px" width="1000px"
	 height="318.645px" viewBox="0 0 1000 318.645" style="enable-background:new 0 0 1000 318.645;" xml:space="preserve">
<style type="text/css">
<![CDATA[
	.st0{fill:none;stroke:#000000;stroke-width:9;stroke-miterlimit:10;}
	.st1{font-family:'MyriadPro-Regular';}
	.st2{display:inline;fill:#FFFFFF;stroke:#000000;stroke-width:9;stroke-miterlimit:10;}
	.st3{display:inline;fill:none;stroke:#000000;stroke-width:11;stroke-miterlimit:10;}
	.st4{font-size:120;}
	.st5{font-size:300;}
	.st6{fill:#FFFFFF;stroke:#000000;stroke-width:9;stroke-miterlimit:10;}
	.st7{display:inline;}
	.st8{font-family:'Montserrat-Regular';}
	.st9{fill:#FFFFFF;stroke:#000000;stroke-width:13;stroke-miterlimit:10;}
	.st10{font-size:106.3596;}
	.st11{display:none;}
	.st12{font-family:'MyriadPro-Bold';}
]]>
</style>
<g id="Layer_2" class="st11">
	<circle class="st2" cx="481.527" cy="-80.389" r="171.545"/>
	<circle class="st2" cx="479.586" cy="-78.496" r="146.293"/>
	<g id="Layer_1" class="st7">
		<line class="st6" x1="482.273" y1="-76.682" x2="517.726" y2="166.511"/>
		<line class="st6" x1="481.527" y1="-80.389" x2="656.473" y2="92.22"/>
		<line class="st6" x1="479.586" y1="-78.496" x2="332.413" y2="118.328"/>
		<line class="st0" x1="332.413" y1="118.328" x2="524.065" y2="165.417"/>
		<line class="st0" x1="522.121" y1="161.783" x2="662.813" y2="91.156"/>
	</g>
	<text transform="matrix(0.0041 1 1 -0.0041 479.5864 326.7344)" class="st7 st1 st4">&gt;</text>
	<text transform="matrix(0.0041 -1 1 0.0041 479.5864 383.7344)" class="st7 st1 st4">&gt;</text>
	<circle class="st3" cx="446.712" cy="355" r="74.576"/>
</g>
<g id="Layer_3">
	<circle class="st9" cx="158.759" cy="147.719" r="122.034"/>
	<text transform="matrix(1 0 0 1 75.8647 222.6816)" class="st12 st10">#</text>
	<text transform="matrix(1 0 0 1 376.729 125.4238)"><tspan x="0" y="0" class="st8 st4">SHINE </tspan><tspan x="0" y="144" class="st8 st4">DESIGNS</tspan></text>
	<text transform="matrix(1 0 0 1 924.1855 247.9336)" class="st8 st5">)</text>
	<text transform="matrix(1 0 0 1 275.1855 239.9336)" class="st8 st5">)</text>
</g>
</svg>
