<?xml version="1.0" encoding="utf-8"?>
<!-- Generator: Adobe Illustrator 16.0.0, SVG Export Plug-In . SVG Version: 6.00 Build 0)  -->
<!DOCTYPE svg PUBLIC "-//W3C//DTD SVG 1.1//EN" "http://www.w3.org/Graphics/SVG/1.1/DTD/svg11.dtd">
<svg version="1.1" id="Lager_1" xmlns="http://www.w3.org/2000/svg" xmlns:xlink="http://www.w3.org/1999/xlink" x="0px" y="0px"
	 width="138px" height="125.382px" viewBox="430.5 432.5 138 125.382" enable-background="new 430.5 432.5 138 125.382"
	 xml:space="preserve">
<g>
	<g>
		<g>
			<g>
				<circle fill="#FFFFFF" stroke="#000000" stroke-width="7" stroke-miterlimit="10" cx="500" cy="500" r="57.882"/>
			</g>
		</g>
	</g>
</g>
<g>
	<circle cx="500" cy="499.885" r="6.367"/>
	<path d="M531.951,493.633c-2.2-1.852-5.325-3.473-9.029-4.746c-0.695-0.231-1.506-0.463-2.315-0.694
		c0.115-0.579,0.231-1.042,0.347-1.621c1.736-8.566,0.463-15.281-3.241-17.48c-1.853-1.042-4.399-1.042-7.293,0
		c-2.663,1.042-5.673,2.894-8.566,5.441c-0.579,0.463-1.158,1.042-1.737,1.621c-0.347-0.347-0.81-0.694-1.158-1.042
		c-6.483-5.788-12.965-8.104-16.786-5.904c-1.853,1.042-3.125,3.242-3.705,6.367c-0.463,2.778-0.347,6.367,0.463,10.187
		c0.116,0.811,0.348,1.505,0.579,2.315c-0.926,0.231-1.852,0.579-2.663,0.811c-7.756,2.663-12.387,6.83-12.387,10.998
		c0,2.2,1.273,4.515,3.704,6.483c2.315,1.968,5.557,3.704,9.262,4.978c0.579,0.231,1.273,0.464,1.968,0.579
		c-0.231,0.811-0.347,1.736-0.579,2.547c-1.505,7.987-0.232,14.123,3.357,16.207c0.926,0.578,2.083,0.811,3.357,0.811
		s2.663-0.232,4.167-0.811c2.895-1.042,5.904-2.895,8.914-5.557c0.463-0.464,1.042-0.927,1.505-1.39
		c0.695,0.579,1.273,1.158,1.968,1.736c4.515,3.937,8.913,6.021,12.387,6.021c1.273,0,2.431-0.232,3.357-0.811
		c1.852-1.158,3.241-3.357,3.82-6.483c0.578-3.01,0.463-6.599-0.348-10.534c-0.115-0.579-0.231-1.273-0.463-1.852
		c0.463-0.116,0.926-0.232,1.273-0.464c8.335-2.778,13.429-7.177,13.429-11.576C535.54,497.801,534.266,495.601,531.951,493.633z
		 M511.461,471.985c2.084-0.694,3.704-0.81,4.746-0.231c2.084,1.158,3.473,6.136,1.852,14.239c-0.115,0.463-0.23,0.926-0.347,1.389
		c-3.01-0.695-6.136-1.158-9.493-1.505c-1.967-2.778-3.936-5.325-6.02-7.524c0.579-0.579,1.042-1.042,1.621-1.505
		C506.482,474.532,509.145,472.911,511.461,471.985z M509.956,505.788c-1.158,1.968-2.2,3.82-3.357,5.441
		c-2.084,0.115-4.283,0.231-6.483,0.231s-4.399-0.116-6.483-0.231c-1.158-1.736-2.431-3.589-3.473-5.557
		c-1.158-1.853-2.084-3.82-3.01-5.789c0.926-1.968,1.968-3.82,3.01-5.673l0,0c1.157-1.852,2.315-3.704,3.473-5.557
		c2.084-0.116,4.283-0.231,6.483-0.231s4.399,0.116,6.483,0.231c1.157,1.737,2.315,3.589,3.473,5.441
		c1.158,1.968,2.2,3.82,3.126,5.672C512.039,501.853,511.113,503.821,509.956,505.788z M514.586,503.473
		c0.927,2.2,1.736,4.283,2.432,6.252c-2.084,0.463-4.283,0.81-6.599,1.157c0.694-1.157,1.505-2.431,2.199-3.589
		C513.312,506.02,514.008,504.746,514.586,503.473z M500.115,519.565c-1.389-1.506-2.894-3.242-4.283-5.094
		c1.389,0,2.778,0.115,4.167,0.115c1.505,0,2.895,0,4.283-0.115C502.894,516.323,501.505,518.059,500.115,519.565z M489.697,510.882
		c-2.315-0.231-4.515-0.579-6.599-1.042c0.579-2.084,1.389-4.167,2.315-6.251c0.695,1.273,1.273,2.431,1.968,3.704
		C488.192,508.567,488.886,509.725,489.697,510.882z M487.497,492.707c-0.695,1.273-1.389,2.431-1.968,3.704
		c-0.926-2.083-1.621-4.167-2.315-6.135c2.083-0.463,4.167-0.811,6.482-1.158C488.886,490.276,488.192,491.55,487.497,492.707z
		 M500,480.552c1.389,1.505,2.778,3.241,4.168,5.094c-1.39-0.116-2.779-0.116-4.284-0.116c-1.389,0-2.778,0-4.167,0.116
		C497.221,483.793,498.611,482.057,500,480.552z M512.502,492.707c-0.693-1.273-1.389-2.431-2.199-3.589
		c2.315,0.231,4.399,0.695,6.483,1.158c-0.579,1.968-1.39,4.052-2.315,6.135C514.008,495.254,513.312,493.981,512.502,492.707z
		 M481.825,485.182c-0.695-3.473-0.811-6.599-0.348-9.03c0.348-2.083,1.158-3.588,2.2-4.283c2.084-1.157,7.062,0,13.197,5.557
		c0.348,0.347,0.695,0.694,1.042,1.042c-2.083,2.2-4.052,4.747-6.02,7.525c-3.357,0.347-6.599,0.81-9.493,1.505
		C482.172,486.572,482.056,485.877,481.825,485.182z M478.468,508.567c-7.525-2.547-10.998-6.251-10.998-8.682
		c0-2.315,3.241-5.672,10.303-8.104c0.81-0.231,1.621-0.579,2.431-0.81c0.926,2.894,2.083,5.903,3.473,9.029
		c-1.389,3.125-2.663,6.136-3.473,9.146C479.625,508.914,479.047,508.798,478.468,508.567z M485.529,528.594
		c-0.81,0-1.389-0.116-1.852-0.464c-1.968-1.157-3.357-5.557-1.852-12.965c0.116-0.811,0.347-1.505,0.463-2.315
		c2.894,0.695,6.136,1.158,9.608,1.389c1.968,2.779,4.052,5.326,6.135,7.525c-0.463,0.463-0.926,0.81-1.389,1.273
		C492.128,526.973,488.076,528.594,485.529,528.594z M518.291,514.355c1.505,7.757,0,12.618-1.969,13.776
		c-1.967,1.157-6.482,0.116-12.154-4.862c-0.579-0.463-1.158-1.042-1.736-1.62c1.968-2.2,4.051-4.747,6.02-7.525
		c3.473-0.347,6.714-0.811,9.608-1.505C518.058,513.198,518.175,513.777,518.291,514.355z M521.185,508.567
		c-0.348,0.115-0.811,0.231-1.158,0.348c-0.926-2.778-2.084-5.904-3.589-9.03c1.39-3.01,2.547-6.02,3.474-8.914
		c0.694,0.231,1.389,0.463,2.083,0.694c3.357,1.158,6.136,2.663,7.988,4.167c1.62,1.389,2.547,2.778,2.547,4.052
		C532.529,502.316,528.941,506.02,521.185,508.567z"/>
</g>
</svg>
