<?xml version="1.0" encoding="utf-8"?>
<!-- Generator: Adobe Illustrator 16.0.0, SVG Export Plug-In . SVG Version: 6.00 Build 0)  -->
<!DOCTYPE svg PUBLIC "-//W3C//DTD SVG 1.1//EN" "http://www.w3.org/Graphics/SVG/1.1/DTD/svg11.dtd">
<svg version="1.1" xmlns="http://www.w3.org/2000/svg" xmlns:xlink="http://www.w3.org/1999/xlink" x="0px" y="0px" width="136px"
	 height="559.5px" viewBox="750.5 0 136 559.5" style="enable-background:new 750.5 0 136 559.5;" xml:space="preserve">
<style type="text/css">
<![CDATA[
	.st0{display:inline;fill:none;stroke:#000000;stroke-miterlimit:10;}
	.st1{fill:none;stroke:#000000;stroke-width:3;stroke-miterlimit:10;}
	.st2{fill:none;stroke:#000000;stroke-width:2;stroke-miterlimit:10;}
	.st3{display:none;}
]]>
</style>
<script  id="script4044" xlink:href="https://cdnjs.cloudflare.com/ajax/libs/snap.svg/0.4.1/snap.svg.js"></script>

<g id="Layer_1">
	<g id="Layer_1_1_" class="st3">
		
			<image style="display:inline;overflow:visible;enable-background:new    ;" width="640" height="960" xlink:href="191d9288881ae1f0de71547d503a0112.jpg"  transform="matrix(0.72 0 0 0.72 269.9998 154.0002)">
		</image>
	</g>
	<g id="Layer_2" class="st3">
		<path class="st0" d="M576,408c-82.5-124-154,0-154,0"/>
		<path class="st0" d="M576,499.6c0,0,106-35.6,0-98.6"/>
	</g>
	<g id="Layer_3" class="st3">
	</g>
</g>
<g id="rocket">
	<path class="st1" d="M817.195,477.5c0,0-34.201,46.2-12.751,59.767h12.833"/>
	<path class="st1" d="M816.523,477.5c0,0,34.201,46.2,12.751,59.767h-12.833"/>
	<g id="Layer_3_1_">
		<circle class="st1" cx="816.808" cy="515.45" r="8.353"/>
		<polyline class="st1" points="813.01,538 808.117,544.234 816.842,544.234 		"/>
		<polyline class="st1" points="820.73,538 825.623,544.234 816.898,544.234 		"/>
		<line class="st1" x1="808.455" y1="547.533" x2="808.455" y2="554.867"/>
		<line class="st1" x1="817.195" y1="551.2" x2="817.195" y2="565.5"/>
		<line class="st1" x1="825.687" y1="547.533" x2="825.687" y2="554.867"/>
	</g>
</g>
<g id="smoke">
	<path class="st1" d="M842.5,538c0,0,6-20.5,18-8.5"/>
	<path class="st1" d="M857.833,529.925c0,0,1.128-16.717,20.314-7.042"/>
	<path class="st1" d="M791.148,538c0,0-6-20.5-18-8.5"/>
	<path class="st1" d="M775.815,529.925c0,0-1.128-16.717-20.314-7.042"/>
</g>
<g id="smallsmoke">
	<path class="st1" d="M754.658,559.5c0,0,8.139-23.449,25.49-7.149"/>
	<path class="st1" d="M774.815,546.234c0,0,9.989-16.56,25.685,2.354"/>
	<path class="st1" d="M880.5,559.5c0,0-8.139-23.449-25.49-7.149"/>
	<path class="st1" d="M860.343,546.234c0,0-9.989-16.56-25.685,2.354"/>
</g>
<g id="sbubble" style="opacity:0;">
	<path class="st1" d="M826.5,437.5c0,0,9-11,18,0"/>
	<path class="st1" d="M843.877,437.106c0,0,11.177,8.779,0.358,17.997"/>
	<path class="st1" d="M844.992,454.445c0,0-11.588,12.906-19.115-2.721"/>
	<path class="st1" d="M826.335,453.651c0,0-10.569-9.088,1.318-16.37"/>
	<path class="st2" d="M833.166,453.495c0,0,4.243,5.912,9.333,0"/>
	<path class="st2" d="M825.166,440.122c0,0,4.243-5.912,9.333,0"/>
</g>
<g id="sbubble2" style="opacity:0;">
	<path class="st1" d="M767.467,362.813c0,0,9-11,18,0"/>
	<path class="st1" d="M784.844,362.419c0,0,11.177,8.779,0.358,17.997"/>
	<path class="st1" d="M785.959,379.758c0,0-11.588,12.906-19.115-2.721"/>
	<path class="st1" d="M767.302,378.964c0,0-10.569-9.088,1.318-16.37"/>
	<path class="st2" d="M774.133,378.808c0,0,4.243,5.912,9.333,0"/>
	<path class="st2" d="M766.133,365.435c0,0,4.243-5.912,9.333,0"/>
</g>
<g id="sbubble3" style="opacity:0;">
	<path class="st1" d="M826.456,315.044c0,0,9-11,18,0"/>
	<path class="st1" d="M843.833,314.65c0,0,11.177,8.779,0.358,17.997"/>
	<path class="st1" d="M844.948,331.989c0,0-11.588,12.906-19.115-2.721"/>
	<path class="st1" d="M826.291,331.194c0,0-10.569-9.088,1.318-16.37"/>
	<path class="st2" d="M833.122,331.039c0,0,4.243,5.912,9.333,0"/>
	<path class="st2" d="M825.122,317.666c0,0,4.243-5.912,9.333,0"/>
</g>
<g id="sbubble4" style="opacity:0;">
	<path class="st1" d="M778.402,233.403c0,0,9-11,18,0"/>
	<path class="st1" d="M795.779,233.009c0,0,11.177,8.779,0.358,17.997"/>
	<path class="st1" d="M796.894,250.347c0,0-11.588,12.906-19.115-2.721"/>
	<path class="st1" d="M778.237,249.553c0,0-10.569-9.088,1.318-16.37"/>
	<path class="st2" d="M785.068,249.398c0,0,4.243,5.912,9.333,0"/>
	<path class="st2" d="M777.068,236.025c0,0,4.243-5.912,9.333,0"/>
</g>
<g id="sbubble5" style="opacity:0;">
	<path class="st1" d="M839.929,142.18c0,0,9-11,18,0"/>
	<path class="st1" d="M857.306,141.786c0,0,11.177,8.779,0.358,17.997"/>
	<path class="st1" d="M858.422,159.125c0,0-11.588,12.906-19.115-2.721"/>
	<path class="st1" d="M839.764,158.331c0,0-10.569-9.088,1.318-16.37"/>
	<path class="st2" d="M846.595,158.176c0,0,4.243,5.912,9.333,0"/>
	<path class="st2" d="M838.595,144.802c0,0,4.243-5.912,9.333,0"/>
</g>
<g id="sbubble6" style="opacity:0;">
	<path class="st1" d="M784.5,69.885c0,0,9-11,18,0"/>
	<path class="st1" d="M801.877,69.491c0,0,11.177,8.779,0.358,17.997"/>
	<path class="st1" d="M802.992,86.83c0,0-11.588,12.906-19.115-2.721"/>
	<path class="st1" d="M784.335,86.036c0,0-10.569-9.088,1.318-16.37"/>
	<path class="st2" d="M791.166,85.881c0,0,4.243,5.912,9.333,0"/>
	<path class="st2" d="M783.166,72.508c0,0,4.243-5.912,9.333,0"/>
</g>
<g id="sbubble7" style="opacity:0;">
	<path class="st1" d="M809.521,12.579c0,0,9-11,18,0"/>
	<path class="st1" d="M826.898,12.185c0,0,11.177,8.779,0.358,17.997"/>
	<path class="st1" d="M828.013,29.524c0,0-11.588,12.906-19.115-2.721"/>
	<path class="st1" d="M809.356,28.73c0,0-10.569-9.088,1.318-16.37"/>
	<path class="st2" d="M816.187,28.574c0,0,4.243,5.912,9.333,0"/>
	<path class="st2" d="M808.187,15.201c0,0,4.243-5.912,9.333,0"/>
</g>
<script  type="text/javascript" id="script4196">
		<![CDATA[

	var s = Snap("#rocket");
	var s2 = Snap("#smoke");
		var s3 = Snap("#smallsmoke");
		var s4 = Snap("#sbubble");
		var s5 = Snap("#sbubble2");
		var s6 = Snap("#sbubble3");
		var s7 = Snap("#sbubble4");
		var s8 = Snap("#sbubble5");

	var animating = false;
	//var matrix = s2.transform().localMatrix;
	console.log(s.attr(""))
	console.log(s)
//console.log(s2)
	//console.log(matrix)
	//console.log(matrix.toTransformString())
	//var tMatrix = matrix.toTransformString()
	/*s.attr({
    fill: "#fc0",
    stroke: "#000",
    strokeWidth: 8, // CamelCase...
    "fill-opacity": 0.5, // or dash-separated names
    width: "*=2" // prefixed values
});*/

var anim1 = function() {
    
	s2.animate({transform:"t293.2798,62.8417, r94.905,0,0"}, 200,anim3)
	
}
var anim3 = function(){
s.animate({ transform: 't0,-600' }, 7000)
//s.scale(2)
s2.animate({opacity: 0}, 500)
console.log("HERE")
setTimeout(function(){
s3.animate({opacity: 0}, 500)
//s4.animate({opacity: 1}, 500)

},500)
setTimeout(function(){

s4.animate({opacity: 1}, 500)

},1200)
setTimeout(function(){

s5.animate({opacity: 1}, 500)

},2000)
setTimeout(function(){

s5.animate({opacity: 0}, 500)

},3300)
setTimeout(function(){

s6.animate({opacity: 1}, 500)

},2500)
setTimeout(function(){

s6.animate({opacity: 0}, 500)

},3800)
setTimeout(function(){

s7.animate({opacity: 1}, 500)

},3000)
setTimeout(function(){

s7.animate({opacity: 0}, 500)

},4300)
setTimeout(function(){

s4.animate({opacity: 0}, 500)

},2500)
console.log("HERE")
}

var anim2 = function() {
    s.animate({ry: 6.268}, 200,function(){
	
	setTimeout(function(){
	anim3()
	},5000)

	})


}

if(animating == false){
anim3()
console.log(s.attr("rx"))
}


;


		
			]]>
	</script>
</svg>
