<?xml version="1.0" encoding="utf-8"?>
<!-- Generator: Adobe Illustrator 16.0.0, SVG Export Plug-In . SVG Version: 6.00 Build 0)  -->
<!DOCTYPE svg PUBLIC "-//W3C//DTD SVG 1.1//EN" "http://www.w3.org/Graphics/SVG/1.1/DTD/svg11.dtd">
<svg version="1.1" xmlns="http://www.w3.org/2000/svg" xmlns:xlink="http://www.w3.org/1999/xlink" x="0px" y="0px" width="136px"
	 height="559.5px" viewBox="750.5 0 136 559.5" style="enable-background:new 750.5 0 136 559.5;" xml:space="preserve">
<style type="text/css">
<![CDATA[
	.st0{fill:none;stroke:#000000;stroke-width:5;stroke-miterlimit:10;}
	.st1{display:inline;fill:none;stroke:#000000;stroke-miterlimit:10;}
	.st2{display:none;}
]]>
</style>
<script  id="script4044" xlink:href="https://cdnjs.cloudflare.com/ajax/libs/snap.svg/0.4.1/snap.svg.js"></script>

<g id="Layer_1">
	<g id="Layer_1_1_" class="st2">
		
			<image style="display:inline;overflow:visible;enable-background:new    ;" width="640" height="960" xlink:href="191d9288881ae1f0de71547d503a0112.jpg"  transform="matrix(0.72 0 0 0.72 269.9998 154.0002)">
		</image>
	</g>
	<g id="Layer_2" class="st2">
		<path class="st1" d="M576,408c-82.5-124-154,0-154,0"/>
		<path class="st1" d="M576,499.6c0,0,106-35.6,0-98.6"/>
	</g>
	<g id="Layer_3" class="st2">
	</g>
</g>
<g id="rocket">
	<path class="st0" d="M817.776,314.5c0,0-93.276,126-34.776,163h35"/>
	<path class="st0" d="M815.942,314.5c0,0,93.276,126,34.776,163h-35"/>
	<g id="Layer_3_1_">
		<circle class="st0" cx="816.719" cy="418" r="22.781"/>
		<polyline class="st0" points="806.359,479.5 793.017,496.5 816.811,496.5 		"/>
		<polyline class="st0" points="827.418,479.5 840.76,496.5 816.966,496.5 		"/>
		<line class="st0" x1="793.937" y1="505.5" x2="793.937" y2="525.5"/>
		<line class="st0" x1="817.776" y1="515.5" x2="817.776" y2="554.5"/>
		<line class="st0" x1="840.937" y1="505.5" x2="840.937" y2="525.5"/>
	</g>
</g>
<script  type="text/javascript" id="script4196">
		<![CDATA[

	var s = Snap("#rocket");
	//var s2 = Snap("#eli2");
	var animating = false;
	//var matrix = s2.transform().localMatrix;
	console.log(s.attr(""))
	console.log(s)
//console.log(s2)
	//console.log(matrix)
	//console.log(matrix.toTransformString())
	//var tMatrix = matrix.toTransformString()
	/*s.attr({
    fill: "#fc0",
    stroke: "#000",
    strokeWidth: 8, // CamelCase...
    "fill-opacity": 0.5, // or dash-separated names
    width: "*=2" // prefixed values
});*/

var anim1 = function() {
    
	s2.animate({transform:"t293.2798,62.8417, r94.905,0,0"}, 200,anim3)
	
}
var anim3 = function(){
s.animate({ transform: 't0,-600' }, 2000)
//s.scale(2)
//s2.animate({cx: 1}, 200,anim2)
console.log("HERE")
}

var anim2 = function() {
    s.animate({ry: 6.268}, 200,function(){
	
	setTimeout(function(){
	anim3()
	},5000)

	})


}

if(animating == false){
anim3()
console.log(s.attr("rx"))
}


;


		
			]]>
	</script>
</svg>
