<?xml version="1.0" encoding="utf-8"?>
<!-- Generator: Adobe Illustrator 16.0.0, SVG Export Plug-In . SVG Version: 6.00 Build 0)  -->
<!DOCTYPE svg PUBLIC "-//W3C//DTD SVG 1.1//EN" "http://www.w3.org/Graphics/SVG/1.1/DTD/svg11.dtd">
<svg version="1.1" id="Layer_1" xmlns="http://www.w3.org/2000/svg" xmlns:xlink="http://www.w3.org/1999/xlink" x="0px" y="0px"
	 viewBox="0 0 783 540" enable-background="new 0 0 783 540" xml:space="preserve">
<g id="Computer1_2_" opacity="0.6">
	<path fill="#FFFFFF" stroke="#010101" stroke-width="4" stroke-miterlimit="10" d="M87.743,211.55h226.438
		c0,0,22.645,0.629,22.645-22.015l-23.272-45.287V31.027c0-22.644-22.016-22.015-22.016-22.015H65.099
		c0,0-22.644-1.257-22.644,21.387v113.22l-22.644,45.288c0,0-11.321,22.645,22.644,22.645L87.743,211.55z"/>
	<polygon fill="none" stroke="#010101" stroke-width="3" stroke-miterlimit="10" points="291.538,144.876 65.099,144.876 
		42.455,200.229 314.182,200.229 	"/>
	<g>
		<line fill="none" stroke="#010101" stroke-width="3" stroke-miterlimit="10" x1="65.099" y1="156.198" x2="76.421" y2="156.198"/>
		<line fill="none" stroke="#010101" stroke-width="3" stroke-miterlimit="10" x1="87.743" y1="156.198" x2="99.065" y2="156.198"/>
		
			<line fill="none" stroke="#010101" stroke-width="3" stroke-miterlimit="10" x1="110.387" y1="156.198" x2="121.709" y2="156.198"/>
		
			<line fill="none" stroke="#010101" stroke-width="3" stroke-miterlimit="10" x1="133.03" y1="156.198" x2="144.353" y2="156.198"/>
		
			<line fill="none" stroke="#010101" stroke-width="3" stroke-miterlimit="10" x1="155.674" y1="156.198" x2="166.996" y2="156.198"/>
		
			<line fill="none" stroke="#010101" stroke-width="3" stroke-miterlimit="10" x1="178.318" y1="156.198" x2="189.641" y2="156.198"/>
		
			<line fill="none" stroke="#010101" stroke-width="3" stroke-miterlimit="10" x1="200.963" y1="156.198" x2="212.284" y2="156.198"/>
		
			<line fill="none" stroke="#010101" stroke-width="3" stroke-miterlimit="10" x1="223.606" y1="156.198" x2="234.928" y2="156.198"/>
		
			<line fill="none" stroke="#010101" stroke-width="3" stroke-miterlimit="10" x1="246.25" y1="156.198" x2="257.572" y2="156.198"/>
		
			<line fill="none" stroke="#010101" stroke-width="3" stroke-miterlimit="10" x1="268.895" y1="156.198" x2="280.217" y2="156.198"/>
	</g>
	<g>
		<line fill="none" stroke="#010101" stroke-width="3" stroke-miterlimit="10" x1="65.099" y1="172.552" x2="76.421" y2="172.552"/>
		<line fill="none" stroke="#010101" stroke-width="3" stroke-miterlimit="10" x1="87.743" y1="172.552" x2="99.065" y2="172.552"/>
		
			<line fill="none" stroke="#010101" stroke-width="3" stroke-miterlimit="10" x1="110.387" y1="172.552" x2="121.709" y2="172.552"/>
		
			<line fill="none" stroke="#010101" stroke-width="3" stroke-miterlimit="10" x1="133.03" y1="172.552" x2="144.353" y2="172.552"/>
		
			<line fill="none" stroke="#010101" stroke-width="3" stroke-miterlimit="10" x1="155.674" y1="172.552" x2="166.996" y2="172.552"/>
		
			<line fill="none" stroke="#010101" stroke-width="3" stroke-miterlimit="10" x1="178.318" y1="172.552" x2="189.641" y2="172.552"/>
		
			<line fill="none" stroke="#010101" stroke-width="3" stroke-miterlimit="10" x1="200.963" y1="172.552" x2="212.284" y2="172.552"/>
		
			<line fill="none" stroke="#010101" stroke-width="3" stroke-miterlimit="10" x1="223.606" y1="172.552" x2="234.928" y2="172.552"/>
		
			<line fill="none" stroke="#010101" stroke-width="3" stroke-miterlimit="10" x1="246.25" y1="172.552" x2="257.572" y2="172.552"/>
		
			<line fill="none" stroke="#010101" stroke-width="3" stroke-miterlimit="10" x1="268.895" y1="172.552" x2="280.217" y2="172.552"/>
	</g>
	<g>
		<line fill="none" stroke="#010101" stroke-width="3" stroke-miterlimit="10" x1="63.841" y1="190.164" x2="75.163" y2="190.164"/>
		<line fill="none" stroke="#010101" stroke-width="3" stroke-miterlimit="10" x1="86.484" y1="190.164" x2="97.807" y2="190.164"/>
		
			<line fill="none" stroke="#010101" stroke-width="3" stroke-miterlimit="10" x1="109.129" y1="190.164" x2="120.45" y2="190.164"/>
		
			<line fill="none" stroke="#010101" stroke-width="3" stroke-miterlimit="10" x1="131.772" y1="190.164" x2="143.095" y2="190.164"/>
		
			<line fill="none" stroke="#010101" stroke-width="3" stroke-miterlimit="10" x1="154.417" y1="190.164" x2="165.739" y2="190.164"/>
		
			<line fill="none" stroke="#010101" stroke-width="3" stroke-miterlimit="10" x1="177.061" y1="190.164" x2="188.383" y2="190.164"/>
		
			<line fill="none" stroke="#010101" stroke-width="3" stroke-miterlimit="10" x1="199.704" y1="190.164" x2="211.026" y2="190.164"/>
		
			<line fill="none" stroke="#010101" stroke-width="3" stroke-miterlimit="10" x1="222.348" y1="190.164" x2="233.67" y2="190.164"/>
		
			<line fill="none" stroke="#010101" stroke-width="3" stroke-miterlimit="10" x1="244.992" y1="190.164" x2="256.314" y2="190.164"/>
		
			<line fill="none" stroke="#010101" stroke-width="3" stroke-miterlimit="10" x1="267.637" y1="190.164" x2="278.959" y2="190.164"/>
	</g>
	<g>
		<g>
			<path fill="#010101" d="M65.099,22.851c4.059,0,4.059-6.29,0-6.29C61.042,16.561,61.042,22.851,65.099,22.851L65.099,22.851z"/>
		</g>
	</g>
	<g>
		<g>
			<path fill="#010101" d="M76.421,22.851c4.059,0,4.059-6.29,0-6.29C72.364,16.561,72.364,22.851,76.421,22.851L76.421,22.851z"/>
		</g>
	</g>
	<g>
		<g>
			<path fill="#010101" d="M87.743,22.851c4.059,0,4.059-6.29,0-6.29C83.686,16.561,83.686,22.851,87.743,22.851L87.743,22.851z"/>
		</g>
	</g>
	<line fill="none" stroke="#010101" stroke-width="3" stroke-miterlimit="10" x1="99.065" y1="20.335" x2="291.538" y2="20.335"/>
	
		<rect x="65.099" y="30.399" fill="none" stroke="#010101" stroke-width="3" stroke-miterlimit="10" width="22.645" height="101.897"/>
	
		<rect x="99.065" y="30.399" fill="#FFFFFF" stroke="#010101" stroke-width="3" stroke-miterlimit="10" width="192.473" height="101.897"/>
	<line fill="none" stroke="#010101" stroke-width="3" stroke-miterlimit="10" x1="65.099" y1="53.043" x2="87.743" y2="53.043"/>
	<line fill="none" stroke="#010101" stroke-width="3" stroke-miterlimit="10" x1="99.065" y1="53.043" x2="291.538" y2="53.043"/>
	
		<rect x="110.387" y="64.365" fill="none" stroke="#FFFFFF" stroke-width="3" stroke-miterlimit="10" width="33.966" height="56.61"/>
	
		<rect x="234.928" y="64.365" fill="none" stroke="#FFFFFF" stroke-width="3" stroke-miterlimit="10" width="33.967" height="56.61"/>
	<circle fill="none" stroke="#000000" stroke-width="4" stroke-miterlimit="10" cx="189.64" cy="87.01" r="22.644"/>
	<polyline fill="none" stroke="#000000" stroke-width="4" stroke-miterlimit="10" points="110.387,75.688 166.996,75.688 
		189.641,87.01 212.284,75.688 280.217,75.688 	"/>
	<polyline fill="none" stroke="#000000" stroke-width="4" stroke-miterlimit="10" points="110.387,98.331 166.996,98.331 
		189.641,87.01 212.284,98.331 280.217,98.331 	"/>
</g>
<g id="Computer1_3_" opacity="0.6">
	<path fill="none" stroke="#010101" stroke-width="4" stroke-miterlimit="10" d="M86.303,527.029h226.439
		c0,0,22.645,0.629,22.645-22.015l-23.273-45.288V346.506c0-22.643-22.016-22.014-22.016-22.014H63.659
		c0,0-22.644-1.257-22.644,21.388v113.219l-22.643,45.288c0,0-11.322,22.645,22.643,22.645L86.303,527.029z"/>
	<polygon fill="none" stroke="#010101" stroke-width="3" stroke-miterlimit="10" points="290.098,460.355 63.659,460.355 
		41.016,515.709 312.742,515.709 	"/>
	<g>
		<line fill="none" stroke="#010101" stroke-width="3" stroke-miterlimit="10" x1="63.659" y1="471.678" x2="74.981" y2="471.678"/>
		<line fill="none" stroke="#010101" stroke-width="3" stroke-miterlimit="10" x1="86.303" y1="471.678" x2="97.625" y2="471.678"/>
		
			<line fill="none" stroke="#010101" stroke-width="3" stroke-miterlimit="10" x1="108.948" y1="471.678" x2="120.269" y2="471.678"/>
		
			<line fill="none" stroke="#010101" stroke-width="3" stroke-miterlimit="10" x1="131.591" y1="471.678" x2="142.913" y2="471.678"/>
		
			<line fill="none" stroke="#010101" stroke-width="3" stroke-miterlimit="10" x1="154.234" y1="471.678" x2="165.557" y2="471.678"/>
		
			<line fill="none" stroke="#010101" stroke-width="3" stroke-miterlimit="10" x1="176.879" y1="471.678" x2="188.201" y2="471.678"/>
		
			<line fill="none" stroke="#010101" stroke-width="3" stroke-miterlimit="10" x1="199.523" y1="471.678" x2="210.845" y2="471.678"/>
		
			<line fill="none" stroke="#010101" stroke-width="3" stroke-miterlimit="10" x1="222.167" y1="471.678" x2="233.488" y2="471.678"/>
		
			<line fill="none" stroke="#010101" stroke-width="3" stroke-miterlimit="10" x1="244.811" y1="471.678" x2="256.133" y2="471.678"/>
		
			<line fill="none" stroke="#010101" stroke-width="3" stroke-miterlimit="10" x1="267.455" y1="471.678" x2="278.777" y2="471.678"/>
	</g>
	<g>
		<line fill="none" stroke="#010101" stroke-width="3" stroke-miterlimit="10" x1="63.659" y1="488.031" x2="74.981" y2="488.031"/>
		<line fill="none" stroke="#010101" stroke-width="3" stroke-miterlimit="10" x1="86.303" y1="488.031" x2="97.625" y2="488.031"/>
		
			<line fill="none" stroke="#010101" stroke-width="3" stroke-miterlimit="10" x1="108.948" y1="488.031" x2="120.269" y2="488.031"/>
		
			<line fill="none" stroke="#010101" stroke-width="3" stroke-miterlimit="10" x1="131.591" y1="488.031" x2="142.913" y2="488.031"/>
		
			<line fill="none" stroke="#010101" stroke-width="3" stroke-miterlimit="10" x1="154.234" y1="488.031" x2="165.557" y2="488.031"/>
		
			<line fill="none" stroke="#010101" stroke-width="3" stroke-miterlimit="10" x1="176.879" y1="488.031" x2="188.201" y2="488.031"/>
		
			<line fill="none" stroke="#010101" stroke-width="3" stroke-miterlimit="10" x1="199.523" y1="488.031" x2="210.845" y2="488.031"/>
		
			<line fill="none" stroke="#010101" stroke-width="3" stroke-miterlimit="10" x1="222.167" y1="488.031" x2="233.488" y2="488.031"/>
		
			<line fill="none" stroke="#010101" stroke-width="3" stroke-miterlimit="10" x1="244.811" y1="488.031" x2="256.133" y2="488.031"/>
		
			<line fill="none" stroke="#010101" stroke-width="3" stroke-miterlimit="10" x1="267.455" y1="488.031" x2="278.777" y2="488.031"/>
	</g>
	<g>
		<line fill="none" stroke="#010101" stroke-width="3" stroke-miterlimit="10" x1="62.401" y1="505.644" x2="73.723" y2="505.644"/>
		<line fill="none" stroke="#010101" stroke-width="3" stroke-miterlimit="10" x1="85.044" y1="505.644" x2="96.367" y2="505.644"/>
		
			<line fill="none" stroke="#010101" stroke-width="3" stroke-miterlimit="10" x1="107.689" y1="505.644" x2="119.011" y2="505.644"/>
		
			<line fill="none" stroke="#010101" stroke-width="3" stroke-miterlimit="10" x1="130.333" y1="505.644" x2="141.655" y2="505.644"/>
		
			<line fill="none" stroke="#010101" stroke-width="3" stroke-miterlimit="10" x1="152.978" y1="505.644" x2="164.299" y2="505.644"/>
		
			<line fill="none" stroke="#010101" stroke-width="3" stroke-miterlimit="10" x1="175.621" y1="505.644" x2="186.943" y2="505.644"/>
		
			<line fill="none" stroke="#010101" stroke-width="3" stroke-miterlimit="10" x1="198.265" y1="505.644" x2="209.587" y2="505.644"/>
		
			<line fill="none" stroke="#010101" stroke-width="3" stroke-miterlimit="10" x1="220.908" y1="505.644" x2="232.23" y2="505.644"/>
		
			<line fill="none" stroke="#010101" stroke-width="3" stroke-miterlimit="10" x1="243.553" y1="505.644" x2="254.875" y2="505.644"/>
		
			<line fill="none" stroke="#010101" stroke-width="3" stroke-miterlimit="10" x1="266.197" y1="505.644" x2="277.519" y2="505.644"/>
	</g>
	<g>
		<g>
			<path fill="#010101" d="M63.659,338.33c4.059,0,4.059-6.29,0-6.29C59.603,332.04,59.603,338.33,63.659,338.33L63.659,338.33z"/>
		</g>
	</g>
	<g>
		<g>
			<path fill="#010101" d="M74.981,338.33c4.058,0,4.058-6.29,0-6.29C70.924,332.04,70.924,338.33,74.981,338.33L74.981,338.33z"/>
		</g>
	</g>
	<g>
		<g>
			<path fill="#010101" d="M86.303,338.33c4.059,0,4.059-6.29,0-6.29C82.247,332.04,82.247,338.33,86.303,338.33L86.303,338.33z"/>
		</g>
	</g>
	<line fill="none" stroke="#010101" stroke-width="3" stroke-miterlimit="10" x1="97.625" y1="335.813" x2="290.098" y2="335.813"/>
	
		<rect x="63.659" y="345.88" fill="none" stroke="#010101" stroke-width="3" stroke-miterlimit="10" width="22.644" height="101.897"/>
	
		<rect x="97.625" y="345.88" fill="none" stroke="#010101" stroke-width="3" stroke-miterlimit="10" width="192.473" height="101.897"/>
	<line fill="none" stroke="#010101" stroke-width="3" stroke-miterlimit="10" x1="63.659" y1="368.522" x2="86.303" y2="368.522"/>
	<line fill="none" stroke="#010101" stroke-width="3" stroke-miterlimit="10" x1="97.625" y1="368.522" x2="290.098" y2="368.522"/>
	
		<rect x="108.948" y="379.845" fill="none" stroke="#FFFFFF" stroke-width="3" stroke-miterlimit="10" width="33.965" height="56.61"/>
	
		<rect x="233.488" y="379.845" fill="none" stroke="#FFFFFF" stroke-width="3" stroke-miterlimit="10" width="33.966" height="56.61"/>
	<circle fill="none" stroke="#000000" stroke-width="4" stroke-miterlimit="10" cx="188.201" cy="402.488" r="22.644"/>
	<polyline fill="none" stroke="#000000" stroke-width="4" stroke-miterlimit="10" points="108.948,391.166 165.557,391.166 
		188.201,402.488 210.845,391.166 278.777,391.166 	"/>
	<polyline fill="none" stroke="#000000" stroke-width="4" stroke-miterlimit="10" points="108.948,413.811 165.557,413.811 
		188.201,402.488 210.845,413.811 278.777,413.811 	"/>
</g>
<g id="Computer1_4_" opacity="0.6">
	<path fill="none" stroke="#010101" stroke-width="4" stroke-miterlimit="10" d="M524.917,527.029h226.438
		c0,0,22.645,0.629,22.645-22.015l-23.272-45.288V346.506c0-22.643-22.016-22.014-22.016-22.014H502.272
		c0,0-22.644-1.257-22.644,21.388v113.219l-22.644,45.288c0,0-11.321,22.645,22.644,22.645L524.917,527.029z"/>
	<polygon fill="none" stroke="#010101" stroke-width="3" stroke-miterlimit="10" points="728.712,460.355 502.272,460.355 
		479.629,515.709 751.355,515.709 	"/>
	<g>
		
			<line fill="none" stroke="#010101" stroke-width="3" stroke-miterlimit="10" x1="502.272" y1="471.678" x2="513.595" y2="471.678"/>
		
			<line fill="none" stroke="#010101" stroke-width="3" stroke-miterlimit="10" x1="524.917" y1="471.678" x2="536.239" y2="471.678"/>
		
			<line fill="none" stroke="#010101" stroke-width="3" stroke-miterlimit="10" x1="547.561" y1="471.678" x2="558.883" y2="471.678"/>
		
			<line fill="none" stroke="#010101" stroke-width="3" stroke-miterlimit="10" x1="570.204" y1="471.678" x2="581.526" y2="471.678"/>
		
			<line fill="none" stroke="#010101" stroke-width="3" stroke-miterlimit="10" x1="592.848" y1="471.678" x2="604.17" y2="471.678"/>
		
			<line fill="none" stroke="#010101" stroke-width="3" stroke-miterlimit="10" x1="615.492" y1="471.678" x2="626.814" y2="471.678"/>
		
			<line fill="none" stroke="#010101" stroke-width="3" stroke-miterlimit="10" x1="638.137" y1="471.678" x2="649.458" y2="471.678"/>
		
			<line fill="none" stroke="#010101" stroke-width="3" stroke-miterlimit="10" x1="660.78" y1="471.678" x2="672.102" y2="471.678"/>
		
			<line fill="none" stroke="#010101" stroke-width="3" stroke-miterlimit="10" x1="683.424" y1="471.678" x2="694.746" y2="471.678"/>
		
			<line fill="none" stroke="#010101" stroke-width="3" stroke-miterlimit="10" x1="706.068" y1="471.678" x2="717.391" y2="471.678"/>
	</g>
	<g>
		
			<line fill="none" stroke="#010101" stroke-width="3" stroke-miterlimit="10" x1="502.272" y1="488.031" x2="513.595" y2="488.031"/>
		
			<line fill="none" stroke="#010101" stroke-width="3" stroke-miterlimit="10" x1="524.917" y1="488.031" x2="536.239" y2="488.031"/>
		
			<line fill="none" stroke="#010101" stroke-width="3" stroke-miterlimit="10" x1="547.561" y1="488.031" x2="558.883" y2="488.031"/>
		
			<line fill="none" stroke="#010101" stroke-width="3" stroke-miterlimit="10" x1="570.204" y1="488.031" x2="581.526" y2="488.031"/>
		
			<line fill="none" stroke="#010101" stroke-width="3" stroke-miterlimit="10" x1="592.848" y1="488.031" x2="604.17" y2="488.031"/>
		
			<line fill="none" stroke="#010101" stroke-width="3" stroke-miterlimit="10" x1="615.492" y1="488.031" x2="626.814" y2="488.031"/>
		
			<line fill="none" stroke="#010101" stroke-width="3" stroke-miterlimit="10" x1="638.137" y1="488.031" x2="649.458" y2="488.031"/>
		
			<line fill="none" stroke="#010101" stroke-width="3" stroke-miterlimit="10" x1="660.78" y1="488.031" x2="672.102" y2="488.031"/>
		
			<line fill="none" stroke="#010101" stroke-width="3" stroke-miterlimit="10" x1="683.424" y1="488.031" x2="694.746" y2="488.031"/>
		
			<line fill="none" stroke="#010101" stroke-width="3" stroke-miterlimit="10" x1="706.068" y1="488.031" x2="717.391" y2="488.031"/>
	</g>
	<g>
		
			<line fill="none" stroke="#010101" stroke-width="3" stroke-miterlimit="10" x1="501.015" y1="505.644" x2="512.337" y2="505.644"/>
		
			<line fill="none" stroke="#010101" stroke-width="3" stroke-miterlimit="10" x1="523.658" y1="505.644" x2="534.98" y2="505.644"/>
		
			<line fill="none" stroke="#010101" stroke-width="3" stroke-miterlimit="10" x1="546.303" y1="505.644" x2="557.624" y2="505.644"/>
		
			<line fill="none" stroke="#010101" stroke-width="3" stroke-miterlimit="10" x1="568.946" y1="505.644" x2="580.269" y2="505.644"/>
		
			<line fill="none" stroke="#010101" stroke-width="3" stroke-miterlimit="10" x1="591.591" y1="505.644" x2="602.913" y2="505.644"/>
		
			<line fill="none" stroke="#010101" stroke-width="3" stroke-miterlimit="10" x1="614.234" y1="505.644" x2="625.557" y2="505.644"/>
		<line fill="none" stroke="#010101" stroke-width="3" stroke-miterlimit="10" x1="636.878" y1="505.644" x2="648.2" y2="505.644"/>
		
			<line fill="none" stroke="#010101" stroke-width="3" stroke-miterlimit="10" x1="659.521" y1="505.644" x2="670.844" y2="505.644"/>
		
			<line fill="none" stroke="#010101" stroke-width="3" stroke-miterlimit="10" x1="682.166" y1="505.644" x2="693.488" y2="505.644"/>
		
			<line fill="none" stroke="#010101" stroke-width="3" stroke-miterlimit="10" x1="704.811" y1="505.644" x2="716.133" y2="505.644"/>
	</g>
	<g>
		<g>
			<path fill="#010101" d="M502.272,338.33c4.059,0,4.059-6.29,0-6.29C498.216,332.04,498.216,338.33,502.272,338.33L502.272,338.33
				z"/>
		</g>
	</g>
	<g>
		<g>
			<path fill="#010101" d="M513.595,338.33c4.059,0,4.059-6.29,0-6.29C509.538,332.04,509.538,338.33,513.595,338.33L513.595,338.33
				z"/>
		</g>
	</g>
	<g>
		<g>
			<path fill="#010101" d="M524.917,338.33c4.059,0,4.059-6.29,0-6.29C520.859,332.04,520.859,338.33,524.917,338.33L524.917,338.33
				z"/>
		</g>
	</g>
	
		<line fill="none" stroke="#010101" stroke-width="3" stroke-miterlimit="10" x1="536.239" y1="335.813" x2="728.712" y2="335.813"/>
	
		<rect x="502.272" y="345.88" fill="none" stroke="#010101" stroke-width="3" stroke-miterlimit="10" width="22.645" height="101.897"/>
	
		<rect x="536.239" y="345.88" fill="none" stroke="#010101" stroke-width="3" stroke-miterlimit="10" width="192.473" height="101.897"/>
	
		<line fill="none" stroke="#010101" stroke-width="3" stroke-miterlimit="10" x1="502.272" y1="368.522" x2="524.917" y2="368.522"/>
	
		<line fill="none" stroke="#010101" stroke-width="3" stroke-miterlimit="10" x1="536.239" y1="368.522" x2="728.712" y2="368.522"/>
	
		<rect x="547.561" y="379.845" fill="none" stroke="#FFFFFF" stroke-width="3" stroke-miterlimit="10" width="33.966" height="56.61"/>
	
		<rect x="672.102" y="379.845" fill="none" stroke="#FFFFFF" stroke-width="3" stroke-miterlimit="10" width="33.967" height="56.61"/>
	<circle fill="none" stroke="#000000" stroke-width="4" stroke-miterlimit="10" cx="626.814" cy="402.488" r="22.644"/>
	<polyline fill="none" stroke="#000000" stroke-width="4" stroke-miterlimit="10" points="547.561,391.166 604.17,391.166 
		626.814,402.488 649.458,391.166 717.391,391.166 	"/>
	<polyline fill="none" stroke="#000000" stroke-width="4" stroke-miterlimit="10" points="547.561,413.811 604.17,413.811 
		626.814,402.488 649.458,413.811 717.391,413.811 	"/>
</g>
<g id="Computer1_1_" opacity="0.6">
	<path fill="#FFFFFF" stroke="#010101" stroke-width="4" stroke-miterlimit="10" d="M524.917,214.425h226.438
		c0,0,22.645,0.629,22.645-22.015l-23.272-45.288V33.903c0-22.644-22.016-22.015-22.016-22.015H502.272
		c0,0-22.644-1.257-22.644,21.387v113.22l-22.644,45.288c0,0-11.321,22.645,22.644,22.645L524.917,214.425z"/>
	<polygon fill="none" stroke="#010101" stroke-width="3" stroke-miterlimit="10" points="728.712,147.751 502.272,147.751 
		479.629,203.105 751.355,203.105 	"/>
	<g>
		
			<line fill="none" stroke="#010101" stroke-width="3" stroke-miterlimit="10" x1="502.272" y1="159.074" x2="513.595" y2="159.074"/>
		
			<line fill="none" stroke="#010101" stroke-width="3" stroke-miterlimit="10" x1="524.917" y1="159.074" x2="536.239" y2="159.074"/>
		
			<line fill="none" stroke="#010101" stroke-width="3" stroke-miterlimit="10" x1="547.561" y1="159.074" x2="558.883" y2="159.074"/>
		
			<line fill="none" stroke="#010101" stroke-width="3" stroke-miterlimit="10" x1="570.204" y1="159.074" x2="581.526" y2="159.074"/>
		
			<line fill="none" stroke="#010101" stroke-width="3" stroke-miterlimit="10" x1="592.848" y1="159.074" x2="604.17" y2="159.074"/>
		
			<line fill="none" stroke="#010101" stroke-width="3" stroke-miterlimit="10" x1="615.492" y1="159.074" x2="626.814" y2="159.074"/>
		
			<line fill="none" stroke="#010101" stroke-width="3" stroke-miterlimit="10" x1="638.137" y1="159.074" x2="649.458" y2="159.074"/>
		
			<line fill="none" stroke="#010101" stroke-width="3" stroke-miterlimit="10" x1="660.78" y1="159.074" x2="672.102" y2="159.074"/>
		
			<line fill="none" stroke="#010101" stroke-width="3" stroke-miterlimit="10" x1="683.424" y1="159.074" x2="694.746" y2="159.074"/>
		
			<line fill="none" stroke="#010101" stroke-width="3" stroke-miterlimit="10" x1="706.068" y1="159.074" x2="717.391" y2="159.074"/>
	</g>
	<g>
		
			<line fill="none" stroke="#010101" stroke-width="3" stroke-miterlimit="10" x1="502.272" y1="175.427" x2="513.595" y2="175.427"/>
		
			<line fill="none" stroke="#010101" stroke-width="3" stroke-miterlimit="10" x1="524.917" y1="175.427" x2="536.239" y2="175.427"/>
		
			<line fill="none" stroke="#010101" stroke-width="3" stroke-miterlimit="10" x1="547.561" y1="175.427" x2="558.883" y2="175.427"/>
		
			<line fill="none" stroke="#010101" stroke-width="3" stroke-miterlimit="10" x1="570.204" y1="175.427" x2="581.526" y2="175.427"/>
		
			<line fill="none" stroke="#010101" stroke-width="3" stroke-miterlimit="10" x1="592.848" y1="175.427" x2="604.17" y2="175.427"/>
		
			<line fill="none" stroke="#010101" stroke-width="3" stroke-miterlimit="10" x1="615.492" y1="175.427" x2="626.814" y2="175.427"/>
		
			<line fill="none" stroke="#010101" stroke-width="3" stroke-miterlimit="10" x1="638.137" y1="175.427" x2="649.458" y2="175.427"/>
		
			<line fill="none" stroke="#010101" stroke-width="3" stroke-miterlimit="10" x1="660.78" y1="175.427" x2="672.102" y2="175.427"/>
		
			<line fill="none" stroke="#010101" stroke-width="3" stroke-miterlimit="10" x1="683.424" y1="175.427" x2="694.746" y2="175.427"/>
		
			<line fill="none" stroke="#010101" stroke-width="3" stroke-miterlimit="10" x1="706.068" y1="175.427" x2="717.391" y2="175.427"/>
	</g>
	<g>
		<line fill="none" stroke="#010101" stroke-width="3" stroke-miterlimit="10" x1="501.015" y1="193.04" x2="512.337" y2="193.04"/>
		<line fill="none" stroke="#010101" stroke-width="3" stroke-miterlimit="10" x1="523.658" y1="193.04" x2="534.98" y2="193.04"/>
		<line fill="none" stroke="#010101" stroke-width="3" stroke-miterlimit="10" x1="546.303" y1="193.04" x2="557.624" y2="193.04"/>
		<line fill="none" stroke="#010101" stroke-width="3" stroke-miterlimit="10" x1="568.946" y1="193.04" x2="580.269" y2="193.04"/>
		<line fill="none" stroke="#010101" stroke-width="3" stroke-miterlimit="10" x1="591.591" y1="193.04" x2="602.913" y2="193.04"/>
		<line fill="none" stroke="#010101" stroke-width="3" stroke-miterlimit="10" x1="614.234" y1="193.04" x2="625.557" y2="193.04"/>
		<line fill="none" stroke="#010101" stroke-width="3" stroke-miterlimit="10" x1="636.878" y1="193.04" x2="648.2" y2="193.04"/>
		<line fill="none" stroke="#010101" stroke-width="3" stroke-miterlimit="10" x1="659.521" y1="193.04" x2="670.844" y2="193.04"/>
		<line fill="none" stroke="#010101" stroke-width="3" stroke-miterlimit="10" x1="682.166" y1="193.04" x2="693.488" y2="193.04"/>
		<line fill="none" stroke="#010101" stroke-width="3" stroke-miterlimit="10" x1="704.811" y1="193.04" x2="716.133" y2="193.04"/>
	</g>
	<g>
		<g>
			<path fill="#010101" d="M502.272,25.726c4.059,0,4.059-6.29,0-6.29C498.216,19.436,498.216,25.726,502.272,25.726L502.272,25.726
				z"/>
		</g>
	</g>
	<g>
		<g>
			<path fill="#010101" d="M513.595,25.726c4.059,0,4.059-6.29,0-6.29C509.538,19.436,509.538,25.726,513.595,25.726L513.595,25.726
				z"/>
		</g>
	</g>
	<g>
		<g>
			<path fill="#010101" d="M524.917,25.726c4.059,0,4.059-6.29,0-6.29C520.859,19.436,520.859,25.726,524.917,25.726L524.917,25.726
				z"/>
		</g>
	</g>
	<line fill="none" stroke="#010101" stroke-width="3" stroke-miterlimit="10" x1="536.239" y1="23.21" x2="728.712" y2="23.21"/>
	
		<rect x="502.272" y="33.275" fill="none" stroke="#010101" stroke-width="3" stroke-miterlimit="10" width="22.645" height="101.897"/>
	
		<rect x="536.239" y="33.275" fill="#FFFFFF" stroke="#010101" stroke-width="3" stroke-miterlimit="10" width="192.473" height="101.897"/>
	<line fill="none" stroke="#010101" stroke-width="3" stroke-miterlimit="10" x1="502.272" y1="55.919" x2="524.917" y2="55.919"/>
	<line fill="none" stroke="#010101" stroke-width="3" stroke-miterlimit="10" x1="536.239" y1="55.919" x2="728.712" y2="55.919"/>
	
		<rect x="547.561" y="67.241" fill="none" stroke="#FFFFFF" stroke-width="3" stroke-miterlimit="10" width="33.966" height="56.61"/>
	
		<rect x="672.102" y="67.241" fill="none" stroke="#FFFFFF" stroke-width="3" stroke-miterlimit="10" width="33.967" height="56.61"/>
	<circle fill="none" stroke="#000000" stroke-width="4" stroke-miterlimit="10" cx="626.814" cy="89.885" r="22.644"/>
	<polyline fill="none" stroke="#000000" stroke-width="4" stroke-miterlimit="10" points="547.561,78.563 604.17,78.563 
		626.814,89.885 649.458,78.563 717.391,78.563 	"/>
	<polyline fill="none" stroke="#000000" stroke-width="4" stroke-miterlimit="10" points="547.561,101.207 604.17,101.207 
		626.814,89.885 649.458,101.207 717.391,101.207 	"/>
</g>
<g id="Computer1">
	<path fill="#FFFFFF" stroke="#010101" stroke-width="4" stroke-miterlimit="10" d="M270.562,370.939h269.489
		c0,0,26.949,0.749,26.949-26.2l-27.697-53.897V156.097c0-26.949-26.201-26.2-26.201-26.2H243.613c0,0-26.948-1.496-26.948,25.453
		v134.745l-26.949,53.897c0,0-13.474,26.949,26.949,26.949L270.562,370.939z"/>
	<polygon fill="none" stroke="#010101" stroke-width="3" stroke-miterlimit="10" points="513.102,291.59 243.613,291.59 
		216.665,357.467 540.051,357.467 	"/>
	<g>
		
			<line fill="none" stroke="#010101" stroke-width="3" stroke-miterlimit="10" x1="243.613" y1="305.064" x2="257.088" y2="305.064"/>
		
			<line fill="none" stroke="#010101" stroke-width="3" stroke-miterlimit="10" x1="270.562" y1="305.064" x2="284.037" y2="305.064"/>
		
			<line fill="none" stroke="#010101" stroke-width="3" stroke-miterlimit="10" x1="297.511" y1="305.064" x2="310.985" y2="305.064"/>
		
			<line fill="none" stroke="#010101" stroke-width="3" stroke-miterlimit="10" x1="324.46" y1="305.064" x2="337.935" y2="305.064"/>
		
			<line fill="none" stroke="#010101" stroke-width="3" stroke-miterlimit="10" x1="351.409" y1="305.064" x2="364.883" y2="305.064"/>
		
			<line fill="none" stroke="#010101" stroke-width="3" stroke-miterlimit="10" x1="378.358" y1="305.064" x2="391.832" y2="305.064"/>
		
			<line fill="none" stroke="#010101" stroke-width="3" stroke-miterlimit="10" x1="405.307" y1="305.064" x2="418.781" y2="305.064"/>
		
			<line fill="none" stroke="#010101" stroke-width="3" stroke-miterlimit="10" x1="432.256" y1="305.064" x2="445.729" y2="305.064"/>
		
			<line fill="none" stroke="#010101" stroke-width="3" stroke-miterlimit="10" x1="459.204" y1="305.064" x2="472.679" y2="305.064"/>
		
			<line fill="none" stroke="#010101" stroke-width="3" stroke-miterlimit="10" x1="486.153" y1="305.064" x2="499.628" y2="305.064"/>
	</g>
	<g>
		
			<line fill="none" stroke="#010101" stroke-width="3" stroke-miterlimit="10" x1="243.613" y1="324.527" x2="257.088" y2="324.527"/>
		
			<line fill="none" stroke="#010101" stroke-width="3" stroke-miterlimit="10" x1="270.562" y1="324.527" x2="284.037" y2="324.527"/>
		
			<line fill="none" stroke="#010101" stroke-width="3" stroke-miterlimit="10" x1="297.511" y1="324.527" x2="310.985" y2="324.527"/>
		
			<line fill="none" stroke="#010101" stroke-width="3" stroke-miterlimit="10" x1="324.46" y1="324.527" x2="337.935" y2="324.527"/>
		
			<line fill="none" stroke="#010101" stroke-width="3" stroke-miterlimit="10" x1="351.409" y1="324.527" x2="364.883" y2="324.527"/>
		
			<line fill="none" stroke="#010101" stroke-width="3" stroke-miterlimit="10" x1="378.358" y1="324.527" x2="391.832" y2="324.527"/>
		
			<line fill="none" stroke="#010101" stroke-width="3" stroke-miterlimit="10" x1="405.307" y1="324.527" x2="418.781" y2="324.527"/>
		
			<line fill="none" stroke="#010101" stroke-width="3" stroke-miterlimit="10" x1="432.256" y1="324.527" x2="445.729" y2="324.527"/>
		
			<line fill="none" stroke="#010101" stroke-width="3" stroke-miterlimit="10" x1="459.204" y1="324.527" x2="472.679" y2="324.527"/>
		
			<line fill="none" stroke="#010101" stroke-width="3" stroke-miterlimit="10" x1="486.153" y1="324.527" x2="499.628" y2="324.527"/>
	</g>
	<g>
		
			<line fill="none" stroke="#010101" stroke-width="3" stroke-miterlimit="10" x1="242.116" y1="345.488" x2="255.591" y2="345.488"/>
		
			<line fill="none" stroke="#010101" stroke-width="3" stroke-miterlimit="10" x1="269.065" y1="345.488" x2="282.54" y2="345.488"/>
		
			<line fill="none" stroke="#010101" stroke-width="3" stroke-miterlimit="10" x1="296.014" y1="345.488" x2="309.488" y2="345.488"/>
		
			<line fill="none" stroke="#010101" stroke-width="3" stroke-miterlimit="10" x1="322.963" y1="345.488" x2="336.438" y2="345.488"/>
		
			<line fill="none" stroke="#010101" stroke-width="3" stroke-miterlimit="10" x1="349.912" y1="345.488" x2="363.386" y2="345.488"/>
		
			<line fill="none" stroke="#010101" stroke-width="3" stroke-miterlimit="10" x1="376.86" y1="345.488" x2="390.335" y2="345.488"/>
		
			<line fill="none" stroke="#010101" stroke-width="3" stroke-miterlimit="10" x1="403.81" y1="345.488" x2="417.284" y2="345.488"/>
		
			<line fill="none" stroke="#010101" stroke-width="3" stroke-miterlimit="10" x1="430.758" y1="345.488" x2="444.232" y2="345.488"/>
		
			<line fill="none" stroke="#010101" stroke-width="3" stroke-miterlimit="10" x1="457.707" y1="345.488" x2="471.182" y2="345.488"/>
		
			<line fill="none" stroke="#010101" stroke-width="3" stroke-miterlimit="10" x1="484.656" y1="345.488" x2="498.131" y2="345.488"/>
	</g>
	<g>
		<g>
			<path fill="#010101" d="M243.613,146.366c4.831,0,4.831-7.486,0-7.486C238.786,138.88,238.786,146.366,243.613,146.366
				L243.613,146.366z"/>
		</g>
	</g>
	<g>
		<g>
			<path fill="#010101" d="M257.088,146.366c4.831,0,4.831-7.486,0-7.486C252.26,138.88,252.26,146.366,257.088,146.366
				L257.088,146.366z"/>
		</g>
	</g>
	<g>
		<g>
			<path fill="#010101" d="M270.562,146.366c4.831,0,4.831-7.486,0-7.486C265.734,138.88,265.734,146.366,270.562,146.366
				L270.562,146.366z"/>
		</g>
	</g>
	
		<line fill="none" stroke="#010101" stroke-width="3" stroke-miterlimit="10" x1="284.037" y1="143.371" x2="513.102" y2="143.371"/>
	
		<rect x="243.613" y="155.35" fill="none" stroke="#010101" stroke-width="3" stroke-miterlimit="10" width="26.949" height="121.27"/>
	
		<rect x="284.037" y="155.35" fill="#FFFFFF" stroke="#010101" stroke-width="3" stroke-miterlimit="10" width="229.065" height="121.27"/>
	
		<line fill="none" stroke="#010101" stroke-width="3" stroke-miterlimit="10" x1="243.613" y1="182.299" x2="270.562" y2="182.299"/>
	
		<line fill="none" stroke="#010101" stroke-width="3" stroke-miterlimit="10" x1="284.037" y1="182.299" x2="513.102" y2="182.299"/>
	
		<rect x="297.511" y="195.773" fill="none" stroke="#FFFFFF" stroke-width="3" stroke-miterlimit="10" width="40.423" height="67.372"/>
	
		<rect x="445.729" y="195.773" fill="none" stroke="#FFFFFF" stroke-width="3" stroke-miterlimit="10" width="40.424" height="67.372"/>
	<circle fill="none" stroke="#000000" stroke-width="4" stroke-miterlimit="10" cx="391.832" cy="222.723" r="26.949"/>
	<polyline fill="none" stroke="#000000" stroke-width="4" stroke-miterlimit="10" points="297.511,209.248 364.883,209.248 
		391.832,222.723 418.781,209.248 499.628,209.248 	"/>
	<polyline fill="none" stroke="#000000" stroke-width="4" stroke-miterlimit="10" points="297.511,236.196 364.883,236.196 
		391.832,222.723 418.781,236.196 499.628,236.196 	"/>
</g>
<line opacity="0.5" fill="none" stroke="#010101" stroke-width="4" stroke-miterlimit="10" x1="171" y1="216" x2="171" y2="324"/>
<line opacity="0.7" fill="none" stroke="#010101" stroke-width="4" stroke-miterlimit="10" x1="171" y1="270" x2="216" y2="270"/>
<line opacity="0.5" fill="none" stroke="#010101" stroke-width="4" stroke-miterlimit="10" x1="585" y1="216" x2="585" y2="324"/>
<line opacity="0.7" fill="none" stroke="#010101" stroke-width="4" stroke-miterlimit="10" x1="585" y1="270" x2="540" y2="270"/>
</svg>
