<?xml version="1.0" encoding="utf-8"?>
<!-- Generator: Adobe Illustrator 16.0.0, SVG Export Plug-In . SVG Version: 6.00 Build 0)  -->
<!DOCTYPE svg PUBLIC "-//W3C//DTD SVG 1.1//EN" "http://www.w3.org/Graphics/SVG/1.1/DTD/svg11.dtd">
<svg version="1.1" id="Layer_1" xmlns="http://www.w3.org/2000/svg" xmlns:xlink="http://www.w3.org/1999/xlink" x="0px" y="0px"
	viewBox="0 0 1000 1000" enable-background="new 0 0 1000 1000" xml:space="preserve">
<g id="Computer1_3_">
	<path fill="none" stroke="#010101" stroke-width="4" stroke-miterlimit="10" d="M203.303,743.029h226.439
		c0,0,22.645,0.629,22.645-22.015l-23.273-45.288V562.506c0-22.643-22.016-22.014-22.016-22.014H180.659
		c0,0-22.644-1.257-22.644,21.388v113.219l-22.643,45.288c0,0-11.322,22.645,22.643,22.645L203.303,743.029z"/>
	<polygon fill="none" stroke="#010101" stroke-width="3" stroke-miterlimit="10" points="407.098,676.355 180.659,676.355 
		158.016,731.709 429.742,731.709 	"/>
	<g>
		
			<line fill="none" stroke="#010101" stroke-width="3" stroke-miterlimit="10" x1="180.659" y1="687.678" x2="191.981" y2="687.678"/>
		
			<line fill="none" stroke="#010101" stroke-width="3" stroke-miterlimit="10" x1="203.303" y1="687.678" x2="214.625" y2="687.678"/>
		
			<line fill="none" stroke="#010101" stroke-width="3" stroke-miterlimit="10" x1="225.948" y1="687.678" x2="237.269" y2="687.678"/>
		
			<line fill="none" stroke="#010101" stroke-width="3" stroke-miterlimit="10" x1="248.591" y1="687.678" x2="259.913" y2="687.678"/>
		
			<line fill="none" stroke="#010101" stroke-width="3" stroke-miterlimit="10" x1="271.234" y1="687.678" x2="282.557" y2="687.678"/>
		
			<line fill="none" stroke="#010101" stroke-width="3" stroke-miterlimit="10" x1="293.879" y1="687.678" x2="305.201" y2="687.678"/>
		
			<line fill="none" stroke="#010101" stroke-width="3" stroke-miterlimit="10" x1="316.523" y1="687.678" x2="327.845" y2="687.678"/>
		
			<line fill="none" stroke="#010101" stroke-width="3" stroke-miterlimit="10" x1="339.167" y1="687.678" x2="350.488" y2="687.678"/>
		
			<line fill="none" stroke="#010101" stroke-width="3" stroke-miterlimit="10" x1="361.811" y1="687.678" x2="373.133" y2="687.678"/>
		
			<line fill="none" stroke="#010101" stroke-width="3" stroke-miterlimit="10" x1="384.455" y1="687.678" x2="395.777" y2="687.678"/>
	</g>
	<g>
		
			<line fill="none" stroke="#010101" stroke-width="3" stroke-miterlimit="10" x1="180.659" y1="704.031" x2="191.981" y2="704.031"/>
		
			<line fill="none" stroke="#010101" stroke-width="3" stroke-miterlimit="10" x1="203.303" y1="704.031" x2="214.625" y2="704.031"/>
		
			<line fill="none" stroke="#010101" stroke-width="3" stroke-miterlimit="10" x1="225.948" y1="704.031" x2="237.269" y2="704.031"/>
		
			<line fill="none" stroke="#010101" stroke-width="3" stroke-miterlimit="10" x1="248.591" y1="704.031" x2="259.913" y2="704.031"/>
		
			<line fill="none" stroke="#010101" stroke-width="3" stroke-miterlimit="10" x1="271.234" y1="704.031" x2="282.557" y2="704.031"/>
		
			<line fill="none" stroke="#010101" stroke-width="3" stroke-miterlimit="10" x1="293.879" y1="704.031" x2="305.201" y2="704.031"/>
		
			<line fill="none" stroke="#010101" stroke-width="3" stroke-miterlimit="10" x1="316.523" y1="704.031" x2="327.845" y2="704.031"/>
		
			<line fill="none" stroke="#010101" stroke-width="3" stroke-miterlimit="10" x1="339.167" y1="704.031" x2="350.488" y2="704.031"/>
		
			<line fill="none" stroke="#010101" stroke-width="3" stroke-miterlimit="10" x1="361.811" y1="704.031" x2="373.133" y2="704.031"/>
		
			<line fill="none" stroke="#010101" stroke-width="3" stroke-miterlimit="10" x1="384.455" y1="704.031" x2="395.777" y2="704.031"/>
	</g>
	<g>
		
			<line fill="none" stroke="#010101" stroke-width="3" stroke-miterlimit="10" x1="179.401" y1="721.644" x2="190.723" y2="721.644"/>
		
			<line fill="none" stroke="#010101" stroke-width="3" stroke-miterlimit="10" x1="202.044" y1="721.644" x2="213.367" y2="721.644"/>
		
			<line fill="none" stroke="#010101" stroke-width="3" stroke-miterlimit="10" x1="224.689" y1="721.644" x2="236.011" y2="721.644"/>
		
			<line fill="none" stroke="#010101" stroke-width="3" stroke-miterlimit="10" x1="247.333" y1="721.644" x2="258.655" y2="721.644"/>
		
			<line fill="none" stroke="#010101" stroke-width="3" stroke-miterlimit="10" x1="269.978" y1="721.644" x2="281.299" y2="721.644"/>
		
			<line fill="none" stroke="#010101" stroke-width="3" stroke-miterlimit="10" x1="292.621" y1="721.644" x2="303.943" y2="721.644"/>
		
			<line fill="none" stroke="#010101" stroke-width="3" stroke-miterlimit="10" x1="315.265" y1="721.644" x2="326.587" y2="721.644"/>
		
			<line fill="none" stroke="#010101" stroke-width="3" stroke-miterlimit="10" x1="337.908" y1="721.644" x2="349.23" y2="721.644"/>
		
			<line fill="none" stroke="#010101" stroke-width="3" stroke-miterlimit="10" x1="360.553" y1="721.644" x2="371.875" y2="721.644"/>
		
			<line fill="none" stroke="#010101" stroke-width="3" stroke-miterlimit="10" x1="383.197" y1="721.644" x2="394.519" y2="721.644"/>
	</g>
	<g>
		<g>
			<path fill="#010101" d="M180.659,554.33c4.059,0,4.059-6.29,0-6.29C176.603,548.04,176.603,554.33,180.659,554.33L180.659,554.33
				z"/>
		</g>
	</g>
	<g>
		<g>
			<path fill="#010101" d="M191.981,554.33c4.058,0,4.058-6.29,0-6.29C187.924,548.04,187.924,554.33,191.981,554.33L191.981,554.33
				z"/>
		</g>
	</g>
	<g>
		<g>
			<path fill="#010101" d="M203.303,554.33c4.059,0,4.059-6.29,0-6.29C199.247,548.04,199.247,554.33,203.303,554.33L203.303,554.33
				z"/>
		</g>
	</g>
	
		<line fill="none" stroke="#010101" stroke-width="3" stroke-miterlimit="10" x1="214.625" y1="551.813" x2="407.098" y2="551.813"/>
	
		<rect x="180.659" y="561.88" fill="none" stroke="#010101" stroke-width="3" stroke-miterlimit="10" width="22.644" height="101.897"/>
	
		<rect x="214.625" y="561.88" fill="none" stroke="#010101" stroke-width="3" stroke-miterlimit="10" width="192.473" height="101.897"/>
	
		<line fill="none" stroke="#010101" stroke-width="3" stroke-miterlimit="10" x1="180.659" y1="584.522" x2="203.303" y2="584.522"/>
	
		<line fill="none" stroke="#010101" stroke-width="3" stroke-miterlimit="10" x1="214.625" y1="584.522" x2="407.098" y2="584.522"/>
	
		<rect x="225.948" y="595.845" fill="none" stroke="#FFFFFF" stroke-width="3" stroke-miterlimit="10" width="33.965" height="56.61"/>
	
		<rect x="350.488" y="595.845" fill="none" stroke="#FFFFFF" stroke-width="3" stroke-miterlimit="10" width="33.966" height="56.61"/>
	<circle fill="none" stroke="#000000" stroke-width="4" stroke-miterlimit="10" cx="305.201" cy="618.488" r="22.644"/>
	<polyline fill="none" stroke="#000000" stroke-width="4" stroke-miterlimit="10" points="225.948,607.166 282.557,607.166 
		305.201,618.488 327.845,607.166 395.777,607.166 	"/>
	<polyline fill="none" stroke="#000000" stroke-width="4" stroke-miterlimit="10" points="225.948,629.811 282.557,629.811 
		305.201,618.488 327.845,629.811 395.777,629.811 	"/>
</g>
<g id="Computer1_4_">
	<path fill="none" stroke="#010101" stroke-width="4" stroke-miterlimit="10" d="M641.917,743.029h226.438
		c0,0,22.645,0.629,22.645-22.015l-23.272-45.288V562.506c0-22.643-22.016-22.014-22.016-22.014H619.272
		c0,0-22.644-1.257-22.644,21.388v113.219l-22.644,45.288c0,0-11.321,22.645,22.644,22.645L641.917,743.029z"/>
	<polygon fill="none" stroke="#010101" stroke-width="3" stroke-miterlimit="10" points="845.712,676.355 619.272,676.355 
		596.629,731.709 868.355,731.709 	"/>
	<g>
		
			<line fill="none" stroke="#010101" stroke-width="3" stroke-miterlimit="10" x1="619.272" y1="687.678" x2="630.595" y2="687.678"/>
		
			<line fill="none" stroke="#010101" stroke-width="3" stroke-miterlimit="10" x1="641.917" y1="687.678" x2="653.239" y2="687.678"/>
		
			<line fill="none" stroke="#010101" stroke-width="3" stroke-miterlimit="10" x1="664.561" y1="687.678" x2="675.883" y2="687.678"/>
		
			<line fill="none" stroke="#010101" stroke-width="3" stroke-miterlimit="10" x1="687.204" y1="687.678" x2="698.526" y2="687.678"/>
		
			<line fill="none" stroke="#010101" stroke-width="3" stroke-miterlimit="10" x1="709.848" y1="687.678" x2="721.17" y2="687.678"/>
		
			<line fill="none" stroke="#010101" stroke-width="3" stroke-miterlimit="10" x1="732.492" y1="687.678" x2="743.814" y2="687.678"/>
		
			<line fill="none" stroke="#010101" stroke-width="3" stroke-miterlimit="10" x1="755.137" y1="687.678" x2="766.458" y2="687.678"/>
		
			<line fill="none" stroke="#010101" stroke-width="3" stroke-miterlimit="10" x1="777.78" y1="687.678" x2="789.102" y2="687.678"/>
		
			<line fill="none" stroke="#010101" stroke-width="3" stroke-miterlimit="10" x1="800.424" y1="687.678" x2="811.746" y2="687.678"/>
		
			<line fill="none" stroke="#010101" stroke-width="3" stroke-miterlimit="10" x1="823.068" y1="687.678" x2="834.391" y2="687.678"/>
	</g>
	<g>
		
			<line fill="none" stroke="#010101" stroke-width="3" stroke-miterlimit="10" x1="619.272" y1="704.031" x2="630.595" y2="704.031"/>
		
			<line fill="none" stroke="#010101" stroke-width="3" stroke-miterlimit="10" x1="641.917" y1="704.031" x2="653.239" y2="704.031"/>
		
			<line fill="none" stroke="#010101" stroke-width="3" stroke-miterlimit="10" x1="664.561" y1="704.031" x2="675.883" y2="704.031"/>
		
			<line fill="none" stroke="#010101" stroke-width="3" stroke-miterlimit="10" x1="687.204" y1="704.031" x2="698.526" y2="704.031"/>
		
			<line fill="none" stroke="#010101" stroke-width="3" stroke-miterlimit="10" x1="709.848" y1="704.031" x2="721.17" y2="704.031"/>
		
			<line fill="none" stroke="#010101" stroke-width="3" stroke-miterlimit="10" x1="732.492" y1="704.031" x2="743.814" y2="704.031"/>
		
			<line fill="none" stroke="#010101" stroke-width="3" stroke-miterlimit="10" x1="755.137" y1="704.031" x2="766.458" y2="704.031"/>
		
			<line fill="none" stroke="#010101" stroke-width="3" stroke-miterlimit="10" x1="777.78" y1="704.031" x2="789.102" y2="704.031"/>
		
			<line fill="none" stroke="#010101" stroke-width="3" stroke-miterlimit="10" x1="800.424" y1="704.031" x2="811.746" y2="704.031"/>
		
			<line fill="none" stroke="#010101" stroke-width="3" stroke-miterlimit="10" x1="823.068" y1="704.031" x2="834.391" y2="704.031"/>
	</g>
	<g>
		
			<line fill="none" stroke="#010101" stroke-width="3" stroke-miterlimit="10" x1="618.015" y1="721.644" x2="629.337" y2="721.644"/>
		
			<line fill="none" stroke="#010101" stroke-width="3" stroke-miterlimit="10" x1="640.658" y1="721.644" x2="651.98" y2="721.644"/>
		
			<line fill="none" stroke="#010101" stroke-width="3" stroke-miterlimit="10" x1="663.303" y1="721.644" x2="674.624" y2="721.644"/>
		
			<line fill="none" stroke="#010101" stroke-width="3" stroke-miterlimit="10" x1="685.946" y1="721.644" x2="697.269" y2="721.644"/>
		
			<line fill="none" stroke="#010101" stroke-width="3" stroke-miterlimit="10" x1="708.591" y1="721.644" x2="719.913" y2="721.644"/>
		
			<line fill="none" stroke="#010101" stroke-width="3" stroke-miterlimit="10" x1="731.234" y1="721.644" x2="742.557" y2="721.644"/>
		<line fill="none" stroke="#010101" stroke-width="3" stroke-miterlimit="10" x1="753.878" y1="721.644" x2="765.2" y2="721.644"/>
		
			<line fill="none" stroke="#010101" stroke-width="3" stroke-miterlimit="10" x1="776.521" y1="721.644" x2="787.844" y2="721.644"/>
		
			<line fill="none" stroke="#010101" stroke-width="3" stroke-miterlimit="10" x1="799.166" y1="721.644" x2="810.488" y2="721.644"/>
		
			<line fill="none" stroke="#010101" stroke-width="3" stroke-miterlimit="10" x1="821.811" y1="721.644" x2="833.133" y2="721.644"/>
	</g>
	<g>
		<g>
			<path fill="#010101" d="M619.272,554.33c4.059,0,4.059-6.29,0-6.29C615.216,548.04,615.216,554.33,619.272,554.33L619.272,554.33
				z"/>
		</g>
	</g>
	<g>
		<g>
			<path fill="#010101" d="M630.595,554.33c4.059,0,4.059-6.29,0-6.29C626.538,548.04,626.538,554.33,630.595,554.33L630.595,554.33
				z"/>
		</g>
	</g>
	<g>
		<g>
			<path fill="#010101" d="M641.917,554.33c4.059,0,4.059-6.29,0-6.29C637.859,548.04,637.859,554.33,641.917,554.33L641.917,554.33
				z"/>
		</g>
	</g>
	
		<line fill="none" stroke="#010101" stroke-width="3" stroke-miterlimit="10" x1="653.239" y1="551.813" x2="845.712" y2="551.813"/>
	
		<rect x="619.272" y="561.88" fill="none" stroke="#010101" stroke-width="3" stroke-miterlimit="10" width="22.645" height="101.897"/>
	
		<rect x="653.239" y="561.88" fill="none" stroke="#010101" stroke-width="3" stroke-miterlimit="10" width="192.473" height="101.897"/>
	
		<line fill="none" stroke="#010101" stroke-width="3" stroke-miterlimit="10" x1="619.272" y1="584.522" x2="641.917" y2="584.522"/>
	
		<line fill="none" stroke="#010101" stroke-width="3" stroke-miterlimit="10" x1="653.239" y1="584.522" x2="845.712" y2="584.522"/>
	
		<rect x="664.561" y="595.845" fill="none" stroke="#FFFFFF" stroke-width="3" stroke-miterlimit="10" width="33.966" height="56.61"/>
	
		<rect x="789.102" y="595.845" fill="none" stroke="#FFFFFF" stroke-width="3" stroke-miterlimit="10" width="33.967" height="56.61"/>
	<circle fill="none" stroke="#000000" stroke-width="4" stroke-miterlimit="10" cx="743.814" cy="618.488" r="22.644"/>
	<polyline fill="none" stroke="#000000" stroke-width="4" stroke-miterlimit="10" points="664.561,607.166 721.17,607.166 
		743.814,618.488 766.458,607.166 834.391,607.166 	"/>
	<polyline fill="none" stroke="#000000" stroke-width="4" stroke-miterlimit="10" points="664.561,629.811 721.17,629.811 
		743.814,618.488 766.458,629.811 834.391,629.811 	"/>
</g>
<g id="Computer1_2_">
	<path fill="none" stroke="#010101" stroke-width="4" stroke-miterlimit="10" d="M203.303,430.425h226.439
		c0,0,22.645,0.629,22.645-22.015l-23.273-45.288v-113.22c0-22.644-22.016-22.015-22.016-22.015H180.659
		c0,0-22.644-1.257-22.644,21.387v113.22l-22.643,45.288c0,0-11.322,22.645,22.643,22.645L203.303,430.425z"/>
	<polygon fill="none" stroke="#010101" stroke-width="3" stroke-miterlimit="10" points="407.098,363.751 180.659,363.751 
		158.016,419.105 429.742,419.105 	"/>
	<g>
		
			<line fill="none" stroke="#010101" stroke-width="3" stroke-miterlimit="10" x1="180.659" y1="375.074" x2="191.981" y2="375.074"/>
		
			<line fill="none" stroke="#010101" stroke-width="3" stroke-miterlimit="10" x1="203.303" y1="375.074" x2="214.625" y2="375.074"/>
		
			<line fill="none" stroke="#010101" stroke-width="3" stroke-miterlimit="10" x1="225.948" y1="375.074" x2="237.269" y2="375.074"/>
		
			<line fill="none" stroke="#010101" stroke-width="3" stroke-miterlimit="10" x1="248.591" y1="375.074" x2="259.913" y2="375.074"/>
		
			<line fill="none" stroke="#010101" stroke-width="3" stroke-miterlimit="10" x1="271.234" y1="375.074" x2="282.557" y2="375.074"/>
		
			<line fill="none" stroke="#010101" stroke-width="3" stroke-miterlimit="10" x1="293.879" y1="375.074" x2="305.201" y2="375.074"/>
		
			<line fill="none" stroke="#010101" stroke-width="3" stroke-miterlimit="10" x1="316.523" y1="375.074" x2="327.845" y2="375.074"/>
		
			<line fill="none" stroke="#010101" stroke-width="3" stroke-miterlimit="10" x1="339.167" y1="375.074" x2="350.488" y2="375.074"/>
		
			<line fill="none" stroke="#010101" stroke-width="3" stroke-miterlimit="10" x1="361.811" y1="375.074" x2="373.133" y2="375.074"/>
		
			<line fill="none" stroke="#010101" stroke-width="3" stroke-miterlimit="10" x1="384.455" y1="375.074" x2="395.777" y2="375.074"/>
	</g>
	<g>
		
			<line fill="none" stroke="#010101" stroke-width="3" stroke-miterlimit="10" x1="180.659" y1="391.427" x2="191.981" y2="391.427"/>
		
			<line fill="none" stroke="#010101" stroke-width="3" stroke-miterlimit="10" x1="203.303" y1="391.427" x2="214.625" y2="391.427"/>
		
			<line fill="none" stroke="#010101" stroke-width="3" stroke-miterlimit="10" x1="225.948" y1="391.427" x2="237.269" y2="391.427"/>
		
			<line fill="none" stroke="#010101" stroke-width="3" stroke-miterlimit="10" x1="248.591" y1="391.427" x2="259.913" y2="391.427"/>
		
			<line fill="none" stroke="#010101" stroke-width="3" stroke-miterlimit="10" x1="271.234" y1="391.427" x2="282.557" y2="391.427"/>
		
			<line fill="none" stroke="#010101" stroke-width="3" stroke-miterlimit="10" x1="293.879" y1="391.427" x2="305.201" y2="391.427"/>
		
			<line fill="none" stroke="#010101" stroke-width="3" stroke-miterlimit="10" x1="316.523" y1="391.427" x2="327.845" y2="391.427"/>
		
			<line fill="none" stroke="#010101" stroke-width="3" stroke-miterlimit="10" x1="339.167" y1="391.427" x2="350.488" y2="391.427"/>
		
			<line fill="none" stroke="#010101" stroke-width="3" stroke-miterlimit="10" x1="361.811" y1="391.427" x2="373.133" y2="391.427"/>
		
			<line fill="none" stroke="#010101" stroke-width="3" stroke-miterlimit="10" x1="384.455" y1="391.427" x2="395.777" y2="391.427"/>
	</g>
	<g>
		<line fill="none" stroke="#010101" stroke-width="3" stroke-miterlimit="10" x1="179.401" y1="409.04" x2="190.723" y2="409.04"/>
		<line fill="none" stroke="#010101" stroke-width="3" stroke-miterlimit="10" x1="202.044" y1="409.04" x2="213.367" y2="409.04"/>
		<line fill="none" stroke="#010101" stroke-width="3" stroke-miterlimit="10" x1="224.689" y1="409.04" x2="236.011" y2="409.04"/>
		<line fill="none" stroke="#010101" stroke-width="3" stroke-miterlimit="10" x1="247.333" y1="409.04" x2="258.655" y2="409.04"/>
		<line fill="none" stroke="#010101" stroke-width="3" stroke-miterlimit="10" x1="269.978" y1="409.04" x2="281.299" y2="409.04"/>
		<line fill="none" stroke="#010101" stroke-width="3" stroke-miterlimit="10" x1="292.621" y1="409.04" x2="303.943" y2="409.04"/>
		<line fill="none" stroke="#010101" stroke-width="3" stroke-miterlimit="10" x1="315.265" y1="409.04" x2="326.587" y2="409.04"/>
		<line fill="none" stroke="#010101" stroke-width="3" stroke-miterlimit="10" x1="337.908" y1="409.04" x2="349.23" y2="409.04"/>
		<line fill="none" stroke="#010101" stroke-width="3" stroke-miterlimit="10" x1="360.553" y1="409.04" x2="371.875" y2="409.04"/>
		<line fill="none" stroke="#010101" stroke-width="3" stroke-miterlimit="10" x1="383.197" y1="409.04" x2="394.519" y2="409.04"/>
	</g>
	<g>
		<g>
			<path fill="#010101" d="M180.659,241.726c4.059,0,4.059-6.29,0-6.29C176.603,235.436,176.603,241.726,180.659,241.726
				L180.659,241.726z"/>
		</g>
	</g>
	<g>
		<g>
			<path fill="#010101" d="M191.981,241.726c4.058,0,4.058-6.29,0-6.29C187.924,235.436,187.924,241.726,191.981,241.726
				L191.981,241.726z"/>
		</g>
	</g>
	<g>
		<g>
			<path fill="#010101" d="M203.303,241.726c4.059,0,4.059-6.29,0-6.29C199.247,235.436,199.247,241.726,203.303,241.726
				L203.303,241.726z"/>
		</g>
	</g>
	<line fill="none" stroke="#010101" stroke-width="3" stroke-miterlimit="10" x1="214.625" y1="239.21" x2="407.098" y2="239.21"/>
	
		<rect x="180.659" y="249.275" fill="none" stroke="#010101" stroke-width="3" stroke-miterlimit="10" width="22.644" height="101.897"/>
	
		<rect x="214.625" y="249.275" fill="none" stroke="#010101" stroke-width="3" stroke-miterlimit="10" width="192.473" height="101.897"/>
	
		<line fill="none" stroke="#010101" stroke-width="3" stroke-miterlimit="10" x1="180.659" y1="271.919" x2="203.303" y2="271.919"/>
	
		<line fill="none" stroke="#010101" stroke-width="3" stroke-miterlimit="10" x1="214.625" y1="271.919" x2="407.098" y2="271.919"/>
	
		<rect x="225.948" y="283.241" fill="none" stroke="#FFFFFF" stroke-width="3" stroke-miterlimit="10" width="33.965" height="56.61"/>
	
		<rect x="350.488" y="283.241" fill="none" stroke="#FFFFFF" stroke-width="3" stroke-miterlimit="10" width="33.966" height="56.61"/>
	<circle fill="none" stroke="#000000" stroke-width="4" stroke-miterlimit="10" cx="305.201" cy="305.885" r="22.644"/>
	<polyline fill="none" stroke="#000000" stroke-width="4" stroke-miterlimit="10" points="225.948,294.563 282.557,294.563 
		305.201,305.885 327.845,294.563 395.777,294.563 	"/>
	<polyline fill="none" stroke="#000000" stroke-width="4" stroke-miterlimit="10" points="225.948,317.207 282.557,317.207 
		305.201,305.885 327.845,317.207 395.777,317.207 	"/>
</g>
<g id="Computer1_1_">
	<path fill="none" stroke="#010101" stroke-width="4" stroke-miterlimit="10" d="M641.917,430.425h226.438
		c0,0,22.645,0.629,22.645-22.015l-23.272-45.288v-113.22c0-22.644-22.016-22.015-22.016-22.015H619.272
		c0,0-22.644-1.257-22.644,21.387v113.22l-22.644,45.288c0,0-11.321,22.645,22.644,22.645L641.917,430.425z"/>
	<polygon fill="none" stroke="#010101" stroke-width="3" stroke-miterlimit="10" points="845.712,363.751 619.272,363.751 
		596.629,419.105 868.355,419.105 	"/>
	<g>
		
			<line fill="none" stroke="#010101" stroke-width="3" stroke-miterlimit="10" x1="619.272" y1="375.074" x2="630.595" y2="375.074"/>
		
			<line fill="none" stroke="#010101" stroke-width="3" stroke-miterlimit="10" x1="641.917" y1="375.074" x2="653.239" y2="375.074"/>
		
			<line fill="none" stroke="#010101" stroke-width="3" stroke-miterlimit="10" x1="664.561" y1="375.074" x2="675.883" y2="375.074"/>
		
			<line fill="none" stroke="#010101" stroke-width="3" stroke-miterlimit="10" x1="687.204" y1="375.074" x2="698.526" y2="375.074"/>
		
			<line fill="none" stroke="#010101" stroke-width="3" stroke-miterlimit="10" x1="709.848" y1="375.074" x2="721.17" y2="375.074"/>
		
			<line fill="none" stroke="#010101" stroke-width="3" stroke-miterlimit="10" x1="732.492" y1="375.074" x2="743.814" y2="375.074"/>
		
			<line fill="none" stroke="#010101" stroke-width="3" stroke-miterlimit="10" x1="755.137" y1="375.074" x2="766.458" y2="375.074"/>
		
			<line fill="none" stroke="#010101" stroke-width="3" stroke-miterlimit="10" x1="777.78" y1="375.074" x2="789.102" y2="375.074"/>
		
			<line fill="none" stroke="#010101" stroke-width="3" stroke-miterlimit="10" x1="800.424" y1="375.074" x2="811.746" y2="375.074"/>
		
			<line fill="none" stroke="#010101" stroke-width="3" stroke-miterlimit="10" x1="823.068" y1="375.074" x2="834.391" y2="375.074"/>
	</g>
	<g>
		
			<line fill="none" stroke="#010101" stroke-width="3" stroke-miterlimit="10" x1="619.272" y1="391.427" x2="630.595" y2="391.427"/>
		
			<line fill="none" stroke="#010101" stroke-width="3" stroke-miterlimit="10" x1="641.917" y1="391.427" x2="653.239" y2="391.427"/>
		
			<line fill="none" stroke="#010101" stroke-width="3" stroke-miterlimit="10" x1="664.561" y1="391.427" x2="675.883" y2="391.427"/>
		
			<line fill="none" stroke="#010101" stroke-width="3" stroke-miterlimit="10" x1="687.204" y1="391.427" x2="698.526" y2="391.427"/>
		
			<line fill="none" stroke="#010101" stroke-width="3" stroke-miterlimit="10" x1="709.848" y1="391.427" x2="721.17" y2="391.427"/>
		
			<line fill="none" stroke="#010101" stroke-width="3" stroke-miterlimit="10" x1="732.492" y1="391.427" x2="743.814" y2="391.427"/>
		
			<line fill="none" stroke="#010101" stroke-width="3" stroke-miterlimit="10" x1="755.137" y1="391.427" x2="766.458" y2="391.427"/>
		
			<line fill="none" stroke="#010101" stroke-width="3" stroke-miterlimit="10" x1="777.78" y1="391.427" x2="789.102" y2="391.427"/>
		
			<line fill="none" stroke="#010101" stroke-width="3" stroke-miterlimit="10" x1="800.424" y1="391.427" x2="811.746" y2="391.427"/>
		
			<line fill="none" stroke="#010101" stroke-width="3" stroke-miterlimit="10" x1="823.068" y1="391.427" x2="834.391" y2="391.427"/>
	</g>
	<g>
		<line fill="none" stroke="#010101" stroke-width="3" stroke-miterlimit="10" x1="618.015" y1="409.04" x2="629.337" y2="409.04"/>
		<line fill="none" stroke="#010101" stroke-width="3" stroke-miterlimit="10" x1="640.658" y1="409.04" x2="651.98" y2="409.04"/>
		<line fill="none" stroke="#010101" stroke-width="3" stroke-miterlimit="10" x1="663.303" y1="409.04" x2="674.624" y2="409.04"/>
		<line fill="none" stroke="#010101" stroke-width="3" stroke-miterlimit="10" x1="685.946" y1="409.04" x2="697.269" y2="409.04"/>
		<line fill="none" stroke="#010101" stroke-width="3" stroke-miterlimit="10" x1="708.591" y1="409.04" x2="719.913" y2="409.04"/>
		<line fill="none" stroke="#010101" stroke-width="3" stroke-miterlimit="10" x1="731.234" y1="409.04" x2="742.557" y2="409.04"/>
		<line fill="none" stroke="#010101" stroke-width="3" stroke-miterlimit="10" x1="753.878" y1="409.04" x2="765.2" y2="409.04"/>
		<line fill="none" stroke="#010101" stroke-width="3" stroke-miterlimit="10" x1="776.521" y1="409.04" x2="787.844" y2="409.04"/>
		<line fill="none" stroke="#010101" stroke-width="3" stroke-miterlimit="10" x1="799.166" y1="409.04" x2="810.488" y2="409.04"/>
		<line fill="none" stroke="#010101" stroke-width="3" stroke-miterlimit="10" x1="821.811" y1="409.04" x2="833.133" y2="409.04"/>
	</g>
	<g>
		<g>
			<path fill="#010101" d="M619.272,241.726c4.059,0,4.059-6.29,0-6.29C615.216,235.436,615.216,241.726,619.272,241.726
				L619.272,241.726z"/>
		</g>
	</g>
	<g>
		<g>
			<path fill="#010101" d="M630.595,241.726c4.059,0,4.059-6.29,0-6.29C626.538,235.436,626.538,241.726,630.595,241.726
				L630.595,241.726z"/>
		</g>
	</g>
	<g>
		<g>
			<path fill="#010101" d="M641.917,241.726c4.059,0,4.059-6.29,0-6.29C637.859,235.436,637.859,241.726,641.917,241.726
				L641.917,241.726z"/>
		</g>
	</g>
	<line fill="none" stroke="#010101" stroke-width="3" stroke-miterlimit="10" x1="653.239" y1="239.21" x2="845.712" y2="239.21"/>
	
		<rect x="619.272" y="249.275" fill="none" stroke="#010101" stroke-width="3" stroke-miterlimit="10" width="22.645" height="101.897"/>
	
		<rect x="653.239" y="249.275" fill="none" stroke="#010101" stroke-width="3" stroke-miterlimit="10" width="192.473" height="101.897"/>
	
		<line fill="none" stroke="#010101" stroke-width="3" stroke-miterlimit="10" x1="619.272" y1="271.919" x2="641.917" y2="271.919"/>
	
		<line fill="none" stroke="#010101" stroke-width="3" stroke-miterlimit="10" x1="653.239" y1="271.919" x2="845.712" y2="271.919"/>
	
		<rect x="664.561" y="283.241" fill="none" stroke="#FFFFFF" stroke-width="3" stroke-miterlimit="10" width="33.966" height="56.61"/>
	
		<rect x="789.102" y="283.241" fill="none" stroke="#FFFFFF" stroke-width="3" stroke-miterlimit="10" width="33.967" height="56.61"/>
	<circle fill="none" stroke="#000000" stroke-width="4" stroke-miterlimit="10" cx="743.814" cy="305.885" r="22.644"/>
	<polyline fill="none" stroke="#000000" stroke-width="4" stroke-miterlimit="10" points="664.561,294.563 721.17,294.563 
		743.814,305.885 766.458,294.563 834.391,294.563 	"/>
	<polyline fill="none" stroke="#000000" stroke-width="4" stroke-miterlimit="10" points="664.561,317.207 721.17,317.207 
		743.814,305.885 766.458,317.207 834.391,317.207 	"/>
</g>
<g id="Computer1">
	<path fill="#FFFFFF" stroke="#010101" stroke-width="4" stroke-miterlimit="10" d="M387.562,586.939h269.489
		c0,0,26.949,0.749,26.949-26.2l-27.697-53.897V372.097c0-26.949-26.201-26.2-26.201-26.2H360.613c0,0-26.948-1.496-26.948,25.453
		v134.745l-26.949,53.897c0,0-13.474,26.949,26.949,26.949L387.562,586.939z"/>
	<polygon fill="none" stroke="#010101" stroke-width="3" stroke-miterlimit="10" points="630.102,507.59 360.613,507.59 
		333.665,573.467 657.051,573.467 	"/>
	<g>
		
			<line fill="none" stroke="#010101" stroke-width="3" stroke-miterlimit="10" x1="360.613" y1="521.064" x2="374.088" y2="521.064"/>
		
			<line fill="none" stroke="#010101" stroke-width="3" stroke-miterlimit="10" x1="387.562" y1="521.064" x2="401.037" y2="521.064"/>
		
			<line fill="none" stroke="#010101" stroke-width="3" stroke-miterlimit="10" x1="414.511" y1="521.064" x2="427.985" y2="521.064"/>
		
			<line fill="none" stroke="#010101" stroke-width="3" stroke-miterlimit="10" x1="441.46" y1="521.064" x2="454.935" y2="521.064"/>
		
			<line fill="none" stroke="#010101" stroke-width="3" stroke-miterlimit="10" x1="468.409" y1="521.064" x2="481.883" y2="521.064"/>
		
			<line fill="none" stroke="#010101" stroke-width="3" stroke-miterlimit="10" x1="495.358" y1="521.064" x2="508.832" y2="521.064"/>
		
			<line fill="none" stroke="#010101" stroke-width="3" stroke-miterlimit="10" x1="522.307" y1="521.064" x2="535.781" y2="521.064"/>
		
			<line fill="none" stroke="#010101" stroke-width="3" stroke-miterlimit="10" x1="549.256" y1="521.064" x2="562.729" y2="521.064"/>
		
			<line fill="none" stroke="#010101" stroke-width="3" stroke-miterlimit="10" x1="576.204" y1="521.064" x2="589.679" y2="521.064"/>
		
			<line fill="none" stroke="#010101" stroke-width="3" stroke-miterlimit="10" x1="603.153" y1="521.064" x2="616.628" y2="521.064"/>
	</g>
	<g>
		
			<line fill="none" stroke="#010101" stroke-width="3" stroke-miterlimit="10" x1="360.613" y1="540.527" x2="374.088" y2="540.527"/>
		
			<line fill="none" stroke="#010101" stroke-width="3" stroke-miterlimit="10" x1="387.562" y1="540.527" x2="401.037" y2="540.527"/>
		
			<line fill="none" stroke="#010101" stroke-width="3" stroke-miterlimit="10" x1="414.511" y1="540.527" x2="427.985" y2="540.527"/>
		
			<line fill="none" stroke="#010101" stroke-width="3" stroke-miterlimit="10" x1="441.46" y1="540.527" x2="454.935" y2="540.527"/>
		
			<line fill="none" stroke="#010101" stroke-width="3" stroke-miterlimit="10" x1="468.409" y1="540.527" x2="481.883" y2="540.527"/>
		
			<line fill="none" stroke="#010101" stroke-width="3" stroke-miterlimit="10" x1="495.358" y1="540.527" x2="508.832" y2="540.527"/>
		
			<line fill="none" stroke="#010101" stroke-width="3" stroke-miterlimit="10" x1="522.307" y1="540.527" x2="535.781" y2="540.527"/>
		
			<line fill="none" stroke="#010101" stroke-width="3" stroke-miterlimit="10" x1="549.256" y1="540.527" x2="562.729" y2="540.527"/>
		
			<line fill="none" stroke="#010101" stroke-width="3" stroke-miterlimit="10" x1="576.204" y1="540.527" x2="589.679" y2="540.527"/>
		
			<line fill="none" stroke="#010101" stroke-width="3" stroke-miterlimit="10" x1="603.153" y1="540.527" x2="616.628" y2="540.527"/>
	</g>
	<g>
		
			<line fill="none" stroke="#010101" stroke-width="3" stroke-miterlimit="10" x1="359.116" y1="561.488" x2="372.591" y2="561.488"/>
		
			<line fill="none" stroke="#010101" stroke-width="3" stroke-miterlimit="10" x1="386.065" y1="561.488" x2="399.54" y2="561.488"/>
		
			<line fill="none" stroke="#010101" stroke-width="3" stroke-miterlimit="10" x1="413.014" y1="561.488" x2="426.488" y2="561.488"/>
		
			<line fill="none" stroke="#010101" stroke-width="3" stroke-miterlimit="10" x1="439.963" y1="561.488" x2="453.438" y2="561.488"/>
		
			<line fill="none" stroke="#010101" stroke-width="3" stroke-miterlimit="10" x1="466.912" y1="561.488" x2="480.386" y2="561.488"/>
		
			<line fill="none" stroke="#010101" stroke-width="3" stroke-miterlimit="10" x1="493.86" y1="561.488" x2="507.335" y2="561.488"/>
		
			<line fill="none" stroke="#010101" stroke-width="3" stroke-miterlimit="10" x1="520.81" y1="561.488" x2="534.284" y2="561.488"/>
		
			<line fill="none" stroke="#010101" stroke-width="3" stroke-miterlimit="10" x1="547.758" y1="561.488" x2="561.232" y2="561.488"/>
		
			<line fill="none" stroke="#010101" stroke-width="3" stroke-miterlimit="10" x1="574.707" y1="561.488" x2="588.182" y2="561.488"/>
		
			<line fill="none" stroke="#010101" stroke-width="3" stroke-miterlimit="10" x1="601.656" y1="561.488" x2="615.131" y2="561.488"/>
	</g>
	<g>
		<g>
			<path fill="#010101" d="M360.613,362.366c4.831,0,4.831-7.486,0-7.486C355.786,354.88,355.786,362.366,360.613,362.366
				L360.613,362.366z"/>
		</g>
	</g>
	<g>
		<g>
			<path fill="#010101" d="M374.088,362.366c4.831,0,4.831-7.486,0-7.486C369.26,354.88,369.26,362.366,374.088,362.366
				L374.088,362.366z"/>
		</g>
	</g>
	<g>
		<g>
			<path fill="#010101" d="M387.562,362.366c4.831,0,4.831-7.486,0-7.486C382.734,354.88,382.734,362.366,387.562,362.366
				L387.562,362.366z"/>
		</g>
	</g>
	
		<line fill="none" stroke="#010101" stroke-width="3" stroke-miterlimit="10" x1="401.037" y1="359.371" x2="630.102" y2="359.371"/>
	
		<rect x="360.613" y="371.35" fill="none" stroke="#010101" stroke-width="3" stroke-miterlimit="10" width="26.949" height="121.27"/>
	
		<rect x="401.037" y="371.35" fill="#FFFFFF" stroke="#010101" stroke-width="3" stroke-miterlimit="10" width="229.065" height="121.27"/>
	
		<line fill="none" stroke="#010101" stroke-width="3" stroke-miterlimit="10" x1="360.613" y1="398.299" x2="387.562" y2="398.299"/>
	
		<line fill="none" stroke="#010101" stroke-width="3" stroke-miterlimit="10" x1="401.037" y1="398.299" x2="630.102" y2="398.299"/>
	
		<rect x="414.511" y="411.773" fill="none" stroke="#FFFFFF" stroke-width="3" stroke-miterlimit="10" width="40.423" height="67.372"/>
	
		<rect x="562.729" y="411.773" fill="none" stroke="#FFFFFF" stroke-width="3" stroke-miterlimit="10" width="40.424" height="67.372"/>
	<circle fill="none" stroke="#000000" stroke-width="4" stroke-miterlimit="10" cx="508.832" cy="438.723" r="26.949"/>
	<polyline fill="none" stroke="#000000" stroke-width="4" stroke-miterlimit="10" points="414.511,425.248 481.883,425.248 
		508.832,438.723 535.781,425.248 616.628,425.248 	"/>
	<polyline fill="none" stroke="#000000" stroke-width="4" stroke-miterlimit="10" points="414.511,452.196 481.883,452.196 
		508.832,438.723 535.781,452.196 616.628,452.196 	"/>
</g>
<line fill="none" stroke="#010101" stroke-width="4" stroke-miterlimit="10" x1="288" y1="432" x2="288" y2="540"/>
<line fill="none" stroke="#010101" stroke-width="4" stroke-miterlimit="10" x1="288" y1="486" x2="333" y2="486"/>
<line fill="none" stroke="#010101" stroke-width="4" stroke-miterlimit="10" x1="702" y1="432" x2="702" y2="540"/>
<line fill="none" stroke="#010101" stroke-width="4" stroke-miterlimit="10" x1="702" y1="486" x2="657" y2="486"/>
</svg>
