<?xml version="1.0" encoding="utf-8"?>
<!-- Generator: Adobe Illustrator 16.0.0, SVG Export Plug-In . SVG Version: 6.00 Build 0)  -->
<!DOCTYPE svg PUBLIC "-//W3C//DTD SVG 1.1//EN" "http://www.w3.org/Graphics/SVG/1.1/DTD/svg11.dtd">
<svg version="1.1" id="Layer_1" xmlns="http://www.w3.org/2000/svg" xmlns:xlink="http://www.w3.org/1999/xlink" x="0px" y="0px"
	 width="1000px" height="1000px" viewBox="0 0 1000 1000" enable-background="new 0 0 1000 1000" xml:space="preserve">
<g id="Layer_1_1_">
	<g id="Layer_3">
		<path fill="#DDDDDD" stroke="#000000" stroke-width="10" stroke-miterlimit="10" d="M500,153.169
			c167.091,0,302.543,135.452,302.543,302.542c0,29.069-4.101,57.182-11.754,83.789c-4.146,14.413-9.335,28.387-15.479,41.83
			C727.601,685.718,622.271,758.252,500,758.253c-129.085,0-239.288-80.845-282.741-194.661c-3.007-7.877-5.694-15.912-8.047-24.089
			c-7.653-26.608-11.754-54.723-11.754-83.792C197.458,288.621,332.911,153.169,500,153.169z"/>
	</g>
	<g>
		<line fill="none" stroke="#000000" stroke-width="3" stroke-miterlimit="10" x1="770.5" y1="578.5" x2="223.421" y2="578.5"/>
	</g>
	<g>
		<line fill="none" stroke="#000000" stroke-width="3" stroke-miterlimit="10" x1="802.51" y1="459.527" x2="197.49" y2="459.527"/>
	</g>
</g>
<g id="Layer_2">
	<path fill="#FFFFFF" stroke="#000000" stroke-miterlimit="10" d="M479.5,527.5c0,6.627-5.372,12-12,12h-113
		c-6.627,0-12-5.373-12-12v-94c0-6.628,5.373-12,12-12h113c6.628,0,12,5.372,12,12V527.5z"/>
	<path fill="#FFFFFF" stroke="#000000" stroke-width="3" stroke-miterlimit="10" d="M645.5,527.5c0,6.627-5.372,12-12,12h-279
		c-6.627,0-12-5.373-12-12v-151c0-6.627,5.373-12,12-12h279c6.628,0,12,5.373,12,12V527.5z"/>
	<polygon fill="#FFFFFF" stroke="#000000" stroke-width="3" stroke-miterlimit="10" points="645.5,527.5 655,510 655,369.5 
		645.5,379 	"/>
	<path fill="none" stroke="#000000" stroke-width="3" stroke-miterlimit="10" d="M352,364.375l284.5,0.125l8-5.75
		c5.941,0,10.75,5.031,10.75,11.25"/>
	<g>
		<polygon fill="#FFFFFF" stroke="#000000" stroke-width="3" stroke-miterlimit="10" points="642.5,358.75 636.5,364.5 
			353.5,364.375 370.5,358.75 		"/>
	</g>
	<path fill="none" stroke="#000000" stroke-width="3" stroke-miterlimit="10" d="M481.5,361c0-4.976,3.132-9,7-9h17
		c3.869,0,7,4.024,7,9"/>
</g>
</svg>
