<?xml version="1.0" encoding="utf-8"?>
<!-- Generator: Adobe Illustrator 16.0.0, SVG Export Plug-In . SVG Version: 6.00 Build 0)  -->
<!DOCTYPE svg PUBLIC "-//W3C//DTD SVG 1.1//EN" "http://www.w3.org/Graphics/SVG/1.1/DTD/svg11.dtd">
<svg version="1.1" id="Layer_1" xmlns="http://www.w3.org/2000/svg" xmlns:xlink="http://www.w3.org/1999/xlink" x="0px" y="0px"
	 width="315px" height="207px" viewBox="-0.0002 0 315 207" enable-background="new -0.0002 0 315 207" xml:space="preserve">
<script  xlink:href="https://cdnjs.cloudflare.com/ajax/libs/snap.svg/0.4.1/snap.svg.js"></script>
<g id="Layer_2">
</g>
<g id="Layer_1_1_">
	<path fill="#FFFFFF" d="M189.8025,177.8906c0,0,10.6152-0.6211,9.6563-8.7578s14.7109,20.7676-13.291,24.6484"/>
	<path fill="#FFFFFF" d="M184.0798,189.0381l1.5352,8.7881c0,0,22.8857-11.2783,21.5518-13.8887
		c-1.334-2.6113-3.7441-5.4551-3.7441-5.4551S186.3572,189.7119,184.0798,189.0381z"/>
	<polygon fill="#FFFFFF" points="98.4998,99.9028 180.4998,110.9883 227.6736,85.7129 178.0916,32.0762 	"/>
	<path fill="#FFFFFF" stroke="#000000" stroke-width="2" stroke-miterlimit="10" d="M182.1218,43.2183
		c0,0-30.6064-51.0142,68.2305-37.6221c0,0,15.9395,2.5508,14.665,14.666c0,0-7.4248,101.8188-47.1865,56.752"/>
	<path fill="#FCFCFC" stroke="#000000" stroke-width="2" stroke-miterlimit="10" d="M177.6453,34.7881
		c0,0-120.5625,24.4868-80.3887,67.4009"/>
	<path fill="#FFFFFF" stroke="#000000" stroke-width="2" stroke-miterlimit="10" d="M225.7625,84.438
		c0,0-20.0176,38.9839-48.1172,29.4194"/>
	<path d="M186.5593,115.3682"/>
	<path fill="none" stroke="#000000" stroke-miterlimit="10" d="M67.5984,125.7266c0,0-21.6807-12.1152-23.5938,13.3906
		c0,0,4.4648,39.5352,41.4482,29.334c0,0,5.9248,0.6367,7.7451-5.1035c1.8193-5.7402,5.6465-20.0625,15.8477-11.3076"/>
	<ellipse cx="20.9236" cy="-266.9819" rx="37.2881" ry="46.0171"/>
	<ellipse cx="42.7029" cy="-255.5688" rx="33.8984" ry="44.5068"/>
	<circle cx="98.2292" cy="-266.969" r="20.3391"/>
	<path fill="#FFFFFF" stroke="#000000" stroke-width="2" stroke-miterlimit="10" d="M123.9861,94.0918c0,0,31.2959,6.3765,46.6006,0
		"/>
	<path d="M114.9998,123.7041c0,0,8,7.8389,11,0.8174c3-7.0225,11.7383,4.5527,7.6191,5.5156"/>
	<path d="M203.4226,183.9375"/>
	<polyline points="197.783,180.5977 200.071,175.6582 200.9167,178.3086 	"/>
	<path fill="none" stroke="#000000" stroke-width="2" stroke-miterlimit="10" d="M82.0398,133.4375c0,0-4.1211,22.7754,11.8594,49.5
		"/>
	<path fill="none" stroke="#000000" stroke-miterlimit="10" d="M90.2449,177.8906c0,0-10.6162-0.6211-9.6572-8.7578
		s-14.7109,20.7676,13.291,24.6484"/>
	<path fill="#FCFAFB" d="M95.9666,189.0381l-1.5342,8.7881c0,0-22.8867-11.2783-21.5527-13.8887
		c1.334-2.6113,3.7441-5.4551,3.7441-5.4551S93.6892,189.7119,95.9666,189.0381z"/>
	<path fill="#FFFFFF" stroke="#000000" stroke-width="2" stroke-miterlimit="10" d="M105.7195,123.7051
		c0,0-17.3027-9.0381-23.6797,9.6855"/>
	<path fill="none" stroke="#000000" stroke-width="2" stroke-miterlimit="10" d="M109.4597,133.3906
		c0,0-34.9863-11.2402-15.5801,32.1191c19.4053,43.3604-16.0439,13.3906-15.5342,14.0293"/>
	<path fill="none" stroke="#000000" stroke-width="2" stroke-miterlimit="10" d="M75.6638,182.7266
		c0,0,22.4883,29.8418,30.0557,6.3125c7.5654-23.5273-13.3447-47.8682,0-47.123"/>
	<path fill="none" stroke="#000000" stroke-miterlimit="10" d="M70.5632,185.915c0,0,12.9512,26.7314,25.1836,14.5518"/>
	<g id="Cup">
		<g>
			<path fill="#FFFFFF" d="M69.6101,126.502c0,0,18.2832-1.5889,20.1689,0.9551c0,0-7.7402,7.1309-7.7402,6.5566
				c0,0-8.2344-0.0205-8.1377-1.9336L69.6101,126.502z"/>
		</g>
		<path d="M91.0544,124.5215c0,1.0947-4.8975,1.9795-10.9385,1.9795c-4.7402,0-8.7754-0.5449-10.2939-1.3096
			c-0.417-0.209-0.6426-0.4355-0.6426-0.6699c0-1.0938,4.8955-1.9805,10.9365-1.9805
			C86.157,122.542,91.0544,123.4297,91.0544,124.5215z"/>
		<path fill="none" stroke="#020202" stroke-miterlimit="10" d="M91.0544,125.6387c-13.1035,19.7988-21.875,0-21.875,0"/>
	</g>
	<circle fill="#FFFFFF" stroke="#000000" stroke-miterlimit="10" cx="88.238" cy="199.582" r="2.0068"/>
	<circle fill="#FFFFFF" stroke="#000000" stroke-miterlimit="10" cx="82.5955" cy="195.8193" r="2.0068"/>
	<circle fill="#FFFFFF" stroke="#000000" stroke-miterlimit="10" cx="77.7048" cy="190.9287" r="2.0068"/>
	<path fill="none" stroke="#000000" stroke-miterlimit="10" d="M71.0232,186.249c-6.749-4.1143,2.8682-17.457,0.9912-14.2178
		c-1.876,3.2402,7.6182,8.291,7.6182,8.291"/>
	<path d="M76.6238,183.9375"/>
	<polyline points="82.2644,180.5977 79.9763,175.6582 79.1296,178.3086 	"/>
	<path fill="none" stroke="#000000" stroke-width="3" stroke-miterlimit="10" d="M151.4998,150.5361
		c0,0,15.334,20.293,3.333,35.7129c-12,15.4199,17.251,19.041,17.792,17.3975c0.541-1.6445-11.459-8.6738-4.459-15.4922
		s7.667-37.418,1-37.6182"/>
	<path display="none" fill="#FFFFFF" d="M152.3025,151.6875l18.2842-0.5801c0,0,4.7949,25.4512,0.1875,32.8301l-12.1924-5.0469
		C158.5808,178.8906,163.4353,166.9746,152.3025,151.6875z"/>
	<path display="none" d="M157.9636,179.2529l11.6641,5.8672c0,0-4.5674,8.876-1.4746,12.5967l4.4727,5.9297
		c0,0-13.5459-0.5898-16.7617-4.3281c-3.2158-3.7373-3.2158-3.7373-3.2158-3.7373S149.4294,190.3301,157.9636,179.2529z"/>
	<g id="Layer_3">
		<g display="none">
			<path display="inline" fill="#FFFFFF" stroke="#000000" stroke-miterlimit="10" d="M200.3347,167.6953
				c0,0-2.1582,12.4746-11.0596,9.5762h-0.6553c9.4531-5.2305,9.1631-45.1914,9.1631-45.1914
				c-5.3838-15.2578-23.7061-9.2305-23.7061-9.2305l-4.5303,10.541c41.5479-11.7793,11.8516,44.7363,11.8516,44.7363
				c-7.9365,23.623,22.0244,0.3555,22.0244,0.3555c0-5.4551-4.0723-10.9609-4.0723-10.9609"/>
		</g>
		<g>
			<path fill="none" stroke="#020202" stroke-miterlimit="10" d="M189.7068,177.8906c0,0,10.6162-0.6211,9.6572-8.7578
				s14.7109,20.7676-13.291,24.6484"/>
			<polyline fill="none" points="197.6882,180.5977 199.9773,175.6582 200.822,178.3086 			"/>
		</g>
		<path fill="#FFFFFF" d="M200.4128,182.9375c0,0,5.7236-8.4834,9.0713-8.543c3.3477-0.0586-4.3252,36.377-23.9111,27.1953
			S200.4128,182.9375,200.4128,182.9375z"/>
		<path d="M153.0554,152.8633"/>
		<path d="M153.0554,152.8633"/>
		<path fill="#FFFFFF" d="M150.4753,148.5137l20.4189,4.3516l17.7266-17.8184c0,0-18.8604-5.9336-19.4912-1.6543
			C168.4998,137.6709,150.4753,148.5137,150.4753,148.5137z"/>
		<path fill="#FFFFFF" d="M150.4753,148.5137l20.4189,4.3516l17.7266-17.8184c0,0-18.8604-5.9336-19.4912-1.6543
			C168.4998,137.6709,150.4753,148.5137,150.4753,148.5137z"/>
		<path fill="#FFFFFF" d="M178.8884,145.5137c0,0-15.8232,54.1367,6.7275,52.3135s0,0,0,0l-0.748-8.8428
			c0,0-10.2197-3.2695-1.2939-17.291c8.9258-14.0225,9.3428-36.1211,5.4678-36.2383
			C185.1667,135.3369,178.8884,145.5137,178.8884,145.5137"/>
		<path d="M189.2751,177.2715"/>
	</g>
	<path fill="none" stroke="#000000" stroke-width="2" stroke-miterlimit="10" d="M198.0066,133.4375
		c0,0,4.1211,22.7754-11.8584,49.5"/>
	<path fill="none" stroke="#000000" stroke-width="2" stroke-miterlimit="10" d="M198.0066,133.3906
		c-6.377-18.7236-23.6787-9.6855-23.6787-9.6855"/>
	<path fill="#FFFFFF" d="M151.4998,150.5361c0,0,15.334,20.293,3.333,35.7129c-12,15.4199,17.251,19.041,17.792,17.3975
		c0.541-1.6445-11.459-8.6738-4.459-15.4922s7.667-37.418,1-37.6182"/>
	<g>
		<path fill="none" stroke="#000000" stroke-width="2" stroke-miterlimit="10" d="M170.5867,133.3906
			c0,0,34.9873-11.2402,15.5801,32.1191c-19.4043,43.3604,16.0439,13.3906,15.5352,14.0293"/>
		<path fill="none" stroke="#000000" stroke-miterlimit="10" d="M204.3826,182.7266c0,0-22.4873,29.8418-30.0547,6.3125
			c-7.5654-23.5273,13.3438-47.8682,0-47.123"/>
		<path fill="none" stroke="#000000" stroke-miterlimit="10" d="M209.4841,185.915c0,0-12.9512,26.7314-25.1846,14.5518"/>
		<circle fill="none" stroke="#000000" stroke-miterlimit="10" cx="191.8093" cy="199.582" r="2.0068"/>
		<circle fill="none" stroke="#000000" stroke-miterlimit="10" cx="197.4519" cy="195.8193" r="2.0068"/>
		<circle fill="none" stroke="#000000" stroke-miterlimit="10" cx="202.3416" cy="190.9287" r="2.0068"/>
		<path fill="none" stroke="#050505" stroke-miterlimit="10" d="M209.0232,186.249c6.749-4.1143-2.8682-17.457-0.9912-14.2178
			c1.876,3.2402-7.6191,8.291-7.6191,8.291"/>
		<line fill="none" stroke="#000000" stroke-miterlimit="10" x1="172.6257" y1="150.5361" x2="177.6453" y2="146.4902"/>
		
			<ellipse transform="matrix(-0.2758 -0.9612 0.9612 -0.2758 82.2253 352.9683)" cx="174.0764" cy="145.5098" rx="1.3472" ry="0.8427"/>
	</g>
	<g>
		<path fill="#FFFFFF" stroke="#231F20" stroke-width="2" stroke-miterlimit="10" d="M173.49,107.1035
			c0.5488,2.4863,0.8379,5.0723,0.8379,7.7246c0,19.7217-15.9873,35.709-35.709,35.709c-19.7207,0-35.709-15.9873-35.709-35.709
			c0-6.5449,1.7607-12.6802,4.835-17.9551"/>
		<path fill="#FFFFFF" stroke="#020202" stroke-miterlimit="10" d="M134.696,127.1318c0,0,7.8037,2.7158,7.8037,13.3838
			c0,0-10.4219,5.5-15.5928,0C126.906,140.5156,126.8914,132.04,134.696,127.1318z"/>
		<line fill="none" stroke="#000000" stroke-miterlimit="10" x1="126.5701" y1="140.3906" x2="141.1697" y2="136.3984"/>
	</g>
	<path d="M243.4998,124.5215"/>
	<path display="none" d="M67.9695,132.0273c0,0-5.4453,3.5313-13.8027,2.0527c-8.3564-1.4785,24.3135,20.2549,18.6572,23.9219"/>
	<path display="none" fill="none" stroke="#000000" stroke-miterlimit="10" d="M123.9861,153.3359
		c0,0-53.1533,24.0215-80.1533-7.8223s18.9443-19.2402,19.3057-19.875"/>
	<path display="none" d="M67.9695,148.5137c0,0,31.0576-14.0293,39.4512-10.1191"/>
	<path d="M172.7742,123.7041"/>
	<path id="eli_1_" display="none" d="M144.4919,113.9336c0,3.7383-2.6299,6.7744-5.873,6.7744c-3.2451,0-5.873-3.0361-5.873-6.7744
		c0-3.7461,2.6279-6.7773,5.873-6.7773C141.8621,107.1563,144.4919,110.1875,144.4919,113.9336z"/>
	<path id="smoke" fill="none" stroke="#050505" stroke-miterlimit="10" d="M72.3328,116.7656c0,0,5.5264-5.457-3.1533-7.3633
		c-8.6807-1.9053-5.7959-8.2383,7.3457-10.4053"/>
	<path id="smoke_1_" fill="none" stroke="#000000" stroke-miterlimit="10" d="M81.4148,109.7656c0,0-5.5254-5.457,3.1543-7.3628
		s5.7949-8.2388-7.3457-10.4058"/>
</g>
<g id="dogi">
	<ellipse id="eli" cx="138.6189" cy="112.127" rx="5.5781" ry="6.2676"/>
</g>
<g id="Layer_4">
</g>
<script  type="text/javascript">
	<![CDATA[

	var s = Snap("#eli");
	//var s2 = Snap("#eli2");
	var animating = false;
	//var matrix = s2.transform().localMatrix;
	console.log(s.attr(""))
	console.log(s)
//console.log(s2)
	//console.log(matrix)
	//console.log(matrix.toTransformString())
	//var tMatrix = matrix.toTransformString()
	/*s.attr({
    fill: "#fc0",
    stroke: "#000",
    strokeWidth: 8, // CamelCase...
    "fill-opacity": 0.5, // or dash-separated names
    width: "*=2" // prefixed values
});*/

var anim1 = function() {
    
	s2.animate({transform:"t293.2798,62.8417, r94.905,0,0"}, 200,anim3)
	
}
var anim3 = function(){
s.animate({ry: 1}, 200,anim2)
//s.scale(2)
//s2.animate({cx: 1}, 200,anim2)
console.log("HERE")
}

var anim2 = function() {
    s.animate({ry: 6.268}, 200,function(){
	
	setTimeout(function(){
	anim3()
	},5000)

	})


}

if(animating == false){
anim3()
console.log(s.attr("rx"))
}


;


		]]>
</script>
</svg>
