<?xml version="1.0" encoding="utf-8"?>
<!-- Generator: Adobe Illustrator 16.0.0, SVG Export Plug-In . SVG Version: 6.00 Build 0)  -->
<!DOCTYPE svg PUBLIC "-//W3C//DTD SVG 1.1//EN" "http://www.w3.org/Graphics/SVG/1.1/DTD/svg11.dtd">
<svg version="1.1" xmlns="http://www.w3.org/2000/svg" xmlns:xlink="http://www.w3.org/1999/xlink" x="0px" y="0px" width="315px"
	 height="207px" viewBox="0 0 315 207" style="enable-background:new 0 0 315 207;" xml:space="preserve">
<style type="text/css">
<![CDATA[
	.st0{display:none;fill:#FFFFFF;stroke:#000000;stroke-width:4;stroke-miterlimit:10;}
	.st1{fill:#FFFFFF;stroke:#000000;stroke-miterlimit:10;}
	.st2{fill:#FFFFFF;stroke:#000000;stroke-width:2;stroke-miterlimit:10;}
	.st3{display:none;fill:#FFFFFF;stroke:#000000;stroke-width:8;stroke-miterlimit:10;}
	.st4{fill:none;stroke:#000000;stroke-width:4;stroke-miterlimit:10;}
	.st5{display:none;stroke:#000000;stroke-width:8;stroke-miterlimit:10;}
	.st6{fill:none;stroke:#000000;stroke-width:3;stroke-miterlimit:10;}
	.st7{fill:none;stroke:#000000;stroke-miterlimit:10;}
	.st8{fill:#FFFFFF;}
	.st9{display:none;fill:#FFFFFF;stroke:#000000;stroke-width:6;stroke-miterlimit:10;}
	.st10{stroke:#000000;stroke-width:8;stroke-miterlimit:10;}
	.st11{fill:#FFFFFF;stroke:#000000;stroke-width:4;stroke-miterlimit:10;}
	.st12{fill:none;stroke:#000000;stroke-width:2;stroke-miterlimit:10;}
]]>
</style>
<g id="Layer_2">
</g>
<g id="Layer_1">
	<path class="st6" d="M198.007,133.438c0,0,4.121,22.775-11.859,49.5"/>
	<path class="st12" d="M189.802,177.89c0,0,10.616-0.62,9.657-8.757s14.711,20.768-13.291,24.648"/>
	<path class="st8" d="M184.08,189.038l1.535,8.788c0,0,22.886-11.278,21.552-13.889s-3.744-5.455-3.744-5.455
		S186.357,189.712,184.08,189.038z"/>
	<polygon class="st8" points="98.5,99.903 180.5,110.989 227.674,85.713 178.092,32.076 	"/>
	<path class="st11" d="M182.122,43.218c0,0-30.607-51.014,68.23-37.622c0,0,15.94,2.551,14.665,14.666
		c0,0-7.424,101.819-47.186,56.752"/>
	<path class="st11" d="M177.645,34.788c0,0-120.562,24.487-80.388,67.401"/>
	<path class="st11" d="M225.762,84.438c0,0-20.017,38.984-48.117,29.42"/>
	<path class="st1" d="M186.559,115.368"/>
	<path class="st11" d="M173.49,107.103c0.549,2.487,0.838,5.073,0.838,7.725c0,19.722-15.987,35.709-35.709,35.709
		c-19.721,0-35.709-15.987-35.709-35.709c0-6.545,1.761-12.68,4.835-17.955"/>
	<path class="st2" d="M91.054,124.522c0,1.094-4.897,1.979-10.938,1.979c-4.74,0-8.775-0.545-10.294-1.309
		c-0.417-0.21-0.643-0.436-0.643-0.671c0-1.094,4.896-1.98,10.937-1.98C86.157,122.542,91.054,123.429,91.054,124.522z"/>
	<path class="st12" d="M69.18,125.638c0,0,8.772,19.799,21.875,0"/>
	<path class="st12" d="M67.598,125.726c0,0-21.68-12.115-23.593,13.391c0,0,4.464,39.536,41.448,29.334c0,0,5.925,0.637,7.745-5.104
		c1.819-5.739,5.646-20.062,15.848-11.307"/>
	<path class="st12" d="M81.589,116.765c0,0,10.441-7.753-6.851-8.945c0,0-19.093-10.136,6.851-13.117"/>
	<path class="st12" d="M95.378,109.402c0,0,5.174-6.683-5.809-7.087"/>
	<ellipse class="st9" cx="20.924" cy="-266.982" rx="37.288" ry="46.017"/>
	<path class="st0" d="M-5.483-256.61c0,0,17.813,6.197,17.813,30.548c0,0-23.791,12.557-35.593,0
		C-23.263-226.063-23.296-245.407-5.483-256.61z"/>
	<line class="st0" x1="-35.263" y1="-211.063" x2="-1.51" y2="-223.546"/>
	<ellipse class="st3" cx="42.703" cy="-255.569" rx="33.898" ry="44.507"/>
	<circle class="st10" cx="138.619" cy="113.54" r="2.551"/>
	<circle class="st5" cx="98.229" cy="-266.969" r="20.339"/>
	<path class="st4" d="M123.986,94.092c0,0,31.296,6.376,46.601,0"/>
	<path class="st6" d="M174.328,123.705c0,0,17.302-9.038,23.679,9.686"/>
	<path class="st6" d="M170.587,133.391c0,0,34.987-11.241,15.58,32.119c-19.405,43.36,16.044,13.391,15.535,14.029"/>
	<path class="st12" d="M204.383,182.727c0,0-22.488,29.841-30.055,6.312c-7.566-23.528,13.344-47.868,0-47.123"/>
	<path class="st12" d="M209.484,185.915c0,0-12.951,26.731-25.184,14.552"/>
	<circle class="st7" cx="191.809" cy="199.582" r="2.007"/>
	<circle class="st7" cx="197.452" cy="195.819" r="2.007"/>
	<circle class="st7" cx="202.342" cy="190.929" r="2.007"/>
	<path class="st2" d="M115,123.704c0,0,8,7.839,11,0.817s11.738,4.553,7.619,5.516"/>
	<path class="st6" d="M209.023,186.249c6.749-4.114-2.868-17.457-0.991-14.217c1.876,3.24-7.619,8.291-7.619,8.291"/>
	<path class="st12" d="M203.423,183.938"/>
	<line class="st12" x1="172.626" y1="150.536" x2="177.645" y2="146.491"/>
	
		<ellipse transform="matrix(0.9612 -0.2758 0.2758 0.9612 -33.3803 53.6527)" class="st7" cx="174.078" cy="145.514" rx="0.843" ry="1.347"/>
	<polyline class="st7" points="197.783,180.597 200.071,175.658 200.917,178.308 	"/>
</g>
</svg>
