<?xml version="1.0" encoding="utf-8"?>
<!-- Generator: Adobe Illustrator 16.0.0, SVG Export Plug-In . SVG Version: 6.00 Build 0)  -->
<!DOCTYPE svg PUBLIC "-//W3C//DTD SVG 1.1//EN" "http://www.w3.org/Graphics/SVG/1.1/DTD/svg11.dtd">
<svg version="1.1" xmlns="http://www.w3.org/2000/svg" xmlns:xlink="http://www.w3.org/1999/xlink" x="0px" y="0px" width="315px"
	 height="207px" viewBox="0 0 315 207" style="enable-background:new 0 0 315 207;" xml:space="preserve">
<style type="text/css">
<![CDATA[
	.st0{fill:#FFFFFF;stroke:#000000;stroke-miterlimit:10;}
	.st1{fill:#FFFFFF;stroke:#000000;stroke-width:2;stroke-miterlimit:10;}
	.st2{fill:#EAA24B;}
	.st3{fill:none;stroke:#050505;stroke-width:2;stroke-miterlimit:10;}
	.st4{opacity:0.7;fill:#EDCCAE;}
	.st5{fill:none;stroke:#231F20;stroke-width:2;stroke-miterlimit:10;}
	.st6{fill:none;stroke:#231F20;stroke-miterlimit:10;}
	.st7{fill:none;stroke:#000000;stroke-width:3;stroke-miterlimit:10;}
	.st8{fill:#FCFCFC;}
	.st9{display:none;fill:none;}
	.st10{fill:none;stroke:#000000;stroke-miterlimit:10;}
	.st11{fill:#FFFFFF;}
	.st12{stroke:#000000;stroke-width:3;stroke-miterlimit:10;}
	.st13{fill:none;stroke:#000000;stroke-width:2;stroke-miterlimit:10;}
	.st14{fill:#D6D6D6;}
	.st15{fill:#FFFFFF;stroke:#231F20;stroke-miterlimit:10;}
	.st16{fill:#FFFFFF;stroke:#000000;stroke-width:3;stroke-miterlimit:10;}
	.st17{display:none;opacity:0.4;fill:#EAA24B;}
]]>
</style>
<g id="svg4198" xmlns:inkscape="http://www.inkscape.org/namespaces/inkscape" xmlns:rdf="http://www.w3.org/1999/02/22-rdf-syntax-ns#" xmlns:svg="http://www.w3.org/2000/svg" xmlns:cc="http://creativecommons.org/ns#" xmlns:dc="http://purl.org/dc/elements/1.1/" xmlns:sodipodi="http://sodipodi.sourceforge.net/DTD/sodipodi-0.dtd" sodipodi:docname="squi.svg" inkscape:version="0.92.4 (5da689c313, 2019-01-14)">
	
		<sodipodi:namedview  pagecolor="#ffffff" id="namedview4200" borderopacity="1" bordercolor="#666666" objecttolerance="10" gridtolerance="10" guidetolerance="10" showgrid="false" inkscape:zoom="2.589372" inkscape:cx="157.5" inkscape:cy="103.5" inkscape:window-maximized="1" inkscape:window-height="705" inkscape:window-x="-8" inkscape:current-layer="svg4198" inkscape:window-y="-8" inkscape:window-width="1366" inkscape:pageopacity="0" inkscape:pageshadow="2">
		</sodipodi:namedview>
	<script  id="script4044" xlink:href="https://cdnjs.cloudflare.com/ajax/libs/snap.svg/0.4.1/snap.svg.js"></script>
	<g id="Layer_2">
	</g>
	<g id="Layer_1">
		<path id="path4049" class="st11" d="M189.802,177.891c0,0,10.614-0.621,9.655-8.758s14.711,20.768-13.291,24.648"/>
		<path id="path4051" class="st11" d="M184.08,189.038l1.535,8.788c0,0,22.886-11.278,21.552-13.889
			c-1.334-2.611-3.744-5.455-3.744-5.455S186.357,189.712,184.08,189.038z"/>
		<polygon id="polygon4053" class="st11" points="98.5,99.903 180.5,110.988 227.674,85.713 178.092,32.076 		"/>
		<path id="HEADPOINT" class="st16" d="M182.122,43.218c0,0-30.605-51.014,68.23-37.622c0,0,15.938,2.551,14.665,14.666
			c0,0-7.426,101.819-47.188,56.752"/>
		<path id="LEFT_HEAD" class="st16" d="M177.645,34.788c0,0-120.563,24.487-80.39,67.401"/>
		<path id="RIGHT_HEAD" class="st7" d="M225.762,84.438c0,0-20.019,38.984-48.117,29.419"/>
		<path id="path4061" d="M186.559,115.368"/>
		<path id="path4063" class="st3" d="M67.598,125.727c0,0-21.682-12.115-23.595,13.392c0,0,4.466,39.534,41.448,29.334
			c0,0,5.925,0.637,7.745-5.104c1.819-5.74,5.646-20.063,15.848-11.308"/>
		<ellipse id="ellipse4065" cx="20.924" cy="-266.982" rx="37.288" ry="46.017"/>
		<ellipse id="ellipse4067" cx="42.703" cy="-255.569" rx="33.898" ry="44.507"/>
		<circle id="circle4069" cx="98.229" cy="-266.969" r="20.339"/>
		<path id="path4071" class="st7" d="M123.986,94.092c0,0,31.296,6.376,46.601,0"/>
		<path id="path4073" d="M115,123.704c0,0,8,7.839,11,0.817c3-7.022,11.738,4.553,7.619,5.516"/>
		<path id="path4075" d="M203.423,183.938"/>
		<polyline id="polyline4077" points="197.783,180.598 200.071,175.658 200.917,178.309 		"/>
		<path id="path4079" d="M82.04,133.438c0,0-4.121,22.775,11.859,49.5"/>
		<path id="path4081" d="M90.245,177.891c0,0-10.616-0.621-9.657-8.758S65.877,189.9,93.879,193.781"/>
		<path id="path4083" d="M95.967,189.038l-1.533,8.788c0,0-22.888-11.278-21.554-13.889c1.334-2.611,3.744-5.455,3.744-5.455
			S93.689,189.712,95.967,189.038z"/>
		<path id="path4085" d="M105.719,123.705c0,0-17.304-9.038-23.681,9.686"/>
		<path id="path4087" d="M109.46,133.391c0,0-34.985-11.24-15.58,32.119c19.405,43.36-16.044,13.391-15.533,14.029"/>
		<path id="path4089" d="M75.664,182.727c0,0,22.488,29.842,30.057,6.313c7.564-23.526-13.346-47.868,0-47.123"/>
		<path id="path4091" d="M70.563,185.915c0,0,12.951,26.731,25.184,14.552"/>
		<g id="Cup">
			<g id="g4095">
				<path id="path4093" class="st11" d="M69.61,126.502c0,0,18.283-1.589,20.169,0.955c0,0-7.74,7.131-7.74,6.557
					c0,0-8.233-0.021-8.138-1.934L69.61,126.502z"/>
			</g>
			<path id="path4097" d="M91.054,124.521c0,1.095-4.897,1.979-10.938,1.979c-4.74,0-8.775-0.545-10.294-1.311
				c-0.417-0.209-0.643-0.436-0.643-0.67c0-1.094,4.896-1.979,10.937-1.979C86.157,122.542,91.054,123.43,91.054,124.521z"/>
			<path class="st17" d="M77.17,134.162c-0.087-0.035-0.173-0.073-0.259-0.115l0.431-2.922c0,0,1.617,0.75,3.013-0.83"/>
			<path class="st17" d="M80.354,130.295c0.07-0.079,0.14-0.165,0.209-0.257c0,0,2.097,1.665,5.58-0.187c0,0-5,5.899-8.973,4.311"/>
			<path class="st17" d="M76.524,133.771c0,0-6.127-4.556-6.15-5.942c0,0-1.029-2.551,0.726-2.19c0,0,5.544,5.188,9.597,4.399
				c0,0-0.076,0.267-0.223,0.663"/>
			<path id="path4099" class="st13" d="M91.054,125.639c-4.954,7.484-9.289,9.311-12.765,8.686c-5.718-1.027-9.11-8.686-9.11-8.686"
				/>
		</g>
		<circle id="circle4102" cx="88.238" cy="199.582" r="2.007"/>
		<circle id="circle4104" cx="82.595" cy="195.819" r="2.007"/>
		<circle id="circle4106" cx="77.705" cy="190.929" r="2.007"/>
		<path id="path4108" d="M71.023,186.249c-6.749-4.114,2.868-17.457,0.991-14.218c-1.876,3.24,7.617,8.291,7.617,8.291"/>
		<path id="path4110" d="M76.624,183.938"/>
		<polyline id="polyline4112" points="82.264,180.598 79.976,175.658 79.13,178.309 		"/>
		<path id="path4114" class="st12" d="M151.5,150.536c0,0,15.334,20.293,3.333,35.713c-12,15.42,17.251,19.041,17.792,17.397
			c0.541-1.646-11.459-8.674-4.459-15.492s7.667-37.418,1-37.618"/>
		<path id="path4116" d="M152.302,151.688l18.283-0.58c0,0,4.795,25.451,0.188,32.83l-12.192-5.047
			C158.581,178.891,163.435,166.975,152.302,151.688z"/>
		<path id="path4118" d="M157.964,179.253l11.664,5.867c0,0-4.566,8.876-1.475,12.597l4.473,5.93c0,0-13.546-0.59-16.762-4.328
			c-3.216-3.736-3.216-3.736-3.216-3.736S149.429,190.33,157.964,179.253z"/>
		<g id="RIGHT2">
			<g id="g4122">
				<path id="path4120" class="st6" d="M200.335,167.695c0,0-2.157,12.475-11.06,9.576h-0.655c9.453-5.23,9.163-45.191,9.163-45.191
					c-5.384-15.258-23.706-9.23-23.706-9.23l-4.53,10.541c41.549-11.779,11.853,44.736,11.853,44.736
					c-7.938,23.623,22.023,0.355,22.023,0.355c0-5.455-4.071-10.961-4.071-10.961"/>
			</g>
			<g id="g4128">
				<path id="path4124" class="st6" d="M189.707,177.891c0,0,10.616-0.621,9.657-8.758s14.711,20.768-13.291,24.648"/>
				<polyline id="polyline4126" class="st10" points="197.688,180.598 199.977,175.658 200.822,178.309 				"/>
			</g>
			<path id="path4130" class="st11" d="M200.413,182.938c0,0,5.725-8.482,9.071-8.543c3.348-0.059-4.325,36.377-23.911,27.195
				S200.413,182.938,200.413,182.938z"/>
			<path id="path4132" d="M153.055,152.863"/>
			<path id="path4134" d="M153.055,152.863"/>
			<path id="path4136" class="st11" d="M150.475,148.514l20.419,4.353l17.727-17.818c0,0-18.859-5.935-19.491-1.653
				C168.5,137.671,150.475,148.514,150.475,148.514z"/>
			<path id="path4138" class="st11" d="M150.475,148.514l20.419,4.353l17.727-17.818c0,0-18.859-5.935-19.491-1.653
				C168.5,137.671,150.475,148.514,150.475,148.514z"/>
			<path id="path4140" class="st11" d="M178.888,145.514c0,0-15.823,54.137,6.728,52.313c22.551-1.824,0,0,0,0l-0.748-8.843
				c0,0-10.22-3.271-1.294-17.291c8.926-14.022,9.343-36.121,5.468-36.238C185.167,135.337,178.888,145.514,178.888,145.514"/>
			<path id="path4142" d="M189.275,177.271"/>
		</g>
		<path id="path4145" class="st13" d="M198.007,133.438c0,0,4.121,22.775-11.857,49.5"/>
		<path id="path4147" class="st5" d="M198.007,133.391c-6.377-18.724-23.679-9.686-23.679-9.686"/>
		<path id="RIGHT_1" class="st8" d="M151.5,150.536c0,0,15.334,20.293,3.333,35.713c-12,15.42,17.251,19.041,17.792,17.397
			c0.541-1.646-11.459-8.674-4.459-15.492s7.667-37.418,1-37.618"/>
		<g id="RightTwo">
			<path id="path4151" class="st5" d="M170.587,133.391c0,0,34.987-11.24,15.58,32.119c-19.403,43.36,16.044,13.391,15.535,14.029"
				/>
			<path id="path4153" class="st5" d="M204.383,182.727c0,0-22.486,29.842-30.055,6.313c-7.564-23.526,13.344-47.868,0-47.123"/>
			<path id="path4155" class="st1" d="M209.484,185.915c0,0-12.951,26.731-25.186,14.552"/>
			<circle id="circle4157" class="st0" cx="191.809" cy="199.582" r="2.007"/>
			<circle id="circle4159" class="st15" cx="197.452" cy="195.819" r="2.007"/>
			<circle id="circle4161" class="st15" cx="202.342" cy="190.929" r="2.007"/>
			<path id="path4163" class="st10" d="M209.023,186.249c6.749-4.114-2.868-17.457-0.991-14.218c1.876,3.24-7.619,8.291-7.619,8.291
				"/>
			<line id="line4165" class="st5" x1="172.626" y1="150.536" x2="177.645" y2="146.49"/>
			
				<ellipse id="ellipse4167" transform="matrix(-0.9612 0.2758 -0.2758 -0.9612 381.5392 237.3761)" class="st15" cx="174.079" cy="145.515" rx="0.843" ry="1.346"/>
		</g>
		<g id="FACE">
			<path id="path4171" class="st16" d="M173.49,107.104c0.549,2.486,0.838,5.072,0.838,7.726c0,19.722-15.987,35.709-35.709,35.709
				c-19.721,0-35.709-15.987-35.709-35.709c0-6.545,1.761-12.68,4.835-17.955"/>
			<path id="path4173" class="st13" d="M134.696,127.132c0,0,7.804,2.716,7.804,13.384c0,0-10.422,5.5-15.593,0
				C126.906,140.516,126.891,132.04,134.696,127.132z"/>
			<line id="line4175" class="st13" x1="126.57" y1="140.391" x2="141.17" y2="136.398"/>
		</g>
		<path id="path4179" d="M243.5,124.521"/>
		<path id="path4181" d="M67.969,132.027c0,0-5.445,3.531-13.804,2.053c-8.355-1.479,24.313,20.255,18.657,23.922"/>
		<path id="path4183" class="st9" d="M123.986,153.336c0,0-53.153,24.021-80.153-7.822c-27-31.843,18.944-19.24,19.307-19.875"/>
		<path id="path4185" d="M67.969,148.514c0,0,31.058-14.029,39.45-10.119"/>
		<path id="path4187" d="M172.774,123.704"/>
		<path id="eli_1_" d="M144.492,113.934c0,3.738-2.63,6.774-5.873,6.774c-3.245,0-5.873-3.036-5.873-6.774
			c0-3.746,2.628-6.777,5.873-6.777C141.862,107.156,144.492,110.188,144.492,113.934z"/>
		<path id="smoke" class="st10" d="M72.333,116.766c0,0,5.526-5.457-3.152-7.363c-8.682-1.904-5.797-8.237,7.346-10.404"/>
		<path id="smoke_1_" class="st10" d="M81.415,109.766c0,0-5.524-5.457,3.154-7.363s5.795-8.239-7.346-10.406"/>
	</g>
	<g id="dogi">
		<ellipse id="eli" cx="138.619" cy="112.127" rx="5.578" ry="6.268"/>
	</g>
	<g id="Layer_4">
	</g>
	<script  type="text/javascript" id="script4196">
		<![CDATA[

	var s = Snap("#eli");
	//var s2 = Snap("#eli2");
	var animating = false;
	//var matrix = s2.transform().localMatrix;
	console.log(s.attr(""))
	console.log(s)
//console.log(s2)
	//console.log(matrix)
	//console.log(matrix.toTransformString())
	//var tMatrix = matrix.toTransformString()
	/*s.attr({
    fill: "#fc0",
    stroke: "#000",
    strokeWidth: 8, // CamelCase...
    "fill-opacity": 0.5, // or dash-separated names
    width: "*=2" // prefixed values
});*/

var anim1 = function() {
    
	s2.animate({transform:"t293.2798,62.8417, r94.905,0,0"}, 200,anim3)
	
}
var anim3 = function(){
s.animate({ry: 1}, 200,anim2)
//s.scale(2)
//s2.animate({cx: 1}, 200,anim2)
console.log("HERE")
}

var anim2 = function() {
    s.animate({ry: 6.268}, 200,function(){
	
	setTimeout(function(){
	anim3()
	},5000)

	})


}

if(animating == false){
anim3()
console.log(s.attr("rx"))
}


;


		
			]]>
	</script>
	<g id="çover_copy">
		<path class="st14" d="M220.527,71.709c6.309-5.756,25.712-25.451,33.979-56.635c0,0,4.396,77.233-27.845,63.334"/>
		<path class="st14" d="M228.661,79.992c-1.07-0.474-2.182-1.049-3.335-1.734"/>
		<polygon class="st11" points="254.692,21.447 252.624,21.424 254.535,14.582 		"/>
	</g>
	<g id="çover">
		<path class="st14" d="M192.321,41.935c6.636-5.529,29.068-22.281,61.804-26.524c0,0-77.994-14.171-67.856,19.586"/>
		<path class="st14" d="M186.268,34.997c0.337,1.121,0.771,2.295,1.308,3.524"/>
		<polygon class="st11" points="247.667,14.417 247.434,16.473 254.629,15.445 		"/>
	</g>
	<path class="st7" d="M189.47,37c0,0-27.281-32.951,58.196-21.781"/>
	<path class="st7" d="M223.504,73.295c0,0,27.281,32.38,32.188-51.532"/>
	<g id="GILLS">
		<line class="st13" x1="192.316" y1="32.076" x2="186.484" y2="24.954"/>
		<line class="st13" x1="201.704" y1="30.667" x2="190.484" y2="18.954"/>
		<line class="st13" x1="209.704" y1="26.667" x2="198.484" y2="14.954"/>
		<line class="st13" x1="220.704" y1="25.667" x2="209.484" y2="13.954"/>
		<line class="st13" x1="230.375" y1="22.279" x2="221.813" y2="13.341"/>
		<line class="st13" x1="242.927" y1="22.34" x2="235.056" y2="13.377"/>
	</g>
	<g id="GILLS_1_">
		<line class="st13" x1="227.704" y1="72.682" x2="233.505" y2="79.829"/>
		<line class="st13" x1="230.974" y1="63.771" x2="240.187" y2="77.12"/>
		<line class="st13" x1="236.506" y1="56.74" x2="245.718" y2="70.09"/>
		<line class="st13" x1="239.7" y1="46.167" x2="248.912" y2="59.517"/>
		<line class="st13" x1="244.966" y1="37.377" x2="251.996" y2="47.564"/>
		<line class="st13" x1="247.434" y1="25.069" x2="254.629" y2="34.584"/>
	</g>
	
		<ellipse transform="matrix(-0.7883 -0.6153 0.6153 -0.7883 289.4495 281.6178)" class="st1" cx="193.173" cy="91.013" rx="16.439" ry="10.549"/>
	
		<ellipse transform="matrix(0.4898 -0.8718 0.8718 0.4898 36.2563 212.6765)" class="st0" cx="199.844" cy="75.36" rx="2.568" ry="4.662"/>
	
		<ellipse transform="matrix(0.734 -0.6791 0.6791 0.734 -2.2992 166.8336)" class="st1" cx="211.839" cy="86.352" rx="3.798" ry="6.896"/>
	<path class="st10" d="M98.5,76.256c0,0,2.32-5.142,4.41-3.574c0,0-2.59,4.154,0,5.236"/>
	<path class="st2" d="M51.25,88.524"/>
</g>
<g id="Layer_4_1_">
	<path class="st4" d="M70.074,125.304c0,0,10.217,8.315,16.467,4.548c0,0-5.187,6.188-11.156,2.377
		C75.385,132.229,71.648,129.44,70.074,125.304z"/>
</g>
</svg>
