<?xml version="1.0" encoding="utf-8"?>
<!-- Generator: Adobe Illustrator 16.0.0, SVG Export Plug-In . SVG Version: 6.00 Build 0)  -->
<!DOCTYPE svg PUBLIC "-//W3C//DTD SVG 1.1//EN" "http://www.w3.org/Graphics/SVG/1.1/DTD/svg11.dtd">
<svg version="1.1" xmlns="http://www.w3.org/2000/svg" xmlns:xlink="http://www.w3.org/1999/xlink" x="0px" y="0px" width="315px"
	 height="207px" viewBox="0 0 315 207" style="enable-background:new 0 0 315 207;" xml:space="preserve">
<style type="text/css">
<![CDATA[
	.st0{fill:#FFFFFF;stroke:#000000;stroke-miterlimit:10;}
	.st1{fill:#FFFFFF;stroke:#000000;stroke-width:2;stroke-miterlimit:10;}
	.st2{display:none;fill:#FFFFFF;stroke:#000000;stroke-width:8;stroke-miterlimit:10;}
	.st3{fill:none;stroke:#000000;stroke-width:4;stroke-miterlimit:10;}
	.st4{display:none;stroke:#000000;stroke-width:8;stroke-miterlimit:10;}
	.st5{fill:#F9F9FA;}
	.st6{fill:none;stroke:#000000;stroke-width:3;stroke-miterlimit:10;}
	.st7{fill:none;stroke:#000000;stroke-miterlimit:10;}
	.st8{fill:#FFFFFF;}
	.st9{display:none;fill:none;stroke:#000000;stroke-width:3;stroke-miterlimit:10;}
	.st10{display:none;fill:#FFFFFF;stroke:#000000;stroke-width:6;stroke-miterlimit:10;}
	.st11{stroke:#000000;stroke-width:8;stroke-miterlimit:10;}
	.st12{fill:#FFFFFF;stroke:#000000;stroke-width:4;stroke-miterlimit:10;}
	.st13{fill:none;stroke:#000000;stroke-width:2;stroke-miterlimit:10;}
	.st14{display:none;fill:none;stroke:#000000;stroke-width:2;stroke-miterlimit:10;}
]]>
</style>
<g id="Layer_2">
</g>
<g id="Layer_1">
	<path class="st8" d="M189.802,177.89c0,0,10.616-0.62,9.657-8.757s14.711,20.768-13.291,24.648"/>
	<path class="st8" d="M184.08,189.038l1.535,8.788c0,0,22.886-11.278,21.552-13.889s-3.744-5.455-3.744-5.455
		S186.357,189.712,184.08,189.038z"/>
	<polygon class="st8" points="98.5,99.903 180.5,110.989 227.674,85.713 178.092,32.076 	"/>
	<path class="st12" d="M182.122,43.218c0,0-30.607-51.014,68.23-37.622c0,0,15.94,2.551,14.665,14.666
		c0,0-7.424,101.819-47.186,56.752"/>
	<path class="st12" d="M177.645,34.788c0,0-120.562,24.487-80.388,67.401"/>
	<path class="st12" d="M225.762,84.438c0,0-20.017,38.984-48.117,29.42"/>
	<path class="st0" d="M186.559,115.368"/>
	<path class="st13" d="M67.598,125.726c0,0-21.68-12.115-23.593,13.391c0,0,4.464,39.536,41.448,29.334c0,0,5.925,0.637,7.745-5.104
		c1.819-5.739,5.646-20.062,15.848-11.307"/>
	<path class="st13" d="M81.589,116.765c0,0,10.441-7.753-6.851-8.945c0,0-19.093-10.136,6.851-13.117"/>
	<path class="st13" d="M95.378,109.402c0,0,5.174-6.683-5.809-7.087"/>
	<ellipse class="st10" cx="20.924" cy="-266.982" rx="37.288" ry="46.017"/>
	<ellipse class="st2" cx="42.703" cy="-255.569" rx="33.898" ry="44.507"/>
	<circle class="st4" cx="98.229" cy="-266.969" r="20.339"/>
	<path class="st3" d="M123.986,94.092c0,0,31.296,6.376,46.601,0"/>
	<path class="st1" d="M115,123.704c0,0,8,7.839,11,0.817s11.738,4.553,7.619,5.516"/>
	<path class="st13" d="M203.423,183.938"/>
	<polyline class="st7" points="197.783,180.597 200.071,175.658 200.917,178.308 	"/>
	<path class="st9" d="M82.04,133.438c0,0-4.121,22.775,11.859,49.5"/>
	<path class="st13" d="M90.245,177.89c0,0-10.616-0.62-9.657-8.757S65.877,189.9,93.879,193.781"/>
	<path class="st8" d="M95.967,189.038l-1.535,8.788c0,0-22.886-11.278-21.552-13.889s3.744-5.455,3.744-5.455
		S93.689,189.712,95.967,189.038z"/>
	<path class="st6" d="M105.719,123.705c0,0-17.302-9.038-23.679,9.686"/>
	<path class="st6" d="M109.46,133.391c0,0-34.987-11.241-15.58,32.119c19.405,43.36-16.044,13.391-15.535,14.029"/>
	<path class="st13" d="M75.664,182.727c0,0,22.488,29.841,30.055,6.312c7.566-23.528-13.344-47.868,0-47.123"/>
	<path class="st13" d="M70.563,185.915c0,0,12.951,26.731,25.184,14.552"/>
	<g id="Cup">
		<g>
			<path class="st5" d="M69.61,126.502c0,0,18.283-1.589,20.169,0.955c0,0-7.74,7.131-7.74,6.556c0,0-8.235-0.02-8.138-1.933
				L69.61,126.502z"/>
		</g>
		<path class="st1" d="M91.054,124.522c0,1.094-4.897,1.979-10.938,1.979c-4.74,0-8.775-0.545-10.294-1.309
			c-0.417-0.21-0.643-0.436-0.643-0.671c0-1.094,4.896-1.98,10.937-1.98C86.157,122.542,91.054,123.429,91.054,124.522z"/>
		<path class="st13" d="M91.054,125.638c-13.103,19.799-21.875,0-21.875,0"/>
	</g>
	<circle class="st7" cx="88.238" cy="199.582" r="2.007"/>
	<circle class="st7" cx="82.595" cy="195.819" r="2.007"/>
	<circle class="st7" cx="77.705" cy="190.929" r="2.007"/>
	<path class="st6" d="M71.023,186.249c-6.749-4.114,2.868-17.457,0.991-14.217c-1.876,3.24,7.619,8.291,7.619,8.291"/>
	<path class="st13" d="M76.624,183.938"/>
	<polyline class="st7" points="82.264,180.597 79.976,175.658 79.13,178.308 	"/>
	<path class="st9" d="M151.5,150.536c0,0,15.334,20.293,3.333,35.713c-12,15.42,17.251,19.041,17.792,17.397
		s-11.459-8.674-4.459-15.492s7.667-37.418,1-37.618"/>
	<path class="st8" d="M152.302,151.687l18.285-0.579c0,0,4.795,25.451,0.187,32.83l-12.192-5.048
		C158.581,178.89,163.435,166.975,152.302,151.687z"/>
	<path class="st8" d="M157.964,179.253l11.664,5.867c0,0-4.568,8.876-1.475,12.597l4.473,5.93c0,0-13.546-0.59-16.762-4.328
		s-3.216-3.738-3.216-3.738S149.429,190.33,157.964,179.253z"/>
	<g id="Layer_3">
		<path class="st8" d="M199.35,167.522c0,0,4.073,5.505,4.073,10.96c0,0-29.961,23.268-22.025-0.355
			c0,0,29.696-56.517-11.851-44.736l4.53-10.541c0,0,18.322-6.027,23.706,9.23c0,0,0.29,39.961-9.163,45.192"/>
		<path class="st8" d="M200.413,182.938c0,0,5.723-8.484,9.071-8.543s-4.325,36.377-23.911,27.195S200.413,182.938,200.413,182.938z
			"/>
		<path class="st6" d="M153.055,152.864"/>
		<path class="st6" d="M153.055,152.864"/>
		<path class="st8" d="M150.475,148.514l20.419,4.351l17.727-17.818c0,0-18.861-5.934-19.491-1.655S150.475,148.514,150.475,148.514
			z"/>
		<path class="st8" d="M150.475,148.514l20.419,4.351l17.727-17.818c0,0-18.861-5.934-19.491-1.655S150.475,148.514,150.475,148.514
			z"/>
		<path class="st8" d="M178.888,145.514c0,0-15.823,54.136,6.728,52.313s0,0,0,0l-0.748-8.842c0,0-10.22-3.27-1.294-17.292
			s9.343-36.12,5.468-36.238S178.888,145.514,178.888,145.514"/>
	</g>
	<path class="st6" d="M198.007,133.438c0,0,4.121,22.775-11.859,49.5"/>
	<path class="st6" d="M198.007,133.391c-6.377-18.724-23.679-9.686-23.679-9.686"/>
	<path class="st6" d="M151.5,150.536c0,0,15.334,20.293,3.333,35.713c-12,15.42,17.251,19.041,17.792,17.397
		s-11.459-8.674-4.459-15.492s7.667-37.418,1-37.618"/>
	<g>
		<path class="st6" d="M170.587,133.391c0,0,34.987-11.241,15.58,32.119c-19.405,43.36,16.044,13.391,15.535,14.029"/>
		<path class="st13" d="M204.383,182.727c0,0-22.488,29.841-30.055,6.312c-7.566-23.528,13.344-47.868,0-47.123"/>
		<path class="st13" d="M209.484,185.915c0,0-12.951,26.731-25.184,14.552"/>
		<circle class="st7" cx="191.809" cy="199.582" r="2.007"/>
		<circle class="st7" cx="197.452" cy="195.819" r="2.007"/>
		<circle class="st7" cx="202.342" cy="190.929" r="2.007"/>
		<path class="st6" d="M209.023,186.249c6.749-4.114-2.868-17.457-0.991-14.217c1.876,3.24-7.619,8.291-7.619,8.291"/>
		<line class="st13" x1="172.626" y1="150.536" x2="177.645" y2="146.491"/>
		
			<ellipse transform="matrix(0.9612 -0.2758 0.2758 0.9612 -33.3803 53.6527)" class="st7" cx="174.078" cy="145.514" rx="0.843" ry="1.347"/>
	</g>
	<g>
		<path class="st12" d="M173.49,107.103c0.549,2.487,0.838,5.073,0.838,7.725c0,19.722-15.987,35.709-35.709,35.709
			c-19.721,0-35.709-15.987-35.709-35.709c0-6.545,1.761-12.68,4.835-17.955"/>
		<path class="st1" d="M134.696,127.132c0,0,7.804,2.715,7.804,13.383c0,0-10.422,5.501-15.593,0
			C126.906,140.515,126.891,132.04,134.696,127.132z"/>
		<line class="st1" x1="126.57" y1="140.391" x2="141.17" y2="136.398"/>
		<circle class="st11" cx="138.619" cy="113.54" r="2.551"/>
	</g>
	<path class="st6" d="M243.5,124.521"/>
	<path class="st14" d="M67.969,132.028c0,0-5.445,3.531-13.802,2.052s24.313,20.255,18.657,23.922"/>
	<path class="st14" d="M123.986,153.336c0,0-53.153,24.022-80.153-7.822s18.944-19.24,19.305-19.876"/>
	<path class="st14" d="M67.969,148.514c0,0,31.058-14.029,39.452-10.119"/>
	<path class="st6" d="M172.774,123.704"/>
</g>
<g id="Layer_4">
</g>
</svg>
