<?xml version="1.0" encoding="utf-8"?>
<!-- Generator: Adobe Illustrator 16.0.0, SVG Export Plug-In . SVG Version: 6.00 Build 0)  -->
<!DOCTYPE svg PUBLIC "-//W3C//DTD SVG 1.1//EN" "http://www.w3.org/Graphics/SVG/1.1/DTD/svg11.dtd">
<svg version="1.1" id="Layer_1" xmlns="http://www.w3.org/2000/svg" xmlns:xlink="http://www.w3.org/1999/xlink" x="0px" y="0px"
	 width="600px" height="600px" viewBox="0 0 600 600" style="enable-background:new 0 0 600 600;" xml:space="preserve">
<style type="text/css">
<![CDATA[
	.st0{fill:none;stroke:#000000;stroke-width:3;stroke-miterlimit:10;}
	.st1{fill:none;stroke:#000000;stroke-miterlimit:10;}
	.st2{fill:none;stroke:#000000;stroke-width:2;stroke-miterlimit:10;}
	.st3{fill:#FFFFFF;stroke:#000000;stroke-width:3;stroke-miterlimit:10;}
]]>
</style>
<g id="Layer_2_1_">
</g>
<line class="st0" x1="308.432" y1="53.351" x2="308.385" y2="103.493"/>
<line class="st0" x1="309.834" y1="119.611" x2="309.815" y2="139.932"/>
<line class="st0" x1="384.5" y1="156.5" x2="409.293" y2="105.493"/>
<line class="st0" x1="465.172" y1="108.117" x2="438.371" y2="150.497"/>
<line class="st0" x1="430.994" y1="164.901" x2="420.135" y2="182.076"/>
<line class="st0" x1="478.385" y1="148.781" x2="465.172" y2="164.219"/>
<line class="st0" x1="448.78" y1="230.548" x2="482.555" y2="193.489"/>
<line class="st0" x1="492.332" y1="180.592" x2="506.018" y2="165.572"/>
<circle class="st3" cx="312.9" cy="294.3" r="114"/>
<line class="st2" x1="212.566" y1="240.135" x2="413.094" y2="239.875"/>
<path class="st3" d="M230.14,372.697L290.5,300c0,0,9.801-18.5,22.4,0l49.6-69.452c0,0,18-26.952,30,0l16.793,29.952l9.344-8.873"/>
<path class="st3" d="M327.594,279.425L356.5,300c0,0,12,7.5,19,0s21.396,0,21.396,0s8.877,10.5,21.74,0l8.264-5.7"/>
<path class="st3" d="M300,357.5c0,0,14.688-24,27.594,0"/>
<line class="st2" x1="379.5" y1="223" x2="379.5" y2="209.018"/>
<line class="st1" x1="378.247" y1="209.018" x2="371.5" y2="213"/>
<line class="st1" x1="380.042" y1="212.91" x2="372.21" y2="213.108"/>
<path class="st2" d="M263.833,239.875c0,0,32.666-41.959,72,0"/>
<line class="st2" x1="257.534" y1="328.093" x2="258.201" y2="296.76"/>
<line class="st2" x1="257.534" y1="306.76" x2="232.201" y2="291.468"/>
<circle class="st2" cx="257.534" cy="287.093" r="10"/>
<line class="st2" x1="232.201" y1="277.093" x2="232.201" y2="291.468"/>
<path class="st2" d="M224.534,281.093c0,0,6-10.333,16.667,0"/>
<line class="st2" x1="257.534" y1="328.093" x2="267.534" y2="318.093"/>
<line class="st2" x1="267.534" y1="318.093" x2="277.534" y2="323.093"/>
<line class="st2" x1="257.534" y1="328.093" x2="257.534" y2="343.639"/>
</svg>
