<?xml version="1.0" encoding="utf-8"?>
<!-- Generator: Adobe Illustrator 16.0.0, SVG Export Plug-In . SVG Version: 6.00 Build 0)  -->
<!DOCTYPE svg PUBLIC "-//W3C//DTD SVG 1.1//EN" "http://www.w3.org/Graphics/SVG/1.1/DTD/svg11.dtd">
<svg version="1.1" id="Layer_2" xmlns="http://www.w3.org/2000/svg" xmlns:xlink="http://www.w3.org/1999/xlink" x="0px" y="0px"
	 viewBox="0 0 1000 1000" style="enable-background:new 0 0 1000 1000;" xml:space="preserve">
<style type="text/css">
<![CDATA[
	.st0{display:none;fill:#FFFFFF;stroke:#FCB1B1;stroke-width:5;stroke-miterlimit:10;}
	.st1{font-family:'MyriadPro-Regular';}
	.st2{fill:none;stroke:#FCB1B1;stroke-width:5;stroke-miterlimit:10;}
	.st3{display:none;enable-background:new    ;}
	.st4{display:none;fill:none;stroke:#FCB1B1;stroke-width:5;stroke-miterlimit:10;}
	.st5{fill:#FFFFFF;stroke:#FCB1B1;stroke-width:9;stroke-miterlimit:10;enable-background:new    ;}
	.st6{font-size:72;}
	.st7{fill:#FFFFFF;stroke:#FCB1B1;stroke-width:5;stroke-miterlimit:10;}
]]>
</style>
<circle class="st5" cx="500" cy="455.711" r="302.542"/>
<g id="Layer_1">
	<path class="st0" d="M444.525,594.475c0,6.627-5.373,12-12,12H331.102c-6.627,0-12-5.373-12-12V348.983c0-6.627,5.373-12,12-12
		h101.424c6.627,0,12,5.373,12,12L444.525,594.475L444.525,594.475z"/>
	<path class="st0" d="M656.459,594.475c0,6.627-5.372,12-12,12H543.034c-6.627,0-12-5.373-12-12V348.983c0-6.627,5.373-12,12-12
		h101.425c6.628,0,12,5.373,12,12V594.475z"/>
	<path class="st0" d="M569.949,515.729c0,6.627-5.373,12-12,12H456.525c-6.627,0-12-5.373-12-12V270.237c0-6.627,5.373-12,12-12
		h101.424c6.627,0,12,5.373,12,12V515.729z"/>
	<path class="st4" d="M348.052,427.712c0,31.853,20.468,57.628,45.763,57.628"/>
	<rect x="307.237" y="298.814" class="st7" width="376.271" height="316.95"/>
	<polygon class="st7" points="341.136,358.136 361.475,346.271 361.475,373.391 341.136,383.56 	"/>
	<g>
		<line class="st2" x1="307.237" y1="295" x2="542.423" y2="156.121"/>
	</g>
	<g>
		<line class="st2" x1="683.51" y1="295" x2="724.872" y2="253.319"/>
	</g>
	<g>
		<line class="st2" x1="683.51" y1="615.764" x2="802.007" y2="437.539"/>
	</g>
	<g>
		<polyline class="st7" points="307.237,615.764 542.423,437.539 542.423,303 		"/>
	</g>
	<g>
		<line class="st2" x1="547" y1="437.539" x2="683.51" y2="437.539"/>
	</g>
</g>
<text transform="matrix(1 0 0 1 461.9832 703.8977)" class="st3 st1 st6">3X</text>
</svg>
