<?xml version="1.0" encoding="utf-8"?>
<!-- Generator: Adobe Illustrator 16.0.0, SVG Export Plug-In . SVG Version: 6.00 Build 0)  -->
<!DOCTYPE svg PUBLIC "-//W3C//DTD SVG 1.1//EN" "http://www.w3.org/Graphics/SVG/1.1/DTD/svg11.dtd">
<svg version="1.1" id="Layer_2" xmlns="http://www.w3.org/2000/svg" xmlns:xlink="http://www.w3.org/1999/xlink" x="0px" y="0px"
	 width="1000px" height="1000px" viewBox="0 0 1000 1000" enable-background="new 0 0 1000 1000" xml:space="preserve">
<circle display="none" opacity="0.3" stroke="#000000" stroke-miterlimit="10" enable-background="new    " cx="500" cy="453.711" r="302.542"/>
<circle opacity="0.3" stroke="#000000" stroke-miterlimit="10" enable-background="new    " cx="500" cy="456.711" r="302.542"/>
<g id="Layer_x5F_1" display="none">
	<path display="inline" fill="#FFFFFF" stroke="#000000" stroke-width="4" stroke-miterlimit="10" d="M444.525,594.475
		c0,6.627-5.373,12-12,12H331.102c-6.627,0-12-5.373-12-12V348.983c0-6.627,5.373-12,12-12h101.424c6.627,0,12,5.373,12,12
		L444.525,594.475L444.525,594.475z"/>
	<path display="inline" fill="#FFFFFF" stroke="#000000" stroke-width="4" stroke-miterlimit="10" d="M656.459,594.475
		c0,6.627-5.368,12-12,12H543.034c-6.627,0-12-5.373-12-12V348.983c0-6.627,5.373-12,12-12h101.425c6.632,0,12,5.373,12,12V594.475z
		"/>
	<path display="inline" fill="#FFFFFF" stroke="#000000" stroke-width="4" stroke-miterlimit="10" d="M569.949,515.729
		c0,6.627-5.373,12-12,12H456.525c-6.627,0-12-5.373-12-12V270.237c0-6.627,5.373-12,12-12h101.424c6.627,0,12,5.373,12,12V515.729z
		"/>
	<path display="inline" fill="#FFFFFF" stroke="#000000" stroke-width="5" stroke-miterlimit="10" d="M723.729,521.115
		c0,13.264-10.744,24-24,24H300.271c-13.255,0-24-10.736-24-24V318.272c0-13.254,10.745-24,24-24h399.457c13.256,0,24,10.746,24,24
		L723.729,521.115L723.729,521.115z"/>
	<path display="inline" fill="#FFFFFF" stroke="#000000" stroke-width="3" stroke-miterlimit="10" d="M686.176,483.656
		c0,13.264-10.744,24-24,24H333.898c-13.255,0-24-10.736-24-24v-133.35c0-13.254,10.745-24,24-24h328.272c13.256,0,24,10.746,24,24
		L686.176,483.656L686.176,483.656z"/>
	<path id="vecmap" display="inline" fill="none" stroke="#000000" stroke-width="9" stroke-miterlimit="10" d="M348.052,427.712
		c0,31.853,20.468,57.628,45.763,57.628"/>
	<path id="vecmap_1_" display="inline" fill="none" stroke="#000000" stroke-width="4" stroke-miterlimit="10" d="M584.477,549.115
		c0,44.975,39.42,81.355,88.135,81.355"/>
	<path id="vecmap_2_" display="inline" fill="none" stroke="#000000" stroke-width="4" stroke-miterlimit="10" d="M412.609,545.115
		c0,44.975-39.42,81.355-88.135,81.355"/>
	<g display="inline">
		
			<line id="vecmap_3_" fill="none" stroke="#000000" stroke-width="3" stroke-miterlimit="10" x1="317.407" y1="356.645" x2="678.427" y2="356.645"/>
	</g>
	<g display="inline">
		
			<line id="vecmap_4_" fill="none" stroke="#000000" stroke-width="3" stroke-miterlimit="10" x1="368.543" y1="365.119" x2="368.543" y2="497.322"/>
	</g>
	<g display="inline">
		
			<line id="vecmap_5_" fill="none" stroke="#000000" stroke-width="3" stroke-miterlimit="10" x1="637.718" y1="365.119" x2="637.718" y2="497.322"/>
	</g>
	<g display="inline">
		
			<rect id="vecmaprec" x="317.407" y="385.323" fill="#FFFFFF" stroke="#000000" stroke-width="3" stroke-miterlimit="10" width="355.205" height="80"/>
	</g>
	<g display="inline">
		
			<line fill="none" stroke="#000000" stroke-width="3" stroke-miterlimit="10" x1="317.407" y1="465.323" x2="672.611" y2="465.323"/>
	</g>
</g>
<text transform="matrix(1 0 0 1 461.9832 703.8977)" display="none" enable-background="new    " font-family="'MyriadPro-Regular'" font-size="72">3X</text>
<path fill="#FFFFFF" stroke="#000000" stroke-miterlimit="10" d="M620.219,343.602"/>
<path display="none" fill="#E4E4EF" stroke="#000000" stroke-width="2" stroke-miterlimit="10" d="M383.594,609.326
	c0,0,41.716-44.212,15.288,15.771"/>
<path display="none" fill="#7F9E3D" stroke="#000000" stroke-width="3" stroke-miterlimit="10" d="M464.223,276.828
	c0,0-78.911-29.716-127.529,42.813"/>
<g id="Leaf_3_1_" display="none">
	<path display="inline" fill="#7F9E3D" stroke="#000000" stroke-width="3" stroke-miterlimit="10" d="M470.5,276.5c0,0-98,22-99,126
		"/>
	<path display="inline" fill="#7F9E3D" stroke="#000000" stroke-width="3" stroke-miterlimit="10" d="M371.473,402.48
		c100.821-25.536,99.053-125.959,99.053-125.959"/>
	<path display="inline" fill="none" stroke="#000000" stroke-width="3" stroke-miterlimit="10" d="M470.5,276.5
		c0,0-103.909,121.786-97.994,125.829"/>
	<polyline display="inline" fill="#CACAEF" stroke="#000000" stroke-miterlimit="10" points="391.166,395.17 400.166,380.504 
		400.166,391.837 	"/>
	<polyline display="inline" fill="#CACAEF" stroke="#000000" stroke-miterlimit="10" points="414.49,383.839 414.49,369.17 
		417.834,374.837 421.383,365.837 426.523,374.682 	"/>
	<polyline display="inline" fill="#CACAEF" stroke="#000000" stroke-miterlimit="10" points="433.984,369.807 434.638,346.091 
		439.851,363.159 	"/>
	<polyline display="inline" fill="#CACAEF" stroke="#000000" stroke-miterlimit="10" points="447.577,352.719 445.5,344.75 
		451.209,347.93 	"/>
	<polyline display="inline" fill="#CACAEF" stroke="#000000" stroke-miterlimit="10" points="455.527,340.22 449.293,317.328 
		459.22,332.156 	"/>
	<polyline display="inline" fill="#CACAEF" stroke="#000000" stroke-miterlimit="10" points="411.372,307.083 408.569,330.642 
		404.927,313.172 	"/>
	<polyline display="inline" fill="#CACAEF" stroke="#000000" stroke-miterlimit="10" points="387.261,336.962 390.177,360.507 
		382.459,344.416 	"/>
	<polyline display="inline" fill="#CACAEF" stroke="#000000" stroke-miterlimit="10" points="439.556,287.176 438.177,295.293 
		434.279,290.05 	"/>
</g>
<path fill="#484FAA" stroke="#FFFFFF" stroke-width="5" stroke-miterlimit="10" d="M197.474,456.711"/>
<g id="Layer_1_3_">
	<g display="none">
		<path display="inline" d="M436.168,273.178h3.62v51.345h-3.62V273.178z"/>
	</g>
	<path fill="#FFFFFF" stroke="#000000" stroke-width="2" stroke-miterlimit="10" d="M558.369,582.679
		c0,0,107.626-63.632,92.519-113.151"/>
	
		<rect x="376.743" y="243.432" display="none" fill="#FFFFFF" stroke="#000000" stroke-width="3" stroke-miterlimit="10" width="452.382" height="347.419"/>
	<div  class="typewriter">
		
			<text  transform="matrix(1 0 0 1 264.0769 578.5002)" font-family="&apos;Montserrat-Regular&apos;" font-size="72" startOffset="0">
			www.???.com</text>
	</div>
	
		<ellipse display="none" fill="#FFFFFF" stroke="#000000" stroke-miterlimit="10" cx="676.052" cy="198.303" rx="49.854" ry="44.796"/>
	<g id="Layer_4_2_">
		
			<ellipse fill="#FFFFFF" stroke="#000000" stroke-width="2" stroke-miterlimit="10" cx="724.358" cy="412.832" rx="29.331" ry="31.608"/>
	</g>
	<path display="none" fill="#FFFFFF" stroke="#000000" stroke-miterlimit="10" d="M638.741,230.524c0,0,23.187,27.595,16.606-2.776
		C655.347,227.746,653.01,224.95,638.741,230.524z"/>
	<path display="none" fill="#FF0000" stroke="#000000" stroke-miterlimit="10" d="M709.677,170.876c4.834,0,8.752,9.38,8.752,20.952
		c0,11.569-3.918,20.949-8.752,20.949c-4.829,0-8.747-9.38-8.747-20.949C700.928,180.256,704.846,170.876,709.677,170.876z"/>
	<polygon display="none" fill="#FFFFFF" stroke="#000000" stroke-width="2" stroke-miterlimit="10" points="626.842,229.703 
		615.824,243.286 630.91,254.068 637.965,249.028 635.356,233.42 	"/>
	<path display="none" fill="#FFFFFF" stroke="#000000" stroke-miterlimit="10" d="M624.088,257.729c0,0-5.977,3.812,0,14.477
		c5.975,10.667,31.938,0,31.938,0l9.848-19.81l8.321,19.81l9.063-0.763l-9.063-31.234c0,0-6.684-10.667-18.169,0
		c-11.485,10.666-20.626,15.999-20.626,15.999L624.088,257.729z"/>
	<path fill="#FFFFFF" stroke="#000000" stroke-width="2" stroke-miterlimit="10" d="M536.171,448.515
		c0,0-126.666,141.386-41.339,185.573c85.329,44.188,127.854,38.854,143.158,31.236c15.311-7.617,83.037-53.949,38.164-115.806
		c0,0,1.525,29.715-13.713,40.381c-15.237,10.665-50.594,59.59-108.946-13.064c0,0-16.336-0.646-26.833-12.074"/>
	<path display="none" fill="#FFFFFF" stroke="#000000" stroke-miterlimit="10" d="M624.088,244.778l-5.223,26.665
		c0,0,23.006-7.221,23.577-19.99"/>
	<path fill="#FFFFFF" stroke="#000000" stroke-width="2" stroke-miterlimit="10" d="M601.908,478.954
		c28.136,0,50.944,21.267,50.944,47.495s-22.812,47.491-50.944,47.491c-28.137,0-50.945-21.265-50.945-47.491
		C550.963,500.221,573.771,478.954,601.908,478.954z"/>
	<g>
		<path fill="#DDDDDD" stroke="#000000" stroke-width="2" stroke-miterlimit="10" d="M469.453,353.906
			c0,0,25.151-160.597,184.078-85.71C812.456,343.079,469.453,353.906,469.453,353.906z"/>
		<path fill="#FFFFFF" stroke="#000000" stroke-width="2" stroke-miterlimit="10" d="M719.476,424.155
			c0,47.834-51.467,86.613-114.961,86.613c-63.49,0-114.962-38.778-114.962-86.613s51.473-86.608,114.962-86.608
			C668.01,337.543,719.476,376.32,719.476,424.155z"/>
		<path fill="#DDDDDD" stroke="#000000" stroke-width="2" stroke-miterlimit="10" d="M540.285,412.834l-13.623-89.25
			c0,0,58.974-140.43,168.711-25.754l7.309,47.889c0,0-81.328-2.413-156.65,62.056C544.109,409.417,542.193,411.102,540.285,412.834
			z"/>
		<path fill="#DDDDDD" stroke="#000000" stroke-width="2" stroke-miterlimit="10" d="M673.395,432.756l-137.227-21.375
			c0,0,73.578-60.235,162.396-67.113l100.559,8.04C799.123,352.307,695.613,351.402,673.395,432.756z"/>
		<path fill="#DDDDDD" stroke="#000000" stroke-width="2" stroke-miterlimit="10" d="M527.134,322.929
			c0,0-47.587-4.173-55.894,22.222c-8.305,26.396,15.047,76.297,15.047,76.297l52.744-11.014L527.134,322.929z"/>
		<polygon stroke="#000000" stroke-width="2" stroke-miterlimit="10" points="611.828,299.575 604.705,332.806 637.99,322.689 		"/>
		<path fill="#FFFFFF" stroke="#000000" stroke-width="2" stroke-miterlimit="10" d="M492.639,322.615c0,0-18.044,30.677,0,43.307
			l21.65-21.653C514.291,344.267,498.052,349.68,492.639,322.615z"/>
	</g>
	<path display="none" fill="#FFFFFF" stroke="#000000" stroke-width="2" stroke-miterlimit="10" d="M560.222,510.768
		c0,0,57.959,31.415,57.995-7.197"/>
	<path display="none" fill="#FFFFFF" stroke="#000000" stroke-width="2" stroke-miterlimit="10" d="M563.383,534.01
		c0,0,40.322,18.194,54.836-7.907"/>
	<path display="none" fill="#FFFFFF" stroke="#000000" stroke-width="2" stroke-miterlimit="10" d="M575.101,552.42
		c0,0,42.354,12.775,53.334-14.998"/>
	
		<ellipse fill="#FFFFFF" stroke="#000000" stroke-width="2" stroke-miterlimit="10" cx="591.147" cy="480.304" rx="19.916" ry="21.461"/>
	<path fill="#FFFFFF" stroke="#000000" stroke-width="2" stroke-miterlimit="10" d="M572.411,487.603
		c0,0,28.343-25.265,38.652-7.298"/>
	
		<ellipse fill="#FFFFFF" stroke="#000000" stroke-width="2" stroke-miterlimit="10" cx="731.771" cy="501.744" rx="39.822" ry="53.229"/>
	
		<ellipse fill="#FFFFFF" stroke="#000000" stroke-width="2" stroke-miterlimit="10" cx="650.885" cy="534.01" rx="39.823" ry="53.23"/>
	<path display="none" fill="#FFFFFF" stroke="#000000" stroke-miterlimit="10" d="M658.843,263.823c0,0-8.591,9.145-25.352,0
		c0,0-4.036,3.471-10.611-5.883l1.208-13.162"/>
	<polygon display="none" fill="#FFFFFF" stroke="#000000" stroke-width="3" stroke-miterlimit="10" points="376.743,243.432 
		560.471,141.266 914.97,141.266 829.125,243.432 	"/>
	<polygon display="none" fill="#FFFFFF" stroke="#000000" stroke-width="3" stroke-miterlimit="10" points="829.125,590.848 
		829.125,243.432 914.97,141.266 914.97,436.365 	"/>
	
		<ellipse fill="#FFFFFF" stroke="#000000" stroke-width="2" stroke-miterlimit="10" cx="658.351" cy="536.353" rx="26.236" ry="40.482"/>
	
		<ellipse fill="#FFFFFF" stroke="#000000" stroke-width="2" stroke-miterlimit="10" cx="742.151" cy="503.57" rx="22.672" ry="40.481"/>
	
		<line fill="none" stroke="#000000" stroke-width="2" stroke-miterlimit="10" x1="634.368" y1="519.943" x2="671.988" y2="501.765"/>
	
		<line fill="none" stroke="#000000" stroke-width="2" stroke-miterlimit="10" x1="633.155" y1="547.903" x2="680.822" y2="520.496"/>
	
		<line fill="none" stroke="#000000" stroke-width="2" stroke-miterlimit="10" x1="643.191" y1="569.381" x2="682.345" y2="544.051"/>
	
		<line fill="none" stroke="#000000" stroke-width="2" stroke-miterlimit="10" x1="724.973" y1="534.071" x2="766.345" y2="511.188"/>
	<line fill="none" stroke="#000000" stroke-width="2" stroke-miterlimit="10" x1="721.31" y1="487.603" x2="754.41" y2="469.528"/>
	<path fill="#FFFFFF" stroke="#000000" stroke-width="3" stroke-miterlimit="10" d="M762.988,487.603"/>
	<path fill="#FFFFFF" stroke="#000000" stroke-width="3" stroke-miterlimit="10" d="M721.31,515.009"/>
	<path fill="#FFFFFF" stroke="#000000" stroke-width="3" stroke-miterlimit="10" d="M751.65,511.854"/>
	<path fill="#FFFFFF" stroke="#000000" stroke-width="3" stroke-miterlimit="10" d="M724.984,430.857"/>
	
		<line fill="none" stroke="#000000" stroke-width="2" stroke-miterlimit="10" x1="720.054" y1="511.477" x2="761.429" y2="488.597"/>
	<path fill="#FFFFFF" stroke="#000000" stroke-width="2" stroke-miterlimit="10" d="M486.969,554.884
		c9.677,0,17.521,12.946,17.521,28.922c0,15.97-7.846,28.922-17.521,28.922c-9.681,0-17.523-12.952-17.523-28.922
		C469.443,567.83,477.288,554.884,486.969,554.884z"/>
	
		<ellipse fill="#FFFFFF" stroke="#000000" stroke-width="2" stroke-miterlimit="10" cx="515.99" cy="594.472" rx="8.556" ry="10.667"/>
	
		<ellipse fill="#FFFFFF" stroke="#000000" stroke-width="2" stroke-miterlimit="10" cx="504.49" cy="615.805" rx="7.104" ry="6.095"/>
	<path fill="#FFFFFF" stroke="#000000" stroke-width="2" stroke-miterlimit="10" d="M478.289,539.154
		c0,0-18.184-36.244,17.317-21.856L478.289,539.154z"/>
	<path fill="#FFFFFF" stroke="#000000" stroke-width="2" stroke-miterlimit="10" d="M497.911,508.49
		c0,0-18.181-36.242,17.317-21.856L497.911,508.49z"/>
	<polygon display="none" fill="#FFFFFF" stroke="#000000" stroke-width="2" stroke-miterlimit="10" points="331.031,108.404 
		425.504,85.547 445.311,280.585 	"/>
	<polygon display="none" fill="#FFFFFF" stroke="#000000" stroke-width="2" stroke-miterlimit="10" points="602.416,4.989 
		704.26,32.915 564.478,280.585 	"/>
	<polygon display="none" fill="#FFFFFF" stroke="#000000" stroke-width="2" stroke-miterlimit="10" points="768.129,114.807 
		832.219,166.551 710.97,280.585 	"/>
	<path display="none" fill="#FFFFFF" stroke="#000000" stroke-width="2" stroke-miterlimit="10" d="M453.454,287.943
		c8.835,0,15.999,5.892,15.999,13.16c0,7.268-7.162,13.157-15.999,13.157s-15.999-5.891-15.999-13.157
		C437.455,293.833,444.617,287.943,453.454,287.943z"/>
	<path display="none" fill="#FFFFFF" stroke="#000000" stroke-width="2" stroke-miterlimit="10" d="M558.369,287.943
		c8.835,0,15.999,5.892,15.999,13.16c0,7.268-7.163,13.157-15.999,13.157c-8.837,0-16-5.891-16-13.157
		C542.369,293.833,549.532,287.943,558.369,287.943z"/>
	
		<ellipse display="none" fill="#FFFFFF" stroke="#000000" stroke-width="2" stroke-miterlimit="10" cx="700.394" cy="298.815" rx="16" ry="13.158"/>
</g>
<g id="Layer_2_1_">
	
		<ellipse fill="#FFFFFF" stroke="#000000" stroke-width="2" stroke-miterlimit="10" cx="487.347" cy="469.526" rx="29.332" ry="31.609"/>
	
		<ellipse display="none" fill="#FFFFFF" stroke="#000000" stroke-width="2" stroke-miterlimit="10" cx="724.984" cy="421.448" rx="29.333" ry="31.608"/>
	<path fill="#FFFFFF" stroke="#000000" stroke-width="2" stroke-miterlimit="10" d="M481.118,448.515h12.141H481.118z"/>
	<g>
		<path fill="#FFFFFF" stroke="#000000" stroke-width="2" stroke-miterlimit="10" d="M432.358,448.515"/>
	</g>
</g>
<g display="none">
	
		<line display="inline" fill="none" stroke="#000000" stroke-miterlimit="10" x1="200.201" y1="408.834" x2="334.358" y2="408.832"/>
	
		<line display="inline" fill="none" stroke="#000000" stroke-miterlimit="10" x1="200.201" y1="422.834" x2="334.358" y2="422.831"/>
	
		<line display="inline" fill="none" stroke="#000000" stroke-miterlimit="10" x1="334.358" y1="408.832" x2="334.358" y2="422.831"/>
	<line display="inline" fill="none" stroke="#000000" stroke-miterlimit="10" x1="334.358" y1="408.832" x2="386.62" y2="361.921"/>
	<line display="inline" fill="none" stroke="#000000" stroke-miterlimit="10" x1="334.358" y1="422.831" x2="386.62" y2="375.921"/>
</g>
<path fill="#FFFFFF" stroke="#000000" stroke-width="2" stroke-miterlimit="10" d="M416.992,415.156c0,0,54.758-7.479,47.299-44.234
	c0,0-16.366-26.089-21.579-21.422c0,0-4.546-9.631,3.454-14.482c0,0-21.365,9.149-15.683,15.815c0,0,22.984,36.279,0,27.807"/>
<ellipse fill="#FFFFFF" stroke="#000000" stroke-width="2" stroke-miterlimit="10" cx="336" cy="412.86" rx="27.5" ry="21.58"/>
<path fill="#FFFFFF" stroke="#000000" stroke-width="2" stroke-miterlimit="10" d="M402.828,364.834l10.338,49.323
	c-98.332,24.322-84.666-49.323-84.666-49.323"/>
<ellipse fill="#FFFFFF" stroke="#000000" stroke-width="2" stroke-miterlimit="10" cx="321.625" cy="325.636" rx="17.889" ry="19.274"/>
<g id="Layer_3_1_">
	<polygon fill="#DBDBDB" stroke="#000000" stroke-miterlimit="10" points="329.275,335.865 343.901,364.298 367.962,327.938 
		348.802,322.514 	"/>
</g>
<path fill="#FFFFFF" stroke="#000000" stroke-width="2" stroke-miterlimit="10" d="M360.564,332.626
	c18.854,0,34.14,14.251,34.14,31.829c0,17.575-15.286,31.825-34.14,31.825c-16.498,0-30.264-10.909-33.448-25.41
	c-0.455-2.072-0.692-4.218-0.692-6.415C326.424,346.877,341.709,332.626,360.564,332.626z"/>
<ellipse fill="#FFFFFF" stroke="#000000" stroke-width="2" stroke-miterlimit="10" cx="394" cy="419.86" rx="27.5" ry="21.58"/>
<path display="none" fill="#FFFFFF" stroke="#000000" stroke-width="2" stroke-miterlimit="10" d="M347.486,340.05
	c0,0,5.202,22.209,42.864,13.854"/>
<g id="Layer_3">
	<path fill="#FFFFFF" stroke="#000000" stroke-width="2" stroke-miterlimit="10" d="M347.486,379.678"/>
</g>
<path fill="#FFFFFF" stroke="#000000" stroke-width="2" stroke-miterlimit="10" d="M370.337,344.906l16.846,84.011
	c0,0,39.285-13.416,44.301-30.749c0,0-8.315-7.975-3.317-18.654l-18-48.256C410.166,331.256,373.507,349.645,370.337,344.906z"/>
<path fill="#FFFFFF" stroke="#000000" stroke-width="2" stroke-miterlimit="10" d="M425.368,379.512c0,0-8.438,8.408-4.653,14.864"
	/>
<path fill="#FFFFFF" stroke="#000000" stroke-width="2" stroke-miterlimit="10" d="M423.579,378.639c0,0-6.176,2.642-5.541,6.814"/>
<path fill="#FFFFFF" stroke="#000000" stroke-width="2" stroke-miterlimit="10" d="M334.815,343.395c0,0-11.521-16.36,12.671-14.285
	c0,0-12.864-4.684-17.339,6.627c-4.475,11.312-5.073,87.483-22.389,78.501c0,0-9.55-5.169-5.953-9.924
	c0,0-5.792,25.691,19.018,23.54C345.635,425.702,334.815,343.395,334.815,343.395z"/>
<path fill="#FFFFFF" stroke="#000000" stroke-width="2" stroke-miterlimit="10" d="M386.62,363.068c0,0,9.214,7.101,18.546,1.767
	l1.271,17.212c0,0-10.912,9.546-17.424,0L386.62,363.068z"/>
<g>
	<path fill="#DDDDDD" stroke="#000000" stroke-width="2" stroke-miterlimit="10" d="M362.654,224.107
		c78.563-37.019,90.995,42.369,90.995,42.369S284.093,261.124,362.654,224.107z"/>
	<path fill="#FFFFFF" stroke="#000000" stroke-width="2" stroke-miterlimit="10" d="M386.885,258.388
		c31.384,0,56.828,19.167,56.828,42.813c0,23.646-25.443,42.814-56.828,42.814c-31.388,0-56.829-19.17-56.829-42.814
		C330.055,277.555,355.496,258.387,386.885,258.388z"/>
	<path fill="#DDDDDD" stroke="#000000" stroke-width="2" stroke-miterlimit="10" d="M415.795,293.104
		c-37.233-31.869-77.438-30.676-77.438-30.676l3.613-23.672c54.247-56.688,83.397,12.729,83.397,12.729l-6.733,44.119
		C417.691,294.749,416.744,293.916,415.795,293.104z"/>
	<path fill="#DDDDDD" stroke="#000000" stroke-width="2" stroke-miterlimit="10" d="M290.684,265.686l49.709-3.975
		c43.904,3.399,80.276,33.176,80.276,33.176l-67.836,10.566C341.851,265.238,290.684,265.685,290.684,265.686z"/>
	<path fill="#DDDDDD" stroke="#000000" stroke-width="2" stroke-miterlimit="10" d="M419.255,294.419l26.072,5.444
		c0,0,11.543-24.668,7.438-37.716c-4.105-13.048-27.629-10.984-27.629-10.984L419.255,294.419z"/>
	<polygon stroke="#000000" stroke-width="2" stroke-miterlimit="10" points="370.337,251.044 386.791,256.045 383.269,239.618 	"/>
	<path fill="#FFFFFF" stroke="#000000" stroke-width="2" stroke-miterlimit="10" d="M431.484,261.711l10.703,10.704
		c8.92-6.244,0-21.407,0-21.407C439.511,264.386,431.484,261.711,431.484,261.711z"/>
</g>
<g id="PHONE">
	<polyline fill="#FFFFFF" stroke="#000000" stroke-width="2" stroke-miterlimit="10" points="405.166,364.5 414.168,359.101 
		451.168,285.164 428.168,270.831 418.168,272.167 	"/>
	<polygon fill="#FFFFFF" stroke="#000000" stroke-width="2" stroke-miterlimit="10" points="409.834,288.5 418.5,301.167 
		398.489,339.167 385.834,339.167 377.166,352.5 405.166,364.5 443.166,288.5 418.168,272.167 	"/>
	<line fill="none" stroke="#000000" stroke-miterlimit="10" x1="443.166" y1="288.5" x2="451.168" y2="285.164"/>
	<line fill="none" stroke="#000000" stroke-miterlimit="10" x1="442.166" y1="286.164" x2="450.168" y2="271.831"/>
	<circle stroke="#000000" stroke-miterlimit="10" cx="450.168" cy="271.831" r="4"/>
	<g id="Layer_2_2_">
		
			<ellipse fill="#FFFFFF" stroke="#000000" stroke-width="2" stroke-miterlimit="10" cx="420.716" cy="327.954" rx="17.886" ry="19.275"/>
		<path fill="#FFFFFF" stroke="#000000" stroke-width="2" stroke-miterlimit="10" d="M416.916,315.141h7.403H416.916z"/>
		<g>
			<path fill="#FFFFFF" stroke="#000000" stroke-width="2" stroke-miterlimit="10" d="M387.182,315.141"/>
		</g>
	</g>
</g>
<path fill="none" stroke="#000000" stroke-width="2" stroke-miterlimit="10" d="M456.318,250.856c0,0,12.456-2.375,13.876,10.26"/>
<path fill="none" stroke="#000000" stroke-width="2" stroke-miterlimit="10" d="M458.353,243.719c0,0,17.883-3.41,19.922,14.729"/>
<path fill="none" stroke="#000000" stroke-width="2" stroke-miterlimit="10" d="M461.459,235.725c0,0,23.498-4.479,26.177,19.354"/>
<path fill="#FFFFFF" stroke="#000000" stroke-miterlimit="10" d="M451.83,397.702c-3.858-0.914-5.766-6.818-4.258-13.189
	c1.508-6.37,5.86-10.794,9.719-9.881c3.86,0.914,5.767,6.82,4.259,13.188C460.041,394.193,455.69,398.615,451.83,397.702z"/>
<ellipse transform="matrix(0.9731 0.2303 -0.2303 0.9731 99.2607 -92.0633)" fill="#FFFFFF" stroke="#000000" stroke-miterlimit="10" cx="444.018" cy="379.189" rx="3.507" ry="4.372"/>
<ellipse transform="matrix(0.9731 0.2305 -0.2305 0.9731 97.8119 -93.843)" fill="#FFFFFF" stroke="#000000" stroke-miterlimit="10" cx="450.59" cy="371.751" rx="2.911" ry="2.498"/>
<path fill="#FFFFFF" stroke="#000000" stroke-width="2" stroke-miterlimit="10" d="M348.379,374.556c0,0,2.348,8.705-1.725,7.164"/>
<ellipse fill="#FFFFFF" stroke="#000000" stroke-width="2" stroke-miterlimit="10" cx="378.147" cy="328.304" rx="8.363" ry="9.012"/>
<path fill="#FFFFFF" stroke="#000000" stroke-width="2" stroke-miterlimit="10" d="M369.784,328.304
	c4.329-7.544,16.23,3.064,16.23,3.064"/>
</svg>
