<?xml version="1.0" encoding="utf-8"?>
<!-- Generator: Adobe Illustrator 16.0.0, SVG Export Plug-In . SVG Version: 6.00 Build 0)  -->
<!DOCTYPE svg PUBLIC "-//W3C//DTD SVG 1.1//EN" "http://www.w3.org/Graphics/SVG/1.1/DTD/svg11.dtd">
<svg version="1.1" id="Layer_2" xmlns="http://www.w3.org/2000/svg" xmlns:xlink="http://www.w3.org/1999/xlink" x="0px" y="0px"
	 viewBox="0 0 1000 1000" style="enable-background:new 0 0 1000 1000;" xml:space="preserve">
<style type="text/css">
<![CDATA[
	.st0{fill:#FFFFFF;stroke:#000000;stroke-miterlimit:10;}
	.st1{fill:#FFFFFF;stroke:#000000;stroke-width:2;stroke-miterlimit:10;}
	.st2{display:none;fill:#FFFFFF;stroke:#000000;stroke-miterlimit:10;}
	.st3{fill:#484FAA;stroke:#FFFFFF;stroke-width:5;stroke-miterlimit:10;}
	.st4{display:inline;fill:none;stroke:#000000;stroke-width:9;stroke-miterlimit:10;}
	.st5{display:inline;fill:#7F9E3D;stroke:#000000;stroke-width:3;stroke-miterlimit:10;}
	.st6{display:none;fill:#FFFFFF;stroke:#000000;stroke-width:3;stroke-miterlimit:10;}
	.st7{display:inline;fill:none;stroke:#000000;stroke-width:4;stroke-miterlimit:10;}
	.st8{display:inline;fill:#FFFFFF;stroke:#000000;stroke-width:5;stroke-miterlimit:10;}
	.st9{opacity:0.3;stroke:#000000;stroke-miterlimit:10;enable-background:new    ;}
	.st10{display:inline;fill:#CACAEF;stroke:#000000;stroke-miterlimit:10;}
	.st11{font-family:'MyriadPro-Regular';}
	.st12{display:none;fill:#FFFFFF;stroke:#000000;stroke-width:2;stroke-miterlimit:10;}
	.st13{display:inline;fill:none;stroke:#000000;stroke-width:3;stroke-miterlimit:10;}
	.st14{display:none;enable-background:new    ;}
	.st15{display:inline;fill:#FFFFFF;stroke:#000000;stroke-width:4;stroke-miterlimit:10;}
	.st16{fill:none;stroke:#000000;stroke-width:3;stroke-miterlimit:10;}
	.st17{display:inline;}
	.st18{display:none;opacity:0.3;stroke:#000000;stroke-miterlimit:10;enable-background:new    ;}
	.st19{display:none;fill:#7F9E3D;stroke:#000000;stroke-width:3;stroke-miterlimit:10;}
	.st20{display:inline;fill:#FFFFFF;stroke:#000000;stroke-width:3;stroke-miterlimit:10;}
	.st21{display:none;fill:#E4E4EF;stroke:#000000;stroke-width:2;stroke-miterlimit:10;}
	.st22{fill:none;stroke:#000000;stroke-width:2;stroke-miterlimit:10;}
	.st23{font-size:72;}
	.st24{fill:#DDDDDD;stroke:#000000;stroke-width:2;stroke-miterlimit:10;}
	.st25{display:none;}
	.st26{fill:#FFFFFF;stroke:#000000;stroke-width:3;stroke-miterlimit:10;}
	.st27{display:none;fill:#FF0000;stroke:#000000;stroke-miterlimit:10;}
	.st28{stroke:#000000;stroke-width:2;stroke-miterlimit:10;}
]]>
</style>
<circle class="st9" cx="500" cy="453.711" r="302.542"/>
<circle class="st18" cx="500" cy="456.711" r="302.542"/>
<g id="Layer_x5F_1" class="st25">
	<path class="st15" d="M444.525,594.475c0,6.627-5.373,12-12,12H331.102c-6.627,0-12-5.373-12-12V348.983c0-6.627,5.373-12,12-12
		h101.424c6.627,0,12,5.373,12,12L444.525,594.475L444.525,594.475z"/>
	<path class="st15" d="M656.459,594.475c0,6.627-5.37,12-12,12H543.034c-6.627,0-12-5.373-12-12V348.983c0-6.627,5.373-12,12-12
		h101.425c6.63,0,12,5.373,12,12V594.475z"/>
	<path class="st15" d="M569.949,515.729c0,6.627-5.373,12-12,12H456.525c-6.627,0-12-5.373-12-12V270.237c0-6.627,5.373-12,12-12
		h101.424c6.627,0,12,5.373,12,12V515.729z"/>
	<path class="st8" d="M723.729,521.115c0,13.262-10.744,24-24,24H300.271c-13.255,0-24-10.738-24-24V318.272
		c0-13.254,10.745-24,24-24h399.457c13.256,0,24,10.746,24,24L723.729,521.115L723.729,521.115z"/>
	<path class="st20" d="M686.174,483.658c0,13.262-10.744,24-24,24H333.898c-13.255,0-24-10.738-24-24V350.308
		c0-13.254,10.745-24,24-24h328.272c13.256,0,24,10.746,24,24L686.174,483.658L686.174,483.658z"/>
	<path id="vecmap" class="st4" d="M348.052,427.712c0,31.853,20.468,57.628,45.763,57.628"/>
	<path id="vecmap_1_" class="st7" d="M584.477,549.115c0,44.973,39.42,81.355,88.135,81.355"/>
	<path id="vecmap_2_" class="st7" d="M412.609,545.115c0,44.973-39.42,81.355-88.135,81.355"/>
	<g class="st17">
		<line id="vecmap_3_" class="st16" x1="317.407" y1="356.645" x2="678.427" y2="356.645"/>
	</g>
	<g class="st17">
		<line id="vecmap_4_" class="st16" x1="368.543" y1="365.119" x2="368.543" y2="497.322"/>
	</g>
	<g class="st17">
		<line id="vecmap_5_" class="st16" x1="637.716" y1="365.119" x2="637.716" y2="497.322"/>
	</g>
	<g class="st17">
		<rect id="vecmaprec" x="317.407" y="385.323" class="st26" width="355.205" height="80"/>
	</g>
	<g class="st17">
		<line class="st16" x1="317.407" y1="465.323" x2="672.611" y2="465.323"/>
	</g>
</g>
<text transform="matrix(1 0 0 1 461.9832 703.8977)" class="st14 st11 st23">3X</text>
<path class="st0" d="M620.219,343.602"/>
<path class="st21" d="M383.593,609.328c0,0,41.716-44.212,15.288,15.769"/>
<path class="st19" d="M464.223,276.828c0,0-78.911-29.714-127.529,42.813"/>
<g id="Leaf_3_1_" class="st25">
	<path class="st5" d="M470.5,276.5c0,0-98,22-99,126"/>
	<path class="st5" d="M371.473,402.48c100.821-25.536,99.053-125.959,99.053-125.959"/>
	<path class="st13" d="M470.5,276.5c0,0-103.911,121.786-97.996,125.829"/>
	<polyline class="st10" points="391.166,395.17 400.166,380.504 400.166,391.837 	"/>
	<polyline class="st10" points="414.49,383.839 414.49,369.17 417.834,374.837 421.381,365.837 426.523,374.682 	"/>
	<polyline class="st10" points="433.984,369.807 434.638,346.091 439.851,363.159 	"/>
	<polyline class="st10" points="447.577,352.719 445.5,344.75 451.209,347.93 	"/>
	<polyline class="st10" points="455.527,340.22 449.293,317.328 459.22,332.157 	"/>
	<polyline class="st10" points="411.372,307.083 408.569,330.642 404.927,313.172 	"/>
	<polyline class="st10" points="387.261,336.962 390.177,360.507 382.459,344.416 	"/>
	<polyline class="st10" points="439.556,287.176 438.177,295.293 434.279,290.05 	"/>
</g>
<path class="st3" d="M197.474,456.711"/>
<g id="Layer_1_3_">
	<g class="st25">
		<path class="st17" d="M338.168,273.178h3.62v51.345h-3.62V273.178z"/>
	</g>
	<path class="st1" d="M460.369,582.679c0,0,107.626-63.632,92.517-113.151"/>
	<rect x="278.743" y="243.432" class="st6" width="452.381" height="347.419"/>
	<div  class="typewriter">
		
			<text  transform="matrix(1 0 0 1 264.0769 578.5002)" font-family="&apos;Montserrat-Regular&apos;" font-size="72" startOffset="0">
			www.???.com</text>
	</div>
	<ellipse class="st2" cx="578.05" cy="198.303" rx="49.856" ry="44.796"/>
	<g id="Layer_4_2_">
		<ellipse class="st1" cx="626.358" cy="412.832" rx="29.331" ry="31.608"/>
	</g>
	<path class="st2" d="M540.741,230.524c0,0,23.185,27.593,16.606-2.778C557.347,227.746,555.008,224.95,540.741,230.524z"/>
	<path class="st27" d="M611.676,170.876c4.834,0,8.752,9.38,8.752,20.952c0,11.571-3.918,20.951-8.752,20.951
		c-4.829,0-8.747-9.38-8.747-20.951C602.928,180.256,606.846,170.876,611.676,170.876z"/>
	<polygon class="st12" points="528.84,229.703 517.824,243.286 532.91,254.068 539.963,249.028 537.356,233.42 	"/>
	<path class="st2" d="M526.086,257.729c0,0-5.975,3.81,0,14.475c5.975,10.667,31.938,0,31.938,0l9.848-19.808l8.321,19.808
		l9.061-0.761l-9.061-31.236c0,0-6.684-10.667-18.169,0c-11.485,10.666-20.626,15.999-20.626,15.999L526.086,257.729z"/>
	<path class="st1" d="M438.169,448.515c0,0-126.666,141.386-41.337,185.573c85.329,44.189,127.852,38.856,143.158,31.238
		c15.309-7.618,83.037-53.95,38.164-115.806c0,0,1.525,29.715-13.713,40.381c-15.237,10.665-50.594,59.59-108.946-13.066
		c0,0-16.336-0.646-26.833-12.074"/>
	<path class="st2" d="M526.086,244.778l-5.221,26.665c0,0,23.006-7.221,23.577-19.992"/>
	<path class="st24" d="M371.453,353.906c0,0,25.151-160.597,184.078-85.71C714.456,343.079,371.453,353.906,371.453,353.906z"/>
	<path class="st1" d="M503.908,478.956c28.134,0,50.944,21.265,50.944,47.495c0,26.227-22.811,47.491-50.944,47.491
		c-28.137,0-50.947-21.265-50.947-47.491C452.961,500.221,475.771,478.956,503.908,478.956z"/>
	<path class="st1" d="M621.476,424.155c0,47.834-51.467,86.613-114.961,86.613c-63.49,0-114.962-38.778-114.962-86.613
		c0-47.835,51.473-86.61,114.962-86.61C570.01,337.543,621.476,376.32,621.476,424.155z"/>
	<path class="st24" d="M442.285,412.834l-13.623-89.25c0,0,58.972-140.428,168.711-25.754l7.307,47.889
		c0,0-81.328-2.413-156.65,62.056C446.109,409.417,444.193,411.102,442.285,412.834z"/>
	<path class="st24" d="M575.395,432.756l-137.227-21.375c0,0,73.579-60.235,162.396-67.113l100.559,8.04
		C701.123,352.307,597.613,351.402,575.395,432.756z"/>
	<path class="st24" d="M429.132,322.929c0,0-47.587-4.173-55.892,22.222c-8.305,26.394,15.047,76.297,15.047,76.297l52.744-11.014
		L429.132,322.929z"/>
	<polygon class="st28" points="513.828,299.575 506.705,332.806 539.99,322.689 	"/>
	<path class="st1" d="M394.639,322.616c0,0-18.044,30.675,0,43.305l21.652-21.653C416.291,344.267,400.052,349.68,394.639,322.616z"
		/>
	<path class="st12" d="M462.222,510.768c0,0,57.959,31.415,57.995-7.197"/>
	<path class="st12" d="M465.381,534.01c0,0,40.324,18.196,54.836-7.907"/>
	<path class="st12" d="M477.101,552.42c0,0,42.354,12.777,53.334-14.998"/>
	<ellipse class="st1" cx="493.147" cy="480.304" rx="19.916" ry="21.461"/>
	<ellipse class="st1" cx="633.771" cy="501.744" rx="39.822" ry="53.229"/>
	<ellipse class="st1" cx="552.885" cy="534.01" rx="39.823" ry="53.23"/>
	<path class="st2" d="M560.841,263.823c0,0-8.59,9.143-25.35,0c0,0-4.036,3.469-10.613-5.883l1.208-13.162"/>
	<polygon class="st6" points="278.743,243.432 462.471,141.266 816.97,141.266 731.124,243.432 	"/>
	<polygon class="st6" points="731.124,590.848 731.124,243.432 816.97,141.266 816.97,436.366 	"/>
	<ellipse class="st1" cx="560.351" cy="536.353" rx="26.236" ry="40.482"/>
	<ellipse class="st1" cx="644.151" cy="503.57" rx="22.672" ry="40.481"/>
	<path class="st1" d="M474.411,487.603c0,0,28.341-25.265,38.652-7.298"/>
	<line class="st22" x1="536.368" y1="519.943" x2="573.988" y2="501.765"/>
	<line class="st22" x1="535.155" y1="547.903" x2="582.822" y2="520.498"/>
	<line class="st22" x1="545.191" y1="569.381" x2="584.345" y2="544.051"/>
	<line class="st22" x1="626.973" y1="534.071" x2="668.345" y2="511.188"/>
	<line class="st22" x1="623.31" y1="487.603" x2="656.41" y2="469.528"/>
	<path class="st26" d="M664.988,487.603"/>
	<path class="st26" d="M623.31,515.009"/>
	<path class="st26" d="M653.65,510.854"/>
	<path class="st26" d="M626.984,430.857"/>
	<line class="st22" x1="622.054" y1="511.477" x2="663.429" y2="488.597"/>
	<path class="st1" d="M388.967,554.884c9.677,0,17.523,12.948,17.523,28.922c0,15.97-7.846,28.922-17.523,28.922
		c-9.679,0-17.523-12.952-17.523-28.922C371.443,567.832,379.288,554.884,388.967,554.884z"/>
	<ellipse class="st1" cx="417.99" cy="594.472" rx="8.554" ry="10.667"/>
	<ellipse class="st1" cx="406.49" cy="615.805" rx="7.103" ry="6.095"/>
	<path class="st1" d="M380.289,539.154c0,0-18.184-36.244,17.317-21.858L380.289,539.154z"/>
	<path class="st1" d="M399.911,508.49c0,0-18.181-36.242,17.317-21.858L399.911,508.49z"/>
	<polygon class="st12" points="233.031,108.404 327.502,85.547 347.311,280.585 	"/>
	<polygon class="st12" points="504.416,4.989 606.259,32.915 466.478,280.585 	"/>
	<polygon class="st12" points="670.127,114.807 734.217,166.551 612.97,280.585 	"/>
	<path class="st12" d="M355.454,287.943c8.835,0,15.999,5.89,15.999,13.16c0,7.266-7.163,13.157-15.999,13.157
		c-8.837,0-15.999-5.891-15.999-13.157C339.455,293.833,346.617,287.943,355.454,287.943z"/>
	<path class="st12" d="M460.369,287.943c8.835,0,15.999,5.89,15.999,13.16c0,7.266-7.163,13.157-15.999,13.157
		c-8.837,0-16-5.891-16-13.157C444.369,293.833,451.532,287.943,460.369,287.943z"/>
	<ellipse class="st12" cx="602.394" cy="298.815" rx="16" ry="13.158"/>
</g>
<g id="Layer_2_1_">
	<ellipse class="st1" cx="389.347" cy="469.526" rx="29.332" ry="31.609"/>
	<ellipse class="st12" cx="626.984" cy="421.448" rx="29.333" ry="31.608"/>
	<path class="st1" d="M383.118,448.515h12.139H383.118z"/>
	<g>
		<path class="st1" d="M334.358,448.515"/>
	</g>
</g>
</svg>
