<?xml version="1.0" encoding="utf-8"?>
<!-- Generator: Adobe Illustrator 16.0.0, SVG Export Plug-In . SVG Version: 6.00 Build 0)  -->
<!DOCTYPE svg PUBLIC "-//W3C//DTD SVG 1.1//EN" "http://www.w3.org/Graphics/SVG/1.1/DTD/svg11.dtd">
<svg version="1.1" id="Layer_2" xmlns="http://www.w3.org/2000/svg" xmlns:xlink="http://www.w3.org/1999/xlink" x="0px" y="0px"
	  viewBox="0 0 1000 1000" style="enable-background:new 0 0 1000 1000;" xml:space="preserve">
<style type="text/css">
<![CDATA[
	.st0{display:inline;fill:#FFFFFF;stroke:#000000;stroke-miterlimit:10;}
	.st1{fill:#F9A7A7;stroke:#000000;stroke-width:2;stroke-miterlimit:10;}
	.st2{fill:#FFFFFF;stroke:#000000;stroke-miterlimit:10;}
	.st3{display:inline;fill:none;stroke:#79CE42;stroke-width:2;stroke-miterlimit:10;}
	.st4{fill:#FFFFFF;stroke:#000000;stroke-width:2;stroke-miterlimit:10;}
	.st5{fill:#484FAA;stroke:#FFFFFF;stroke-width:5;stroke-miterlimit:10;}
	.st6{display:inline;fill:none;stroke:#000000;stroke-width:9;stroke-miterlimit:10;}
	.st7{display:inline;fill:none;stroke:#000000;stroke-miterlimit:10;}
	.st8{display:inline;fill:#7F9E3D;stroke:#000000;stroke-width:3;stroke-miterlimit:10;}
	.st9{display:none;fill:#FFFFFF;stroke:#000000;stroke-width:3;stroke-miterlimit:10;}
	.st10{display:inline;fill:none;stroke:#000000;stroke-width:4;stroke-miterlimit:10;}
	.st11{display:inline;fill:#FFFFFF;stroke:#000000;stroke-width:5;stroke-miterlimit:10;}
	.st12{fill:#3D3D3D;stroke:#000000;stroke-width:3;stroke-miterlimit:10;}
	.st13{fill:#EAE5D0;stroke:#000000;stroke-width:3;stroke-miterlimit:10;}
	.st14{display:inline;fill:#CACAEF;stroke:#000000;stroke-miterlimit:10;}
	.st15{font-family:'MyriadPro-Regular';}
	.st16{fill:#424242;stroke:#000000;stroke-width:2;stroke-miterlimit:10;}
	.st17{display:inline;stroke:#000000;stroke-width:2;stroke-miterlimit:10;}
	.st18{fill:#DBDBDB;stroke:#000000;stroke-miterlimit:10;}
	.st19{display:none;fill:#FFFFFF;stroke:#000000;stroke-width:2;stroke-miterlimit:10;}
	.st20{display:inline;fill:#FFFFFF;}
	.st21{fill:#303030;stroke:#000000;stroke-width:3;stroke-miterlimit:10;}
	.st22{display:inline;fill:none;stroke:#000000;stroke-width:3;stroke-miterlimit:10;}
	.st23{display:none;enable-background:new    ;}
	.st24{display:inline;fill:#C6C6C6;stroke:#000000;stroke-miterlimit:10;}
	.st25{display:inline;fill:#FFFFFF;stroke:#000000;stroke-width:4;stroke-miterlimit:10;}
	.st26{fill:none;stroke:#000000;stroke-width:3;stroke-miterlimit:10;}
	.st27{fill:#C6C6C6;stroke:#000000;stroke-miterlimit:10;}
	.st28{fill:#87995C;stroke:#000000;stroke-width:2;stroke-miterlimit:10;}
	.st29{display:none;fill:none;stroke:#000000;stroke-width:3;stroke-miterlimit:10;}
	.st30{display:inline;fill:#C6C6C6;stroke:#000000;stroke-width:3;stroke-miterlimit:10;}
	.st31{display:inline;}
	.st32{fill:#EAEAE8;stroke:#000000;stroke-width:3;stroke-miterlimit:10;}
	.st33{display:none;opacity:0.3;stroke:#000000;stroke-miterlimit:10;enable-background:new    ;}
	.st34{display:inline;fill:none;}
	.st35{opacity:0.3;fill:#8383FC;stroke:#FFFFFF;stroke-width:3;stroke-miterlimit:10;enable-background:new    ;}
	.st36{display:inline;fill:none;stroke:#000000;stroke-width:2;stroke-miterlimit:10;}
	.st37{display:none;fill:#7F9E3D;stroke:#000000;stroke-width:3;stroke-miterlimit:10;}
	.st38{display:inline;fill:#FFFFFF;stroke:#000000;stroke-width:3;stroke-miterlimit:10;}
	.st39{display:none;fill:#E4E4EF;stroke:#000000;stroke-width:2;stroke-miterlimit:10;}
	.st40{fill:none;stroke:#000000;stroke-width:2;stroke-miterlimit:10;}
	.st41{fill:#F77F1C;stroke:#000000;stroke-width:3;stroke-miterlimit:10;}
	.st42{stroke:#000000;stroke-miterlimit:10;}
	.st43{font-size:72;}
	.st44{fill:#DDDDDD;stroke:#000000;stroke-width:2;stroke-miterlimit:10;}
	.st45{fill:#FF0000;stroke:#000000;stroke-miterlimit:10;}
	.st46{display:none;}
	.st47{fill:#FFFFFF;stroke:#000000;stroke-width:3;stroke-miterlimit:10;}
	.st48{stroke:#000000;stroke-width:2;stroke-miterlimit:10;}
	.st49{display:inline;fill:#FFFFFF;stroke:#000000;stroke-width:2;stroke-miterlimit:10;}
	.st50{display:inline;fill:#FCFCFC;stroke:#000000;stroke-width:3;stroke-miterlimit:10;}
]]>
</style>
<circle class="st33" cx="500" cy="453.711" r="302.542"/>
<circle class="st35" cx="500" cy="456.711" r="302.542"/>
<g id="Layer_x5F_1" class="st46">
	<path class="st25" d="M444.525,594.475c0,6.627-5.373,12-12,12H331.102c-6.627,0-12-5.373-12-12V348.983c0-6.627,5.373-12,12-12
		h101.424c6.627,0,12,5.373,12,12L444.525,594.475L444.525,594.475z"/>
	<path class="st25" d="M656.459,594.475c0,6.627-5.367,12-12,12H543.034c-6.627,0-12-5.373-12-12V348.983c0-6.627,5.373-12,12-12
		h101.425c6.633,0,12,5.373,12,12V594.475z"/>
	<path class="st25" d="M569.949,515.729c0,6.627-5.373,12-12,12H456.525c-6.627,0-12-5.373-12-12V270.237c0-6.627,5.373-12,12-12
		h101.424c6.627,0,12,5.373,12,12V515.729z"/>
	<path class="st11" d="M723.729,521.115c0,13.265-10.744,24-24,24H300.271c-13.255,0-24-10.735-24-24V318.272
		c0-13.254,10.745-24,24-24h399.457c13.256,0,24,10.746,24,24L723.729,521.115L723.729,521.115z"/>
	<path class="st38" d="M686.177,483.656c0,13.265-10.744,24-24,24H333.898c-13.255,0-24-10.735-24-24v-133.35
		c0-13.254,10.745-24,24-24h328.272c13.256,0,24,10.746,24,24L686.177,483.656L686.177,483.656z"/>
	<path id="vecmap" class="st6" d="M348.052,427.712c0,31.853,20.468,57.628,45.763,57.628"/>
	<path id="vecmap_1_" class="st10" d="M584.477,549.115c0,44.976,39.42,81.355,88.135,81.355"/>
	<path id="vecmap_2_" class="st10" d="M412.609,545.115c0,44.976-39.42,81.355-88.135,81.355"/>
	<g class="st31">
		<line id="vecmap_3_" class="st26" x1="317.407" y1="356.645" x2="678.427" y2="356.645"/>
	</g>
	<g class="st31">
		<line id="vecmap_4_" class="st26" x1="368.543" y1="365.119" x2="368.543" y2="497.322"/>
	</g>
	<g class="st31">
		<line id="vecmap_5_" class="st26" x1="637.719" y1="365.119" x2="637.719" y2="497.322"/>
	</g>
	<g class="st31">
		<rect id="vecmaprec" x="317.407" y="385.323" class="st47" width="355.205" height="80"/>
	</g>
	<g class="st31">
		<line class="st26" x1="317.407" y1="465.323" x2="672.611" y2="465.323"/>
	</g>
</g>
<text transform="matrix(1 0 0 1 461.9832 703.8977)" class="st23 st15 st43">3X</text>
<path class="st2" d="M620.219,343.602"/>
<path class="st39" d="M383.594,609.325c0,0,41.716-44.212,15.288,15.771"/>
<path class="st37" d="M464.223,276.828c0,0-78.911-29.717-127.529,42.813"/>
<g id="Leaf_3_1_" class="st46">
	<path class="st8" d="M470.5,276.5c0,0-98,22-99,126"/>
	<path class="st8" d="M371.473,402.48c100.821-25.536,99.053-125.959,99.053-125.959"/>
	<path class="st22" d="M470.5,276.5c0,0-103.908,121.786-97.993,125.829"/>
	<polyline class="st14" points="391.166,395.17 400.166,380.504 400.166,391.837 	"/>
	<polyline class="st14" points="414.49,383.839 414.49,369.17 417.834,374.837 421.384,365.837 426.523,374.682 	"/>
	<polyline class="st14" points="433.984,369.807 434.638,346.091 439.851,363.159 	"/>
	<polyline class="st14" points="447.577,352.719 445.5,344.75 451.209,347.93 	"/>
	<polyline class="st14" points="455.527,340.22 449.293,317.328 459.22,332.156 	"/>
	<polyline class="st14" points="411.372,307.083 408.569,330.642 404.927,313.172 	"/>
	<polyline class="st14" points="387.261,336.962 390.177,360.507 382.459,344.416 	"/>
	<polyline class="st14" points="439.556,287.176 438.177,295.293 434.279,290.05 	"/>
</g>
<path class="st5" d="M197.474,456.711"/>
<g class="st46">
	<line class="st7" x1="200.201" y1="408.834" x2="334.358" y2="408.832"/>
	<line class="st7" x1="200.201" y1="422.834" x2="334.358" y2="422.83"/>
	<line class="st7" x1="334.358" y1="408.832" x2="334.358" y2="422.83"/>
	<line class="st7" x1="334.358" y1="408.832" x2="386.62" y2="361.921"/>
	<line class="st7" x1="334.358" y1="422.83" x2="386.62" y2="375.921"/>
</g>
<path class="st19" d="M347.486,340.05c0,0,5.202,22.209,42.864,13.854"/>
<g id="Layer_3">
	<path class="st4" d="M347.486,379.678"/>
</g>
<path class="st29" d="M729.121,287.91c0,0,11.345,19.923,5.695,24.59c0,0-1.649,17.334,12.351,16.667l36.667,0.019v-17.352
	c0,0-28.289-3.333-30.145,0.667c0,0-3.855-2.619-6.522,3.69"/>
<path class="st29" d="M754.41,308.548c0,0,3.389-21.381-19.594-31.381"/>
<g class="st46">
	<polyline class="st50" points="270.269,234.791 270.269,440.08 742.34,440.081 743.186,234.791 	"/>
	<path class="st20" d="M270.269,233.842H742.34C742.34,233.842,502.551,71.29,270.269,233.842z"/>
	<path class="st17" d="M652.249,282.801c0,23.153-18.77,41.921-41.921,41.921c-17.133,0-31.865-10.277-38.367-25.004
		c-2.285-5.174-3.554-10.897-3.554-16.917c0-23.152,18.77-41.921,41.921-41.921S652.249,259.649,652.249,282.801z"/>
	<path class="st3" d="M568.975,291.421l12.011-22.79c0,0,5.418-16.575,15.61,0l9.848,22.79c0,0,9.591,15.539,15.326,0l7.672-22.79
		c0,0,6.167-15.539,14.546,0l6.091,11.165"/>
	<rect x="573.837" y="331.495" class="st49" width="24.762" height="22.701"/>
	<line class="st27" x1="742.34" y1="440.081" x2="799.988" y2="393.689"/>
	<path class="st24" d="M799.988,234.791"/>
	<circle class="st0" cx="578.427" cy="365.193" r="4.155"/>
	<circle class="st0" cx="591.95" cy="365.193" r="4.155"/>
	<circle class="st0" cx="578.427" cy="376.011" r="4.155"/>
	<circle class="st0" cx="591.95" cy="376.011" r="4.155"/>
	<rect x="632.996" y="332.027" class="st0" width="11.494" height="5.409"/>
	<rect x="632.996" y="343.378" class="st0" width="11.494" height="5.409"/>
	<line class="st24" x1="638.743" y1="332.027" x2="638.743" y2="337.436"/>
	<line class="st24" x1="638.743" y1="342.845" x2="638.743" y2="348.255"/>
	<line class="st36" x1="279.597" y1="420.195" x2="732.165" y2="420.195"/>
	<line class="st36" x1="307.903" y1="395.168" x2="307.689" y2="260.003"/>
	<ellipse class="st30" cx="761.89" cy="402.358" rx="7.701" ry="14.528"/>
	<path class="st34" d="M555.923,244.487c0-8.962,7.267-16.228,16.228-16.228h78.426c8.961,0,16.228,7.266,16.228,16.228v134.428
		c0,8.962-7.267,16.228-16.228,16.228H572.15c-8.961,0-16.228-7.265-16.228-16.228V244.487z"/>
	<line class="st36" x1="708.182" y1="395.168" x2="707.968" y2="260.003"/>
</g>
<g id="Layer_1_3_" class="st46">
	<g>
		<path class="st31" d="M436.168,300.178h3.62v51.345h-3.62V300.178z"/>
	</g>
	<path class="st49" d="M558.369,609.679c0,0,107.626-63.632,92.52-113.151"/>
	<rect x="376.743" y="270.432" class="st47" width="452.382" height="347.419"/>
	<div  class="typewriter">
		
			<text  transform="matrix(1 0 0 1 264.0769 578.5002)" font-family="&apos;Montserrat-Regular&apos;" font-size="72" startOffset="0">
			www.???.com</text>
	</div>
	<ellipse class="st2" cx="676.052" cy="225.303" rx="49.854" ry="44.796"/>
	<g id="Layer_4_2_" class="st31">
		<ellipse class="st4" cx="724.358" cy="439.832" rx="29.331" ry="31.608"/>
	</g>
	<path class="st2" d="M638.741,257.524c0,0,23.188,27.596,16.606-2.775C655.347,254.746,653.01,251.95,638.741,257.524z"/>
	<path class="st45" d="M709.677,197.876c4.834,0,8.752,9.38,8.752,20.952c0,11.568-3.918,20.948-8.752,20.948
		c-4.829,0-8.747-9.38-8.747-20.948C700.928,207.256,704.846,197.876,709.677,197.876z"/>
	<polygon class="st4" points="626.843,256.703 615.824,270.286 630.91,281.068 637.966,276.028 635.356,260.42 	"/>
	<path class="st2" d="M624.089,284.729c0,0-5.978,3.813,0,14.478c5.975,10.667,31.938,0,31.938,0l9.849-19.811l8.32,19.811
		l9.063-0.764l-9.063-31.233c0,0-6.684-10.667-18.169,0c-11.485,10.666-20.626,15.999-20.626,15.999L624.089,284.729z"/>
	<path class="st49" d="M536.172,475.515c0,0-126.666,141.386-41.34,185.573c85.329,44.188,127.854,38.854,143.158,31.235
		c15.312-7.616,83.037-53.948,38.164-115.806c0,0,1.525,29.715-13.713,40.381c-15.237,10.665-50.594,59.59-108.946-13.063
		c0,0-16.336-0.646-26.833-12.074"/>
	<path class="st2" d="M624.089,271.778l-5.224,26.665c0,0,23.006-7.221,23.577-19.989"/>
	<path class="st49" d="M601.908,505.953c28.137,0,50.944,21.268,50.944,47.495c0,26.229-22.812,47.491-50.944,47.491
		c-28.137,0-50.944-21.265-50.944-47.491C550.964,527.221,573.771,505.953,601.908,505.953z"/>
	<g class="st31">
		<path class="st44" d="M469.453,380.906c0,0,25.151-160.597,184.078-85.71C812.456,370.079,469.453,380.906,469.453,380.906z"/>
		<path class="st4" d="M719.476,451.155c0,47.834-51.467,86.613-114.961,86.613c-63.49,0-114.962-38.778-114.962-86.613
			s51.473-86.607,114.962-86.607C668.01,364.543,719.476,403.32,719.476,451.155z"/>
		<path class="st44" d="M540.285,439.834l-13.623-89.25c0,0,58.975-140.431,168.711-25.754l7.31,47.889
			c0,0-81.328-2.413-156.65,62.056C544.109,436.417,542.193,438.102,540.285,439.834z"/>
		<path class="st44" d="M673.395,459.756l-137.227-21.375c0,0,73.577-60.235,162.396-67.113l100.559,8.04
			C799.123,379.307,695.613,378.402,673.395,459.756z"/>
		<path class="st44" d="M527.135,349.929c0,0-47.587-4.173-55.895,22.222c-8.305,26.396,15.047,76.297,15.047,76.297l52.744-11.014
			L527.135,349.929z"/>
		<polygon class="st48" points="611.828,326.575 604.705,359.806 637.99,349.689 		"/>
		<path class="st4" d="M492.639,349.615c0,0-18.044,30.678,0,43.308l21.649-21.653C514.291,371.267,498.052,376.68,492.639,349.615z
			"/>
	</g>
	<path class="st4" d="M560.222,537.768c0,0,57.959,31.415,57.995-7.197"/>
	<path class="st4" d="M563.384,561.01c0,0,40.321,18.193,54.836-7.907"/>
	<path class="st4" d="M575.101,579.42c0,0,42.354,12.774,53.334-14.998"/>
	<ellipse class="st49" cx="591.147" cy="507.304" rx="19.916" ry="21.461"/>
	<path class="st49" d="M572.411,514.603c0,0,28.344-25.265,38.652-7.298"/>
	<ellipse class="st49" cx="731.771" cy="528.744" rx="39.822" ry="53.229"/>
	<ellipse class="st49" cx="650.885" cy="561.01" rx="39.823" ry="53.23"/>
	<path class="st2" d="M658.844,290.823c0,0-8.591,9.146-25.353,0c0,0-4.036,3.472-10.61-5.883l1.208-13.162"/>
	<polygon class="st47" points="376.743,270.432 560.471,168.266 914.97,168.266 829.125,270.432 	"/>
	<polygon class="st47" points="829.125,617.848 829.125,270.432 914.97,168.266 914.97,463.365 	"/>
	<ellipse class="st49" cx="658.351" cy="563.353" rx="26.236" ry="40.482"/>
	<ellipse class="st49" cx="742.151" cy="530.57" rx="22.672" ry="40.481"/>
	<line class="st36" x1="634.368" y1="546.943" x2="671.988" y2="528.765"/>
	<line class="st36" x1="633.155" y1="574.903" x2="680.822" y2="547.495"/>
	<line class="st36" x1="643.191" y1="596.381" x2="682.345" y2="571.051"/>
	<line class="st36" x1="724.973" y1="561.071" x2="766.345" y2="538.188"/>
	<line class="st36" x1="721.31" y1="514.603" x2="754.41" y2="496.528"/>
	<path class="st38" d="M762.988,514.603"/>
	<path class="st38" d="M721.31,542.009"/>
	<path class="st38" d="M751.65,538.854"/>
	<path class="st38" d="M724.984,457.857"/>
	<line class="st36" x1="720.054" y1="538.477" x2="761.429" y2="515.597"/>
	<path class="st49" d="M486.969,581.884c9.677,0,17.521,12.945,17.521,28.922c0,15.97-7.846,28.922-17.521,28.922
		c-9.682,0-17.523-12.952-17.523-28.922C469.443,594.829,477.288,581.884,486.969,581.884z"/>
	<ellipse class="st49" cx="515.99" cy="621.472" rx="8.557" ry="10.667"/>
	<ellipse class="st49" cx="504.49" cy="642.805" rx="7.104" ry="6.095"/>
	<path class="st49" d="M478.289,566.154c0,0-18.184-36.244,17.317-21.855L478.289,566.154z"/>
	<path class="st49" d="M497.911,535.49c0,0-18.181-36.242,17.317-21.855L497.911,535.49z"/>
	<polygon class="st4" points="331.031,135.404 425.505,112.547 445.311,307.585 	"/>
	<polygon class="st4" points="602.416,31.989 704.26,59.915 564.478,307.585 	"/>
	<polygon class="st4" points="768.13,141.807 832.219,193.551 710.97,307.585 	"/>
	<path class="st4" d="M453.454,314.943c8.835,0,15.999,5.893,15.999,13.16c0,7.269-7.162,13.157-15.999,13.157
		s-15.999-5.891-15.999-13.157C437.455,320.833,444.617,314.943,453.454,314.943z"/>
	<path class="st4" d="M558.369,314.943c8.835,0,15.999,5.893,15.999,13.16c0,7.269-7.163,13.157-15.999,13.157
		c-8.837,0-16-5.891-16-13.157C542.369,320.833,549.532,314.943,558.369,314.943z"/>
	<ellipse class="st4" cx="700.394" cy="325.815" rx="16" ry="13.158"/>
	<g id="Layer_2_1_" class="st31">
		<ellipse class="st4" cx="487.347" cy="496.526" rx="29.332" ry="31.609"/>
		<ellipse class="st19" cx="724.984" cy="448.448" rx="29.333" ry="31.608"/>
		<path class="st4" d="M481.118,475.515h12.142H481.118z"/>
		<g>
			<path class="st4" d="M432.358,475.515"/>
		</g>
	</g>
</g>
<g>
	<path class="st28" d="M567.174,564.43c0,0,96.25-13.146,83.139-77.75c0,0-28.766-45.857-37.928-37.654
		c0,0-7.992-16.929,6.068-25.456c0,0-37.552,16.082-27.564,27.799c0,0,40.4,63.768,0,48.877"/>
	<ellipse class="st12" cx="424.812" cy="560.395" rx="48.338" ry="37.932"/>
	<path class="st28" d="M542.278,475.98l18.171,86.696c-172.841,42.751-148.82-86.696-148.82-86.696"/>
	<ellipse class="st47" cx="399.545" cy="407.08" rx="31.445" ry="33.879"/>
	<g id="Layer_3_1_">
		<polygon class="st18" points="412.992,425.059 438.701,475.037 480.994,411.126 447.316,401.592 		"/>
	</g>
	<path class="st32" d="M467.99,419.366c33.14,0,60.008,25.049,60.008,55.947c0,30.89-26.868,55.939-60.008,55.939
		c-28.999,0-53.195-19.174-58.792-44.663c-0.8-3.642-1.215-7.415-1.215-11.276C407.982,444.416,434.847,419.366,467.99,419.366z"/>
	<ellipse class="st12" cx="526.76" cy="572.699" rx="48.338" ry="37.932"/>
	<path class="st47" d="M422.73,438.295c0,0-20.25-28.756,22.272-25.11c0,0-22.612-8.232-30.477,11.648
		c-7.866,19.884-8.918,153.771-39.354,137.983c0,0-16.786-9.086-10.463-17.443c0,0-10.181,45.158,33.427,41.377
		C441.749,582.967,422.73,438.295,422.73,438.295z"/>
	<path class="st47" d="M485.169,440.95l29.61,147.668c0,0,69.053-23.581,77.869-54.048c0,0-14.615-14.018-5.83-32.789l-31.639-84.82
		C555.176,416.958,490.74,449.28,485.169,440.95z"/>
	<path class="st21" d="M471.663,228.619c138.093-65.068,159.944,74.473,159.944,74.473S333.573,293.686,471.663,228.619z"/>
	<path class="st28" d="M514.256,288.877c55.164,0,99.889,33.689,99.889,75.254c0,41.562-44.723,75.254-99.889,75.254
		c-55.173,0-99.89-33.696-99.89-75.254C414.364,322.566,459.081,288.874,514.256,288.877z"/>
	<path class="st21" d="M565.072,349.897c-65.447-56.018-136.116-53.919-136.116-53.919l6.352-41.609
		c95.352-99.643,146.588,22.373,146.588,22.373l-11.833,77.549C568.403,352.789,566.738,351.325,565.072,349.897z"/>
	<path class="st21" d="M345.16,301.704l87.375-6.986c77.172,5.974,141.104,58.314,141.104,58.314l-119.236,18.573
		C435.097,300.916,345.16,301.702,345.16,301.704z"/>
	<path class="st21" d="M571.154,352.209l45.826,9.568c0,0,20.289-43.36,13.074-66.294c-7.217-22.935-48.564-19.306-48.564-19.306
		L571.154,352.209z"/>
	<polygon class="st4" points="485.169,275.968 514.089,284.758 507.899,255.885 	"/>
	<path class="st4" d="M592.648,294.718l18.813,18.814c15.679-10.975,0-37.628,0-37.628
		C606.758,299.419,592.648,294.718,592.648,294.718z"/>
	<g id="PHONE">
		<polyline class="st47" points="546.386,475.392 562.211,465.902 627.246,335.942 586.818,310.748 569.241,313.096 		"/>
		<polygon class="st47" points="554.592,341.805 569.824,364.071 534.652,430.864 512.406,430.864 497.171,454.3 546.386,475.392 
			613.181,341.805 569.241,313.096 		"/>
		<line class="st26" x1="613.181" y1="341.805" x2="627.246" y2="335.942"/>
		<line class="st40" x1="611.424" y1="337.699" x2="625.488" y2="312.506"/>
		<circle class="st42" cx="625.488" cy="312.506" r="7.031"/>
		<g id="Layer_2_2_">
			<ellipse class="st47" cx="573.72" cy="411.154" rx="31.439" ry="33.88"/>
			<path class="st9" d="M559.104,392.267h10.896H559.104z"/>
			<g>
				<path class="st47" d="M514.777,388.633"/>
			</g>
		</g>
	</g>
	<path class="st47" d="M513.789,472.874c0,0,16.195,12.482,32.598,3.107l2.236,30.253c0,0-19.182,16.779-30.627,0L513.789,472.874z"
		/>
	<path class="st4" d="M581.897,501.779c0,0-14.831,14.78-8.178,26.127"/>
	<path class="st4" d="M578.752,500.244c0,0-10.854,4.643-9.739,11.978"/>
	<path class="st13" d="M628.41,533.752c-6.781-1.606-10.135-11.984-7.484-23.184c2.65-11.196,10.301-18.972,17.083-17.367
		c6.786,1.607,10.138,11.988,7.487,23.18C642.843,527.584,635.195,535.356,628.41,533.752z"/>
	
		<ellipse transform="matrix(0.2303 -0.9731 0.9731 0.2303 -14.606 983.934)" class="st13" cx="614.66" cy="501.2" rx="7.685" ry="6.166"/>
	
		<ellipse transform="matrix(0.2304 -0.9731 0.9731 0.2304 6.9022 985.0649)" class="st13" cx="626.236" cy="488.169" rx="4.391" ry="5.116"/>
	<path class="st4" d="M446.573,493.068c0,0,4.126,15.301-3.033,12.593"/>
	<ellipse class="st16" cx="498.896" cy="411.769" rx="14.701" ry="15.84"/>
	<path class="st1" d="M484.196,411.77c7.609-13.261,28.528,5.386,28.528,5.386C492.958,440.049,484.196,411.77,484.196,411.77z"/>
	<path class="st40" d="M636.299,275.637c0,0,21.895-4.175,24.391,18.034"/>
	<path class="st40" d="M639.876,263.092c0,0,31.433-5.994,35.018,25.889"/>
	<path class="st40" d="M645.335,249.041c0,0,41.303-7.872,46.013,34.02"/>
</g>
<g id="Layer_3_2_" class="st46">
	<g class="st31">
		<path class="st47" d="M598.598,174.104c-10.057,21.123-24.762,14.782-24.762,14.782c12.513,15.621-5.43,30.92-5.43,30.92
			s-86.731,24.296-111.489,0c-24.759-24.296-7.939-55.429-7.939-55.429"/>
		<path class="st47" d="M491.276,167.856c23.108,2.112-17.851,37.257-17.851,37.257c8.114,25.087-17.403,24.943-17.403,24.943
			l-67.99,12.955c0,0-30.326-2.358-19.797-25.91c0,0-15.207-3.042-16.538-22.086C351.698,195.015,387.382,158.363,491.276,167.856z"
			/>
		<path class="st41" d="M509.889,221.341c0,0-38.668,41.822-4.538,55.748C505.351,277.089,541.79,274.357,509.889,221.341z"/>
		<path class="st47" d="M508.088,241.443c0,0-17.971,19.438-2.109,25.91C505.978,267.352,522.913,266.082,508.088,241.443z"/>
	</g>
	<g class="st31">
		<path class="st41" d="M513.946,188.886c0,0-38.667,41.822-4.537,55.748C509.409,244.634,545.846,241.902,513.946,188.886z"/>
		<path class="st47" d="M512.145,208.988c0,0-17.972,19.438-2.11,25.91C510.035,234.897,526.97,233.627,512.145,208.988z"/>
	</g>
	<g class="st31">
		<path class="st41" d="M535.583,207.818c0,0-38.667,41.822-4.537,55.748C531.046,263.566,567.483,260.834,535.583,207.818z"/>
		<path class="st47" d="M533.782,227.92c0,0-17.971,19.437-2.11,25.91C531.672,253.829,548.607,252.559,533.782,227.92z"/>
	</g>
	<g class="st31">
		<path class="st41" d="M407.115,228.103c0,0-38.667,41.822-4.538,55.748C402.577,283.85,439.015,281.118,407.115,228.103z"/>
		<path class="st47" d="M405.314,248.204c0,0-17.971,19.437-2.109,25.909C403.204,274.114,420.138,272.844,405.314,248.204z"/>
	</g>
	<g class="st31">
		<path class="st41" d="M451.741,244.33c0,0-38.668,41.822-4.538,55.748C447.203,300.078,483.641,297.345,451.741,244.33z"/>
		<path class="st47" d="M449.94,264.432c0,0-17.972,19.437-2.11,25.909C447.83,290.341,464.764,289.072,449.94,264.432z"/>
	</g>
	<g class="st31">
		<path class="st41" d="M407.115,228.103c0,0-38.667,41.822-4.538,55.748C402.577,283.85,439.015,281.118,407.115,228.103z"/>
		<path class="st47" d="M405.314,248.204c0,0-17.971,19.437-2.109,25.909C403.204,274.114,420.138,272.844,405.314,248.204z"/>
	</g>
	<g class="st31">
		<path class="st41" d="M426.047,199.704c0,0-38.667,41.822-4.538,55.748C421.509,255.452,457.948,252.72,426.047,199.704z"/>
		<path class="st47" d="M424.246,219.806c0,0-17.971,19.438-2.109,25.91C422.136,245.716,439.071,244.446,424.246,219.806z"/>
	</g>
	<path class="st22" d="M351.698,161.596"/>
	<path class="st22" d="M388.501,244.634"/>
	<path class="st22" d="M518.227,174.104c0,0,16.442-9.979,30.445,9.466"/>
	<path class="st22" d="M370.836,207.079c0,0,10.987-22.382,28.39-10.818"/>
</g>
</svg>
