<?xml version="1.0" encoding="utf-8"?>
<!-- Generator: Adobe Illustrator 16.0.0, SVG Export Plug-In . SVG Version: 6.00 Build 0)  -->
<!DOCTYPE svg PUBLIC "-//W3C//DTD SVG 1.1//EN" "http://www.w3.org/Graphics/SVG/1.1/DTD/svg11.dtd">
<svg version="1.1" id="Layer_2" xmlns="http://www.w3.org/2000/svg" xmlns:xlink="http://www.w3.org/1999/xlink" x="0px" y="0px"
	  viewBox="0 0 1000 1000" style="enable-background:new 0 0 1000 1000;" xml:space="preserve">
<style type="text/css">
<![CDATA[
	.st0{fill:#FFFFFF;stroke:#000000;stroke-miterlimit:10;}
	.st1{fill:#FFFFFF;stroke:#000000;stroke-width:2;stroke-miterlimit:10;}
	.st2{display:none;fill:#FFFFFF;stroke:#000000;stroke-miterlimit:10;}
	.st3{fill:#484FAA;stroke:#FFFFFF;stroke-width:5;stroke-miterlimit:10;}
	.st4{display:inline;fill:none;stroke:#000000;stroke-width:9;stroke-miterlimit:10;}
	.st5{display:inline;fill:#7F9E3D;stroke:#000000;stroke-width:3;stroke-miterlimit:10;}
	.st6{display:none;fill:#FFFFFF;stroke:#000000;stroke-width:3;stroke-miterlimit:10;}
	.st7{display:inline;fill:none;stroke:#000000;stroke-width:4;stroke-miterlimit:10;}
	.st8{display:inline;fill:#FFFFFF;stroke:#000000;stroke-width:5;stroke-miterlimit:10;}
	.st9{opacity:0.3;stroke:#000000;stroke-miterlimit:10;enable-background:new    ;}
	.st10{display:inline;fill:#CACAEF;stroke:#000000;stroke-miterlimit:10;}
	.st11{font-family:'MyriadPro-Regular';}
	.st12{display:none;fill:#FFFFFF;stroke:#000000;stroke-width:2;stroke-miterlimit:10;}
	.st13{display:inline;fill:none;stroke:#000000;stroke-width:3;stroke-miterlimit:10;}
	.st14{display:none;enable-background:new    ;}
	.st15{display:inline;fill:#FFFFFF;stroke:#000000;stroke-width:4;stroke-miterlimit:10;}
	.st16{fill:none;stroke:#000000;stroke-width:3;stroke-miterlimit:10;}
	.st17{display:inline;}
	.st18{display:none;opacity:0.3;stroke:#000000;stroke-miterlimit:10;enable-background:new    ;}
	.st19{display:none;fill:#7F9E3D;stroke:#000000;stroke-width:3;stroke-miterlimit:10;}
	.st20{display:inline;fill:#FFFFFF;stroke:#000000;stroke-width:3;stroke-miterlimit:10;}
	.st21{display:none;fill:#E4E4EF;stroke:#000000;stroke-width:2;stroke-miterlimit:10;}
	.st22{fill:none;stroke:#000000;stroke-width:2;stroke-miterlimit:10;}
	.st23{font-size:72;}
	.st24{fill:#DDDDDD;stroke:#000000;stroke-width:2;stroke-miterlimit:10;}
	.st25{display:none;}
	.st26{fill:#FFFFFF;stroke:#000000;stroke-width:3;stroke-miterlimit:10;}
	.st27{display:none;fill:#FF0000;stroke:#000000;stroke-miterlimit:10;}
	.st28{stroke:#000000;stroke-width:2;stroke-miterlimit:10;}
]]>
</style>
<circle class="st9" cx="500" cy="453.711" r="302.542"/>
<circle class="st18" cx="500" cy="456.711" r="302.542"/>
<g id="Layer_x5F_1" class="st25">
	<path class="st15" d="M444.525,594.475c0,6.627-5.373,12-12,12H331.102c-6.627,0-12-5.373-12-12V348.983c0-6.627,5.373-12,12-12
		h101.424c6.627,0,12,5.373,12,12L444.525,594.475L444.525,594.475z"/>
	<path class="st15" d="M656.459,594.475c0,6.627-5.37,12-12,12H543.034c-6.627,0-12-5.373-12-12V348.983c0-6.627,5.373-12,12-12
		h101.425c6.63,0,12,5.373,12,12V594.475z"/>
	<path class="st15" d="M569.949,515.729c0,6.627-5.373,12-12,12H456.525c-6.627,0-12-5.373-12-12V270.237c0-6.627,5.373-12,12-12
		h101.424c6.627,0,12,5.373,12,12V515.729z"/>
	<path class="st8" d="M723.729,521.115c0,13.262-10.744,24-24,24H300.271c-13.255,0-24-10.738-24-24V318.272
		c0-13.254,10.745-24,24-24h399.457c13.256,0,24,10.746,24,24L723.729,521.115L723.729,521.115z"/>
	<path class="st20" d="M686.174,483.658c0,13.262-10.744,24-24,24H333.898c-13.255,0-24-10.738-24-24V350.308
		c0-13.254,10.745-24,24-24h328.272c13.256,0,24,10.746,24,24L686.174,483.658L686.174,483.658z"/>
	<path id="vecmap" class="st4" d="M348.052,427.712c0,31.853,20.468,57.628,45.763,57.628"/>
	<path id="vecmap_1_" class="st7" d="M584.477,549.115c0,44.973,39.42,81.355,88.135,81.355"/>
	<path id="vecmap_2_" class="st7" d="M412.609,545.115c0,44.973-39.42,81.355-88.135,81.355"/>
	<g class="st17">
		<line id="vecmap_3_" class="st16" x1="317.407" y1="356.645" x2="678.427" y2="356.645"/>
	</g>
	<g class="st17">
		<line id="vecmap_4_" class="st16" x1="368.543" y1="365.119" x2="368.543" y2="497.322"/>
	</g>
	<g class="st17">
		<line id="vecmap_5_" class="st16" x1="637.716" y1="365.119" x2="637.716" y2="497.322"/>
	</g>
	<g class="st17">
		<rect id="vecmaprec" x="317.407" y="385.323" class="st26" width="355.205" height="80"/>
	</g>
	<g class="st17">
		<line class="st16" x1="317.407" y1="465.323" x2="672.611" y2="465.323"/>
	</g>
</g>
<text transform="matrix(1 0 0 1 461.9832 703.8977)" class="st14 st11 st23">3X</text>
<path class="st0" d="M620.219,343.602"/>
<path class="st21" d="M383.593,609.328c0,0,41.716-44.212,15.288,15.769"/>
<path class="st19" d="M464.223,276.828c0,0-78.911-29.714-127.529,42.813"/>
<g id="Leaf_3_1_" class="st25">
	<path class="st5" d="M470.5,276.5c0,0-98,22-99,126"/>
	<path class="st5" d="M371.473,402.48c100.821-25.536,99.053-125.959,99.053-125.959"/>
	<path class="st13" d="M470.5,276.5c0,0-103.911,121.786-97.996,125.829"/>
	<polyline class="st10" points="391.166,395.17 400.166,380.504 400.166,391.837 	"/>
	<polyline class="st10" points="414.49,383.839 414.49,369.17 417.834,374.837 421.381,365.837 426.523,374.682 	"/>
	<polyline class="st10" points="433.984,369.807 434.638,346.091 439.851,363.159 	"/>
	<polyline class="st10" points="447.577,352.719 445.5,344.75 451.209,347.93 	"/>
	<polyline class="st10" points="455.527,340.22 449.293,317.328 459.22,332.157 	"/>
	<polyline class="st10" points="411.372,307.083 408.569,330.642 404.927,313.172 	"/>
	<polyline class="st10" points="387.261,336.962 390.177,360.507 382.459,344.416 	"/>
	<polyline class="st10" points="439.556,287.176 438.177,295.293 434.279,290.05 	"/>
</g>
<path class="st3" d="M197.474,456.711"/>
<g id="Layer_1_1_">
	<g class="st25">
		<path class="st17" d="M413.762,453.183h1.588v22.526h-1.588V453.183z"/>
	</g>
	<path class="st1" d="M467.375,588.969c0,0,47.219-27.917,40.59-49.643"/>
	<rect x="387.691" y="440.132" class="st6" width="198.471" height="152.422"/>
	<div  class="typewriter">
		
			<text  transform="matrix(1 0 0 1 264.0769 578.5002)" font-family="&apos;Montserrat-Regular&apos;" font-size="72" startOffset="0">
			www.???.com</text>
	</div>
	<ellipse class="st2" cx="519.005" cy="420.333" rx="21.873" ry="19.653"/>
	<g id="Layer_4">
		<ellipse class="st1" cx="540.199" cy="514.452" rx="12.868" ry="13.867"/>
	</g>
	<path class="st2" d="M502.636,434.469c0,0,10.172,12.106,7.285-1.219C509.922,433.25,508.895,432.024,502.636,434.469z"/>
	<ellipse class="st27" cx="533.758" cy="417.492" rx="3.839" ry="9.192"/>
	<polygon class="st12" points="497.415,434.109 492.582,440.068 499.201,444.799 502.295,442.587 501.151,435.74 	"/>
	<path class="st2" d="M496.207,446.405c0,0-2.622,1.671,0,6.351c2.622,4.68,14.012,0,14.012,0l4.32-8.69l3.651,8.69l3.975-0.334
		l-3.975-13.704c0,0-2.933-4.68-7.972,0c-5.039,4.679-9.05,7.019-9.05,7.019L496.207,446.405z"/>
	<path class="st1" d="M457.635,530.108c0,0-55.572,62.03-18.136,81.416c37.436,19.387,56.092,17.047,62.807,13.705
		c6.717-3.343,36.431-23.67,16.744-50.807c0,0,0.669,13.036-6.017,17.716c-6.685,4.679-22.196,26.144-47.797-5.733
		c0,0-7.167-0.283-11.772-5.297"/>
	<path class="st2" d="M496.207,440.722l-2.291,11.699c0,0,10.094-3.168,10.345-8.771"/>
	<path class="st24" d="M428.365,488.6c0,0,11.035-70.458,80.76-37.604C578.849,483.85,428.365,488.6,428.365,488.6z"/>
	<ellipse class="st1" cx="486.476" cy="564.3" rx="22.351" ry="20.836"/>
	<path class="st1" d="M538.057,519.42c0,20.986-22.58,37.999-50.437,37.999c-27.855,0-50.438-17.013-50.438-37.999
		c0-20.986,22.583-37.999,50.438-37.999C515.477,481.421,538.057,498.434,538.057,519.42z"/>
	<path class="st24" d="M459.441,514.453l-5.977-39.157c0,0,25.873-61.609,74.018-11.298l3.206,21.01c0,0-35.682-1.059-68.727,27.225
		C461.118,512.954,460.278,513.694,459.441,514.453z"/>
	<path class="st24" d="M517.84,523.194l-60.205-9.378c0,0,32.281-26.427,71.248-29.444L573,487.899
		C573,487.899,527.588,487.501,517.84,523.194z"/>
	<path class="st24" d="M453.67,475.01c0,0-20.878-1.831-24.521,9.749s6.602,33.474,6.602,33.474l23.14-4.832L453.67,475.01z"/>
	<polygon class="st28" points="490.829,464.764 487.704,479.343 502.306,474.905 	"/>
	<path class="st1" d="M438.537,474.872c0,0-7.917,13.458,0,19l9.5-9.5C448.037,484.372,440.912,486.747,438.537,474.872z"/>
	<path class="st12" d="M468.188,557.419c0,0,25.428,13.783,25.444-3.157"/>
	<path class="st12" d="M469.573,567.616c0,0,17.691,7.983,24.058-3.469"/>
	<path class="st12" d="M474.716,575.694c0,0,18.582,5.605,23.399-6.58"/>
	<ellipse class="st1" cx="481.756" cy="544.054" rx="8.738" ry="9.416"/>
	<ellipse class="st1" cx="543.451" cy="553.461" rx="17.471" ry="23.353"/>
	<ellipse class="st1" cx="507.964" cy="567.616" rx="17.472" ry="23.354"/>
	<path class="st2" d="M511.455,449.078c0,0-3.769,4.011-11.122,0c0,0-1.771,1.522-4.656-2.582l0.53-5.774"/>
	<polygon class="st6" points="387.691,440.132 468.297,395.309 623.825,395.309 586.162,440.132 	"/>
	<polygon class="st6" points="586.162,592.553 586.162,440.132 623.825,395.309 623.825,524.778 	"/>
	<ellipse class="st1" cx="511.24" cy="568.644" rx="11.511" ry="17.76"/>
	<ellipse class="st1" cx="548.005" cy="554.261" rx="9.947" ry="17.76"/>
	<path class="st1" d="M473.535,547.256c0,0,12.434-11.084,16.958-3.201"/>
	<line class="st22" x1="500.718" y1="561.445" x2="517.222" y2="553.47"/>
	<line class="st22" x1="500.185" y1="573.711" x2="521.098" y2="561.689"/>
	<line class="st22" x1="504.589" y1="583.135" x2="521.766" y2="572.022"/>
	<line class="st22" x1="540.469" y1="567.643" x2="558.62" y2="557.604"/>
	<line class="st22" x1="538.862" y1="547.256" x2="553.384" y2="539.326"/>
	<path class="st26" d="M557.146,547.256"/>
	<path class="st26" d="M538.862,559.281"/>
	<path class="st26" d="M552.173,557.457"/>
	<path class="st26" d="M540.473,522.361"/>
	<line class="st22" x1="538.31" y1="557.731" x2="556.463" y2="547.693"/>
	<ellipse class="st1" cx="436.049" cy="589.463" rx="7.688" ry="12.688"/>
	<ellipse class="st1" cx="448.782" cy="594.143" rx="3.753" ry="4.68"/>
	<ellipse class="st1" cx="443.737" cy="603.502" rx="3.116" ry="2.674"/>
	<path class="st1" d="M432.241,569.873c0,0-7.978-15.901,7.598-9.59L432.241,569.873z"/>
	<path class="st1" d="M440.85,556.42c0,0-7.977-15.9,7.598-9.59L440.85,556.42z"/>
	<polygon class="st12" points="367.635,380.892 409.082,370.864 417.773,456.432 	"/>
	<polygon class="st12" points="486.699,335.521 531.381,347.773 470.055,456.432 	"/>
	<polygon class="st12" points="559.401,383.701 587.519,406.403 534.325,456.432 	"/>
	<ellipse class="st12" cx="421.346" cy="465.433" rx="7.019" ry="5.773"/>
	<ellipse class="st12" cx="467.375" cy="465.434" rx="7.019" ry="5.773"/>
	<ellipse class="st12" cx="529.685" cy="464.43" rx="7.02" ry="5.773"/>
</g>
<g id="Layer_2_1_">
	<ellipse class="st1" cx="436.216" cy="539.326" rx="12.869" ry="13.868"/>
	<ellipse class="st12" cx="540.473" cy="518.233" rx="12.869" ry="13.867"/>
	<path class="st1" d="M433.483,530.108h5.326H433.483z"/>
	<g>
		<path class="st1" d="M412.091,530.108"/>
	</g>
</g>
<g id="Layer_1_2_">
	<g class="st25">
		<path class="st17" d="M564.443,300.919h1.589v22.526h-1.589V300.919z"/>
	</g>
	<path class="st1" d="M618.056,436.705c0,0,47.219-27.917,40.59-49.643"/>
	<rect x="538.373" y="287.868" class="st6" width="198.471" height="152.422"/>
	<div  class="typewriter">
		
			<text  transform="matrix(1 0 0 1 264.0769 578.5002)" font-family="&apos;Montserrat-Regular&apos;" font-size="72" startOffset="0">
			www.???.com</text>
	</div>
	<ellipse class="st2" cx="669.686" cy="268.07" rx="21.873" ry="19.653"/>
	<g id="Layer_4_1_">
		<ellipse class="st1" cx="690.881" cy="362.189" rx="12.868" ry="13.867"/>
	</g>
	<path class="st2" d="M653.318,282.205c0,0,10.172,12.106,7.285-1.219C660.603,280.987,659.577,279.76,653.318,282.205z"/>
	<ellipse class="st27" cx="684.439" cy="265.228" rx="3.839" ry="9.192"/>
	<polygon class="st12" points="648.096,281.845 643.263,287.804 649.883,292.535 652.976,290.323 651.833,283.476 	"/>
	<path class="st2" d="M646.888,294.141c0,0-2.621,1.671,0,6.351c2.621,4.68,14.012,0,14.012,0l4.32-8.69l3.651,8.69l3.975-0.334
		l-3.975-13.704c0,0-2.933-4.68-7.972,0c-5.039,4.679-9.05,7.019-9.05,7.019L646.888,294.141z"/>
	<path class="st1" d="M608.316,377.844c0,0-55.571,62.03-18.135,81.416c37.436,19.387,56.092,17.047,62.807,13.705
		c6.717-3.343,36.431-23.67,16.744-50.807c0,0,0.669,13.036-6.017,17.716c-6.685,4.679-22.196,26.144-47.798-5.733
		c0,0-7.166-0.283-11.771-5.297"/>
	<path class="st2" d="M646.888,288.459l-2.291,11.699c0,0,10.094-3.168,10.345-8.771"/>
	<path class="st24" d="M579.047,336.336c0,0,11.035-70.458,80.76-37.604C729.531,331.586,579.047,336.336,579.047,336.336z"/>
	<ellipse class="st1" cx="637.158" cy="412.036" rx="22.351" ry="20.836"/>
	<path class="st1" d="M688.739,367.156c0,20.986-22.58,37.999-50.437,37.999c-27.855,0-50.438-17.013-50.438-37.999
		s22.582-37.998,50.438-37.998C666.159,329.157,688.739,346.17,688.739,367.156z"/>
	<path class="st24" d="M610.123,362.19l-5.977-39.156c0,0,25.872-61.609,74.018-11.299l3.206,21.01c0,0-35.682-1.059-68.728,27.226
		C611.801,360.691,610.96,361.43,610.123,362.19z"/>
	<path class="st24" d="M668.521,370.93l-60.205-9.378c0,0,32.281-26.427,71.248-29.444l44.117,3.527
		C723.681,335.635,678.269,335.238,668.521,370.93z"/>
	<path class="st24" d="M604.351,322.746c0,0-20.877-1.831-24.521,9.749c-3.643,11.58,6.602,33.474,6.602,33.474l23.141-4.832
		L604.351,322.746z"/>
	<polygon class="st28" points="641.51,312.5 638.385,327.079 652.988,322.641 	"/>
	<path class="st1" d="M589.219,322.609c0,0-7.916,13.458,0,18.999l9.5-9.5C598.719,332.108,591.594,334.483,589.219,322.609z"/>
	<path class="st12" d="M618.869,405.156c0,0,25.429,13.783,25.444-3.157"/>
	<path class="st12" d="M620.256,415.353c0,0,17.691,7.983,24.058-3.469"/>
	<path class="st12" d="M625.397,423.43c0,0,18.582,5.605,23.399-6.58"/>
	<ellipse class="st1" cx="632.437" cy="391.791" rx="8.738" ry="9.416"/>
	<ellipse class="st1" cx="694.133" cy="401.197" rx="17.471" ry="23.353"/>
	<ellipse class="st1" cx="658.645" cy="415.353" rx="17.472" ry="23.354"/>
	<path class="st2" d="M662.136,296.815c0,0-3.769,4.011-11.122,0c0,0-1.771,1.522-4.656-2.582l0.53-5.774"/>
	<polygon class="st6" points="538.373,287.868 618.978,243.046 774.507,243.046 736.844,287.868 	"/>
	<polygon class="st6" points="736.844,440.289 736.844,287.868 774.507,243.046 774.507,372.514 	"/>
	<ellipse class="st1" cx="661.922" cy="416.381" rx="11.511" ry="17.76"/>
	<ellipse class="st1" cx="698.686" cy="401.998" rx="9.947" ry="17.76"/>
	<path class="st1" d="M624.217,394.992c0,0,12.435-11.084,16.959-3.201"/>
	<line class="st22" x1="651.399" y1="409.181" x2="667.904" y2="401.206"/>
	<line class="st22" x1="650.867" y1="421.448" x2="671.78" y2="409.425"/>
	<line class="st22" x1="655.27" y1="430.871" x2="672.448" y2="419.758"/>
	<line class="st22" x1="691.15" y1="415.379" x2="709.302" y2="405.34"/>
	<line class="st22" x1="689.544" y1="394.992" x2="704.065" y2="387.063"/>
	<path class="st26" d="M707.828,394.992"/>
	<path class="st26" d="M689.544,407.017"/>
	<path class="st26" d="M702.854,405.194"/>
	<path class="st26" d="M691.155,370.097"/>
	<line class="st22" x1="688.992" y1="405.467" x2="707.144" y2="395.429"/>
	<ellipse class="st1" cx="586.73" cy="437.199" rx="7.688" ry="12.688"/>
	<ellipse class="st1" cx="599.464" cy="441.879" rx="3.753" ry="4.68"/>
	<ellipse class="st1" cx="594.418" cy="451.239" rx="3.117" ry="2.674"/>
	<path class="st1" d="M582.924,417.61c0,0-7.979-15.901,7.598-9.59L582.924,417.61z"/>
	<path class="st1" d="M591.532,404.156c0,0-7.977-15.9,7.598-9.59L591.532,404.156z"/>
	<polygon class="st12" points="518.317,228.628 559.763,218.6 568.455,304.168 	"/>
	<polygon class="st12" points="637.381,183.257 682.062,195.509 620.736,304.168 	"/>
	<polygon class="st12" points="710.083,231.437 738.201,254.139 685.007,304.168 	"/>
	<ellipse class="st12" cx="572.027" cy="313.17" rx="7.02" ry="5.773"/>
	<ellipse class="st12" cx="618.056" cy="313.17" rx="7.02" ry="5.773"/>
	<ellipse class="st12" cx="680.367" cy="312.167" rx="7.02" ry="5.773"/>
</g>
<g id="Layer_2_2_">
	<ellipse class="st1" cx="439.216" cy="580.326" rx="12.869" ry="13.868"/>
	<ellipse class="st12" cx="543.473" cy="559.233" rx="12.869" ry="13.867"/>
	<path class="st1" d="M436.483,571.108h5.326H436.483z"/>
	<g>
		<path class="st1" d="M415.091,571.108"/>
	</g>
</g>
<g id="Layer_1_3_">
	<g class="st25">
		<path class="st17" d="M287.942,267.967h1.588v22.526h-1.588V267.967z"/>
	</g>
	<path class="st1" d="M341.555,403.753c0,0,47.219-27.917,40.59-49.643"/>
	<rect x="261.871" y="254.916" class="st6" width="198.471" height="152.422"/>
	<div  class="typewriter">
		
			<text  transform="matrix(1 0 0 1 264.0769 578.5002)" font-family="&apos;Montserrat-Regular&apos;" font-size="72" startOffset="0">
			www.???.com</text>
	</div>
	<ellipse class="st2" cx="393.185" cy="235.117" rx="21.873" ry="19.653"/>
	<g id="Layer_4_2_">
		<ellipse class="st1" cx="414.379" cy="329.237" rx="12.868" ry="13.867"/>
	</g>
	<path class="st2" d="M376.817,249.253c0,0,10.172,12.106,7.285-1.219C384.102,248.034,383.075,246.808,376.817,249.253z"/>
	<ellipse class="st27" cx="407.938" cy="232.276" rx="3.839" ry="9.192"/>
	<polygon class="st12" points="371.595,248.893 366.762,254.852 373.381,259.583 376.475,257.371 375.331,250.524 	"/>
	<path class="st2" d="M370.387,261.189c0,0-2.622,1.671,0,6.351c2.621,4.68,14.012,0,14.012,0l4.32-8.69l3.651,8.69l3.975-0.334
		l-3.975-13.704c0,0-2.933-4.68-7.972,0c-5.039,4.679-9.05,7.019-9.05,7.019L370.387,261.189z"/>
	<path class="st1" d="M331.815,344.892c0,0-55.572,62.03-18.136,81.416c37.436,19.387,56.092,17.047,62.807,13.705
		c6.717-3.343,36.431-23.67,16.744-50.807c0,0,0.669,13.036-6.017,17.716c-6.685,4.679-22.196,26.144-47.797-5.733
		c0,0-7.167-0.283-11.772-5.297"/>
	<path class="st2" d="M370.387,255.507l-2.291,11.699c0,0,10.094-3.168,10.345-8.771"/>
	<path class="st24" d="M302.545,303.384c0,0,11.035-70.458,80.76-37.604C453.03,298.634,302.545,303.384,302.545,303.384z"/>
	<ellipse class="st1" cx="360.656" cy="379.084" rx="22.351" ry="20.836"/>
	<path class="st1" d="M412.238,334.204c0,20.986-22.58,37.999-50.437,37.999c-27.855,0-50.438-17.013-50.438-37.999
		s22.583-37.998,50.438-37.998C389.657,296.205,412.238,313.218,412.238,334.204z"/>
	<path class="st24" d="M333.621,329.238l-5.977-39.156c0,0,25.873-61.609,74.018-11.299l3.206,21.01c0,0-35.682-1.059-68.727,27.226
		C335.299,327.739,334.458,328.478,333.621,329.238z"/>
	<path class="st24" d="M392.02,337.978l-60.205-9.378c0,0,32.281-26.427,71.248-29.444l44.117,3.527
		C447.18,302.683,401.768,302.285,392.02,337.978z"/>
	<path class="st24" d="M327.85,289.794c0,0-20.878-1.831-24.521,9.749s6.602,33.474,6.602,33.474l23.14-4.832L327.85,289.794z"/>
	<polygon class="st28" points="365.009,279.548 361.884,294.127 376.487,289.689 	"/>
	<path class="st1" d="M312.718,289.656c0,0-7.917,13.458,0,18.999l9.5-9.5C322.217,299.156,315.093,301.531,312.718,289.656z"/>
	<path class="st12" d="M342.368,372.203c0,0,25.428,13.783,25.444-3.157"/>
	<path class="st12" d="M343.754,382.401c0,0,17.691,7.983,24.058-3.469"/>
	<path class="st12" d="M348.896,390.478c0,0,18.582,5.605,23.399-6.58"/>
	<ellipse class="st1" cx="355.936" cy="358.839" rx="8.738" ry="9.416"/>
	<ellipse class="st1" cx="417.631" cy="368.245" rx="17.471" ry="23.353"/>
	<ellipse class="st1" cx="382.144" cy="382.401" rx="17.472" ry="23.354"/>
	<path class="st2" d="M385.635,263.863c0,0-3.769,4.011-11.122,0c0,0-1.771,1.522-4.656-2.582l0.53-5.774"/>
	<polygon class="st6" points="261.871,254.916 342.477,210.094 498.005,210.094 460.342,254.916 	"/>
	<polygon class="st6" points="460.342,407.337 460.342,254.916 498.005,210.094 498.005,339.562 	"/>
	<ellipse class="st1" cx="385.42" cy="383.428" rx="11.511" ry="17.76"/>
	<ellipse class="st1" cx="422.185" cy="369.046" rx="9.947" ry="17.76"/>
	<path class="st1" d="M347.716,362.04c0,0,12.434-11.084,16.958-3.201"/>
	<line class="st22" x1="374.898" y1="376.229" x2="391.403" y2="368.254"/>
	<line class="st22" x1="374.365" y1="388.495" x2="395.279" y2="376.473"/>
	<line class="st22" x1="378.769" y1="397.919" x2="395.947" y2="386.806"/>
	<line class="st22" x1="414.649" y1="382.427" x2="432.8" y2="372.388"/>
	<line class="st22" x1="413.042" y1="362.04" x2="427.564" y2="354.111"/>
	<path class="st26" d="M431.326,362.04"/>
	<path class="st26" d="M413.042,374.065"/>
	<path class="st26" d="M426.353,372.241"/>
	<path class="st26" d="M414.654,337.145"/>
	<line class="st22" x1="412.49" y1="372.515" x2="430.643" y2="362.477"/>
	<ellipse class="st1" cx="310.229" cy="404.247" rx="7.688" ry="12.688"/>
	<ellipse class="st1" cx="322.962" cy="408.927" rx="3.753" ry="4.68"/>
	<ellipse class="st1" cx="317.917" cy="418.286" rx="3.116" ry="2.674"/>
	<path class="st1" d="M306.422,384.657c0,0-7.978-15.901,7.598-9.59L306.422,384.657z"/>
	<path class="st1" d="M315.031,371.204c0,0-7.977-15.9,7.598-9.59L315.031,371.204z"/>
	<polygon class="st12" points="241.816,195.676 283.262,185.648 291.953,271.216 	"/>
	<polygon class="st12" points="360.879,150.305 405.561,162.557 344.235,271.216 	"/>
	<polygon class="st12" points="433.581,198.485 461.699,221.187 408.505,271.216 	"/>
	<ellipse class="st12" cx="295.526" cy="280.218" rx="7.019" ry="5.773"/>
	<ellipse class="st12" cx="341.555" cy="280.218" rx="7.019" ry="5.773"/>
	<ellipse class="st12" cx="403.865" cy="279.215" rx="7.02" ry="5.773"/>
</g>
<g id="Layer_2_3_">
	<ellipse class="st1" cx="310.396" cy="354.11" rx="12.869" ry="13.868"/>
	<ellipse class="st12" cx="414.654" cy="333.017" rx="12.869" ry="13.867"/>
	<path class="st1" d="M307.663,344.892h5.326H307.663z"/>
	<g>
		<path class="st1" d="M286.271,344.892"/>
	</g>
</g>
</svg>
