<?xml version="1.0" encoding="utf-8"?>
<!-- Generator: Adobe Illustrator 16.0.0, SVG Export Plug-In . SVG Version: 6.00 Build 0)  -->
<!DOCTYPE svg PUBLIC "-//W3C//DTD SVG 1.1//EN" "http://www.w3.org/Graphics/SVG/1.1/DTD/svg11.dtd">
<svg version="1.1" id="Layer_2" xmlns="http://www.w3.org/2000/svg" xmlns:xlink="http://www.w3.org/1999/xlink" x="0px" y="0px"
	 viewBox="0 0 1000 1000" style="enable-background:new 0 0 1000 1000;" xml:space="preserve">
<style type="text/css">
<![CDATA[
	.st0{fill:#FFFFFF;stroke:#000000;stroke-miterlimit:10;}
	.st1{fill:#FFFFFF;stroke:#000000;stroke-width:2;stroke-miterlimit:10;}
	.st2{fill:none;stroke:#79CE42;stroke-width:2;stroke-miterlimit:10;}
	.st3{fill:#FCFCFC;stroke:#000000;stroke-width:3;stroke-miterlimit:10;}
	.st4{display:none;fill:#FFFFFF;stroke:#000000;stroke-miterlimit:10;}
	.st5{fill:#484FAA;stroke:#FFFFFF;stroke-width:5;stroke-miterlimit:10;}
	.st6{display:inline;fill:none;stroke:#000000;stroke-width:9;stroke-miterlimit:10;}
	.st7{display:inline;fill:none;stroke:#000000;stroke-miterlimit:10;}
	.st8{display:inline;fill:#7F9E3D;stroke:#000000;stroke-width:3;stroke-miterlimit:10;}
	.st9{display:none;fill:#FFFFFF;stroke:#000000;stroke-width:3;stroke-miterlimit:10;}
	.st10{display:inline;fill:none;stroke:#000000;stroke-width:4;stroke-miterlimit:10;}
	.st11{display:inline;fill:#FFFFFF;stroke:#000000;stroke-width:5;stroke-miterlimit:10;}
	.st12{fill:#3D3D3D;stroke:#000000;stroke-width:3;stroke-miterlimit:10;}
	.st13{fill:#EAE5D0;stroke:#000000;stroke-width:3;stroke-miterlimit:10;}
	.st14{display:inline;fill:#CACAEF;stroke:#000000;stroke-miterlimit:10;}
	.st15{font-family:'MyriadPro-Regular';}
	.st16{fill:#DBDBDB;stroke:#000000;stroke-miterlimit:10;}
	.st17{display:none;fill:#FFFFFF;stroke:#000000;stroke-width:2;stroke-miterlimit:10;}
	.st18{fill:#303030;stroke:#000000;stroke-width:3;stroke-miterlimit:10;}
	.st19{display:inline;fill:none;stroke:#000000;stroke-width:3;stroke-miterlimit:10;}
	.st20{display:none;enable-background:new    ;}
	.st21{display:inline;fill:#FFFFFF;stroke:#000000;stroke-width:4;stroke-miterlimit:10;}
	.st22{fill:none;stroke:#000000;stroke-width:3;stroke-miterlimit:10;}
	.st23{fill:#C6C6C6;stroke:#000000;stroke-miterlimit:10;}
	.st24{fill:#87995C;stroke:#000000;stroke-width:2;stroke-miterlimit:10;}
	.st25{fill:#FFFFFF;}
	.st26{display:none;fill:none;stroke:#000000;stroke-width:3;stroke-miterlimit:10;}
	.st27{fill:none;}
	.st28{display:inline;}
	.st29{display:none;opacity:0.3;stroke:#000000;stroke-miterlimit:10;enable-background:new    ;}
	.st30{display:none;fill:#7F9E3D;stroke:#000000;stroke-width:3;stroke-miterlimit:10;}
	.st31{display:none;opacity:0.3;stroke:#FFFFFF;stroke-width:3;stroke-miterlimit:10;enable-background:new    ;}
	.st32{display:inline;fill:#FFFFFF;stroke:#000000;stroke-width:3;stroke-miterlimit:10;}
	.st33{display:none;fill:#E4E4EF;stroke:#000000;stroke-width:2;stroke-miterlimit:10;}
	.st34{fill:none;stroke:#000000;stroke-width:2;stroke-miterlimit:10;}
	.st35{fill:#F77F1C;stroke:#000000;stroke-width:3;stroke-miterlimit:10;}
	.st36{fill:#C6C6C6;stroke:#000000;stroke-width:3;stroke-miterlimit:10;}
	.st37{stroke:#000000;stroke-miterlimit:10;}
	.st38{font-size:72;}
	.st39{fill:#DDDDDD;stroke:#000000;stroke-width:2;stroke-miterlimit:10;}
	.st40{display:none;}
	.st41{fill:#FFFFFF;stroke:#000000;stroke-width:3;stroke-miterlimit:10;}
	.st42{display:none;fill:#FF0000;stroke:#000000;stroke-miterlimit:10;}
	.st43{stroke:#000000;stroke-width:2;stroke-miterlimit:10;}
]]>
</style>
<circle class="st29" cx="500" cy="453.711" r="302.542"/>
<circle class="st31" cx="500" cy="456.711" r="302.542"/>
<g id="Layer_x5F_1" class="st40">
	<path class="st21" d="M444.525,594.475c0,6.627-5.373,12-12,12H331.102c-6.627,0-12-5.373-12-12V348.983c0-6.627,5.373-12,12-12
		h101.424c6.627,0,12,5.373,12,12L444.525,594.475L444.525,594.475z"/>
	<path class="st21" d="M656.459,594.475c0,6.627-5.367,12-12,12H543.034c-6.627,0-12-5.373-12-12V348.983c0-6.627,5.373-12,12-12
		h101.425c6.633,0,12,5.373,12,12V594.475z"/>
	<path class="st21" d="M569.949,515.729c0,6.627-5.373,12-12,12H456.525c-6.627,0-12-5.373-12-12V270.237c0-6.627,5.373-12,12-12
		h101.424c6.627,0,12,5.373,12,12V515.729z"/>
	<path class="st11" d="M723.729,521.115c0,13.265-10.744,24-24,24H300.271c-13.255,0-24-10.735-24-24V318.272
		c0-13.254,10.745-24,24-24h399.457c13.256,0,24,10.746,24,24L723.729,521.115L723.729,521.115z"/>
	<path class="st32" d="M686.177,483.656c0,13.265-10.744,24-24,24H333.898c-13.255,0-24-10.735-24-24v-133.35
		c0-13.254,10.745-24,24-24h328.272c13.256,0,24,10.746,24,24L686.177,483.656L686.177,483.656z"/>
	<path id="vecmap" class="st6" d="M348.052,427.712c0,31.853,20.468,57.628,45.763,57.628"/>
	<path id="vecmap_1_" class="st10" d="M584.477,549.115c0,44.976,39.42,81.355,88.135,81.355"/>
	<path id="vecmap_2_" class="st10" d="M412.609,545.115c0,44.976-39.42,81.355-88.135,81.355"/>
	<g class="st28">
		<line id="vecmap_3_" class="st22" x1="317.407" y1="356.645" x2="678.427" y2="356.645"/>
	</g>
	<g class="st28">
		<line id="vecmap_4_" class="st22" x1="368.543" y1="365.119" x2="368.543" y2="497.322"/>
	</g>
	<g class="st28">
		<line id="vecmap_5_" class="st22" x1="637.719" y1="365.119" x2="637.719" y2="497.322"/>
	</g>
	<g class="st28">
		<rect id="vecmaprec" x="317.407" y="385.323" class="st41" width="355.205" height="80"/>
	</g>
	<g class="st28">
		<line class="st22" x1="317.407" y1="465.323" x2="672.611" y2="465.323"/>
	</g>
</g>
<text transform="matrix(1 0 0 1 461.9832 703.8977)" class="st20 st15 st38">3X</text>
<path class="st0" d="M620.219,343.602"/>
<path class="st33" d="M383.594,609.325c0,0,41.716-44.212,15.288,15.771"/>
<path class="st30" d="M464.223,276.828c0,0-78.911-29.717-127.529,42.813"/>
<g id="Leaf_3_1_" class="st40">
	<path class="st8" d="M470.5,276.5c0,0-98,22-99,126"/>
	<path class="st8" d="M371.473,402.48c100.821-25.536,99.053-125.959,99.053-125.959"/>
	<path class="st19" d="M470.5,276.5c0,0-103.908,121.786-97.993,125.829"/>
	<polyline class="st14" points="391.166,395.17 400.166,380.504 400.166,391.837 	"/>
	<polyline class="st14" points="414.49,383.839 414.49,369.17 417.834,374.837 421.384,365.837 426.523,374.682 	"/>
	<polyline class="st14" points="433.984,369.807 434.638,346.091 439.851,363.159 	"/>
	<polyline class="st14" points="447.577,352.719 445.5,344.75 451.209,347.93 	"/>
	<polyline class="st14" points="455.527,340.22 449.293,317.328 459.22,332.156 	"/>
	<polyline class="st14" points="411.372,307.083 408.569,330.642 404.927,313.172 	"/>
	<polyline class="st14" points="387.261,336.962 390.177,360.507 382.459,344.416 	"/>
	<polyline class="st14" points="439.556,287.176 438.177,295.293 434.279,290.05 	"/>
</g>
<path class="st5" d="M197.474,456.711"/>
<g class="st40">
	<line class="st7" x1="200.201" y1="408.834" x2="334.358" y2="408.832"/>
	<line class="st7" x1="200.201" y1="422.834" x2="334.358" y2="422.83"/>
	<line class="st7" x1="334.358" y1="408.832" x2="334.358" y2="422.83"/>
	<line class="st7" x1="334.358" y1="408.832" x2="386.62" y2="361.921"/>
	<line class="st7" x1="334.358" y1="422.83" x2="386.62" y2="375.921"/>
</g>
<path class="st17" d="M347.486,340.05c0,0,5.202,22.209,42.864,13.854"/>
<g id="Layer_3">
	<path class="st1" d="M347.486,379.678"/>
</g>
<path class="st26" d="M729.121,287.91c0,0,11.345,19.923,5.695,24.59c0,0-1.649,17.334,12.351,16.667l36.667,0.019v-17.352
	c0,0-28.289-3.333-30.145,0.667c0,0-3.855-2.619-6.522,3.69"/>
<path class="st26" d="M754.41,308.548c0,0,3.389-21.381-19.594-31.381"/>
<g>
	<polyline class="st3" points="327.269,209.998 327.269,361.806 676.358,361.806 676.984,209.998 	"/>
	<path class="st25" d="M327.269,209.296h349.089C676.358,209.296,499.038,89.091,327.269,209.296z"/>
	<path class="st43" d="M609.737,245.5c0,17.121-13.88,31-31,31c-12.669,0-23.563-7.6-28.372-18.49
		c-1.689-3.826-2.628-8.059-2.628-12.51c0-17.121,13.88-31,31-31S609.737,228.379,609.737,245.5z"/>
	<path class="st2" d="M548.158,251.875l8.882-16.853c0,0,4.006-12.257,11.543,0l7.282,16.853c0,0,7.093,11.491,11.334,0
		l5.673-16.853c0,0,4.561-11.491,10.757,0l4.504,8.256"/>
	<rect x="551.753" y="281.509" class="st1" width="18.311" height="16.787"/>
	<line class="st23" x1="676.358" y1="361.806" x2="718.988" y2="327.5"/>
	<path class="st23" d="M718.988,209.998"/>
	<circle class="st0" cx="555.147" cy="306.428" r="3.072"/>
	<circle class="st0" cx="565.147" cy="306.428" r="3.072"/>
	<circle class="st0" cx="555.147" cy="314.428" r="3.072"/>
	<circle class="st0" cx="565.147" cy="314.428" r="3.072"/>
	<rect x="595.5" y="281.902" class="st0" width="8.5" height="4"/>
	<rect x="595.5" y="290.296" class="st0" width="8.5" height="4"/>
	<line class="st23" x1="599.75" y1="281.902" x2="599.75" y2="285.902"/>
	<line class="st23" x1="599.75" y1="289.902" x2="599.75" y2="293.902"/>
	<line class="st34" x1="334.167" y1="347.101" x2="668.834" y2="347.101"/>
	<line class="st34" x1="355.099" y1="328.594" x2="354.94" y2="228.641"/>
	<ellipse class="st36" cx="690.816" cy="333.91" rx="5.695" ry="10.743"/>
	<path class="st27" d="M538.506,217.167c0-6.627,5.373-12,12-12H608.5c6.627,0,12,5.373,12,12v99.408c0,6.627-5.373,12-12,12
		h-57.994c-6.627,0-12-5.373-12-12V217.167z"/>
	<line class="st34" x1="651.099" y1="328.594" x2="650.94" y2="228.641"/>
</g>
<g id="Layer_1_3_">
	<g class="st40">
		<path class="st28" d="M436.168,300.178h3.62v51.345h-3.62V300.178z"/>
	</g>
	<path class="st1" d="M558.369,609.679c0,0,107.626-63.632,92.52-113.151"/>
	<rect x="376.743" y="270.432" class="st9" width="452.382" height="347.419"/>
	<div  class="typewriter">
		
			<text  transform="matrix(1 0 0 1 264.0769 578.5002)" font-family="&apos;Montserrat-Regular&apos;" font-size="72" startOffset="0">
			www.???.com</text>
	</div>
	<ellipse class="st4" cx="676.052" cy="225.303" rx="49.854" ry="44.796"/>
	<g id="Layer_4_2_">
		<ellipse class="st1" cx="724.358" cy="439.832" rx="29.331" ry="31.608"/>
	</g>
	<path class="st4" d="M638.741,257.524c0,0,23.188,27.596,16.606-2.775C655.347,254.746,653.01,251.95,638.741,257.524z"/>
	<path class="st42" d="M709.677,197.876c4.834,0,8.752,9.38,8.752,20.952c0,11.568-3.918,20.948-8.752,20.948
		c-4.829,0-8.747-9.38-8.747-20.948C700.928,207.256,704.846,197.876,709.677,197.876z"/>
	<polygon class="st17" points="626.843,256.703 615.824,270.286 630.91,281.068 637.966,276.028 635.356,260.42 	"/>
	<path class="st4" d="M624.089,284.729c0,0-5.978,3.813,0,14.478c5.975,10.667,31.938,0,31.938,0l9.849-19.811l8.32,19.811
		l9.063-0.764l-9.063-31.233c0,0-6.684-10.667-18.169,0c-11.485,10.666-20.626,15.999-20.626,15.999L624.089,284.729z"/>
	<path class="st1" d="M536.172,475.515c0,0-126.666,141.386-41.34,185.573c85.329,44.188,127.854,38.854,143.158,31.235
		c15.312-7.616,83.037-53.948,38.164-115.806c0,0,1.525,29.715-13.713,40.381c-15.237,10.665-50.594,59.59-108.946-13.063
		c0,0-16.336-0.646-26.833-12.074"/>
	<path class="st4" d="M624.089,271.778l-5.224,26.665c0,0,23.006-7.221,23.577-19.989"/>
	<path class="st1" d="M601.908,505.953c28.137,0,50.944,21.268,50.944,47.495c0,26.229-22.812,47.491-50.944,47.491
		c-28.137,0-50.944-21.265-50.944-47.491C550.964,527.221,573.771,505.953,601.908,505.953z"/>
	<g>
		<path class="st39" d="M469.453,380.906c0,0,25.151-160.597,184.078-85.71C812.456,370.079,469.453,380.906,469.453,380.906z"/>
		<path class="st1" d="M719.476,451.155c0,47.834-51.467,86.613-114.961,86.613c-63.49,0-114.962-38.778-114.962-86.613
			s51.473-86.607,114.962-86.607C668.01,364.543,719.476,403.32,719.476,451.155z"/>
		<path class="st39" d="M540.285,439.834l-13.623-89.25c0,0,58.975-140.431,168.711-25.754l7.31,47.889
			c0,0-81.328-2.413-156.65,62.056C544.109,436.417,542.193,438.102,540.285,439.834z"/>
		<path class="st39" d="M673.395,459.756l-137.227-21.375c0,0,73.577-60.235,162.396-67.113l100.559,8.04
			C799.123,379.307,695.613,378.402,673.395,459.756z"/>
		<path class="st39" d="M527.135,349.929c0,0-47.587-4.173-55.895,22.222c-8.305,26.396,15.047,76.297,15.047,76.297l52.744-11.014
			L527.135,349.929z"/>
		<polygon class="st43" points="611.828,326.575 604.705,359.806 637.99,349.689 		"/>
		<path class="st1" d="M492.639,349.615c0,0-18.044,30.678,0,43.308l21.649-21.653C514.291,371.267,498.052,376.68,492.639,349.615z
			"/>
	</g>
	<path class="st17" d="M560.222,537.768c0,0,57.959,31.415,57.995-7.197"/>
	<path class="st17" d="M563.384,561.01c0,0,40.321,18.193,54.836-7.907"/>
	<path class="st17" d="M575.101,579.42c0,0,42.354,12.774,53.334-14.998"/>
	<ellipse class="st1" cx="591.147" cy="507.304" rx="19.916" ry="21.461"/>
	<path class="st1" d="M572.411,514.603c0,0,28.344-25.265,38.652-7.298"/>
	<ellipse class="st1" cx="731.771" cy="528.744" rx="39.822" ry="53.229"/>
	<ellipse class="st1" cx="650.885" cy="561.01" rx="39.823" ry="53.23"/>
	<path class="st4" d="M658.844,290.823c0,0-8.591,9.146-25.353,0c0,0-4.036,3.472-10.61-5.883l1.208-13.162"/>
	<polygon class="st9" points="376.743,270.432 560.471,168.266 914.97,168.266 829.125,270.432 	"/>
	<polygon class="st9" points="829.125,617.848 829.125,270.432 914.97,168.266 914.97,463.365 	"/>
	<ellipse class="st1" cx="658.351" cy="563.353" rx="26.236" ry="40.482"/>
	<ellipse class="st1" cx="742.151" cy="530.57" rx="22.672" ry="40.481"/>
	<line class="st34" x1="634.368" y1="546.943" x2="671.988" y2="528.765"/>
	<line class="st34" x1="633.155" y1="574.903" x2="680.822" y2="547.495"/>
	<line class="st34" x1="643.191" y1="596.381" x2="682.345" y2="571.051"/>
	<line class="st34" x1="724.973" y1="561.071" x2="766.345" y2="538.188"/>
	<line class="st34" x1="721.31" y1="514.603" x2="754.41" y2="496.528"/>
	<path class="st41" d="M762.988,514.603"/>
	<path class="st41" d="M721.31,542.009"/>
	<path class="st41" d="M751.65,538.854"/>
	<path class="st41" d="M724.984,457.857"/>
	<line class="st34" x1="720.054" y1="538.477" x2="761.429" y2="515.597"/>
	<path class="st1" d="M486.969,581.884c9.677,0,17.521,12.945,17.521,28.922c0,15.97-7.846,28.922-17.521,28.922
		c-9.682,0-17.523-12.952-17.523-28.922C469.443,594.829,477.288,581.884,486.969,581.884z"/>
	<ellipse class="st1" cx="515.99" cy="621.472" rx="8.557" ry="10.667"/>
	<ellipse class="st1" cx="504.49" cy="642.805" rx="7.104" ry="6.095"/>
	<path class="st1" d="M478.289,566.154c0,0-18.184-36.244,17.317-21.855L478.289,566.154z"/>
	<path class="st1" d="M497.911,535.49c0,0-18.181-36.242,17.317-21.855L497.911,535.49z"/>
	<polygon class="st17" points="331.031,135.404 425.505,112.547 445.311,307.585 	"/>
	<polygon class="st17" points="602.416,31.989 704.26,59.915 564.478,307.585 	"/>
	<polygon class="st17" points="768.13,141.807 832.219,193.551 710.97,307.585 	"/>
	<path class="st17" d="M453.454,314.943c8.835,0,15.999,5.893,15.999,13.16c0,7.269-7.162,13.157-15.999,13.157
		s-15.999-5.891-15.999-13.157C437.455,320.833,444.617,314.943,453.454,314.943z"/>
	<path class="st17" d="M558.369,314.943c8.835,0,15.999,5.893,15.999,13.16c0,7.269-7.163,13.157-15.999,13.157
		c-8.837,0-16-5.891-16-13.157C542.369,320.833,549.532,314.943,558.369,314.943z"/>
	<ellipse class="st17" cx="700.394" cy="325.815" rx="16" ry="13.158"/>
	<g id="Layer_2_1_">
		<ellipse class="st1" cx="487.347" cy="496.526" rx="29.332" ry="31.609"/>
		<ellipse class="st17" cx="724.984" cy="448.448" rx="29.333" ry="31.608"/>
		<path class="st1" d="M481.118,475.515h12.142H481.118z"/>
		<g>
			<path class="st1" d="M432.358,475.515"/>
		</g>
	</g>
</g>
<g>
	<path class="st24" d="M372.992,461.156c0,0,54.758-7.479,47.299-44.233c0,0-16.365-26.089-21.578-21.422
		c0,0-4.547-9.631,3.453-14.482c0,0-21.364,9.149-15.683,15.815c0,0,22.984,36.278,0,27.807"/>
	<ellipse class="st12" cx="292" cy="458.86" rx="27.5" ry="21.58"/>
	<path class="st24" d="M358.828,410.834l10.338,49.323c-98.332,24.321-84.666-49.323-84.666-49.323"/>
	<ellipse class="st12" cx="277.625" cy="371.636" rx="17.89" ry="19.274"/>
	<g id="Layer_3_1_">
		<polygon class="st16" points="285.275,381.865 299.901,410.298 323.963,373.938 304.802,368.514 		"/>
	</g>
	<path class="st13" d="M316.564,378.626c18.854,0,34.14,14.251,34.14,31.829c0,17.574-15.286,31.824-34.14,31.824
		c-16.498,0-30.264-10.908-33.448-25.409c-0.455-2.072-0.691-4.219-0.691-6.415C282.425,392.877,297.709,378.626,316.564,378.626z"
		/>
	<ellipse class="st12" cx="350" cy="465.86" rx="27.5" ry="21.58"/>
	<path class="st41" d="M290.815,389.395c0,0-11.521-16.359,12.671-14.285c0,0-12.864-4.684-17.339,6.627
		c-4.475,11.313-5.073,87.483-22.389,78.501c0,0-9.55-5.169-5.953-9.924c0,0-5.792,25.691,19.018,23.54
		C301.635,471.701,290.815,389.395,290.815,389.395z"/>
	<path class="st41" d="M326.338,390.906l16.846,84.011c0,0,39.285-13.415,44.301-30.748c0,0-8.314-7.976-3.316-18.654l-18-48.256
		C366.166,377.256,329.508,395.645,326.338,390.906z"/>
	<path class="st18" d="M318.654,270.107c78.563-37.019,90.995,42.369,90.995,42.369S240.093,307.124,318.654,270.107z"/>
	<path class="st24" d="M342.885,304.388c31.384,0,56.828,19.167,56.828,42.813c0,23.646-25.443,42.813-56.828,42.813
		c-31.389,0-56.829-19.17-56.829-42.813C286.055,323.555,311.496,304.387,342.885,304.388z"/>
	<path class="st18" d="M371.796,339.104c-37.233-31.869-77.438-30.676-77.438-30.676l3.613-23.672
		c54.247-56.688,83.396,12.729,83.396,12.729l-6.732,44.119C373.691,340.749,372.744,339.916,371.796,339.104z"/>
	<path class="st18" d="M246.684,311.686l49.709-3.975c43.904,3.398,80.276,33.176,80.276,33.176l-67.836,10.566
		C297.851,311.238,246.684,311.685,246.684,311.686z"/>
	<path class="st18" d="M375.256,340.419l26.071,5.443c0,0,11.543-24.668,7.438-37.716c-4.105-13.048-27.629-10.983-27.629-10.983
		L375.256,340.419z"/>
	<polygon class="st1" points="326.338,297.044 342.791,302.045 339.269,285.618 	"/>
	<path class="st1" d="M387.484,307.711l10.703,10.704c8.92-6.244,0-21.407,0-21.407
		C395.511,310.386,387.484,307.711,387.484,307.711z"/>
	<g id="PHONE">
		<polyline class="st41" points="361.166,410.5 370.168,405.101 407.168,331.164 384.168,316.831 374.168,318.167 		"/>
		<polygon class="st41" points="365.834,334.5 374.5,347.167 354.489,385.167 341.834,385.167 333.166,398.5 361.166,410.5 
			399.166,334.5 374.168,318.167 		"/>
		<line class="st22" x1="399.166" y1="334.5" x2="407.168" y2="331.164"/>
		<line class="st34" x1="398.166" y1="332.164" x2="406.168" y2="317.831"/>
		<circle class="st37" cx="406.168" cy="317.831" r="4"/>
		<g id="Layer_2_2_">
			<ellipse class="st12" cx="376.717" cy="373.954" rx="17.886" ry="19.275"/>
			<path class="st9" d="M372.916,361.141h7.403H372.916z"/>
			<g>
				<path class="st12" d="M343.182,361.141"/>
			</g>
		</g>
	</g>
	<path class="st41" d="M342.62,409.068c0,0,9.214,7.102,18.546,1.768l1.271,17.212c0,0-10.912,9.546-17.424,0L342.62,409.068z"/>
	<path class="st1" d="M381.368,425.512c0,0-8.438,8.408-4.652,14.864"/>
	<path class="st1" d="M379.579,424.639c0,0-6.176,2.642-5.541,6.814"/>
	<path class="st13" d="M407.83,443.702c-3.857-0.914-5.766-6.818-4.258-13.189c1.508-6.37,5.86-10.794,9.719-9.881
		c3.86,0.914,5.768,6.82,4.26,13.188C416.041,440.193,411.69,444.615,407.83,443.702z"/>
	
		<ellipse transform="matrix(0.2303 -0.9731 0.9731 0.2303 -105.8665 716.5199)" class="st13" cx="400.008" cy="425.182" rx="4.372" ry="3.507"/>
	
		<ellipse transform="matrix(0.2305 -0.9731 0.9731 0.2305 -93.6356 717.1348)" class="st13" cx="406.593" cy="417.769" rx="2.498" ry="2.911"/>
	<path class="st1" d="M304.38,420.556c0,0,2.348,8.705-1.726,7.164"/>
	<ellipse class="st1" cx="334.147" cy="374.304" rx="8.363" ry="9.012"/>
	<path class="st1" d="M325.784,374.304c4.329-7.544,16.23,3.064,16.23,3.064"/>
	<path class="st34" d="M412.318,296.856c0,0,12.456-2.375,13.876,10.26"/>
	<path class="st34" d="M414.353,289.719c0,0,17.883-3.41,19.922,14.729"/>
	<path class="st34" d="M417.459,281.725c0,0,23.498-4.479,26.178,19.354"/>
</g>
<g id="Layer_3_2_">
	<g>
		<path class="st41" d="M570.063,165.12c-7.437,15.62-18.311,10.931-18.311,10.931c9.253,11.551-4.016,22.865-4.016,22.865
			s-64.136,17.966-82.444,0s-5.871-40.989-5.871-40.989"/>
		<path class="st41" d="M490.7,160.5c17.088,1.562-13.2,27.551-13.2,27.551c6,18.551-12.869,18.445-12.869,18.445l-50.277,9.58
			c0,0-22.426-1.744-14.64-19.16c0,0-11.245-2.249-12.229-16.333C387.484,180.584,413.872,153.48,490.7,160.5z"/>
		<path class="st35" d="M504.465,200.052c0,0-28.594,30.927-3.355,41.225C501.109,241.276,528.054,239.256,504.465,200.052z"/>
		<path class="st41" d="M503.133,214.916c0,0-13.29,14.374-1.561,19.16C501.572,234.076,514.095,233.137,503.133,214.916z"/>
	</g>
	<g>
		<path class="st35" d="M507.465,176.052c0,0-28.594,30.927-3.355,41.225C504.109,217.276,531.054,215.256,507.465,176.052z"/>
		<path class="st41" d="M506.133,190.916c0,0-13.29,14.374-1.561,19.16C504.572,210.076,517.095,209.137,506.133,190.916z"/>
	</g>
	<g>
		<path class="st35" d="M523.465,190.052c0,0-28.594,30.927-3.355,41.225C520.109,231.276,547.054,229.256,523.465,190.052z"/>
		<path class="st41" d="M522.133,204.916c0,0-13.289,14.374-1.561,19.16C520.572,224.076,533.095,223.137,522.133,204.916z"/>
	</g>
	<g>
		<path class="st35" d="M428.465,205.052c0,0-28.594,30.927-3.356,41.225C425.109,246.276,452.054,244.256,428.465,205.052z"/>
		<path class="st41" d="M427.133,219.916c0,0-13.29,14.374-1.56,19.16C425.573,239.076,438.095,238.137,427.133,219.916z"/>
	</g>
	<g>
		<path class="st35" d="M461.465,217.052c0,0-28.594,30.927-3.356,41.225C458.109,258.276,485.054,256.256,461.465,217.052z"/>
		<path class="st41" d="M460.133,231.916c0,0-13.29,14.374-1.56,19.16C458.573,251.076,471.095,250.137,460.133,231.916z"/>
	</g>
	<g>
		<path class="st35" d="M428.465,205.052c0,0-28.594,30.927-3.356,41.225C425.109,246.276,452.054,244.256,428.465,205.052z"/>
		<path class="st41" d="M427.133,219.916c0,0-13.29,14.374-1.56,19.16C425.573,239.076,438.095,238.137,427.133,219.916z"/>
	</g>
	<g>
		<path class="st35" d="M442.465,184.052c0,0-28.594,30.927-3.356,41.225C439.109,225.276,466.054,223.256,442.465,184.052z"/>
		<path class="st41" d="M441.133,198.916c0,0-13.29,14.374-1.56,19.16C439.573,218.076,452.095,217.137,441.133,198.916z"/>
	</g>
	<path class="st22" d="M387.484,155.871"/>
	<path class="st22" d="M414.7,217.276"/>
</g>
<path class="st22" d="M510.631,165.12c0,0,12.158-7.38,22.514,7"/>
<path class="st22" d="M401.636,189.505c0,0,8.125-16.551,20.994-8"/>
</svg>
