<?xml version="1.0" encoding="utf-8"?>
<!-- Generator: Adobe Illustrator 16.0.0, SVG Export Plug-In . SVG Version: 6.00 Build 0)  -->
<!DOCTYPE svg PUBLIC "-//W3C//DTD SVG 1.1//EN" "http://www.w3.org/Graphics/SVG/1.1/DTD/svg11.dtd">
<svg version="1.1" xmlns="http://www.w3.org/2000/svg" xmlns:xlink="http://www.w3.org/1999/xlink" x="0px" y="0px" width="1000px"
	 height="1000px" viewBox="0 0 1000 1000" style="enable-background:new 0 0 1000 1000;" xml:space="preserve">
<style type="text/css">
<![CDATA[
	.st0{fill:#DEDEDD;stroke:#FFFFFF;}
	.st1{fill:#FFFFFF;stroke:#000000;stroke-miterlimit:10;}
	.st2{fill:#FFFFFF;stroke:#000000;stroke-width:2;stroke-miterlimit:10;}
	.st3{fill:#FFFFFF;stroke:#000000;stroke-width:4;stroke-miterlimit:10;}
	.st4{fill:#010101;}
]]>
</style>
<g id="Layer_1">
	<g id="Layer_2">
		<circle class="st1" cx="500" cy="500" r="302.542"/>
	</g>
	<g>
		<g>
			<path class="st0" d="M646.5,311.054c-13.785,0-25,11.215-25,25c0,13.785,11.215,25,25,25s25-11.215,25-25
				C671.5,322.27,660.285,311.054,646.5,311.054z M646.5,359.33c-12.835,0-23.276-10.441-23.276-23.275
				c0-12.834,10.441-23.276,23.276-23.276c12.834,0,23.275,10.441,23.275,23.276C669.775,348.888,659.334,359.33,646.5,359.33z"/>
			<path class="st4" d="M656.844,319.675c0-0.477-0.385-0.862-0.861-0.862s-0.861,0.385-0.861,0.862
				c0,0.961-1.158,1.958-3.125,2.633l-0.576,0.178c-0.281,0.086-0.584,0.158-0.891,0.228c-0.131,0.028-0.262,0.058-0.396,0.083
				c-0.207,0.041-0.422,0.074-0.639,0.107c-0.23,0.035-0.465,0.064-0.705,0.092c-0.227,0.025-0.457,0.048-0.693,0.065
				c-0.139,0.01-0.279,0.02-0.422,0.028c-0.385,0.019-0.774,0.034-1.174,0.034c-0.4,0-0.79-0.016-1.174-0.035
				c-0.143-0.008-0.283-0.018-0.422-0.028c-0.236-0.017-0.466-0.041-0.693-0.065c-0.24-0.027-0.475-0.057-0.705-0.091
				c-0.217-0.033-0.432-0.067-0.639-0.107c-0.135-0.026-0.266-0.054-0.396-0.083c-0.309-0.069-0.611-0.142-0.891-0.228l-0.577-0.178
				c-1.966-0.674-3.124-1.671-3.124-2.633c0-0.477-0.387-0.862-0.862-0.862s-0.862,0.385-0.862,0.862
				c0,1.843,1.649,3.373,4.311,4.279v25.062c-2.661,0.907-4.311,2.437-4.311,4.279c0,0.478,0.387,0.862,0.862,0.862
				s0.862-0.385,0.862-0.862c0-0.961,1.158-1.958,3.124-2.632l0.577-0.178c0.279-0.087,0.582-0.159,0.891-0.229
				c0.13-0.028,0.261-0.057,0.395-0.082c0.209-0.041,0.425-0.075,0.643-0.107c0.229-0.035,0.463-0.065,0.702-0.092
				c0.228-0.025,0.458-0.049,0.692-0.066c0.141-0.01,0.281-0.02,0.423-0.027c0.385-0.02,0.774-0.035,1.175-0.035
				c0.399,0,0.789,0.016,1.174,0.035c0.141,0.008,0.283,0.018,0.422,0.027c0.236,0.018,0.465,0.041,0.693,0.066
				c0.238,0.026,0.473,0.057,0.701,0.092c0.219,0.032,0.434,0.066,0.641,0.107c0.137,0.025,0.266,0.054,0.396,0.082
				c0.309,0.069,0.611,0.142,0.891,0.229l0.578,0.178c1.967,0.674,3.125,1.671,3.125,2.632c0,0.478,0.385,0.862,0.861,0.862
				s0.861-0.385,0.861-0.862c0-1.843-1.648-3.372-4.309-4.279v-25.062C655.195,323.047,656.844,321.518,656.844,319.675z
				 M650.811,324.425v24.121c-0.016-0.003-0.033-0.005-0.049-0.009c-0.166-0.034-0.338-0.063-0.508-0.094
				c-0.186-0.034-0.371-0.068-0.563-0.098c-0.031-0.005-0.068-0.008-0.1-0.013c-0.631-0.089-1.291-0.153-1.984-0.185
				c-0.361-0.016-0.732-0.025-1.107-0.025c-0.377,0-0.746,0.01-1.108,0.026c-0.692,0.031-1.352,0.095-1.982,0.185
				c-0.034,0.004-0.069,0.008-0.103,0.014c-0.191,0.027-0.375,0.063-0.56,0.096c-0.172,0.03-0.343,0.061-0.51,0.096
				c-0.016,0.002-0.032,0.004-0.048,0.008v-24.122c0.016,0.003,0.032,0.005,0.048,0.009c0.167,0.034,0.338,0.063,0.51,0.095
				c0.185,0.034,0.368,0.068,0.56,0.097c0.034,0.005,0.068,0.008,0.103,0.013c0.631,0.09,1.29,0.153,1.982,0.185
				c0.362,0.017,0.731,0.025,1.108,0.025c0.375,0,0.746-0.008,1.107-0.026c0.693-0.031,1.354-0.095,1.984-0.185
				c0.033-0.004,0.068-0.007,0.1-0.013c0.191-0.028,0.377-0.063,0.563-0.097c0.17-0.03,0.342-0.06,0.508-0.095
				C650.777,324.43,650.795,324.428,650.811,324.425z"/>
		</g>
	</g>
	<path class="st3" d="M320.054,398.216l114.865,114.865c0,0-56.757,5.405-91.892-20.27
		C307.892,467.135,303.838,403.622,320.054,398.216z"/>
	<path class="st3" d="M434.919,513.081"/>
	<polyline class="st3" points="320.054,398.216 434.919,336.054 543.027,421.189 434.919,513.081 531.589,596.088 	"/>
	<polygon class="st3" points="615,520 692,440 543.027,421.189 434.919,513.081 601,535 	"/>
	<polygon class="st3" points="692,440 692,567 608,661 601,535 	"/>
	<polygon class="st3" points="434.919,513.081 434.919,635 608,661 	"/>
	<g>
		<polygon class="st3" points="543.027,503 543.027,421.189 434.919,513.081 521.459,524.502 		"/>
	</g>
	<polygon class="st3" points="692,440 543.027,421.189 543.027,503 621.996,513.081 	"/>
	<path class="st2" d="M434.44,335.098l106.937,86.596"/>
</g>
<g id="Layer_3">
</g>
</svg>
