<?xml version="1.0" encoding="utf-8"?>
<!-- Generator: Adobe Illustrator 16.0.0, SVG Export Plug-In . SVG Version: 6.00 Build 0)  -->
<!DOCTYPE svg PUBLIC "-//W3C//DTD SVG 1.1//EN" "http://www.w3.org/Graphics/SVG/1.1/DTD/svg11.dtd">
<svg version="1.1" id="Layer_1" xmlns="http://www.w3.org/2000/svg" xmlns:xlink="http://www.w3.org/1999/xlink" x="0px" y="0px"
	 width="534.013px" height="393.5px" viewBox="0 0 534.013 393.5" enable-background="new 0 0 534.013 393.5" xml:space="preserve">
<g id="Layer_1_1_" display="none">
	<g display="inline">
		<g id="Layer_3">
			<path fill="#DDDDDD" stroke="#000000" stroke-miterlimit="10" d="M500,153.169c167.096,0,302.543,135.452,302.543,302.542
				c0,29.066-4.101,57.182-11.754,83.789c-4.146,14.41-9.335,28.387-15.479,41.826C727.601,685.719,622.271,758.252,500,758.254
				c-129.085,0-239.288-80.85-282.741-194.662c-3.007-7.877-5.689-15.912-8.047-24.088c-7.648-26.609-11.754-54.727-11.754-83.793
				C197.458,288.621,332.911,153.169,500,153.169z"/>
		</g>
		<g display="none">
			
				<line display="inline" fill="none" stroke="#000000" stroke-width="3" stroke-miterlimit="10" x1="770.5" y1="578.5" x2="223.421" y2="578.5"/>
		</g>
		<g display="none">
			
				<line display="inline" fill="none" stroke="#000000" stroke-width="3" stroke-miterlimit="10" x1="802.51" y1="459.527" x2="197.49" y2="459.527"/>
		</g>
		<g>
			<path d="M455.942,417.77l-14.328,37.871h-4.824l-11.946-31.031l-11.952,31.031h-4.824L393.81,417.77h4.896l11.885,32.184
				l12.168-32.184h4.393l12.096,32.184l12.024-32.184H455.942z"/>
		</g>
		<g>
			<path d="M391.218,417.839l-14.328,37.872h-4.824l-11.952-31.031l-11.952,31.031h-4.819l-14.261-37.872h4.896l11.88,32.185
				l12.168-32.185h4.395l12.099,32.185l12.021-32.185H391.218z"/>
		</g>
		<g>
			<path d="M326.218,417.839l-14.328,37.872h-4.824l-11.952-31.031l-11.952,31.031h-4.824l-14.256-37.872h4.896l11.88,32.185
				l12.168-32.185h4.392l12.102,32.185l12.021-32.185H326.218z"/>
		</g>
		<g>
			<path d="M456.432,454.92c-0.745-0.771-1.116-1.703-1.116-2.813c0-1.104,0.371-2.023,1.116-2.771
				c0.744-0.744,1.644-1.115,2.7-1.115c1.055,0,1.968,0.371,2.73,1.115c0.771,0.742,1.152,1.668,1.152,2.771
				c0,1.105-0.385,2.041-1.152,2.813c-0.769,0.768-1.681,1.146-2.73,1.146C458.075,456.07,457.177,455.688,456.432,454.92z"/>
		</g>
		<g>
			<path d="M520.392,435.406c0.646-1.482,1.451-2.76,2.412-3.813c0.959-1.063,2.207-2.256,3.743-3.605
				c2.063-1.818,3.588-3.42,4.566-4.787c0.983-1.363,1.479-3.032,1.479-5c0-2.643-1.032-4.768-3.101-6.372
				c-2.063-1.608-4.896-2.412-8.491-2.412c-5.952,0-10.537,1.94-13.754,5.832l-3.814-2.88c4.08-4.991,10.056-7.488,17.928-7.488
				c5.041,0,9.063,1.129,12.063,3.385s4.5,5.305,4.5,9.146c0,1.969-0.324,3.703-0.978,5.221c-0.646,1.512-1.438,2.797-2.376,3.852
				c-0.936,1.057-2.172,2.281-3.708,3.672c-2.063,1.873-3.601,3.541-4.604,5.004c-1.008,1.465-1.518,3.277-1.518,5.439h-5.322
				C519.426,438.619,519.744,436.896,520.392,435.406z M519.426,454.951c-0.726-0.74-1.08-1.615-1.08-2.629
				c0-1.055,0.354-1.932,1.08-2.627c0.721-0.691,1.604-1.045,2.663-1.045c1.104,0,2.017,0.354,2.731,1.045
				c0.721,0.697,1.08,1.572,1.08,2.627c0,1.014-0.373,1.889-1.116,2.629c-0.745,0.744-1.646,1.115-2.695,1.115
				C521.027,456.07,520.14,455.697,519.426,454.951z"/>
		</g>
		<g>
			<path d="M561.892,435.406c0.646-1.482,1.451-2.76,2.412-3.813c0.959-1.063,2.207-2.256,3.743-3.605
				c2.063-1.818,3.588-3.42,4.566-4.787c0.983-1.363,1.479-3.032,1.479-5c0-2.643-1.032-4.768-3.101-6.372
				c-2.063-1.608-4.896-2.412-8.491-2.412c-5.952,0-10.537,1.94-13.754,5.832l-3.814-2.88c4.08-4.991,10.056-7.488,17.928-7.488
				c5.041,0,9.063,1.129,12.063,3.385s4.5,5.305,4.5,9.146c0,1.969-0.324,3.703-0.978,5.221c-0.646,1.512-1.438,2.797-2.376,3.852
				c-0.936,1.057-2.172,2.281-3.708,3.672c-2.063,1.873-3.601,3.541-4.604,5.004c-1.008,1.465-1.518,3.277-1.518,5.439h-5.322
				C560.926,438.619,561.244,436.896,561.892,435.406z M560.926,454.951c-0.726-0.74-1.08-1.615-1.08-2.629
				c0-1.055,0.354-1.932,1.08-2.627c0.721-0.691,1.604-1.045,2.663-1.045c1.104,0,2.017,0.354,2.731,1.045
				c0.721,0.697,1.08,1.572,1.08,2.627c0,1.014-0.373,1.889-1.116,2.629c-0.745,0.744-1.646,1.115-2.695,1.115
				C562.527,456.07,561.64,455.697,560.926,454.951z"/>
		</g>
		<g>
			<path d="M482.392,435.406c0.648-1.482,1.451-2.76,2.412-3.813c0.959-1.063,2.207-2.256,3.744-3.605
				c2.063-1.818,3.588-3.42,4.566-4.787c0.983-1.363,1.479-3.032,1.479-5c0-2.643-1.033-4.768-3.099-6.372
				c-2.063-1.608-4.896-2.412-8.494-2.412c-5.951,0-10.536,1.94-13.754,5.832l-3.813-2.88c4.079-4.991,10.055-7.488,17.928-7.488
				c5.04,0,9.063,1.129,12.063,3.385s4.5,5.305,4.5,9.146c0,1.969-0.324,3.703-0.978,5.221c-0.646,1.512-1.438,2.797-2.376,3.852
				c-0.936,1.057-2.172,2.281-3.708,3.672c-2.063,1.873-3.6,3.541-4.604,5.004c-1.009,1.465-1.518,3.277-1.518,5.439h-5.323
				C481.426,438.619,481.744,436.896,482.392,435.406z M481.426,454.951c-0.726-0.74-1.08-1.615-1.08-2.629
				c0-1.055,0.354-1.932,1.08-2.627c0.72-0.691,1.604-1.045,2.658-1.045c1.104,0,2.021,0.354,2.736,1.045
				c0.721,0.697,1.08,1.572,1.08,2.627c0,1.014-0.372,1.889-1.116,2.629c-0.745,0.744-1.645,1.115-2.7,1.115
				C483.029,456.07,482.14,455.697,481.426,454.951z"/>
		</g>
		<g>
			<path d="M592.431,454.92c-0.744-0.771-1.115-1.703-1.115-2.813c0-1.104,0.371-2.023,1.115-2.771
				c0.744-0.744,1.645-1.115,2.7-1.115c1.055,0,1.968,0.371,2.73,1.115c0.771,0.742,1.151,1.668,1.151,2.771
				c0,1.105-0.385,2.041-1.151,2.813c-0.769,0.768-1.681,1.146-2.73,1.146C594.076,456.07,593.177,455.688,592.431,454.92z"/>
		</g>
		<g>
			<path d="M613.279,453.619c-2.951-1.631-5.268-3.924-6.947-6.877c-1.681-2.947-2.52-6.27-2.52-9.971
				c0-3.697,0.839-7.008,2.52-9.938c1.686-2.932,3.996-5.209,6.947-6.84c2.953-1.633,6.301-2.448,10.045-2.448
				c3.27,0,6.186,0.638,8.748,1.908c2.566,1.271,4.596,3.134,6.084,5.575l-3.813,2.596c-1.248-1.869-2.832-3.273-4.752-4.217
				c-1.926-0.936-4.014-1.396-6.27-1.396c-2.73,0-5.197,0.605-7.381,1.836c-2.184,1.223-3.887,2.963-5.111,5.219
				c-1.225,2.258-1.836,4.824-1.836,7.705c0,2.928,0.611,5.508,1.836,7.74c1.229,2.229,2.934,3.959,5.111,5.184
				c2.188,1.229,4.646,1.836,7.381,1.836c2.256,0,4.344-0.457,6.27-1.369c1.92-0.906,3.504-2.303,4.752-4.176l3.813,2.592
				c-1.488,2.449-3.522,4.314-6.12,5.58c-2.593,1.273-5.497,1.908-8.712,1.908C619.58,456.07,616.232,455.256,613.279,453.619z"/>
		</g>
		<g>
			<path d="M656.279,453.619c-2.951-1.631-5.268-3.924-6.947-6.877c-1.681-2.947-2.52-6.27-2.52-9.971
				c0-3.697,0.839-7.008,2.52-9.938c1.686-2.932,3.996-5.209,6.947-6.84c2.953-1.633,6.301-2.448,10.045-2.448
				c3.27,0,6.186,0.638,8.748,1.908c2.566,1.271,4.596,3.134,6.084,5.575l-3.813,2.596c-1.248-1.869-2.832-3.273-4.752-4.217
				c-1.926-0.936-4.014-1.396-6.27-1.396c-2.73,0-5.197,0.605-7.381,1.836c-2.184,1.223-3.887,2.963-5.111,5.219
				c-1.225,2.258-1.836,4.824-1.836,7.705c0,2.928,0.611,5.508,1.836,7.74c1.229,2.229,2.934,3.959,5.111,5.184
				c2.188,1.229,4.646,1.836,7.381,1.836c2.256,0,4.344-0.457,6.27-1.369c1.92-0.906,3.504-2.303,4.752-4.176l3.813,2.592
				c-1.488,2.449-3.522,4.314-6.12,5.58c-2.593,1.273-5.497,1.908-8.712,1.908C662.58,456.07,659.232,455.256,656.279,453.619z"/>
		</g>
		<g>
			<path d="M698.279,453.619c-2.951-1.631-5.268-3.924-6.947-6.877c-1.681-2.947-2.52-6.27-2.52-9.971
				c0-3.697,0.839-7.008,2.52-9.938c1.686-2.932,3.996-5.209,6.947-6.84c2.953-1.633,6.301-2.448,10.045-2.448
				c3.27,0,6.186,0.638,8.748,1.908c2.566,1.271,4.596,3.134,6.084,5.575l-3.813,2.596c-1.248-1.869-2.832-3.273-4.752-4.217
				c-1.926-0.936-4.014-1.396-6.27-1.396c-2.73,0-5.197,0.605-7.381,1.836c-2.184,1.223-3.887,2.963-5.111,5.219
				c-1.225,2.258-1.836,4.824-1.836,7.705c0,2.928,0.611,5.508,1.836,7.74c1.229,2.229,2.934,3.959,5.111,5.184
				c2.188,1.229,4.646,1.836,7.381,1.836c2.256,0,4.344-0.457,6.27-1.369c1.92-0.906,3.504-2.303,4.752-4.176l3.813,2.592
				c-1.488,2.449-3.522,4.314-6.12,5.58c-2.593,1.273-5.497,1.908-8.712,1.908C704.58,456.07,701.232,455.256,698.279,453.619z"/>
		</g>
	</g>
	<g display="inline">
		<path d="M250.5,396.779h4.752v67.395H250.5V396.779z"/>
	</g>
	<div  class="typewriter">
		
			<text  transform="matrix(1 0 0 1 264.0769 578.5002)" font-family="&apos;Montserrat-Regular&apos;" font-size="72" startOffset="0">
			www.???.com</text>
	</div>
</g>
<g id="Layer_2">
	
		<line display="none" fill="none" stroke="#FF8080" stroke-width="4" stroke-miterlimit="10" x1="369.481" y1="541.852" x2="559.519" y2="543.191"/>
	
		<line display="none" fill="none" stroke="#FF8080" stroke-width="4" stroke-miterlimit="10" x1="403.5" y1="452.5" x2="403.5" y2="514.5"/>
	
		<line display="none" fill="none" stroke="#FF8080" stroke-width="4" stroke-miterlimit="10" x1="534.5" y1="514.021" x2="534.5" y2="453.5"/>
	<path display="none" fill="none" stroke="#FF8080" stroke-width="4" stroke-miterlimit="10" d="M424.18,495.164
		c0-12.895,13.865-23.33,31-23.33"/>
	<path display="none" fill="none" stroke="#FF8080" stroke-width="4" stroke-miterlimit="10" d="M486.18,495.164
		c0-12.895-13.865-23.33-31-23.33"/>
	
		<line display="none" fill="none" stroke="#FF8080" stroke-width="4" stroke-miterlimit="10" x1="424.18" y1="495.164" x2="424.18" y2="529.834"/>
	
		<line display="none" fill="none" stroke="#FF8080" stroke-width="4" stroke-miterlimit="10" x1="486.18" y1="495.164" x2="486.18" y2="529.834"/>
	
		<line display="none" fill="none" stroke="#FF8080" stroke-width="4" stroke-miterlimit="10" x1="254.5" y1="430" x2="369.5" y2="430"/>
	
		<line display="none" fill="none" stroke="#FF8080" stroke-width="4" stroke-miterlimit="10" x1="139.5" y1="430" x2="254.5" y2="430"/>
	<path display="none" fill="none" stroke="#FF8080" stroke-width="4" stroke-miterlimit="10" d="M462.096,443.602
		c0,0-5.157-33.08-30.551-32.074"/>
	
		<line display="none" fill="none" stroke="#FF8080" stroke-width="4" stroke-miterlimit="10" x1="404.811" y1="446.846" x2="404.811" y2="473.5"/>
	
		<line display="none" fill="none" stroke="#FF8080" stroke-width="4" stroke-miterlimit="10" x1="462.096" y1="443.602" x2="462.096" y2="473.5"/>
	
		<line display="none" fill="none" stroke="#FF8080" stroke-width="4" stroke-miterlimit="10" x1="469.5" y1="450.777" x2="469.5" y2="495"/>
	
		<image display="none" overflow="visible" enable-background="new    " width="114" height="16" xlink:href="43B902AC.jpg"  transform="matrix(0.9999 0 0 0.9374 197.5066 537)">
	</image>
	<path display="none" fill="none" stroke="#FF8080" stroke-miterlimit="10" d="M233.25,532.496
		c-17.5,11.75-34.743,4.004-34.743,4.004v-5.75"/>
	<path display="none" fill="none" stroke="#FF8080" stroke-miterlimit="10" d="M299.51,505.75v5.75c0,0,17.239,7.746,34.739-4.004"
		/>
	<path display="none" fill="none" stroke="#FF8080" stroke-miterlimit="10" d="M198.507,531.25c0,0,18.493,5.875,34.743-3.5"/>
	<line display="none" fill="none" stroke="#8383FC" stroke-miterlimit="10" x1="232.475" y1="519.24" x2="232.763" y2="525.473"/>
	<line display="none" fill="none" stroke="#8383FC" stroke-miterlimit="10" x1="232.416" y1="517.973" x2="232.475" y2="519.24"/>
</g>
<g id="Layer_x5F_1">
	<path display="none" fill="#FFFFFF" stroke="#000000" stroke-width="4" stroke-miterlimit="10" d="M151.102,275.544
		c0,5.479-4.443,9.927-9.923,9.927H57.31c-5.48,0-9.924-4.445-9.924-9.927V72.54c0-5.479,4.44-9.922,9.924-9.922h83.87
		c5.479,0,9.923,4.441,9.923,9.922L151.102,275.544L151.102,275.544z"/>
	<path display="none" fill="#FFFFFF" stroke="#000000" stroke-width="4" stroke-miterlimit="10" d="M326.355,275.544
		c0,5.479-4.441,9.927-9.922,9.927h-83.871c-5.482,0-9.924-4.445-9.924-9.927V72.54c0-5.479,4.438-9.922,9.924-9.922h83.871
		c5.479,0,9.922,4.441,9.922,9.922V275.544L326.355,275.544z"/>
	<path display="none" fill="#FFFFFF" stroke="#000000" stroke-width="4" stroke-miterlimit="10" d="M254.818,210.43
		c0,5.479-4.441,9.924-9.924,9.924h-83.87c-5.48,0-9.923-4.445-9.923-9.924V7.423c0-5.48,4.441-9.924,9.923-9.924h83.87
		c5.479,0,9.924,4.443,9.924,9.924V210.43z"/>
	<path fill="#FFFFFF" stroke="#000000" stroke-width="5" stroke-miterlimit="10" d="M381.984,214.887
		c0,10.963-8.885,19.846-19.846,19.846H31.813c-10.96,0-19.847-8.883-19.847-19.846V47.146c0-10.961,8.886-19.847,19.847-19.847
		h330.324c10.963,0,19.846,8.886,19.846,19.847L381.984,214.887L381.984,214.887z"/>
	<path fill="#FFFFFF" stroke="#000000" stroke-width="3" stroke-miterlimit="10" d="M350.927,183.909
		c0,10.965-8.89,19.846-19.851,19.846H59.619c-10.96,0-19.846-8.881-19.846-19.846V73.636c0-10.959,8.886-19.848,19.846-19.848
		h271.46c10.961,0,19.849,8.888,19.849,19.848V183.909L350.927,183.909z"/>
	<path id="vecmap" display="none" fill="none" stroke="#000000" stroke-width="9" stroke-miterlimit="10" d="M71.323,137.644
		c0,26.34,16.926,47.654,37.844,47.654"/>
	<path id="vecmap_1_" fill="none" stroke="#000000" stroke-width="4" stroke-miterlimit="10" d="M266.832,238.038
		c0,37.188,32.601,67.276,72.884,67.276"/>
	<path id="vecmap_2_" fill="none" stroke="#000000" stroke-width="4" stroke-miterlimit="10" d="M124.708,234.73
		c0,37.187-32.598,67.273-72.881,67.273"/>
	<g display="none">
		
			<line id="vecmap_3_" display="inline" fill="none" stroke="#000000" stroke-width="3" stroke-miterlimit="10" x1="45.984" y1="78.876" x2="344.521" y2="78.876"/>
	</g>
	<g display="none">
		
			<line id="vecmap_4_" display="inline" fill="none" stroke="#000000" stroke-width="3" stroke-miterlimit="10" x1="88.269" y1="85.885" x2="88.269" y2="195.206"/>
	</g>
	<g display="none">
		
			<line id="vecmap_5_" display="inline" fill="none" stroke="#000000" stroke-width="3" stroke-miterlimit="10" x1="310.853" y1="85.885" x2="310.853" y2="195.206"/>
	</g>
	<g display="none">
		
			<rect id="vecmaprec" x="45.984" y="102.591" display="inline" fill="#FFFFFF" stroke="#000000" stroke-width="3" stroke-miterlimit="10" width="293.731" height="66.154"/>
	</g>
	<g display="none">
		
			<line display="inline" fill="none" stroke="#000000" stroke-width="3" stroke-miterlimit="10" x1="45.984" y1="168.745" x2="339.716" y2="168.745"/>
	</g>
</g>
<g id="paw1" display="none">
	<ellipse fill="none" stroke="#231F20" stroke-width="9" stroke-miterlimit="10" cx="19.987" cy="135.015" rx="4.056" ry="4.75"/>
	<circle display="inline" fill="#FF8080" cx="293.529" cy="221.924" r="103.495"/>
	<path fill="none" stroke="#231F20" stroke-width="9" stroke-miterlimit="10" d="M294.529,80.765c0,0-89.996-135.165-199.491-3.502
		c0,0-16.498,62.338-31.498,59.502s-43.495-4.494-47.995,18.834c-4.5,23.326,15,83.334,85.493,59.331
		c70.496-24.005,172.491,85.692,88.495,87.844"/>
	
		<ellipse transform="matrix(0.9708 -0.2401 0.2401 0.9708 -24.6588 57.0519)" fill="none" stroke="#231F20" stroke-width="9" stroke-miterlimit="10" cx="221.828" cy="129.733" rx="38.02" ry="56.485"/>
	
		<line display="inline" fill="none" stroke="#FFFFFF" stroke-width="10" stroke-miterlimit="10" x1="232.869" y1="221.923" x2="354.191" y2="221.923"/>
	
		<line fill="none" stroke="#FFFFFF" stroke-width="10" stroke-miterlimit="10" x1="294.349" y1="282.583" x2="293.885" y2="161.265"/>
</g>
<g id="paw4">
</g>
<g id="paw3">
</g>
<g id="paw2">
</g>
<path fill="#FFFFFF" stroke="#000000" stroke-width="3" stroke-miterlimit="10" d="M493.012,350.59l8-0.09c24,2,14-30,14-30l-20-31
	c-39-32-63,35-128,15.814s76-14.814,45-36.947S296.514,292.24,296.514,292.24"/>
</svg>
