<?xml version="1.0" encoding="utf-8"?>
<!-- Generator: Adobe Illustrator 16.0.0, SVG Export Plug-In . SVG Version: 6.00 Build 0)  -->
<!DOCTYPE svg PUBLIC "-//W3C//DTD SVG 1.1//EN" "http://www.w3.org/Graphics/SVG/1.1/DTD/svg11.dtd">
<svg version="1.1" xmlns="http://www.w3.org/2000/svg" xmlns:xlink="http://www.w3.org/1999/xlink" x="0px" y="0px" width="200px"
	 height="200px" viewBox="0 0 1000 1000" style="enable-background:new 0 0 1000 1000;" xml:space="preserve">
<style type="text/css">
<![CDATA[
	.st0{fill:#FFFFFF;stroke:#8383FC;stroke-width:5;stroke-miterlimit:10;}
	.st1{font-family:'MyriadPro-Regular';}
	.st2{display:none;fill:#FFFFFF;stroke:#8383FC;stroke-width:5;stroke-miterlimit:10;}
	.st3{opacity:0.3;fill:#FCFCFC;stroke:#8383FC;stroke-width:9;stroke-miterlimit:10;enable-background:new    ;}
	.st4{font-size:72;}
	.st5{fill:none;stroke:#8383FC;stroke-width:5;stroke-miterlimit:10;}
	.st6{display:none;fill:none;stroke:#8383FC;stroke-width:5;stroke-miterlimit:10;}
	.st7{display:none;}
]]>
</style>
<g id="Layer_3">
</g>
<g id="Layer_2">
	<circle class="st3" cx="500" cy="455.711" r="302.542"/>
	<g id="Layer_x5F_1">
		<path class="st2" d="M444.525,594.475c0,6.627-5.373,12-12,12H331.102c-6.627,0-12-5.373-12-12V348.983c0-6.627,5.373-12,12-12
			h101.424c6.627,0,12,5.373,12,12L444.525,594.475L444.525,594.475z"/>
		<path class="st2" d="M656.459,594.475c0,6.627-5.372,12-12,12H543.034c-6.627,0-12-5.373-12-12V348.983c0-6.627,5.373-12,12-12
			h101.425c6.628,0,12,5.373,12,12V594.475z"/>
		<path class="st2" d="M569.949,515.729c0,6.627-5.373,12-12,12H456.525c-6.627,0-12-5.373-12-12V270.237c0-6.627,5.373-12,12-12
			h101.424c6.627,0,12,5.373,12,12V515.729z"/>
		<path class="st0" d="M723.729,521.117c0,13.26-10.744,24-24,24H300.271c-13.255,0-24-10.74-24-24V318.272
			c0-13.254,10.745-24,24-24h399.457c13.256,0,24,10.746,24,24L723.729,521.117L723.729,521.117z"/>
		<path class="st0" d="M686.172,483.66c0,13.26-10.744,24-24,24H333.898c-13.255,0-24-10.74-24-24V350.308c0-13.254,10.745-24,24-24
			h328.272c13.256,0,24,10.746,24,24L686.172,483.66L686.172,483.66z"/>
		<path id="vecmap" class="st6" d="M348.052,427.712c0,31.853,20.468,57.628,45.763,57.628"/>
		<path id="vecmap_1_" class="st5" d="M584.477,549.117c0,44.971,39.42,81.355,88.135,81.355"/>
		<path id="vecmap_2_" class="st5" d="M412.609,545.117c0,44.971-39.42,81.355-88.135,81.355"/>
		<g>
			<line id="vecmap_3_" class="st5" x1="317.407" y1="356.645" x2="678.426" y2="356.645"/>
		</g>
		<g>
			<line id="vecmap_4_" class="st5" x1="368.543" y1="365.119" x2="368.543" y2="497.322"/>
		</g>
		<g>
			<line id="vecmap_5_" class="st5" x1="637.714" y1="365.119" x2="637.714" y2="497.322"/>
		</g>
		<g>
			<rect id="vecmaprec" x="317.407" y="385.323" class="st0" width="355.205" height="80"/>
		</g>
		<g>
			<line class="st5" x1="317.407" y1="465.323" x2="672.611" y2="465.323"/>
		</g>
	</g>
	<text transform="matrix(1 0 0 1 461.9832 703.8977)" class="st7 st1 st4">3X</text>
</g>
</svg>
