<?xml version="1.0" encoding="utf-8"?>
<!-- Generator: Adobe Illustrator 16.0.0, SVG Export Plug-In . SVG Version: 6.00 Build 0)  -->
<!DOCTYPE svg PUBLIC "-//W3C//DTD SVG 1.1//EN" "http://www.w3.org/Graphics/SVG/1.1/DTD/svg11.dtd">
<svg version="1.1" id="Layer_2" xmlns="http://www.w3.org/2000/svg" xmlns:xlink="http://www.w3.org/1999/xlink" x="0px" y="0px"
 viewBox="0 0 1000 1000" style="enable-background:new 0 0 1000 1000;" xml:space="preserve">
<style type="text/css">
<![CDATA[
	.st0{display:none;fill:#FFFFFF;stroke:#000000;stroke-width:4;stroke-miterlimit:10;}
	.st1{fill:#FFFFFF;stroke:#000000;stroke-miterlimit:10;}
	.st2{display:none;fill:none;stroke:#000000;stroke-width:9;stroke-miterlimit:10;}
	.st3{fill:none;stroke:#000000;stroke-width:4;stroke-miterlimit:10;}
	.st4{font-family:'MyriadPro-Regular';}
	.st5{fill:#FFFFFF;stroke:#000000;stroke-width:5;stroke-miterlimit:10;}
	.st6{font-size:72;}
	.st7{display:none;}
	.st8{fill:#FFFFFF;stroke:#000000;stroke-width:3;stroke-miterlimit:10;}
]]>
</style>
 <style>
	 	
		 #smoke{
		 stroke-dasharray:2200;
		 stroke-dashoffset:0;
		 -webkit-animation:dash 3s infinite linear forwards;
		 }
		  #vecmaprec{
		 stroke-dasharray:2200;
		 stroke-dashoffset:0;
		 -webkit-animation:dash 3s infinite linear forwards;
		 }
		 @-webkit-keyframes dash{

		 from{
		 stroke-dashoffset:2200;
		 }
		 to{
		 stroke-dashoffset:0;
		 }
		 }
	 </style>
<circle  style="fill:#ddd;" class="st1" cx="500" cy="455.711" r="302.542"/>
<g id="Layer_1 ">
	<path class="st0" d="M444.525,594.475c0,6.627-5.373,12-12,12H331.102c-6.627,0-12-5.373-12-12V348.983c0-6.627,5.373-12,12-12
		h101.424c6.627,0,12,5.373,12,12V594.475z"/>
	<path class="st0" d="M656.458,594.475c0,6.627-5.373,12-12,12H543.034c-6.627,0-12-5.373-12-12V348.983c0-6.627,5.373-12,12-12
		h101.424c6.627,0,12,5.373,12,12V594.475z"/>
	<path class="st0" d="M569.949,515.729c0,6.627-5.373,12-12,12H456.525c-6.627,0-12-5.373-12-12V270.237c0-6.627,5.373-12,12-12
		h101.424c6.627,0,12,5.373,12,12V515.729z"/>
	<path class="st5" d="M723.729,521.119c0,13.258-10.744,24-24,24H300.271c-13.255,0-24-10.742-24-24V318.272
		c0-13.254,10.745-24,24-24h399.457c13.256,0,24,10.746,24,24V521.119z"/>
	<path class="st8" d="M686.17,483.662c0,13.258-10.744,24-24,24H333.898c-13.255,0-24-10.742-24-24V350.308
		c0-13.254,10.745-24,24-24H662.17c13.256,0,24,10.746,24,24V483.662z"/>
	<path id="vecmap"  class="st2" d="M348.051,427.712c0,31.853,20.468,57.628,45.763,57.628"/>
	<path id="vecmap"  class="st3" d="M584.477,549.119c0,44.969,39.42,81.355,88.135,81.355"/>
	<path id="vecmap" class="st3" d="M412.609,545.119c0,44.969-39.42,81.355-88.135,81.355"/>
	<g>
		<line id="vecmap"  class="st8" x1="317.407" y1="356.645" x2="678.424" y2="356.645"/>
	</g>
	<g>
		<line id="vecmap"  class="st8" x1="368.542" y1="365.119" x2="368.542" y2="497.322"/>
	</g>
	<g>
		<line id="vecmap"  class="st8" x1="637.712" y1="365.119" x2="637.712" y2="497.322"/>
	</g>
	<g>
		<rect id="vecmaprec"  x="317.407" y="385.323" class="st8" width="355.205" height="80"/>
	</g>
	<g>
		<line class="st8" x1="317.407" y1="465.323" x2="672.611" y2="465.323"/>
	</g>
</g>
<text transform="matrix(1 0 0 1 461.9829 703.8975)" class="st7 st4 st6">3X</text>
</svg>
