<?xml version="1.0" encoding="utf-8"?>
<!-- Generator: Adobe Illustrator 16.0.0, SVG Export Plug-In . SVG Version: 6.00 Build 0)  -->
<!DOCTYPE svg PUBLIC "-//W3C//DTD SVG 1.1//EN" "http://www.w3.org/Graphics/SVG/1.1/DTD/svg11.dtd">
<svg version="1.1" id="Layer_1" xmlns="http://www.w3.org/2000/svg" xmlns:xlink="http://www.w3.org/1999/xlink" x="0px" y="0px"
	 width="612px" height="792px" viewBox="0 0 612 792" style="enable-background:new 0 0 612 792;" xml:space="preserve">
<style type="text/css">
<![CDATA[
	.st0{fill:#FFFFFF;stroke:#000000;stroke-width:2;stroke-miterlimit:10;}
	.st1{display:none;fill:#FFFFFF;stroke:#000000;stroke-width:2;stroke-miterlimit:10;}
	.st2{fill:#FFFFFF;stroke:#000000;stroke-width:4;stroke-miterlimit:10;}
]]>
</style>
<path class="st2" d="M126.054,240.216l114.865,114.865c0,0-56.757,5.406-91.892-20.27S109.838,245.622,126.054,240.216z"/>
<path class="st2" d="M240.919,355.081"/>
<polyline class="st2" points="126.054,240.216 240.919,178.054 349.027,263.189 240.919,355.081 337.589,438.088 "/>
<polygon class="st2" points="421,362 498,282 349.027,263.189 240.919,355.081 407,377 "/>
<polygon class="st2" points="498,282 498,409 414,503 407,377 "/>
<polygon class="st2" points="240.919,355.081 240.919,477 414,503 "/>
<g>
	<polygon class="st2" points="349.027,345 349.027,263.189 240.919,355.081 327.459,366.502 	"/>
</g>
<polygon class="st2" points="498,282 349.027,263.189 349.027,345 427.996,355.081 "/>
<path class="st1" d="M347.377,263.694c0,0-47.336,9.58-79.208-8.939c-31.872-18.519-40.911-71.667-27.728-77.657"/>
<path class="st0" d="M240.44,177.098l106.937,86.596"/>
<path class="st0" d="M612,618.079"/>
</svg>
