<?xml version="1.0" encoding="utf-8"?>
<!-- Generator: Adobe Illustrator 16.0.0, SVG Export Plug-In . SVG Version: 6.00 Build 0)  -->
<!DOCTYPE svg PUBLIC "-//W3C//DTD SVG 1.1//EN" "http://www.w3.org/Graphics/SVG/1.1/DTD/svg11.dtd">
<svg version="1.1" xmlns="http://www.w3.org/2000/svg" xmlns:xlink="http://www.w3.org/1999/xlink" x="0px" y="0px" width="500px"
	 height="500px" viewBox="0 0 1000 1000" style="enable-background:new 0 0 1000 1000;" xml:space="preserve">
<style type="text/css">
<![CDATA[
	.st0{fill:#FFFFFF;stroke:#9899A3;stroke-width:6;stroke-miterlimit:10;}
	.st1{display:inline;fill:none;stroke:#000000;stroke-width:3;stroke-miterlimit:10;}
	.st2{display:none;fill:#FFFFFF;stroke:#000000;stroke-width:6;stroke-miterlimit:10;}
	.st3{fill:#FFFFFF;stroke:#000DDD;stroke-width:8;stroke-miterlimit:10;}
	.st4{display:inline;}
	.st5{display:inline;fill:#FFFFFF;stroke:#000000;stroke-width:8;stroke-miterlimit:10;}
	.st6{fill:#DDDDDD;stroke:#000000;stroke-miterlimit:10;}
	.st7{display:none;}
	.st8{fill:#FFFFFF;stroke:#9899A3;stroke-width:8;stroke-miterlimit:10;}
]]>
</style>
<g id="Layer_1" class="st7">
	<g class="st4">
		<g id="Layer_3">
			<path class="st6" d="M500,153.169c167.092,0,302.543,135.452,302.543,302.542c0,29.068-4.101,57.182-11.754,83.789
				c-4.146,14.412-9.335,28.387-15.479,41.829C727.601,685.718,622.271,758.252,500,758.253
				c-129.085,0-239.288-80.846-282.741-194.661c-3.007-7.877-5.693-15.912-8.047-24.089c-7.652-26.608-11.754-54.724-11.754-83.792
				C197.458,288.621,332.911,153.169,500,153.169z"/>
		</g>
		<g class="st7">
			<line class="st1" x1="770.5" y1="578.5" x2="223.421" y2="578.5"/>
		</g>
		<g class="st7">
			<line class="st1" x1="802.51" y1="459.527" x2="197.49" y2="459.527"/>
		</g>
		<g>
			<path d="M455.942,417.769l-14.328,37.872h-4.824l-11.95-31.032l-11.952,31.032h-4.824l-14.256-37.872h4.896l11.881,32.184
				l12.168-32.184h4.393l12.096,32.184l12.024-32.184H455.942z"/>
		</g>
		<g>
			<path d="M391.214,417.839l-14.328,37.872h-4.824l-11.952-31.032l-11.952,31.032h-4.823l-14.257-37.872h4.896l11.88,32.184
				l12.168-32.184h4.392l12.098,32.184l12.022-32.184H391.214z"/>
		</g>
		<g>
			<path d="M326.214,417.839l-14.328,37.872h-4.824l-11.952-31.032l-11.952,31.032h-4.824l-14.256-37.872h4.896l11.88,32.184
				l12.168-32.184h4.392l12.098,32.184l12.022-32.184H326.214z"/>
		</g>
		<g>
			<path d="M456.432,454.919c-0.745-0.769-1.116-1.703-1.116-2.81c0-1.104,0.371-2.025,1.116-2.771
				c0.744-0.744,1.644-1.116,2.7-1.116c1.055,0,1.968,0.372,2.734,1.116c0.769,0.745,1.152,1.668,1.152,2.771
				c0,1.105-0.385,2.041-1.152,2.81c-0.769,0.769-1.681,1.15-2.734,1.15C458.075,456.071,457.177,455.688,456.432,454.919z"/>
		</g>
		<g>
			<path d="M520.392,435.406c0.646-1.485,1.451-2.759,2.412-3.814c0.959-1.057,2.207-2.255,3.743-3.602
				c2.063-1.821,3.588-3.42,4.57-4.788c0.983-1.366,1.478-3.034,1.478-5.002c0-2.641-1.032-4.765-3.097-6.372
				c-2.063-1.608-4.896-2.412-8.495-2.412c-5.952,0-10.537,1.942-13.752,5.832l-3.816-2.88c4.08-4.991,10.056-7.488,17.928-7.488
				c5.041,0,9.063,1.128,12.063,3.384c3,2.257,4.5,5.305,4.5,9.146c0,1.969-0.324,3.706-0.974,5.22
				c-0.646,1.512-1.438,2.797-2.376,3.852c-0.936,1.056-2.172,2.28-3.708,3.672c-2.063,1.872-3.601,3.541-4.606,5.004
				c-1.008,1.465-1.514,3.276-1.514,5.438h-5.326C519.422,438.622,519.744,436.896,520.392,435.406z M519.422,454.953
				c-0.722-0.742-1.08-1.618-1.08-2.628c0-1.056,0.358-1.932,1.08-2.628c0.721-0.693,1.605-1.044,2.663-1.044
				c1.104,0,2.017,0.351,2.735,1.044c0.721,0.697,1.08,1.573,1.08,2.628c0,1.01-0.373,1.886-1.116,2.628
				c-0.745,0.745-1.646,1.116-2.699,1.116C521.027,456.071,520.14,455.698,519.422,454.953z"/>
		</g>
		<g>
			<path d="M561.892,435.406c0.646-1.485,1.451-2.759,2.412-3.814c0.959-1.057,2.207-2.255,3.743-3.602
				c2.063-1.821,3.588-3.42,4.57-4.788c0.983-1.366,1.478-3.034,1.478-5.002c0-2.641-1.032-4.765-3.097-6.372
				c-2.063-1.608-4.896-2.412-8.495-2.412c-5.952,0-10.537,1.942-13.752,5.832l-3.816-2.88c4.08-4.991,10.056-7.488,17.928-7.488
				c5.041,0,9.063,1.128,12.063,3.384c3,2.257,4.5,5.305,4.5,9.146c0,1.969-0.324,3.706-0.974,5.22
				c-0.646,1.512-1.438,2.797-2.376,3.852c-0.936,1.056-2.172,2.28-3.708,3.672c-2.063,1.872-3.601,3.541-4.606,5.004
				c-1.008,1.465-1.514,3.276-1.514,5.438h-5.326C560.922,438.622,561.244,436.896,561.892,435.406z M560.922,454.953
				c-0.722-0.742-1.08-1.618-1.08-2.628c0-1.056,0.358-1.932,1.08-2.628c0.721-0.693,1.605-1.044,2.663-1.044
				c1.104,0,2.017,0.351,2.735,1.044c0.721,0.697,1.08,1.573,1.08,2.628c0,1.01-0.373,1.886-1.116,2.628
				c-0.745,0.745-1.646,1.116-2.699,1.116C562.527,456.071,561.64,455.698,560.922,454.953z"/>
		</g>
		<g>
			<path d="M482.392,435.406c0.648-1.485,1.451-2.759,2.412-3.814c0.959-1.057,2.207-2.255,3.744-3.602
				c2.063-1.821,3.588-3.42,4.57-4.788c0.983-1.366,1.478-3.034,1.478-5.002c0-2.641-1.033-4.765-3.097-6.372
				c-2.064-1.608-4.896-2.412-8.495-2.412c-5.952,0-10.537,1.942-13.753,5.832l-3.815-2.88c4.079-4.991,10.055-7.488,17.928-7.488
				c5.04,0,9.062,1.128,12.062,3.384c3,2.257,4.5,5.305,4.5,9.146c0,1.969-0.324,3.706-0.974,5.22
				c-0.646,1.512-1.438,2.797-2.376,3.852c-0.936,1.056-2.172,2.28-3.708,3.672c-2.063,1.872-3.6,3.541-4.606,5.004
				c-1.009,1.465-1.514,3.276-1.514,5.438h-5.327C481.422,438.622,481.744,436.896,482.392,435.406z M481.422,454.953
				c-0.722-0.742-1.08-1.618-1.08-2.628c0-1.056,0.358-1.932,1.08-2.628c0.72-0.693,1.606-1.044,2.662-1.044
				c1.104,0,2.018,0.351,2.736,1.044c0.721,0.697,1.08,1.573,1.08,2.628c0,1.01-0.372,1.886-1.116,2.628
				c-0.745,0.745-1.645,1.116-2.7,1.116C483.029,456.07,482.14,455.698,481.422,454.953z"/>
		</g>
		<g>
			<path d="M592.431,454.919c-0.744-0.769-1.115-1.703-1.115-2.81c0-1.104,0.371-2.025,1.115-2.771
				c0.744-0.744,1.645-1.116,2.7-1.116c1.055,0,1.968,0.372,2.734,1.116c0.769,0.745,1.151,1.668,1.151,2.771
				c0,1.105-0.385,2.041-1.151,2.81c-0.769,0.769-1.681,1.15-2.734,1.15C594.076,456.071,593.177,455.688,592.431,454.919z"/>
		</g>
		<g>
			<path d="M613.279,453.621c-2.951-1.631-5.268-3.924-6.947-6.876c-1.681-2.95-2.52-6.273-2.52-9.972
				c0-3.696,0.839-7.008,2.52-9.936c1.682-2.929,3.996-5.208,6.947-6.84c2.953-1.631,6.301-2.448,10.045-2.448
				c3.266,0,6.182,0.637,8.748,1.908c2.566,1.271,4.596,3.132,6.084,5.578l-3.814,2.594c-1.248-1.872-2.832-3.276-4.752-4.214
				c-1.922-0.936-4.01-1.402-6.266-1.402c-2.734,0-5.197,0.611-7.381,1.836c-2.184,1.224-3.887,2.964-5.111,5.22
				c-1.225,2.257-1.836,4.824-1.836,7.704c0,2.928,0.611,5.508,1.836,7.74c1.227,2.23,2.93,3.96,5.111,5.184
				c2.186,1.226,4.646,1.836,7.381,1.836c2.256,0,4.344-0.456,6.266-1.368c1.92-0.909,3.504-2.304,4.752-4.176l3.814,2.592
				c-1.488,2.448-3.526,4.311-6.12,5.58c-2.593,1.272-5.497,1.908-8.712,1.908C619.58,456.071,616.232,455.256,613.279,453.621z"/>
		</g>
		<g>
			<path d="M656.279,453.621c-2.951-1.631-5.268-3.924-6.947-6.876c-1.681-2.95-2.52-6.273-2.52-9.972
				c0-3.696,0.839-7.008,2.52-9.936c1.682-2.929,3.996-5.208,6.947-6.84c2.953-1.631,6.301-2.448,10.045-2.448
				c3.266,0,6.182,0.637,8.748,1.908c2.566,1.271,4.596,3.132,6.084,5.578l-3.814,2.594c-1.248-1.872-2.832-3.276-4.752-4.214
				c-1.922-0.936-4.01-1.402-6.266-1.402c-2.734,0-5.197,0.611-7.381,1.836c-2.184,1.224-3.887,2.964-5.111,5.22
				c-1.225,2.257-1.836,4.824-1.836,7.704c0,2.928,0.611,5.508,1.836,7.74c1.227,2.23,2.93,3.96,5.111,5.184
				c2.186,1.226,4.646,1.836,7.381,1.836c2.256,0,4.344-0.456,6.266-1.368c1.92-0.909,3.504-2.304,4.752-4.176l3.814,2.592
				c-1.488,2.448-3.526,4.311-6.12,5.58c-2.593,1.272-5.497,1.908-8.712,1.908C662.58,456.071,659.232,455.256,656.279,453.621z"/>
		</g>
		<g>
			<path d="M698.279,453.621c-2.951-1.631-5.268-3.924-6.947-6.876c-1.681-2.95-2.52-6.273-2.52-9.972
				c0-3.696,0.839-7.008,2.52-9.936c1.682-2.929,3.996-5.208,6.947-6.84c2.953-1.631,6.301-2.448,10.045-2.448
				c3.266,0,6.182,0.637,8.748,1.908c2.566,1.271,4.596,3.132,6.084,5.578l-3.814,2.594c-1.248-1.872-2.832-3.276-4.752-4.214
				c-1.922-0.936-4.01-1.402-6.266-1.402c-2.734,0-5.197,0.611-7.381,1.836c-2.184,1.224-3.887,2.964-5.111,5.22
				c-1.225,2.257-1.836,4.824-1.836,7.704c0,2.928,0.611,5.508,1.836,7.74c1.227,2.23,2.93,3.96,5.111,5.184
				c2.186,1.226,4.646,1.836,7.381,1.836c2.256,0,4.344-0.456,6.266-1.368c1.92-0.909,3.504-2.304,4.752-4.176l3.814,2.592
				c-1.488,2.448-3.526,4.311-6.12,5.58c-2.593,1.272-5.497,1.908-8.712,1.908C704.58,456.071,701.232,455.256,698.279,453.621z"/>
		</g>
	</g>
	<g class="st4">
		<path d="M250.5,396.779h4.752v67.393H250.5V396.779z"/>
	</g>
	<div  class="typewriter">
		
			<text  transform="matrix(1 0 0 1 264.0769 578.5002)" startOffset="0" font-size="72" font-family="&apos;Montserrat-Regular&apos;">
			www.???.com</text>
	</div>
</g>
<g id="Layer_2">
	<path class="st0" d="M167.689,440.063h100.495c0,0,28.499-9,0-35.998s-94.495-86.996-94.495-86.996"/>
	<line class="st0" x1="251.685" y1="317.069" x2="228.625" y2="367.308"/>
	<path class="st2" d="M195.105,397.591l113.161-6c0,0,48.831,10.499,50.331-29.999"/>
	<line class="st0" x1="337.652" y1="423.129" x2="266.684" y2="354.567"/>
	<line class="st0" x1="302.168" y1="479.061" x2="167.689" y2="479.061"/>
	<path class="st0" d="M337.584,423.129c0,0,23.5,52.522-37,55.932"/>
	<path class="st2" d="M329.584,300.096h137.008c0,0,37.499-3.764,49.498-36.378s0-67.112,0-67.112l-58.497-46.498"/>
	<line class="st0" x1="494.007" y1="269.076" x2="532.172" y2="228.578"/>
	<path class="st2" d="M553.588,300.096c-8.999,38.993-76.496,44.563-76.496,44.563h-107.6"/>
	<path class="st0" d="M526.172,284.97"/>
	<path class="st0" d="M532.172,284.97"/>
	<path class="st2" d="M555.588,299.838c0,0,18.09-51.508,0-82.337"/>
	<path class="st0" d="M353.689,357.507h163.773c0,0,46.443-14.666,0-58.665S363.467,157.069,363.467,157.069"/>
	<line class="st0" x1="490.574" y1="157.069" x2="452.994" y2="238.941"/>
	<line class="st0" x1="630.672" y1="329.91" x2="515.017" y2="218.178"/>
	<line class="st0" x1="572.844" y1="421.061" x2="353.689" y2="421.061"/>
	<path class="st0" d="M630.56,329.91c0,0,38.297,85.594-60.298,91.15"/>
	<path class="st8" d="M557.084,248.827h152c0,0,52-13.788,40-50.822s1.798-83.035,1.798-83.035"/>
	<path class="st8" d="M611.18,311.081h91.903c0,0,120-2.396,110-62.253"/>
	<path class="st3" d="M813.676,238.941"/>
	<path class="st3" d="M813.676,137.97c0,0-35.408,23.941,0,111.971"/>
	<path class="st0" d="M157.285,479.061c3,14.258-111.205,194.275,10.404,308.287"/>
	<line class="st0" x1="388.308" y1="388.848" x2="463.266" y2="388.848"/>
	<path class="st0" d="M515.017,388.848h42.066c0,0,11.278,0.977,15.761-10.282"/>
	<path class="st0" d="M490.574,248.827l66.51,62.253c0,0,29.28,36.748,15.761,43.486"/>
</g>
<g id="Layer_4">
	<path class="st0" d="M127,253"/>
	<path class="st0" d="M197.4,196c-38.913,0-70.4,25.494-70.4,57c0,0-45.5-10.5-52.5,44"/>
	<path class="st0" d="M197.4,196c39.022,0,70.6,25.494,70.6,57c0,0,46-5,53,39.5s-52.416,54.074-52.416,54.074
		c0.421,9.11-13.938,17.161-32.104,18.001"/>
	<path class="st0" d="M197.4,347c0,9.12-14.715,16.5-32.9,16.5"/>
	<path class="st0" d="M198.055,345.428c0.533,11.54,17.719,20.104,38.424,19.147"/>
	<path class="st0" d="M74.5,299c0,0,2.5,49.7,52.5,43.6c0,11.552,16.772,20.9,37.5,20.9"/>
	<path class="st0" d="M332.291,117.488"/>
	<path class="st0" d="M452.697,20c-66.553,0-120.406,43.603-120.406,97.487c0,0-77.819-17.958-89.791,75.253"/>
	<path class="st0" d="M452.697,20c66.741,0,120.747,43.603,120.747,97.487c0,0,78.674-8.552,90.646,67.557
		c11.972,76.108-89.647,92.483-89.647,92.483c0.72,15.582-23.837,29.351-54.909,30.787"/>
	<path class="st0" d="M452.697,278.256c0,15.598-25.167,28.22-56.27,28.22"/>
	<path class="st0" d="M453.817,275.567c0.912,19.737,30.305,34.385,65.716,32.748"/>
	<path class="st0" d="M242.5,196.161c0,0,4.276,85.002,89.791,74.569c0,19.758,28.686,35.745,64.136,35.745"/>
	<path class="st0" d="M682,134"/>
	<path class="st0" d="M752.4,77c-38.913,0-70.4,25.494-70.4,57c0,0-45.5-10.5-52.5,44"/>
	<path class="st0" d="M752.4,77c39.022,0,70.6,25.494,70.6,57c0,0,46-5,53,39.5s-52.416,54.074-52.416,54.074
		c0.421,9.11-13.938,17.161-32.104,18.001"/>
	<path class="st0" d="M752.4,228c0,9.12-14.715,16.5-32.9,16.5"/>
	<path class="st0" d="M753.055,226.428c0.533,11.54,17.719,20.104,38.424,19.147"/>
	<path class="st0" d="M629.5,180c0,0,2.5,49.7,52.5,43.6c0,11.552,16.772,20.9,37.5,20.9"/>
</g>
<g id="Layer_3_1_" class="st7">
	<line class="st5" x1="291" y1="432" x2="291" y2="410"/>
</g>
</svg>
