<?xml version="1.0" encoding="utf-8"?>
<!-- Generator: Adobe Illustrator 16.0.0, SVG Export Plug-In . SVG Version: 6.00 Build 0)  -->
<!DOCTYPE svg PUBLIC "-//W3C//DTD SVG 1.1//EN" "http://www.w3.org/Graphics/SVG/1.1/DTD/svg11.dtd">
<svg version="1.1" id="Layer_1" xmlns="http://www.w3.org/2000/svg" xmlns:xlink="http://www.w3.org/1999/xlink" x="0px" y="0px"
	 width="200px" height="200px" viewBox="0 0 1000 1000" style="enable-background:new 0 0 1000 1000;" xml:space="preserve">
<style type="text/css">
<![CDATA[
	.st0{fill:none;stroke:#000000;stroke-width:9;stroke-miterlimit:10;}
	.st1{fill:#FFFFFF;stroke:#9E9D9D;stroke-width:5;stroke-miterlimit:10;enable-background:new    ;}
	.st2{enable-background:new    ;}
	.st3{opacity:0.7;stroke:#000000;stroke-miterlimit:10;}
	.st4{font-family:'MyriadPro-Regular';}
	.st5{display:inline;fill:none;stroke:#000000;stroke-width:3;stroke-miterlimit:10;}
	.st6{display:none;enable-background:new    ;}
	.st7{fill:none;stroke:#000000;stroke-width:3;stroke-miterlimit:10;}
	.st8{display:inline;}
	.st9{fill:#FFFFFF;stroke:#000000;stroke-width:4;stroke-miterlimit:10;}
	.st10{display:inline;fill:#FFFFFF;stroke:#000000;stroke-width:3;stroke-miterlimit:10;}
	.st11{font-size:72;}
	.st12{display:none;}
	.st13{fill:#FFFFFF;stroke:#000000;stroke-width:3;stroke-miterlimit:10;}
]]>
</style>
<g id="Layer_3">
</g>
<g id="Layer_2">
	<g class="st2">
		
			<image style="overflow:visible;" width="683" height="683" xlink:href="8F48DE0F.png"  transform="matrix(1 0 0 1 164.4998 121.5002)">
		</image>
	</g>
	<circle class="st1" cx="498" cy="453.711" r="302.542"/>
	<g id="Layer_1_1_" class="st12">
		<path class="st9" d="M442.525,592.475c0,6.627-5.373,12-12,12H329.102c-6.627,0-12-5.373-12-12V346.983c0-6.627,5.373-12,12-12
			h101.424c6.627,0,12,5.373,12,12L442.525,592.475L442.525,592.475z"/>
		<path class="st9" d="M654.459,592.475c0,6.627-5.372,12-12,12H541.034c-6.627,0-12-5.373-12-12V346.983c0-6.627,5.373-12,12-12
			h101.425c6.628,0,12,5.373,12,12V592.475z"/>
		<path class="st9" d="M567.949,513.729c0,6.627-5.373,12-12,12H454.525c-6.627,0-12-5.373-12-12V268.237c0-6.627,5.373-12,12-12
			h101.424c6.627,0,12,5.373,12,12V513.729z"/>
		<path class="st0" d="M346.052,425.712c0,31.853,20.468,57.628,45.763,57.628"/>
		<g class="st8">
			<line class="st7" x1="257.15" y1="270.599" x2="738.852" y2="270.599"/>
		</g>
		<g class="st8">
			<line class="st7" x1="229.303" y1="592.883" x2="766.696" y2="592.883"/>
		</g>
		<rect x="357" y="289" class="st10" width="292" height="299"/>
		<line class="st5" x1="361" y1="321" x2="644" y2="321"/>
		<line class="st5" x1="361.075" y1="350" x2="644.075" y2="350"/>
		<line class="st5" x1="360.5" y1="408" x2="643.5" y2="408"/>
		<line class="st5" x1="363.791" y1="548" x2="646.791" y2="548"/>
		<line class="st5" x1="362" y1="571" x2="645" y2="571"/>
		<line class="st5" x1="361" y1="379" x2="644" y2="379"/>
		<line class="st5" x1="361.791" y1="437.712" x2="644.791" y2="437.712"/>
		<line class="st5" x1="361.791" y1="466.712" x2="644.791" y2="466.712"/>
		<line class="st5" x1="362.791" y1="494.712" x2="645.791" y2="494.712"/>
		<line class="st5" x1="362.791" y1="522" x2="645.791" y2="522"/>
		<g class="st8">
			<line class="st7" x1="350" y1="598" x2="273.12" y2="656.097"/>
		</g>
		<g class="st8">
			<line class="st7" x1="649" y1="598" x2="535.078" y2="754.006"/>
		</g>
		<g class="st8">
			<polyline class="st13" points="751.301,288.212 713,288.212 713,587.212 766.696,587.212 			"/>
		</g>
		<g class="st8">
			<polyline class="st13" points="245.699,288.212 283.998,288.212 283.998,587.212 230.302,587.212 			"/>
		</g>
		<line class="st5" x1="227.031" y1="319" x2="285.929" y2="319"/>
		<line class="st5" x1="214.443" y1="348" x2="285.952" y2="348"/>
		<line class="st5" x1="198.335" y1="406" x2="285.774" y2="406"/>
		<line class="st5" x1="207.797" y1="546" x2="284.791" y2="546"/>
		<line class="st5" x1="218.035" y1="569" x2="285.238" y2="569"/>
		<line class="st5" x1="205.273" y1="377" x2="285.929" y2="377"/>
		<line class="st5" x1="198.734" y1="435.712" x2="286.173" y2="435.712"/>
		<line class="st5" x1="197.734" y1="464.712" x2="285.173" y2="464.712"/>
		<line class="st5" x1="198.043" y1="492.712" x2="285.482" y2="492.712"/>
		<line class="st5" x1="204.273" y1="520" x2="285.482" y2="520"/>
		<line class="st5" x1="770.875" y1="321" x2="711.978" y2="321"/>
		<line class="st5" x1="783.465" y1="350" x2="711.954" y2="350"/>
		<line class="st5" x1="797.11" y1="408" x2="712.134" y2="408"/>
		<line class="st5" x1="785.556" y1="548" x2="713.115" y2="548"/>
		<line class="st5" x1="776.968" y1="571" x2="712.67" y2="571"/>
		<line class="st5" x1="792.635" y1="379" x2="711.978" y2="379"/>
		<line class="st5" x1="799.174" y1="437.712" x2="711.733" y2="437.712"/>
		<line class="st5" x1="800.174" y1="466.712" x2="712.733" y2="466.712"/>
		<line class="st5" x1="799.863" y1="494.712" x2="712.426" y2="494.712"/>
		<line class="st5" x1="793.635" y1="522" x2="712.426" y2="522"/>
		<g class="st8">
			<path class="st7" d="M487,533.666c0,0,11.334,11.668,30,0"/>
		</g>
	</g>
	<text transform="matrix(1 0 0 1 459.9832 701.8977)" class="st6 st4 st11">3X</text>
</g>
<polygon id="themo" class="st3" points="499.435,276.997 499.435,566.446 288.98,566.446 "/>
<polygon id="themo_1_" class="st3" points="499.435,276.997 499.435,566.446 709.89,566.446 "/>
</svg>
