<?xml version="1.0" encoding="utf-8"?>
<!-- Generator: Adobe Illustrator 16.0.0, SVG Export Plug-In . SVG Version: 6.00 Build 0)  -->
<!DOCTYPE svg PUBLIC "-//W3C//DTD SVG 1.1//EN" "http://www.w3.org/Graphics/SVG/1.1/DTD/svg11.dtd">
<svg version="1.1" id="truck" xmlns="http://www.w3.org/2000/svg" xmlns:xlink="http://www.w3.org/1999/xlink" x="0px" y="0px"
	 viewBox="0 0 1000 2858.417" enable-background="new 0 0 1000 2858.417" xml:space="preserve">
<path fill="#FFFFFF" stroke="#000000" stroke-width="9" stroke-miterlimit="10" d="M184.182,2662.68v-93.895v-78.246
	c0,0,0-60.361,82.717-49.184l225.796,1.258v220.066H184.182z"/>
<path fill="#FFFFFF" stroke="#000000" stroke-width="9" stroke-miterlimit="10" d="M508.933,2554.297c0,0,1.693-15.254,16.948,0
	v118.645h-16.948V2554.297z"/>
<path fill="#FFFFFF" stroke="#000000" stroke-width="9" stroke-miterlimit="10" d="M753.88,2554.297c0,0-1.693-15.254-16.948,0
	v118.645h16.948V2554.297z"/>
<ellipse fill="#FFFFFF" stroke="#000000" stroke-width="6" stroke-miterlimit="10" cx="681.737" cy="2756.4" rx="61.669" ry="57.627"/>
<ellipse fill="#FFFFFF" stroke="#000000" stroke-width="6" stroke-miterlimit="10" cx="385.712" cy="2756.4" rx="62.61" ry="57.627"/>
<path display="none" fill="#FFFFFF" stroke="#000000" stroke-width="5" stroke-miterlimit="10" d="M763.88,2435.942
	c0,0,33.019-4.066,41.493,9.831v49.491h-58.441c0,0,7.086-29.49-9.609-49.491c0,0-57.373-57.966-125.17,0
	c0,0-22.034,22.287,0,47.711l-150.847,1.78c0,0-0.067-39.66-16.983-49.491s-55.898-56.271-125.39,0c0,0-27.085,41.355-8.475,49.491
	h-62.712c0,0-11.865-97.576,10.169-82.322l497.491-1.619L763.88,2435.942z"/>
<path fill="none" stroke="#000000" stroke-width="6" stroke-miterlimit="10" d="M304.052,2770.4
	c0-45.643,37.001-82.644,82.644-82.644s82.644,37.001,82.644,82.644"/>
<path fill="none" stroke="#000000" stroke-width="6" stroke-miterlimit="10" d="M763.339,2770.4
	c0-45.643-37.001-82.644-82.644-82.644s-82.644,37.001-82.644,82.644"/>
<line fill="none" stroke="#000000" stroke-width="6" stroke-miterlimit="10" x1="509.933" y1="2673.756" x2="746.406" y2="2673.756"/>
<line fill="none" stroke="#000000" stroke-width="6" stroke-miterlimit="10" x1="469.339" y1="2772.417" x2="598.052" y2="2772.417"/>
<path fill="none" stroke="#000000" stroke-width="7" stroke-miterlimit="10" d="M254.052,2772.721h-56.137h-11.864
	c0,0-13.56-106.779,11.864-106.779"/>
<path fill="none" stroke="#000000" stroke-width="6" stroke-miterlimit="10" d="M753.88,2672.942"/>
<polyline fill="none" stroke="#000000" stroke-width="6" stroke-miterlimit="10" points="763.339,2779.721 795.373,2779.721 
	795.373,2673.756 763.339,2673.756 "/>
<polygon fill="#FFFFFF" stroke="#000000" stroke-width="9" stroke-miterlimit="10" points="423.392,2440.73 423.392,2344.599 
	448.52,2331.409 448.52,2440.73 "/>
<g id="rocket">
	<path fill="none" stroke="#010101" stroke-width="6" stroke-miterlimit="10" d="M629.907,2479.741
		c0,0-79.741,107.715-29.731,139.348H630.1"/>
	<path fill="none" stroke="#010101" stroke-width="6" stroke-miterlimit="10" d="M628.342,2479.741
		c0,0,79.738,107.715,29.726,139.348h-29.918"/>
	<g id="Layer_3_1_">
		<circle fill="none" stroke="#010101" stroke-width="6" stroke-miterlimit="10" cx="629.006" cy="2568.222" r="19.475"/>
		<polyline fill="none" stroke="#010101" stroke-width="6" stroke-miterlimit="10" points="620.149,2620.798 608.741,2635.33 
			629.083,2635.33 		"/>
		<polyline fill="none" stroke="#010101" stroke-width="6" stroke-miterlimit="10" points="638.149,2620.798 649.557,2635.33 
			629.215,2635.33 		"/>
		
			<line fill="none" stroke="#010101" stroke-width="6" stroke-miterlimit="10" x1="609.529" y1="2643.02" x2="609.529" y2="2660.12"/>
		
			<line fill="none" stroke="#010101" stroke-width="6" stroke-miterlimit="10" x1="629.907" y1="2651.574" x2="629.907" y2="2684.916"/>
		
			<line fill="none" stroke="#010101" stroke-width="6" stroke-miterlimit="10" x1="649.707" y1="2643.02" x2="649.707" y2="2660.12"/>
	</g>
</g>
<line fill="none" stroke="#000000" stroke-width="6" stroke-miterlimit="10" x1="525.881" y1="2587.697" x2="743.406" y2="2587.697"/>
<line fill="none" stroke="#000000" stroke-width="6" stroke-miterlimit="10" x1="525.881" y1="2633.697" x2="743.406" y2="2633.697"/>
<circle fill="none" stroke="#000000" stroke-width="6" stroke-miterlimit="10" cx="385.712" cy="2756.4" r="30"/>
<circle fill="none" stroke="#000000" stroke-width="6" stroke-miterlimit="10" cx="681.712" cy="2755.4" r="30"/>
<path display="none" fill="#FFFFFF" stroke="#000000" stroke-width="6" stroke-miterlimit="10" d="M213.356,2292.518v-59.322
	c0,0,13.56-28.814,32.204-22.034l45.763-0.033v81.389H213.356z"/>
<path fill="none" stroke="#000000" stroke-width="7" stroke-miterlimit="10" d="M407.303,2316.385c0,0-60.097-28.542-19.563-73.528"
	/>
<line fill="none" stroke="#000000" stroke-width="7" stroke-miterlimit="10" x1="0" y1="2814.027" x2="1058.085" y2="2814.027"/>
</svg>
