<?xml version="1.0" encoding="utf-8"?>
<!-- Generator: Adobe Illustrator 16.0.0, SVG Export Plug-In . SVG Version: 6.00 Build 0)  -->
<!DOCTYPE svg PUBLIC "-//W3C//DTD SVG 1.1//EN" "http://www.w3.org/Graphics/SVG/1.1/DTD/svg11.dtd">
<svg version="1.1" id="truck" xmlns="http://www.w3.org/2000/svg" xmlns:xlink="http://www.w3.org/1999/xlink" x="0px" y="0px"
	viewBox="0 0 1000 2858.417" enable-background="new 0 0 1000 2858.417" xml:space="preserve">
<script  id="script4044" xlink:href="https://cdnjs.cloudflare.com/ajax/libs/snap.svg/0.4.1/snap.svg.js"></script>

<path fill="none" stroke="#000000" stroke-width="9" stroke-miterlimit="10" d="M201.809,2706.07v-93.895v-78.246
	c0,0,0-60.361,82.717-49.184l225.797,1.258v220.066H201.809z"/>
<path fill="#FFFFFF" stroke="#000000" stroke-width="9" stroke-miterlimit="10" d="M526.56,2597.687c0,0,1.693-15.254,16.948,0
	v118.645H526.56V2597.687z"/>
<path fill="#FFFFFF" stroke="#000000" stroke-width="9" stroke-miterlimit="10" d="M771.507,2597.687c0,0-1.693-15.254-16.948,0
	v118.645h16.948V2597.687z"/>
<ellipse fill="none" stroke="#000000" stroke-width="6" stroke-miterlimit="10" cx="699.364" cy="2799.79" rx="61.669" ry="57.627"/>
<ellipse fill="none" stroke="#000000" stroke-width="6" stroke-miterlimit="10" cx="403.339" cy="2799.79" rx="62.61" ry="57.627"/>
<path display="none" fill="#FFFFFF" stroke="#000000" stroke-width="5" stroke-miterlimit="10" d="M763.88,2435.942
	c0,0,33.019-4.066,41.493,9.831v49.491h-58.441c0,0,7.086-29.49-9.609-49.491c0,0-57.373-57.966-125.17,0
	c0,0-22.034,22.287,0,47.711l-150.847,1.78c0,0-0.067-39.66-16.983-49.491s-55.898-56.271-125.39,0c0,0-27.085,41.355-8.475,49.491
	h-62.712c0,0-11.865-97.576,10.169-82.322l497.491-1.619L763.88,2435.942z"/>
<path fill="none" stroke="#000000" stroke-width="6" stroke-miterlimit="10" d="M321.679,2813.79
	c0-45.643,37.001-82.644,82.644-82.644s82.644,37.001,82.644,82.644"/>
<path fill="none" stroke="#000000" stroke-width="6" stroke-miterlimit="10" d="M780.966,2813.79
	c0-45.643-37.001-82.644-82.644-82.644s-82.644,37.001-82.644,82.644"/>
<line fill="none" stroke="#000000" stroke-width="6" stroke-miterlimit="10" x1="527.56" y1="2717.146" x2="764.033" y2="2717.146"/>
<line fill="none" stroke="#000000" stroke-width="6" stroke-miterlimit="10" x1="486.966" y1="2815.806" x2="615.679" y2="2815.806"/>
<path fill="none" stroke="#000000" stroke-width="7" stroke-miterlimit="10" d="M271.679,2816.111h-56.137h-11.864
	c0,0-13.56-106.779,11.864-106.779"/>
<path fill="none" stroke="#000000" stroke-width="6" stroke-miterlimit="10" d="M771.507,2716.332"/>
<polyline fill="none" stroke="#000000" stroke-width="6" stroke-miterlimit="10" points="780.966,2823.111 813,2823.111 
	813,2717.146 780.966,2717.146 "/>
<polygon fill="#FFFFFF" stroke="#000000" stroke-width="9" stroke-miterlimit="10" points="441.02,2484.12 441.02,2387.989 
	466.146,2374.798 466.146,2484.12 "/>
<g id="rocket">
	<path fill="none" stroke="#010101" stroke-width="6" stroke-miterlimit="10" d="M647.781,2459.859
		c0,0-104.826,141.6-39.084,183.183h39.337"/>
	<path fill="none" stroke="#010101" stroke-width="6" stroke-miterlimit="10" d="M645.723,2459.859
		c0,0,104.822,141.6,39.077,183.183h-39.329"/>
	<g id="Layer_3_1_">
		<circle fill="none" stroke="#010101" stroke-width="6" stroke-miterlimit="10" cx="646.596" cy="2576.173" r="25.602"/>
		<polyline fill="none" stroke="#010101" stroke-width="6" stroke-miterlimit="10" points="634.953,2645.29 619.957,2664.392 
			646.697,2664.392 		"/>
		<polyline fill="none" stroke="#010101" stroke-width="6" stroke-miterlimit="10" points="658.616,2645.29 673.611,2664.392 
			646.871,2664.392 		"/>
		
			<line fill="none" stroke="#010101" stroke-width="6" stroke-miterlimit="10" x1="620.992" y1="2674.501" x2="620.992" y2="2696.98"/>
		
			<line fill="none" stroke="#010101" stroke-width="6" stroke-miterlimit="10" x1="647.781" y1="2685.747" x2="647.781" y2="2729.577"/>
		
			<line fill="none" stroke="#010101" stroke-width="6" stroke-miterlimit="10" x1="673.81" y1="2674.501" x2="673.81" y2="2696.98"/>
	</g>
</g>
<line fill="none" stroke="#000000" stroke-width="6" stroke-miterlimit="10" x1="543.508" y1="2631.086" x2="761.033" y2="2631.086"/>
<line fill="none" stroke="#000000" stroke-width="6" stroke-miterlimit="10" x1="543.508" y1="2677.086" x2="761.033" y2="2677.086"/>
<circle fill="none" stroke="#000000" stroke-width="6" stroke-miterlimit="10" cx="403.339" cy="2799.79" r="30"/>
<circle fill="none" stroke="#000000" stroke-width="6" stroke-miterlimit="10" cx="699.339" cy="2798.79" r="30"/>
<path display="none" fill="#FFFFFF" stroke="#000000" stroke-width="6" stroke-miterlimit="10" d="M213.356,2292.518v-59.322
	c0,0,13.56-28.814,32.204-22.034l45.763-0.033v81.389H213.356z"/>
<path fill="none" stroke="#000000" stroke-width="7" stroke-miterlimit="10" d="M424.93,2359.774c0,0-60.098-28.542-19.563-73.527"
	/>
<line display="none" fill="none" stroke="#000000" stroke-width="7" stroke-miterlimit="10" x1="0" y1="2814.027" x2="1058.085" y2="2814.027"/>
<script  type="text/javascript" id="script4196">
		<![CDATA[

	var s = Snap("#truck");
	var s2 = Snap("#smoke");
		var s3 = Snap("#smallsmoke");
		var s4 = Snap("#sbubble");
		var s5 = Snap("#sbubble2");
		var s6 = Snap("#sbubble3");
		var s7 = Snap("#sbubble4");
		var s8 = Snap("#sbubble5");
		var s9 = Snap("#sbubble6");
		var s10 = Snap("#sbubble7");

	var animating = false;
	//var matrix = s2.transform().localMatrix;
	console.log(s.attr(""))
	console.log(s)
//console.log(s2)
	//console.log(matrix)
	//console.log(matrix.toTransformString())
	//var tMatrix = matrix.toTransformString()
	/*s.attr({
    fill: "#fc0",
    stroke: "#000",
    strokeWidth: 8, // CamelCase...
    "fill-opacity": 0.5, // or dash-separated names
    width: "*=2" // prefixed values
});*/

var anim1 = function() {
    
	s2.animate({transform:"t293.2798,62.8417, r94.905,0,0"}, 200,anim3)
	
}
var anim3 = function(){
s.animate({ transform: 't-80,0' }, 5000)
//s.scale(2)
s3.animate({opacity: 0}, 500)
console.log("HERE")
setTimeout(function(){
s2.animate({opacity: 0}, 500)
//s4.animate({opacity: 1}, 500)

},500)
setTimeout(function(){

s4.animate({opacity: 1}, 500)

},1200)
setTimeout(function(){

s5.animate({opacity: 1}, 500)

},2300)
setTimeout(function(){

s5.animate({opacity: 0}, 500)

},3300)
setTimeout(function(){

s6.animate({opacity: 1}, 500)

},2900)
setTimeout(function(){

s6.animate({opacity: 0}, 500)

},3800)
setTimeout(function(){

s7.animate({opacity: 1}, 500)

},3900)
setTimeout(function(){

s7.animate({opacity: 0}, 500)

},4800)

setTimeout(function(){

s8.animate({opacity: 1}, 500)

},4800)

setTimeout(function(){

s8.animate({opacity: 0}, 500)

},5500)
setTimeout(function(){
s9.animate({opacity: 1}, 500)

},5500)

setTimeout(function(){

s9.animate({opacity: 0}, 500)

},6000)
setTimeout(function(){
s10.animate({opacity: 1}, 500)

},6500)
setTimeout(function(){

s10.animate({opacity: 0}, 500)

},7300)
setTimeout(function(){

s4.animate({opacity: 0}, 500)

},2500)
console.log("HERE")
}

var anim2 = function() {
    s.animate({ry: 6.268}, 200,function(){
	
	setTimeout(function(){
	anim3()
	},5000)

	})


}

if(animating == false){
anim3()
console.log(s.attr("rx"))
}


;


		
			]]>
	</script>
</svg>
