<?xml version="1.0" encoding="utf-8"?>
<!-- Generator: Adobe Illustrator 16.0.0, SVG Export Plug-In . SVG Version: 6.00 Build 0)  -->
<!DOCTYPE svg PUBLIC "-//W3C//DTD SVG 1.1//EN" "http://www.w3.org/Graphics/SVG/1.1/DTD/svg11.dtd">
<svg version="1.1" xmlns="http://www.w3.org/2000/svg" xmlns:xlink="http://www.w3.org/1999/xlink" x="0px" y="0px" viewBox="0 0 1000 2858.417" enable-background="new 0 0 1000 2858.417" xml:space="preserve">
	 <script  id="script4044" xlink:href="https://cdnjs.cloudflare.com/ajax/libs/snap.svg/0.4.1/snap.svg.js"></script>
<g id="mountains">
	<path fill="#FFFFFF" stroke="#000000" stroke-width="18" stroke-miterlimit="10" d="M281,2253.459l127.782-299.328
		c0,0,63.774-114.093,127.896,0l147.66,299.328H281z"/>
	<path fill="#FFFFFF" stroke="#000000" stroke-width="18" stroke-miterlimit="10" d="M130,2409.459l127.782-299.328
		c0,0,63.774-114.093,127.896,0l147.66,299.328H130z"/>
	<path fill="#FFFFFF" stroke="#000000" stroke-width="18" stroke-miterlimit="10" d="M434.258,2409.459l127.782-299.328
		c0,0,63.774-114.093,127.896,0l147.66,299.328H434.258z"/>
</g>
<g id="Layer_3">
	<g id="bush">
		<path fill="none" stroke="#000000" stroke-width="18" stroke-miterlimit="10" d="M19.771,2706.07c0,0,3-47.553,57.005-41.678
			c0,0,34.833-46.104,64.832-0.503c0,0,44.998-6.236,40.498,42.181H19.771z"/>
		<path fill="none" stroke="#000000" stroke-width="18" stroke-miterlimit="10" d="M791.076,2536.417
			c0,0,6.046-62.032,46.521-40.255c0,0,31.477-84.614,71.974-4.634c0,0,47.996-3.594,41.997,44.889H791.076z"/>
	</g>
	
		<line fill="none" stroke="#000000" stroke-width="11" stroke-miterlimit="10" x1="19.771" y1="2772.467" x2="101.097" y2="2772.467"/>
	
		<line fill="none" stroke="#000000" stroke-width="11" stroke-miterlimit="10" x1="19.771" y1="2772.467" x2="101.097" y2="2772.467"/>
	
		<line fill="none" stroke="#000000" stroke-width="11" stroke-miterlimit="10" x1="19.771" y1="2772.467" x2="101.097" y2="2772.467"/>
	
		<line fill="none" stroke="#000000" stroke-width="11" stroke-miterlimit="10" x1="19.771" y1="2772.467" x2="101.097" y2="2772.467"/>
	
		<line fill="none" stroke="#000000" stroke-width="11" stroke-miterlimit="10" x1="19.771" y1="2772.467" x2="101.097" y2="2772.467"/>
	
		<line fill="none" stroke="#000000" stroke-width="11" stroke-miterlimit="10" x1="19.771" y1="2772.467" x2="101.097" y2="2772.467"/>
	
		<line fill="none" stroke="#000000" stroke-width="11" stroke-miterlimit="10" x1="19.771" y1="2772.467" x2="101.097" y2="2772.467"/>
	
		<line fill="none" stroke="#000000" stroke-width="11" stroke-miterlimit="10" x1="19.771" y1="2772.467" x2="101.097" y2="2772.467"/>
	
		<line fill="none" stroke="#000000" stroke-width="11" stroke-miterlimit="10" x1="19.771" y1="2772.467" x2="101.097" y2="2772.467"/>
	
		<line display="none" fill="none" stroke="#000000" stroke-width="11" stroke-miterlimit="10" x1="243.771" y1="2772.467" x2="325.097" y2="2772.467"/>
	
		<line fill="none" stroke="#000000" stroke-width="11" stroke-miterlimit="10" x1="133.771" y1="2772.467" x2="197.065" y2="2772.467"/>
	
		<line display="none" fill="none" stroke="#000000" stroke-width="11" stroke-miterlimit="10" x1="372.771" y1="2772.467" x2="454.097" y2="2772.467"/>
	
		<line display="none" fill="none" stroke="#000000" stroke-width="11" stroke-miterlimit="10" x1="496.771" y1="2772.467" x2="578.098" y2="2772.467"/>
	
		<line display="none" fill="none" stroke="#000000" stroke-width="11" stroke-miterlimit="10" x1="616.771" y1="2772.467" x2="698.098" y2="2772.467"/>
	<line fill="none" stroke="#000000" stroke-width="11" stroke-miterlimit="10" x1="813" y1="2772.467" x2="823.098" y2="2772.467"/>
	
		<line fill="none" stroke="#000000" stroke-width="11" stroke-miterlimit="10" x1="865.771" y1="2772.467" x2="947.098" y2="2772.467"/>
</g>
<g id="road">
	<line fill="none" stroke="#000000" stroke-width="11" stroke-miterlimit="10" x1="0" y1="2711.459" x2="1000" y2="2711.459"/>
	<line fill="none" stroke="#000000" stroke-width="18" stroke-miterlimit="10" x1="0" y1="2409.459" x2="1000" y2="2409.459"/>
</g>
<g id="truck">
	<path fill="#FFFFFF" stroke="#000000" stroke-width="9" stroke-miterlimit="10" d="M201.809,2706.07v-93.895v-78.246
		c0,0,0-60.361,82.717-49.184l225.797,1.258v220.066H201.809z"/>
	<path fill="#FFFFFF" stroke="#000000" stroke-width="9" stroke-miterlimit="10" d="M526.56,2597.687c0,0,1.693-15.254,16.948,0
		v118.645H526.56V2597.687z"/>
	<path fill="#FFFFFF" stroke="#000000" stroke-width="9" stroke-miterlimit="10" d="M771.507,2597.687c0,0-1.693-15.254-16.948,0
		v118.645h16.948V2597.687z"/>
	
		<ellipse fill="none" stroke="#000000" stroke-width="6" stroke-miterlimit="10" cx="699.364" cy="2799.79" rx="61.669" ry="57.627"/>
	
		<ellipse fill="none" stroke="#000000" stroke-width="6" stroke-miterlimit="10" cx="403.339" cy="2799.79" rx="62.61" ry="57.627"/>
	<path display="none" fill="#FFFFFF" stroke="#000000" stroke-width="5" stroke-miterlimit="10" d="M763.88,2435.942
		c0,0,33.019-4.066,41.493,9.831v49.491h-58.441c0,0,7.086-29.49-9.609-49.491c0,0-57.373-57.966-125.17,0
		c0,0-22.034,22.287,0,47.711l-150.847,1.78c0,0-0.067-39.66-16.983-49.491s-55.898-56.271-125.39,0c0,0-27.085,41.355-8.475,49.491
		h-62.712c0,0-11.865-97.576,10.169-82.322l497.491-1.619L763.88,2435.942z"/>
	<path fill="none" stroke="#000000" stroke-width="6" stroke-miterlimit="10" d="M771.507,2716.332"/>
	<polygon fill="#FFFFFF" stroke="#000000" stroke-width="9" stroke-miterlimit="10" points="441.02,2484.12 441.02,2387.989 
		466.146,2374.798 466.146,2484.12 	"/>
	<g id="rocket">
		<path fill="#FFFFFF" stroke="#010101" stroke-width="6" stroke-miterlimit="10" d="M647.781,2459.859
			c0,0-104.826,141.6-39.084,183.183h39.337"/>
		<path fill="#FFFFFF" stroke="#010101" stroke-width="6" stroke-miterlimit="10" d="M645.723,2459.859
			c0,0,104.822,141.6,39.077,183.183h-39.329"/>
		<g id="Layer_3_1_">
			<circle fill="#FFFFFF" stroke="#010101" stroke-width="6" stroke-miterlimit="10" cx="646.596" cy="2576.173" r="25.602"/>
			<polyline fill="#FFFFFF" stroke="#010101" stroke-width="6" stroke-miterlimit="10" points="634.953,2645.29 619.957,2664.392 
				646.697,2664.392 			"/>
			<polyline fill="#FFFFFF" stroke="#010101" stroke-width="6" stroke-miterlimit="10" points="658.616,2645.29 673.611,2664.392 
				646.871,2664.392 			"/>
			
				<line fill="#FFFFFF" stroke="#010101" stroke-width="6" stroke-miterlimit="10" x1="620.992" y1="2674.501" x2="620.992" y2="2696.98"/>
			
				<line fill="#FFFFFF" stroke="#010101" stroke-width="6" stroke-miterlimit="10" x1="647.781" y1="2685.747" x2="647.781" y2="2729.577"/>
			
				<line fill="#FFFFFF" stroke="#010101" stroke-width="6" stroke-miterlimit="10" x1="673.81" y1="2674.501" x2="673.81" y2="2696.98"/>
		</g>
	</g>
	
		<line fill="none" stroke="#000000" stroke-width="6" stroke-miterlimit="10" x1="543.508" y1="2631.086" x2="761.033" y2="2631.086"/>
	
		<line fill="none" stroke="#000000" stroke-width="6" stroke-miterlimit="10" x1="543.508" y1="2677.086" x2="761.033" y2="2677.086"/>
	<circle fill="none" stroke="#000000" stroke-width="6" stroke-miterlimit="10" cx="403.339" cy="2799.79" r="30"/>
	<circle fill="none" stroke="#000000" stroke-width="6" stroke-miterlimit="10" cx="699.339" cy="2798.79" r="30"/>
	<path display="none" fill="#FFFFFF" stroke="#000000" stroke-width="6" stroke-miterlimit="10" d="M213.356,2292.518v-59.322
		c0,0,13.56-28.814,32.204-22.034l45.763-0.033v81.389H213.356z"/>
	
		<line display="none" fill="none" stroke="#000000" stroke-width="7" stroke-miterlimit="10" x1="0" y1="2814.027" x2="1058.085" y2="2814.027"/>
	<path fill="none" stroke="#000000" stroke-width="6" stroke-miterlimit="10" d="M255.679,2543.417c0,0,12.321-20,23.321-20h61.065
		v70.491h-84.387V2543.417z"/>
	
		<line fill="none" stroke="#000000" stroke-width="6" stroke-miterlimit="10" x1="309.469" y1="2608.775" x2="326.531" y2="2608.775"/>
	
		<rect x="255.679" y="2593.908" fill="none" stroke="#000000" stroke-width="6" stroke-miterlimit="10" width="84.387" height="70.933"/>
	<path fill="none" stroke="#000000" stroke-width="6" stroke-miterlimit="10" d="M202.814,2525.965H218c0,0,9,7.451,7,15.451
		l0.29,70c0,0-7.186,12-11.238,12h-11.238V2525.965z"/>
	<line fill="none" stroke="#000000" stroke-width="6" stroke-miterlimit="10" x1="429" y1="2510.417" x2="478" y2="2510.417"/>
	<line fill="none" stroke="#000000" stroke-width="6" stroke-miterlimit="10" x1="429" y1="2520.417" x2="478" y2="2520.417"/>
	<line fill="none" stroke="#000000" stroke-width="6" stroke-miterlimit="10" x1="429" y1="2531.417" x2="478" y2="2531.417"/>
	
		<line fill="none" stroke="#000000" stroke-width="7" stroke-miterlimit="10" x1="202.814" y1="2536.417" x2="214.052" y2="2562.417"/>
	<g id="sbubble2" opacity="0">
		<path fill="none" stroke="#000000" stroke-width="18" stroke-miterlimit="10" d="M433.467,2328.813c0,0,9-11,18,0"/>
		<path fill="none" stroke="#000000" stroke-width="18" stroke-miterlimit="10" d="M450.844,2328.418c0,0,11.178,8.779,0.357,17.998
			"/>
		<path fill="none" stroke="#000000" stroke-width="18" stroke-miterlimit="10" d="M451.959,2345.758
			c0,0-11.588,12.906-19.115-2.721"/>
		<path fill="none" stroke="#000000" stroke-width="18" stroke-miterlimit="10" d="M433.303,2344.963c0,0-10.57-9.088,1.316-16.369"
			/>
		<path fill="none" stroke="#000000" stroke-width="18" stroke-miterlimit="10" d="M440.133,2344.807c0,0,4.244,5.912,9.334,0"/>
		<path fill="none" stroke="#000000" stroke-width="18" stroke-miterlimit="10" d="M432.133,2331.434c0,0,4.244-5.912,9.334,0"/>
	</g>
	<g id="sbubble3" opacity="0">
		<path fill="none" stroke="#000000" stroke-width="18" stroke-miterlimit="10" d="M606.457,2261.043c0,0,9-11,18,0"/>
		<path fill="none" stroke="#000000" stroke-width="18" stroke-miterlimit="10" d="M623.834,2260.649c0,0,11.176,8.779,0.357,17.998
			"/>
		<path fill="none" stroke="#000000" stroke-width="18" stroke-miterlimit="10" d="M624.947,2277.989
			c0,0-11.588,12.906-19.113-2.721"/>
		<path fill="none" stroke="#000000" stroke-width="18" stroke-miterlimit="10" d="M606.291,2277.194c0,0-10.568-9.088,1.318-16.371
			"/>
		<path fill="none" stroke="#000000" stroke-width="18" stroke-miterlimit="10" d="M613.123,2277.04c0,0,4.242,5.912,9.332,0"/>
		<path fill="none" stroke="#000000" stroke-width="18" stroke-miterlimit="10" d="M605.123,2263.667c0,0,4.242-5.912,9.332,0"/>
	</g>
	<g id="sbubble4" opacity="0">
		<path fill="none" stroke="#000000" stroke-width="18" stroke-miterlimit="10" d="M558.402,2179.402c0,0,9-11,18,0"/>
		<path fill="none" stroke="#000000" stroke-width="18" stroke-miterlimit="10" d="M575.779,2179.009c0,0,11.176,8.779,0.357,17.997
			"/>
		<path fill="none" stroke="#000000" stroke-width="18" stroke-miterlimit="10" d="M576.895,2196.347
			c0,0-11.588,12.906-19.115-2.721"/>
		<path fill="none" stroke="#000000" stroke-width="18" stroke-miterlimit="10" d="M558.236,2195.553c0,0-10.568-9.088,1.318-16.37"
			/>
		<path fill="none" stroke="#000000" stroke-width="18" stroke-miterlimit="10" d="M565.068,2195.397c0,0,4.242,5.912,9.332,0"/>
		<path fill="none" stroke="#000000" stroke-width="18" stroke-miterlimit="10" d="M557.068,2182.024c0,0,4.242-5.912,9.332,0"/>
	</g>
	<g id="sbubble5" opacity="0">
		<path fill="none" stroke="#000000" stroke-width="18" stroke-miterlimit="10" d="M619.93,2088.18c0,0,9-11,18,0"/>
		<path fill="none" stroke="#000000" stroke-width="18" stroke-miterlimit="10" d="M637.307,2087.786c0,0,11.176,8.778,0.357,17.996
			"/>
		<path fill="none" stroke="#000000" stroke-width="18" stroke-miterlimit="10" d="M638.422,2105.125
			c0,0-11.588,12.905-19.115-2.722"/>
		<path fill="none" stroke="#000000" stroke-width="18" stroke-miterlimit="10" d="M619.764,2104.331c0,0-10.568-9.088,1.318-16.37"
			/>
		<path fill="none" stroke="#000000" stroke-width="18" stroke-miterlimit="10" d="M626.596,2104.176c0,0,4.242,5.912,9.332,0"/>
		<path fill="none" stroke="#000000" stroke-width="18" stroke-miterlimit="10" d="M618.596,2090.802c0,0,4.242-5.912,9.332,0"/>
	</g>
	<polyline display="none" fill="none" stroke="#000000" stroke-width="18" stroke-miterlimit="10" points="403.339,2429.459 
		0,2429.459 127.782,2130.132 	"/>
	<path fill="#A7A9AC" stroke="#000000" stroke-width="6" stroke-miterlimit="10" d="M813,2717.146v105.965h-32.034H813V2717.146
		h-32.034h-16.933H527.56l-17.237-7.814h-297.78c-25.424,0-11.864,106.779-11.864,106.779h11.864h56.137l53-2.321
		c0-45.643,37.001-82.644,82.644-82.644s82.644,37.001,82.644,82.644v2.017h128.713v-2.017c0-45.643,37.001-82.644,82.644-82.644
		s82.644,37.001,82.644,82.644"/>
</g>
<script  type="text/javascript" id="script4196">
		<![CDATA[

	var s = Snap("#truck");
	var s2 = Snap("#mountains");
		var s3 = Snap("#bush");
		down= function(){
		
		}
		setInterval(function(){
s.animate({ transform:'t0,-20'},300,function(){
s.animate({ transform:'t0,0'},300)
})
		},600)

		setInterval(function(){
				s2.attr({transform: 'translate(900, 0)'})
				
		s3.attr({transform: 'translate(-900, 0)'})
s2.animate({ transform: 't-1300,0'},20000)
s3.animate({ transform: 't1300,0'},10000)
		},20000)
		s2.attr({transform: 'translate(900, 0)'})
		s3.attr({transform: 'translate(-900, 0)'})
s2.animate({ transform: 't-1300,0'},20000)
s3.animate({ transform: 't1300,0'},10000)

			
			]]>
	</script>
</svg>
