<?xml version="1.0" encoding="utf-8"?>
<!-- Generator: Adobe Illustrator 16.0.0, SVG Export Plug-In . SVG Version: 6.00 Build 0)  -->
<!DOCTYPE svg PUBLIC "-//W3C//DTD SVG 1.1//EN" "http://www.w3.org/Graphics/SVG/1.1/DTD/svg11.dtd">
<svg version="1.1" id="Layer_1" xmlns="http://www.w3.org/2000/svg" xmlns:xlink="http://www.w3.org/1999/xlink" x="0px" y="0px"
	 width="1000px" height="1000px" viewBox="0 0 1000 1000" style="enable-background:new 0 0 1000 1000;" xml:space="preserve">
<style type="text/css">
<![CDATA[
	.st0{display:none;fill:#FFFFFF;stroke:#000000;stroke-width:8;stroke-miterlimit:10;}
	.st1{fill:#DEDDDD;stroke:#000000;stroke-width:5;stroke-miterlimit:10;}
	.st2{fill:none;stroke:#000000;stroke-width:8;stroke-miterlimit:10;}
	.st3{fill:#FFFFFF;stroke:#000000;stroke-width:5;stroke-miterlimit:10;}
	.st4{display:none;fill:#FFFFFF;stroke:#000000;stroke-width:5;stroke-miterlimit:10;}
	.st5{fill:#FFFFFF;stroke:#000000;stroke-width:8;stroke-miterlimit:10;}
]]>
</style>
<line class="st5" x1="186.286" y1="218" x2="186.286" y2="771.443"/>
<path class="st2" d="M620.676,197.567"/>
<path class="st2" d="M577.584,169.883c0,0,21.511,0.549,35.44,15.717"/>
<line class="st5" x1="672.285" y1="229" x2="672.285" y2="754"/>
<path class="st5" d="M187.35,212.894c0,0,5.644-42.069,61.676-39.932"/>
<path class="st5" d="M223.771,231.6c0,0,5.644-42.069,61.676-39.932"/>
<line class="st5" x1="219.286" y1="239" x2="219.286" y2="764"/>
<path class="st5" d="M220.286,780.443c0,0,10.714,41.072,66.071,32.143"/>
<path class="st5" d="M186.286,789.443c0,0,10.714,41.072,66.071,32.143"/>
<line class="st0" x1="282.789" y1="198.444" x2="627.432" y2="198.444"/>
<path class="st5" d="M622.817,188.848c0,0,37.876-3.134,49.359,40.783"/>
<line class="st2" x1="615.777" y1="188.942" x2="623" y2="188.883"/>
<line class="st2" x1="285.447" y1="191.668" x2="615.777" y2="188.942"/>
<line class="st2" x1="248.447" y1="172.668" x2="578" y2="169.883"/>
<line class="st2" x1="269.537" y1="250.417" x2="625.148" y2="247.583"/>
<line class="st2" x1="627.276" y1="739.978" x2="273.661" y2="743.978"/>
<line class="st2" x1="272.88" y1="251.503" x2="277.119" y2="744.085"/>
<line class="st2" x1="620.584" y1="245.503" x2="623" y2="736.497"/>
<ellipse class="st2" cx="457.671" cy="778.928" rx="26.329" ry="24.929"/>
<line class="st2" x1="639.276" y1="811.978" x2="285.661" y2="815.978"/>
<path class="st4" d="M335.745,311.866c0,0,47.893,44.703,70.976,2.522"/>
<line class="st3" x1="340" y1="312.866" x2="296.447" y2="366"/>
<ellipse transform="matrix(0.8497 -0.5272 0.5272 0.8497 -154.8041 219.8994)" class="st1" cx="308.335" cy="381.5" rx="10.888" ry="18.5"/>
<line class="st3" x1="318.089" y1="397.22" x2="331" y2="419"/>
<path class="st0" d="M320.224,408.11C320.224,408.11,257,514,346,529"/>
<path class="st0" d="M335.745,381.5c0,0,10.255,32.979,58.255,16.74"/>
<path class="st4" d="M346,424c0,0,7.467,22,25.233,15"/>
<path class="st4" d="M363.873,443c0,0,22.127,25,29.127,14s24,11,30-38l7.343-21.265"/>
<path class="st4" d="M407.224,312.866c0,0,46.119,29.134,44.448,38.134"/>
</svg>
