<?xml version="1.0" encoding="utf-8"?>
<!-- Generator: Adobe Illustrator 16.0.0, SVG Export Plug-In . SVG Version: 6.00 Build 0)  -->
<!DOCTYPE svg PUBLIC "-//W3C//DTD SVG 1.1//EN" "http://www.w3.org/Graphics/SVG/1.1/DTD/svg11.dtd">
<svg version="1.1" id="Layer_1" xmlns="http://www.w3.org/2000/svg" xmlns:xlink="http://www.w3.org/1999/xlink" x="0px" y="0px"
	 width="1000px" height="1000px" viewBox="0 0 1000 1000" enable-background="new 0 0 1000 1000" xml:space="preserve">
<g id="mobile">
	<path fill="none" stroke="#010101" stroke-width="4" stroke-miterlimit="10" d="M920,669c0,6.627-5.373,12-12,12H707
		c-6.627,0-12-5.373-12-12V333c0-6.627,5.373-12,12-12h201c6.627,0,12,5.373,12,12V669z"/>
	<line fill="none" stroke="#010101" stroke-width="4" stroke-miterlimit="10" x1="713" y1="374" x2="893" y2="374"/>
	<circle fill="none" stroke="#010101" stroke-width="4" stroke-miterlimit="10" cx="803" cy="347" r="18"/>
	<line fill="none" stroke="#010101" stroke-width="4" stroke-miterlimit="10" x1="714" y1="644" x2="894" y2="644"/>
	<polyline fill="none" stroke="#010101" stroke-width="4" stroke-miterlimit="10" points="759,410 759,482 867,482 	"/>
	<polyline fill="none" stroke="#010101" stroke-width="4" stroke-miterlimit="10" points="759,536 759,608 867,608 	"/>
	<g>
		<path fill="#010101" d="M777.22,383.153v9.441H776v-9.441H777.22z"/>
		<path fill="#010101" d="M779.347,392.595v-9.441h1.332l3.024,4.776c0.699,1.106,1.246,2.101,1.694,3.068l0.028-0.015
			c-0.112-1.261-0.142-2.408-0.142-3.88v-3.95h1.148v9.441H785.2l-2.997-4.791c-0.658-1.051-1.289-2.129-1.765-3.152l-0.043,0.015
			c0.07,1.189,0.099,2.325,0.099,3.894v4.034L779.347,392.595L779.347,392.595z"/>
		<path fill="#010101" d="M795.155,392.287c-0.448,0.224-1.345,0.447-2.493,0.447c-2.661,0-4.664-1.681-4.664-4.776
			c0-2.956,2.003-4.958,4.931-4.958c1.177,0,1.92,0.252,2.242,0.42l-0.295,0.994c-0.462-0.225-1.121-0.393-1.904-0.393
			c-2.214,0-3.686,1.415-3.686,3.895c0,2.312,1.331,3.796,3.628,3.796c0.742,0,1.5-0.154,1.989-0.394L795.155,392.287z"/>
		<path fill="#010101" d="M804.452,387.776c0,3.25-1.976,4.974-4.384,4.974c-2.494,0-4.244-1.934-4.244-4.791
			c0-2.998,1.862-4.958,4.385-4.958C802.785,383,804.452,384.975,804.452,387.776z M797.128,387.931
			c0,2.017,1.092,3.824,3.011,3.824c1.933,0,3.025-1.779,3.025-3.922c0-1.877-0.979-3.838-3.012-3.838
			C798.136,383.995,797.128,385.856,797.128,387.931z"/>
		<path fill="#010101" d="M813.986,388.448c-0.07-1.315-0.154-2.898-0.141-4.075h-0.041c-0.322,1.106-0.715,2.282-1.191,3.586
			l-1.666,4.581h-0.926l-1.526-4.496c-0.447-1.331-0.825-2.55-1.093-3.67h-0.027c-0.027,1.177-0.099,2.76-0.183,4.174l-0.252,4.048
			h-1.163l0.658-9.441h1.556l1.61,4.566c0.393,1.163,0.715,2.199,0.953,3.18h0.041c0.238-0.953,0.575-1.988,0.995-3.18l1.681-4.566
			h1.555l0.59,9.441h-1.19L813.986,388.448z"/>
		<path fill="#010101" d="M818.505,383.153v9.441h-1.22v-9.441H818.505z"/>
		<path fill="#010101" d="M820.632,392.595v-9.441h1.331l3.025,4.776c0.699,1.106,1.246,2.101,1.694,3.068l0.028-0.015
			c-0.112-1.261-0.142-2.408-0.142-3.88v-3.95h1.148v9.441h-1.232l-2.997-4.791c-0.659-1.051-1.289-2.129-1.765-3.152l-0.043,0.015
			c0.069,1.189,0.099,2.325,0.099,3.894v4.034L820.632,392.595L820.632,392.595z"/>
		<path fill="#010101" d="M837.029,392.175c-0.547,0.196-1.625,0.519-2.898,0.519c-1.43,0-2.605-0.363-3.53-1.247
			c-0.813-0.784-1.316-2.045-1.316-3.516c0.015-2.815,1.947-4.875,5.113-4.875c1.092,0,1.946,0.238,2.353,0.434l-0.293,0.995
			c-0.505-0.224-1.136-0.405-2.089-0.405c-2.297,0-3.795,1.429-3.795,3.796c0,2.396,1.442,3.81,3.643,3.81
			c0.798,0,1.345-0.112,1.625-0.252v-2.814h-1.919v-0.98h3.108L837.029,392.175L837.029,392.175z"/>
	</g>
	<g>
		<path fill="#010101" d="M784.353,531.026c0,3.25-1.976,4.974-4.385,4.974c-2.493,0-4.244-1.934-4.244-4.791
			c0-2.998,1.862-4.958,4.385-4.958C782.685,526.25,784.353,528.226,784.353,531.026z M777.025,531.181
			c0,2.017,1.092,3.824,3.012,3.824c1.934,0,3.025-1.779,3.025-3.923c0-1.877-0.979-3.838-3.012-3.838
			C778.033,527.244,777.025,529.107,777.025,531.181z"/>
		<path fill="#010101" d="M787.147,526.404v5.589c0,2.115,0.938,3.013,2.199,3.013c1.4,0,2.298-0.926,2.298-3.013v-5.589h1.231
			v5.505c0,2.899-1.526,4.091-3.571,4.091c-1.935,0-3.391-1.107-3.391-4.034v-5.562H787.147z"/>
		<path fill="#010101" d="M796.779,527.44h-2.871v-1.037h6.989v1.037h-2.886v8.404h-1.232V527.44L796.779,527.44z"/>
		<path fill="#010101" d="M808.753,535.425c-0.547,0.195-1.625,0.519-2.898,0.519c-1.43,0-2.604-0.364-3.531-1.247
			c-0.813-0.785-1.315-2.045-1.315-3.516c0.014-2.815,1.946-4.875,5.112-4.875c1.093,0,1.947,0.238,2.354,0.434l-0.295,0.995
			c-0.504-0.224-1.135-0.406-2.087-0.406c-2.297,0-3.796,1.43-3.796,3.797c0,2.396,1.442,3.81,3.643,3.81
			c0.798,0,1.344-0.112,1.625-0.252v-2.815h-1.92v-0.979h3.109L808.753,535.425L808.753,535.425z"/>
		<path fill="#010101" d="M818.68,531.026c0,3.25-1.977,4.974-4.384,4.974c-2.494,0-4.244-1.934-4.244-4.791
			c0-2.998,1.861-4.958,4.384-4.958C817.013,526.25,818.68,528.226,818.68,531.026z M811.354,531.181
			c0,2.017,1.092,3.824,3.012,3.824c1.933,0,3.025-1.779,3.025-3.923c0-1.877-0.98-3.838-3.012-3.838
			C812.361,527.244,811.354,529.107,811.354,531.181z"/>
		<path fill="#010101" d="M821.476,526.404v9.441h-1.219v-9.441H821.476z"/>
		<path fill="#010101" d="M823.604,535.846v-9.441h1.331l3.024,4.776c0.7,1.105,1.246,2.101,1.695,3.067l0.027-0.014
			c-0.111-1.261-0.141-2.409-0.141-3.88v-3.95h1.148v9.441h-1.232l-2.996-4.791c-0.659-1.051-1.289-2.129-1.767-3.152l-0.042,0.014
			c0.069,1.19,0.1,2.325,0.1,3.895v4.034L823.604,535.846L823.604,535.846z"/>
		<path fill="#010101" d="M840,535.425c-0.547,0.195-1.625,0.519-2.898,0.519c-1.429,0-2.605-0.364-3.53-1.247
			c-0.813-0.785-1.315-2.045-1.315-3.516c0.014-2.815,1.946-4.875,5.112-4.875c1.093,0,1.946,0.238,2.354,0.434l-0.294,0.995
			c-0.504-0.224-1.135-0.406-2.088-0.406c-2.297,0-3.795,1.43-3.795,3.797c0,2.396,1.441,3.81,3.642,3.81
			c0.798,0,1.345-0.112,1.624-0.252v-2.815h-1.918v-0.979H840V535.425z"/>
	</g>
	<line fill="none" stroke="#010101" stroke-width="4" stroke-miterlimit="10" x1="875" y1="339" x2="902" y2="339"/>
	<line fill="none" stroke="#010101" stroke-width="4" stroke-miterlimit="10" x1="875" y1="347" x2="902" y2="347"/>
	<line fill="none" stroke="#010101" stroke-width="4" stroke-miterlimit="10" x1="875" y1="356" x2="902" y2="356"/>
</g>
<circle fill="#FFFFFF" stroke="#000000" stroke-width="7" stroke-miterlimit="10" cx="326.678" cy="477.39" r="94.577"/>
<g id="Head">
	<circle fill="#FFFFFF" stroke="#000000" stroke-width="8" stroke-miterlimit="10" cx="249.949" cy="312" r="123.729"/>
	<circle fill="#FFFFFF" stroke="#000000" stroke-width="7" stroke-miterlimit="10" cx="210.966" cy="331.204" r="25.423"/>
	<path fill="#FFFFFF" stroke="#000000" stroke-miterlimit="10" d="M178.746,259.584"/>
	<path fill="#FFFFFF" stroke="#000000" stroke-width="8" stroke-miterlimit="10" d="M258.746,188.584
		c-39.419,38.16-52.906,93.592-29.293,137.804c22.17,41.512,70.749,61.344,120.997,54.061"/>
	<path fill="#FFFFFF" stroke="#000000" stroke-width="7" stroke-miterlimit="10" d="M281.678,207.254
		c0,0,50.848,18.275,55.933,71.002"/>
	<path fill="#FFFFFF" stroke="#000000" stroke-width="7" stroke-miterlimit="10" d="M337.61,285.256c0,0,0.475,10.355-8,20.524"/>
</g>
<path fill="none" stroke="#000000" stroke-width="7" stroke-miterlimit="10" d="M312.797,532.289
	c-83.111-35.026-178.882,3.955-213.908,87.068c-28.02,66.489,3.166,143.105,69.654,171.125
	c53.192,22.417,114.484-2.531,136.901-55.723c17.933-42.554-2.025-91.588-44.579-109.521c-34.042-14.346-73.271,1.621-87.618,35.663
	c-11.477,27.235,1.297,58.617,28.531,70.094c21.787,9.183,46.893-1.036,56.075-22.824c7.346-17.43-0.83-37.515-18.26-44.859
	c-13.944-5.877-30.011,0.664-35.888,14.607c-4.702,11.155,0.531,24.009,11.686,28.71"/>
<path fill="#FFFFFF" stroke="#000000" stroke-width="7" stroke-miterlimit="10" d="M238.339,679.374
	c4.333,5.015,11.911,5.567,16.925,1.234l79.308-68.528c5.015-4.333,5.567-11.911,1.234-16.926L132.747,360.155
	c-4.333-5.015-11.911-5.567-16.925-1.234l-79.308,68.528c-5.015,4.333-5.567,11.911-1.234,16.926L238.339,679.374z"/>
<g display="none">
	<path display="inline" fill="#FFFFFF" d="M361.475,720.848L485.203,608C485.203,608,319.102,561.525,361.475,720.848z"/>
	<path display="inline" fill="none" stroke="#000000" stroke-width="7" stroke-miterlimit="10" d="M361.475,720.848L485.203,608
		C485.203,608,319.102,561.525,361.475,720.848z"/>
</g>
<g>
	<g>
		<path fill="#FFFFFF" d="M464.787,586.093c-2.665,4.811-0.909,10.928,3.902,13.593l2.233,1.237
			c4.811,2.665,10.928,0.909,13.593-3.902l7.773-14.032c2.665-4.812,2.626-9.978-0.087-11.48c-2.713-1.502-2.752-6.668-0.087-11.479
			l0.207-0.372c2.666-4.811,7.065-7.518,9.777-6.015c2.713,1.502,7.112-1.205,9.777-6.016l7.773-14.032
			c2.665-4.811,2.627-9.977-0.086-11.479c-2.712-1.502-2.966-6.278-0.564-10.613c2.401-4.336,6.586-6.653,9.298-5.15
			s7.112-1.204,9.777-6.015l3.698-6.674c2.665-4.811,2.626-9.977-0.087-11.479c-2.713-1.503-3.34-5.607-1.393-9.122
			s5.76-5.16,8.472-3.658c2.713,1.502,7.113-1.205,9.778-6.016l5.766-10.406c2.665-4.811,0.909-10.928-3.901-13.593l-2.234-1.237
			c-4.811-2.665-10.928-0.909-13.593,3.902L464.787,586.093z"/>
		<path fill="none" stroke="#000000" stroke-width="7" stroke-miterlimit="10" d="M464.787,586.093
			c-2.665,4.811-0.909,10.928,3.902,13.593l2.233,1.237c4.811,2.665,10.928,0.909,13.593-3.902l7.773-14.032
			c2.665-4.812,2.626-9.978-0.087-11.48c-2.713-1.502-2.752-6.668-0.087-11.479l0.207-0.372c2.666-4.811,7.065-7.518,9.777-6.015
			c2.713,1.502,7.112-1.205,9.777-6.016l7.773-14.032c2.665-4.811,2.627-9.977-0.086-11.479c-2.712-1.502-2.966-6.278-0.564-10.613
			c2.401-4.336,6.586-6.653,9.298-5.15s7.112-1.204,9.777-6.015l3.698-6.674c2.665-4.811,2.626-9.977-0.087-11.479
			c-2.713-1.503-3.34-5.607-1.393-9.122s5.76-5.16,8.472-3.658c2.713,1.502,7.113-1.205,9.778-6.016l5.766-10.406
			c2.665-4.811,0.909-10.928-3.901-13.593l-2.234-1.237c-4.811-2.665-10.928-0.909-13.593,3.902L464.787,586.093z"/>
	</g>
	<g>
		<path fill="#FFFFFF" d="M532.852,453.591c2.662-4.813,0.903-10.929-3.909-13.591l-21.002-11.618
			c-4.813-2.663-10.929-0.903-13.591,3.91l-24.961,45.121c-2.663,4.813-8.778,6.572-13.591,3.91l-7-3.873
			c-4.813-2.663-10.928-0.903-13.591,3.91l-35.017,63.299c-2.663,4.813-0.903,10.929,3.909,13.591l45.502,25.172
			c4.813,2.662,10.928,0.903,13.591-3.909L532.852,453.591z"/>
		<path fill="none" stroke="#000000" stroke-width="7" stroke-miterlimit="10" d="M532.852,453.591
			c2.662-4.813,0.903-10.929-3.909-13.591l-21.002-11.618c-4.813-2.663-10.929-0.903-13.591,3.91l-24.961,45.121
			c-2.663,4.813-8.778,6.572-13.591,3.91l-7-3.873c-4.813-2.663-10.928-0.903-13.591,3.91l-35.017,63.299
			c-2.663,4.813-0.903,10.929,3.909,13.591l45.502,25.172c4.813,2.662,10.928,0.903,13.591-3.909L532.852,453.591z"/>
	</g>
</g>
<g>
	<path fill="#FFFFFF" d="M366.494,653.746c-4.786,2.71-6.485,8.843-3.775,13.629l1.257,2.222c2.71,4.786,8.843,6.485,13.629,3.775
		l13.96-7.903c4.786-2.71,7.452-7.135,5.923-9.833c-1.528-2.698,1.138-7.123,5.924-9.832l0.369-0.21
		c4.787-2.709,9.953-2.719,11.48-0.021c1.528,2.698,6.694,2.688,11.48-0.021l13.959-7.901c4.786-2.71,7.452-7.135,5.924-9.833
		c-1.528-2.697,0.751-6.903,5.064-9.345s9.092-2.231,10.619,0.468c1.527,2.698,6.693,2.689,11.479-0.021l6.641-3.759
		c4.786-2.71,7.452-7.135,5.925-9.834c-1.528-2.698,0.082-6.525,3.578-8.504c3.496-1.979,7.606-1.391,9.135,1.307
		c1.527,2.698,6.693,2.689,11.479-0.02l10.354-5.861c4.786-2.709,6.485-8.842,3.775-13.628l-1.258-2.223
		c-2.71-4.786-8.843-6.485-13.629-3.775L366.494,653.746z"/>
	<path fill="none" stroke="#000000" stroke-width="7" stroke-miterlimit="10" d="M366.494,653.746
		c-4.786,2.71-6.485,8.843-3.775,13.629l1.257,2.222c2.71,4.786,8.843,6.485,13.629,3.775l13.96-7.903
		c4.786-2.71,7.452-7.135,5.923-9.833c-1.528-2.698,1.138-7.123,5.924-9.832l0.369-0.21c4.787-2.709,9.953-2.719,11.48-0.021
		c1.528,2.698,6.694,2.688,11.48-0.021l13.959-7.901c4.786-2.71,7.452-7.135,5.924-9.833c-1.528-2.697,0.751-6.903,5.064-9.345
		s9.092-2.231,10.619,0.468c1.527,2.698,6.693,2.689,11.479-0.021l6.641-3.759c4.786-2.71,7.452-7.135,5.925-9.834
		c-1.528-2.698,0.082-6.525,3.578-8.504c3.496-1.979,7.606-1.391,9.135,1.307c1.527,2.698,6.693,2.689,11.479-0.02l10.354-5.861
		c4.786-2.709,6.485-8.842,3.775-13.628l-1.258-2.223c-2.71-4.786-8.843-6.485-13.629-3.775L366.494,653.746z"/>
</g>
<g>
	<path fill="#FFFFFF" d="M493.76,576.333c4.784-2.713,6.48-8.847,3.768-13.631l-11.836-20.879c-2.712-4.784-8.846-6.48-13.63-3.768
		l-44.859,25.43c-4.785,2.713-10.918,1.017-13.631-3.768l-3.945-6.96c-2.712-4.784-8.846-6.479-13.631-3.768l-62.93,35.675
		c-4.785,2.713-6.48,8.847-3.768,13.631l25.644,45.237c2.712,4.784,8.846,6.479,13.631,3.768L493.76,576.333z"/>
	<path fill="none" stroke="#000000" stroke-width="7" stroke-miterlimit="10" d="M493.76,576.333
		c4.784-2.713,6.48-8.847,3.768-13.631l-11.836-20.879c-2.712-4.784-8.846-6.48-13.63-3.768l-44.859,25.43
		c-4.785,2.713-10.918,1.017-13.631-3.768l-3.945-6.96c-2.712-4.784-8.846-6.479-13.631-3.768l-62.93,35.675
		c-4.785,2.713-6.48,8.847-3.768,13.631l25.644,45.237c2.712,4.784,8.846,6.479,13.631,3.768L493.76,576.333z"/>
</g>
<circle fill="none" stroke="#000000" stroke-width="7" stroke-miterlimit="10" cx="404" cy="370.627" r="36.123"/>
<circle fill="none" stroke="#000000" stroke-width="7" stroke-miterlimit="10" cx="334" cy="469.627" r="36.123"/>
</svg>
