<?xml version="1.0" encoding="utf-8"?>
<!-- Generator: Adobe Illustrator 16.0.0, SVG Export Plug-In . SVG Version: 6.00 Build 0)  -->
<!DOCTYPE svg PUBLIC "-//W3C//DTD SVG 1.1//EN" "http://www.w3.org/Graphics/SVG/1.1/DTD/svg11.dtd">
<svg version="1.1" id="Layer_1" xmlns="http://www.w3.org/2000/svg" xmlns:xlink="http://www.w3.org/1999/xlink" x="0px" y="0px"
	 viewBox="0 0 1000 1000" enable-background="new 0 0 1000 1000" xml:space="preserve">
<g id="mobile" display="none">
	<path display="inline" fill="none" stroke="#010101" stroke-width="4" stroke-miterlimit="10" d="M920,669c0,6.627-5.373,12-12,12
		H707c-6.627,0-12-5.373-12-12V333c0-6.627,5.373-12,12-12h201c6.627,0,12,5.373,12,12V669z"/>
	
		<line display="inline" fill="none" stroke="#010101" stroke-width="4" stroke-miterlimit="10" x1="713" y1="374" x2="893" y2="374"/>
	<circle display="inline" fill="none" stroke="#010101" stroke-width="4" stroke-miterlimit="10" cx="803" cy="347" r="18"/>
	
		<line display="inline" fill="none" stroke="#010101" stroke-width="4" stroke-miterlimit="10" x1="714" y1="644" x2="894" y2="644"/>
	<polyline display="inline" fill="none" stroke="#010101" stroke-width="4" stroke-miterlimit="10" points="759,410 759,482 
		867,482 	"/>
	<polyline display="inline" fill="none" stroke="#010101" stroke-width="4" stroke-miterlimit="10" points="759,536 759,608 
		867,608 	"/>
	<g display="inline">
		<path fill="#010101" d="M777.22,383.153v9.441H776v-9.441H777.22z"/>
		<path fill="#010101" d="M779.347,392.595v-9.441h1.332l3.024,4.776c0.699,1.106,1.246,2.101,1.694,3.068l0.028-0.015
			c-0.112-1.261-0.142-2.408-0.142-3.88v-3.95h1.148v9.441H785.2l-2.997-4.791c-0.658-1.051-1.289-2.129-1.765-3.152l-0.043,0.015
			c0.07,1.189,0.099,2.325,0.099,3.894v4.034L779.347,392.595L779.347,392.595z"/>
		<path fill="#010101" d="M795.155,392.287c-0.448,0.224-1.345,0.447-2.493,0.447c-2.661,0-4.664-1.681-4.664-4.776
			c0-2.956,2.003-4.958,4.931-4.958c1.177,0,1.92,0.252,2.242,0.42l-0.295,0.994c-0.462-0.225-1.121-0.393-1.904-0.393
			c-2.214,0-3.686,1.415-3.686,3.895c0,2.312,1.331,3.796,3.628,3.796c0.742,0,1.5-0.154,1.989-0.394L795.155,392.287z"/>
		<path fill="#010101" d="M804.452,387.776c0,3.25-1.976,4.974-4.384,4.974c-2.494,0-4.244-1.934-4.244-4.791
			c0-2.998,1.862-4.958,4.385-4.958C802.785,383,804.452,384.975,804.452,387.776z M797.128,387.931
			c0,2.017,1.092,3.824,3.011,3.824c1.933,0,3.025-1.779,3.025-3.922c0-1.877-0.979-3.838-3.012-3.838
			C798.136,383.995,797.128,385.856,797.128,387.931z"/>
		<path fill="#010101" d="M813.986,388.448c-0.07-1.315-0.154-2.898-0.141-4.075h-0.041c-0.322,1.106-0.715,2.282-1.191,3.586
			l-1.666,4.581h-0.926l-1.526-4.496c-0.447-1.331-0.825-2.55-1.093-3.67h-0.027c-0.027,1.177-0.099,2.76-0.183,4.174l-0.252,4.048
			h-1.163l0.658-9.441h1.556l1.61,4.566c0.393,1.163,0.715,2.199,0.953,3.18h0.041c0.238-0.953,0.575-1.988,0.995-3.18l1.681-4.566
			h1.555l0.59,9.441h-1.19L813.986,388.448z"/>
		<path fill="#010101" d="M818.505,383.153v9.441h-1.22v-9.441H818.505z"/>
		<path fill="#010101" d="M820.632,392.595v-9.441h1.331l3.025,4.776c0.699,1.106,1.246,2.101,1.694,3.068l0.028-0.015
			c-0.112-1.261-0.142-2.408-0.142-3.88v-3.95h1.148v9.441h-1.232l-2.997-4.791c-0.659-1.051-1.289-2.129-1.765-3.152l-0.043,0.015
			c0.069,1.189,0.099,2.325,0.099,3.894v4.034L820.632,392.595L820.632,392.595z"/>
		<path fill="#010101" d="M837.029,392.175c-0.547,0.196-1.625,0.519-2.898,0.519c-1.43,0-2.605-0.363-3.53-1.247
			c-0.813-0.784-1.316-2.045-1.316-3.516c0.015-2.815,1.947-4.875,5.113-4.875c1.092,0,1.946,0.238,2.353,0.434l-0.293,0.995
			c-0.505-0.224-1.136-0.405-2.089-0.405c-2.297,0-3.795,1.429-3.795,3.796c0,2.396,1.442,3.81,3.643,3.81
			c0.798,0,1.345-0.112,1.625-0.252v-2.814h-1.919v-0.98h3.108L837.029,392.175L837.029,392.175z"/>
	</g>
	<g display="inline">
		<path fill="#010101" d="M784.353,531.026c0,3.25-1.976,4.974-4.385,4.974c-2.493,0-4.244-1.934-4.244-4.791
			c0-2.998,1.862-4.958,4.385-4.958C782.685,526.25,784.353,528.226,784.353,531.026z M777.025,531.181
			c0,2.017,1.092,3.824,3.012,3.824c1.934,0,3.025-1.779,3.025-3.923c0-1.877-0.979-3.838-3.012-3.838
			C778.033,527.244,777.025,529.107,777.025,531.181z"/>
		<path fill="#010101" d="M787.147,526.404v5.589c0,2.115,0.938,3.013,2.199,3.013c1.4,0,2.298-0.926,2.298-3.013v-5.589h1.231
			v5.505c0,2.899-1.526,4.091-3.571,4.091c-1.935,0-3.391-1.107-3.391-4.034v-5.562H787.147z"/>
		<path fill="#010101" d="M796.779,527.44h-2.871v-1.037h6.989v1.037h-2.886v8.404h-1.232V527.44L796.779,527.44z"/>
		<path fill="#010101" d="M808.753,535.425c-0.547,0.195-1.625,0.519-2.898,0.519c-1.43,0-2.604-0.364-3.531-1.247
			c-0.813-0.785-1.315-2.045-1.315-3.516c0.014-2.815,1.946-4.875,5.112-4.875c1.093,0,1.947,0.238,2.354,0.434l-0.295,0.995
			c-0.504-0.224-1.135-0.406-2.087-0.406c-2.297,0-3.796,1.43-3.796,3.797c0,2.396,1.442,3.81,3.643,3.81
			c0.798,0,1.344-0.112,1.625-0.252v-2.815h-1.92v-0.979h3.109L808.753,535.425L808.753,535.425z"/>
		<path fill="#010101" d="M818.68,531.026c0,3.25-1.977,4.974-4.384,4.974c-2.494,0-4.244-1.934-4.244-4.791
			c0-2.998,1.861-4.958,4.384-4.958C817.013,526.25,818.68,528.226,818.68,531.026z M811.354,531.181
			c0,2.017,1.092,3.824,3.012,3.824c1.933,0,3.025-1.779,3.025-3.923c0-1.877-0.98-3.838-3.012-3.838
			C812.361,527.244,811.354,529.107,811.354,531.181z"/>
		<path fill="#010101" d="M821.476,526.404v9.441h-1.219v-9.441H821.476z"/>
		<path fill="#010101" d="M823.604,535.846v-9.441h1.331l3.024,4.776c0.7,1.105,1.246,2.101,1.695,3.067l0.027-0.014
			c-0.111-1.261-0.141-2.409-0.141-3.88v-3.95h1.148v9.441h-1.232l-2.996-4.791c-0.659-1.051-1.289-2.129-1.767-3.152l-0.042,0.014
			c0.069,1.19,0.1,2.325,0.1,3.895v4.034L823.604,535.846L823.604,535.846z"/>
		<path fill="#010101" d="M840,535.425c-0.547,0.195-1.625,0.519-2.898,0.519c-1.429,0-2.605-0.364-3.53-1.247
			c-0.813-0.785-1.315-2.045-1.315-3.516c0.014-2.815,1.946-4.875,5.112-4.875c1.093,0,1.946,0.238,2.354,0.434l-0.294,0.995
			c-0.504-0.224-1.135-0.406-2.088-0.406c-2.297,0-3.795,1.43-3.795,3.797c0,2.396,1.441,3.81,3.642,3.81
			c0.798,0,1.345-0.112,1.624-0.252v-2.815h-1.918v-0.979H840V535.425z"/>
	</g>
	
		<line display="inline" fill="none" stroke="#010101" stroke-width="4" stroke-miterlimit="10" x1="875" y1="339" x2="902" y2="339"/>
	
		<line display="inline" fill="none" stroke="#010101" stroke-width="4" stroke-miterlimit="10" x1="875" y1="347" x2="902" y2="347"/>
	
		<line display="inline" fill="none" stroke="#010101" stroke-width="4" stroke-miterlimit="10" x1="875" y1="356" x2="902" y2="356"/>
</g>
<g id="Sun">
	<path fill="none" stroke="#010101" stroke-width="9" stroke-miterlimit="10" d="M-70.136,664.38c0,0,544.81-234.781,1204,0"/>
	<g>
		<path fill="none" stroke="#010101" stroke-width="9" stroke-miterlimit="10" d="M7.121,467.728c0,0-86.287,70.233,0,66.219
			c0,0,66.684,11.793,0,52.174"/>
		<path fill="none" stroke="#010101" stroke-width="9" stroke-miterlimit="10" d="M126.026,483.775c0,0-56.673,41.67,0,39.287
			c0,0,43.8,6.998,0,30.956"/>
	</g>
	<g>
		<path fill="none" stroke="#010101" stroke-width="9" stroke-miterlimit="10" d="M236.079,422.576c0,0-86.287,70.235,0,66.222
			c0,0,66.682,11.793,0,52.173"/>
		<path fill="none" stroke="#010101" stroke-width="9" stroke-miterlimit="10" d="M354.983,438.625c0,0-56.674,41.667,0,39.287
			c0,0,43.8,6.996,0,30.952"/>
	</g>
	<g>
		<path fill="none" stroke="#010101" stroke-width="9" stroke-miterlimit="10" d="M760.61,435.096c0,0-103.204,41.558-19.592,63.257
			c0,0,60.207,30.998-15.44,49.835"/>
		<path fill="none" stroke="#010101" stroke-width="9" stroke-miterlimit="10" d="M869.44,485.609c0,0-66.465,23.031-11.622,37.527
			c0,0,39.765,19.643-9.159,29.566"/>
	</g>
	<g>
		<path fill="none" stroke="#010101" stroke-width="9" stroke-miterlimit="10" d="M986.987,465.127
			c0,0-106.602,31.844-25.355,61.175c0,0,57.086,36.426-19.975,48.198"/>
		<path fill="none" stroke="#010101" stroke-width="9" stroke-miterlimit="10" d="M1090.686,525.482
			c0,0-68.309,16.792-15.042,36.292c0,0,37.783,23.235-11.852,28.596"/>
	</g>
</g>
<circle fill="#FFFFFF" stroke="#000000" stroke-width="7" stroke-miterlimit="10" cx="331.039" cy="490.501" r="94.577"/>
<g id="Head">
	<circle fill="#FFFFFF" stroke="#000000" stroke-width="8" stroke-miterlimit="10" cx="335.146" cy="308.226" r="123.729"/>
	<circle fill="#FFFFFF" stroke="#000000" stroke-width="7" stroke-miterlimit="10" cx="291.689" cy="308.262" r="25.423"/>
	<path fill="#FFFFFF" stroke="#000000" stroke-miterlimit="10" d="M294.371,229.774"/>
	<path fill="#FFFFFF" stroke="#000000" stroke-width="8" stroke-miterlimit="10" d="M397.488,201.351
		c-52.211,16.855-88.769,60.651-87.083,110.745c1.583,47.035,36.428,86.264,84.735,101.896"/>
	<path fill="#FFFFFF" stroke="#000000" stroke-width="7" stroke-miterlimit="10" d="M409.83,228.223c0,0,37.57,38.833,18.872,88.394
		"/>
	<path fill="#FFFFFF" stroke="#000000" stroke-width="7" stroke-miterlimit="10" d="M425.613,322.899c0,0-4.143,9.502-16.234,14.889
		"/>
</g>
<path display="none" fill="none" stroke="#000000" stroke-width="7" stroke-miterlimit="10" d="M294.362,533.646
	c-59.134-68.1-162.278-75.368-230.378-16.233C9.504,564.72,3.69,647.235,50.998,701.713
	c37.846,43.586,103.857,48.236,147.442,10.391c34.866-30.277,38.588-83.087,8.312-117.954c-24.222-27.893-66.47-30.87-94.364-6.649
	c-22.315,19.378-24.696,53.177-5.319,75.491c15.501,17.852,42.54,19.759,60.392,4.255c14.283-12.4,15.806-34.031,3.404-48.313
	c-9.92-11.425-27.225-12.644-38.65-2.723c-9.141,7.937-10.116,21.78-2.179,30.92"/>
<path fill="#FFFFFF" stroke="#000000" stroke-width="7" stroke-miterlimit="10" d="M162.651,632.794
	c1.676,6.412,8.233,10.251,14.645,8.575l101.406-26.511c6.412-1.677,10.25-8.233,8.574-14.646l-78.555-300.477
	c-1.676-6.413-8.233-10.251-14.645-8.575L92.671,317.672c-6.413,1.676-10.251,8.233-8.575,14.645L162.651,632.794z"/>
<g display="none">
	<path display="inline" fill="#FFFFFF" d="M361.475,720.848L485.203,608C485.203,608,319.102,561.525,361.475,720.848z"/>
	<path display="inline" fill="none" stroke="#000000" stroke-width="7" stroke-miterlimit="10" d="M361.475,720.848L485.203,608
		C485.203,608,319.102,561.525,361.475,720.848z"/>
</g>
<g>
	<g>
		<path fill="#FFFFFF" d="M407.024,648.982c-4.515,3.143-5.638,9.406-2.496,13.921l1.458,2.096c3.142,4.515,9.406,5.638,13.92,2.495
			l13.167-9.164c4.514-3.143,6.758-7.796,4.986-10.341s0.472-7.198,4.987-10.34l0.349-0.242c4.515-3.142,9.658-3.63,11.429-1.085
			c1.771,2.546,6.914,2.058,11.428-1.084l13.166-9.164c4.515-3.142,6.759-7.794,4.988-10.34c-1.771-2.545,0.108-6.943,4.176-9.774
			c4.068-2.831,8.846-3.064,10.617-0.52s6.914,2.058,11.428-1.084l6.263-4.359c4.515-3.142,6.759-7.795,4.987-10.34
			c-1.772-2.545-0.523-6.505,2.773-8.8c3.298-2.295,7.445-2.09,9.217,0.455c1.772,2.545,6.915,2.057,11.43-1.085l9.765-6.796
			c4.515-3.142,5.638-9.405,2.495-13.92l-1.458-2.096c-3.143-4.515-9.406-5.638-13.921-2.496L407.024,648.982z"/>
		<path fill="none" stroke="#000000" stroke-width="7" stroke-miterlimit="10" d="M407.024,648.982
			c-4.515,3.143-5.638,9.406-2.496,13.921l1.458,2.096c3.142,4.515,9.406,5.638,13.92,2.495l13.167-9.164
			c4.514-3.143,6.758-7.796,4.986-10.341s0.472-7.198,4.987-10.34l0.349-0.242c4.515-3.142,9.658-3.63,11.429-1.085
			c1.771,2.546,6.914,2.058,11.428-1.084l13.166-9.164c4.515-3.142,6.759-7.794,4.988-10.34c-1.771-2.545,0.108-6.943,4.176-9.774
			c4.068-2.831,8.846-3.064,10.617-0.52s6.914,2.058,11.428-1.084l6.263-4.359c4.515-3.142,6.759-7.795,4.987-10.34
			c-1.772-2.545-0.523-6.505,2.773-8.8c3.298-2.295,7.445-2.09,9.217,0.455c1.772,2.545,6.915,2.057,11.43-1.085l9.765-6.796
			c4.515-3.142,5.638-9.405,2.495-13.92l-1.458-2.096c-3.143-4.515-9.406-5.638-13.921-2.496L407.024,648.982z"/>
	</g>
	<g>
		<path fill="#FFFFFF" d="M526.563,560.101c4.513-3.145,5.633-9.409,2.488-13.921l-13.723-19.692
			c-3.145-4.512-9.409-5.632-13.921-2.487l-42.307,29.481c-4.513,3.144-10.777,2.024-13.921-2.488l-4.574-6.563
			c-3.144-4.513-9.409-5.633-13.921-2.488l-59.35,41.358c-4.513,3.144-5.632,9.409-2.487,13.921l29.729,42.664
			c3.145,4.512,9.409,5.632,13.922,2.487L526.563,560.101z"/>
		<path fill="none" stroke="#000000" stroke-width="7" stroke-miterlimit="10" d="M526.563,560.101
			c4.513-3.145,5.633-9.409,2.488-13.921l-13.723-19.692c-3.145-4.512-9.409-5.632-13.921-2.487l-42.307,29.481
			c-4.513,3.144-10.777,2.024-13.921-2.488l-4.574-6.563c-3.144-4.513-9.409-5.633-13.921-2.488l-59.35,41.358
			c-4.513,3.144-5.632,9.409-2.487,13.921l29.729,42.664c3.145,4.512,9.409,5.632,13.922,2.487L526.563,560.101z"/>
	</g>
</g>
<g>
	<path fill="#FFFFFF" d="M288.967,666.333c-5.491,0.32-9.721,5.074-9.401,10.565l0.148,2.549c0.32,5.491,5.074,9.722,10.565,9.401
		l16.015-0.935c5.491-0.32,9.835-3.115,9.654-6.211c-0.181-3.096,4.163-5.891,9.654-6.21l0.424-0.025
		c5.491-0.319,10.131,1.951,10.312,5.046c0.18,3.095,4.82,5.365,10.311,5.046l16.014-0.934c5.491-0.319,9.835-3.113,9.654-6.209
		s3.72-5.864,8.667-6.153c4.948-0.288,9.144,2.009,9.324,5.104s4.82,5.367,10.311,5.047l7.618-0.444
		c5.491-0.32,9.835-3.115,9.655-6.211s2.953-5.82,6.964-6.053c4.01-0.234,7.439,2.107,7.62,5.203
		c0.181,3.095,4.821,5.365,10.312,5.045l11.876-0.691c5.491-0.32,9.721-5.074,9.401-10.565l-0.148-2.548
		c-0.32-5.491-5.074-9.722-10.565-9.401L288.967,666.333z"/>
	<path fill="none" stroke="#000000" stroke-width="7" stroke-miterlimit="10" d="M288.967,666.333
		c-5.491,0.32-9.721,5.074-9.401,10.565l0.148,2.549c0.32,5.491,5.074,9.722,10.565,9.401l16.015-0.935
		c5.491-0.32,9.835-3.115,9.654-6.211c-0.181-3.096,4.163-5.891,9.654-6.21l0.424-0.025c5.491-0.319,10.131,1.951,10.312,5.046
		c0.18,3.095,4.82,5.365,10.311,5.046l16.014-0.934c5.491-0.319,9.835-3.113,9.654-6.209s3.72-5.864,8.667-6.153
		c4.948-0.288,9.144,2.009,9.324,5.104s4.82,5.367,10.311,5.047l7.618-0.444c5.491-0.32,9.835-3.115,9.655-6.211
		s2.953-5.82,6.964-6.053c4.01-0.234,7.439,2.107,7.62,5.203c0.181,3.095,4.821,5.365,10.312,5.045l11.876-0.691
		c5.491-0.32,9.721-5.074,9.401-10.565l-0.148-2.548c-0.32-5.491-5.074-9.722-10.565-9.401L288.967,666.333z"/>
</g>
<g>
	<path fill="#FFFFFF" d="M437.331,653.007c5.491-0.323,9.718-5.08,9.395-10.57l-1.411-23.959c-0.323-5.49-5.08-9.718-10.571-9.395
		l-51.475,3.031c-5.491,0.323-10.248-3.904-10.571-9.395l-0.471-7.986c-0.323-5.49-5.08-9.718-10.571-9.395l-72.212,4.251
		c-5.491,0.323-9.718,5.08-9.395,10.57l3.056,51.911c0.323,5.49,5.08,9.718,10.571,9.395L437.331,653.007z"/>
	<path fill="none" stroke="#000000" stroke-width="7" stroke-miterlimit="10" d="M437.331,653.007
		c5.491-0.323,9.718-5.08,9.395-10.57l-1.411-23.959c-0.323-5.49-5.08-9.718-10.571-9.395l-51.475,3.031
		c-5.491,0.323-10.248-3.904-10.571-9.395l-0.471-7.986c-0.323-5.49-5.08-9.718-10.571-9.395l-72.212,4.251
		c-5.491,0.323-9.718,5.08-9.395,10.57l3.056,51.911c0.323,5.49,5.08,9.718,10.571,9.395L437.331,653.007z"/>
</g>
<circle fill="#FFFFFF" stroke="#000000" stroke-width="7" stroke-miterlimit="10" cx="447.53" cy="428.802" r="36.123"/>
<circle fill="none" stroke="#000000" stroke-width="7" stroke-miterlimit="10" cx="341.034" cy="486.765" r="36.123"/>
<path fill="#FFFFFF" stroke="#000000" stroke-width="7" stroke-miterlimit="10" d="M135.221,433.305"/>
<line fill="#FFFFFF" stroke="#000000" stroke-width="7" stroke-miterlimit="10" x1="92.704" y1="314.671" x2="63.613" y2="279.42"/>
<circle fill="#FFFFFF" stroke="#000000" stroke-width="7" stroke-miterlimit="10" cx="63.613" cy="279.42" r="19.387"/>
</svg>
