<?xml version="1.0" encoding="utf-8"?>
<!-- Generator: Adobe Illustrator 16.0.0, SVG Export Plug-In . SVG Version: 6.00 Build 0)  -->
<!DOCTYPE svg PUBLIC "-//W3C//DTD SVG 1.1//EN" "http://www.w3.org/Graphics/SVG/1.1/DTD/svg11.dtd">
<svg version="1.1" id="Layer_2" xmlns="http://www.w3.org/2000/svg" xmlns:xlink="http://www.w3.org/1999/xlink" x="0px" y="0px"
	 viewBox="0 0 1000 1000" style="enable-background:new 0 0 1000 1000;" xml:space="preserve">
<circle style="opacity:0.3;fill:#FCB1B1;stroke:#000000;stroke-miterlimit:10;enable-background:new    ;" cx="500" cy="453.711" r="302.542"/>
<circle style="display:none;opacity:0.3;stroke:#000000;stroke-miterlimit:10;enable-background:new    ;" cx="500" cy="456.711" r="302.542"/>
<g id="Layer_x5F_1" style="display:none;">
	<path style="display:inline;fill:#FFFFFF;stroke:#000000;stroke-width:4;stroke-miterlimit:10;" d="M444.525,594.475
		c0,6.627-5.373,12-12,12H331.102c-6.627,0-12-5.373-12-12V348.983c0-6.627,5.373-12,12-12h101.424c6.627,0,12,5.373,12,12
		L444.525,594.475L444.525,594.475z"/>
	<path style="display:inline;fill:#FFFFFF;stroke:#000000;stroke-width:4;stroke-miterlimit:10;" d="M656.459,594.475
		c0,6.627-5.371,12-12,12H543.034c-6.627,0-12-5.373-12-12V348.983c0-6.627,5.373-12,12-12h101.425c6.629,0,12,5.373,12,12V594.475z
		"/>
	<path style="display:inline;fill:#FFFFFF;stroke:#000000;stroke-width:4;stroke-miterlimit:10;" d="M569.949,515.729
		c0,6.627-5.373,12-12,12H456.525c-6.627,0-12-5.373-12-12V270.237c0-6.627,5.373-12,12-12h101.424c6.627,0,12,5.373,12,12V515.729z
		"/>
	<path style="display:inline;fill:#FFFFFF;stroke:#000000;stroke-width:5;stroke-miterlimit:10;" d="M723.729,521.116
		c0,13.261-10.744,24-24,24H300.271c-13.255,0-24-10.739-24-24V318.272c0-13.254,10.745-24,24-24h399.457c13.256,0,24,10.746,24,24
		L723.729,521.116L723.729,521.116z"/>
	<path style="display:inline;fill:#FFFFFF;stroke:#000000;stroke-width:3;stroke-miterlimit:10;" d="M686.173,483.659
		c0,13.261-10.744,24-24,24H333.898c-13.255,0-24-10.739-24-24V350.308c0-13.254,10.745-24,24-24h328.272c13.256,0,24,10.746,24,24
		L686.173,483.659L686.173,483.659z"/>
	<path id="vecmap" style="display:inline;fill:none;stroke:#000000;stroke-width:9;stroke-miterlimit:10;" d="M348.052,427.712
		c0,31.853,20.468,57.628,45.763,57.628"/>
	<path id="vecmap_1_" style="display:inline;fill:none;stroke:#000000;stroke-width:4;stroke-miterlimit:10;" d="M584.477,549.116
		c0,44.972,39.42,81.355,88.135,81.355"/>
	<path id="vecmap_2_" style="display:inline;fill:none;stroke:#000000;stroke-width:4;stroke-miterlimit:10;" d="M412.609,545.116
		c0,44.972-39.42,81.355-88.135,81.355"/>
	<g style="display:inline;">
		
			<line id="vecmap_3_" style="fill:none;stroke:#000000;stroke-width:3;stroke-miterlimit:10;" x1="317.407" y1="356.645" x2="678.427" y2="356.645"/>
	</g>
	<g style="display:inline;">
		
			<line id="vecmap_4_" style="fill:none;stroke:#000000;stroke-width:3;stroke-miterlimit:10;" x1="368.543" y1="365.119" x2="368.543" y2="497.322"/>
	</g>
	<g style="display:inline;">
		
			<line id="vecmap_5_" style="fill:none;stroke:#000000;stroke-width:3;stroke-miterlimit:10;" x1="637.715" y1="365.119" x2="637.715" y2="497.322"/>
	</g>
	<g style="display:inline;">
		
			<rect id="vecmaprec" x="317.407" y="385.323" style="fill:#FFFFFF;stroke:#000000;stroke-width:3;stroke-miterlimit:10;" width="355.205" height="80"/>
	</g>
	<g style="display:inline;">
		
			<line style="fill:none;stroke:#000000;stroke-width:3;stroke-miterlimit:10;" x1="317.407" y1="465.323" x2="672.611" y2="465.323"/>
	</g>
</g>
<text transform="matrix(1 0 0 1 461.9832 703.8977)" style="display:none;enable-background:new    ; font-family:'MyriadPro-Regular'; font-size:72;">3X</text>
<g id="Layer_3">
	<g id="Layer_x5F_1_1_">
		<path style="display:none;fill:#FFFFFF;stroke:#000000;stroke-width:4;stroke-miterlimit:10;" d="M459.097,561.844
			c0,5.479-4.443,9.927-9.923,9.927h-83.869c-5.48,0-9.924-4.445-9.924-9.927V358.84c0-5.479,4.439-9.922,9.924-9.922h83.87
			c5.479,0,9.923,4.441,9.923,9.922L459.097,561.844L459.097,561.844z"/>
		<path style="display:none;fill:#FFFFFF;stroke:#000000;stroke-width:4;stroke-miterlimit:10;" d="M634.35,561.844
			c0,5.479-4.441,9.927-9.922,9.927h-83.871c-5.482,0-9.924-4.445-9.924-9.927V358.84c0-5.479,4.438-9.922,9.924-9.922h83.871
			c5.479,0,9.922,4.441,9.922,9.922V561.844L634.35,561.844z"/>
		<path style="display:none;fill:#FFFFFF;stroke:#000000;stroke-width:4;stroke-miterlimit:10;" d="M562.813,496.73
			c0,5.479-4.441,9.924-9.924,9.924h-83.87c-5.48,0-9.923-4.444-9.923-9.924V293.723c0-5.48,4.44-9.924,9.923-9.924h83.87
			c5.479,0,9.924,4.443,9.924,9.924V496.73z"/>
		<path style="fill:#FFFFFF;stroke:#000000;stroke-width:5;stroke-miterlimit:10;" d="M689.979,501.187
			c0,10.963-8.885,19.846-19.846,19.846H339.808c-10.96,0-19.848-8.883-19.848-19.846V333.446c0-10.961,8.887-19.847,19.848-19.847
			h330.324c10.963,0,19.846,8.886,19.846,19.847L689.979,501.187L689.979,501.187z"/>
		<path style="opacity:0.3;fill:#FCFCFC;stroke:#000000;stroke-width:5;stroke-miterlimit:10;" d="M658.923,470.209
			c0,10.965-8.891,19.846-19.852,19.846H367.614c-10.96,0-19.846-8.881-19.846-19.846V359.936c0-10.959,8.886-19.848,19.846-19.848
			h271.46c10.961,0,19.85,8.888,19.85,19.848L658.923,470.209L658.923,470.209z"/>
		<path id="vecmap_11_" style="display:none;fill:none;stroke:#000000;stroke-width:9;stroke-miterlimit:10;" d="M379.318,423.945
			c0,26.34,16.926,47.653,37.844,47.653"/>
		<path id="vecmap_10_" style="fill:none;stroke:#000000;stroke-width:4;stroke-miterlimit:10;" d="M574.827,524.338
			c0,37.188,32.602,67.276,72.885,67.276"/>
		<path id="vecmap_9_" style="fill:none;stroke:#000000;stroke-width:4;stroke-miterlimit:10;" d="M432.703,521.031
			c0,37.187-32.598,67.272-72.881,67.272"/>
		<g style="display:none;">
			
				<line id="vecmap_8_" style="display:inline;fill:none;stroke:#000000;stroke-width:3;stroke-miterlimit:10;" x1="353.979" y1="365.176" x2="652.516" y2="365.176"/>
		</g>
		<g style="display:none;">
			
				<line id="vecmap_7_" style="display:inline;fill:none;stroke:#000000;stroke-width:3;stroke-miterlimit:10;" x1="396.264" y1="372.185" x2="396.264" y2="481.506"/>
		</g>
		<g style="display:none;">
			
				<line id="vecmap_6_" style="display:inline;fill:none;stroke:#000000;stroke-width:3;stroke-miterlimit:10;" x1="618.848" y1="372.185" x2="618.848" y2="481.506"/>
		</g>
		<g style="display:none;">
			
				<rect id="vecmaprec_1_" x="353.979" y="388.891" style="display:inline;fill:#FFFFFF;stroke:#000000;stroke-width:3;stroke-miterlimit:10;" width="293.731" height="66.154"/>
		</g>
		<g style="display:none;">
			
				<line style="display:inline;fill:none;stroke:#000000;stroke-width:3;stroke-miterlimit:10;" x1="353.979" y1="455.045" x2="647.712" y2="455.045"/>
		</g>
	</g>
</g>
<path style="fill:#FFFFFF;stroke:#000000;stroke-miterlimit:10;" d="M620.219,343.602"/>
<path style="display:none;fill:#E4E4EF;stroke:#000000;stroke-width:2;stroke-miterlimit:10;" d="M383.592,609.329
	c0,0,41.716-44.212,15.288,15.768"/>
<path style="display:none;fill:#7F9E3D;stroke:#000000;stroke-width:3;stroke-miterlimit:10;" d="M464.223,276.828
	c0,0-78.911-29.713-127.529,42.813"/>
<g id="Leaf_3_1_" style="display:none;">
	<path style="display:inline;fill:#7F9E3D;stroke:#000000;stroke-width:3;stroke-miterlimit:10;" d="M470.5,276.5c0,0-98,22-99,126"
		/>
	<path style="display:inline;fill:#7F9E3D;stroke:#000000;stroke-width:3;stroke-miterlimit:10;" d="M371.473,402.48
		c100.821-25.536,99.053-125.959,99.053-125.959"/>
	<path style="display:inline;fill:none;stroke:#000000;stroke-width:3;stroke-miterlimit:10;" d="M470.5,276.5
		c0,0-103.912,121.786-97.997,125.829"/>
	<polyline style="display:inline;fill:#CACAEF;stroke:#000000;stroke-miterlimit:10;" points="391.166,395.17 400.166,380.504 
		400.166,391.837 	"/>
	<polyline style="display:inline;fill:#CACAEF;stroke:#000000;stroke-miterlimit:10;" points="414.49,383.839 414.49,369.17 
		417.833,374.837 421.38,365.837 426.523,374.682 	"/>
	<polyline style="display:inline;fill:#CACAEF;stroke:#000000;stroke-miterlimit:10;" points="433.984,369.807 434.638,346.091 
		439.851,363.159 	"/>
	<polyline style="display:inline;fill:#CACAEF;stroke:#000000;stroke-miterlimit:10;" points="447.577,352.719 445.5,344.75 
		451.208,347.93 	"/>
	<polyline style="display:inline;fill:#CACAEF;stroke:#000000;stroke-miterlimit:10;" points="455.527,340.22 449.293,317.328 
		459.22,332.158 	"/>
	<polyline style="display:inline;fill:#CACAEF;stroke:#000000;stroke-miterlimit:10;" points="411.372,307.083 408.569,330.642 
		404.926,313.172 	"/>
	<polyline style="display:inline;fill:#CACAEF;stroke:#000000;stroke-miterlimit:10;" points="387.261,336.962 390.177,360.507 
		382.459,344.416 	"/>
	<polyline style="display:inline;fill:#CACAEF;stroke:#000000;stroke-miterlimit:10;" points="439.556,287.176 438.177,295.293 
		434.279,290.05 	"/>
</g>
<path style="fill:#484FAA;stroke:#FFFFFF;stroke-width:5;stroke-miterlimit:10;" d="M197.474,456.711"/>
</svg>
