<?xml version="1.0" encoding="utf-8"?>
<!-- Generator: Adobe Illustrator 16.0.0, SVG Export Plug-In . SVG Version: 6.00 Build 0)  -->
<!DOCTYPE svg PUBLIC "-//W3C//DTD SVG 1.1//EN" "http://www.w3.org/Graphics/SVG/1.1/DTD/svg11.dtd">
<svg version="1.1" id="Layer_1" xmlns="http://www.w3.org/2000/svg" xmlns:xlink="http://www.w3.org/1999/xlink" x="0px" y="0px"
	 width="1000px" height="1000px" viewBox="0 0 1000 1000" style="enable-background:new 0 0 1000 1000;" xml:space="preserve">
<style type="text/css">
<![CDATA[
	.st0{fill:none;stroke:#FEFEFF;stroke-width:6;stroke-miterlimit:10;}
]]>
</style>
<path class="st0" d="M578.438,70.996c31.926-8.416,64.631,10.644,73.047,42.572c6.733,25.543-8.516,51.706-34.057,58.438
	c-20.434,5.387-41.365-6.813-46.75-27.246c-4.309-16.346,5.448-33.091,21.797-37.4c13.076-3.447,26.473,4.359,29.918,17.437
	c2.76,10.461-3.486,21.179-13.948,23.935c-8.37,2.207-16.944-2.79-19.149-11.159c-1.765-6.696,2.233-13.555,8.93-15.32
	c5.355-1.412,10.843,1.787,12.255,7.143c1.129,4.285-1.431,8.674-5.716,9.804"/>
<line class="st0" x1="318.987" y1="102.892" x2="483.894" y2="102.892"/>
<line class="st0" x1="396.679" y1="77.686" x2="569.809" y2="77.686"/>
<line class="st0" x1="459.965" y1="123.949" x2="536.258" y2="123.949"/>
<line class="st0" x1="516.078" y1="102.892" x2="539.451" y2="102.892"/>
</svg>
