<?xml version="1.0" encoding="utf-8"?>
<!-- Generator: Adobe Illustrator 16.0.0, SVG Export Plug-In . SVG Version: 6.00 Build 0)  -->
<!DOCTYPE svg PUBLIC "-//W3C//DTD SVG 1.1//EN" "http://www.w3.org/Graphics/SVG/1.1/DTD/svg11.dtd">
<svg version="1.1" id="Layer_1" xmlns="http://www.w3.org/2000/svg" xmlns:xlink="http://www.w3.org/1999/xlink" x="0px" y="0px"
	 width="1000px" height="1000px" viewBox="0 0 1000 1000" style="enable-background:new 0 0 1000 1000;" xml:space="preserve">
<style type="text/css">
<![CDATA[
	.st0{fill:none;stroke:#FEFEFF;stroke-width:6;stroke-miterlimit:10;}
]]>
</style>
<path class="st0" d="M420.677,93.737c47.495-12.52,96.148,15.834,108.668,63.331c10.017,37.999-12.668,76.92-50.663,86.936
	c-30.399,8.014-61.537-10.135-69.549-40.531c-6.409-24.317,8.105-49.229,32.426-55.639c19.453-5.128,39.383,6.485,44.509,25.94
	c4.105,15.563-5.188,31.506-20.751,35.606c-12.451,3.283-25.206-4.15-28.487-16.601c-2.625-9.961,3.322-20.165,13.284-22.791
	c7.967-2.101,16.13,2.658,18.23,10.627c1.68,6.374-2.127,12.904-8.502,14.584"/>
<line class="st0" x1="34.708" y1="141.187" x2="280.029" y2="141.187"/>
<line class="st0" x1="150.285" y1="103.688" x2="407.841" y2="103.688"/>
<line class="st0" x1="244.433" y1="172.512" x2="357.93" y2="172.512"/>
<line class="st0" x1="327.909" y1="141.187" x2="362.679" y2="141.187"/>
</svg>
