<?xml version="1.0" encoding="utf-8"?>
<!-- Generator: Adobe Illustrator 16.0.0, SVG Export Plug-In . SVG Version: 6.00 Build 0)  -->
<!DOCTYPE svg PUBLIC "-//W3C//DTD SVG 1.1//EN" "http://www.w3.org/Graphics/SVG/1.1/DTD/svg11.dtd">
<svg version="1.1" id="Layer_2" xmlns="http://www.w3.org/2000/svg" xmlns:xlink="http://www.w3.org/1999/xlink" x="0px" y="0px"
	 width="1000px" height="1000px" viewBox="0 0 1000 1000" style="enable-background:new 0 0 1000 1000;" xml:space="preserve">
<style type="text/css">
<![CDATA[
	.st0{display:none;fill:#FFFFFF;stroke:#000000;stroke-width:4;stroke-miterlimit:10;}
	.st1{fill:#FFFFFF;stroke:#000000;stroke-miterlimit:10;}
	.st2{display:none;opacity:0.3;fill:#7F9E3D;stroke:#000000;stroke-miterlimit:10;enable-background:new    ;}
	.st3{fill:#484FAA;stroke:#FFFFFF;stroke-width:5;stroke-miterlimit:10;}
	.st4{display:inline;fill:none;stroke:#000000;stroke-width:9;stroke-miterlimit:10;}
	.st5{fill:#DDDDDD;stroke:#000000;stroke-width:10;stroke-miterlimit:10;enable-background:new    ;}
	.st6{display:inline;fill:#7F9E3D;stroke:#000000;stroke-width:3;stroke-miterlimit:10;}
	.st7{display:none;fill:none;stroke:#000000;stroke-width:9;stroke-miterlimit:10;}
	.st8{display:inline;fill:none;stroke:#000000;stroke-width:4;stroke-miterlimit:10;}
	.st9{display:inline;fill:#FFFFFF;stroke:#000000;stroke-width:5;stroke-miterlimit:10;}
	.st10{fill:none;stroke:#000000;stroke-width:4;stroke-miterlimit:10;}
	.st11{display:inline;fill:#CACAEF;stroke:#000000;stroke-miterlimit:10;}
	.st12{font-family:'MyriadPro-Regular';}
	.st13{opacity:0.3;fill:#FFFFFF;stroke:#000000;stroke-width:5;stroke-miterlimit:10;enable-background:new    ;}
	.st14{fill:#FFFFFF;stroke:#000000;stroke-width:5;stroke-miterlimit:10;}
	.st15{display:inline;fill:#FFFFFF;}
	.st16{display:inline;fill:none;stroke:#000000;stroke-width:3;stroke-miterlimit:10;}
	.st17{display:none;enable-background:new    ;}
	.st18{display:inline;fill:#FFFFFF;stroke:#000000;stroke-width:4;stroke-miterlimit:10;}
	.st19{fill:none;stroke:#000000;stroke-width:3;stroke-miterlimit:10;}
	.st20{fill:#FFFFFF;}
	.st21{display:inline;}
	.st22{display:none;fill:#7F9E3D;stroke:#000000;stroke-width:3;stroke-miterlimit:10;}
	.st23{display:inline;fill:#FFFFFF;stroke:#000000;stroke-width:3;stroke-miterlimit:10;}
	.st24{display:none;fill:#E4E4EF;stroke:#000000;stroke-width:2;stroke-miterlimit:10;}
	.st25{display:inline;fill:none;stroke:#000000;stroke-width:10;stroke-miterlimit:10;}
	.st26{font-size:72;}
	.st27{display:none;}
	.st28{fill:#FFFFFF;stroke:#000000;stroke-width:3;stroke-miterlimit:10;}
]]>
</style>
<circle class="st2" cx="500" cy="453.711" r="302.542"/>
<circle class="st5" cx="500" cy="456.711" r="302.542"/>
<g id="Layer_x5F_1" class="st27">
	<path class="st18" d="M444.525,594.475c0,6.627-5.373,12-12,12H331.102c-6.627,0-12-5.373-12-12V348.983c0-6.627,5.373-12,12-12
		h101.424c6.627,0,12,5.373,12,12L444.525,594.475L444.525,594.475z"/>
	<path class="st18" d="M656.459,594.475c0,6.627-5.368,12-12,12H543.034c-6.627,0-12-5.373-12-12V348.983c0-6.627,5.373-12,12-12
		h101.425c6.632,0,12,5.373,12,12V594.475z"/>
	<path class="st18" d="M569.949,515.729c0,6.627-5.373,12-12,12H456.525c-6.627,0-12-5.373-12-12V270.237c0-6.627,5.373-12,12-12
		h101.424c6.627,0,12,5.373,12,12V515.729z"/>
	<path class="st9" d="M723.729,521.115c0,13.264-10.744,24-24,24H300.271c-13.255,0-24-10.736-24-24V318.272
		c0-13.254,10.745-24,24-24h399.457c13.256,0,24,10.746,24,24L723.729,521.115L723.729,521.115z"/>
	<path class="st23" d="M686.176,483.656c0,13.264-10.744,24-24,24H333.898c-13.255,0-24-10.736-24-24v-133.35
		c0-13.254,10.745-24,24-24h328.272c13.256,0,24,10.746,24,24L686.176,483.656L686.176,483.656z"/>
	<path id="vecmap" class="st4" d="M348.052,427.712c0,31.853,20.468,57.628,45.763,57.628"/>
	<path id="vecmap_1_" class="st8" d="M584.477,549.115c0,44.975,39.42,81.355,88.135,81.355"/>
	<path id="vecmap_2_" class="st8" d="M412.609,545.115c0,44.975-39.42,81.355-88.135,81.355"/>
	<g class="st21">
		<line id="vecmap_3_" class="st19" x1="317.407" y1="356.645" x2="678.427" y2="356.645"/>
	</g>
	<g class="st21">
		<line id="vecmap_4_" class="st19" x1="368.543" y1="365.119" x2="368.543" y2="497.322"/>
	</g>
	<g class="st21">
		<line id="vecmap_5_" class="st19" x1="637.718" y1="365.119" x2="637.718" y2="497.322"/>
	</g>
	<g class="st21">
		<rect id="vecmaprec" x="317.407" y="385.323" class="st28" width="355.205" height="80"/>
	</g>
	<g class="st21">
		<line class="st19" x1="317.407" y1="465.323" x2="672.611" y2="465.323"/>
	</g>
</g>
<text transform="matrix(1 0 0 1 461.9832 703.8977)" class="st17 st12 st26">3X</text>
<g id="Layer_3" class="st27">
	<g id="Layer_x5F_1_1_" class="st21">
		<path class="st0" d="M459.097,561.844c0,5.479-4.443,9.927-9.923,9.927h-83.869c-5.48,0-9.924-4.445-9.924-9.927V358.84
			c0-5.479,4.438-9.922,9.924-9.922h83.87c5.479,0,9.923,4.438,9.923,9.922L459.097,561.844L459.097,561.844z"/>
		<path class="st0" d="M634.35,561.844c0,5.479-4.441,9.927-9.922,9.927h-83.871c-5.482,0-9.924-4.445-9.924-9.927V358.84
			c0-5.479,4.438-9.922,9.924-9.922h83.871c5.479,0,9.922,4.438,9.922,9.922V561.844L634.35,561.844z"/>
		<path class="st0" d="M562.813,496.73c0,5.479-4.441,9.924-9.924,9.924h-83.87c-5.48,0-9.923-4.441-9.923-9.924V293.723
			c0-5.479,4.438-9.924,9.923-9.924h83.87c5.479,0,9.924,4.44,9.924,9.924V496.73z"/>
		<path class="st14" d="M689.979,501.187c0,10.963-8.885,19.846-19.846,19.846H339.808c-10.96,0-19.848-8.883-19.848-19.846V333.446
			c0-10.961,8.887-19.847,19.848-19.847h330.324c10.963,0,19.846,8.886,19.846,19.847L689.979,501.187L689.979,501.187z"/>
		<path class="st13" d="M658.926,470.209c0,10.965-8.894,19.846-19.854,19.846H367.614c-10.96,0-19.846-8.881-19.846-19.846V359.936
			c0-10.959,8.886-19.848,19.846-19.848h271.46c10.961,0,19.853,8.888,19.853,19.848L658.926,470.209L658.926,470.209z"/>
		<path id="vecmap_11_" class="st7" d="M379.318,423.945c0,26.34,16.926,47.653,37.844,47.653"/>
		<path id="vecmap_10_" class="st10" d="M574.827,524.338c0,37.188,32.604,67.273,72.888,67.273"/>
		<path id="vecmap_9_" class="st10" d="M432.703,521.031c0,37.188-32.598,67.272-72.881,67.272"/>
		<g class="st27">
			<line id="vecmap_8_" class="st16" x1="353.979" y1="365.176" x2="652.516" y2="365.176"/>
		</g>
		<g class="st27">
			<line id="vecmap_7_" class="st16" x1="396.264" y1="372.185" x2="396.264" y2="481.506"/>
		</g>
		<g class="st27">
			<line id="vecmap_6_" class="st16" x1="618.848" y1="372.185" x2="618.848" y2="481.506"/>
		</g>
		<g class="st27">
			<rect id="vecmaprec_1_" x="353.979" y="388.891" class="st23" width="293.731" height="66.154"/>
		</g>
		<g class="st27">
			<line class="st16" x1="353.979" y1="455.045" x2="647.715" y2="455.045"/>
		</g>
	</g>
	<circle class="st15" cx="699.051" cy="611.411" r="103.495"/>
	<line class="st25" x1="638.386" y1="611.406" x2="759.709" y2="611.406"/>
	<line class="st25" x1="699.868" y1="672.071" x2="699.401" y2="550.75"/>
</g>
<path class="st1" d="M620.219,343.602"/>
<path class="st24" d="M383.594,609.326c0,0,41.716-44.212,15.288,15.771"/>
<path class="st22" d="M464.223,276.828c0,0-78.911-29.716-127.529,42.813"/>
<g id="Leaf_3_1_" class="st27">
	<path class="st6" d="M470.5,276.5c0,0-98,22-99,126"/>
	<path class="st6" d="M371.473,402.48c100.821-25.536,99.053-125.959,99.053-125.959"/>
	<path class="st16" d="M470.5,276.5c0,0-103.909,121.786-97.994,125.829"/>
	<polyline class="st11" points="391.166,395.17 400.166,380.504 400.166,391.837 	"/>
	<polyline class="st11" points="414.49,383.839 414.49,369.17 417.834,374.837 421.383,365.837 426.523,374.682 	"/>
	<polyline class="st11" points="433.984,369.807 434.638,346.091 439.851,363.159 	"/>
	<polyline class="st11" points="447.577,352.719 445.5,344.75 451.209,347.93 	"/>
	<polyline class="st11" points="455.527,340.22 449.293,317.328 459.22,332.156 	"/>
	<polyline class="st11" points="411.372,307.083 408.569,330.642 404.927,313.172 	"/>
	<polyline class="st11" points="387.261,336.962 390.177,360.507 382.459,344.416 	"/>
	<polyline class="st11" points="439.556,287.176 438.177,295.293 434.279,290.05 	"/>
</g>
<path class="st3" d="M197.474,456.711"/>
<circle cx="509" cy="453.711" r="163.5"/>
<path class="st20" d="M509,613.02c-87.982,0-159.308-71.324-159.308-159.308S421.017,294.404,509,294.404
	c43.992,0,79.654,35.662,79.654,79.654c0,43.991-35.662,79.654-79.654,79.654c-43.99,0-79.653,35.661-79.653,79.653
	S465.01,613.02,509,613.02"/>
<circle class="st20" cx="509" cy="533.365" r="20.961"/>
<circle cx="509" cy="374.058" r="20.961"/>
</svg>
