<?xml version="1.0" encoding="utf-8"?>
<!-- Generator: Adobe Illustrator 16.0.0, SVG Export Plug-In . SVG Version: 6.00 Build 0)  -->
<!DOCTYPE svg PUBLIC "-//W3C//DTD SVG 1.1//EN" "http://www.w3.org/Graphics/SVG/1.1/DTD/svg11.dtd">
<svg version="1.1" id="Layer_2" xmlns="http://www.w3.org/2000/svg" xmlns:xlink="http://www.w3.org/1999/xlink" x="0px" y="0px"
	 width="1000px" height="1000px" viewBox="0 0 1000 1000" style="enable-background:new 0 0 1000 1000;" xml:space="preserve">
<style type="text/css">
<![CDATA[
	.st0{display:none;fill:#FFFFFF;stroke:#000000;stroke-width:4;stroke-miterlimit:10;}
	.st1{fill:#FFFFFF;stroke:#000000;stroke-miterlimit:10;}
	.st2{fill:#484FAA;stroke:#FFFFFF;stroke-width:5;stroke-miterlimit:10;}
	.st3{display:inline;fill:none;stroke:#000000;stroke-width:9;stroke-miterlimit:10;}
	.st4{fill:#DDDDDD;stroke:#000000;stroke-width:10;stroke-miterlimit:10;enable-background:new    ;}
	.st5{display:inline;fill:#7F9E3D;stroke:#000000;stroke-width:3;stroke-miterlimit:10;}
	.st6{opacity:0.3;fill:#FCFCFC;stroke:#000000;stroke-width:5;stroke-miterlimit:10;enable-background:new    ;}
	.st7{display:none;fill:none;stroke:#000000;stroke-width:9;stroke-miterlimit:10;}
	.st8{display:inline;fill:none;stroke:#000000;stroke-width:4;stroke-miterlimit:10;}
	.st9{display:inline;fill:#FFFFFF;stroke:#000000;stroke-width:5;stroke-miterlimit:10;}
	.st10{fill:none;stroke:#000000;stroke-width:4;stroke-miterlimit:10;}
	.st11{display:inline;fill:#CACAEF;stroke:#000000;stroke-miterlimit:10;}
	.st12{font-family:'MyriadPro-Regular';}
	.st13{fill:#FFFFFF;stroke:#000000;stroke-width:5;stroke-miterlimit:10;}
	.st14{display:inline;fill:none;stroke:#000000;stroke-width:3;stroke-miterlimit:10;}
	.st15{display:none;enable-background:new    ;}
	.st16{display:inline;fill:#FFFFFF;stroke:#000000;stroke-width:4;stroke-miterlimit:10;}
	.st17{fill:none;stroke:#000000;stroke-width:3;stroke-miterlimit:10;}
	.st18{display:inline;}
	.st19{display:none;opacity:0.3;fill:#FCB1B1;stroke:#000000;stroke-miterlimit:10;enable-background:new    ;}
	.st20{display:none;fill:#7F9E3D;stroke:#000000;stroke-width:3;stroke-miterlimit:10;}
	.st21{display:inline;fill:#FFFFFF;stroke:#000000;stroke-width:3;stroke-miterlimit:10;}
	.st22{display:none;fill:#E4E4EF;stroke:#000000;stroke-width:2;stroke-miterlimit:10;}
	.st23{font-size:72;}
	.st24{display:none;}
	.st25{fill:#FFFFFF;stroke:#000000;stroke-width:3;stroke-miterlimit:10;}
]]>
</style>
<circle class="st19" cx="500" cy="453.711" r="302.542"/>
<circle class="st4" cx="500" cy="456.711" r="302.542"/>
<g id="Layer_x5F_1" class="st24">
	<path class="st16" d="M444.525,594.475c0,6.627-5.373,12-12,12H331.102c-6.627,0-12-5.373-12-12V348.983c0-6.627,5.373-12,12-12
		h101.424c6.627,0,12,5.373,12,12L444.525,594.475L444.525,594.475z"/>
	<path class="st16" d="M656.459,594.475c0,6.627-5.369,12-12,12H543.034c-6.627,0-12-5.373-12-12V348.983c0-6.627,5.373-12,12-12
		h101.425c6.631,0,12,5.373,12,12V594.475z"/>
	<path class="st16" d="M569.949,515.729c0,6.627-5.373,12-12,12H456.525c-6.627,0-12-5.373-12-12V270.237c0-6.627,5.373-12,12-12
		h101.424c6.627,0,12,5.373,12,12V515.729z"/>
	<path class="st9" d="M723.729,521.115c0,13.263-10.744,24-24,24H300.271c-13.255,0-24-10.737-24-24V318.272
		c0-13.254,10.745-24,24-24h399.457c13.256,0,24,10.746,24,24L723.729,521.115L723.729,521.115z"/>
	<path class="st21" d="M686.175,483.657c0,13.263-10.744,24-24,24H333.898c-13.255,0-24-10.737-24-24v-133.35
		c0-13.254,10.745-24,24-24h328.272c13.256,0,24,10.746,24,24L686.175,483.657L686.175,483.657z"/>
	<path id="vecmap" class="st3" d="M348.052,427.712c0,31.853,20.468,57.628,45.763,57.628"/>
	<path id="vecmap_1_" class="st8" d="M584.477,549.115c0,44.974,39.42,81.355,88.135,81.355"/>
	<path id="vecmap_2_" class="st8" d="M412.609,545.115c0,44.974-39.42,81.355-88.135,81.355"/>
	<g class="st18">
		<line id="vecmap_3_" class="st17" x1="317.407" y1="356.645" x2="678.427" y2="356.645"/>
	</g>
	<g class="st18">
		<line id="vecmap_4_" class="st17" x1="368.543" y1="365.119" x2="368.543" y2="497.322"/>
	</g>
	<g class="st18">
		<line id="vecmap_5_" class="st17" x1="637.717" y1="365.119" x2="637.717" y2="497.322"/>
	</g>
	<g class="st18">
		<rect id="vecmaprec" x="317.407" y="385.323" class="st25" width="355.205" height="80"/>
	</g>
	<g class="st18">
		<line class="st17" x1="317.407" y1="465.323" x2="672.611" y2="465.323"/>
	</g>
</g>
<text transform="matrix(1 0 0 1 461.9832 703.8977)" class="st15 st12 st23">3X</text>
<g id="Layer_3" class="st24">
	<g id="Layer_x5F_1_1_" class="st18">
		<path class="st0" d="M459.097,561.844c0,5.479-4.443,9.927-9.923,9.927h-83.869c-5.48,0-9.924-4.445-9.924-9.927V358.84
			c0-5.479,4.438-9.922,9.924-9.922h83.87c5.479,0,9.923,4.439,9.923,9.922L459.097,561.844L459.097,561.844z"/>
		<path class="st0" d="M634.35,561.844c0,5.479-4.441,9.927-9.922,9.927h-83.871c-5.482,0-9.924-4.445-9.924-9.927V358.84
			c0-5.479,4.438-9.922,9.924-9.922h83.871c5.479,0,9.922,4.439,9.922,9.922V561.844L634.35,561.844z"/>
		<path class="st0" d="M562.813,496.73c0,5.479-4.441,9.924-9.924,9.924h-83.87c-5.48,0-9.923-4.442-9.923-9.924V293.723
			c0-5.479,4.438-9.924,9.923-9.924h83.87c5.479,0,9.924,4.441,9.924,9.924V496.73z"/>
		<path class="st13" d="M689.979,501.187c0,10.963-8.885,19.846-19.846,19.846H339.808c-10.96,0-19.848-8.883-19.848-19.846V333.446
			c0-10.961,8.887-19.847,19.848-19.847h330.324c10.963,0,19.846,8.886,19.846,19.847L689.979,501.187L689.979,501.187z"/>
		<path class="st6" d="M658.925,470.209c0,10.965-8.893,19.846-19.854,19.846H367.614c-10.96,0-19.846-8.881-19.846-19.846V359.936
			c0-10.959,8.886-19.848,19.846-19.848h271.46c10.961,0,19.852,8.888,19.852,19.848L658.925,470.209L658.925,470.209z"/>
		<path id="vecmap_11_" class="st7" d="M379.318,423.945c0,26.34,16.926,47.653,37.844,47.653"/>
		<path id="vecmap_10_" class="st10" d="M574.827,524.338c0,37.188,32.604,67.274,72.887,67.274"/>
		<path id="vecmap_9_" class="st10" d="M432.703,521.031c0,37.188-32.598,67.272-72.881,67.272"/>
		<g class="st24">
			<line id="vecmap_8_" class="st14" x1="353.979" y1="365.176" x2="652.516" y2="365.176"/>
		</g>
		<g class="st24">
			<line id="vecmap_7_" class="st14" x1="396.264" y1="372.185" x2="396.264" y2="481.506"/>
		</g>
		<g class="st24">
			<line id="vecmap_6_" class="st14" x1="618.848" y1="372.185" x2="618.848" y2="481.506"/>
		</g>
		<g class="st24">
			<rect id="vecmaprec_1_" x="353.979" y="388.891" class="st21" width="293.731" height="66.154"/>
		</g>
		<g class="st24">
			<line class="st14" x1="353.979" y1="455.045" x2="647.714" y2="455.045"/>
		</g>
	</g>
</g>
<path class="st1" d="M620.219,343.602"/>
<path class="st22" d="M383.594,609.327c0,0,41.716-44.212,15.288,15.77"/>
<path class="st20" d="M464.223,276.828c0,0-78.911-29.715-127.529,42.813"/>
<g id="Leaf_3_1_" class="st24">
	<path class="st5" d="M470.5,276.5c0,0-98,22-99,126"/>
	<path class="st5" d="M371.473,402.48c100.821-25.536,99.053-125.959,99.053-125.959"/>
	<path class="st14" d="M470.5,276.5c0,0-103.91,121.786-97.995,125.829"/>
	<polyline class="st11" points="391.166,395.17 400.166,380.504 400.166,391.837 	"/>
	<polyline class="st11" points="414.49,383.839 414.49,369.17 417.834,374.837 421.382,365.837 426.523,374.682 	"/>
	<polyline class="st11" points="433.984,369.807 434.638,346.091 439.851,363.159 	"/>
	<polyline class="st11" points="447.577,352.719 445.5,344.75 451.209,347.93 	"/>
	<polyline class="st11" points="455.527,340.22 449.293,317.328 459.22,332.156 	"/>
	<polyline class="st11" points="411.372,307.083 408.569,330.642 404.927,313.172 	"/>
	<polyline class="st11" points="387.261,336.962 390.177,360.507 382.459,344.416 	"/>
	<polyline class="st11" points="439.556,287.176 438.177,295.293 434.279,290.05 	"/>
</g>
<path class="st2" d="M197.474,456.711"/>
<g transform="translate(-193.41417,-350.53782)">
	<path d="M734.032,668.991c-0.009-0.023,0.446,0.056,1.327,0.234c0.882,0.182,1.413,0.232,3.104,0.689s3.065,0.667,5.48,1.464
		c2.418,0.796,4.525,1.346,7.581,2.535c3.055,1.188,5.764,2.236,9.369,3.856c3.604,1.621,6.245,2.851,10.203,5.137
		c3.958,2.284,7.109,4.049,11.273,7.041c4.167,2.992,7.583,5.505,11.813,9.22c4.226,3.715,7.642,7.104,11.79,11.534
		c4.149,4.428,7.159,8.285,10.85,13.576c3.69,5.292,6.704,9.837,9.744,15.89s5.753,11.349,7.979,18.027
		c2.223,6.675,4.039,13.01,5.657,20.071c1.613,7.061,2.186,13.708,2.757,21.077c0.577,7.366,0.165,14.34-0.374,21.8
		c-0.533,7.458-1.991,14.563-3.653,21.883c-1.664,7.321-4.146,14.365-6.887,21.326c-2.734,6.957-6.255,13.718-9.958,20.112
		c-3.706,6.395-8.21,12.649-12.724,18.314c-4.514,5.662-9.855,11.244-14.996,16.056c-5.133,4.809-11.121,9.621-16.677,13.496
		c-5.556,3.874-11.975,7.912-17.736,10.811c-5.761,2.898-12.168,5.756-17.818,7.953c-5.657,2.196-12.505,4.317-17.987,5.578
		c-5.481,1.264-11.733,2.532-16.819,3.19c-5.083,0.659-11.013,1.222-15.579,1.359c-4.565,0.142-9.426,0.089-13.377,0.014
		c-3.949-0.071-8.812-0.628-12.064-1.012c-3.252-0.383-6.805-0.925-9.31-1.341c-2.507-0.42-5.307-0.989-7.017-1.354
		c-1.708-0.366-3.018-0.639-3.896-0.812c-0.879-0.177-1.328-0.252-1.318-0.223c0.016,0.052,0.039,0.099,0.063,0.146
		c0.024,0.046,0.053,0.093,0.085,0.14c0.032,0.048,0.07,0.094,0.108,0.139c0.039,0.043,0.082,0.088,0.127,0.134
		c0.046,0.043,0.095,0.088,0.146,0.131c0.054,0.043,0.106,0.086,0.163,0.126c0.059,0.043,0.116,0.084,0.179,0.125
		c0.062,0.04,0.126,0.083,0.191,0.122c0.067,0.039,0.136,0.081,0.205,0.121c0.07,0.035,0.141,0.08,0.215,0.118
		c0.073,0.032,0.147,0.08,0.223,0.116c0.078,0.034,0.152,0.077,0.229,0.114c0.08,0.035,0.157,0.078,0.235,0.115
		c0.081,0.034,0.159,0.077,0.239,0.114c0.082,0.035,0.16,0.078,0.241,0.114c0.082,0.034,0.162,0.075,0.242,0.112
		c0.081,0.034,0.162,0.077,0.24,0.114c0.082,0.035,0.161,0.076,0.238,0.115c0.08,0.031,0.156,0.074,0.232,0.111
		c0.079,0.035,0.153,0.077,0.229,0.117c0.074,0.035,0.147,0.077,0.219,0.116c0.074,0.033,0.143,0.079,0.211,0.116
		c0.07,0.037,0.135,0.08,0.2,0.121c0.065,0.036,0.127,0.082,0.188,0.122c0.061,0.041,0.117,0.084,0.173,0.123
		c0.056,0.043,0.106,0.085,0.156,0.128c0.049,0.043,0.096,0.086,0.141,0.129c0.044,0.045,0.084,0.089,0.121,0.134
		c0.036,0.045,0.069,0.091,0.1,0.136s0.056,0.091,0.078,0.139c0.021,0.049,0.041,0.095,0.054,0.145
		c0.015,0.049,0.025,0.097,0.028,0.146c-0.008,0.045,0.377,0.188,1.141,0.416c0.762,0.233,2.746,0.688,4.25,1.018
		s4.178,0.95,6.382,1.297c2.204,0.348,5.547,0.949,8.404,1.24c2.857,0.288,6.83,0.704,10.286,0.873
		c3.458,0.169,7.995,0.245,11.995,0.23c4-0.012,9.78-0.444,14.243-0.906c4.464-0.466,10.573-1.396,15.397-2.387
		c4.818-0.988,11.138-2.604,16.208-4.174c5.068-1.565,11.429-4.007,16.632-6.185c5.2-2.175,12.053-5.645,17.129-8.687
		c5.081-3.042,11.111-7.019,16.063-10.671c4.951-3.65,10.989-8.795,15.489-13.247c4.501-4.453,9.495-9.99,13.624-14.958
		c4.127-4.968,8.585-11.613,11.978-17.204c3.391-5.587,7.15-12.575,9.675-18.633c2.526-6.055,5.077-12.994,6.972-19.25
		c1.895-6.258,3.604-13.71,4.52-20.105c0.913-6.394,1.578-13.433,1.843-19.757c0.269-6.325,0.021-13.451-0.636-19.567
		s-1.672-12.572-2.874-18.371c-1.201-5.799-2.885-11.993-4.813-17.294c-1.927-5.299-4.013-10.729-6.292-15.521
		c-2.278-4.792-4.792-9.569-7.319-13.796c-2.523-4.223-5.24-8.341-7.896-11.958c-2.655-3.613-5.343-7.121-8.006-10.104
		c-2.661-2.983-5.251-5.767-7.674-8.237c-2.422-2.471-4.759-4.749-6.955-6.598c-2.194-1.852-4.106-3.592-5.879-4.952
		c-1.768-1.36-3.27-2.52-4.479-3.464c-1.213-0.948-2.186-1.636-2.826-2.107c-0.638-0.473-0.958-0.73-0.938-0.764
		c0.02-0.032,0.386,0.171,1.068,0.593c0.687,0.419,1.715,1.074,2.975,1.979c1.263,0.908,2.812,2.035,4.63,3.362
		c1.816,1.33,3.939,3.019,6.096,4.957c2.152,1.942,4.632,4.114,7.106,6.582c2.477,2.465,5.138,5.291,7.852,8.28
		s5.479,6.614,8.187,10.243c2.706,3.633,5.482,7.893,8.054,12.146c2.571,4.252,5.122,9.196,7.44,14.025
		c2.324,4.829,4.743,10.596,6.448,16.029c1.703,5.433,3.515,11.573,4.741,17.426c1.226,5.85,2.168,12.511,2.842,18.686
		c0.673,6.176,0.732,13.571,0.475,19.961c-0.259,6.386-1.092,13.611-2.008,20.069c-0.916,6.459-2.941,14.127-4.849,20.446
		c-1.907,6.318-4.658,13.973-7.506,19.954c-2.851,5.981-6.465,12.769-9.886,18.414c-3.422,5.646-8.318,12.324-12.482,17.347
		c-4.164,5.019-9.729,11.169-14.48,15.445c-4.754,4.276-10.576,9.133-15.574,12.826c-4.993,3.693-11.829,8.085-17.098,10.918
		c-5.267,2.832-11.795,6.014-17.043,8.22c-5.251,2.206-11.907,4.437-17.023,6.031c-5.115,1.595-11.714,2.959-16.579,3.976
		c-4.869,1.015-11.24,1.651-15.746,2.142c-4.506,0.486-10.521,0.59-14.562,0.628c-4.04,0.037-9.613-0.161-13.097-0.479
		c-3.481-0.314-7.6-0.734-10.474-1.142c-2.874-0.406-6.365-0.984-8.579-1.41c-2.215-0.425-5.047-0.99-6.561-1.358
		c-1.513-0.366-2.675-0.646-3.46-0.831c-0.785-0.186-1.194-0.274-1.202-0.268c-0.027,0.04,0.471,0.22,1.47,0.529
		s3.434,1.07,5.42,1.538c1.986,0.464,5.382,1.354,8.304,1.861c2.923,0.51,7.243,1.278,11.043,1.732
		c3.798,0.452,9.924,1.127,14.538,1.205c4.614,0.077,11.487,0.219,16.804-0.228c5.316-0.443,12.783-1.191,18.675-2.275
		c5.889-1.084,13.729-2.997,20.045-4.811c6.315-1.814,15.071-5.36,21.533-8.274c6.458-2.914,15.009-7.797,21.362-11.847
		c6.353-4.046,14.336-10.406,20.326-15.568c5.994-5.163,13.75-13.425,18.82-19.896c5.074-6.471,11.133-15.331,15.311-22.69
		c4.172-7.358,9.209-17.927,11.878-26.138c2.668-8.208,5.675-18.746,7.088-27.368c1.416-8.622,2.305-19.503,2.412-28.275
		c0.107-8.771-1.01-20.214-2.612-28.804c-1.6-8.589-4.449-18.806-7.24-26.977c-2.788-8.173-7.582-18.075-11.787-25.422
		c-4.207-7.346-10.006-15.603-15.069-22.084c-5.063-6.479-12.262-13.9-18.243-19.087c-5.981-5.188-13.362-10.951-19.723-15
		c-6.362-4.047-14.129-8.417-20.614-11.288c-6.486-2.875-13.867-5.597-20.123-7.646c-6.25-2.046-13.856-3.702-19.775-4.689
		c-5.914-0.988-12.49-1.733-17.827-2.086c-5.334-0.355-11.23-0.333-15.855-0.188c-4.625,0.147-9.716,0.58-13.522,1.068
		c-3.808,0.487-7.603,1.101-10.539,1.61c-2.938,0.514-5.806,1.191-7.815,1.627s-3.926,0.948-4.958,1.199
		c-1.033,0.249-1.573,0.354-1.587,0.302c-0.013-0.049,0.501-0.251,1.51-0.59c1.008-0.342,2.923-0.945,4.912-1.464
		c1.991-0.516,4.875-1.28,7.798-1.867c2.924-0.585,6.75-1.271,10.544-1.823c3.798-0.556,8.989-1.059,13.609-1.265
		c4.618-0.203,10.644-0.276,15.978,0.024c5.334,0.305,12.055,1.015,17.973,1.958c5.92,0.945,13.762,2.611,20.022,4.621
		c6.261,2.012,13.81,4.752,20.3,7.593c6.496,2.842,14.512,7.295,20.882,11.317c6.368,4.02,13.987,9.911,19.979,15.074
		c5.989,5.163,13.474,12.818,18.548,19.28c5.072,6.461,11.059,14.925,15.272,22.252c4.215,7.33,8.593,17.03,11.779,25.043
		c3.188,8.014,6.003,19.317,7.611,27.894c1.613,8.574,2.826,20.417,2.729,29.179c-0.093,8.758-0.952,19.958-2.354,28.568
		c-1.398,8.608-4.42,19.472-7.071,27.67c-2.653,8.203-7.787,19.205-11.939,26.56c-4.154,7.354-10.335,16.528-15.383,22.994
		c-5.048,6.47-12.607,14.218-18.317,19.667c-5.711,5.448-14.835,12.418-21.165,16.472c-6.325,4.058-15.12,9.191-21.555,12.121
		c-6.432,2.93-14.621,6.104-20.815,8.24c-6.192,2.135-15.282,4.201-21.146,5.316c-5.865,1.114-13.563,2.004-18.857,2.484
		c-5.29,0.482-12.421,0.476-17.015,0.446c-4.594-0.032-11.006-0.589-14.788-0.985c-3.784-0.398-8.255-1.085-11.166-1.528
		c-2.911-0.445-6.471-1.247-8.45-1.64c-1.979-0.395-4.598-1.065-5.594-1.296c-0.996-0.228-1.498-0.32-1.468-0.269
		c0.06,0.107,0.712,0.381,1.92,0.809c1.208,0.431,4.143,1.275,6.462,1.891c2.315,0.618,6.349,1.555,9.718,2.233
		c3.369,0.675,9.634,1.729,14.015,2.135c4.383,0.404,11.622,1.027,16.906,0.975c5.282-0.055,13.367-0.313,19.423-0.987
		c6.059-0.675,15.969-2.153,22.564-3.893c6.598-1.742,15.661-4.576,22.672-7.172c7.008-2.603,18.195-8.067,25.075-12.253
		c6.878-4.189,16.587-10.912,23.176-16.367c6.59-5.454,16.264-14.896,21.938-21.851c5.673-6.954,12.976-17.41,17.728-25.43
		c4.752-8.019,10.51-21.164,13.646-30.225c3.131-9.06,6.598-23.211,7.871-32.904c1.274-9.692,2.047-24.293,1.37-34.162
		c-0.679-9.866-2.789-24.276-5.37-33.862c-2.587-9.583-7.484-23.189-11.83-32.068c-4.344-8.878-11.77-21.15-17.653-28.948
		c-5.883-7.796-15.445-18.317-22.574-24.707c-7.129-6.387-18.334-14.875-26.344-19.598c-8.009-4.723-19.36-10.229-27.662-13.563
		c-8.307-3.333-21.21-6.984-29.594-8.504c-8.386-1.518-20.009-2.876-28.021-3.106c-8.013-0.229-19.084,0.369-26.466,1.252
		c-7.381,0.888-17.561,2.992-24.099,4.766c-6.54,1.773-15.675,4.858-21.214,7.26c-5.542,2.402-12.548,5.753-17.123,8.278
		c-4.575,2.522-10.442,6.172-14.021,8.618s-8.42,5.959-11.004,8.12c-2.584,2.158-5.598,4.666-7.305,6.239
		c-1.708,1.571-3.018,2.778-3.9,3.59c-0.881,0.814-2.05,2.021-2.05,2.021l8.543-7.946l8.232-6.686l8.607-6.2l9.875-6.207l9.35-5.022
		l9.626-4.472l9.875-3.91l11.158-3.539l10.322-2.585l10.462-1.977l11.689-1.395l10.66-0.573l10.687,0.056l11.821,0.828l10.608,1.488
		l10.511,2.112l10.375,2.735l10.193,3.341l11.04,4.49l9.672,4.662l9.372,5.224l10.006,6.456l8.587,6.424l8.188,6.918l7.766,7.386
		l8.025,8.753l6.721,8.338l6.225,8.716l6.246,10.093l5.033,9.461l4.477,9.735l4.269,11.107l3.167,10.258l2.57,10.434l1.955,10.574
		l1.338,11.907l0.537,10.771l-0.103,10.793l-0.93,12.028l-1.547,10.711L867,840.438l-2.805,10.467l-3.905,11.485l-4.161,10.014
		l-4.745,9.747l-5.315,9.446l-6.646,10.14l-6.521,8.647l-7.019,8.239l-8.409,8.686l-8.039,7.233l-8.446,6.752l-8.825,6.25
		l-10.311,6.285l-9.569,5.043l-9.848,4.483l-11.33,4.265l-10.369,3.158l-10.543,2.552l-11.992,2.077l-10.819,1.139l-10.878,0.497
		l-10.896-0.146l-12.237-1.031c0,0,30.87,4.193,42.02,2.917c7.709-0.882,20.397-3.384,29.35-5.764s25.016-8.605,34.319-13.679
		c9.303-5.071,23.545-14.319,32.6-21.813c9.055-7.487,22.458-21.855,30.018-32.104c7.56-10.248,18.853-30.521,23.762-44.699
		c4.908-14.171,10.276-38.617,10.782-55.03c0.505-16.413-2.58-43.439-7.783-59.618c-5.203-16.177-16.945-40.56-27.012-53.912
		c-10.07-13.351-29.316-32.855-43.28-42.059c-13.965-9.198-36.483-20.054-50.453-24.07c-13.967-4.019-34.764-7.161-45.361-7.458
		c-10.599-0.296-23.086,0.65-23.976,0.761c-0.891,0.109-6.412,0.654-12.502,1.597c-6.089,0.943-18.065,3.685-26.56,6.25
		c-8.492,2.567-22.798,8.725-32.194,13.625c-9.396,4.904-24.393,15.334-32.774,22.631c-8.383,7.298-20.158,20.135-27.317,29.328
		s-16.573,26.39-21.264,37.055c-4.692,10.668-10.389,29.484-12.217,40.449s-3.211,28.206-2.923,38.244
		c0.287,10.037,2.305,26.373,4.39,35.636c2.085,9.262,6.879,24.443,10.374,32.453c3.495,8.014,9.744,19.974,13.837,26.601
		c4.092,6.627,11.643,16.727,15.896,21.819c4.256,5.091,11.039,11.998,14.799,15.704c15.55,10.909,11.732,6.351,26.023,11.817
		c20.756,8.155,48.181-0.66,52.886-9.794c4.708-9.135-1.39-33.789-26.428-58.719c-3.786-3.478-5.413-4.785-9.779-9.637
		c-4.367-4.851-5.45-5.962-9.768-12.397c-4.315-6.436-5.65-8.793-9.482-16.724c-3.832-7.927-4.3-9.701-6.807-19.074
		c-2.507-9.369-2.795-11.886-3.523-22.288c-0.73-10.404-0.976-12.226,1.078-24.099s2.092-15.094,7.383-26.987
		c5.292-11.895,6.775-15.722,14.991-26.229s11.386-13.684,21.595-21.745c10.209-8.061,12.89-9.943,24.775-14.794
		c11.888-4.851,15.691-6.584,26.614-8.236c10.921-1.656,14.764-2.375,22.713-2.043c7.948,0.333,10.883,0.482,11.522,0.565
		c0.646,0.08,2.933,0.075,8.886,1.09c5.952,1.019,9.604,1.287,18.497,4.229c8.896,2.943,13.801,4.547,24.022,10.388
		c10.22,5.842,15.423,9.469,24.884,18.521c9.46,9.052,14.263,14.441,21.336,26.776c7.071,12.334,11.048,20.321,14.452,34.669
		c3.405,14.346,4.971,24.127,4.047,38.772c-0.921,14.642-2.991,25.385-7.323,38.694c-4.333,13.313-9.172,22.763-16.951,33.793
		c-7.773,11.028-15.294,19.331-24.84,27.61c-9.547,8.276-18.719,14.055-28.873,19.285c0.67-0.096,1.579-0.313,2.711-0.653
		c1.135-0.338,2.321-0.75,3.864-1.394c1.538-0.643,3.173-1.271,5.07-2.241c1.896-0.969,3.894-1.896,6.087-3.208
		c2.191-1.312,4.466-2.602,6.903-4.269c2.442-1.664,4.895-3.367,7.524-5.391c2.632-2.021,5.173-4.18,7.94-6.561
		c2.771-2.381,5.188-4.877,7.908-7.745c2.723-2.868,5.237-5.609,7.82-8.953c2.584-3.348,5.014-6.699,7.551-10.371
		c2.537-3.673,4.49-7.312,6.742-11.405c2.249-4.093,3.966-7.988,5.855-12.452c1.886-4.467,3.295-8.584,4.757-13.354
		c1.46-4.773,2.514-9.066,3.496-14.071c0.984-5.008,1.606-9.418,2.083-14.579c0.479-5.163,0.608-9.621,0.563-14.851
		c-0.046-5.232-0.438-9.653-1.007-14.873c-0.565-5.219-1.479-9.511-2.554-14.634c-1.073-5.124-2.474-9.196-4.028-14.148
		c-1.554-4.948-2.996-8.339-5.214-12.946c-2.211-4.604-3.932-8.216-6.518-12.494c-2.588-4.28-4.574-7.527-7.473-11.428
		c-2.896-3.896-5.043-6.766-8.186-10.24c-3.142-3.476-5.325-5.979-8.635-8.996c-3.31-3.02-6.107-5.437-9.373-8.143
		s-5.562-4.19-8.852-6.416c-3.291-2.225-5.252-3.539-8.48-5.289s-5.644-3.058-8.65-4.506c-3.01-1.447-5.2-2.38-7.938-3.542
		c-2.741-1.162-4.627-1.784-7.047-2.682c-2.415-0.896-3.926-1.295-5.973-1.956c-2.049-0.656-3.116-0.935-4.749-1.389V669"/>
</g>
</svg>
